G04 DipTrace 3.3.1.1*
G04 BottomMask.gbr*
%MOMM*%
G04 #@! TF.FileFunction,Soldermask,Bot*
G04 #@! TF.Part,Single*
%AMOUTLINE1*
4,1,4,
-0.6657,0.6657,
0.6657,0.6657,
0.6657,-0.6657,
-0.6657,-0.6657,
-0.6657,0.6657,
0*%
%ADD17C,1.8*%
%ADD19C,1.6*%
%ADD23R,1.8X1.8*%
%ADD32C,2.0*%
%ADD33C,2.0*%
%ADD43C,1.8*%
%ADD46C,3.1*%
%ADD56O,2.0X3.8*%
%ADD58O,3.8X2.0*%
%ADD61O,3.4X1.8*%
%ADD63R,3.4X1.8*%
%ADD65O,2.1X4.0*%
%ADD67R,2.1X4.0*%
%ADD69O,1.8X3.4*%
%ADD71R,1.8X3.4*%
%ADD73C,2.2*%
%ADD74C,2.2*%
%ADD76C,3.6*%
%ADD78C,4.7*%
%ADD80O,2.2X4.7*%
%ADD82O,4.7X2.2*%
%ADD84O,5.2X2.2*%
%ADD86C,2.6*%
%ADD87R,2.6X2.6*%
%ADD89R,2.0X2.0*%
%ADD90C,1.7*%
%ADD92R,1.7X1.7*%
%ADD94C,3.4*%
%ADD102OUTLINE1*%
%FSLAX35Y35*%
G04*
G71*
G90*
G75*
G01*
G04 BotMask*
%LPD*%
D33*
X7146440Y6528797D3*
Y6782797D3*
D23*
X6314093Y9103533D3*
D17*
Y8853533D3*
D23*
X5750350Y9103533D3*
D17*
Y8853533D3*
D33*
X10233917Y8688343D3*
Y8942343D3*
X10234600Y6823387D3*
Y6569387D3*
X15225893Y4307183D3*
Y4053183D3*
D23*
X12683590Y6088587D3*
D17*
Y5838587D3*
D23*
X13260910Y6088587D3*
D17*
Y5838587D3*
D23*
X13836953Y6088587D3*
D17*
Y5838587D3*
D33*
X14344340Y6821137D3*
Y6567137D3*
X15420767Y7888683D3*
Y7634683D3*
X15106680Y8892307D3*
Y9146307D3*
X14852977Y8892237D3*
Y9146237D3*
X12819700Y6567137D3*
Y6821137D3*
D94*
X11469727Y9699933D3*
X10969727Y9700067D3*
D33*
X13582533Y8506343D3*
Y8760343D3*
X13328110Y8506343D3*
Y8760343D3*
X13074420D3*
Y8506343D3*
D92*
X1748337Y8193397D3*
D90*
Y7693397D3*
D33*
X7133083Y7647147D3*
Y7901147D3*
X8168413Y6782447D3*
Y6528447D3*
X9697223Y7647147D3*
Y7901147D3*
X6259707Y2993940D3*
Y3247940D3*
X10967010Y2993940D3*
Y3247940D3*
X8613270Y2993940D3*
Y3247940D3*
X12513703Y7901147D3*
Y7647147D3*
D23*
X1820527Y3833603D3*
D17*
X2070527D3*
D33*
X2680887Y3836230D3*
X2426887D3*
D92*
X1750047Y9551523D3*
D90*
Y9051523D3*
D23*
X1820527Y6839480D3*
D17*
X2070527D3*
D33*
X2680887Y6838513D3*
X2426887D3*
X4049247Y7647147D3*
Y7901147D3*
X3975593Y2993940D3*
Y3247940D3*
X13320633Y2993940D3*
Y3247940D3*
D89*
X6314087Y9603890D3*
D33*
X5304087D3*
D89*
X4684993Y7070787D3*
D33*
Y6060787D3*
D87*
X3352017Y7741307D3*
D86*
Y8846307D3*
D87*
X3036937Y8841360D3*
D86*
Y7736360D3*
D87*
Y4352910D3*
D86*
Y3247910D3*
D87*
Y6228387D3*
D86*
Y7333387D3*
D87*
Y2915953D3*
D86*
Y1810953D3*
D87*
Y4814940D3*
D86*
Y5919940D3*
D84*
X4000247Y10081673D3*
D82*
Y10681673D3*
D80*
X3510247Y10381673D3*
D78*
X9501053Y10258244D3*
D76*
X10001053D3*
D78*
X10501053D3*
X10001053Y10708244D3*
X12501053Y10258244D3*
D76*
X13001053D3*
D78*
X13501053D3*
X13001053Y10708244D3*
D92*
X12031960Y7491553D3*
D90*
X11777960D3*
X11523960D3*
D102*
X4742567Y8845630D3*
D19*
X4615567Y8972630D3*
X4742567Y9099630D3*
D74*
X10849810Y10809920D3*
D73*
X11611810D3*
D74*
X7661017Y6275843D3*
D73*
Y7037843D3*
D74*
X7395893D3*
D73*
Y6275843D3*
D74*
X8422477Y6275837D3*
D73*
Y7037837D3*
D74*
X5304103Y9369067D3*
D73*
Y8607067D3*
D74*
X5049683Y9369110D3*
D73*
Y8607110D3*
D74*
X6188313Y9908510D3*
D73*
X5426313D3*
D74*
X4303050Y8610307D3*
D73*
Y9372307D3*
D74*
X6336040Y7386373D3*
D73*
Y8148373D3*
D74*
X6211207Y8444273D3*
D73*
X5449207D3*
D74*
X6590360Y8147243D3*
D73*
Y7385243D3*
D74*
X6590230Y7035633D3*
D73*
Y6273633D3*
D74*
X5879237Y4562693D3*
D73*
Y3800693D3*
D74*
X5370760Y4562693D3*
D73*
Y3800693D3*
D74*
X11254693Y3881500D3*
D73*
X12016693D3*
D74*
X5192477Y6184437D3*
D73*
Y6946437D3*
D74*
X5446943D3*
D73*
Y6184437D3*
D74*
X4938880D3*
D73*
Y6946437D3*
D74*
X14971417Y4561943D3*
D73*
Y3799943D3*
D74*
X10488123Y9194947D3*
D73*
Y8432947D3*
D74*
X14717633Y1548133D3*
D73*
Y2310133D3*
D74*
X13701473Y1548133D3*
D73*
Y2310133D3*
D74*
X13957577Y4562023D3*
D73*
Y3800023D3*
D74*
X13703263Y4562023D3*
D73*
Y3800023D3*
D74*
X13955227Y1548133D3*
D73*
Y2310133D3*
D74*
X14971490Y1548133D3*
D73*
Y2310133D3*
D74*
X14465653Y4562023D3*
D73*
Y3800023D3*
D74*
X14208887Y1548133D3*
D73*
Y2310133D3*
D74*
X14463373Y1548133D3*
D73*
Y2310133D3*
D74*
X14090587Y7076507D3*
D73*
Y6314507D3*
D74*
X14598260Y7074637D3*
D73*
Y6312637D3*
D74*
X14597997Y8640020D3*
D73*
Y9402020D3*
D74*
X14343770Y9402170D3*
D73*
Y8640170D3*
D74*
X9980550Y6315970D3*
D73*
Y7077970D3*
D74*
X10488503D3*
D73*
Y6315970D3*
D74*
X13761183Y9717703D3*
D73*
X12999183D3*
D71*
X8325407Y4158140D3*
D69*
X8071407D3*
X7817407D3*
X7563407D3*
X7309407D3*
X7055407D3*
X6801407D3*
X6547407D3*
D67*
X2557700Y3320167D3*
D65*
X2303700D3*
X2049700D3*
D67*
X2557700Y6355347D3*
D65*
X2303700D3*
X2049700D3*
D63*
X12746660Y8500437D3*
D61*
Y8754437D3*
Y9008437D3*
Y9262437D3*
X11984660D3*
Y9008437D3*
Y8754437D3*
Y8500437D3*
D74*
X7600217Y10214220D3*
Y10814120D3*
X6400617Y10214520D3*
Y10814120D3*
D43*
X7399817Y10389820D3*
X7000717D3*
X6600417D3*
D71*
X7406277Y7380767D3*
D69*
X7660277D3*
X7914277D3*
X8168277D3*
Y8142767D3*
X7914277D3*
X7660277D3*
X7406277D3*
D71*
X9980480Y7380767D3*
D69*
X10234480D3*
X10488480D3*
X10742480D3*
Y8142767D3*
X10488480D3*
X10234480D3*
X9980480D3*
D71*
X4431077Y7380767D3*
D69*
X4685077D3*
X4939077D3*
X5193077D3*
X5447077D3*
X5701077D3*
X5955077D3*
Y8142767D3*
X5701077D3*
X5447077D3*
X5193077D3*
X4939077D3*
X4685077D3*
X4431077D3*
D71*
X4354990Y2738257D3*
D69*
X4608990D3*
X4862990D3*
X5116990D3*
X5370990D3*
X5624990D3*
X5878990D3*
Y3500257D3*
X5624990D3*
X5370990D3*
X5116990D3*
X4862990D3*
X4608990D3*
X4354990D3*
D71*
X6547280Y2738257D3*
D69*
X6801280D3*
X7055280D3*
X7309280D3*
X7563280D3*
X7817280D3*
X8071280D3*
X8325280D3*
Y3500257D3*
X8071280D3*
X7817280D3*
X7563280D3*
X7309280D3*
X7055280D3*
X6801280D3*
X6547280D3*
D71*
X8901307Y2738257D3*
D69*
X9155307D3*
X9409307D3*
X9663307D3*
X9917307D3*
X10171307D3*
X10425307D3*
X10679307D3*
Y3500257D3*
X10425307D3*
X10171307D3*
X9917307D3*
X9663307D3*
X9409307D3*
X9155307D3*
X8901307D3*
D71*
X11254733Y2738257D3*
D69*
X11508733D3*
X11762733D3*
X12016733D3*
X12270733D3*
X12524733D3*
X12778733D3*
X13032733D3*
Y3500257D3*
X12778733D3*
X12524733D3*
X12270733D3*
X12016733D3*
X11762733D3*
X11508733D3*
X11254733D3*
D71*
X13701330Y2738257D3*
D69*
X13955330D3*
X14209330D3*
X14463330D3*
X14717330D3*
X14971330D3*
X15225330D3*
Y3500257D3*
X14971330D3*
X14717330D3*
X14463330D3*
X14209330D3*
X13955330D3*
X13701330D3*
D71*
X12820463Y7380767D3*
D69*
X13074463D3*
X13328463D3*
X13582463D3*
X13836467D3*
X14090467D3*
X14344463D3*
X14598467D3*
X14852467D3*
X15106463D3*
X12820467Y8142767D3*
X13074467D3*
X13328467D3*
X13582463D3*
X13836467D3*
X14090467D3*
X14344463D3*
X14598467D3*
X14852467D3*
X15106463D3*
D58*
X15746220Y5873170D3*
Y6127170D3*
Y6381170D3*
Y6635170D3*
Y5619170D3*
Y5365170D3*
D56*
X8372857Y1254100D3*
X8626857D3*
X8880857D3*
X9134857D3*
X8118857D3*
X7864857D3*
X3868587Y1253833D3*
X4122587D3*
X4376587D3*
X4630587D3*
D58*
X1254217Y4456327D3*
Y4710327D3*
Y4964327D3*
Y5218327D3*
D32*
X10967850Y8625737D3*
X11455963Y8626173D3*
X10968783Y9133547D3*
X11456897Y9133983D3*
D46*
X1254000Y10746000D3*
Y1254000D3*
X15746000D3*
Y10746000D3*
M02*
