M48
METRIC,0000.00
T01C0.486
T02C0.8
T03C0.9
T04C1.0
T05C1.1
T06C1.2
T07C1.6
T08C1.7
T09C2.6
T10C3.1
%
T02
X+007146Y+006529
X+007146Y+006783
X+006314Y+009104
X+006314Y+008854
X+005750Y+009104
X+005750Y+008854
X+010234Y+008688
X+010234Y+008942
X+010235Y+006823
X+010235Y+006569
X+015226Y+004307
X+015226Y+004053
X+012684Y+006089
X+012684Y+005839
X+013261Y+006089
X+013261Y+005839
X+013837Y+006089
X+013837Y+005839
X+014344Y+006821
X+014344Y+006567
X+015421Y+007889
X+015421Y+007635
X+015107Y+008892
X+015107Y+009146
X+014853Y+008892
X+014853Y+009146
X+012820Y+006567
X+012820Y+006821
T07
X+011470Y+009700
X+010970Y+009700
T02
X+013583Y+008506
X+013583Y+008760
X+013328Y+008506
X+013328Y+008760
X+013074Y+008760
X+013074Y+008506
T03
X+001748Y+008193
X+001748Y+007693
T02
X+007133Y+007647
X+007133Y+007901
X+008168Y+006782
X+008168Y+006528
X+009697Y+007647
X+009697Y+007901
X+006260Y+002994
X+006260Y+003248
X+010967Y+002994
X+010967Y+003248
X+008613Y+002994
X+008613Y+003248
X+012514Y+007901
X+012514Y+007647
X+001821Y+003834
X+002071Y+003834
X+002681Y+003836
X+002427Y+003836
T03
X+001750Y+009552
X+001750Y+009052
T02
X+001821Y+006839
X+002071Y+006839
X+002681Y+006839
X+002427Y+006839
X+004049Y+007647
X+004049Y+007901
X+003976Y+002994
X+003976Y+003248
X+013321Y+002994
X+013321Y+003248
T03
X+006314Y+009604
X+005304Y+009604
X+004685Y+007071
X+004685Y+006061
T06
X+003352Y+007741
X+003352Y+008846
X+003037Y+008841
X+003037Y+007736
X+003037Y+004353
X+003037Y+003248
X+003037Y+006228
X+003037Y+007333
X+003037Y+002916
X+003037Y+001811
X+003037Y+004815
X+003037Y+005920
T04
X+004150Y+010082G85X+003850Y+010082
X+004125Y+010682G85X+003875Y+010682
X+003510Y+010257G85X+003510Y+010507
T09
X+009501Y+010258
T08
X+010001Y+010258
T09
X+010501Y+010258
X+010001Y+010708
X+012501Y+010258
T08
X+013001Y+010258
T09
X+013501Y+010258
X+013001Y+010708
T03
X+012032Y+007492
X+011778Y+007492
X+011524Y+007492
T02
X+004743Y+008846
X+004616Y+008973
X+004743Y+009100
T04
X+010850Y+010810
X+011612Y+010810
X+007661Y+006276
X+007661Y+007038
X+007396Y+007038
X+007396Y+006276
X+008422Y+006276
X+008422Y+007038
X+005304Y+009369
X+005304Y+008607
X+005050Y+009369
X+005050Y+008607
X+006188Y+009909
X+005426Y+009909
X+004303Y+008610
X+004303Y+009372
X+006336Y+007386
X+006336Y+008148
X+006211Y+008444
X+005449Y+008444
X+006590Y+008147
X+006590Y+007385
X+006590Y+007036
X+006590Y+006274
X+005879Y+004563
X+005879Y+003801
X+005371Y+004563
X+005371Y+003801
X+011255Y+003882
X+012017Y+003882
X+005192Y+006184
X+005192Y+006946
X+005447Y+006946
X+005447Y+006184
X+004939Y+006184
X+004939Y+006946
X+014971Y+004562
X+014971Y+003800
X+010488Y+009195
X+010488Y+008433
X+014718Y+001548
X+014718Y+002310
X+013701Y+001548
X+013701Y+002310
X+013958Y+004562
X+013958Y+003800
X+013703Y+004562
X+013703Y+003800
X+013955Y+001548
X+013955Y+002310
X+014971Y+001548
X+014971Y+002310
X+014466Y+004562
X+014466Y+003800
X+014209Y+001548
X+014209Y+002310
X+014463Y+001548
X+014463Y+002310
X+014091Y+007077
X+014091Y+006315
X+014598Y+007075
X+014598Y+006313
X+014598Y+008640
X+014598Y+009402
X+014344Y+009402
X+014344Y+008640
X+009981Y+006316
X+009981Y+007078
X+010489Y+007078
X+010489Y+006316
X+013761Y+009718
X+012999Y+009718
X+008325Y+004158
X+008071Y+004158
X+007817Y+004158
X+007563Y+004158
X+007309Y+004158
X+007055Y+004158
X+006801Y+004158
X+006547Y+004158
T05
X+002558Y+003320
X+002304Y+003320
X+002050Y+003320
X+002558Y+006355
X+002304Y+006355
X+002050Y+006355
T04
X+012747Y+008500
X+012747Y+008754
X+012747Y+009008
X+012747Y+009262
X+011985Y+009262
X+011985Y+009008
X+011985Y+008754
X+011985Y+008500
X+007600Y+010214
X+007600Y+010814
X+006401Y+010215
X+006401Y+010814
T02
X+007400Y+010390
X+007001Y+010390
X+006600Y+010390
T04
X+007406Y+007381
X+007660Y+007381
X+007914Y+007381
X+008168Y+007381
X+008168Y+008143
X+007914Y+008143
X+007660Y+008143
X+007406Y+008143
X+009980Y+007381
X+010234Y+007381
X+010488Y+007381
X+010742Y+007381
X+010742Y+008143
X+010488Y+008143
X+010234Y+008143
X+009980Y+008143
X+004431Y+007381
X+004685Y+007381
X+004939Y+007381
X+005193Y+007381
X+005447Y+007381
X+005701Y+007381
X+005955Y+007381
X+005955Y+008143
X+005701Y+008143
X+005447Y+008143
X+005193Y+008143
X+004939Y+008143
X+004685Y+008143
X+004431Y+008143
X+004355Y+002738
X+004609Y+002738
X+004863Y+002738
X+005117Y+002738
X+005371Y+002738
X+005625Y+002738
X+005879Y+002738
X+005879Y+003500
X+005625Y+003500
X+005371Y+003500
X+005117Y+003500
X+004863Y+003500
X+004609Y+003500
X+004355Y+003500
X+006547Y+002738
X+006801Y+002738
X+007055Y+002738
X+007309Y+002738
X+007563Y+002738
X+007817Y+002738
X+008071Y+002738
X+008325Y+002738
X+008325Y+003500
X+008071Y+003500
X+007817Y+003500
X+007563Y+003500
X+007309Y+003500
X+007055Y+003500
X+006801Y+003500
X+006547Y+003500
X+008901Y+002738
X+009155Y+002738
X+009409Y+002738
X+009663Y+002738
X+009917Y+002738
X+010171Y+002738
X+010425Y+002738
X+010679Y+002738
X+010679Y+003500
X+010425Y+003500
X+010171Y+003500
X+009917Y+003500
X+009663Y+003500
X+009409Y+003500
X+009155Y+003500
X+008901Y+003500
X+011255Y+002738
X+011509Y+002738
X+011763Y+002738
X+012017Y+002738
X+012271Y+002738
X+012525Y+002738
X+012779Y+002738
X+013033Y+002738
X+013033Y+003500
X+012779Y+003500
X+012525Y+003500
X+012271Y+003500
X+012017Y+003500
X+011763Y+003500
X+011509Y+003500
X+011255Y+003500
X+013701Y+002738
X+013955Y+002738
X+014209Y+002738
X+014463Y+002738
X+014717Y+002738
X+014971Y+002738
X+015225Y+002738
X+015225Y+003500
X+014971Y+003500
X+014717Y+003500
X+014463Y+003500
X+014209Y+003500
X+013955Y+003500
X+013701Y+003500
X+012820Y+007381
X+013074Y+007381
X+013328Y+007381
X+013582Y+007381
X+013836Y+007381
X+014090Y+007381
X+014344Y+007381
X+014598Y+007381
X+014852Y+007381
X+015106Y+007381
X+012820Y+008143
X+013074Y+008143
X+013328Y+008143
X+013582Y+008143
X+013836Y+008143
X+014090Y+008143
X+014344Y+008143
X+014598Y+008143
X+014852Y+008143
X+015106Y+008143
T03
X+015746Y+005873
X+015746Y+006127
X+015746Y+006381
X+015746Y+006635
X+015746Y+005619
X+015746Y+005365
X+008373Y+001254
X+008627Y+001254
X+008881Y+001254
X+009135Y+001254
X+008119Y+001254
X+007865Y+001254
X+003869Y+001254
X+004123Y+001254
X+004377Y+001254
X+004631Y+001254
X+001254Y+004456
X+001254Y+004710
X+001254Y+004964
X+001254Y+005218
X+010968Y+008626
X+011456Y+008626
X+010969Y+009134
X+011457Y+009134
T10
X+001254Y+010746
X+001254Y+001254
X+015746Y+001254
X+015746Y+010746
T01
X+013097Y+009142
X+006028Y+002309
X+014958Y+006123
X+015261Y+002011
X+003363Y+001787
X+006945Y+008461
X+005701Y+005947
X+006909Y+007288
X+014480Y+005430
X+014480Y+005664
X+004033Y+006755
X+006118Y+004390
X+006409Y+005948
X+004592Y+005259
X+004427Y+005794
X+007435Y+003115
X+004267Y+005878
X+004756Y+005265
X+008255Y+004984
X+006188Y+004984
X+004258Y+006050
X+004929Y+005273
X+006409Y+003086
X+006409Y+004404
X+006673Y+003855
X+005285Y+004908
X+004355Y+003952
X+006177Y+004653
X+004609Y+003957
X+010856Y+002330
X+008467Y+003819
X+008467Y+004358
X+012564Y+003974
X+013351Y+004391
X+007241Y+005705
X+004929Y+006548
X+013260Y+004301
X+006983Y+005580
X+006647Y+006044
X+014594Y+001927
X+006688Y+005805
X+008723Y+005912
X+009409Y+002066
X+013296Y+002074
X+014749Y+002079
X+013171Y+001698
X+014554Y+001698
X+015345Y+003239
X+015462Y+005052
X+015181Y+005052
X+015181Y+005502
X+015181Y+005754
X+015181Y+005997
T00
M30
