G04 DipTrace 3.3.1.1*
G04 Top.gbr*
%MOMM*%
G04 #@! TF.FileFunction,Copper,L1,Top*
G04 #@! TF.Part,Single*
%AMOUTLINE0*
4,1,4,
-0.5657,0.5657,
0.5657,0.5657,
0.5657,-0.5657,
-0.5657,-0.5657,
-0.5657,0.5657,
0*%
G04 #@! TA.AperFunction,Conductor*
%ADD13C,0.66*%
%ADD14C,1.0*%
%ADD15C,0.5*%
G04 #@! TA.AperFunction,CopperBalancing*
%ADD16C,0.635*%
G04 #@! TA.AperFunction,ComponentPad*
%ADD17C,1.8*%
%ADD18R,1.6X1.6*%
%ADD19C,1.6*%
%ADD20C,3.2*%
%ADD21R,1.5X1.5*%
%ADD22C,1.5*%
%ADD23R,1.8X1.8*%
%ADD24R,2.4X2.4*%
%ADD25C,2.4*%
%ADD26O,5.0X2.0*%
%ADD27O,4.5X2.0*%
%ADD28O,2.0X4.5*%
%ADD29C,4.5*%
%ADD30C,3.4*%
%ADD31C,1.4*%
%ADD32C,2.0*%
%ADD33C,2.0*%
%ADD34R,1.6X3.2*%
%ADD35O,1.6X3.2*%
%ADD36R,1.9X3.8*%
%ADD37O,1.9X3.8*%
%ADD38R,3.2X1.6*%
%ADD39O,3.2X1.6*%
%ADD40C,1.6*%
%ADD41O,3.6X1.8*%
%ADD42O,1.8X3.6*%
%ADD43C,1.8*%
G04 #@! TA.AperFunction,ViaPad*
%ADD44C,1.016*%
G04 #@! TA.AperFunction,ComponentPad*
%ADD101OUTLINE0*%
%FSLAX35Y35*%
G04*
G71*
G90*
G75*
G01*
G04 Top*
%LPD*%
X14852977Y9146237D2*
D13*
X14853047Y9146307D1*
X15106680D1*
X13074420Y8760343D2*
X13328110Y8506653D1*
Y8506343D1*
X4303050Y9372307D2*
D14*
X4297487Y9366743D1*
Y9115477D1*
X6600417Y10389820D2*
X4942997D1*
X4293293Y9740117D1*
X3694757D1*
X3352017Y9397377D1*
Y8846307D1*
X3036937Y8841360D2*
X3041883Y8846307D1*
X3352017D1*
X3036937Y3247910D2*
Y2915953D1*
X1254217Y4456327D2*
X1820527Y3890017D1*
Y3833603D1*
X2049700Y3320167D2*
Y3604430D1*
X1820527Y3833603D1*
X2426887Y3836230D2*
X2330233D1*
X2049700Y3555697D1*
Y3320167D1*
X2026267Y3296733D1*
Y2966333D1*
X2076647Y2915953D1*
X3036937D1*
Y3247910D2*
X3036967Y3247940D1*
X3975593D1*
X4862990D1*
X6259707D1*
X6547280D1*
X8613270D1*
X8901307D1*
X10967010D1*
X11254733D1*
X13320633D1*
X13701330Y3500257D2*
X13696740Y3495667D1*
Y3344727D1*
X13599953Y3247940D1*
X13320633D1*
X11254733Y3500257D2*
Y3247940D1*
X11254693Y3881500D2*
X11254733Y3881460D1*
Y3500257D1*
X8901307D2*
Y3247940D1*
X6547280Y3500257D2*
Y3247940D1*
X4862990Y2738257D2*
Y3247940D1*
X3975593D2*
X3672793D1*
Y7673420D1*
X3900520Y7901147D1*
X4049247D1*
X4938880Y6184437D2*
X5192477D1*
X4049247Y7901147D2*
X4939077D1*
X7133083D1*
X7406277D1*
X9697223D1*
X9703417Y7907340D1*
X9697223Y7901147D2*
X9980480D1*
X12513703D1*
X12514637Y7900213D1*
X14272380D1*
X14344463Y7972297D1*
Y8142767D1*
X4939077Y7380767D2*
Y7901147D1*
X7406277Y8142767D2*
Y7901147D1*
X9980480Y8142767D2*
Y7901147D1*
X8613270Y3247940D2*
X8602020Y3259190D1*
Y3881527D1*
X8325407Y4158140D1*
X5049683Y8607110D2*
X5035943Y8620850D1*
X4684603D1*
X4447930Y8384177D1*
X4107307D1*
X4049247Y8326117D1*
Y7901147D1*
X5049683Y8607110D2*
D13*
X5049020Y8607773D1*
Y8793180D1*
X4742567Y9099630D1*
X10849810Y10809920D2*
X10598567D1*
X10001053Y10212407D1*
Y10258243D1*
X7661017Y6275843D2*
X7869670Y6067190D1*
X10079513D1*
X10234600Y6222277D1*
Y6569387D1*
X7660277Y7380767D2*
X7661017Y7380027D1*
Y7037843D1*
X7395893D2*
X7661017D1*
X7660277Y8142767D2*
X7645857Y8157187D1*
Y8269177D1*
X7454253Y8460780D1*
X6945423D1*
X6491323D1*
X6314093Y8638010D1*
Y8853533D1*
X6188313Y9908510D2*
X6314087Y9782737D1*
Y9603890D1*
X6314093Y9603883D1*
Y9103533D1*
X5304087Y9603890D2*
X5304103Y9603873D1*
Y9369067D1*
X5049683Y9369110D2*
X5049727Y9369067D1*
X5304103D1*
X5750350Y9103533D2*
X5484817Y9369067D1*
X5304103D1*
X5700750Y5946887D2*
X5116990Y5363127D1*
Y3500257D1*
X5701077Y7380767D2*
X5692113Y7389730D1*
Y7168843D1*
X5788497Y7072460D1*
X6282463D1*
X6336040Y7126037D1*
Y7386373D1*
X6538283Y7588617D1*
X6810987D1*
X6908973Y7490630D1*
Y7287660D1*
X5370760Y3800693D2*
X5370990Y3800463D1*
Y3500257D1*
X8626857Y1254100D2*
Y1418997D1*
X9018663Y1810803D1*
X14722623D1*
X15565980Y2654160D1*
Y4529877D1*
X15230090Y4865767D1*
X14769397D1*
X14465653Y4562023D1*
X14479690Y5429670D2*
Y5663773D1*
X8880857Y1254100D2*
Y1466933D1*
X8966237Y1552313D1*
X9265473D1*
X9456850Y1360937D1*
X14021690D1*
X14208887Y1548133D1*
X9980480Y7380767D2*
X9980550Y7380697D1*
Y7077970D1*
X13957577Y4562023D2*
X15016563Y5621010D1*
X15207560D1*
X15321037Y5734487D1*
Y5977090D1*
X15471117Y6127170D1*
X15746220D1*
X2070527Y6839480D2*
D14*
X2049700Y6818653D1*
Y6355347D1*
X2070527Y6839480D2*
X2071493Y6838513D1*
X2426887D1*
X2049700Y6355347D2*
X2027280Y6332927D1*
Y5919940D1*
Y5460197D1*
X1785410Y5218327D1*
X1254217D1*
X3036937Y6228387D2*
Y5919940D1*
X2027280D1*
X8168277Y7380767D2*
X8168413Y7380630D1*
Y6782447D1*
X8141080Y6755113D1*
X7429050D1*
X7195833Y6988330D1*
X7026197D1*
X6792980Y6755113D1*
X4033330D1*
X3352017Y7741307D2*
X3421157D1*
Y4737130D1*
X3036937Y4352910D1*
X6336040Y8148373D2*
D13*
X6330433Y8142767D1*
X5955077D1*
X6211207Y8444273D2*
X6336040Y8319440D1*
Y8148373D1*
X5449207Y8444273D2*
X5447077Y8442143D1*
Y8142767D1*
X6590360Y7385243D2*
X6590230Y7385113D1*
Y7035633D1*
X6117560Y4389950D2*
X6075443D1*
Y5550787D1*
X6408613Y5883957D1*
Y5948323D1*
X6590230Y6273633D2*
X5879237Y5562640D1*
Y4562693D1*
Y3800693D2*
X5878990Y3800447D1*
Y3500257D1*
X5370760Y4562693D2*
Y4418223D1*
X5866787Y3922197D1*
Y3800693D1*
X5879237D1*
X4592030Y5258520D2*
X4427480Y5423070D1*
Y5794000D1*
X7309280Y2738257D2*
D15*
X7434930Y2863907D1*
Y3114533D1*
X4267043Y5877517D2*
D13*
X4288113Y5898587D1*
X4494610D1*
X4756100Y5637097D1*
Y5265167D1*
X8254607Y4984120D2*
X6187627D1*
X4258363Y6050317D2*
X4475493D1*
X4929397Y5596413D1*
Y5272820D1*
X4608990Y2738257D2*
X4640130Y2707117D1*
Y2580257D1*
X4770337Y2450050D1*
X6259073D1*
X6547280Y2738257D1*
X6518357Y2767180D1*
Y2977320D1*
X6409407Y3086270D1*
Y4404427D2*
X6561833Y4556853D1*
X7176577D1*
X7309407Y4424023D1*
Y4158140D1*
X7563407D2*
X7546807Y4141540D1*
Y3933233D1*
X7309280Y3695707D1*
Y3500257D1*
X7563280D2*
X7573267Y3510243D1*
Y3706860D1*
X7817407Y3951000D1*
Y4158140D1*
X6673277Y3854647D2*
X6609247Y3918677D1*
X6273723D1*
X5284793Y4907607D1*
X4354990Y3952207D2*
Y3500257D1*
X8071407Y4158140D2*
X8071280Y4158013D1*
Y3500257D1*
X7817280D2*
X8071280D1*
X8071407Y4158140D2*
Y4375783D1*
X7571310Y4875880D1*
X6400270D1*
X6177333Y4652943D1*
X4608990Y3956933D2*
Y3500257D1*
X7817280Y2738257D2*
X7833273Y2722263D1*
Y2468810D1*
X8103627Y2198457D1*
X9636713D1*
X9917307Y2479050D1*
Y2738257D1*
X11508733D2*
X11502960Y2732483D1*
Y2538767D1*
X11432537Y2468343D1*
X9917307D1*
Y2479050D1*
X8071280Y2738257D2*
X8080343Y2729193D1*
Y2561560D1*
X8189197Y2452707D1*
X8798783D1*
X8901307Y2555230D1*
Y2738257D1*
X10856433Y2329637D2*
X12192453D1*
X12270733Y2407917D1*
Y2738257D1*
X10171307Y3500257D2*
Y3704297D1*
X10110897Y3764707D1*
X9409307D1*
Y3500257D1*
X8325280D2*
X8466970Y3641947D1*
Y3819390D1*
Y4358057D2*
X9060320Y3764707D1*
X9409307D1*
X12778733Y3500257D2*
Y4270047D1*
X15143857Y6635170D1*
X15746220D1*
X10425307Y3500257D2*
Y3835160D1*
X10860193Y4270047D1*
X12778733D1*
X15746220Y6381170D2*
X15722773Y6404617D1*
X15041413D1*
X13032733Y4395937D1*
Y3500257D1*
X10679307D2*
X10667377Y3512187D1*
Y3823203D1*
X10976173Y4132000D1*
X12406720D1*
X12564270Y3974450D1*
X3036937Y7736360D2*
D14*
Y7333387D1*
X1750047Y9051523D2*
X3036937Y7764633D1*
Y7736360D1*
X10234480Y7380767D2*
D13*
X10234600Y7380647D1*
Y6823387D1*
X13761183Y9717703D2*
X13764557Y9714330D1*
X15330850D1*
X15666357Y9378823D1*
Y7175153D1*
X15483353Y6992150D1*
X14972467D1*
X14852467Y7112150D1*
Y7380767D1*
X12999183Y9717703D2*
X13001053Y9719573D1*
Y10258243D1*
X5193077Y7380767D2*
X5192477Y7380167D1*
Y6946437D1*
X5446943D2*
X5192477D1*
X4685077Y7380767D2*
X4684993Y7380683D1*
Y7070787D1*
X4938880Y6946437D2*
X4814530Y7070787D1*
X4684993D1*
X14971417Y4561943D2*
X14687020Y4277547D1*
X13463927D1*
X13350690Y4390783D1*
X7240973Y5705273D2*
X6784480Y6161767D1*
Y6359270D1*
X6595870Y6547880D1*
X4928813D1*
X10488123Y8432947D2*
X10488480Y8432590D1*
Y8142767D1*
X10233917Y8688343D2*
X10488123Y8434137D1*
Y8432947D1*
X14971417Y3799943D2*
X14971330Y3799857D1*
Y3500257D1*
X15225893Y4053183D2*
X14972653Y3799943D1*
X14971417D1*
X15225893Y4053183D2*
X15116700Y4162377D1*
X13398273D1*
X13259630Y4301020D1*
X6983330Y5580320D2*
Y5708080D1*
X6647103Y6044307D1*
X7563280Y2738257D2*
X7551387Y2750150D1*
Y2395220D1*
X8019350Y1927257D1*
X14593960D1*
X12746660Y8754437D2*
Y8500437D1*
X12820467Y8426630D1*
Y8142767D1*
X11984660Y9008437D2*
X11722250D1*
X11455963Y8742150D1*
Y8626173D1*
X11984660Y9262437D2*
X11983813Y9263283D1*
X11586197D1*
X11456897Y9133983D1*
X4000247Y10081673D2*
D14*
X4525707Y10607133D1*
X6783403D1*
X7000717Y10389820D1*
X6687797Y5804623D2*
D13*
Y5615570D1*
X6895753Y5407613D1*
X8219133D1*
X8723273Y5911753D1*
X7395893Y6275843D2*
X7573700Y6453650D1*
X7798403D1*
X7976217Y6275837D1*
X8422477D1*
X13957577Y3800023D2*
X13703263D1*
X13957577D2*
X13955330Y3797777D1*
Y3500257D1*
X13701473Y2310133D2*
X13701330Y2310277D1*
Y2738257D1*
X13955227Y2310133D2*
X13701473D1*
X14717330Y2738257D2*
X14717633Y2737953D1*
Y2310133D1*
X14971490D2*
X14717633D1*
X14209330Y3500257D2*
X14201103Y3492030D1*
Y3272937D1*
X14001187Y3073020D1*
X13663100D1*
X13560200Y2970120D1*
Y2755510D1*
X12870437Y2065747D1*
X9409203D1*
X13296010Y2074130D2*
X14743900D1*
X14749110Y2079340D1*
X13170793Y1698213D2*
X14554480D1*
X15345090Y3239290D2*
X15093010D1*
X14971330Y3117610D1*
Y2738257D1*
X14465653Y3800023D2*
X14463330Y3797700D1*
Y3500257D1*
X14209330Y2738257D2*
X14208887Y2737813D1*
Y2310133D1*
X14463330Y2738257D2*
X14463373Y2738213D1*
Y2310133D1*
X14717633Y1548133D2*
X14733423Y1563923D1*
Y1662477D1*
X15681097Y2610150D1*
Y4589393D1*
X15301537Y4968953D1*
Y5481550D1*
X15430667Y5610680D1*
X15737730D1*
X15746220Y5619170D1*
X9134857Y1254100D2*
X9150827Y1238130D1*
X14142650D1*
X14452653Y1548133D1*
X14463373D1*
X14735807Y1275700D1*
X14956277D1*
X15794110Y2113533D1*
Y4664390D1*
X15461613Y4996887D1*
Y5052333D1*
X15180613D2*
Y5501847D1*
Y5754093D2*
Y5996637D1*
X12683590Y6088587D2*
X13328463Y6733460D1*
Y7380767D1*
X13260910Y6088587D2*
X13582463Y6410140D1*
Y7380767D1*
X13836467D2*
X13836953Y7380280D1*
Y6088587D1*
X14090467Y7380767D2*
X14090587Y7380647D1*
Y7076507D1*
X14344340Y6821137D2*
X14344463Y6821260D1*
Y7380767D1*
X14598467D2*
X14598260Y7380560D1*
Y7074637D1*
X14090587Y6314507D2*
X14342037D1*
X14598260Y6570730D1*
Y7074637D1*
X14597997Y8640020D2*
X14598467Y8639550D1*
Y8142767D1*
X14597997Y9402020D2*
X14597847Y9402170D1*
X14343770D1*
X15420767Y7888683D2*
X15397263Y7912187D1*
Y9253517D1*
X15248760Y9402020D1*
X14597997D1*
X15420767Y7634683D2*
X15166850Y7380767D1*
X15106463D1*
X15106680Y8892307D2*
X15106463Y8892090D1*
Y8142767D1*
X14852977Y8892237D2*
X14852467Y8891727D1*
Y8142767D1*
X12820463Y7380767D2*
X12819700Y7380003D1*
Y6821137D1*
X11777960Y7491553D2*
X12448377Y6821137D1*
X12819700D1*
X10968783Y9133547D2*
X10967850Y9132613D1*
Y8625737D1*
X10969727Y9700067D2*
X10968783Y9699123D1*
Y9133547D1*
X13582533Y8506343D2*
X13582463Y8506273D1*
Y8142767D1*
X13582533Y8506343D2*
X13747427Y8671237D1*
Y8882083D1*
X13621073Y9008437D1*
X12746660D1*
Y9262437D2*
Y9008437D1*
X13328110Y8760343D2*
X13582533D1*
X13074420Y8506343D2*
X13074467Y8506297D1*
Y8142767D1*
D44*
X6945423Y8460780D3*
X5700750Y5946887D3*
X6908973Y7287660D3*
X14479690Y5429670D3*
Y5663773D3*
X4033330Y6755113D3*
X6117560Y4389950D3*
X6408613Y5948323D3*
X4592030Y5258520D3*
X4427480Y5794000D3*
X7434930Y3114533D3*
X4267043Y5877517D3*
X4756100Y5265167D3*
X8254607Y4984120D3*
X6187627D3*
X4258363Y6050317D3*
X4929397Y5272820D3*
X6409407Y3086270D3*
Y4404427D3*
X6673277Y3854647D3*
X5284793Y4907607D3*
X4354990Y3952207D3*
X6177333Y4652943D3*
X4608990Y3956933D3*
X10856433Y2329637D3*
X8466970Y3819390D3*
Y4358057D3*
X12564270Y3974450D3*
X13350690Y4390783D3*
X7240973Y5705273D3*
X4928813Y6547880D3*
X13259630Y4301020D3*
X6983330Y5580320D3*
X6647103Y6044307D3*
X14593960Y1927257D3*
X6687797Y5804623D3*
X8723273Y5911753D3*
X9409203Y2065747D3*
X13296010Y2074130D3*
X14749110Y2079340D3*
X13170793Y1698213D3*
X14554480D3*
X15345090Y3239290D3*
X15461613Y5052333D3*
X15180613D3*
Y5501847D3*
Y5754093D3*
Y5996637D3*
X13097370Y9142487D3*
X6027770Y2308570D3*
X14957520Y6123350D3*
X15260660Y2010887D3*
X3363350Y1787143D3*
X1483550Y10809610D2*
D16*
X4595693D1*
X1492390Y10746443D2*
X4595693D1*
X1483823Y10683277D2*
X4429623D1*
X1455293Y10620110D2*
X3380900D1*
X3639513D2*
X4366460D1*
X1394953Y10556943D2*
X3344350D1*
X3676153D2*
X4303297D1*
X1159800Y10493777D2*
X3336603D1*
X3683900D2*
X4240133D1*
X1159800Y10430610D2*
X3336603D1*
X3683900D2*
X4176967D1*
X4521440D2*
X4595327D1*
X1159707Y10367443D2*
X3336603D1*
X3683900D2*
X4113803D1*
X4458277D2*
X4595237D1*
X1159707Y10304277D2*
X3336603D1*
X3683900D2*
X4050640D1*
X4395110D2*
X4595147D1*
X1159617Y10241110D2*
X3337333D1*
X3683170D2*
X3793243D1*
X4331947D2*
X4595053D1*
X1159617Y10177943D2*
X3356290D1*
X3664213D2*
X3707110D1*
X4293393D2*
X4558870D1*
X1159527Y10114777D2*
X3415263D1*
X3605240D2*
X3679950D1*
X4320553D2*
X4495707D1*
X1159433Y10051610D2*
X3679313D1*
X4321193D2*
X4432540D1*
X1159433Y9988443D2*
X3705017D1*
X4295490D2*
X4369377D1*
X1159343Y9925277D2*
X3784493D1*
X4216010D2*
X4306213D1*
X1159343Y9862110D2*
X4243050D1*
X1159250Y9798943D2*
X3581330D1*
X4524357D2*
X4594507D1*
X1159250Y9735777D2*
X3176827D1*
X1159160Y9672610D2*
X3176917D1*
X1159070Y9609443D2*
X3176917D1*
X1159070Y9546277D2*
X3176917D1*
X1158977Y9483110D2*
X3177007D1*
X1158977Y9419943D2*
X3177007D1*
X1158887Y9356777D2*
X3177007D1*
X1158887Y9293610D2*
X3177007D1*
X1158797Y9230443D2*
X3177100D1*
X1158703Y9167277D2*
X1660980D1*
X1839110D2*
X3177100D1*
X1158703Y9104110D2*
X1611487D1*
X1888600D2*
X3177100D1*
X1158613Y9040943D2*
X1601827D1*
X1932807D2*
X3177190D1*
X1158613Y8977777D2*
X1621967D1*
X1996060D2*
X2843323D1*
X1158523Y8914610D2*
X1704910D1*
X2059227D2*
X2843323D1*
X1158430Y8851443D2*
X1777920D1*
X2122390D2*
X2843323D1*
X1158430Y8788277D2*
X1841083D1*
X2185553D2*
X2843323D1*
X1158340Y8725110D2*
X1904247D1*
X2248717D2*
X2843323D1*
X1158340Y8661943D2*
X1967410D1*
X2311883D2*
X2843323D1*
X1158250Y8598777D2*
X2030577D1*
X2375047D2*
X3177373D1*
X1158250Y8535610D2*
X2093740D1*
X2438210D2*
X3177373D1*
X1158157Y8472443D2*
X2156903D1*
X2501373D2*
X3177373D1*
X1158067Y8409277D2*
X2220067D1*
X2564537D2*
X3177463D1*
X1158067Y8346110D2*
X2283230D1*
X2627703D2*
X3177463D1*
X1157977Y8282943D2*
X1599730D1*
X1896987D2*
X2346397D1*
X2690867D2*
X3177463D1*
X1157977Y8219777D2*
X1599730D1*
X1896987D2*
X2409560D1*
X2754030D2*
X3177553D1*
X1157883Y8156610D2*
X1599730D1*
X1896987D2*
X2472723D1*
X2817193D2*
X3177553D1*
X1157883Y8093443D2*
X1599730D1*
X1896987D2*
X2535887D1*
X2880360D2*
X3177553D1*
X1157793Y8030277D2*
X2599050D1*
X2943523D2*
X3177647D1*
X1157703Y7967110D2*
X2662217D1*
X3006687D2*
X3177647D1*
X1157703Y7903943D2*
X2725380D1*
X3126907D2*
X3158413D1*
X1157610Y7840777D2*
X2788543D1*
X1157610Y7777610D2*
X2847880D1*
X1157520Y7714443D2*
X2844600D1*
X1157520Y7651277D2*
X2863740D1*
X1157430Y7588110D2*
X2913323D1*
X1157337Y7524943D2*
X2913323D1*
X1157337Y7461777D2*
X2894273D1*
X1157247Y7398610D2*
X2854990D1*
X1157247Y7335443D2*
X2843323D1*
X1157157Y7272277D2*
X2853530D1*
X1157157Y7209110D2*
X2890443D1*
X1157063Y7145943D2*
X3178010D1*
X1156973Y7082777D2*
X3178010D1*
X1156973Y7019610D2*
X3178100D1*
X1156883Y6956443D2*
X1974610D1*
X2166413D2*
X2316500D1*
X2537287D2*
X3178100D1*
X1156883Y6893277D2*
X1927033D1*
X2580670D2*
X3178100D1*
X1156790Y6830110D2*
X1917190D1*
X2590333D2*
X3178193D1*
X1156790Y6766943D2*
X1926030D1*
X2573287D2*
X3178193D1*
X1156700Y6703777D2*
X1926030D1*
X2173340D2*
X2339377D1*
X2514407D2*
X3178193D1*
X1156610Y6640610D2*
X1926030D1*
X2173340D2*
X3178283D1*
X1156610Y6577443D2*
X1926030D1*
X2173340D2*
X2196460D1*
X2410957D2*
X3178283D1*
X1156517Y6514277D2*
X1894220D1*
X2459173D2*
X3178283D1*
X1156517Y6451110D2*
X1881097D1*
X2472300D2*
X3178283D1*
X1156427Y6387943D2*
X1881097D1*
X2472300D2*
X2843323D1*
X1156427Y6324777D2*
X1881097D1*
X2472300D2*
X2843323D1*
X1156333Y6261610D2*
X1881097D1*
X2472300D2*
X2843323D1*
X1156243Y6198443D2*
X1893310D1*
X2460083D2*
X2843323D1*
X1156243Y6135277D2*
X1903610D1*
X2159487D2*
X2193910D1*
X2413510D2*
X2843323D1*
X1156153Y6072110D2*
X1903610D1*
X2150917D2*
X2843323D1*
X1156153Y6008943D2*
X1903610D1*
X1156060Y5945777D2*
X1903610D1*
X1156060Y5882610D2*
X1903610D1*
X1155970Y5819443D2*
X1903610D1*
X1155880Y5756277D2*
X1903610D1*
X2150917D2*
X2939573D1*
X3134383D2*
X3178647D1*
X1155880Y5693110D2*
X1903610D1*
X2150917D2*
X3178647D1*
X1155787Y5629943D2*
X1903610D1*
X2150917D2*
X3178647D1*
X1155787Y5566777D2*
X1903610D1*
X2150917D2*
X3178740D1*
X1155697Y5503610D2*
X1898503D1*
X2150917D2*
X3178740D1*
X1155697Y5440443D2*
X1835340D1*
X2149277D2*
X3178740D1*
X1155607Y5377277D2*
X1772177D1*
X2116557D2*
X3178830D1*
X2053393Y5314110D2*
X3178830D1*
X1990227Y5250943D2*
X3178830D1*
X1927063Y5187777D2*
X3178920D1*
X1862260Y5124610D2*
X3178920D1*
X1361870Y5061443D2*
X3178920D1*
X1155333Y4998277D2*
X3179013D1*
X1155240Y4935110D2*
X3179013D1*
X1155150Y4871943D2*
X3179013D1*
X1155150Y4808777D2*
X3179103D1*
X1155060Y4745610D2*
X3179103D1*
X1155060Y4682443D2*
X3179103D1*
X1154967Y4619277D2*
X3131070D1*
X1472157Y4556110D2*
X3067907D1*
X1503510Y4492943D2*
X2843323D1*
X1505607Y4429777D2*
X2843323D1*
X1516180Y4366610D2*
X2843323D1*
X1579343Y4303443D2*
X2843323D1*
X1154693Y4240277D2*
X1298037D1*
X1642507D2*
X2843323D1*
X1154603Y4177110D2*
X1361200D1*
X1705670D2*
X2843323D1*
X1154603Y4113943D2*
X1424363D1*
X1768833D2*
X3179377D1*
X1154513Y4050777D2*
X1487527D1*
X1832000D2*
X3179377D1*
X1154420Y3987610D2*
X1550693D1*
X1895163D2*
X2377840D1*
X2475943D2*
X3179467D1*
X1154420Y3924443D2*
X1613857D1*
X1974187D2*
X2246590D1*
X2563443D2*
X3179467D1*
X1154330Y3861277D2*
X1666903D1*
X1974187D2*
X2183063D1*
X2588510D2*
X3179467D1*
X1154330Y3798110D2*
X1666903D1*
X2028237D2*
X2119897D1*
X2585867D2*
X3179560D1*
X1154240Y3734943D2*
X1666903D1*
X2553600D2*
X3179560D1*
X1154240Y3671777D2*
X1810093D1*
X2338040D2*
X3179560D1*
X1154147Y3608610D2*
X1873257D1*
X2274877D2*
X3179560D1*
X1154057Y3545443D2*
X1926030D1*
X2211713D2*
X2389050D1*
X2726323D2*
X3179650D1*
X1154057Y3482277D2*
X1895587D1*
X2203783D2*
X2389050D1*
X2726323D2*
X3179650D1*
X1153967Y3419110D2*
X1881097D1*
X2218277D2*
X2389050D1*
X2726323D2*
X2954610D1*
X3119250D2*
X3179650D1*
X1153967Y3355943D2*
X1881097D1*
X2218367D2*
X2389050D1*
X2726323D2*
X2877593D1*
X1153873Y3292777D2*
X1881097D1*
X2218367D2*
X2389050D1*
X2726323D2*
X2848790D1*
X1153873Y3229610D2*
X1881097D1*
X2218367D2*
X2389050D1*
X2726323D2*
X2844233D1*
X1153783Y3166443D2*
X1892033D1*
X2207337D2*
X2389050D1*
X2726323D2*
X2861917D1*
X1153693Y3103277D2*
X1902607D1*
X2163223D2*
X2389050D1*
X2726323D2*
X2911590D1*
X1153693Y3040110D2*
X1902607D1*
X2149917D2*
X2843323D1*
X1153600Y2976943D2*
X1902607D1*
X1153600Y2913777D2*
X1915093D1*
X1153510Y2850610D2*
X1969780D1*
X1153510Y2787443D2*
X2843323D1*
X1153417Y2724277D2*
X3180017D1*
X1153327Y2661110D2*
X3180017D1*
X1153327Y2597943D2*
X3180017D1*
X1153237Y2534777D2*
X3180107D1*
X1153237Y2471610D2*
X3180107D1*
X1153143Y2408443D2*
X3180107D1*
X1153143Y2345277D2*
X3180197D1*
X1153053Y2282110D2*
X3180197D1*
X1152963Y2218943D2*
X3180197D1*
X1152963Y2155777D2*
X3180290D1*
X1152870Y2092610D2*
X3180290D1*
X1152870Y2029443D2*
X3180290D1*
X1152780Y1966277D2*
X3180380D1*
X1152780Y1903110D2*
X3180380D1*
X1152690Y1839943D2*
X3180380D1*
X1152597Y1776777D2*
X3180380D1*
X1152597Y1713610D2*
X3180470D1*
X1152507Y1650443D2*
X3180470D1*
X1152507Y1587277D2*
X3180470D1*
X1152417Y1524110D2*
X3180563D1*
X1365423Y1460943D2*
X3180563D1*
X1442533Y1397777D2*
X3180563D1*
X1477990Y1334610D2*
X3180653D1*
X1491750Y1271443D2*
X3180653D1*
X1487923Y1208277D2*
X3180653D1*
X1629380Y8335687D2*
X1890627D1*
Y8051107D1*
X1606047D1*
Y8335687D1*
X1629380D1*
X1895540Y3980893D2*
X1967817D1*
Y3852103D1*
X2074063Y3745940D1*
X2254060Y3925417D1*
X2268950Y3936237D1*
X2285350Y3944593D1*
X2302853Y3950280D1*
X2321067Y3953160D1*
X2334433Y3963480D1*
X2355480Y3976377D1*
X2378280Y3985823D1*
X2402280Y3991583D1*
X2426887Y3993520D1*
X2451493Y3991583D1*
X2475493Y3985823D1*
X2498293Y3976377D1*
X2519340Y3963480D1*
X2538107Y3947450D1*
X2554137Y3928683D1*
X2567033Y3907637D1*
X2576480Y3884837D1*
X2582240Y3860837D1*
X2584177Y3836230D1*
X2582240Y3811623D1*
X2576480Y3787623D1*
X2567033Y3764823D1*
X2554137Y3743777D1*
X2538107Y3725010D1*
X2519340Y3708980D1*
X2498293Y3696083D1*
X2475493Y3686637D1*
X2451493Y3680877D1*
X2426887Y3678940D1*
X2402280Y3680877D1*
X2378280Y3686637D1*
X2355787Y3695943D1*
X2176447Y3516570D1*
X2188073Y3499963D1*
X2199637Y3477273D1*
X2207507Y3453053D1*
X2211490Y3427900D1*
X2211990Y3368500D1*
X2211490Y3212433D1*
X2207507Y3187280D1*
X2199637Y3163060D1*
X2188073Y3140370D1*
X2173107Y3119767D1*
X2155100Y3101760D1*
X2143560Y3092847D1*
X2143557Y3033230D1*
X2849653Y3033243D1*
X2849647Y3103243D1*
X2917917D1*
X2904503Y3115477D1*
X2885417Y3137823D1*
X2870060Y3162883D1*
X2858813Y3190033D1*
X2851953Y3218610D1*
X2849647Y3247910D1*
X2851953Y3277210D1*
X2858813Y3305787D1*
X2870060Y3332937D1*
X2885417Y3357997D1*
X2904503Y3380343D1*
X2926850Y3399430D1*
X2951910Y3414787D1*
X2979060Y3426033D1*
X3007637Y3432893D1*
X3036937Y3435200D1*
X3066237Y3432893D1*
X3094813Y3426033D1*
X3121963Y3414787D1*
X3147023Y3399430D1*
X3169370Y3380343D1*
X3182733Y3365260D1*
X3186050Y3385960D1*
X3185700Y4165530D1*
X2849647Y4165620D1*
Y4540200D1*
X3058280D1*
X3185440Y4667287D1*
X3184963Y5805243D1*
X3169370Y5787507D1*
X3147023Y5768420D1*
X3121963Y5753063D1*
X3094813Y5741817D1*
X3066237Y5734957D1*
X3036937Y5732650D1*
X3007637Y5734957D1*
X2979060Y5741817D1*
X2951910Y5753063D1*
X2926850Y5768420D1*
X2904503Y5787507D1*
X2891070Y5802680D1*
X2144527Y5802650D1*
X2144210Y5450993D1*
X2141330Y5432817D1*
X2135643Y5415310D1*
X2127287Y5398913D1*
X2116467Y5384023D1*
X2060720Y5327763D1*
X1861583Y5129140D1*
X1846693Y5118320D1*
X1830297Y5109963D1*
X1812790Y5104277D1*
X1794613Y5101397D1*
X1715410Y5101037D1*
X1448990D1*
X1436670Y5091077D1*
X1415623Y5078180D1*
X1392823Y5068733D1*
X1368823Y5062973D1*
X1344217Y5061037D1*
X1164217D1*
X1148953Y5061867D1*
X1148627Y4612910D1*
X1187550Y4613617D1*
X1356557Y4613133D1*
X1380937Y4609270D1*
X1404410Y4601643D1*
X1426400Y4590440D1*
X1446370Y4575930D1*
X1463820Y4558480D1*
X1478330Y4538510D1*
X1489533Y4516520D1*
X1497160Y4493047D1*
X1501023Y4468667D1*
Y4443987D1*
X1497160Y4419607D1*
X1489533Y4396133D1*
X1486607Y4389780D1*
X1895483Y3980933D1*
X1802023Y3686313D2*
X1673237D1*
Y3871430D1*
X1245643Y4299027D1*
X1164217Y4299037D1*
X1148380Y4299937D1*
X1146020Y1459447D1*
X1165187Y1468417D1*
X1182283Y1474723D1*
X1199820Y1479670D1*
X1217693Y1483227D1*
X1235790Y1485367D1*
X1254000Y1486083D1*
X1272210Y1485367D1*
X1290307Y1483227D1*
X1308180Y1479670D1*
X1325717Y1474723D1*
X1342813Y1468417D1*
X1359363Y1460787D1*
X1375263Y1451883D1*
X1390417Y1441760D1*
X1404727Y1430477D1*
X1418107Y1418107D1*
X1430477Y1404727D1*
X1441760Y1390417D1*
X1451883Y1375263D1*
X1460787Y1359363D1*
X1468417Y1342813D1*
X1474723Y1325717D1*
X1479670Y1308180D1*
X1483227Y1290307D1*
X1485367Y1272210D1*
X1486083Y1254000D1*
X1485367Y1235790D1*
X1483227Y1217693D1*
X1479670Y1199820D1*
X1474723Y1182283D1*
X1465110Y1158010D1*
X3186987Y1154457D1*
X3186347Y2728707D1*
X2849647Y2728663D1*
Y2798753D1*
X2076647Y2798663D1*
X2058300Y2800107D1*
X2040403Y2804403D1*
X2023397Y2811447D1*
X2007707Y2821063D1*
X1993687Y2833043D1*
X1937080Y2890160D1*
X1926260Y2905050D1*
X1917903Y2921447D1*
X1912217Y2938953D1*
X1909337Y2957130D1*
X1908977Y3036333D1*
Y3144340D1*
X1899763Y3163060D1*
X1891893Y3187280D1*
X1887910Y3212433D1*
X1887410Y3271833D1*
X1887910Y3427900D1*
X1891893Y3453053D1*
X1899763Y3477273D1*
X1911327Y3499963D1*
X1926293Y3520567D1*
X1932410Y3527180D1*
Y3555733D1*
X1801967Y3686290D1*
X1723977Y8911743D2*
X1706077Y8916197D1*
X1685450Y8924743D1*
X1666410Y8936407D1*
X1649433Y8950910D1*
X1634930Y8967887D1*
X1623267Y8986927D1*
X1614720Y9007553D1*
X1609510Y9029263D1*
X1607757Y9051523D1*
X1609510Y9073783D1*
X1614720Y9095493D1*
X1623267Y9116120D1*
X1634930Y9135160D1*
X1649433Y9152137D1*
X1666410Y9166640D1*
X1685450Y9178303D1*
X1706077Y9186850D1*
X1727787Y9192060D1*
X1750047Y9193813D1*
X1772307Y9192060D1*
X1794017Y9186850D1*
X1814643Y9178303D1*
X1833683Y9166640D1*
X1850660Y9152137D1*
X1865163Y9135160D1*
X1876827Y9116120D1*
X1885373Y9095493D1*
X1889827Y9077593D1*
X3043930Y7923513D1*
X3066237Y7921343D1*
X3094813Y7914483D1*
X3121963Y7903237D1*
X3147023Y7887880D1*
X3164690Y7873123D1*
X3164727Y7928597D1*
X3183960D1*
X3183687Y8654097D1*
X2849647Y8654070D1*
Y9028650D1*
X3183513D1*
X3183587Y9747797D1*
X3185607Y9754980D1*
X3189253Y9761493D1*
X3194317Y9766977D1*
X3200520Y9771127D1*
X3207520Y9773713D1*
X3214943Y9774593D1*
X3541823Y9772613D1*
X3566063Y9777297D1*
X3618583Y9829303D1*
X3633473Y9840123D1*
X3649870Y9848480D1*
X3667377Y9854167D1*
X3685553Y9857047D1*
X3764757Y9857407D1*
X4244640D1*
X4601373Y10214070D1*
X4601713Y10489777D1*
X4574303Y10489843D1*
X4276147Y10191700D1*
X4285587Y10180003D1*
X4299303Y10157620D1*
X4309350Y10133370D1*
X4315477Y10107843D1*
X4317537Y10081673D1*
X4315477Y10055503D1*
X4309350Y10029977D1*
X4299303Y10005727D1*
X4285587Y9983343D1*
X4268540Y9963380D1*
X4248577Y9946333D1*
X4226193Y9932617D1*
X4201943Y9922570D1*
X4176417Y9916443D1*
X4150247Y9914383D1*
X3850247D1*
X3824077Y9916443D1*
X3798550Y9922570D1*
X3774300Y9932617D1*
X3751917Y9946333D1*
X3731953Y9963380D1*
X3714907Y9983343D1*
X3701190Y10005727D1*
X3691143Y10029977D1*
X3685017Y10055503D1*
X3682957Y10081673D1*
X3685017Y10107843D1*
X3691143Y10133370D1*
X3701190Y10157620D1*
X3714907Y10180003D1*
X3731953Y10199967D1*
X3751917Y10217013D1*
X3774300Y10230730D1*
X3798550Y10240777D1*
X3824077Y10246903D1*
X3850297Y10248960D1*
X4001640Y10248963D1*
X4449533Y10696320D1*
X4464423Y10707140D1*
X4480820Y10715497D1*
X4498327Y10721183D1*
X4516503Y10724063D1*
X4601997Y10724423D1*
X4602150Y10872770D1*
X1450150Y10870070D1*
X1460787Y10851363D1*
X1468417Y10834813D1*
X1474723Y10817717D1*
X1479670Y10800180D1*
X1483227Y10782307D1*
X1485367Y10764210D1*
X1486083Y10746000D1*
X1485367Y10727790D1*
X1483227Y10709693D1*
X1479670Y10691820D1*
X1474723Y10674283D1*
X1468417Y10657187D1*
X1460787Y10640637D1*
X1451883Y10624737D1*
X1441760Y10609583D1*
X1430477Y10595273D1*
X1418107Y10581893D1*
X1404727Y10569523D1*
X1390417Y10558240D1*
X1375263Y10548117D1*
X1359363Y10539213D1*
X1342813Y10531583D1*
X1325717Y10525277D1*
X1308180Y10520330D1*
X1290307Y10516773D1*
X1272210Y10514633D1*
X1254000Y10513917D1*
X1235790Y10514633D1*
X1217693Y10516773D1*
X1199820Y10520330D1*
X1182283Y10525277D1*
X1165187Y10531583D1*
X1153483Y10536977D1*
X1149257Y5374887D1*
X1187550Y5375617D1*
X1356557Y5375133D1*
X1380937Y5371270D1*
X1404410Y5363643D1*
X1426400Y5352440D1*
X1446370Y5337930D1*
X1448883Y5335607D1*
X1736833Y5335617D1*
X1909937Y5508727D1*
X1909990Y6177790D1*
X1899763Y6198240D1*
X1891893Y6222460D1*
X1887910Y6247613D1*
X1887410Y6307013D1*
X1887910Y6463080D1*
X1891893Y6488233D1*
X1899763Y6512453D1*
X1911327Y6535143D1*
X1926293Y6555747D1*
X1932410Y6562360D1*
Y6788380D1*
X1927307Y6805097D1*
X1923690Y6827923D1*
Y6851037D1*
X1927307Y6873863D1*
X1934450Y6895847D1*
X1944940Y6916440D1*
X1958527Y6935137D1*
X1974870Y6951480D1*
X1993567Y6965067D1*
X2014160Y6975557D1*
X2036143Y6982700D1*
X2058970Y6986317D1*
X2082083D1*
X2104910Y6982700D1*
X2126893Y6975557D1*
X2147487Y6965067D1*
X2160683Y6955817D1*
X2322053Y6955803D1*
X2334433Y6965763D1*
X2355480Y6978660D1*
X2378280Y6988107D1*
X2402280Y6993867D1*
X2426887Y6995803D1*
X2451493Y6993867D1*
X2475493Y6988107D1*
X2498293Y6978660D1*
X2519340Y6965763D1*
X2538107Y6949733D1*
X2554137Y6930967D1*
X2567033Y6909920D1*
X2576480Y6887120D1*
X2582240Y6863120D1*
X2584177Y6838513D1*
X2582240Y6813907D1*
X2576480Y6789907D1*
X2567033Y6767107D1*
X2554137Y6746060D1*
X2538107Y6727293D1*
X2519340Y6711263D1*
X2498293Y6698367D1*
X2475493Y6688920D1*
X2451493Y6683160D1*
X2426887Y6681223D1*
X2402280Y6683160D1*
X2378280Y6688920D1*
X2355480Y6698367D1*
X2334433Y6711263D1*
X2322220Y6721233D1*
X2167030Y6721223D1*
X2166990Y6562443D1*
X2176650Y6551250D1*
X2188943Y6565103D1*
X2208307Y6581643D1*
X2230023Y6594947D1*
X2253550Y6604693D1*
X2278313Y6610640D1*
X2303700Y6612637D1*
X2329087Y6610640D1*
X2353850Y6604693D1*
X2377377Y6594947D1*
X2399093Y6581643D1*
X2418457Y6565103D1*
X2434997Y6545740D1*
X2448300Y6524023D1*
X2458047Y6500497D1*
X2463993Y6475733D1*
X2465990Y6450347D1*
Y6260347D1*
X2463993Y6234960D1*
X2458047Y6210197D1*
X2448300Y6186670D1*
X2434997Y6164953D1*
X2418457Y6145590D1*
X2399093Y6129050D1*
X2377377Y6115747D1*
X2353850Y6106000D1*
X2329087Y6100053D1*
X2303700Y6098057D1*
X2278313Y6100053D1*
X2253550Y6106000D1*
X2230023Y6115747D1*
X2208307Y6129050D1*
X2188943Y6145590D1*
X2176750Y6159443D1*
X2164457Y6145590D1*
X2144553Y6128693D1*
X2144570Y6037160D1*
X2890887Y6037230D1*
X2874227Y6041097D1*
X2849647D1*
Y6415677D1*
X3184607D1*
X3184330Y7217820D1*
X3169370Y7200953D1*
X3147023Y7181867D1*
X3121963Y7166510D1*
X3094813Y7155263D1*
X3066237Y7148403D1*
X3036937Y7146097D1*
X3007637Y7148403D1*
X2979060Y7155263D1*
X2951910Y7166510D1*
X2926850Y7181867D1*
X2904503Y7200953D1*
X2885417Y7223300D1*
X2870060Y7248360D1*
X2858813Y7275510D1*
X2851953Y7304087D1*
X2849647Y7333387D1*
X2851953Y7362687D1*
X2858813Y7391263D1*
X2870060Y7418413D1*
X2885417Y7443473D1*
X2904503Y7465820D1*
X2919677Y7479253D1*
X2919647Y7590327D1*
X2904503Y7603927D1*
X2885417Y7626273D1*
X2870060Y7651333D1*
X2858813Y7678483D1*
X2851953Y7707060D1*
X2849647Y7736360D1*
X2851953Y7765660D1*
X2854993Y7780690D1*
X1724103Y8911593D1*
X3184110Y7554017D2*
X3164727D1*
Y7599497D1*
X3154197Y7590493D1*
X3154227Y7479420D1*
X3169370Y7465820D1*
X3184227Y7448840D1*
X3184180Y7553967D1*
X3342960Y10506623D2*
X3345017Y10532843D1*
X3351143Y10558370D1*
X3361190Y10582620D1*
X3374907Y10605003D1*
X3391953Y10624967D1*
X3411917Y10642013D1*
X3434300Y10655730D1*
X3458550Y10665777D1*
X3484077Y10671903D1*
X3510247Y10673963D1*
X3536417Y10671903D1*
X3561943Y10665777D1*
X3586193Y10655730D1*
X3608577Y10642013D1*
X3628540Y10624967D1*
X3645587Y10605003D1*
X3659303Y10582620D1*
X3669350Y10558370D1*
X3675477Y10532843D1*
X3677537Y10506673D1*
X3677020Y10243547D1*
X3672913Y10217620D1*
X3664803Y10192653D1*
X3652883Y10169263D1*
X3637453Y10148027D1*
X3618893Y10129467D1*
X3597657Y10114037D1*
X3574267Y10102117D1*
X3549300Y10094007D1*
X3523373Y10089900D1*
X3497120D1*
X3471193Y10094007D1*
X3446227Y10102117D1*
X3422837Y10114037D1*
X3401600Y10129467D1*
X3383040Y10148027D1*
X3367610Y10169263D1*
X3355690Y10192653D1*
X3347580Y10217620D1*
X3343473Y10243547D1*
X3342957Y10303340D1*
Y10506217D1*
X2418743Y3577457D2*
X2719990D1*
Y3062877D1*
X2395410D1*
Y3577457D1*
X2418743D1*
X4601017Y9881967D2*
X4494673Y9775623D1*
X4600857Y9775783D1*
X4600987Y9882007D1*
X7824520Y10813140D2*
X10453593D1*
X11023377D2*
X15517473D1*
X7824520Y10749973D2*
X10390427D1*
X11012347D2*
X15507627D1*
X7824430Y10686807D2*
X10327263D1*
X10623610D2*
X10730220D1*
X10969417D2*
X15515283D1*
X7824430Y10623640D2*
X10264100D1*
X10560447D2*
X15542447D1*
X7824430Y10560473D2*
X10200937D1*
X10497280D2*
X15600233D1*
X7824340Y10497307D2*
X10137770D1*
X10434117D2*
X15858903D1*
X7824340Y10434140D2*
X9835440D1*
X10370953D2*
X12835413D1*
X13166670D2*
X15858997D1*
X7824340Y10370973D2*
X9785857D1*
X10307790D2*
X12785923D1*
X13216160D2*
X15859087D1*
X7824247Y10307807D2*
X9762617D1*
X10244627D2*
X12762680D1*
X13239493D2*
X15859177D1*
X7824247Y10244640D2*
X9757783D1*
X10244260D2*
X12757760D1*
X13244327D2*
X15859270D1*
X7824247Y10181473D2*
X9770180D1*
X10231957D2*
X12770153D1*
X13231930D2*
X15859360D1*
X7824247Y10118307D2*
X9803083D1*
X10199053D2*
X12803057D1*
X13199027D2*
X15859450D1*
X7823700Y10055140D2*
X9871990D1*
X10130147D2*
X12871963D1*
X13130120D2*
X15859450D1*
X5577683Y9991973D2*
X6036937D1*
X6339663D2*
X12894387D1*
X13107697D2*
X15859543D1*
X5217113Y9928807D2*
X5253903D1*
X5598740D2*
X6015883D1*
X6360720D2*
X12894387D1*
X13107697D2*
X15859633D1*
X5154040Y9865640D2*
X5258280D1*
X5594363D2*
X6020260D1*
X6379403D2*
X10807693D1*
X11131747D2*
X12894387D1*
X13107697D2*
X13676690D1*
X13845613D2*
X15859723D1*
X5090967Y9802473D2*
X5290543D1*
X5562100D2*
X6052617D1*
X6418780D2*
X10760480D1*
X11178960D2*
X12848630D1*
X13149717D2*
X13610610D1*
X15385067D2*
X15859817D1*
X5027893Y9739307D2*
X5217720D1*
X5390470D2*
X6150413D1*
X6477750D2*
X10739517D1*
X11199923D2*
X12826937D1*
X13171410D2*
X13588917D1*
X15454067D2*
X15859907D1*
X4964910Y9676140D2*
X5158020D1*
X5450173D2*
X6150413D1*
X6477750D2*
X10737330D1*
X11202113D2*
X12830767D1*
X13167580D2*
X13592747D1*
X15517230D2*
X15859997D1*
X4901840Y9612973D2*
X5140700D1*
X5467490D2*
X6150413D1*
X6477750D2*
X10753460D1*
X11185980D2*
X12862393D1*
X13135953D2*
X13624373D1*
X13898023D2*
X15284047D1*
X15580393D2*
X15860090D1*
X4838767Y9549807D2*
X5149997D1*
X5458100D2*
X6150413D1*
X6477750D2*
X10792837D1*
X11146603D2*
X14258747D1*
X14428767D2*
X14513227D1*
X14682697D2*
X15347210D1*
X15643557D2*
X15860180D1*
X4775783Y9486640D2*
X4924320D1*
X5429483D2*
X6150413D1*
X6477750D2*
X10862107D1*
X11075420D2*
X14193033D1*
X15308960D2*
X15410377D1*
X15706720D2*
X15860270D1*
X3853660Y9423473D2*
X4885127D1*
X5578597D2*
X6207473D1*
X6420693D2*
X10862107D1*
X11075420D2*
X14171520D1*
X15375497D2*
X15473540D1*
X15762503D2*
X15860363D1*
X3853570Y9360307D2*
X4876287D1*
X5641760D2*
X6207473D1*
X6420693D2*
X10862107D1*
X11075420D2*
X11554450D1*
X12181110D2*
X12550220D1*
X12943090D2*
X14175440D1*
X15438660D2*
X15536703D1*
X15772983D2*
X15860453D1*
X3853570Y9297140D2*
X4892330D1*
X5704923D2*
X6207473D1*
X6420693D2*
X10862107D1*
X11075420D2*
X11471873D1*
X12214197D2*
X12517133D1*
X12976173D2*
X14207250D1*
X14734650D2*
X15205480D1*
X15493897D2*
X15559673D1*
X15772983D2*
X15860543D1*
X3853570Y9233973D2*
X4707940D1*
X4777243D2*
X4944737D1*
X5154677D2*
X5199127D1*
X5409157D2*
X5471743D1*
X5903987D2*
X6160440D1*
X6467723D2*
X10841417D1*
X11096200D2*
X11329140D1*
X12215563D2*
X12515767D1*
X12977543D2*
X15268643D1*
X15503923D2*
X15559673D1*
X15772983D2*
X15860637D1*
X3853480Y9170807D2*
X4618800D1*
X4866293D2*
X5534907D1*
X5903987D2*
X6160440D1*
X6467723D2*
X10809607D1*
X11127920D2*
X11297603D1*
X12186303D2*
X12545023D1*
X12948283D2*
X15290610D1*
X15503923D2*
X15559673D1*
X15772983D2*
X15860727D1*
X3853480Y9107640D2*
X4584257D1*
X4885980D2*
X5596703D1*
X5903987D2*
X6160440D1*
X6467723D2*
X10807330D1*
X11130290D2*
X11295507D1*
X11618283D2*
X11701197D1*
X12179923D2*
X12551403D1*
X13642177D2*
X15290610D1*
X15503923D2*
X15559673D1*
X15772983D2*
X15860817D1*
X3853387Y9044473D2*
X4492200D1*
X4945863D2*
X5596703D1*
X5903987D2*
X6160440D1*
X6467723D2*
X10832760D1*
X11104767D2*
X11321210D1*
X12213830D2*
X12517497D1*
X13733233D2*
X14807080D1*
X14898897D2*
X15060557D1*
X15152827D2*
X15290610D1*
X15503923D2*
X15559673D1*
X15772983D2*
X15860817D1*
X3853387Y8981307D2*
X4472237D1*
X5009117D2*
X5596703D1*
X5903987D2*
X6160440D1*
X6467723D2*
X10861197D1*
X11074507D2*
X11412720D1*
X11501070D2*
X11546977D1*
X12215743D2*
X12515583D1*
X13796397D2*
X14717030D1*
X15242697D2*
X15290610D1*
X15503923D2*
X15559673D1*
X15772983D2*
X15860910D1*
X3853297Y8918140D2*
X4483177D1*
X5072280D2*
X6175390D1*
X6452777D2*
X10861197D1*
X11074507D2*
X11483813D1*
X12187400D2*
X12543930D1*
X13847347D2*
X14691510D1*
X15268220D2*
X15290610D1*
X15503923D2*
X15559673D1*
X15772983D2*
X15861000D1*
X3853297Y8854973D2*
X4538500D1*
X5134350D2*
X6160440D1*
X6467723D2*
X10861197D1*
X11074507D2*
X11420650D1*
X11716993D2*
X12552680D1*
X12940627D2*
X13196080D1*
X13854090D2*
X14693787D1*
X15265850D2*
X15290610D1*
X15503923D2*
X15559673D1*
X15772983D2*
X15861093D1*
X3853207Y8791807D2*
X4612330D1*
X4872763D2*
X4902173D1*
X5155680D2*
X6174020D1*
X6454143D2*
X10109060D1*
X10358740D2*
X10861197D1*
X11074507D2*
X11362497D1*
X11653830D2*
X12517863D1*
X12975447D2*
X13167640D1*
X13854090D2*
X14521340D1*
X14674677D2*
X14725597D1*
X15234040D2*
X15290610D1*
X15503923D2*
X15559673D1*
X15772983D2*
X15861183D1*
X3853207Y8728640D2*
X4178473D1*
X4427607D2*
X4632017D1*
X5170993D2*
X6207473D1*
X6420693D2*
X10075520D1*
X10392280D2*
X10842510D1*
X11093193D2*
X11330323D1*
X11590667D2*
X12515310D1*
X12977997D2*
X13167733D1*
X13854090D2*
X14449790D1*
X14959143D2*
X14999853D1*
X15213077D2*
X15290610D1*
X15503923D2*
X15559673D1*
X15772983D2*
X15861273D1*
X3853113Y8665473D2*
X4138733D1*
X4467347D2*
X4557003D1*
X5212827D2*
X6207473D1*
X6434820D2*
X10071963D1*
X10404950D2*
X10809333D1*
X11126370D2*
X11297330D1*
X11614637D2*
X12542927D1*
X12950380D2*
X13196260D1*
X13853910D2*
X14426273D1*
X14959143D2*
X14999853D1*
X15213077D2*
X15290610D1*
X15503923D2*
X15559673D1*
X15772983D2*
X15861367D1*
X3853113Y8602307D2*
X4129620D1*
X5223220D2*
X5387980D1*
X5510420D2*
X6149960D1*
X6497983D2*
X10095937D1*
X10468113D2*
X10805960D1*
X11129743D2*
X11294140D1*
X11617737D2*
X11791887D1*
X12177373D2*
X12513033D1*
X13205407D2*
X13451560D1*
X13826657D2*
X14428643D1*
X14959143D2*
X14999853D1*
X15213077D2*
X15290610D1*
X15503923D2*
X15559673D1*
X15772983D2*
X15861457D1*
X3853023Y8539140D2*
X4145297D1*
X5208910D2*
X5305037D1*
X5593363D2*
X6067107D1*
X7523193D2*
X10177783D1*
X10623700D2*
X10830207D1*
X11105497D2*
X11318567D1*
X11593310D2*
X11756157D1*
X12213100D2*
X12513033D1*
X13234573D2*
X13422393D1*
X13763493D2*
X14458177D1*
X14959143D2*
X14999853D1*
X15213077D2*
X15290610D1*
X15503923D2*
X15559673D1*
X15772983D2*
X15861547D1*
X3853023Y8475973D2*
X4027993D1*
X4711983D2*
X4939450D1*
X5159873D2*
X5278603D1*
X5619793D2*
X6040583D1*
X7587267D2*
X10298097D1*
X10656150D2*
X10913423D1*
X11022280D2*
X11402967D1*
X11509000D2*
X11753057D1*
X12216293D2*
X12513033D1*
X13235120D2*
X13421847D1*
X13743257D2*
X14491807D1*
X14705120D2*
X14745830D1*
X14959143D2*
X14999853D1*
X15213077D2*
X15290610D1*
X15503923D2*
X15559673D1*
X15772983D2*
X15861640D1*
X3852933Y8412807D2*
X3963733D1*
X4648817D2*
X5278513D1*
X5619887D2*
X6040583D1*
X7650433D2*
X10315687D1*
X10660523D2*
X11779947D1*
X12189403D2*
X12513033D1*
X13207230D2*
X13449737D1*
X13715367D2*
X14491807D1*
X14705120D2*
X14745830D1*
X14959143D2*
X14999853D1*
X15213077D2*
X15290610D1*
X15503923D2*
X15559673D1*
X15772983D2*
X15861730D1*
X3852933Y8349640D2*
X3928007D1*
X4766213D2*
X5111900D1*
X5274260D2*
X5304947D1*
X5593543D2*
X5619837D1*
X5782217D2*
X5873877D1*
X6036240D2*
X6066937D1*
X6438010D2*
X6899177D1*
X6991720D2*
X7325103D1*
X7741487D2*
X7833150D1*
X7995420D2*
X9899333D1*
X10061603D2*
X10153357D1*
X10315627D2*
X10336660D1*
X10639560D2*
X10661270D1*
X10823673D2*
X12713827D1*
X13181070D2*
X13247303D1*
X13409663D2*
X13475807D1*
X13689117D2*
X13755260D1*
X13917620D2*
X14263307D1*
X14425667D2*
X14491807D1*
X14705120D2*
X14745830D1*
X14959143D2*
X14999853D1*
X15213077D2*
X15290610D1*
X15503923D2*
X15559673D1*
X15772983D2*
X15861820D1*
X3852840Y8286473D2*
X3925637D1*
X4824183D2*
X5053930D1*
X6094210D2*
X6149320D1*
X6442660D2*
X6491300D1*
X6689483D2*
X7267133D1*
X8053387D2*
X9841367D1*
X10881643D2*
X12681287D1*
X13975590D2*
X14205337D1*
X15245613D2*
X15290610D1*
X15503923D2*
X15559673D1*
X15772983D2*
X15861913D1*
X3852840Y8223307D2*
X3925637D1*
X4172853D2*
X4277460D1*
X4838673D2*
X5039437D1*
X6745720D2*
X7252640D1*
X8067880D2*
X9826873D1*
X10896137D2*
X12666793D1*
X13990080D2*
X14190843D1*
X15260107D2*
X15290610D1*
X15503923D2*
X15559673D1*
X15772983D2*
X15862003D1*
X3852750Y8160140D2*
X3925637D1*
X4172853D2*
X4277460D1*
X4838673D2*
X5039437D1*
X6763493D2*
X7252640D1*
X8067880D2*
X9826873D1*
X10896137D2*
X12666793D1*
X13990080D2*
X14190843D1*
X15260107D2*
X15290610D1*
X15503923D2*
X15559673D1*
X15772983D2*
X15862093D1*
X3852750Y8096973D2*
X3925637D1*
X4172853D2*
X4277460D1*
X4838673D2*
X5039437D1*
X6756293D2*
X7252640D1*
X8067880D2*
X9826873D1*
X10896137D2*
X12666793D1*
X13990080D2*
X14190843D1*
X15260107D2*
X15290610D1*
X15503923D2*
X15559673D1*
X15772983D2*
X15862093D1*
X3852660Y8033807D2*
X3925637D1*
X4172853D2*
X4280283D1*
X4835850D2*
X5042353D1*
X6105877D2*
X6207747D1*
X6719650D2*
X7042187D1*
X7223960D2*
X7255467D1*
X8065053D2*
X9606390D1*
X9788077D2*
X9829700D1*
X10893220D2*
X12422890D1*
X12604573D2*
X12669710D1*
X13987257D2*
X14193670D1*
X15257190D2*
X15290610D1*
X15503923D2*
X15559673D1*
X15772983D2*
X15862187D1*
X15227750Y7970640D2*
X15280127D1*
X15772983D2*
X15862277D1*
X14448543Y7907473D2*
X15258253D1*
X15772983D2*
X15862367D1*
X14388660Y7844307D2*
X15263540D1*
X15772983D2*
X15862460D1*
X4157267Y7781140D2*
X4815400D1*
X5062710D2*
X7025050D1*
X7241097D2*
X9589163D1*
X9805210D2*
X12405663D1*
X12621710D2*
X15299633D1*
X15772983D2*
X15862550D1*
X3889573Y7717973D2*
X4815400D1*
X5062710D2*
X15280950D1*
X15772983D2*
X15862640D1*
X3852387Y7654807D2*
X4815400D1*
X5062710D2*
X6456300D1*
X6893010D2*
X15258437D1*
X15772983D2*
X15862733D1*
X3852387Y7591640D2*
X4277460D1*
X4584743D2*
X4611143D1*
X4759013D2*
X4815400D1*
X5062710D2*
X5119190D1*
X5266970D2*
X5373123D1*
X5520993D2*
X5627147D1*
X5775017D2*
X5881170D1*
X6029040D2*
X6393137D1*
X6956173D2*
X7252640D1*
X7559923D2*
X7586327D1*
X7734197D2*
X8094373D1*
X8242243D2*
X9826873D1*
X10134157D2*
X10160557D1*
X10308427D2*
X10414580D1*
X10562450D2*
X11416457D1*
X11631410D2*
X11670480D1*
X12180563D2*
X12666793D1*
X12974077D2*
X13000570D1*
X13148350D2*
X13254503D1*
X13402373D2*
X13508527D1*
X13656397D2*
X13762550D1*
X13910420D2*
X14016573D1*
X14164350D2*
X14270507D1*
X14418377D2*
X14524530D1*
X14672400D2*
X14778553D1*
X14926423D2*
X15032577D1*
X15180353D2*
X15229543D1*
X15772983D2*
X15862823D1*
X3852293Y7528473D2*
X4277460D1*
X6092203D2*
X6241377D1*
X7008220D2*
X7252640D1*
X7797450D2*
X8031117D1*
X8305407D2*
X9826873D1*
X10625613D2*
X11380180D1*
X12180563D2*
X12666793D1*
X15772983D2*
X15862913D1*
X3852293Y7465307D2*
X4277460D1*
X6108610D2*
X6182223D1*
X6743623D2*
X6786157D1*
X7015600D2*
X7252640D1*
X7813857D2*
X8014710D1*
X8321813D2*
X9826873D1*
X10642020D2*
X11377720D1*
X12180563D2*
X12666793D1*
X15399560D2*
X15559673D1*
X15772983D2*
X15863007D1*
X3852293Y7402140D2*
X4277460D1*
X6108700D2*
X6163177D1*
X6763127D2*
X6802290D1*
X7015600D2*
X7252640D1*
X7813947D2*
X8014620D1*
X8321903D2*
X9826873D1*
X10642113D2*
X11406887D1*
X11640980D2*
X11660987D1*
X12180563D2*
X12666793D1*
X15336397D2*
X15559673D1*
X15772983D2*
X15863097D1*
X3852203Y7338973D2*
X4277460D1*
X6108700D2*
X6169283D1*
X6757477D2*
X6796273D1*
X7021710D2*
X7252640D1*
X7813947D2*
X8014620D1*
X8321903D2*
X9826873D1*
X10642113D2*
X11782317D1*
X12078753D2*
X12666793D1*
X15273233D2*
X15559673D1*
X15772983D2*
X15863187D1*
X3852203Y7275807D2*
X4277460D1*
X6106603D2*
X6204190D1*
X6723207D2*
X6785153D1*
X7032827D2*
X7252640D1*
X7811760D2*
X8016807D1*
X8319807D2*
X9826873D1*
X10640017D2*
X11845480D1*
X12141917D2*
X12666793D1*
X15258010D2*
X15559673D1*
X15772983D2*
X15863280D1*
X3852113Y7212640D2*
X4277460D1*
X6079443D2*
X6229437D1*
X6442660D2*
X6483553D1*
X6696863D2*
X6811403D1*
X7006487D2*
X7252640D1*
X7784600D2*
X8043877D1*
X8292647D2*
X9826873D1*
X10612853D2*
X11908733D1*
X12205080D2*
X12666793D1*
X15230850D2*
X15555663D1*
X15772983D2*
X15863370D1*
X3852113Y7149473D2*
X4521367D1*
X4883063D2*
X5085830D1*
X5299143D2*
X5587407D1*
X6719197D2*
X7264947D1*
X7791983D2*
X8044790D1*
X8553413D2*
X9822953D1*
X10341240D2*
X11971900D1*
X12268243D2*
X12713097D1*
X12926317D2*
X13221783D1*
X13435093D2*
X13475807D1*
X13689117D2*
X13730283D1*
X14963337D2*
X15492497D1*
X15769613D2*
X15863460D1*
X3852020Y7086307D2*
X4521367D1*
X5037007D2*
X5085830D1*
X5299143D2*
X5348787D1*
X5545053D2*
X5626510D1*
X6756017D2*
X6955323D1*
X7827437D2*
X8044790D1*
X8588960D2*
X9807093D1*
X10341240D2*
X12035063D1*
X12331410D2*
X12713097D1*
X12926317D2*
X13221783D1*
X13435093D2*
X13475807D1*
X13689117D2*
X13730283D1*
X15725680D2*
X15863460D1*
X3852020Y7023140D2*
X4521367D1*
X5601930D2*
X5689673D1*
X6381317D2*
X6417017D1*
X6763400D2*
X6888787D1*
X7834000D2*
X8044790D1*
X8595433D2*
X9816117D1*
X10341240D2*
X12098227D1*
X12394573D2*
X12713097D1*
X12926317D2*
X13221783D1*
X13435093D2*
X13475807D1*
X13689117D2*
X13730283D1*
X14763817D2*
X14793287D1*
X15662517D2*
X15863553D1*
X3851930Y6959973D2*
X4521367D1*
X5620067D2*
X6434700D1*
X6745810D2*
X6825623D1*
X7815407D2*
X8044790D1*
X8576930D2*
X9855583D1*
X10105447D2*
X10127900D1*
X10341240D2*
X12161390D1*
X12457737D2*
X12713097D1*
X12926317D2*
X13221783D1*
X13435093D2*
X13475807D1*
X13689117D2*
X13730283D1*
X13943597D2*
X13964257D1*
X14216943D2*
X14237783D1*
X14726447D2*
X14856483D1*
X15599350D2*
X15863643D1*
X3851930Y6896807D2*
X4772747D1*
X5613050D2*
X6490570D1*
X6689937D2*
X6762460D1*
X7492203D2*
X7564723D1*
X7757347D2*
X8044790D1*
X8292100D2*
X8326157D1*
X8518780D2*
X10089190D1*
X10380067D2*
X12224557D1*
X12963960D2*
X13221783D1*
X13435093D2*
X13475807D1*
X13689117D2*
X13730283D1*
X13943597D2*
X14200140D1*
X14704937D2*
X14935050D1*
X15520783D2*
X15863733D1*
X3851840Y6833640D2*
X3938760D1*
X8323453D2*
X10071327D1*
X10397933D2*
X12287720D1*
X12982827D2*
X13221783D1*
X13435093D2*
X13475807D1*
X13689117D2*
X13730283D1*
X13943597D2*
X14181183D1*
X14704937D2*
X15863827D1*
X3851840Y6770473D2*
X3909867D1*
X8331567D2*
X10080167D1*
X10389090D2*
X12350883D1*
X12974990D2*
X13217317D1*
X13435093D2*
X13475807D1*
X13689117D2*
X13730283D1*
X13943597D2*
X14189113D1*
X14704937D2*
X15569700D1*
X3851747Y6707307D2*
X3918983D1*
X6917437D2*
X7002080D1*
X8312970D2*
X10122093D1*
X10347073D2*
X12704803D1*
X12934613D2*
X13154150D1*
X13431630D2*
X13475807D1*
X13689117D2*
X13730283D1*
X13943597D2*
X14229400D1*
X14459210D2*
X14491627D1*
X14704937D2*
X15067850D1*
X3851747Y6644140D2*
X3986613D1*
X6837320D2*
X7033163D1*
X7259690D2*
X7384710D1*
X8249717D2*
X10089830D1*
X10379340D2*
X13090987D1*
X13387333D2*
X13475807D1*
X13689117D2*
X13730283D1*
X13943597D2*
X14491627D1*
X14704937D2*
X15004687D1*
X3851657Y6580973D2*
X4809113D1*
X6710993D2*
X6991690D1*
X7301160D2*
X10071417D1*
X10397840D2*
X13027823D1*
X13324170D2*
X13475807D1*
X13689117D2*
X13730283D1*
X13943597D2*
X14460363D1*
X14704937D2*
X14941520D1*
X3851657Y6517807D2*
X4808293D1*
X6774157D2*
X6983213D1*
X7309730D2*
X7489710D1*
X7882400D2*
X10079620D1*
X10389547D2*
X12964660D1*
X13261007D2*
X13475807D1*
X13689117D2*
X13730283D1*
X13943597D2*
X14397200D1*
X14689807D2*
X14878357D1*
X15174703D2*
X15545180D1*
X3851567Y6454640D2*
X4850037D1*
X6837320D2*
X7001353D1*
X7291500D2*
X7426547D1*
X7945563D2*
X9880650D1*
X10080470D2*
X10120637D1*
X10348530D2*
X10388603D1*
X10588427D2*
X12901497D1*
X13197840D2*
X13475807D1*
X13689117D2*
X13730283D1*
X13943597D2*
X13992877D1*
X14188323D2*
X14333943D1*
X14630380D2*
X14815103D1*
X3851567Y6391473D2*
X6465140D1*
X6885810D2*
X7063423D1*
X7229520D2*
X7268683D1*
X8008727D2*
X8295260D1*
X8549677D2*
X9824960D1*
X10644117D2*
X12838330D1*
X13134677D2*
X13415650D1*
X13687387D2*
X13730283D1*
X14567217D2*
X14751937D1*
X3851473Y6328307D2*
X4847120D1*
X5030627D2*
X5100780D1*
X5284197D2*
X6425767D1*
X6891097D2*
X7230677D1*
X8587683D2*
X9807367D1*
X10661710D2*
X12775167D1*
X13071513D2*
X13352483D1*
X13648830D2*
X13730283D1*
X14504053D2*
X14688773D1*
X3851473Y6265140D2*
X4785960D1*
X5345353D2*
X6416833D1*
X6891097D2*
X7222563D1*
X8595797D2*
X9814843D1*
X10654233D2*
X12712003D1*
X13008350D2*
X13289320D1*
X13585667D2*
X13730283D1*
X14440887D2*
X14625610D1*
X15050107D2*
X15543630D1*
X3851383Y6201973D2*
X4609320D1*
X5365223D2*
X6370350D1*
X6892463D2*
X7239427D1*
X8578933D2*
X9851757D1*
X10339143D2*
X10359727D1*
X10617320D2*
X12529983D1*
X12945183D2*
X13107303D1*
X13522503D2*
X13683343D1*
X14220680D2*
X14562447D1*
X14986943D2*
X15397980D1*
X3851383Y6138807D2*
X4173827D1*
X5359757D2*
X6307187D1*
X6955627D2*
X7293567D1*
X7498220D2*
X7558710D1*
X10299313D2*
X12529983D1*
X12882020D2*
X13107303D1*
X13459340D2*
X13683343D1*
X13990627D2*
X14499283D1*
X14923780D2*
X15334543D1*
X3851293Y6075640D2*
X4136640D1*
X5325940D2*
X6244020D1*
X7018793D2*
X7713020D1*
X10236150D2*
X12529983D1*
X12837267D2*
X13107303D1*
X13414587D2*
X13683343D1*
X13990627D2*
X14436117D1*
X14860613D2*
X15086533D1*
X3851293Y6012473D2*
X4140193D1*
X4841043D2*
X5596157D1*
X5805277D2*
X6180857D1*
X7081957D2*
X7776183D1*
X10172983D2*
X12529983D1*
X12837267D2*
X13107303D1*
X13414587D2*
X13683343D1*
X13990627D2*
X14372953D1*
X14797450D2*
X15057277D1*
X15504560D2*
X15542263D1*
X3851200Y5949307D2*
X4166900D1*
X4802307D2*
X5554960D1*
X5825147D2*
X6117693D1*
X6533077D2*
X6570597D1*
X7145120D2*
X8604973D1*
X8841617D2*
X12529983D1*
X12837267D2*
X13107303D1*
X13414587D2*
X13683343D1*
X13990627D2*
X14309790D1*
X14734287D2*
X15066117D1*
X15441397D2*
X15512277D1*
X3851200Y5886140D2*
X4142927D1*
X4787817D2*
X5491793D1*
X5808377D2*
X6054530D1*
X6515393D2*
X6596027D1*
X7208283D2*
X8549463D1*
X8844900D2*
X12537823D1*
X12829340D2*
X13115140D1*
X13406657D2*
X13691183D1*
X13982697D2*
X14246627D1*
X14671123D2*
X15073957D1*
X15427633D2*
X15493137D1*
X3851110Y5822973D2*
X4155960D1*
X4850980D2*
X5428630D1*
X5724977D2*
X5991367D1*
X6494613D2*
X6564763D1*
X7271447D2*
X8486300D1*
X8807530D2*
X12530807D1*
X12836357D2*
X13108123D1*
X13413767D2*
X13684163D1*
X13989807D2*
X14183460D1*
X14607960D2*
X15073957D1*
X15427633D2*
X15500793D1*
X3851110Y5759807D2*
X4308083D1*
X4914143D2*
X5365467D1*
X5661813D2*
X5928200D1*
X6432633D2*
X6572147D1*
X7352113D2*
X8423137D1*
X8719483D2*
X12552770D1*
X12814390D2*
X13130090D1*
X13391710D2*
X13706130D1*
X13967750D2*
X14120297D1*
X14554730D2*
X15056273D1*
X15427633D2*
X15540807D1*
X3851017Y5696640D2*
X4320843D1*
X4977307D2*
X5302303D1*
X5598650D2*
X5865037D1*
X6369470D2*
X6581170D1*
X6794483D2*
X6846587D1*
X7365053D2*
X8359973D1*
X8656317D2*
X12637900D1*
X12729260D2*
X13215220D1*
X13306577D2*
X13791260D1*
X13882620D2*
X14057133D1*
X14599483D2*
X14944347D1*
X3851017Y5633473D2*
X4320843D1*
X4534157D2*
X4611510D1*
X5028897D2*
X5239140D1*
X5535483D2*
X5801873D1*
X6306303D2*
X6581170D1*
X6818090D2*
X6871560D1*
X7095173D2*
X7140897D1*
X7341083D2*
X8296807D1*
X8593153D2*
X13993970D1*
X14600210D2*
X14880817D1*
X3851017Y5570307D2*
X4320843D1*
X4534157D2*
X4649427D1*
X5036007D2*
X5175973D1*
X5472320D2*
X5772890D1*
X6243140D2*
X6591927D1*
X7107387D2*
X8233643D1*
X8529990D2*
X13930807D1*
X14586357D2*
X14817653D1*
X3850927Y5507140D2*
X4320843D1*
X4534157D2*
X4649427D1*
X5036007D2*
X5112810D1*
X5409157D2*
X5772617D1*
X6182073D2*
X6648070D1*
X8466827D2*
X13867640D1*
X14292137D2*
X14373043D1*
X14586357D2*
X14754490D1*
X15475303D2*
X15539437D1*
X3850927Y5443973D2*
X4320843D1*
X4554757D2*
X4649427D1*
X5345993D2*
X5772617D1*
X6182073D2*
X6711233D1*
X8403660D2*
X13804477D1*
X14228973D2*
X14356093D1*
X14603220D2*
X14691327D1*
X14987673D2*
X15071313D1*
X15412137D2*
X15513733D1*
X3850837Y5380807D2*
X4330140D1*
X4617920D2*
X4649427D1*
X5282827D2*
X5772617D1*
X6182073D2*
X6774400D1*
X8340497D2*
X13741313D1*
X14165810D2*
X14365843D1*
X14593557D2*
X14628163D1*
X14924507D2*
X15073957D1*
X15408220D2*
X15493317D1*
X3850837Y5317640D2*
X4384737D1*
X5223673D2*
X5772617D1*
X6182073D2*
X6845127D1*
X8269767D2*
X13678150D1*
X14102647D2*
X14436027D1*
X14523377D2*
X14564997D1*
X14861343D2*
X15073957D1*
X15408220D2*
X15499973D1*
X3850743Y5254473D2*
X4447900D1*
X5223673D2*
X5772617D1*
X6182073D2*
X13614983D1*
X14039483D2*
X14501833D1*
X14798180D2*
X15073957D1*
X15408220D2*
X15538163D1*
X3850743Y5191307D2*
X4488553D1*
X5223673D2*
X5772617D1*
X6182073D2*
X13551820D1*
X13976317D2*
X14438670D1*
X14735017D2*
X15073957D1*
X15408220D2*
X15866103D1*
X3850653Y5128140D2*
X5010363D1*
X5223673D2*
X5772617D1*
X6182073D2*
X13488657D1*
X13913153D2*
X14375507D1*
X14671850D2*
X15073957D1*
X15558517D2*
X15866103D1*
X3850653Y5064973D2*
X5010363D1*
X5223673D2*
X5772617D1*
X8347060D2*
X13425493D1*
X13849990D2*
X14312343D1*
X14608687D2*
X15056820D1*
X15585407D2*
X15866197D1*
X3850563Y5001807D2*
X5010363D1*
X5362400D2*
X5772617D1*
X8377683D2*
X13362330D1*
X13786827D2*
X14249177D1*
X14545523D2*
X15067483D1*
X15604910D2*
X15866287D1*
X3850563Y4938640D2*
X5010363D1*
X5405053D2*
X5772617D1*
X8369937D2*
X13299163D1*
X13723660D2*
X14186013D1*
X14482360D2*
X14694150D1*
X15668077D2*
X15866377D1*
X3850470Y4875473D2*
X5010363D1*
X5465120D2*
X5772617D1*
X7719887D2*
X8202017D1*
X8307230D2*
X13236000D1*
X13660407D2*
X14122850D1*
X14419197D2*
X14630897D1*
X15731240D2*
X15866470D1*
X3850470Y4812307D2*
X5010363D1*
X5528283D2*
X5772617D1*
X7783050D2*
X13172837D1*
X13597243D2*
X14059687D1*
X14356030D2*
X14567733D1*
X15794403D2*
X15866560D1*
X3850380Y4749140D2*
X5010363D1*
X5223673D2*
X5295103D1*
X5591447D2*
X5772617D1*
X6421697D2*
X7549867D1*
X7846213D2*
X13109673D1*
X13534077D2*
X13996520D1*
X14292867D2*
X14504567D1*
X14800913D2*
X15198553D1*
X3850380Y4685973D2*
X5010363D1*
X5223673D2*
X5251343D1*
X5654613D2*
X5759763D1*
X6358530D2*
X7613033D1*
X7909377D2*
X13046510D1*
X13470913D2*
X13838840D1*
X14229703D2*
X14346977D1*
X14737750D2*
X14852837D1*
X15090030D2*
X15261717D1*
X3850290Y4622807D2*
X5010363D1*
X6297827D2*
X6479633D1*
X7258780D2*
X7676197D1*
X7972543D2*
X12983343D1*
X13407750D2*
X13795363D1*
X14166540D2*
X14303410D1*
X14674587D2*
X14809270D1*
X15133597D2*
X15324880D1*
X3850290Y4559640D2*
X5010363D1*
X6256083D2*
X6416470D1*
X7321943D2*
X7739360D1*
X8035707D2*
X12920180D1*
X13344587D2*
X13783970D1*
X14131173D2*
X14292017D1*
X14639313D2*
X14797783D1*
X15145080D2*
X15388043D1*
X3850197Y4496473D2*
X5010363D1*
X6182073D2*
X6329060D1*
X7385107D2*
X7802523D1*
X8098870D2*
X12857017D1*
X13409757D2*
X13797277D1*
X14117867D2*
X14305413D1*
X14625913D2*
X14757770D1*
X15131683D2*
X15451210D1*
X3850197Y4433307D2*
X5010363D1*
X5223673D2*
X5258370D1*
X5503857D2*
X5610923D1*
X6233753D2*
X6288593D1*
X6586487D2*
X7151927D1*
X7415640D2*
X7865687D1*
X8159937D2*
X8369633D1*
X8564350D2*
X12793853D1*
X13467177D2*
X13844400D1*
X14070743D2*
X14352447D1*
X14578883D2*
X14694607D1*
X15084743D2*
X15459320D1*
X3850107Y4370140D2*
X5010363D1*
X5223673D2*
X5276417D1*
X5567020D2*
X5674087D1*
X6240317D2*
X6290050D1*
X6619117D2*
X6729737D1*
X6873140D2*
X6983670D1*
X7127073D2*
X7202783D1*
X7416007D2*
X7491717D1*
X7635120D2*
X7745740D1*
X7889143D2*
X7928853D1*
X8603090D2*
X10847523D1*
X14927790D2*
X15459320D1*
X3850107Y4306973D2*
X5010363D1*
X5223673D2*
X5333840D1*
X5630183D2*
X5737250D1*
X6207960D2*
X6336353D1*
X8666253D2*
X10748903D1*
X14864627D2*
X15459320D1*
X3850017Y4243807D2*
X5010363D1*
X5223673D2*
X5397003D1*
X5693350D2*
X5800413D1*
X6096760D2*
X6393867D1*
X8729417D2*
X10685740D1*
X12900707D2*
X12926123D1*
X15181630D2*
X15459320D1*
X3850017Y4180640D2*
X5010363D1*
X5223673D2*
X5460167D1*
X5756513D2*
X5863580D1*
X6159923D2*
X6393773D1*
X8792580D2*
X10622577D1*
X12885393D2*
X12926103D1*
X13139417D2*
X13231807D1*
X15324457D2*
X15459320D1*
X3849923Y4117473D2*
X5010363D1*
X5223673D2*
X5523330D1*
X5819677D2*
X5926743D1*
X6223090D2*
X6393773D1*
X8538283D2*
X8559307D1*
X8855743D2*
X10559413D1*
X12569390D2*
X12672080D1*
X12885393D2*
X12926103D1*
X13139417D2*
X13294973D1*
X15375770D2*
X15459320D1*
X3849923Y4054307D2*
X4289307D1*
X4420680D2*
X4535857D1*
X4682177D2*
X5010363D1*
X5223673D2*
X5586497D1*
X5882840D2*
X5989907D1*
X6286253D2*
X6395687D1*
X8601447D2*
X8622560D1*
X8918910D2*
X10496247D1*
X12885393D2*
X12926103D1*
X13139417D2*
X15062290D1*
X15389533D2*
X15459320D1*
X3849833Y3991140D2*
X4237173D1*
X4728387D2*
X5010363D1*
X5223673D2*
X5649660D1*
X5946007D2*
X6053070D1*
X8664613D2*
X8685727D1*
X8982073D2*
X10433083D1*
X10983453D2*
X11121963D1*
X11387410D2*
X11884033D1*
X12149390D2*
X12399373D1*
X12885393D2*
X12926103D1*
X13139417D2*
X15015623D1*
X15376773D2*
X15459320D1*
X3849833Y3927973D2*
X4233070D1*
X4729847D2*
X5010363D1*
X5223673D2*
X5255817D1*
X5485627D2*
X5712823D1*
X5994130D2*
X6116233D1*
X6772150D2*
X7393370D1*
X7921410D2*
X7964673D1*
X8177893D2*
X8383307D1*
X8716110D2*
X8748890D1*
X9045237D2*
X10369920D1*
X10920290D2*
X11087603D1*
X11421773D2*
X11849673D1*
X12183753D2*
X12449320D1*
X12885393D2*
X12926103D1*
X13139417D2*
X13589100D1*
X13817360D2*
X13843487D1*
X14071657D2*
X14351533D1*
X14579793D2*
X14857393D1*
X15327463D2*
X15459320D1*
X3849743Y3864807D2*
X4248383D1*
X4461603D2*
X4502317D1*
X4715627D2*
X5010363D1*
X5531657D2*
X5718383D1*
X6040067D2*
X6179400D1*
X6797307D2*
X7330207D1*
X7879390D2*
X7964673D1*
X8177893D2*
X8351587D1*
X8725680D2*
X8812057D1*
X10123400D2*
X10323163D1*
X10857127D2*
X11081860D1*
X11427517D2*
X11843930D1*
X12189493D2*
X12514033D1*
X12614507D2*
X12672080D1*
X12885393D2*
X12926103D1*
X13139417D2*
X13542707D1*
X14118140D2*
X14305050D1*
X14626280D2*
X14810817D1*
X15185733D2*
X15459320D1*
X3849743Y3801640D2*
X4248383D1*
X4461603D2*
X4502317D1*
X4715627D2*
X5010363D1*
X5544417D2*
X5705623D1*
X6052920D2*
X6561390D1*
X6785183D2*
X7267043D1*
X7816227D2*
X7964673D1*
X8177893D2*
X8343840D1*
X8725680D2*
X8875220D1*
X10222113D2*
X10318697D1*
X10539937D2*
X10560753D1*
X10793960D2*
X11101367D1*
X11408010D2*
X11863343D1*
X12170080D2*
X12672080D1*
X12885393D2*
X12926103D1*
X13139417D2*
X13529673D1*
X14131173D2*
X14292017D1*
X14639313D2*
X14797783D1*
X15145080D2*
X15459320D1*
X3849743Y3738473D2*
X4248383D1*
X4461603D2*
X4502317D1*
X4715627D2*
X5010363D1*
X5532387D2*
X5717563D1*
X6040887D2*
X6645700D1*
X6700783D2*
X7212173D1*
X7753063D2*
X7964673D1*
X8177893D2*
X8360337D1*
X8725680D2*
X8938383D1*
X10271970D2*
X10318697D1*
X10531917D2*
X10560780D1*
X10774000D2*
X11131080D1*
X11378387D2*
X11923593D1*
X12109833D2*
X12672080D1*
X12885393D2*
X12926103D1*
X13139417D2*
X13541340D1*
X14119507D2*
X14303773D1*
X14627553D2*
X14809450D1*
X15133323D2*
X15459320D1*
X3849650Y3675307D2*
X4236080D1*
X4727840D2*
X4998150D1*
X5997867D2*
X6428410D1*
X8725680D2*
X8782433D1*
X10798153D2*
X11131080D1*
X13151630D2*
X13582447D1*
X15090210D2*
X15459320D1*
X3849650Y3612140D2*
X4204817D1*
X4759103D2*
X4966887D1*
X6029130D2*
X6397147D1*
X8725680D2*
X8751203D1*
X10829417D2*
X11104557D1*
X13182893D2*
X13551183D1*
X15121473D2*
X15459320D1*
X3849560Y3548973D2*
X4201353D1*
X4762660D2*
X4963330D1*
X6032593D2*
X6393683D1*
X8725680D2*
X8747737D1*
X10832970D2*
X11101093D1*
X13186357D2*
X13547720D1*
X15124937D2*
X15459320D1*
X3849560Y3485807D2*
X4201353D1*
X4762660D2*
X4963330D1*
X6032593D2*
X6393683D1*
X8725680D2*
X8747737D1*
X10832970D2*
X11101093D1*
X13186357D2*
X13547720D1*
X15124937D2*
X15459320D1*
X3849470Y3422640D2*
X4201353D1*
X4762660D2*
X4963330D1*
X6032593D2*
X6393683D1*
X8725680D2*
X8747737D1*
X10832970D2*
X11101093D1*
X13186357D2*
X13547720D1*
X15124937D2*
X15459320D1*
X15111813Y3359473D2*
X15459320D1*
X13809887Y3296307D2*
X13869373D1*
X14041213D2*
X14076273D1*
X14307723D2*
X14377420D1*
X14549260D2*
X14631443D1*
X14803283D2*
X14885377D1*
X13757387Y3233140D2*
X14013110D1*
X14299520D2*
X14938697D1*
X14246293Y3169973D2*
X14879450D1*
X3849287Y3106807D2*
X3899843D1*
X4051357D2*
X4739387D1*
X4986603D2*
X6183957D1*
X6537087D2*
X7310700D1*
X7559103D2*
X8537523D1*
X8689040D2*
X10891183D1*
X11042790D2*
X13244843D1*
X13396447D2*
X13548723D1*
X14183127D2*
X14864687D1*
X15108713D2*
X15459320D1*
X3849197Y3043640D2*
X4739387D1*
X4986603D2*
X6292967D1*
X6599977D2*
X7334127D1*
X7535680D2*
X13485557D1*
X14119963D2*
X14864687D1*
X15077997D2*
X15459320D1*
X3849197Y2980473D2*
X4739387D1*
X4986603D2*
X6350570D1*
X6624950D2*
X7336313D1*
X7533583D2*
X13454113D1*
X14046137D2*
X14864687D1*
X15077997D2*
X15459320D1*
X3849103Y2917307D2*
X4201353D1*
X5232333D2*
X5255637D1*
X5486357D2*
X5509660D1*
X5740380D2*
X5763677D1*
X5994313D2*
X6393683D1*
X6916617D2*
X6939920D1*
X7170640D2*
X7193943D1*
X7678597D2*
X7701900D1*
X7932620D2*
X7955927D1*
X8186643D2*
X8747707D1*
X9270640D2*
X9293943D1*
X9524663D2*
X9547967D1*
X9778687D2*
X9801990D1*
X10032710D2*
X11101093D1*
X11624117D2*
X11647330D1*
X11878050D2*
X11901367D1*
X12132073D2*
X12155437D1*
X12386097D2*
X13453567D1*
X14070653D2*
X14093973D1*
X14324677D2*
X14347943D1*
X14578700D2*
X14601893D1*
X14832723D2*
X14855883D1*
X15086657D2*
X15459320D1*
X3849103Y2854140D2*
X4201353D1*
X6028220D2*
X6393683D1*
X8220460D2*
X8747707D1*
X10066527D2*
X11101093D1*
X12419910D2*
X13453567D1*
X15120563D2*
X15459320D1*
X3849013Y2790973D2*
X4201353D1*
X6032593D2*
X6393683D1*
X8224923D2*
X8747707D1*
X10070993D2*
X11101093D1*
X12424377D2*
X13447460D1*
X15124937D2*
X15459320D1*
X3849013Y2727807D2*
X4201353D1*
X6032593D2*
X6388670D1*
X8224923D2*
X8747707D1*
X10070993D2*
X11101093D1*
X12424377D2*
X13384293D1*
X15124937D2*
X15459320D1*
X3848923Y2664640D2*
X4201353D1*
X6032593D2*
X6325507D1*
X8224923D2*
X8747707D1*
X10070993D2*
X11101093D1*
X12424377D2*
X13321130D1*
X15124937D2*
X15428240D1*
X3848923Y2601473D2*
X4201353D1*
X6021200D2*
X6262343D1*
X8213530D2*
X8747707D1*
X10059600D2*
X11101093D1*
X12412983D2*
X13257967D1*
X15113543D2*
X15365077D1*
X3848830Y2538307D2*
X4201353D1*
X6893100D2*
X6963437D1*
X7147127D2*
X7217460D1*
X7401150D2*
X7444777D1*
X7657997D2*
X7725413D1*
X7939910D2*
X7976430D1*
X9247127D2*
X9317460D1*
X9501150D2*
X9571483D1*
X9755173D2*
X9810650D1*
X11609627D2*
X11670937D1*
X11854533D2*
X11924867D1*
X12108557D2*
X12164127D1*
X12377347D2*
X13194803D1*
X13491150D2*
X13547720D1*
X14047137D2*
X14102250D1*
X14315563D2*
X14356730D1*
X14570043D2*
X14611027D1*
X14824247D2*
X14879543D1*
X15063140D2*
X15301913D1*
X3848830Y2475140D2*
X4597107D1*
X6432360D2*
X7444777D1*
X7657997D2*
X7726600D1*
X7975093D2*
X8018540D1*
X8969403D2*
X9765260D1*
X11586840D2*
X12164127D1*
X12377347D2*
X13131640D1*
X13427983D2*
X13594660D1*
X13807970D2*
X13921327D1*
X13989077D2*
X14102250D1*
X14315563D2*
X14356730D1*
X14570043D2*
X14611027D1*
X14824247D2*
X14937603D1*
X15005353D2*
X15238747D1*
X3237970Y2411973D2*
X3273853D1*
X3830877D2*
X4660270D1*
X6369197D2*
X7444777D1*
X7682790D2*
X7744283D1*
X8038257D2*
X8081703D1*
X8906240D2*
X9702003D1*
X12377347D2*
X13068473D1*
X13364820D2*
X13562393D1*
X15110537D2*
X15175583D1*
X15631070D2*
X15687460D1*
X3236603Y2348807D2*
X7456170D1*
X7745953D2*
X7805077D1*
X8101423D2*
X9638840D1*
X9935277D2*
X10733593D1*
X12358113D2*
X13005310D1*
X13301657D2*
X13532407D1*
X15567907D2*
X15687460D1*
X3235327Y2285640D2*
X7512770D1*
X7809117D2*
X7868240D1*
X9872113D2*
X10740520D1*
X12296683D2*
X12942147D1*
X13238493D2*
X13529673D1*
X15504743D2*
X15687460D1*
X3234053Y2222473D2*
X7575937D1*
X7872280D2*
X7931403D1*
X9808947D2*
X10800493D1*
X10912360D2*
X12878983D1*
X13175327D2*
X13552640D1*
X15441577D2*
X15687460D1*
X3232683Y2159307D2*
X7639100D1*
X7935447D2*
X7994567D1*
X13112163D2*
X13207837D1*
X14842387D2*
X14892760D1*
X15378413D2*
X15687460D1*
X3231410Y2096140D2*
X7702263D1*
X7998610D2*
X9288747D1*
X13049000D2*
X13173657D1*
X15315250D2*
X15628580D1*
X3230133Y2032973D2*
X7765427D1*
X8061773D2*
X9289387D1*
X12985837D2*
X13178943D1*
X15252087D2*
X15565323D1*
X3228857Y1969807D2*
X7828593D1*
X15188923D2*
X15502160D1*
X15798597D2*
X15870390D1*
X3227490Y1906640D2*
X7891757D1*
X15125757D2*
X15438997D1*
X15735433D2*
X15870480D1*
X3226213Y1843473D2*
X7957837D1*
X15062593D2*
X15375830D1*
X15672267D2*
X15870570D1*
X3224937Y1780307D2*
X8839947D1*
X14999430D2*
X15312667D1*
X15609103D2*
X15870663D1*
X3223660Y1717140D2*
X8776783D1*
X14936267D2*
X15249503D1*
X15545940D2*
X15870753D1*
X3222293Y1653973D2*
X8713617D1*
X9010053D2*
X13054983D1*
X14873100D2*
X15186340D1*
X15482777D2*
X15870843D1*
X3221017Y1590807D2*
X8650453D1*
X9375183D2*
X13115323D1*
X13226187D2*
X13533410D1*
X13869587D2*
X14040817D1*
X14885770D2*
X15123177D1*
X15419520D2*
X15870937D1*
X3219743Y1527640D2*
X8587290D1*
X9438350D2*
X13529127D1*
X13873870D2*
X14036533D1*
X14890053D2*
X15060010D1*
X15356357D2*
X15871027D1*
X3218377Y1464473D2*
X3761300D1*
X3975887D2*
X4015323D1*
X4229820D2*
X4269347D1*
X4483843D2*
X4523280D1*
X4737867D2*
X7757223D1*
X7972450D2*
X8011247D1*
X8226473D2*
X8265270D1*
X8480407D2*
X8519293D1*
X9501513D2*
X13550270D1*
X13852723D2*
X13977017D1*
X14868817D2*
X14996847D1*
X15293193D2*
X15641887D1*
X15850183D2*
X15871117D1*
X3217100Y1401307D2*
X3715817D1*
X4783350D2*
X7712017D1*
X14804197D2*
X14933683D1*
X15230030D2*
X15560310D1*
X3215823Y1338140D2*
X3704973D1*
X4794197D2*
X7701260D1*
X14390850D2*
X14525167D1*
X15166863D2*
X15523397D1*
X3214547Y1274973D2*
X3704973D1*
X4794197D2*
X7701260D1*
X14327683D2*
X14588330D1*
X15103700D2*
X15508540D1*
X3213180Y1211807D2*
X3704973D1*
X4794197D2*
X7701260D1*
X14264520D2*
X14651497D1*
X15040537D2*
X15511457D1*
X3211903Y1148640D2*
X3705700D1*
X4793467D2*
X7701990D1*
X14194247D2*
X15532877D1*
X7303247Y6516457D2*
X7299383Y6492077D1*
X7291757Y6468603D1*
X7280553Y6446613D1*
X7266043Y6426643D1*
X7248593Y6409193D1*
X7228623Y6394683D1*
X7206633Y6383480D1*
X7183160Y6375853D1*
X7158780Y6371990D1*
X7134100D1*
X7109720Y6375853D1*
X7086247Y6383480D1*
X7064257Y6394683D1*
X7044287Y6409193D1*
X7026837Y6426643D1*
X7012327Y6446613D1*
X7001123Y6468603D1*
X6993497Y6492077D1*
X6989633Y6516457D1*
Y6541137D1*
X6993497Y6565517D1*
X7001123Y6588990D1*
X7012327Y6610980D1*
X7026837Y6630950D1*
X7044287Y6648400D1*
X7053647Y6655777D1*
X7035220Y6671577D1*
X7019190Y6690343D1*
X7006293Y6711390D1*
X6996847Y6734190D1*
X6991087Y6758190D1*
X6989150Y6782797D1*
X6989257Y6785543D1*
X6869153Y6665927D1*
X6854263Y6655107D1*
X6837867Y6646750D1*
X6820360Y6641063D1*
X6802183Y6638183D1*
X6722980Y6637823D1*
X6640310D1*
X6654820Y6629017D1*
X6666807Y6618773D1*
X6860740Y6424403D1*
X6869990Y6411670D1*
X6877137Y6397650D1*
X6882000Y6382683D1*
X6884460Y6367140D1*
X6884770Y6265937D1*
Y6203320D1*
X7268540Y5820100D1*
X7286163Y5814373D1*
X7302677Y5805960D1*
X7317667Y5795070D1*
X7330770Y5781967D1*
X7341660Y5766977D1*
X7350073Y5750463D1*
X7355800Y5732840D1*
X7358700Y5714540D1*
Y5696007D1*
X7355800Y5677707D1*
X7350073Y5660083D1*
X7341660Y5643570D1*
X7330770Y5628580D1*
X7317667Y5615477D1*
X7302677Y5604587D1*
X7286163Y5596173D1*
X7268540Y5590447D1*
X7250240Y5587547D1*
X7231707D1*
X7213407Y5590447D1*
X7195783Y5596173D1*
X7179270Y5604587D1*
X7164280Y5615477D1*
X7151177Y5628580D1*
X7140287Y5643570D1*
X7131873Y5660083D1*
X7126013Y5678380D1*
X7082727Y5721687D1*
X7083620Y5708050D1*
X7084017Y5642023D1*
X7092430Y5625510D1*
X7098157Y5607887D1*
X7101057Y5589587D1*
Y5571053D1*
X7098157Y5552753D1*
X7092430Y5535130D1*
X7084017Y5518617D1*
X7076513Y5507923D1*
X8177537Y5507903D1*
X8608447Y5939320D1*
X8614173Y5956943D1*
X8618920Y5966913D1*
X7861800Y5967210D1*
X7846257Y5969670D1*
X7831290Y5974533D1*
X7817270Y5981680D1*
X7804537Y5990930D1*
X7732757Y6062270D1*
X7684743Y6110287D1*
X7661017Y6108553D1*
X7634847Y6110613D1*
X7609320Y6116740D1*
X7585070Y6126787D1*
X7562687Y6140503D1*
X7542723Y6157550D1*
X7528503Y6173927D1*
X7514187Y6157550D1*
X7494223Y6140503D1*
X7471840Y6126787D1*
X7447590Y6116740D1*
X7422063Y6110613D1*
X7395893Y6108553D1*
X7369723Y6110613D1*
X7344197Y6116740D1*
X7319947Y6126787D1*
X7297563Y6140503D1*
X7277600Y6157550D1*
X7260553Y6177513D1*
X7246837Y6199897D1*
X7236790Y6224147D1*
X7230663Y6249673D1*
X7228603Y6275843D1*
X7230663Y6302013D1*
X7236790Y6327540D1*
X7246837Y6351790D1*
X7260553Y6374173D1*
X7277600Y6394137D1*
X7297563Y6411183D1*
X7319947Y6424900D1*
X7344197Y6434947D1*
X7369723Y6441073D1*
X7395893Y6443133D1*
X7419567Y6441370D1*
X7508567Y6529910D1*
X7521300Y6539160D1*
X7535320Y6546307D1*
X7550287Y6551170D1*
X7565830Y6553630D1*
X7667033Y6553940D1*
X7806273Y6553630D1*
X7821817Y6551170D1*
X7836783Y6546307D1*
X7850803Y6539160D1*
X7863537Y6529910D1*
X7935317Y6458570D1*
X8017747Y6376137D1*
X8288573Y6376127D1*
X8304183Y6394130D1*
X8324147Y6411177D1*
X8346530Y6424893D1*
X8370780Y6434940D1*
X8396307Y6441067D1*
X8422477Y6443127D1*
X8448647Y6441067D1*
X8474173Y6434940D1*
X8498423Y6424893D1*
X8520807Y6411177D1*
X8540770Y6394130D1*
X8557817Y6374167D1*
X8571533Y6351783D1*
X8581580Y6327533D1*
X8587707Y6302007D1*
X8589767Y6275837D1*
X8587707Y6249667D1*
X8581580Y6224140D1*
X8571533Y6199890D1*
X8557817Y6177507D1*
X8549907Y6167473D1*
X9903590Y6167480D1*
X9882220Y6180630D1*
X9862257Y6197677D1*
X9845210Y6217640D1*
X9831493Y6240023D1*
X9821447Y6264273D1*
X9815320Y6289800D1*
X9813260Y6315970D1*
X9815320Y6342140D1*
X9821447Y6367667D1*
X9831493Y6391917D1*
X9845210Y6414300D1*
X9862257Y6434263D1*
X9882220Y6451310D1*
X9904603Y6465027D1*
X9928853Y6475073D1*
X9954380Y6481200D1*
X9980550Y6483260D1*
X10006720Y6481200D1*
X10032247Y6475073D1*
X10056497Y6465027D1*
X10078880Y6451310D1*
X10098843Y6434263D1*
X10115890Y6414300D1*
X10129607Y6391917D1*
X10134310Y6381713D1*
Y6448227D1*
X10123380Y6458167D1*
X10107350Y6476933D1*
X10094453Y6497980D1*
X10085007Y6520780D1*
X10079247Y6544780D1*
X10077310Y6569387D1*
X10079247Y6593993D1*
X10085007Y6617993D1*
X10094453Y6640793D1*
X10107350Y6661840D1*
X10123380Y6680607D1*
X10141807Y6696367D1*
X10123380Y6712167D1*
X10107350Y6730933D1*
X10094453Y6751980D1*
X10085007Y6774780D1*
X10079247Y6798780D1*
X10077310Y6823387D1*
X10079247Y6847993D1*
X10085007Y6871993D1*
X10094453Y6894793D1*
X10107350Y6915840D1*
X10123380Y6934607D1*
X10134303Y6944453D1*
X10134310Y7012150D1*
X10123187Y6990560D1*
X10107757Y6969323D1*
X10089197Y6950763D1*
X10067960Y6935333D1*
X10044570Y6923413D1*
X10019603Y6915303D1*
X9993677Y6911197D1*
X9967423D1*
X9941497Y6915303D1*
X9916530Y6923413D1*
X9893140Y6935333D1*
X9871903Y6950763D1*
X9853343Y6969323D1*
X9837913Y6990560D1*
X9825993Y7013950D1*
X9817883Y7038917D1*
X9813777Y7064843D1*
Y7091097D1*
X9817883Y7117023D1*
X9825993Y7141990D1*
X9833173Y7156917D1*
X9833190Y7608057D1*
X10127770D1*
Y7562210D1*
X10138823Y7572767D1*
X10157520Y7586353D1*
X10178113Y7596843D1*
X10200097Y7603987D1*
X10222923Y7607603D1*
X10246037D1*
X10268863Y7603987D1*
X10290847Y7596843D1*
X10311440Y7586353D1*
X10330137Y7572767D1*
X10346480Y7556423D1*
X10360067Y7537727D1*
X10361413Y7535320D1*
X10369320Y7547340D1*
X10384330Y7564917D1*
X10401907Y7579927D1*
X10421613Y7592003D1*
X10442963Y7600847D1*
X10465440Y7606243D1*
X10488480Y7608057D1*
X10511520Y7606243D1*
X10533997Y7600847D1*
X10555347Y7592003D1*
X10575053Y7579927D1*
X10592630Y7564917D1*
X10607640Y7547340D1*
X10619717Y7527633D1*
X10628560Y7506283D1*
X10633957Y7483807D1*
X10635770Y7460767D1*
X10635317Y7289210D1*
X10631700Y7266383D1*
X10624557Y7244400D1*
X10614067Y7223807D1*
X10600480Y7205110D1*
X10584137Y7188767D1*
X10565440Y7175180D1*
X10544847Y7164690D1*
X10522863Y7157547D1*
X10500037Y7153930D1*
X10476923D1*
X10454097Y7157547D1*
X10432113Y7164690D1*
X10411520Y7175180D1*
X10392823Y7188767D1*
X10376480Y7205110D1*
X10362893Y7223807D1*
X10361547Y7226213D1*
X10353640Y7214193D1*
X10338630Y7196617D1*
X10334880Y7193153D1*
X10334890Y6944513D1*
X10345820Y6934607D1*
X10361850Y6915840D1*
X10374747Y6894793D1*
X10384193Y6871993D1*
X10389953Y6847993D1*
X10391890Y6823387D1*
X10389953Y6798780D1*
X10384193Y6774780D1*
X10374747Y6751980D1*
X10361850Y6730933D1*
X10345820Y6712167D1*
X10327393Y6696407D1*
X10345820Y6680607D1*
X10361850Y6661840D1*
X10374747Y6640793D1*
X10384193Y6617993D1*
X10389953Y6593993D1*
X10391890Y6569387D1*
X10389953Y6544780D1*
X10384193Y6520780D1*
X10374747Y6497980D1*
X10361850Y6476933D1*
X10345820Y6458167D1*
X10334897Y6448320D1*
X10334890Y6382263D1*
X10345867Y6403380D1*
X10361297Y6424617D1*
X10379857Y6443177D1*
X10401093Y6458607D1*
X10424483Y6470527D1*
X10449450Y6478637D1*
X10475377Y6482743D1*
X10501630D1*
X10527557Y6478637D1*
X10552523Y6470527D1*
X10575913Y6458607D1*
X10597150Y6443177D1*
X10615710Y6424617D1*
X10631140Y6403380D1*
X10643060Y6379990D1*
X10651170Y6355023D1*
X10655277Y6329097D1*
Y6302843D1*
X10651170Y6276917D1*
X10643060Y6251950D1*
X10631140Y6228560D1*
X10615710Y6207323D1*
X10597150Y6188763D1*
X10575913Y6173333D1*
X10552523Y6161413D1*
X10527557Y6153303D1*
X10501630Y6149197D1*
X10475377D1*
X10449450Y6153303D1*
X10424483Y6161413D1*
X10401093Y6173333D1*
X10379857Y6188763D1*
X10361297Y6207323D1*
X10345867Y6228560D1*
X10334870Y6249947D1*
X10334580Y6214407D1*
X10332120Y6198863D1*
X10327257Y6183897D1*
X10320110Y6169877D1*
X10310860Y6157143D1*
X10239520Y6085363D1*
X10144647Y5990930D1*
X10131913Y5981680D1*
X10117893Y5974533D1*
X10102927Y5969670D1*
X10087383Y5967210D1*
X9986180Y5966900D1*
X8827627D1*
X8832373Y5956943D1*
X8838100Y5939320D1*
X8841000Y5921020D1*
Y5902487D1*
X8838100Y5884187D1*
X8832373Y5866563D1*
X8823960Y5850050D1*
X8813070Y5835060D1*
X8799967Y5821957D1*
X8784977Y5811067D1*
X8768463Y5802653D1*
X8750167Y5796793D1*
X8284267Y5331353D1*
X8271533Y5322103D1*
X8257513Y5314957D1*
X8242547Y5310093D1*
X8227003Y5307633D1*
X8125800Y5307323D1*
X6887883Y5307633D1*
X6872340Y5310093D1*
X6857373Y5314957D1*
X6843353Y5322103D1*
X6830620Y5331353D1*
X6758840Y5402693D1*
X6611537Y5550437D1*
X6602287Y5563170D1*
X6595140Y5577190D1*
X6590277Y5592157D1*
X6587817Y5607700D1*
X6587507Y5708903D1*
X6587110Y5742920D1*
X6578697Y5759433D1*
X6572970Y5777057D1*
X6570070Y5795357D1*
Y5813890D1*
X6572970Y5832190D1*
X6578697Y5849813D1*
X6587110Y5866327D1*
X6598000Y5881317D1*
X6611103Y5894420D1*
X6626093Y5905310D1*
X6637967Y5911587D1*
X6619537Y5929480D1*
X6601913Y5935207D1*
X6585400Y5943620D1*
X6570410Y5954510D1*
X6557307Y5967613D1*
X6546417Y5982603D1*
X6538003Y5999117D1*
X6532277Y6016740D1*
X6529377Y6035040D1*
Y6053573D1*
X6532277Y6071873D1*
X6533053Y6074627D1*
X6491190Y6032763D1*
X6504150Y6017733D1*
X6513833Y6001937D1*
X6520923Y5984817D1*
X6525250Y5966797D1*
X6526703Y5948323D1*
X6525250Y5929850D1*
X6520923Y5911830D1*
X6513833Y5894710D1*
X6508920Y5886050D1*
X6507670Y5868267D1*
X6503993Y5852967D1*
X6497973Y5838427D1*
X6489750Y5825007D1*
X6479507Y5813020D1*
X6175777Y5509290D1*
X6175733Y5101530D1*
X6187627Y5102210D1*
X6206100Y5100757D1*
X6224120Y5096430D1*
X6241240Y5089340D1*
X6249900Y5084427D1*
X8192903Y5084807D1*
X8209417Y5093220D1*
X8227040Y5098947D1*
X8245340Y5101847D1*
X8263873D1*
X8282173Y5098947D1*
X8299797Y5093220D1*
X8316310Y5084807D1*
X8331300Y5073917D1*
X8344403Y5060813D1*
X8355293Y5045823D1*
X8363707Y5029310D1*
X8369433Y5011687D1*
X8372333Y4993387D1*
Y4974853D1*
X8369433Y4956553D1*
X8363707Y4938930D1*
X8355293Y4922417D1*
X8344403Y4907427D1*
X8331300Y4894323D1*
X8316310Y4883433D1*
X8299797Y4875020D1*
X8282173Y4869293D1*
X8263873Y4866393D1*
X8245340D1*
X8227040Y4869293D1*
X8209417Y4875020D1*
X8192333Y4883813D1*
X7705270Y4883830D1*
X8147667Y4440917D1*
X8156917Y4428183D1*
X8164063Y4414163D1*
X8168927Y4399197D1*
X8171387Y4383653D1*
X8171697Y4345980D1*
X8178103Y4339537D1*
X8178117Y4385430D1*
X8352143Y4385623D1*
X8357870Y4403247D1*
X8366283Y4419760D1*
X8377173Y4434750D1*
X8390277Y4447853D1*
X8405267Y4458743D1*
X8421780Y4467157D1*
X8439403Y4472883D1*
X8457703Y4475783D1*
X8476237D1*
X8494537Y4472883D1*
X8512160Y4467157D1*
X8528673Y4458743D1*
X8543663Y4447853D1*
X8556767Y4434750D1*
X8567657Y4419760D1*
X8576070Y4403247D1*
X8581930Y4384950D1*
X9101887Y3864973D1*
X10118767Y3864687D1*
X10134310Y3862227D1*
X10149277Y3857363D1*
X10163297Y3850217D1*
X10176030Y3840967D1*
X10242223Y3775213D1*
X10252443Y3763247D1*
X10260667Y3749827D1*
X10266690Y3735287D1*
X10270363Y3719987D1*
X10271597Y3704267D1*
X10275457Y3684407D1*
X10290467Y3666830D1*
X10298240Y3654810D1*
X10306147Y3666830D1*
X10321157Y3684407D1*
X10325037Y3687993D1*
X10325327Y3843030D1*
X10327787Y3858573D1*
X10332650Y3873540D1*
X10339797Y3887560D1*
X10349047Y3900293D1*
X10420387Y3972073D1*
X10795060Y4346307D1*
X10807793Y4355557D1*
X10821813Y4362703D1*
X10836780Y4367567D1*
X10852323Y4370027D1*
X10953527Y4370337D1*
X12737160D1*
X15078723Y6711430D1*
X15091457Y6720680D1*
X15105477Y6727827D1*
X15120443Y6732690D1*
X15135987Y6735150D1*
X15237190Y6735460D1*
X15534963D1*
X15545000Y6746390D1*
X15563767Y6762420D1*
X15584813Y6775317D1*
X15607613Y6784763D1*
X15631613Y6790523D1*
X15656267Y6792457D1*
X15848560Y6791977D1*
X15870240Y6788650D1*
X15865180Y10546940D1*
X15851363Y10539213D1*
X15834813Y10531583D1*
X15817717Y10525277D1*
X15800180Y10520330D1*
X15782307Y10516773D1*
X15764210Y10514633D1*
X15746000Y10513917D1*
X15727790Y10514633D1*
X15709693Y10516773D1*
X15691820Y10520330D1*
X15674283Y10525277D1*
X15657187Y10531583D1*
X15640637Y10539213D1*
X15624737Y10548117D1*
X15609583Y10558240D1*
X15595273Y10569523D1*
X15581893Y10581893D1*
X15569523Y10595273D1*
X15558240Y10609583D1*
X15548117Y10624737D1*
X15539213Y10640637D1*
X15531583Y10657187D1*
X15525277Y10674283D1*
X15520330Y10691820D1*
X15516773Y10709693D1*
X15514633Y10727790D1*
X15513917Y10746000D1*
X15514633Y10764210D1*
X15516773Y10782307D1*
X15520330Y10800180D1*
X15525277Y10817717D1*
X15531583Y10834813D1*
X15539213Y10851363D1*
X15554167Y10876320D1*
X11003280Y10876307D1*
X11008913Y10861617D1*
X11015040Y10836090D1*
X11017100Y10809920D1*
X11015040Y10783750D1*
X11008913Y10758223D1*
X10998867Y10733973D1*
X10985150Y10711590D1*
X10968103Y10691627D1*
X10948140Y10674580D1*
X10925757Y10660863D1*
X10901507Y10650817D1*
X10875980Y10644690D1*
X10849810Y10642630D1*
X10823640Y10644690D1*
X10798113Y10650817D1*
X10773863Y10660863D1*
X10751480Y10674580D1*
X10731517Y10691627D1*
X10716027Y10709613D1*
X10640083Y10709630D1*
X10233997Y10303517D1*
X10237613Y10276863D1*
X10238343Y10258243D1*
X10237613Y10239627D1*
X10235423Y10221123D1*
X10231787Y10202850D1*
X10226730Y10184917D1*
X10220280Y10167437D1*
X10212480Y10150517D1*
X10203377Y10134260D1*
X10193023Y10118770D1*
X10181490Y10104137D1*
X10168843Y10090453D1*
X10155160Y10077807D1*
X10140530Y10066273D1*
X10125037Y10055920D1*
X10108780Y10046817D1*
X10091860Y10039017D1*
X10074380Y10032567D1*
X10056447Y10027510D1*
X10038173Y10023877D1*
X10019670Y10021687D1*
X10001053Y10020953D1*
X9982437Y10021687D1*
X9963933Y10023877D1*
X9945660Y10027510D1*
X9927727Y10032567D1*
X9910247Y10039017D1*
X9893327Y10046817D1*
X9877070Y10055920D1*
X9861577Y10066273D1*
X9846947Y10077807D1*
X9833263Y10090453D1*
X9820617Y10104137D1*
X9809083Y10118770D1*
X9798730Y10134260D1*
X9789627Y10150517D1*
X9781827Y10167437D1*
X9775377Y10184917D1*
X9770320Y10202850D1*
X9766683Y10221123D1*
X9764493Y10239627D1*
X9763763Y10258243D1*
X9764493Y10276863D1*
X9766683Y10295363D1*
X9770320Y10313640D1*
X9775377Y10331570D1*
X9781827Y10349050D1*
X9789627Y10365970D1*
X9798730Y10382227D1*
X9809083Y10397720D1*
X9820617Y10412353D1*
X9833263Y10426033D1*
X9846947Y10438680D1*
X9861577Y10450217D1*
X9877070Y10460567D1*
X9893327Y10469670D1*
X9910247Y10477470D1*
X9927727Y10483920D1*
X9945660Y10488977D1*
X9963933Y10492613D1*
X9982437Y10494803D1*
X10001053Y10495533D1*
X10019670Y10494803D1*
X10038173Y10492613D1*
X10056447Y10488977D1*
X10074380Y10483920D1*
X10091860Y10477470D1*
X10113670Y10466933D1*
X10523140Y10876327D1*
X7818237Y10876307D1*
X7817737Y10058213D1*
X7816280Y10050893D1*
X7813150Y10044117D1*
X7808527Y10038257D1*
X7802663Y10033637D1*
X7795887Y10030517D1*
X7788563Y10029063D1*
X6346977Y10024290D1*
X6308970Y10024383D1*
X6323653Y10006840D1*
X6337370Y9984457D1*
X6347417Y9960207D1*
X6353543Y9934680D1*
X6355603Y9908510D1*
X6353840Y9884837D1*
X6390347Y9847870D1*
X6399597Y9835137D1*
X6406743Y9821117D1*
X6411607Y9806150D1*
X6414067Y9790607D1*
X6414377Y9761137D1*
X6471377Y9761180D1*
Y9446600D1*
X6414410D1*
X6414383Y9250877D1*
X6461383Y9250823D1*
Y8956243D1*
X6419730D1*
X6433253Y8940107D1*
X6445330Y8920400D1*
X6454173Y8899050D1*
X6459570Y8876573D1*
X6461383Y8853533D1*
X6459570Y8830493D1*
X6454173Y8808017D1*
X6445330Y8786667D1*
X6433253Y8766960D1*
X6418243Y8749383D1*
X6414363Y8745797D1*
X6414383Y8679537D1*
X6532920Y8561013D1*
X6883720Y8561467D1*
X6900233Y8569880D1*
X6917857Y8575607D1*
X6936157Y8578507D1*
X6954690D1*
X6972990Y8575607D1*
X6990613Y8569880D1*
X7007697Y8561087D1*
X7462123Y8560760D1*
X7477667Y8558300D1*
X7492633Y8553437D1*
X7506653Y8546290D1*
X7519387Y8537040D1*
X7591167Y8465700D1*
X7689840Y8367027D1*
X7705793Y8362847D1*
X7727143Y8354003D1*
X7746850Y8341927D1*
X7764427Y8326917D1*
X7779437Y8309340D1*
X7787210Y8297320D1*
X7795117Y8309340D1*
X7810127Y8326917D1*
X7827703Y8341927D1*
X7847410Y8354003D1*
X7868760Y8362847D1*
X7891237Y8368243D1*
X7914277Y8370057D1*
X7937317Y8368243D1*
X7959793Y8362847D1*
X7981143Y8354003D1*
X8000850Y8341927D1*
X8018427Y8326917D1*
X8033437Y8309340D1*
X8045513Y8289633D1*
X8054357Y8268283D1*
X8059753Y8245807D1*
X8061567Y8222767D1*
X8061113Y8051210D1*
X8057497Y8028383D1*
X8054690Y8018427D1*
X9592410Y8018437D1*
X9604770Y8028397D1*
X9625817Y8041293D1*
X9648617Y8050740D1*
X9672617Y8056500D1*
X9697223Y8058437D1*
X9721830Y8056500D1*
X9745830Y8050740D1*
X9768630Y8041293D1*
X9789677Y8028397D1*
X9801890Y8018427D1*
X9840050Y8018437D1*
X9835003Y8039727D1*
X9833193Y8062813D1*
X9833643Y8234323D1*
X9837260Y8257150D1*
X9844403Y8279133D1*
X9854893Y8299727D1*
X9868480Y8318423D1*
X9884823Y8334767D1*
X9903520Y8348353D1*
X9924113Y8358843D1*
X9946097Y8365987D1*
X9968923Y8369603D1*
X9992037D1*
X10014863Y8365987D1*
X10036847Y8358843D1*
X10057440Y8348353D1*
X10076137Y8334767D1*
X10092480Y8318423D1*
X10106067Y8299727D1*
X10107413Y8297320D1*
X10115320Y8309340D1*
X10130330Y8326917D1*
X10147907Y8341927D1*
X10167613Y8354003D1*
X10188963Y8362847D1*
X10211440Y8368243D1*
X10234480Y8370057D1*
X10257520Y8368243D1*
X10279997Y8362847D1*
X10301347Y8354003D1*
X10321053Y8341927D1*
X10338630Y8326917D1*
X10353640Y8309340D1*
X10361413Y8297320D1*
X10371920Y8312640D1*
X10360917Y8324300D1*
X10345487Y8345537D1*
X10333567Y8368927D1*
X10325457Y8393893D1*
X10321350Y8419820D1*
Y8446073D1*
X10322730Y8457740D1*
X10248670Y8531757D1*
X10233917Y8531053D1*
X10209310Y8532990D1*
X10185310Y8538750D1*
X10162510Y8548197D1*
X10141463Y8561093D1*
X10122697Y8577123D1*
X10106667Y8595890D1*
X10093770Y8616937D1*
X10084323Y8639737D1*
X10078563Y8663737D1*
X10076627Y8688343D1*
X10078563Y8712950D1*
X10084323Y8736950D1*
X10093770Y8759750D1*
X10106667Y8780797D1*
X10122697Y8799563D1*
X10141463Y8815593D1*
X10162510Y8828490D1*
X10185310Y8837937D1*
X10209310Y8843697D1*
X10233917Y8845633D1*
X10258523Y8843697D1*
X10282523Y8837937D1*
X10305323Y8828490D1*
X10326370Y8815593D1*
X10345137Y8799563D1*
X10361167Y8780797D1*
X10374063Y8759750D1*
X10383510Y8736950D1*
X10389270Y8712950D1*
X10391207Y8688343D1*
X10390443Y8673653D1*
X10465377Y8598713D1*
X10488123Y8600237D1*
X10514293Y8598177D1*
X10539820Y8592050D1*
X10564070Y8582003D1*
X10586453Y8568287D1*
X10606417Y8551240D1*
X10623463Y8531277D1*
X10637180Y8508893D1*
X10647227Y8484643D1*
X10653353Y8459117D1*
X10655413Y8432947D1*
X10653353Y8406777D1*
X10647227Y8381250D1*
X10637180Y8357000D1*
X10623463Y8334617D1*
X10606417Y8314653D1*
X10604797Y8313157D1*
X10615413Y8297320D1*
X10623320Y8309340D1*
X10638330Y8326917D1*
X10655907Y8341927D1*
X10675613Y8354003D1*
X10696963Y8362847D1*
X10719440Y8368243D1*
X10742480Y8370057D1*
X10765520Y8368243D1*
X10787997Y8362847D1*
X10809347Y8354003D1*
X10829053Y8341927D1*
X10846630Y8326917D1*
X10861640Y8309340D1*
X10873717Y8289633D1*
X10882560Y8268283D1*
X10887957Y8245807D1*
X10889770Y8222767D1*
X10889317Y8051210D1*
X10885700Y8028383D1*
X10882893Y8018427D1*
X12408880Y8018437D1*
X12421250Y8028397D1*
X12442297Y8041293D1*
X12465097Y8050740D1*
X12489097Y8056500D1*
X12513703Y8058437D1*
X12538310Y8056500D1*
X12562310Y8050740D1*
X12585110Y8041293D1*
X12606157Y8028397D1*
X12619363Y8017510D1*
X12680250Y8017503D1*
X12674990Y8039727D1*
X12673180Y8062813D1*
X12673630Y8234323D1*
X12677247Y8257150D1*
X12684390Y8279133D1*
X12694880Y8299727D1*
X12708467Y8318423D1*
X12720197Y8330503D1*
X12720177Y8353223D1*
X12519370Y8353147D1*
Y8647727D1*
X12565217D1*
X12554660Y8658780D1*
X12541073Y8677477D1*
X12530583Y8698070D1*
X12523440Y8720053D1*
X12519823Y8742880D1*
Y8765993D1*
X12523440Y8788820D1*
X12530583Y8810803D1*
X12541073Y8831397D1*
X12554660Y8850093D1*
X12571003Y8866437D1*
X12589700Y8880023D1*
X12592107Y8881370D1*
X12580087Y8889277D1*
X12562510Y8904287D1*
X12547500Y8921863D1*
X12535423Y8941570D1*
X12526580Y8962920D1*
X12521183Y8985397D1*
X12519370Y9008437D1*
X12521183Y9031477D1*
X12526580Y9053953D1*
X12535423Y9075303D1*
X12547500Y9095010D1*
X12562510Y9112587D1*
X12580087Y9127597D1*
X12592107Y9135370D1*
X12580087Y9143277D1*
X12562510Y9158287D1*
X12547500Y9175863D1*
X12535423Y9195570D1*
X12526580Y9216920D1*
X12521183Y9239397D1*
X12519370Y9262437D1*
X12521183Y9285477D1*
X12526580Y9307953D1*
X12535423Y9329303D1*
X12547500Y9349010D1*
X12562510Y9366587D1*
X12580087Y9381597D1*
X12599793Y9393673D1*
X12621143Y9402517D1*
X12643620Y9407913D1*
X12666707Y9409723D1*
X12838217Y9409273D1*
X12861043Y9405657D1*
X12883027Y9398513D1*
X12903620Y9388023D1*
X12922317Y9374437D1*
X12938660Y9358093D1*
X12952247Y9339397D1*
X12962737Y9318803D1*
X12969880Y9296820D1*
X12973497Y9273993D1*
Y9250880D1*
X12969880Y9228053D1*
X12962737Y9206070D1*
X12952247Y9185477D1*
X12938660Y9166780D1*
X12922317Y9150437D1*
X12903620Y9136850D1*
X12901213Y9135503D1*
X12913233Y9127597D1*
X12930810Y9112587D1*
X12934397Y9108707D1*
X13628943Y9108417D1*
X13644487Y9105957D1*
X13659453Y9101093D1*
X13673473Y9093947D1*
X13686207Y9084697D1*
X13757987Y9013357D1*
X13823687Y8947217D1*
X13832937Y8934483D1*
X13840083Y8920463D1*
X13844947Y8905497D1*
X13847407Y8889953D1*
X13847717Y8788750D1*
X13847407Y8663367D1*
X13844947Y8647823D1*
X13840083Y8632857D1*
X13832937Y8618837D1*
X13823687Y8606103D1*
X13739133Y8521113D1*
X13739823Y8506343D1*
X13737887Y8481737D1*
X13732127Y8457737D1*
X13722680Y8434937D1*
X13709783Y8413890D1*
X13693753Y8395123D1*
X13682753Y8385217D1*
Y8330637D1*
X13694463Y8318423D1*
X13708050Y8299727D1*
X13709397Y8297320D1*
X13717307Y8309340D1*
X13732317Y8326917D1*
X13749893Y8341927D1*
X13769600Y8354003D1*
X13790950Y8362847D1*
X13813427Y8368243D1*
X13836467Y8370057D1*
X13859507Y8368243D1*
X13881983Y8362847D1*
X13903333Y8354003D1*
X13923040Y8341927D1*
X13940617Y8326917D1*
X13955627Y8309340D1*
X13967703Y8289633D1*
X13976547Y8268283D1*
X13981943Y8245807D1*
X13983757Y8222767D1*
X13983303Y8051210D1*
X13979687Y8028383D1*
X13976610Y8017470D1*
X14204390Y8017503D1*
X14198987Y8039727D1*
X14197173Y8062767D1*
Y8222767D1*
X14198987Y8245807D1*
X14204383Y8268283D1*
X14213227Y8289633D1*
X14225303Y8309340D1*
X14240313Y8326917D1*
X14257890Y8341927D1*
X14277597Y8354003D1*
X14298947Y8362847D1*
X14321423Y8368243D1*
X14344463Y8370057D1*
X14367503Y8368243D1*
X14389980Y8362847D1*
X14411330Y8354003D1*
X14431037Y8341927D1*
X14448613Y8326917D1*
X14463623Y8309340D1*
X14471397Y8297320D1*
X14479307Y8309340D1*
X14494317Y8326917D1*
X14498197Y8330503D1*
X14498177Y8505800D1*
X14479703Y8521727D1*
X14462657Y8541690D1*
X14448940Y8564073D1*
X14438893Y8588323D1*
X14432767Y8613850D1*
X14430707Y8640020D1*
X14432767Y8666190D1*
X14438893Y8691717D1*
X14448940Y8715967D1*
X14462657Y8738350D1*
X14479703Y8758313D1*
X14499667Y8775360D1*
X14522050Y8789077D1*
X14546300Y8799123D1*
X14571827Y8805250D1*
X14597997Y8807310D1*
X14624167Y8805250D1*
X14649693Y8799123D1*
X14673943Y8789077D1*
X14696327Y8775360D1*
X14716290Y8758313D1*
X14733337Y8738350D1*
X14747053Y8715967D1*
X14752187Y8704830D1*
X14752177Y8771583D1*
X14741757Y8781017D1*
X14725727Y8799783D1*
X14712830Y8820830D1*
X14703383Y8843630D1*
X14697623Y8867630D1*
X14695687Y8892237D1*
X14697623Y8916843D1*
X14703383Y8940843D1*
X14712830Y8963643D1*
X14725727Y8984690D1*
X14741757Y9003457D1*
X14760523Y9019487D1*
X14781570Y9032383D1*
X14804370Y9041830D1*
X14828370Y9047590D1*
X14852977Y9049527D1*
X14877583Y9047590D1*
X14901583Y9041830D1*
X14924383Y9032383D1*
X14945430Y9019487D1*
X14964197Y9003457D1*
X14979780Y8985257D1*
X14995460Y9003527D1*
X15014227Y9019557D1*
X15035273Y9032453D1*
X15058073Y9041900D1*
X15082073Y9047660D1*
X15106680Y9049597D1*
X15131287Y9047660D1*
X15155287Y9041900D1*
X15178087Y9032453D1*
X15199133Y9019557D1*
X15217900Y9003527D1*
X15233930Y8984760D1*
X15246827Y8963713D1*
X15256273Y8940913D1*
X15262033Y8916913D1*
X15263970Y8892307D1*
X15262033Y8867700D1*
X15256273Y8843700D1*
X15246827Y8820900D1*
X15233930Y8799853D1*
X15217900Y8781087D1*
X15206747Y8771060D1*
X15206753Y8330723D1*
X15218463Y8318423D1*
X15232050Y8299727D1*
X15242540Y8279133D1*
X15249683Y8257150D1*
X15253300Y8234323D1*
X15253753Y8176100D1*
X15253300Y8051210D1*
X15249683Y8028383D1*
X15242540Y8006400D1*
X15232050Y7985807D1*
X15218463Y7967110D1*
X15202120Y7950767D1*
X15183423Y7937180D1*
X15162830Y7926690D1*
X15140847Y7919547D1*
X15118020Y7915930D1*
X15094907D1*
X15072080Y7919547D1*
X15050097Y7926690D1*
X15029503Y7937180D1*
X15010807Y7950767D1*
X14994463Y7967110D1*
X14980877Y7985807D1*
X14979530Y7988213D1*
X14971627Y7976193D1*
X14956617Y7958617D1*
X14939040Y7943607D1*
X14919333Y7931530D1*
X14897983Y7922687D1*
X14875507Y7917290D1*
X14852467Y7915477D1*
X14829427Y7917290D1*
X14806950Y7922687D1*
X14785600Y7931530D1*
X14765893Y7943607D1*
X14748317Y7958617D1*
X14733307Y7976193D1*
X14725533Y7988213D1*
X14717627Y7976193D1*
X14702617Y7958617D1*
X14685040Y7943607D1*
X14665333Y7931530D1*
X14643983Y7922687D1*
X14621507Y7917290D1*
X14598467Y7915477D1*
X14575427Y7917290D1*
X14552950Y7922687D1*
X14531600Y7931530D1*
X14511893Y7943607D1*
X14494317Y7958617D1*
X14479307Y7976193D1*
X14471533Y7988213D1*
X14461750Y7973813D1*
X14460310Y7953950D1*
X14456013Y7936053D1*
X14448970Y7919047D1*
X14439353Y7903357D1*
X14427373Y7889337D1*
X14348553Y7811027D1*
X14333663Y7800207D1*
X14317267Y7791850D1*
X14299760Y7786163D1*
X14281583Y7783283D1*
X14202380Y7782923D1*
X12617447D1*
X12606157Y7773897D1*
X12585110Y7761000D1*
X12562310Y7751553D1*
X12538310Y7745793D1*
X12513703Y7743857D1*
X12489097Y7745793D1*
X12465097Y7751553D1*
X12442297Y7761000D1*
X12421250Y7773897D1*
X12409037Y7783867D1*
X9802107Y7783857D1*
X9789677Y7773897D1*
X9768630Y7761000D1*
X9745830Y7751553D1*
X9721830Y7745793D1*
X9697223Y7743857D1*
X9672617Y7745793D1*
X9648617Y7751553D1*
X9625817Y7761000D1*
X9604770Y7773897D1*
X9592557Y7783867D1*
X7237930Y7783857D1*
X7225537Y7773897D1*
X7204490Y7761000D1*
X7181690Y7751553D1*
X7157690Y7745793D1*
X7133083Y7743857D1*
X7108477Y7745793D1*
X7084477Y7751553D1*
X7061677Y7761000D1*
X7040630Y7773897D1*
X7028417Y7783867D1*
X5056327Y7783857D1*
X5056367Y7549780D1*
X5066010Y7535320D1*
X5073917Y7547340D1*
X5088927Y7564917D1*
X5106503Y7579927D1*
X5126210Y7592003D1*
X5147560Y7600847D1*
X5170037Y7606243D1*
X5193077Y7608057D1*
X5216117Y7606243D1*
X5238593Y7600847D1*
X5259943Y7592003D1*
X5279650Y7579927D1*
X5297227Y7564917D1*
X5312237Y7547340D1*
X5320010Y7535320D1*
X5327917Y7547340D1*
X5342927Y7564917D1*
X5360503Y7579927D1*
X5380210Y7592003D1*
X5401560Y7600847D1*
X5424037Y7606243D1*
X5447077Y7608057D1*
X5470117Y7606243D1*
X5492593Y7600847D1*
X5513943Y7592003D1*
X5533650Y7579927D1*
X5551227Y7564917D1*
X5566237Y7547340D1*
X5574010Y7535320D1*
X5581917Y7547340D1*
X5596927Y7564917D1*
X5614503Y7579927D1*
X5634210Y7592003D1*
X5655560Y7600847D1*
X5678037Y7606243D1*
X5701077Y7608057D1*
X5724117Y7606243D1*
X5746593Y7600847D1*
X5767943Y7592003D1*
X5787650Y7579927D1*
X5805227Y7564917D1*
X5820237Y7547340D1*
X5828010Y7535320D1*
X5835917Y7547340D1*
X5850927Y7564917D1*
X5868503Y7579927D1*
X5888210Y7592003D1*
X5909560Y7600847D1*
X5932037Y7606243D1*
X5955077Y7608057D1*
X5978117Y7606243D1*
X6000593Y7600847D1*
X6021943Y7592003D1*
X6041650Y7579927D1*
X6059227Y7564917D1*
X6074237Y7547340D1*
X6086313Y7527633D1*
X6095157Y7506283D1*
X6100553Y7483807D1*
X6102367Y7460767D1*
X6101913Y7289210D1*
X6098297Y7266383D1*
X6091153Y7244400D1*
X6080663Y7223807D1*
X6067077Y7205110D1*
X6050733Y7188767D1*
X6032037Y7175180D1*
X6027660Y7172730D1*
X6235750Y7172750D1*
Y7252457D1*
X6217747Y7268080D1*
X6200700Y7288043D1*
X6186983Y7310427D1*
X6176937Y7334677D1*
X6170810Y7360203D1*
X6168750Y7386373D1*
X6170810Y7412543D1*
X6176937Y7438070D1*
X6186983Y7462320D1*
X6200700Y7484703D1*
X6217747Y7504667D1*
X6237710Y7521713D1*
X6260093Y7535430D1*
X6284343Y7545477D1*
X6309870Y7551603D1*
X6336040Y7553663D1*
X6359713Y7551900D1*
X6473150Y7664877D1*
X6485883Y7674127D1*
X6499903Y7681273D1*
X6514870Y7686137D1*
X6530413Y7688597D1*
X6631617Y7688907D1*
X6818857Y7688597D1*
X6834400Y7686137D1*
X6849367Y7681273D1*
X6863387Y7674127D1*
X6876120Y7664877D1*
X6947900Y7593537D1*
X6985233Y7555763D1*
X6994483Y7543030D1*
X7001630Y7529010D1*
X7006493Y7514043D1*
X7008953Y7498500D1*
X7009263Y7397297D1*
X7009660Y7349363D1*
X7018073Y7332850D1*
X7023800Y7315227D1*
X7026700Y7296927D1*
Y7278393D1*
X7023800Y7260093D1*
X7018073Y7242470D1*
X7009660Y7225957D1*
X6998770Y7210967D1*
X6985667Y7197863D1*
X6970677Y7186973D1*
X6954163Y7178560D1*
X6936540Y7172833D1*
X6918240Y7169933D1*
X6899707D1*
X6881407Y7172833D1*
X6863783Y7178560D1*
X6847270Y7186973D1*
X6832280Y7197863D1*
X6819177Y7210967D1*
X6808287Y7225957D1*
X6799873Y7242470D1*
X6794147Y7260093D1*
X6791247Y7278393D1*
Y7296927D1*
X6794147Y7315227D1*
X6799873Y7332850D1*
X6808667Y7349933D1*
X6808683Y7449080D1*
X6769420Y7488353D1*
X6722120Y7488327D1*
X6732997Y7472653D1*
X6744917Y7449263D1*
X6753027Y7424297D1*
X6757133Y7398370D1*
Y7372117D1*
X6753027Y7346190D1*
X6744917Y7321223D1*
X6732997Y7297833D1*
X6717567Y7276597D1*
X6699007Y7258037D1*
X6690503Y7251333D1*
X6690520Y7169553D1*
X6708523Y7153927D1*
X6725570Y7133963D1*
X6739287Y7111580D1*
X6749333Y7087330D1*
X6755460Y7061803D1*
X6757520Y7035633D1*
X6755460Y7009463D1*
X6749333Y6983937D1*
X6739287Y6959687D1*
X6725570Y6937303D1*
X6708523Y6917340D1*
X6688560Y6900293D1*
X6666177Y6886577D1*
X6641927Y6876530D1*
X6626413Y6872393D1*
X6744463Y6872403D1*
X6950023Y7077517D1*
X6964913Y7088337D1*
X6981310Y7096693D1*
X6998817Y7102380D1*
X7016993Y7105260D1*
X7096197Y7105620D1*
X7205037Y7105260D1*
X7223213Y7102380D1*
X7232113Y7099867D1*
X7241337Y7101863D1*
X7253257Y7125253D1*
X7268687Y7146490D1*
X7275130Y7153460D1*
X7258987Y7153477D1*
Y7608057D1*
X7553567D1*
Y7562210D1*
X7564620Y7572767D1*
X7583317Y7586353D1*
X7603910Y7596843D1*
X7625893Y7603987D1*
X7648720Y7607603D1*
X7671833D1*
X7694660Y7603987D1*
X7716643Y7596843D1*
X7737237Y7586353D1*
X7755933Y7572767D1*
X7772277Y7556423D1*
X7785863Y7537727D1*
X7796353Y7517133D1*
X7803497Y7495150D1*
X7807113Y7472323D1*
X7807567Y7414100D1*
X7807113Y7289210D1*
X7803497Y7266383D1*
X7796353Y7244400D1*
X7785863Y7223807D1*
X7772277Y7205110D1*
X7761307Y7193360D1*
Y7171760D1*
X7779310Y7156137D1*
X7796357Y7136173D1*
X7810073Y7113790D1*
X7820120Y7089540D1*
X7826247Y7064013D1*
X7828307Y7037843D1*
X7826247Y7011673D1*
X7820120Y6986147D1*
X7810073Y6961897D1*
X7796357Y6939513D1*
X7779310Y6919550D1*
X7759347Y6902503D1*
X7736963Y6888787D1*
X7712713Y6878740D1*
X7687187Y6872613D1*
X7849050Y6872403D1*
X8039453D1*
X8051133Y6887113D1*
X8051123Y7211470D1*
X8042690Y7223807D1*
X8032200Y7244400D1*
X8025057Y7266383D1*
X8021440Y7289210D1*
X8020987Y7347433D1*
Y7460767D1*
X8022800Y7483807D1*
X8028197Y7506283D1*
X8037040Y7527633D1*
X8049117Y7547340D1*
X8064127Y7564917D1*
X8081703Y7579927D1*
X8101410Y7592003D1*
X8122760Y7600847D1*
X8145237Y7606243D1*
X8168277Y7608057D1*
X8191317Y7606243D1*
X8213793Y7600847D1*
X8235143Y7592003D1*
X8254850Y7579927D1*
X8272427Y7564917D1*
X8287437Y7547340D1*
X8299513Y7527633D1*
X8308357Y7506283D1*
X8313753Y7483807D1*
X8315567Y7460767D1*
Y7300767D1*
X8313753Y7277727D1*
X8308357Y7255250D1*
X8299513Y7233900D1*
X8287437Y7214193D1*
X8285730Y7212027D1*
X8285703Y7134080D1*
X8295270Y7146483D1*
X8313830Y7165043D1*
X8335067Y7180473D1*
X8358457Y7192393D1*
X8383423Y7200503D1*
X8409350Y7204610D1*
X8435603D1*
X8461530Y7200503D1*
X8486497Y7192393D1*
X8509887Y7180473D1*
X8531123Y7165043D1*
X8549683Y7146483D1*
X8565113Y7125247D1*
X8577033Y7101857D1*
X8585143Y7076890D1*
X8589250Y7050963D1*
Y7024710D1*
X8585143Y6998783D1*
X8577033Y6973817D1*
X8565113Y6950427D1*
X8549683Y6929190D1*
X8531123Y6910630D1*
X8509887Y6895200D1*
X8486497Y6883280D1*
X8461530Y6875170D1*
X8435603Y6871063D1*
X8409350D1*
X8383423Y6875170D1*
X8358457Y6883280D1*
X8335067Y6895200D1*
X8313830Y6910630D1*
X8295270Y6929190D1*
X8285683Y6941683D1*
X8285703Y6887257D1*
X8295663Y6874900D1*
X8308560Y6853853D1*
X8318007Y6831053D1*
X8323767Y6807053D1*
X8325703Y6782447D1*
X8323767Y6757840D1*
X8318007Y6733840D1*
X8308560Y6711040D1*
X8295663Y6689993D1*
X8279633Y6671227D1*
X8260867Y6655197D1*
X8239820Y6642300D1*
X8217020Y6632853D1*
X8193020Y6627093D1*
X8168413Y6625157D1*
X8143807Y6627093D1*
X8119807Y6632853D1*
X8106687Y6637837D1*
X7419847Y6638183D1*
X7401670Y6641063D1*
X7384163Y6646750D1*
X7367767Y6655107D1*
X7352877Y6665927D1*
X7292943Y6725347D1*
X7286587Y6711390D1*
X7273690Y6690343D1*
X7257660Y6671577D1*
X7239233Y6655817D1*
X7257660Y6640017D1*
X7273690Y6621250D1*
X7286587Y6600203D1*
X7296033Y6577403D1*
X7301793Y6553403D1*
X7303730Y6528797D1*
X7303247Y6516457D1*
X6190137Y9250823D2*
X6213743D1*
X6213803Y9446517D1*
X6156797Y9446600D1*
Y9744190D1*
X6136617Y9749407D1*
X6112367Y9759453D1*
X6089983Y9773170D1*
X6070020Y9790217D1*
X6052973Y9810180D1*
X6039257Y9832563D1*
X6029210Y9856813D1*
X6023083Y9882340D1*
X6021023Y9908510D1*
X6023083Y9934680D1*
X6029210Y9960207D1*
X6039257Y9984457D1*
X6052973Y10006840D1*
X6068313Y10024957D1*
X5545170Y10026303D1*
X5561653Y10006840D1*
X5575370Y9984457D1*
X5585417Y9960207D1*
X5591543Y9934680D1*
X5593603Y9908510D1*
X5591543Y9882340D1*
X5585417Y9856813D1*
X5575370Y9832563D1*
X5561653Y9810180D1*
X5544607Y9790217D1*
X5524643Y9773170D1*
X5502260Y9759453D1*
X5478010Y9749407D1*
X5452483Y9743280D1*
X5426313Y9741220D1*
X5400143Y9743280D1*
X5374617Y9749407D1*
X5350367Y9759453D1*
X5327983Y9773170D1*
X5308020Y9790217D1*
X5290973Y9810180D1*
X5277257Y9832563D1*
X5267210Y9856813D1*
X5261083Y9882340D1*
X5259023Y9908510D1*
X5261083Y9934680D1*
X5267210Y9960207D1*
X5277257Y9984457D1*
X5290973Y10006840D1*
X5301577Y10019830D1*
X4737437Y9455163D1*
X4730930Y9451507D1*
X4723750Y9449470D1*
X4695450Y9449040D1*
X3847340Y9447833D1*
X3846320Y8005233D1*
X3864277Y8012697D1*
X3882173Y8016993D1*
X3900520Y8018437D1*
X3931967D1*
X3932317Y8335320D1*
X3935197Y8353497D1*
X3940883Y8371003D1*
X3949240Y8387400D1*
X3960060Y8402290D1*
X4024370Y8467113D1*
X4038367Y8479067D1*
X4054057Y8488683D1*
X4071063Y8495727D1*
X4088960Y8500023D1*
X4107343Y8501467D1*
X4175843Y8501660D1*
X4160413Y8522897D1*
X4148493Y8546287D1*
X4140383Y8571253D1*
X4136277Y8597180D1*
Y8623433D1*
X4140383Y8649360D1*
X4148493Y8674327D1*
X4160413Y8697717D1*
X4175843Y8718953D1*
X4194403Y8737513D1*
X4215640Y8752943D1*
X4239030Y8764863D1*
X4263997Y8772973D1*
X4289923Y8777080D1*
X4316177D1*
X4342103Y8772973D1*
X4367070Y8764863D1*
X4390460Y8752943D1*
X4411697Y8737513D1*
X4430257Y8718953D1*
X4445687Y8697717D1*
X4457607Y8674327D1*
X4465717Y8649360D1*
X4469823Y8623433D1*
Y8597180D1*
X4465717Y8571253D1*
X4464367Y8566463D1*
X4608430Y8710037D1*
X4623320Y8720857D1*
X4639720Y8729213D1*
X4648393Y8732410D1*
X4638417Y8741480D1*
X4631557Y8749507D1*
X4626040Y8758510D1*
X4622000Y8768267D1*
X4619537Y8778533D1*
X4618707Y8789060D1*
Y8835453D1*
X4604797Y8835763D1*
X4583517Y8839133D1*
X4563027Y8845790D1*
X4543833Y8855570D1*
X4526403Y8868233D1*
X4511170Y8883467D1*
X4498507Y8900897D1*
X4488727Y8920090D1*
X4482070Y8940580D1*
X4478700Y8961860D1*
Y8983400D1*
X4482070Y9004680D1*
X4488727Y9025170D1*
X4498507Y9044363D1*
X4511170Y9061793D1*
X4526403Y9077027D1*
X4543833Y9089690D1*
X4563027Y9099470D1*
X4583517Y9106127D1*
X4605593Y9109527D1*
X4609070Y9131680D1*
X4615727Y9152170D1*
X4625507Y9171363D1*
X4638170Y9188793D1*
X4653403Y9204027D1*
X4670833Y9216690D1*
X4690027Y9226470D1*
X4710517Y9233127D1*
X4731797Y9236497D1*
X4753337D1*
X4774617Y9233127D1*
X4795107Y9226470D1*
X4814300Y9216690D1*
X4831730Y9204027D1*
X4846963Y9188793D1*
X4859627Y9171363D1*
X4869407Y9152170D1*
X4876063Y9131680D1*
X4879433Y9110400D1*
X4879670Y9104383D1*
X5125280Y8858313D1*
X5134530Y8845583D1*
X5141677Y8831560D1*
X5146540Y8816593D1*
X5149000Y8801050D1*
X5149310Y8741500D1*
X5167977Y8725403D1*
X5185023Y8705440D1*
X5198740Y8683057D1*
X5208787Y8658807D1*
X5214913Y8633280D1*
X5216973Y8607110D1*
X5214913Y8580940D1*
X5208787Y8555413D1*
X5198740Y8531163D1*
X5185023Y8508780D1*
X5167977Y8488817D1*
X5148013Y8471770D1*
X5125630Y8458053D1*
X5101380Y8448007D1*
X5075853Y8441880D1*
X5049683Y8439820D1*
X5023513Y8441880D1*
X4997987Y8448007D1*
X4973737Y8458053D1*
X4951353Y8471770D1*
X4931390Y8488817D1*
X4918440Y8503580D1*
X4733247Y8503560D1*
X4545380Y8315753D1*
X4558010Y8297320D1*
X4565917Y8309340D1*
X4580927Y8326917D1*
X4598503Y8341927D1*
X4618210Y8354003D1*
X4639560Y8362847D1*
X4662037Y8368243D1*
X4685077Y8370057D1*
X4708117Y8368243D1*
X4730593Y8362847D1*
X4751943Y8354003D1*
X4771650Y8341927D1*
X4789227Y8326917D1*
X4804237Y8309340D1*
X4816313Y8289633D1*
X4825157Y8268283D1*
X4830553Y8245807D1*
X4832367Y8222767D1*
X4831913Y8051210D1*
X4828297Y8028383D1*
X4825490Y8018427D1*
X5052553Y8018437D1*
X5047600Y8039727D1*
X5045787Y8062767D1*
Y8222767D1*
X5047600Y8245807D1*
X5052997Y8268283D1*
X5061840Y8289633D1*
X5073917Y8309340D1*
X5088927Y8326917D1*
X5106503Y8341927D1*
X5126210Y8354003D1*
X5147560Y8362847D1*
X5170037Y8368243D1*
X5193077Y8370057D1*
X5216117Y8368243D1*
X5238593Y8362847D1*
X5259943Y8354003D1*
X5279650Y8341927D1*
X5297227Y8326917D1*
X5312237Y8309340D1*
X5320010Y8297320D1*
X5327917Y8309340D1*
X5336823Y8320313D1*
X5322000Y8335627D1*
X5306570Y8356863D1*
X5294650Y8380253D1*
X5286540Y8405220D1*
X5282433Y8431147D1*
Y8457400D1*
X5286540Y8483327D1*
X5294650Y8508293D1*
X5306570Y8531683D1*
X5322000Y8552920D1*
X5340560Y8571480D1*
X5361797Y8586910D1*
X5385187Y8598830D1*
X5410153Y8606940D1*
X5436080Y8611047D1*
X5462333D1*
X5488260Y8606940D1*
X5513227Y8598830D1*
X5536617Y8586910D1*
X5557853Y8571480D1*
X5576413Y8552920D1*
X5591843Y8531683D1*
X5603763Y8508293D1*
X5611873Y8483327D1*
X5615980Y8457400D1*
Y8431147D1*
X5611873Y8405220D1*
X5603763Y8380253D1*
X5591843Y8356863D1*
X5576413Y8335627D1*
X5559170Y8318283D1*
X5572663Y8299727D1*
X5574010Y8297320D1*
X5581917Y8309340D1*
X5596927Y8326917D1*
X5614503Y8341927D1*
X5634210Y8354003D1*
X5655560Y8362847D1*
X5678037Y8368243D1*
X5701077Y8370057D1*
X5724117Y8368243D1*
X5746593Y8362847D1*
X5767943Y8354003D1*
X5787650Y8341927D1*
X5805227Y8326917D1*
X5820237Y8309340D1*
X5828010Y8297320D1*
X5835917Y8309340D1*
X5850927Y8326917D1*
X5868503Y8341927D1*
X5888210Y8354003D1*
X5909560Y8362847D1*
X5932037Y8368243D1*
X5955077Y8370057D1*
X5978117Y8368243D1*
X6000593Y8362847D1*
X6021943Y8354003D1*
X6041650Y8341927D1*
X6059227Y8326917D1*
X6074237Y8309340D1*
X6086313Y8289633D1*
X6095157Y8268283D1*
X6100553Y8245807D1*
X6100877Y8243070D1*
X6198163Y8243057D1*
X6208833Y8257020D1*
X6227393Y8275580D1*
X6230577Y8278090D1*
X6211207Y8276983D1*
X6185037Y8279043D1*
X6159510Y8285170D1*
X6135260Y8295217D1*
X6112877Y8308933D1*
X6092913Y8325980D1*
X6075867Y8345943D1*
X6062150Y8368327D1*
X6052103Y8392577D1*
X6045977Y8418103D1*
X6043917Y8444273D1*
X6045977Y8470443D1*
X6052103Y8495970D1*
X6062150Y8520220D1*
X6075867Y8542603D1*
X6092913Y8562567D1*
X6112877Y8579613D1*
X6135260Y8593330D1*
X6159510Y8603377D1*
X6185037Y8609503D1*
X6211207Y8611563D1*
X6217410Y8611320D1*
X6214113Y8630140D1*
X6213803Y8745653D1*
X6202093Y8757877D1*
X6188507Y8776573D1*
X6178017Y8797167D1*
X6170873Y8819150D1*
X6167257Y8841977D1*
Y8865090D1*
X6170873Y8887917D1*
X6178017Y8909900D1*
X6188507Y8930493D1*
X6202093Y8949190D1*
X6208623Y8956257D1*
X6166803Y8956243D1*
Y9250823D1*
X6190137D1*
X5744973D2*
X5897640D1*
Y8956243D1*
X5603060D1*
Y9108913D1*
X5443227Y9268827D1*
X5438060Y9268777D1*
X5422397Y9250773D1*
X5402433Y9233727D1*
X5380050Y9220010D1*
X5355800Y9209963D1*
X5330273Y9203837D1*
X5304103Y9201777D1*
X5277933Y9203837D1*
X5252407Y9209963D1*
X5228157Y9220010D1*
X5205773Y9233727D1*
X5185810Y9250773D1*
X5176863Y9260460D1*
X5158330Y9241903D1*
X5137093Y9226473D1*
X5113703Y9214553D1*
X5088737Y9206443D1*
X5062810Y9202337D1*
X5036557D1*
X5010630Y9206443D1*
X4985663Y9214553D1*
X4962273Y9226473D1*
X4941037Y9241903D1*
X4922477Y9260463D1*
X4907047Y9281700D1*
X4895127Y9305090D1*
X4887017Y9330057D1*
X4882910Y9355983D1*
Y9382237D1*
X4887017Y9408163D1*
X4895127Y9433130D1*
X4907047Y9456520D1*
X4922477Y9477757D1*
X4941037Y9496317D1*
X4962273Y9511747D1*
X4985663Y9523667D1*
X5010630Y9531777D1*
X5036557Y9535883D1*
X5062810D1*
X5088737Y9531777D1*
X5113703Y9523667D1*
X5137093Y9511747D1*
X5158330Y9496317D1*
X5176923Y9477717D1*
X5192253Y9493313D1*
X5176837Y9511437D1*
X5163940Y9532483D1*
X5154493Y9555283D1*
X5148733Y9579283D1*
X5146797Y9603890D1*
X5148733Y9628497D1*
X5154493Y9652497D1*
X5163940Y9675297D1*
X5176837Y9696343D1*
X5192867Y9715110D1*
X5211633Y9731140D1*
X5232680Y9744037D1*
X5255480Y9753483D1*
X5279480Y9759243D1*
X5304087Y9761180D1*
X5328693Y9759243D1*
X5352693Y9753483D1*
X5375493Y9744037D1*
X5396540Y9731140D1*
X5415307Y9715110D1*
X5431337Y9696343D1*
X5444233Y9675297D1*
X5453680Y9652497D1*
X5459440Y9628497D1*
X5461377Y9603890D1*
X5459440Y9579283D1*
X5453680Y9555283D1*
X5444233Y9532483D1*
X5431337Y9511437D1*
X5415997Y9493413D1*
X5431310Y9477713D1*
X5437887Y9469373D1*
X5492687Y9469047D1*
X5508230Y9466587D1*
X5523197Y9461723D1*
X5537217Y9454577D1*
X5549950Y9445327D1*
X5621730Y9373987D1*
X5744893Y9250823D1*
X15382700Y4040843D2*
X15378837Y4016463D1*
X15371210Y3992990D1*
X15360007Y3971000D1*
X15345497Y3951030D1*
X15328047Y3933580D1*
X15308077Y3919070D1*
X15286087Y3907867D1*
X15262613Y3900240D1*
X15238233Y3896377D1*
X15213553D1*
X15211203Y3896657D1*
X15137167Y3822627D1*
X15138707Y3799943D1*
X15136647Y3773773D1*
X15130520Y3748247D1*
X15120473Y3723997D1*
X15106757Y3701613D1*
X15089710Y3681650D1*
X15083417Y3675833D1*
X15096917Y3657217D1*
X15107407Y3636623D1*
X15114550Y3614640D1*
X15118167Y3591813D1*
X15118620Y3533590D1*
Y3420257D1*
X15116807Y3397217D1*
X15111410Y3374740D1*
X15102567Y3353390D1*
X15094430Y3339580D1*
X15283387Y3339977D1*
X15299900Y3348390D1*
X15317523Y3354117D1*
X15335823Y3357017D1*
X15354357D1*
X15372657Y3354117D1*
X15390280Y3348390D1*
X15406793Y3339977D1*
X15421783Y3329087D1*
X15434887Y3315983D1*
X15445777Y3300993D1*
X15454190Y3284480D1*
X15459917Y3266857D1*
X15462817Y3248557D1*
Y3230023D1*
X15459917Y3211723D1*
X15454190Y3194100D1*
X15445777Y3177587D1*
X15434887Y3162597D1*
X15421783Y3149493D1*
X15406793Y3138603D1*
X15390280Y3130190D1*
X15372657Y3124463D1*
X15354357Y3121563D1*
X15335823D1*
X15317523Y3124463D1*
X15299900Y3130190D1*
X15282817Y3138983D1*
X15134633Y3139000D1*
X15071570Y3076017D1*
X15071620Y2926113D1*
X15083330Y2913913D1*
X15096917Y2895217D1*
X15107407Y2874623D1*
X15114550Y2852640D1*
X15118167Y2829813D1*
X15118620Y2771590D1*
X15118167Y2646700D1*
X15114550Y2623873D1*
X15107407Y2601890D1*
X15096917Y2581297D1*
X15083330Y2562600D1*
X15066987Y2546257D1*
X15048290Y2532670D1*
X15027697Y2522180D1*
X15005713Y2515037D1*
X14982887Y2511420D1*
X14959773D1*
X14936947Y2515037D1*
X14914963Y2522180D1*
X14894370Y2532670D1*
X14875673Y2546257D1*
X14859330Y2562600D1*
X14845743Y2581297D1*
X14844397Y2583703D1*
X14836490Y2571683D1*
X14821480Y2554107D1*
X14817930Y2550827D1*
X14817923Y2444007D1*
X14835927Y2428427D1*
X14844527Y2419120D1*
X14862843Y2437340D1*
X14884080Y2452770D1*
X14907470Y2464690D1*
X14932437Y2472800D1*
X14958363Y2476907D1*
X14984617D1*
X15010543Y2472800D1*
X15035510Y2464690D1*
X15058900Y2452770D1*
X15080137Y2437340D1*
X15098697Y2418780D1*
X15114127Y2397543D1*
X15126047Y2374153D1*
X15130857Y2360890D1*
X15465643Y2695657D1*
X15465690Y4488287D1*
X15188607Y4765420D1*
X14810910Y4765477D1*
X14631303Y4585840D1*
X14632943Y4562023D1*
X14630883Y4535853D1*
X14624757Y4510327D1*
X14614710Y4486077D1*
X14600993Y4463693D1*
X14583947Y4443730D1*
X14563983Y4426683D1*
X14541600Y4412967D1*
X14517350Y4402920D1*
X14491823Y4396793D1*
X14465653Y4394733D1*
X14439483Y4396793D1*
X14413957Y4402920D1*
X14389707Y4412967D1*
X14367323Y4426683D1*
X14347360Y4443730D1*
X14330313Y4463693D1*
X14316597Y4486077D1*
X14306550Y4510327D1*
X14300423Y4535853D1*
X14298363Y4562023D1*
X14300423Y4588193D1*
X14306550Y4613720D1*
X14316597Y4637970D1*
X14330313Y4660353D1*
X14347360Y4680317D1*
X14367323Y4697363D1*
X14389707Y4711080D1*
X14413957Y4721127D1*
X14439483Y4727253D1*
X14465653Y4729313D1*
X14489327Y4727550D1*
X14704263Y4942027D1*
X14716997Y4951277D1*
X14731017Y4958423D1*
X14745983Y4963287D1*
X14761527Y4965747D1*
X14862730Y4966057D1*
X15099983D1*
X15090817Y4975640D1*
X15079927Y4990630D1*
X15071513Y5007143D1*
X15065787Y5024767D1*
X15062887Y5043067D1*
Y5061600D1*
X15065787Y5079900D1*
X15071513Y5097523D1*
X15080307Y5114607D1*
X15079927Y5440143D1*
X15071513Y5456657D1*
X15065787Y5474280D1*
X15062887Y5492580D1*
Y5511113D1*
X15064053Y5520710D1*
X15054480Y5517097D1*
X14123117Y4585730D1*
X14124867Y4562023D1*
X14122807Y4535853D1*
X14116680Y4510327D1*
X14106633Y4486077D1*
X14092917Y4463693D1*
X14075870Y4443730D1*
X14055907Y4426683D1*
X14033523Y4412967D1*
X14009273Y4402920D1*
X13983747Y4396793D1*
X13957577Y4394733D1*
X13931407Y4396793D1*
X13905880Y4402920D1*
X13881630Y4412967D1*
X13859247Y4426683D1*
X13839283Y4443730D1*
X13822237Y4463693D1*
X13808520Y4486077D1*
X13798473Y4510327D1*
X13792347Y4535853D1*
X13790287Y4562023D1*
X13792347Y4588193D1*
X13798473Y4613720D1*
X13808520Y4637970D1*
X13822237Y4660353D1*
X13839283Y4680317D1*
X13859247Y4697363D1*
X13881630Y4711080D1*
X13905880Y4721127D1*
X13931407Y4727253D1*
X13957577Y4729313D1*
X13981250Y4727550D1*
X14951430Y5697270D1*
X14964163Y5706520D1*
X14978183Y5713667D1*
X14993150Y5718530D1*
X15008693Y5720990D1*
X15067150Y5721300D1*
X15063977Y5735620D1*
X15062523Y5754093D1*
X15063977Y5772567D1*
X15068303Y5790587D1*
X15075393Y5807707D1*
X15080307Y5816367D1*
X15079927Y5934933D1*
X15071513Y5951447D1*
X15065787Y5969070D1*
X15062887Y5987370D1*
Y6005903D1*
X15065787Y6024203D1*
X15071513Y6041827D1*
X15079927Y6058340D1*
X15090817Y6073330D1*
X15103920Y6086433D1*
X15118910Y6097323D1*
X15135423Y6105737D1*
X15153047Y6111463D1*
X15171347Y6114363D1*
X15189880D1*
X15208180Y6111463D1*
X15225803Y6105737D1*
X15242317Y6097323D1*
X15257307Y6086433D1*
X15270410Y6073330D1*
X15272630Y6070513D1*
X15405983Y6203430D1*
X15418717Y6212680D1*
X15432737Y6219827D1*
X15447703Y6224690D1*
X15463247Y6227150D1*
X15535010Y6227460D1*
X15545000Y6238390D1*
X15563427Y6254150D1*
X15545000Y6269950D1*
X15528970Y6288717D1*
X15519113Y6304333D1*
X15083020Y6304327D1*
X14542400Y5763770D1*
X14556383Y5753570D1*
X14569487Y5740467D1*
X14580377Y5725477D1*
X14588790Y5708963D1*
X14594517Y5691340D1*
X14597417Y5673040D1*
Y5654507D1*
X14594517Y5636207D1*
X14588790Y5618583D1*
X14579997Y5601500D1*
X14580377Y5491373D1*
X14588790Y5474860D1*
X14594517Y5457237D1*
X14597417Y5438937D1*
Y5420403D1*
X14594517Y5402103D1*
X14588790Y5384480D1*
X14580377Y5367967D1*
X14569487Y5352977D1*
X14556383Y5339873D1*
X14541393Y5328983D1*
X14524880Y5320570D1*
X14507257Y5314843D1*
X14488957Y5311943D1*
X14470423D1*
X14452123Y5314843D1*
X14434500Y5320570D1*
X14417987Y5328983D1*
X14402997Y5339873D1*
X14389893Y5352977D1*
X14379003Y5367967D1*
X14370590Y5384480D1*
X14364863Y5402103D1*
X14361963Y5420403D1*
Y5438937D1*
X14364863Y5457237D1*
X14370590Y5474860D1*
X14379383Y5491943D1*
X14379400Y5600750D1*
X13133010Y4354383D1*
X13133023Y3688190D1*
X13144733Y3675913D1*
X13158320Y3657217D1*
X13168810Y3636623D1*
X13175953Y3614640D1*
X13179570Y3591813D1*
X13180023Y3533590D1*
X13179570Y3408700D1*
X13175953Y3385873D1*
X13169297Y3365207D1*
X13215917Y3365230D1*
X13228180Y3375190D1*
X13249227Y3388087D1*
X13272027Y3397533D1*
X13296027Y3403293D1*
X13320633Y3405230D1*
X13345240Y3403293D1*
X13369240Y3397533D1*
X13392040Y3388087D1*
X13413087Y3375190D1*
X13425300Y3365220D1*
X13551323Y3365230D1*
X13558110Y3385873D1*
X13554493Y3408700D1*
X13554040Y3466923D1*
X13554493Y3591813D1*
X13558110Y3614640D1*
X13565253Y3636623D1*
X13575743Y3657217D1*
X13589330Y3675913D1*
X13590157Y3676810D1*
X13576057Y3691377D1*
X13560627Y3712613D1*
X13548707Y3736003D1*
X13540597Y3760970D1*
X13536490Y3786897D1*
Y3813150D1*
X13540597Y3839077D1*
X13548707Y3864043D1*
X13560627Y3887433D1*
X13576057Y3908670D1*
X13594617Y3927230D1*
X13615853Y3942660D1*
X13639243Y3954580D1*
X13664210Y3962690D1*
X13690137Y3966797D1*
X13716390D1*
X13742317Y3962690D1*
X13767283Y3954580D1*
X13790673Y3942660D1*
X13811910Y3927230D1*
X13830437Y3908707D1*
X13848930Y3927230D1*
X13870167Y3942660D1*
X13893557Y3954580D1*
X13918523Y3962690D1*
X13944450Y3966797D1*
X13970703D1*
X13996630Y3962690D1*
X14021597Y3954580D1*
X14044987Y3942660D1*
X14066223Y3927230D1*
X14084783Y3908670D1*
X14100213Y3887433D1*
X14112133Y3864043D1*
X14120243Y3839077D1*
X14124350Y3813150D1*
Y3786897D1*
X14120243Y3760970D1*
X14112133Y3736003D1*
X14100213Y3712613D1*
X14084783Y3691377D1*
X14068297Y3674730D1*
X14080917Y3657217D1*
X14082263Y3654810D1*
X14090170Y3666830D1*
X14105180Y3684407D1*
X14122757Y3699417D1*
X14142463Y3711493D1*
X14163813Y3720337D1*
X14186290Y3725733D1*
X14209330Y3727547D1*
X14232370Y3725733D1*
X14254847Y3720337D1*
X14276197Y3711493D1*
X14295903Y3699417D1*
X14313480Y3684407D1*
X14328490Y3666830D1*
X14336263Y3654810D1*
X14344170Y3666830D1*
X14352343Y3677010D1*
X14338447Y3691377D1*
X14323017Y3712613D1*
X14311097Y3736003D1*
X14302987Y3760970D1*
X14298880Y3786897D1*
Y3813150D1*
X14302987Y3839077D1*
X14311097Y3864043D1*
X14323017Y3887433D1*
X14338447Y3908670D1*
X14357007Y3927230D1*
X14378243Y3942660D1*
X14401633Y3954580D1*
X14426600Y3962690D1*
X14452527Y3966797D1*
X14478780D1*
X14504707Y3962690D1*
X14529673Y3954580D1*
X14553063Y3942660D1*
X14574300Y3927230D1*
X14592860Y3908670D1*
X14608290Y3887433D1*
X14620210Y3864043D1*
X14628320Y3839077D1*
X14632427Y3813150D1*
Y3786897D1*
X14628320Y3760970D1*
X14620210Y3736003D1*
X14608290Y3712613D1*
X14592860Y3691377D1*
X14576373Y3674730D1*
X14588917Y3657217D1*
X14590263Y3654810D1*
X14598170Y3666830D1*
X14613180Y3684407D1*
X14630757Y3699417D1*
X14650463Y3711493D1*
X14671813Y3720337D1*
X14694290Y3725733D1*
X14717330Y3727547D1*
X14740370Y3725733D1*
X14762847Y3720337D1*
X14784197Y3711493D1*
X14803903Y3699417D1*
X14821480Y3684407D1*
X14836490Y3666830D1*
X14844263Y3654810D1*
X14852170Y3666830D1*
X14859247Y3675807D1*
X14844210Y3691297D1*
X14828780Y3712533D1*
X14816860Y3735923D1*
X14808750Y3760890D1*
X14804643Y3786817D1*
Y3813070D1*
X14808750Y3838997D1*
X14816860Y3863963D1*
X14828780Y3887353D1*
X14844210Y3908590D1*
X14862770Y3927150D1*
X14884007Y3942580D1*
X14907397Y3954500D1*
X14932363Y3962610D1*
X14958290Y3966717D1*
X14984543D1*
X14996210Y3965337D1*
X15069243Y4038363D1*
X15068953Y4062100D1*
X13390403Y4062397D1*
X13374860Y4064857D1*
X13359893Y4069720D1*
X13345873Y4076867D1*
X13333140Y4086117D1*
X13261360Y4157457D1*
X13232063Y4186193D1*
X13214440Y4191920D1*
X13197927Y4200333D1*
X13182937Y4211223D1*
X13169833Y4224327D1*
X13158943Y4239317D1*
X13150530Y4255830D1*
X13144803Y4273453D1*
X13141903Y4291753D1*
Y4310287D1*
X13144803Y4328587D1*
X13150530Y4346210D1*
X13158943Y4362723D1*
X13169833Y4377713D1*
X13182937Y4390817D1*
X13197927Y4401707D1*
X13214440Y4410120D1*
X13232063Y4415847D1*
X13235437Y4416520D1*
X13241590Y4435973D1*
X13250003Y4452487D1*
X13260893Y4467477D1*
X13273997Y4480580D1*
X13288987Y4491470D1*
X13305500Y4499883D1*
X13323123Y4505610D1*
X13341423Y4508510D1*
X13359957D1*
X13378257Y4505610D1*
X13395880Y4499883D1*
X13412393Y4491470D1*
X13427383Y4480580D1*
X13440487Y4467477D1*
X13451377Y4452487D1*
X13459790Y4435973D1*
X13465650Y4417677D1*
X13505457Y4377850D1*
X14645450Y4377837D1*
X14805780Y4538140D1*
X14804127Y4561943D1*
X14806187Y4588113D1*
X14812313Y4613640D1*
X14822360Y4637890D1*
X14836077Y4660273D1*
X14853123Y4680237D1*
X14873087Y4697283D1*
X14895470Y4711000D1*
X14919720Y4721047D1*
X14945247Y4727173D1*
X14971417Y4729233D1*
X14997587Y4727173D1*
X15023113Y4721047D1*
X15047363Y4711000D1*
X15069747Y4697283D1*
X15089710Y4680237D1*
X15106757Y4660273D1*
X15120473Y4637890D1*
X15130520Y4613640D1*
X15136647Y4588113D1*
X15138707Y4561943D1*
X15136647Y4535773D1*
X15130520Y4510247D1*
X15120473Y4485997D1*
X15106757Y4463613D1*
X15089710Y4443650D1*
X15069747Y4426603D1*
X15047363Y4412887D1*
X15023113Y4402840D1*
X14997587Y4396713D1*
X14971417Y4394653D1*
X14947743Y4396417D1*
X14813987Y4262680D1*
X15124570Y4262357D1*
X15140113Y4259897D1*
X15155080Y4255033D1*
X15169100Y4247887D1*
X15181833Y4238637D1*
X15211140Y4209767D1*
X15225893Y4210473D1*
X15250500Y4208537D1*
X15274500Y4202777D1*
X15297300Y4193330D1*
X15318347Y4180433D1*
X15337113Y4164403D1*
X15353143Y4145637D1*
X15366040Y4124590D1*
X15375487Y4101790D1*
X15381247Y4077790D1*
X15383183Y4053183D1*
X15382700Y4040843D1*
X12559633Y6235877D2*
X12688970D1*
X13228233Y6775063D1*
X13228173Y7192927D1*
X13216463Y7205110D1*
X13202877Y7223807D1*
X13201530Y7226213D1*
X13193623Y7214193D1*
X13178613Y7196617D1*
X13161037Y7181607D1*
X13141330Y7169530D1*
X13119980Y7160687D1*
X13097503Y7155290D1*
X13074463Y7153477D1*
X13051423Y7155290D1*
X13028947Y7160687D1*
X13007597Y7169530D1*
X12987890Y7181607D1*
X12970313Y7196617D1*
X12967767Y7199370D1*
X12967753Y7153477D1*
X12919903D1*
X12919990Y6942230D1*
X12930920Y6932357D1*
X12946950Y6913590D1*
X12959847Y6892543D1*
X12969293Y6869743D1*
X12975053Y6845743D1*
X12976990Y6821137D1*
X12975053Y6796530D1*
X12969293Y6772530D1*
X12959847Y6749730D1*
X12946950Y6728683D1*
X12930920Y6709917D1*
X12912153Y6693887D1*
X12891107Y6680990D1*
X12868307Y6671543D1*
X12844307Y6665783D1*
X12819700Y6663847D1*
X12795093Y6665783D1*
X12771093Y6671543D1*
X12748293Y6680990D1*
X12727247Y6693887D1*
X12708480Y6709917D1*
X12698633Y6720840D1*
X12440507Y6721157D1*
X12424963Y6723617D1*
X12409997Y6728480D1*
X12395977Y6735627D1*
X12383243Y6744877D1*
X12311463Y6816217D1*
X11777960Y7349263D1*
X11755700Y7351017D1*
X11733990Y7356227D1*
X11713363Y7364773D1*
X11694323Y7376437D1*
X11677347Y7390940D1*
X11662843Y7407917D1*
X11650977Y7427390D1*
X11639077Y7407917D1*
X11624573Y7390940D1*
X11607597Y7376437D1*
X11588557Y7364773D1*
X11567930Y7356227D1*
X11546220Y7351017D1*
X11523960Y7349263D1*
X11501700Y7351017D1*
X11479990Y7356227D1*
X11459363Y7364773D1*
X11440323Y7376437D1*
X11423347Y7390940D1*
X11408843Y7407917D1*
X11397180Y7426957D1*
X11388633Y7447583D1*
X11383423Y7469293D1*
X11381670Y7491553D1*
X11383423Y7513813D1*
X11388633Y7535523D1*
X11397180Y7556150D1*
X11408843Y7575190D1*
X11423347Y7592167D1*
X11440323Y7606670D1*
X11459363Y7618333D1*
X11479990Y7626880D1*
X11501700Y7632090D1*
X11523960Y7633843D1*
X11546220Y7632090D1*
X11567930Y7626880D1*
X11588557Y7618333D1*
X11607597Y7606670D1*
X11624573Y7592167D1*
X11639077Y7575190D1*
X11650943Y7555717D1*
X11662843Y7575190D1*
X11677347Y7592167D1*
X11694323Y7606670D1*
X11713363Y7618333D1*
X11733990Y7626880D1*
X11755700Y7632090D1*
X11777960Y7633843D1*
X11800220Y7632090D1*
X11821930Y7626880D1*
X11842557Y7618333D1*
X11861597Y7606670D1*
X11878573Y7592167D1*
X11889697Y7579473D1*
X11889670Y7633843D1*
X12174250D1*
Y7349263D1*
X12062050D1*
X12489957Y6921387D1*
X12698573Y6921427D1*
X12708480Y6932357D1*
X12719403Y6942203D1*
X12719410Y7153547D1*
X12673173Y7153477D1*
Y7608057D1*
X12967753D1*
Y7562210D1*
X12978807Y7572767D1*
X12997503Y7586353D1*
X13018097Y7596843D1*
X13040080Y7603987D1*
X13062907Y7607603D1*
X13086020D1*
X13108847Y7603987D1*
X13130830Y7596843D1*
X13151423Y7586353D1*
X13170120Y7572767D1*
X13186463Y7556423D1*
X13200050Y7537727D1*
X13201397Y7535320D1*
X13209303Y7547340D1*
X13224313Y7564917D1*
X13241890Y7579927D1*
X13261597Y7592003D1*
X13282947Y7600847D1*
X13305423Y7606243D1*
X13328463Y7608057D1*
X13351503Y7606243D1*
X13373980Y7600847D1*
X13395330Y7592003D1*
X13415037Y7579927D1*
X13432613Y7564917D1*
X13447623Y7547340D1*
X13455397Y7535320D1*
X13463303Y7547340D1*
X13478313Y7564917D1*
X13495890Y7579927D1*
X13515597Y7592003D1*
X13536947Y7600847D1*
X13559423Y7606243D1*
X13582463Y7608057D1*
X13605503Y7606243D1*
X13627980Y7600847D1*
X13649330Y7592003D1*
X13669037Y7579927D1*
X13686613Y7564917D1*
X13701623Y7547340D1*
X13709397Y7535320D1*
X13717307Y7547340D1*
X13732317Y7564917D1*
X13749893Y7579927D1*
X13769600Y7592003D1*
X13790950Y7600847D1*
X13813427Y7606243D1*
X13836467Y7608057D1*
X13859507Y7606243D1*
X13881983Y7600847D1*
X13903333Y7592003D1*
X13923040Y7579927D1*
X13940617Y7564917D1*
X13955627Y7547340D1*
X13963400Y7535320D1*
X13971307Y7547340D1*
X13986317Y7564917D1*
X14003893Y7579927D1*
X14023600Y7592003D1*
X14044950Y7600847D1*
X14067427Y7606243D1*
X14090467Y7608057D1*
X14113507Y7606243D1*
X14135983Y7600847D1*
X14157333Y7592003D1*
X14177040Y7579927D1*
X14194617Y7564917D1*
X14209627Y7547340D1*
X14217400Y7535320D1*
X14225303Y7547340D1*
X14240313Y7564917D1*
X14257890Y7579927D1*
X14277597Y7592003D1*
X14298947Y7600847D1*
X14321423Y7606243D1*
X14344463Y7608057D1*
X14367503Y7606243D1*
X14389980Y7600847D1*
X14411330Y7592003D1*
X14431037Y7579927D1*
X14448613Y7564917D1*
X14463623Y7547340D1*
X14471397Y7535320D1*
X14479307Y7547340D1*
X14494317Y7564917D1*
X14511893Y7579927D1*
X14531600Y7592003D1*
X14552950Y7600847D1*
X14575427Y7606243D1*
X14598467Y7608057D1*
X14621507Y7606243D1*
X14643983Y7600847D1*
X14665333Y7592003D1*
X14685040Y7579927D1*
X14702617Y7564917D1*
X14717627Y7547340D1*
X14725400Y7535320D1*
X14733307Y7547340D1*
X14748317Y7564917D1*
X14765893Y7579927D1*
X14785600Y7592003D1*
X14806950Y7600847D1*
X14829427Y7606243D1*
X14852467Y7608057D1*
X14875507Y7606243D1*
X14897983Y7600847D1*
X14919333Y7592003D1*
X14939040Y7579927D1*
X14956617Y7564917D1*
X14971627Y7547340D1*
X14979400Y7535320D1*
X14987303Y7547340D1*
X15002313Y7564917D1*
X15019890Y7579927D1*
X15039597Y7592003D1*
X15060947Y7600847D1*
X15083423Y7606243D1*
X15106463Y7608057D1*
X15129503Y7606243D1*
X15151980Y7600847D1*
X15173330Y7592003D1*
X15193037Y7579927D1*
X15209850Y7565623D1*
X15264213Y7619960D1*
X15263477Y7634683D1*
X15265413Y7659290D1*
X15271173Y7683290D1*
X15280620Y7706090D1*
X15293517Y7727137D1*
X15309547Y7745903D1*
X15327973Y7761663D1*
X15309547Y7777463D1*
X15293517Y7796230D1*
X15280620Y7817277D1*
X15271173Y7840077D1*
X15265413Y7864077D1*
X15263477Y7888683D1*
X15265413Y7913290D1*
X15271173Y7937290D1*
X15280620Y7960090D1*
X15293517Y7981137D1*
X15296950Y7985493D1*
X15296973Y9212017D1*
X15207180Y9301770D1*
X14731873Y9301730D1*
X14716290Y9283727D1*
X14696327Y9266680D1*
X14673943Y9252963D1*
X14649693Y9242917D1*
X14624167Y9236790D1*
X14597997Y9234730D1*
X14571827Y9236790D1*
X14546300Y9242917D1*
X14522050Y9252963D1*
X14499667Y9266680D1*
X14479703Y9283727D1*
X14470823Y9293337D1*
X14452417Y9274963D1*
X14431180Y9259533D1*
X14407790Y9247613D1*
X14382823Y9239503D1*
X14356897Y9235397D1*
X14330643D1*
X14304717Y9239503D1*
X14279750Y9247613D1*
X14256360Y9259533D1*
X14235123Y9274963D1*
X14216563Y9293523D1*
X14201133Y9314760D1*
X14189213Y9338150D1*
X14181103Y9363117D1*
X14176997Y9389043D1*
Y9415297D1*
X14181103Y9441223D1*
X14189213Y9466190D1*
X14201133Y9489580D1*
X14216563Y9510817D1*
X14235123Y9529377D1*
X14256360Y9544807D1*
X14279750Y9556727D1*
X14304717Y9564837D1*
X14330643Y9568943D1*
X14356897D1*
X14382823Y9564837D1*
X14407790Y9556727D1*
X14431180Y9544807D1*
X14452417Y9529377D1*
X14470943Y9510853D1*
X14489350Y9529227D1*
X14510587Y9544657D1*
X14533977Y9556577D1*
X14558943Y9564687D1*
X14584870Y9568793D1*
X14611123D1*
X14637050Y9564687D1*
X14662017Y9556577D1*
X14685407Y9544657D1*
X14706643Y9529227D1*
X14725203Y9510667D1*
X14731780Y9502327D1*
X15256630Y9502000D1*
X15272173Y9499540D1*
X15287140Y9494677D1*
X15301160Y9487530D1*
X15313893Y9478280D1*
X15385673Y9406940D1*
X15473523Y9318650D1*
X15482773Y9305917D1*
X15489920Y9291897D1*
X15494783Y9276930D1*
X15497243Y9261387D1*
X15497553Y9160183D1*
Y8025873D1*
X15513220Y8015933D1*
X15531987Y7999903D1*
X15548017Y7981137D1*
X15560913Y7960090D1*
X15566063Y7948920D1*
X15566067Y9337223D1*
X15289370Y9613980D1*
X13892477Y9614040D1*
X13879477Y9599410D1*
X13859513Y9582363D1*
X13837130Y9568647D1*
X13812880Y9558600D1*
X13787353Y9552473D1*
X13761183Y9550413D1*
X13735013Y9552473D1*
X13709487Y9558600D1*
X13685237Y9568647D1*
X13662853Y9582363D1*
X13642890Y9599410D1*
X13625843Y9619373D1*
X13612127Y9641757D1*
X13602080Y9666007D1*
X13595953Y9691533D1*
X13593893Y9717703D1*
X13595953Y9743873D1*
X13602080Y9769400D1*
X13612127Y9793650D1*
X13625843Y9816033D1*
X13642890Y9835997D1*
X13662853Y9853043D1*
X13685237Y9866760D1*
X13709487Y9876807D1*
X13735013Y9882933D1*
X13761183Y9884993D1*
X13787353Y9882933D1*
X13812880Y9876807D1*
X13837130Y9866760D1*
X13859513Y9853043D1*
X13879477Y9835997D1*
X13896523Y9816033D1*
X13897463Y9814627D1*
X15338720Y9814310D1*
X15354263Y9811850D1*
X15369230Y9806987D1*
X15383250Y9799840D1*
X15395983Y9790590D1*
X15467763Y9719250D1*
X15742617Y9443957D1*
X15751867Y9431223D1*
X15759013Y9417203D1*
X15763877Y9402237D1*
X15766337Y9386693D1*
X15766647Y9285490D1*
X15766337Y7167283D1*
X15763877Y7151740D1*
X15759013Y7136773D1*
X15751867Y7122753D1*
X15742617Y7110020D1*
X15671277Y7038240D1*
X15548487Y6915890D1*
X15535753Y6906640D1*
X15521733Y6899493D1*
X15506767Y6894630D1*
X15491223Y6892170D1*
X15390020Y6891860D1*
X14964597Y6892170D1*
X14949053Y6894630D1*
X14934087Y6899493D1*
X14920067Y6906640D1*
X14907333Y6915890D1*
X14835553Y6987230D1*
X14776207Y7047017D1*
X14766940Y7059777D1*
X14765033Y7061510D1*
X14760927Y7035583D1*
X14752817Y7010617D1*
X14740897Y6987227D1*
X14725467Y6965990D1*
X14706907Y6947430D1*
X14698567Y6940853D1*
X14698240Y6562860D1*
X14695780Y6547317D1*
X14690917Y6532350D1*
X14683770Y6518330D1*
X14674520Y6505597D1*
X14603180Y6433817D1*
X14407170Y6238247D1*
X14394437Y6228997D1*
X14380417Y6221850D1*
X14365450Y6216987D1*
X14349907Y6214527D1*
X14248703Y6214217D1*
X14224550D1*
X14208880Y6196213D1*
X14188917Y6179167D1*
X14166533Y6165450D1*
X14142283Y6155403D1*
X14116757Y6149277D1*
X14090587Y6147217D1*
X14064417Y6149277D1*
X14038890Y6155403D1*
X14014640Y6165450D1*
X13992257Y6179167D1*
X13984237Y6185487D1*
X13984243Y5941297D1*
X13942590D1*
X13956113Y5925160D1*
X13968190Y5905453D1*
X13977033Y5884103D1*
X13982430Y5861627D1*
X13984243Y5838587D1*
X13982430Y5815547D1*
X13977033Y5793070D1*
X13968190Y5771720D1*
X13956113Y5752013D1*
X13941103Y5734437D1*
X13923527Y5719427D1*
X13903820Y5707350D1*
X13882470Y5698507D1*
X13859993Y5693110D1*
X13836953Y5691297D1*
X13813913Y5693110D1*
X13791437Y5698507D1*
X13770087Y5707350D1*
X13750380Y5719427D1*
X13732803Y5734437D1*
X13717793Y5752013D1*
X13705717Y5771720D1*
X13696873Y5793070D1*
X13691477Y5815547D1*
X13689663Y5838587D1*
X13691477Y5861627D1*
X13696873Y5884103D1*
X13705717Y5905453D1*
X13717793Y5925160D1*
X13731483Y5941310D1*
X13689663Y5941297D1*
Y6235877D1*
X13736603D1*
X13736663Y7192453D1*
X13724467Y7205110D1*
X13710880Y7223807D1*
X13709533Y7226213D1*
X13701623Y7214193D1*
X13686613Y7196617D1*
X13682733Y7193030D1*
X13682443Y6402270D1*
X13679983Y6386727D1*
X13675120Y6371760D1*
X13667973Y6357740D1*
X13658723Y6345007D1*
X13587383Y6273227D1*
X13408147Y6093993D1*
X13408200Y5941297D1*
X13366547D1*
X13380070Y5925160D1*
X13392147Y5905453D1*
X13400990Y5884103D1*
X13406387Y5861627D1*
X13408200Y5838587D1*
X13406387Y5815547D1*
X13400990Y5793070D1*
X13392147Y5771720D1*
X13380070Y5752013D1*
X13365060Y5734437D1*
X13347483Y5719427D1*
X13327777Y5707350D1*
X13306427Y5698507D1*
X13283950Y5693110D1*
X13260910Y5691297D1*
X13237870Y5693110D1*
X13215393Y5698507D1*
X13194043Y5707350D1*
X13174337Y5719427D1*
X13156760Y5734437D1*
X13141750Y5752013D1*
X13129673Y5771720D1*
X13120830Y5793070D1*
X13115433Y5815547D1*
X13113620Y5838587D1*
X13115433Y5861627D1*
X13120830Y5884103D1*
X13129673Y5905453D1*
X13141750Y5925160D1*
X13155440Y5941310D1*
X13113620Y5941297D1*
Y6235877D1*
X13266290D1*
X13482147Y6451653D1*
X13482173Y7192810D1*
X13470463Y7205110D1*
X13456877Y7223807D1*
X13455530Y7226213D1*
X13447623Y7214193D1*
X13432613Y7196617D1*
X13428733Y7193030D1*
X13428443Y6725590D1*
X13425983Y6710047D1*
X13421120Y6695080D1*
X13413973Y6681060D1*
X13404723Y6668327D1*
X13333383Y6596547D1*
X12830867Y6094033D1*
X12830880Y5941297D1*
X12789227D1*
X12802750Y5925160D1*
X12814827Y5905453D1*
X12823670Y5884103D1*
X12829067Y5861627D1*
X12830880Y5838587D1*
X12829067Y5815547D1*
X12823670Y5793070D1*
X12814827Y5771720D1*
X12802750Y5752013D1*
X12787740Y5734437D1*
X12770163Y5719427D1*
X12750457Y5707350D1*
X12729107Y5698507D1*
X12706630Y5693110D1*
X12683590Y5691297D1*
X12660550Y5693110D1*
X12638073Y5698507D1*
X12616723Y5707350D1*
X12597017Y5719427D1*
X12579440Y5734437D1*
X12564430Y5752013D1*
X12552353Y5771720D1*
X12543510Y5793070D1*
X12538113Y5815547D1*
X12536300Y5838587D1*
X12538113Y5861627D1*
X12543510Y5884103D1*
X12552353Y5905453D1*
X12564430Y5925160D1*
X12578120Y5941310D1*
X12536300Y5941297D1*
Y6235877D1*
X12559633D1*
X14497970Y6787873D2*
X14493933Y6772530D1*
X14484487Y6749730D1*
X14471590Y6728683D1*
X14455560Y6709917D1*
X14436793Y6693887D1*
X14415747Y6680990D1*
X14392947Y6671543D1*
X14368947Y6665783D1*
X14344340Y6663847D1*
X14319733Y6665783D1*
X14295733Y6671543D1*
X14272933Y6680990D1*
X14251887Y6693887D1*
X14233120Y6709917D1*
X14217090Y6728683D1*
X14204193Y6749730D1*
X14194747Y6772530D1*
X14188987Y6796530D1*
X14187050Y6821137D1*
X14188987Y6845743D1*
X14194747Y6869743D1*
X14204193Y6892543D1*
X14217090Y6913590D1*
X14233120Y6932357D1*
X14244197Y6942323D1*
X14244173Y7010207D1*
X14233223Y6989097D1*
X14217793Y6967860D1*
X14199233Y6949300D1*
X14177997Y6933870D1*
X14154607Y6921950D1*
X14129640Y6913840D1*
X14103713Y6909733D1*
X14077460D1*
X14051533Y6913840D1*
X14026567Y6921950D1*
X14003177Y6933870D1*
X13981940Y6949300D1*
X13963380Y6967860D1*
X13947950Y6989097D1*
X13937257Y7009830D1*
X13937243Y6381413D1*
X13947950Y6401917D1*
X13963380Y6423153D1*
X13981940Y6441713D1*
X14003177Y6457143D1*
X14026567Y6469063D1*
X14051533Y6477173D1*
X14077460Y6481280D1*
X14103713D1*
X14129640Y6477173D1*
X14154607Y6469063D1*
X14177997Y6457143D1*
X14199233Y6441713D1*
X14217793Y6423153D1*
X14224370Y6414813D1*
X14300497Y6414797D1*
X14497920Y6612220D1*
X14497970Y6787383D1*
X14444787Y6942083D2*
X14455560Y6932357D1*
X14471590Y6913590D1*
X14484487Y6892543D1*
X14493933Y6869743D1*
X14497970Y6854400D1*
Y6940690D1*
X14479967Y6956343D1*
X14462920Y6976307D1*
X14449203Y6998690D1*
X14444753Y7007433D1*
Y6942263D1*
X15566063Y7828447D2*
X15554880Y7806500D1*
X15540370Y7786530D1*
X15522920Y7769080D1*
X15513560Y7761703D1*
X15531987Y7745903D1*
X15548017Y7727137D1*
X15560913Y7706090D1*
X15566063Y7694920D1*
X15566067Y7828397D1*
X15566063Y7574447D2*
X15554880Y7552500D1*
X15540370Y7532530D1*
X15522920Y7515080D1*
X15502950Y7500570D1*
X15480960Y7489367D1*
X15457487Y7481740D1*
X15433107Y7477877D1*
X15408427D1*
X15406077Y7478157D1*
X15253797Y7325883D1*
X15253300Y7289210D1*
X15249683Y7266383D1*
X15242540Y7244400D1*
X15232050Y7223807D1*
X15218463Y7205110D1*
X15202120Y7188767D1*
X15183423Y7175180D1*
X15162830Y7164690D1*
X15140847Y7157547D1*
X15118020Y7153930D1*
X15094907D1*
X15072080Y7157547D1*
X15050097Y7164690D1*
X15029503Y7175180D1*
X15010807Y7188767D1*
X14994463Y7205110D1*
X14980877Y7223807D1*
X14979530Y7226213D1*
X14971627Y7214193D1*
X14956617Y7196617D1*
X14952737Y7193030D1*
X14952757Y7153723D1*
X15014063Y7092383D1*
X15441777Y7092440D1*
X15566020Y7216650D1*
X15566067Y7574463D1*
X15006157Y8771417D2*
X14995460Y8781087D1*
X14979877Y8799287D1*
X14964197Y8781017D1*
X14952740Y8770750D1*
X14952757Y8330723D1*
X14964467Y8318423D1*
X14978053Y8299727D1*
X14979400Y8297320D1*
X14987303Y8309340D1*
X15002313Y8326917D1*
X15006193Y8330503D1*
X15006173Y8771400D1*
X11196317Y9682233D2*
X11194220Y9664510D1*
X11190737Y9647007D1*
X11185893Y9629830D1*
X11179717Y9613087D1*
X11172243Y9596880D1*
X11163523Y9581307D1*
X11153607Y9566470D1*
X11142560Y9552453D1*
X11130443Y9539350D1*
X11117340Y9527233D1*
X11103323Y9516187D1*
X11088487Y9506270D1*
X11069053Y9495770D1*
X11069073Y9254787D1*
X11080003Y9244767D1*
X11096033Y9226000D1*
X11108930Y9204953D1*
X11118377Y9182153D1*
X11124137Y9158153D1*
X11126073Y9133547D1*
X11124137Y9108940D1*
X11118377Y9084940D1*
X11108930Y9062140D1*
X11096033Y9041093D1*
X11080003Y9022327D1*
X11068170Y9011763D1*
X11068140Y8746977D1*
X11079070Y8736957D1*
X11095100Y8718190D1*
X11107997Y8697143D1*
X11117443Y8674343D1*
X11123203Y8650343D1*
X11125140Y8625737D1*
X11123203Y8601130D1*
X11117443Y8577130D1*
X11107997Y8554330D1*
X11095100Y8533283D1*
X11079070Y8514517D1*
X11060303Y8498487D1*
X11039257Y8485590D1*
X11016457Y8476143D1*
X10992457Y8470383D1*
X10967850Y8468447D1*
X10943243Y8470383D1*
X10919243Y8476143D1*
X10896443Y8485590D1*
X10875397Y8498487D1*
X10856630Y8514517D1*
X10840600Y8533283D1*
X10827703Y8554330D1*
X10818257Y8577130D1*
X10812497Y8601130D1*
X10810560Y8625737D1*
X10812497Y8650343D1*
X10818257Y8674343D1*
X10827703Y8697143D1*
X10840600Y8718190D1*
X10856630Y8736957D1*
X10867553Y8746803D1*
X10867560Y9013197D1*
X10857563Y9022327D1*
X10841533Y9041093D1*
X10828637Y9062140D1*
X10819190Y9084940D1*
X10813430Y9108940D1*
X10811493Y9133547D1*
X10813430Y9158153D1*
X10819190Y9182153D1*
X10828637Y9204953D1*
X10841533Y9226000D1*
X10857563Y9244767D1*
X10868487Y9254613D1*
X10868493Y9496580D1*
X10850967Y9506270D1*
X10836130Y9516187D1*
X10822113Y9527233D1*
X10809010Y9539350D1*
X10796893Y9552453D1*
X10785847Y9566470D1*
X10775930Y9581307D1*
X10767210Y9596880D1*
X10759737Y9613087D1*
X10753560Y9629830D1*
X10748717Y9647007D1*
X10745233Y9664510D1*
X10743137Y9682233D1*
X10742437Y9700067D1*
X10743137Y9717900D1*
X10745233Y9735623D1*
X10748717Y9753127D1*
X10753560Y9770303D1*
X10759737Y9787047D1*
X10767210Y9803253D1*
X10775930Y9818827D1*
X10785847Y9833663D1*
X10796893Y9847680D1*
X10809010Y9860783D1*
X10822113Y9872900D1*
X10836130Y9883947D1*
X10850967Y9893863D1*
X10866540Y9902583D1*
X10882747Y9910057D1*
X10899490Y9916233D1*
X10916667Y9921077D1*
X10934170Y9924560D1*
X10951893Y9926657D1*
X10969727Y9927357D1*
X10987560Y9926657D1*
X11005283Y9924560D1*
X11022787Y9921077D1*
X11039963Y9916233D1*
X11056707Y9910057D1*
X11072913Y9902583D1*
X11088487Y9893863D1*
X11103323Y9883947D1*
X11117340Y9872900D1*
X11130443Y9860783D1*
X11142560Y9847680D1*
X11153607Y9833663D1*
X11163523Y9818827D1*
X11172243Y9803253D1*
X11179717Y9787047D1*
X11185893Y9770303D1*
X11190737Y9753127D1*
X11194220Y9735623D1*
X11196317Y9717900D1*
X11197017Y9700067D1*
X11196317Y9682233D1*
X13482163Y8385337D2*
X13471313Y8395123D1*
X13455283Y8413890D1*
X13442387Y8434937D1*
X13432940Y8457737D1*
X13427180Y8481737D1*
X13425243Y8506343D1*
X13427180Y8530950D1*
X13432940Y8554950D1*
X13442387Y8577750D1*
X13455283Y8598797D1*
X13471313Y8617563D1*
X13489740Y8633323D1*
X13471313Y8649123D1*
X13461467Y8660047D1*
X13447713Y8658190D1*
X13430263Y8640740D1*
X13410293Y8626230D1*
X13388303Y8615027D1*
X13364830Y8607400D1*
X13340450Y8603537D1*
X13315770D1*
X13291390Y8607400D1*
X13267917Y8615027D1*
X13245927Y8626230D1*
X13225957Y8640740D1*
X13208507Y8658190D1*
X13193997Y8678160D1*
X13182793Y8700150D1*
X13175167Y8723623D1*
X13171303Y8748003D1*
Y8772683D1*
X13175167Y8797063D1*
X13182793Y8820537D1*
X13193997Y8842527D1*
X13208507Y8862497D1*
X13225957Y8879947D1*
X13245927Y8894457D1*
X13267917Y8905660D1*
X13274663Y8908150D1*
X12934473Y8908147D1*
X12922317Y8896437D1*
X12903620Y8882850D1*
X12901213Y8881503D1*
X12913233Y8873597D1*
X12930810Y8858587D1*
X12945820Y8841010D1*
X12957897Y8821303D1*
X12966740Y8799953D1*
X12972137Y8777477D1*
X12973950Y8754437D1*
X12972137Y8731397D1*
X12966740Y8708920D1*
X12957897Y8687570D1*
X12945820Y8667863D1*
X12930810Y8650287D1*
X12928057Y8647740D1*
X12973950Y8647727D1*
Y8627400D1*
X12992237Y8640457D1*
X13014227Y8651660D1*
X13037700Y8659287D1*
X13062080Y8663150D1*
X13086760D1*
X13111140Y8659287D1*
X13134613Y8651660D1*
X13156603Y8640457D1*
X13176573Y8625947D1*
X13194023Y8608497D1*
X13208533Y8588527D1*
X13219737Y8566537D1*
X13227363Y8543063D1*
X13231227Y8518683D1*
Y8494003D1*
X13227363Y8469623D1*
X13219737Y8446150D1*
X13208533Y8424160D1*
X13194023Y8404190D1*
X13176573Y8386740D1*
X13174790Y8385337D1*
X13174757Y8330660D1*
X13186467Y8318423D1*
X13200053Y8299727D1*
X13201400Y8297320D1*
X13209307Y8309340D1*
X13224317Y8326917D1*
X13241893Y8341927D1*
X13261600Y8354003D1*
X13282950Y8362847D1*
X13305427Y8368243D1*
X13328467Y8370057D1*
X13351507Y8368243D1*
X13373983Y8362847D1*
X13395333Y8354003D1*
X13415040Y8341927D1*
X13432617Y8326917D1*
X13447627Y8309340D1*
X13455400Y8297320D1*
X13463303Y8309340D1*
X13478313Y8326917D1*
X13482193Y8330503D1*
X13482173Y8385307D1*
X13461467Y8860640D2*
X13471313Y8871563D1*
X13490080Y8887593D1*
X13511127Y8900490D1*
X13529087Y8908150D1*
X13381997Y8908147D1*
X13399517Y8900490D1*
X13420563Y8887593D1*
X13439330Y8871563D1*
X13449177Y8860640D1*
X7028417Y8018427D2*
X7040630Y8028397D1*
X7061677Y8041293D1*
X7084477Y8050740D1*
X7108477Y8056500D1*
X7133083Y8058437D1*
X7157690Y8056500D1*
X7181690Y8050740D1*
X7204490Y8041293D1*
X7225537Y8028397D1*
X7237750Y8018427D1*
X7265883Y8018437D1*
X7260800Y8039727D1*
X7258990Y8062813D1*
X7259440Y8234323D1*
X7263057Y8257150D1*
X7270200Y8279133D1*
X7280690Y8299727D1*
X7294277Y8318423D1*
X7310620Y8334767D1*
X7329317Y8348353D1*
X7349910Y8358843D1*
X7354360Y8360487D1*
X7007127Y8360093D1*
X6990613Y8351680D1*
X6972990Y8345953D1*
X6954690Y8343053D1*
X6936157D1*
X6917857Y8345953D1*
X6900233Y8351680D1*
X6883150Y8360473D1*
X6483453Y8360800D1*
X6467910Y8363260D1*
X6452943Y8368123D1*
X6438923Y8375270D1*
X6426190Y8384520D1*
X6378063Y8432207D1*
X6376733Y8420600D1*
X6412300Y8384573D1*
X6421550Y8371840D1*
X6428697Y8357820D1*
X6433560Y8342853D1*
X6436020Y8327310D1*
X6436330Y8282343D1*
X6454333Y8266667D1*
X6463660Y8256497D1*
X6481713Y8274450D1*
X6502950Y8289880D1*
X6526340Y8301800D1*
X6551307Y8309910D1*
X6577233Y8314017D1*
X6603487D1*
X6629413Y8309910D1*
X6654380Y8301800D1*
X6677770Y8289880D1*
X6699007Y8274450D1*
X6717567Y8255890D1*
X6732997Y8234653D1*
X6744917Y8211263D1*
X6753027Y8186297D1*
X6757133Y8160370D1*
Y8134117D1*
X6753027Y8108190D1*
X6744917Y8083223D1*
X6732997Y8059833D1*
X6717567Y8038597D1*
X6699007Y8020037D1*
X6696950Y8018413D1*
X7028230Y8018437D1*
X6291553Y3094027D2*
X6272047Y3091133D1*
X6247367D1*
X6222987Y3094997D1*
X6199513Y3102623D1*
X6177523Y3113827D1*
X6157553Y3128337D1*
X6155040Y3130660D1*
X4980293Y3130650D1*
X4980280Y2907327D1*
X4989923Y2892810D1*
X4997830Y2904830D1*
X5012840Y2922407D1*
X5030417Y2937417D1*
X5050123Y2949493D1*
X5071473Y2958337D1*
X5093950Y2963733D1*
X5116990Y2965547D1*
X5140030Y2963733D1*
X5162507Y2958337D1*
X5183857Y2949493D1*
X5203563Y2937417D1*
X5221140Y2922407D1*
X5236150Y2904830D1*
X5243923Y2892810D1*
X5251830Y2904830D1*
X5266840Y2922407D1*
X5284417Y2937417D1*
X5304123Y2949493D1*
X5325473Y2958337D1*
X5347950Y2963733D1*
X5370990Y2965547D1*
X5394030Y2963733D1*
X5416507Y2958337D1*
X5437857Y2949493D1*
X5457563Y2937417D1*
X5475140Y2922407D1*
X5490150Y2904830D1*
X5497923Y2892810D1*
X5505830Y2904830D1*
X5520840Y2922407D1*
X5538417Y2937417D1*
X5558123Y2949493D1*
X5579473Y2958337D1*
X5601950Y2963733D1*
X5624990Y2965547D1*
X5648030Y2963733D1*
X5670507Y2958337D1*
X5691857Y2949493D1*
X5711563Y2937417D1*
X5729140Y2922407D1*
X5744150Y2904830D1*
X5751923Y2892810D1*
X5759830Y2904830D1*
X5774840Y2922407D1*
X5792417Y2937417D1*
X5812123Y2949493D1*
X5833473Y2958337D1*
X5855950Y2963733D1*
X5878990Y2965547D1*
X5902030Y2963733D1*
X5924507Y2958337D1*
X5945857Y2949493D1*
X5965563Y2937417D1*
X5983140Y2922407D1*
X5998150Y2904830D1*
X6010227Y2885123D1*
X6019070Y2863773D1*
X6024467Y2841297D1*
X6026280Y2818257D1*
X6025827Y2646700D1*
X6022210Y2623873D1*
X6015067Y2601890D1*
X6004577Y2581297D1*
X5990990Y2562600D1*
X5979060Y2550337D1*
X6217460Y2550340D1*
X6400003Y2732813D1*
X6399990Y2953843D1*
X6381840Y2971443D1*
X6364217Y2977170D1*
X6347703Y2985583D1*
X6332713Y2996473D1*
X6319610Y3009577D1*
X6308720Y3024567D1*
X6300307Y3041080D1*
X6294580Y3058703D1*
X6291680Y3077003D1*
X6291617Y3093907D1*
X6155040Y3365220D2*
X6167253Y3375190D1*
X6188300Y3388087D1*
X6211100Y3397533D1*
X6235100Y3403293D1*
X6259707Y3405230D1*
X6284313Y3403293D1*
X6308313Y3397533D1*
X6331113Y3388087D1*
X6352160Y3375190D1*
X6364373Y3365220D1*
X6410737Y3365230D1*
X6404060Y3385873D1*
X6400443Y3408700D1*
X6399990Y3466923D1*
X6400443Y3591813D1*
X6404060Y3614640D1*
X6411203Y3636623D1*
X6421693Y3657217D1*
X6435280Y3675913D1*
X6451623Y3692257D1*
X6470320Y3705843D1*
X6490913Y3716333D1*
X6512897Y3723477D1*
X6535723Y3727093D1*
X6558837D1*
X6581663Y3723477D1*
X6603647Y3716333D1*
X6624240Y3705843D1*
X6642937Y3692257D1*
X6659280Y3675913D1*
X6672867Y3657217D1*
X6674213Y3654810D1*
X6682120Y3666830D1*
X6697130Y3684407D1*
X6714707Y3699417D1*
X6734413Y3711493D1*
X6755763Y3720337D1*
X6778240Y3725733D1*
X6801280Y3727547D1*
X6824320Y3725733D1*
X6846797Y3720337D1*
X6868147Y3711493D1*
X6887853Y3699417D1*
X6905430Y3684407D1*
X6920440Y3666830D1*
X6928213Y3654810D1*
X6936120Y3666830D1*
X6951130Y3684407D1*
X6968707Y3699417D1*
X6988413Y3711493D1*
X7009763Y3720337D1*
X7032240Y3725733D1*
X7055280Y3727547D1*
X7078320Y3725733D1*
X7100797Y3720337D1*
X7122147Y3711493D1*
X7141853Y3699417D1*
X7159430Y3684407D1*
X7174440Y3666830D1*
X7182213Y3654810D1*
X7190120Y3666830D1*
X7205130Y3684407D1*
X7209010Y3687993D1*
X7209300Y3703577D1*
X7211760Y3719120D1*
X7216623Y3734087D1*
X7223770Y3748107D1*
X7233020Y3760840D1*
X7304360Y3832620D1*
X7446473Y3974730D1*
X7446517Y3988560D1*
X7436473Y4003587D1*
X7428567Y3991567D1*
X7413557Y3973990D1*
X7395980Y3958980D1*
X7376273Y3946903D1*
X7354923Y3938060D1*
X7332447Y3932663D1*
X7309407Y3930850D1*
X7286367Y3932663D1*
X7263890Y3938060D1*
X7242540Y3946903D1*
X7222833Y3958980D1*
X7205257Y3973990D1*
X7190247Y3991567D1*
X7182473Y4003587D1*
X7174567Y3991567D1*
X7159557Y3973990D1*
X7141980Y3958980D1*
X7122273Y3946903D1*
X7100923Y3938060D1*
X7078447Y3932663D1*
X7055407Y3930850D1*
X7032367Y3932663D1*
X7009890Y3938060D1*
X6988540Y3946903D1*
X6968833Y3958980D1*
X6951257Y3973990D1*
X6936247Y3991567D1*
X6928473Y4003587D1*
X6920567Y3991567D1*
X6905557Y3973990D1*
X6887980Y3958980D1*
X6868273Y3946903D1*
X6846923Y3938060D1*
X6824447Y3932663D1*
X6801407Y3930850D1*
X6778367Y3932663D1*
X6757240Y3937680D1*
X6768813Y3924057D1*
X6778497Y3908260D1*
X6785587Y3891140D1*
X6789913Y3873120D1*
X6791367Y3854647D1*
X6789913Y3836173D1*
X6785587Y3818153D1*
X6778497Y3801033D1*
X6768813Y3785237D1*
X6756780Y3771143D1*
X6742687Y3759110D1*
X6726890Y3749427D1*
X6709770Y3742337D1*
X6691750Y3738010D1*
X6673277Y3736557D1*
X6654803Y3738010D1*
X6636783Y3742337D1*
X6619663Y3749427D1*
X6603867Y3759110D1*
X6589773Y3771143D1*
X6577740Y3785237D1*
X6568057Y3801033D1*
X6560897Y3818400D1*
X6265853Y3818697D1*
X6250310Y3821157D1*
X6235343Y3826020D1*
X6221323Y3833167D1*
X6208590Y3842417D1*
X6136810Y3913757D1*
X5532077Y4518490D1*
X5525317Y4498673D1*
X5513397Y4475283D1*
X5497967Y4454047D1*
X5487657Y4443113D1*
X5943047Y3987330D1*
X5952297Y3974597D1*
X5959443Y3960577D1*
X5964313Y3945580D1*
X5977567Y3936033D1*
X5997530Y3918987D1*
X6014577Y3899023D1*
X6028293Y3876640D1*
X6038340Y3852390D1*
X6044467Y3826863D1*
X6046527Y3800693D1*
X6044467Y3774523D1*
X6038340Y3748997D1*
X6028293Y3724747D1*
X6014577Y3702363D1*
X5997530Y3682400D1*
X5990990Y3675913D1*
X6004577Y3657217D1*
X6015067Y3636623D1*
X6022210Y3614640D1*
X6025827Y3591813D1*
X6026280Y3533590D1*
X6025827Y3408700D1*
X6022210Y3385873D1*
X6015553Y3365207D1*
X6154983Y3365230D1*
X11071677Y3130660D2*
X11059463Y3120690D1*
X11038417Y3107793D1*
X11015617Y3098347D1*
X10991617Y3092587D1*
X10967010Y3090650D1*
X10942403Y3092587D1*
X10918403Y3098347D1*
X10895603Y3107793D1*
X10874557Y3120690D1*
X10862343Y3130660D1*
X8718013Y3130650D1*
X8705723Y3120690D1*
X8684677Y3107793D1*
X8661877Y3098347D1*
X8637877Y3092587D1*
X8613270Y3090650D1*
X8588663Y3092587D1*
X8564663Y3098347D1*
X8541863Y3107793D1*
X8520817Y3120690D1*
X8508603Y3130660D1*
X7551877Y3130650D1*
X7553020Y3114533D1*
X7551567Y3096060D1*
X7547240Y3078040D1*
X7540150Y3060920D1*
X7530467Y3045123D1*
X7527217Y3040997D1*
X7527220Y2961133D1*
X7551723Y2965093D1*
X7574837D1*
X7597663Y2961477D1*
X7619647Y2954333D1*
X7640240Y2943843D1*
X7658937Y2930257D1*
X7675280Y2913913D1*
X7688867Y2895217D1*
X7690213Y2892810D1*
X7698120Y2904830D1*
X7713130Y2922407D1*
X7730707Y2937417D1*
X7750413Y2949493D1*
X7771763Y2958337D1*
X7794240Y2963733D1*
X7817280Y2965547D1*
X7840320Y2963733D1*
X7862797Y2958337D1*
X7884147Y2949493D1*
X7903853Y2937417D1*
X7921430Y2922407D1*
X7936440Y2904830D1*
X7944213Y2892810D1*
X7952120Y2904830D1*
X7967130Y2922407D1*
X7984707Y2937417D1*
X8004413Y2949493D1*
X8025763Y2958337D1*
X8048240Y2963733D1*
X8071280Y2965547D1*
X8094320Y2963733D1*
X8116797Y2958337D1*
X8138147Y2949493D1*
X8157853Y2937417D1*
X8175430Y2922407D1*
X8190440Y2904830D1*
X8202517Y2885123D1*
X8211360Y2863773D1*
X8216757Y2841297D1*
X8218570Y2818257D1*
X8218117Y2646700D1*
X8214500Y2623873D1*
X8207357Y2601890D1*
X8198873Y2584883D1*
X8230727Y2553010D1*
X8754027Y2552997D1*
X8754017Y2965547D1*
X9048597D1*
Y2919700D1*
X9059650Y2930257D1*
X9078347Y2943843D1*
X9098940Y2954333D1*
X9120923Y2961477D1*
X9143750Y2965093D1*
X9166863D1*
X9189690Y2961477D1*
X9211673Y2954333D1*
X9232267Y2943843D1*
X9250963Y2930257D1*
X9267307Y2913913D1*
X9280893Y2895217D1*
X9282240Y2892810D1*
X9290147Y2904830D1*
X9305157Y2922407D1*
X9322733Y2937417D1*
X9342440Y2949493D1*
X9363790Y2958337D1*
X9386267Y2963733D1*
X9409307Y2965547D1*
X9432347Y2963733D1*
X9454823Y2958337D1*
X9476173Y2949493D1*
X9495880Y2937417D1*
X9513457Y2922407D1*
X9528467Y2904830D1*
X9536240Y2892810D1*
X9544147Y2904830D1*
X9559157Y2922407D1*
X9576733Y2937417D1*
X9596440Y2949493D1*
X9617790Y2958337D1*
X9640267Y2963733D1*
X9663307Y2965547D1*
X9686347Y2963733D1*
X9708823Y2958337D1*
X9730173Y2949493D1*
X9749880Y2937417D1*
X9767457Y2922407D1*
X9782467Y2904830D1*
X9790240Y2892810D1*
X9798147Y2904830D1*
X9813157Y2922407D1*
X9830733Y2937417D1*
X9850440Y2949493D1*
X9871790Y2958337D1*
X9894267Y2963733D1*
X9917307Y2965547D1*
X9940347Y2963733D1*
X9962823Y2958337D1*
X9984173Y2949493D1*
X10003880Y2937417D1*
X10021457Y2922407D1*
X10036467Y2904830D1*
X10048543Y2885123D1*
X10057387Y2863773D1*
X10062783Y2841297D1*
X10064597Y2818257D1*
X10064143Y2646700D1*
X10060527Y2623873D1*
X10053383Y2601890D1*
X10042893Y2581297D1*
X10034090Y2568667D1*
X11107397Y2568633D1*
X11107443Y2965547D1*
X11402023D1*
Y2919700D1*
X11413077Y2930257D1*
X11431773Y2943843D1*
X11452367Y2954333D1*
X11474350Y2961477D1*
X11497177Y2965093D1*
X11520290D1*
X11543117Y2961477D1*
X11565100Y2954333D1*
X11585693Y2943843D1*
X11604390Y2930257D1*
X11620733Y2913913D1*
X11634320Y2895217D1*
X11635667Y2892810D1*
X11643573Y2904830D1*
X11658583Y2922407D1*
X11676160Y2937417D1*
X11695867Y2949493D1*
X11717217Y2958337D1*
X11739693Y2963733D1*
X11762733Y2965547D1*
X11785773Y2963733D1*
X11808250Y2958337D1*
X11829600Y2949493D1*
X11849307Y2937417D1*
X11866883Y2922407D1*
X11881893Y2904830D1*
X11889667Y2892810D1*
X11897573Y2904830D1*
X11912583Y2922407D1*
X11930160Y2937417D1*
X11949867Y2949493D1*
X11971217Y2958337D1*
X11993693Y2963733D1*
X12016733Y2965547D1*
X12039773Y2963733D1*
X12062250Y2958337D1*
X12083600Y2949493D1*
X12103307Y2937417D1*
X12120883Y2922407D1*
X12135893Y2904830D1*
X12143667Y2892810D1*
X12151573Y2904830D1*
X12166583Y2922407D1*
X12184160Y2937417D1*
X12203867Y2949493D1*
X12225217Y2958337D1*
X12247693Y2963733D1*
X12270733Y2965547D1*
X12293773Y2963733D1*
X12316250Y2958337D1*
X12337600Y2949493D1*
X12357307Y2937417D1*
X12374883Y2922407D1*
X12389893Y2904830D1*
X12401970Y2885123D1*
X12410813Y2863773D1*
X12416210Y2841297D1*
X12418023Y2818257D1*
X12417570Y2646700D1*
X12413953Y2623873D1*
X12406810Y2601890D1*
X12396320Y2581297D1*
X12382733Y2562600D1*
X12371003Y2550520D1*
X12370713Y2400047D1*
X12368253Y2384503D1*
X12363390Y2369537D1*
X12356243Y2355517D1*
X12346993Y2342783D1*
X12263370Y2258720D1*
X12251403Y2248500D1*
X12237983Y2240277D1*
X12223443Y2234253D1*
X12208143Y2230580D1*
X12192423Y2229347D1*
X10918137Y2228950D1*
X10901623Y2220537D1*
X10884000Y2214810D1*
X10865700Y2211910D1*
X10847167D1*
X10828867Y2214810D1*
X10811243Y2220537D1*
X10794730Y2228950D1*
X10779740Y2239840D1*
X10766637Y2252943D1*
X10755747Y2267933D1*
X10747333Y2284447D1*
X10741607Y2302070D1*
X10738707Y2320370D1*
Y2338903D1*
X10741607Y2357203D1*
X10744837Y2368067D1*
X9948227Y2368053D1*
X9746083Y2165997D1*
X12828903Y2166037D1*
X13459940Y2797080D1*
X13460220Y2977990D1*
X13462680Y2993533D1*
X13467543Y3008500D1*
X13474690Y3022520D1*
X13483940Y3035253D1*
X13555280Y3107033D1*
X13578933Y3130687D1*
X13425410Y3130650D1*
X13413087Y3120690D1*
X13392040Y3107793D1*
X13369240Y3098347D1*
X13345240Y3092587D1*
X13320633Y3090650D1*
X13296027Y3092587D1*
X13272027Y3098347D1*
X13249227Y3107793D1*
X13228180Y3120690D1*
X13215967Y3130660D1*
X11071803Y3130650D1*
X10862343Y3365220D2*
X10874557Y3375190D1*
X10895603Y3388087D1*
X10918403Y3397533D1*
X10942403Y3403293D1*
X10967010Y3405230D1*
X10991617Y3403293D1*
X11015617Y3397533D1*
X11038417Y3388087D1*
X11059463Y3375190D1*
X11071677Y3365220D1*
X11118040Y3365230D1*
X11111513Y3385873D1*
X11107897Y3408700D1*
X11107443Y3466923D1*
X11107897Y3591813D1*
X11111513Y3614640D1*
X11118657Y3636623D1*
X11129147Y3657217D1*
X11137447Y3669210D1*
X11137443Y3762120D1*
X11119353Y3783170D1*
X11105637Y3805553D1*
X11095590Y3829803D1*
X11089463Y3855330D1*
X11087403Y3881500D1*
X11089463Y3907670D1*
X11095590Y3933197D1*
X11105637Y3957447D1*
X11119353Y3979830D1*
X11136400Y3999793D1*
X11156363Y4016840D1*
X11178747Y4030557D1*
X11181213Y4031697D1*
X11017750Y4031710D1*
X10767700Y3781693D1*
X10767667Y3698060D1*
X10783457Y3684407D1*
X10798467Y3666830D1*
X10810543Y3647123D1*
X10819387Y3625773D1*
X10824783Y3603297D1*
X10826597Y3580257D1*
X10826143Y3408700D1*
X10822527Y3385873D1*
X10815870Y3365207D1*
X10862127Y3365230D1*
X4153913Y7783867D2*
X4141700Y7773897D1*
X4120653Y7761000D1*
X4097853Y7751553D1*
X4073853Y7745793D1*
X4049247Y7743857D1*
X4024640Y7745793D1*
X4000640Y7751553D1*
X3977840Y7761000D1*
X3956793Y7773897D1*
X3946917Y7781707D1*
X3846113Y7680867D1*
X3843087Y3365183D1*
X3870860Y3365230D1*
X3883140Y3375190D1*
X3904187Y3388087D1*
X3926987Y3397533D1*
X3950987Y3403293D1*
X3975593Y3405230D1*
X4000200Y3403293D1*
X4024200Y3397533D1*
X4047000Y3388087D1*
X4068047Y3375190D1*
X4080260Y3365220D1*
X4218313Y3365230D1*
X4211770Y3385873D1*
X4208153Y3408700D1*
X4207700Y3466923D1*
X4208153Y3591813D1*
X4211770Y3614640D1*
X4218913Y3636623D1*
X4229403Y3657217D1*
X4242990Y3675913D1*
X4254720Y3687993D1*
X4254303Y3890503D1*
X4245890Y3907017D1*
X4240163Y3924640D1*
X4237263Y3942940D1*
Y3961473D1*
X4240163Y3979773D1*
X4245890Y3997397D1*
X4254303Y4013910D1*
X4265193Y4028900D1*
X4278297Y4042003D1*
X4293287Y4052893D1*
X4309800Y4061307D1*
X4327423Y4067033D1*
X4345723Y4069933D1*
X4364257D1*
X4382557Y4067033D1*
X4400180Y4061307D1*
X4416693Y4052893D1*
X4431683Y4042003D1*
X4444787Y4028900D1*
X4455677Y4013910D1*
X4464090Y3997397D1*
X4469817Y3979773D1*
X4472717Y3961473D1*
Y3942940D1*
X4469817Y3924640D1*
X4464090Y3907017D1*
X4455297Y3889933D1*
X4455280Y3688157D1*
X4466990Y3675913D1*
X4480577Y3657217D1*
X4481923Y3654810D1*
X4489830Y3666830D1*
X4504840Y3684407D1*
X4508720Y3687993D1*
X4508303Y3895230D1*
X4499890Y3911743D1*
X4494163Y3929367D1*
X4491263Y3947667D1*
Y3966200D1*
X4494163Y3984500D1*
X4499890Y4002123D1*
X4508303Y4018637D1*
X4519193Y4033627D1*
X4532297Y4046730D1*
X4547287Y4057620D1*
X4563800Y4066033D1*
X4581423Y4071760D1*
X4599723Y4074660D1*
X4618257D1*
X4636557Y4071760D1*
X4654180Y4066033D1*
X4670693Y4057620D1*
X4685683Y4046730D1*
X4698787Y4033627D1*
X4709677Y4018637D1*
X4718090Y4002123D1*
X4723817Y3984500D1*
X4726717Y3966200D1*
Y3947667D1*
X4723817Y3929367D1*
X4718090Y3911743D1*
X4709297Y3894660D1*
X4709280Y3688143D1*
X4720990Y3675913D1*
X4734577Y3657217D1*
X4745067Y3636623D1*
X4752210Y3614640D1*
X4755827Y3591813D1*
X4756280Y3533590D1*
X4755827Y3408700D1*
X4752210Y3385873D1*
X4745553Y3365207D1*
X4980293Y3365230D1*
X4973770Y3385873D1*
X4970153Y3408700D1*
X4969700Y3466923D1*
X4970153Y3591813D1*
X4973770Y3614640D1*
X4980913Y3636623D1*
X4991403Y3657217D1*
X5004990Y3675913D1*
X5016720Y3687993D1*
X5016700Y5193290D1*
X5006090Y5183023D1*
X4991100Y5172133D1*
X4974587Y5163720D1*
X4956963Y5157993D1*
X4938663Y5155093D1*
X4920130D1*
X4901830Y5157993D1*
X4884207Y5163720D1*
X4867693Y5172133D1*
X4852703Y5183023D1*
X4846293Y5188950D1*
X4832793Y5175370D1*
X4817803Y5164480D1*
X4801290Y5156067D1*
X4783667Y5150340D1*
X4765367Y5147440D1*
X4746833D1*
X4728533Y5150340D1*
X4710910Y5156067D1*
X4694397Y5164480D1*
X4679407Y5175370D1*
X4677570Y5177067D1*
X4661440Y5162983D1*
X4645643Y5153300D1*
X4628523Y5146210D1*
X4610503Y5141883D1*
X4592030Y5140430D1*
X4573557Y5141883D1*
X4555537Y5146210D1*
X4538417Y5153300D1*
X4522620Y5162983D1*
X4508527Y5175017D1*
X4496493Y5189110D1*
X4486810Y5204907D1*
X4479720Y5222027D1*
X4477070Y5231627D1*
X4351220Y5357937D1*
X4341970Y5370670D1*
X4334823Y5384690D1*
X4329960Y5399657D1*
X4327500Y5415200D1*
X4327190Y5516403D1*
X4326793Y5732297D1*
X4318380Y5748810D1*
X4312250Y5768457D1*
X4294610Y5762690D1*
X4276310Y5759790D1*
X4257777D1*
X4239477Y5762690D1*
X4221853Y5768417D1*
X4205340Y5776830D1*
X4190350Y5787720D1*
X4177247Y5800823D1*
X4166357Y5815813D1*
X4157943Y5832327D1*
X4152217Y5849950D1*
X4149317Y5868250D1*
Y5886783D1*
X4152217Y5905083D1*
X4157943Y5922707D1*
X4166357Y5939220D1*
X4177247Y5954210D1*
X4182483Y5959877D1*
X4168567Y5973623D1*
X4157677Y5988613D1*
X4149263Y6005127D1*
X4143537Y6022750D1*
X4140637Y6041050D1*
Y6059583D1*
X4143537Y6077883D1*
X4149263Y6095507D1*
X4157677Y6112020D1*
X4168567Y6127010D1*
X4181670Y6140113D1*
X4196660Y6151003D1*
X4213173Y6159417D1*
X4230797Y6165143D1*
X4249097Y6168043D1*
X4267630D1*
X4285930Y6165143D1*
X4303553Y6159417D1*
X4320637Y6150623D1*
X4483363Y6150297D1*
X4498907Y6147837D1*
X4513873Y6142973D1*
X4527893Y6135827D1*
X4540650Y6126557D1*
X4550880Y6142970D1*
X4565390Y6162940D1*
X4582840Y6180390D1*
X4602810Y6194900D1*
X4624800Y6206103D1*
X4648273Y6213730D1*
X4672653Y6217593D1*
X4697333D1*
X4721713Y6213730D1*
X4745187Y6206103D1*
X4767177Y6194900D1*
X4771790Y6191817D1*
X4773650Y6210607D1*
X4779777Y6236133D1*
X4789823Y6260383D1*
X4803540Y6282767D1*
X4820587Y6302730D1*
X4840550Y6319777D1*
X4862933Y6333493D1*
X4887183Y6343540D1*
X4912710Y6349667D1*
X4938880Y6351727D1*
X4965050Y6349667D1*
X4990577Y6343540D1*
X5014827Y6333493D1*
X5037210Y6319777D1*
X5057173Y6302730D1*
X5058113Y6301710D1*
X5074183Y6302730D1*
X5094147Y6319777D1*
X5116530Y6333493D1*
X5140780Y6343540D1*
X5166307Y6349667D1*
X5192477Y6351727D1*
X5218647Y6349667D1*
X5244173Y6343540D1*
X5268423Y6333493D1*
X5290807Y6319777D1*
X5310770Y6302730D1*
X5327817Y6282767D1*
X5341533Y6260383D1*
X5351580Y6236133D1*
X5357707Y6210607D1*
X5359767Y6184437D1*
X5357707Y6158267D1*
X5351580Y6132740D1*
X5341533Y6108490D1*
X5327817Y6086107D1*
X5310770Y6066143D1*
X5290807Y6049097D1*
X5268423Y6035380D1*
X5244173Y6025333D1*
X5218647Y6019207D1*
X5192477Y6017147D1*
X5166307Y6019207D1*
X5140780Y6025333D1*
X5116530Y6035380D1*
X5094147Y6049097D1*
X5074183Y6066143D1*
X5073243Y6067163D1*
X5057173Y6066143D1*
X5037210Y6049097D1*
X5014827Y6035380D1*
X4990577Y6025333D1*
X4965050Y6019207D1*
X4938880Y6017147D1*
X4912710Y6019207D1*
X4887183Y6025333D1*
X4862933Y6035380D1*
X4841787Y6048270D1*
X4837937Y6024067D1*
X4830310Y6000593D1*
X4819107Y5978603D1*
X4804597Y5958633D1*
X4787147Y5941183D1*
X4767177Y5926673D1*
X4749960Y5917670D1*
X5005657Y5661547D1*
X5014907Y5648813D1*
X5022053Y5634793D1*
X5026917Y5619827D1*
X5029377Y5604283D1*
X5029687Y5503080D1*
Y5412573D1*
X5040730Y5428260D1*
X5112070Y5500040D1*
X5585923Y5974453D1*
X5591650Y5992077D1*
X5600063Y6008590D1*
X5610953Y6023580D1*
X5624057Y6036683D1*
X5639047Y6047573D1*
X5655560Y6055987D1*
X5673183Y6061713D1*
X5691483Y6064613D1*
X5710017D1*
X5728317Y6061713D1*
X5745940Y6055987D1*
X5762453Y6047573D1*
X5777443Y6036683D1*
X5790547Y6023580D1*
X5801437Y6008590D1*
X5809850Y5992077D1*
X5815577Y5974453D1*
X5818477Y5956153D1*
Y5937620D1*
X5815577Y5919320D1*
X5809850Y5901697D1*
X5801437Y5885183D1*
X5790547Y5870193D1*
X5777443Y5857090D1*
X5762453Y5846200D1*
X5745940Y5837787D1*
X5727643Y5831927D1*
X5217333Y5321637D1*
X5217280Y5004467D1*
X5231180Y5012827D1*
X5248300Y5019917D1*
X5266320Y5024243D1*
X5284793Y5025697D1*
X5303267Y5024243D1*
X5321287Y5019917D1*
X5338407Y5012827D1*
X5354203Y5003143D1*
X5368297Y4991110D1*
X5380330Y4977017D1*
X5390013Y4961220D1*
X5397103Y4944100D1*
X5399753Y4934500D1*
X5720133Y4614390D1*
X5730180Y4638640D1*
X5743897Y4661023D1*
X5760943Y4680987D1*
X5778930Y4696477D1*
X5779257Y5570510D1*
X5781717Y5586053D1*
X5786580Y5601020D1*
X5793727Y5615040D1*
X5802977Y5627773D1*
X5874317Y5699553D1*
X6424653Y6249890D1*
X6422940Y6273633D1*
X6425000Y6299803D1*
X6431127Y6325330D1*
X6441173Y6349580D1*
X6454890Y6371963D1*
X6471937Y6391927D1*
X6491900Y6408973D1*
X6514283Y6422690D1*
X6538533Y6432737D1*
X6563203Y6438693D1*
X6549203Y6447590D1*
X4990517Y6447193D1*
X4974003Y6438780D1*
X4956380Y6433053D1*
X4938080Y6430153D1*
X4919547D1*
X4901247Y6433053D1*
X4883623Y6438780D1*
X4867110Y6447193D1*
X4852120Y6458083D1*
X4839017Y6471187D1*
X4828127Y6486177D1*
X4819713Y6502690D1*
X4813987Y6520313D1*
X4811087Y6538613D1*
Y6557147D1*
X4813987Y6575447D1*
X4819713Y6593070D1*
X4828127Y6609583D1*
X4839017Y6624573D1*
X4852320Y6637833D1*
X4042597Y6637387D1*
X4024063D1*
X4005763Y6640287D1*
X3988140Y6646013D1*
X3971627Y6654427D1*
X3956637Y6665317D1*
X3943533Y6678420D1*
X3932643Y6693410D1*
X3924230Y6709923D1*
X3918503Y6727547D1*
X3915603Y6745847D1*
Y6764380D1*
X3918503Y6782680D1*
X3924230Y6800303D1*
X3932643Y6816817D1*
X3943533Y6831807D1*
X3956637Y6844910D1*
X3971627Y6855800D1*
X3988140Y6864213D1*
X4005763Y6869940D1*
X4024063Y6872840D1*
X4042597D1*
X4056663Y6872403D1*
X4788837D1*
X4779777Y6894740D1*
X4775000Y6913473D1*
X4527703Y6913497D1*
Y7153483D1*
X4283787Y7153477D1*
Y7608057D1*
X4578367D1*
Y7562210D1*
X4589420Y7572767D1*
X4608117Y7586353D1*
X4628710Y7596843D1*
X4650693Y7603987D1*
X4673520Y7607603D1*
X4696633D1*
X4719460Y7603987D1*
X4741443Y7596843D1*
X4762037Y7586353D1*
X4780733Y7572767D1*
X4797077Y7556423D1*
X4810663Y7537727D1*
X4812010Y7535320D1*
X4821790Y7549720D1*
X4821787Y7783903D1*
X4154037Y7783857D1*
X4080260Y3130660D2*
X4068047Y3120690D1*
X4047000Y3107793D1*
X4024200Y3098347D1*
X4000200Y3092587D1*
X3975593Y3090650D1*
X3950987Y3092587D1*
X3926987Y3098347D1*
X3904187Y3107793D1*
X3883140Y3120690D1*
X3870927Y3130660D1*
X3842977Y3130650D1*
X3842023Y2435403D1*
X3839953Y2428230D1*
X3836267Y2421740D1*
X3831170Y2416290D1*
X3824940Y2412180D1*
X3817920Y2409640D1*
X3810503Y2408807D1*
X3231647Y2412263D1*
X3205257Y1133783D1*
X3714137Y1134217D1*
X3711780Y1151493D1*
X3711297Y1210500D1*
X3711780Y1356173D1*
X3715643Y1380553D1*
X3723270Y1404027D1*
X3734473Y1426017D1*
X3748983Y1445987D1*
X3766433Y1463437D1*
X3786403Y1477947D1*
X3808393Y1489150D1*
X3831867Y1496777D1*
X3856247Y1500640D1*
X3880927D1*
X3905307Y1496777D1*
X3928780Y1489150D1*
X3950770Y1477947D1*
X3970740Y1463437D1*
X3988190Y1445987D1*
X3995567Y1436627D1*
X4011367Y1455053D1*
X4030133Y1471083D1*
X4051180Y1483980D1*
X4073980Y1493427D1*
X4097980Y1499187D1*
X4122587Y1501123D1*
X4147193Y1499187D1*
X4171193Y1493427D1*
X4193993Y1483980D1*
X4215040Y1471083D1*
X4233807Y1455053D1*
X4249567Y1436627D1*
X4265367Y1455053D1*
X4284133Y1471083D1*
X4305180Y1483980D1*
X4327980Y1493427D1*
X4351980Y1499187D1*
X4376587Y1501123D1*
X4401193Y1499187D1*
X4425193Y1493427D1*
X4447993Y1483980D1*
X4469040Y1471083D1*
X4487807Y1455053D1*
X4503567Y1436627D1*
X4519367Y1455053D1*
X4538133Y1471083D1*
X4559180Y1483980D1*
X4581980Y1493427D1*
X4605980Y1499187D1*
X4630587Y1501123D1*
X4655193Y1499187D1*
X4679193Y1493427D1*
X4701993Y1483980D1*
X4723040Y1471083D1*
X4741807Y1455053D1*
X4757837Y1436287D1*
X4770733Y1415240D1*
X4780180Y1392440D1*
X4785940Y1368440D1*
X4787877Y1343833D1*
X4787393Y1151493D1*
X4785103Y1135017D1*
X7709970Y1137170D1*
X7708050Y1151760D1*
X7707567Y1210767D1*
X7708050Y1356440D1*
X7711913Y1380820D1*
X7719540Y1404293D1*
X7730743Y1426283D1*
X7745253Y1446253D1*
X7762703Y1463703D1*
X7782673Y1478213D1*
X7804663Y1489417D1*
X7828137Y1497043D1*
X7852517Y1500907D1*
X7877197D1*
X7901577Y1497043D1*
X7925050Y1489417D1*
X7947040Y1478213D1*
X7967010Y1463703D1*
X7984460Y1446253D1*
X7991837Y1436893D1*
X8007637Y1455320D1*
X8026403Y1471350D1*
X8047450Y1484247D1*
X8070250Y1493693D1*
X8094250Y1499453D1*
X8118857Y1501390D1*
X8143463Y1499453D1*
X8167463Y1493693D1*
X8190263Y1484247D1*
X8211310Y1471350D1*
X8230077Y1455320D1*
X8245837Y1436893D1*
X8261637Y1455320D1*
X8280403Y1471350D1*
X8301450Y1484247D1*
X8324250Y1493693D1*
X8348250Y1499453D1*
X8372857Y1501390D1*
X8397463Y1499453D1*
X8421463Y1493693D1*
X8444263Y1484247D1*
X8465310Y1471350D1*
X8484077Y1455320D1*
X8499837Y1436893D1*
X8515637Y1455320D1*
X8534403Y1471350D1*
X8546820Y1479413D1*
X8555940Y1489913D1*
X8892950Y1826920D1*
X8011480Y1827277D1*
X7995937Y1829737D1*
X7980970Y1834600D1*
X7966950Y1841747D1*
X7954217Y1850997D1*
X7882437Y1922337D1*
X7475127Y2330087D1*
X7465877Y2342820D1*
X7458730Y2356840D1*
X7453867Y2371807D1*
X7451407Y2387350D1*
X7451097Y2488553D1*
Y2562837D1*
X7437693Y2581297D1*
X7436347Y2583703D1*
X7428440Y2571683D1*
X7413430Y2554107D1*
X7395853Y2539097D1*
X7376147Y2527020D1*
X7354797Y2518177D1*
X7332320Y2512780D1*
X7309280Y2510967D1*
X7286240Y2512780D1*
X7263763Y2518177D1*
X7242413Y2527020D1*
X7222707Y2539097D1*
X7205130Y2554107D1*
X7190120Y2571683D1*
X7182347Y2583703D1*
X7174440Y2571683D1*
X7159430Y2554107D1*
X7141853Y2539097D1*
X7122147Y2527020D1*
X7100797Y2518177D1*
X7078320Y2512780D1*
X7055280Y2510967D1*
X7032240Y2512780D1*
X7009763Y2518177D1*
X6988413Y2527020D1*
X6968707Y2539097D1*
X6951130Y2554107D1*
X6936120Y2571683D1*
X6928347Y2583703D1*
X6920440Y2571683D1*
X6905430Y2554107D1*
X6887853Y2539097D1*
X6868147Y2527020D1*
X6846797Y2518177D1*
X6824320Y2512780D1*
X6801280Y2510967D1*
X6778240Y2512780D1*
X6755763Y2518177D1*
X6734413Y2527020D1*
X6714707Y2539097D1*
X6697130Y2554107D1*
X6694583Y2556860D1*
X6694570Y2510967D1*
X6461877D1*
X6324207Y2373790D1*
X6311473Y2364540D1*
X6297453Y2357393D1*
X6282487Y2352530D1*
X6266943Y2350070D1*
X6165740Y2349760D1*
X4762467Y2350070D1*
X4746923Y2352530D1*
X4731957Y2357393D1*
X4717937Y2364540D1*
X4705203Y2373790D1*
X4633423Y2445130D1*
X4563850Y2515147D1*
X4552623Y2522180D1*
X4532030Y2532670D1*
X4513333Y2546257D1*
X4502293Y2556860D1*
X4502280Y2510967D1*
X4207700D1*
Y2965547D1*
X4502280D1*
Y2919700D1*
X4513333Y2930257D1*
X4532030Y2943843D1*
X4552623Y2954333D1*
X4574607Y2961477D1*
X4597433Y2965093D1*
X4620547D1*
X4643373Y2961477D1*
X4665357Y2954333D1*
X4685950Y2943843D1*
X4704647Y2930257D1*
X4720990Y2913913D1*
X4734577Y2895217D1*
X4735923Y2892810D1*
X4745703Y2907210D1*
X4745700Y3130640D1*
X4080320Y3130650D1*
X4842283Y7189703D2*
Y7167100D1*
X4852910Y7163443D1*
X4866930Y7156297D1*
X4879663Y7147047D1*
X4915157Y7111990D1*
X4938880Y7113727D1*
X4965050Y7111667D1*
X4990577Y7105540D1*
X5014827Y7095493D1*
X5037210Y7081777D1*
X5057173Y7064730D1*
X5065637Y7055573D1*
X5083830Y7073643D1*
X5092170Y7080220D1*
X5092187Y7193533D1*
X5081077Y7205110D1*
X5067490Y7223807D1*
X5066143Y7226213D1*
X5058237Y7214193D1*
X5043227Y7196617D1*
X5025650Y7181607D1*
X5005943Y7169530D1*
X4984593Y7160687D1*
X4962117Y7155290D1*
X4939077Y7153477D1*
X4916037Y7155290D1*
X4893560Y7160687D1*
X4872210Y7169530D1*
X4852503Y7181607D1*
X4842260Y7189840D1*
X13237613Y10239627D2*
X13235423Y10221123D1*
X13231787Y10202850D1*
X13226730Y10184917D1*
X13220280Y10167437D1*
X13212480Y10150517D1*
X13203377Y10134260D1*
X13193023Y10118770D1*
X13181490Y10104137D1*
X13168843Y10090453D1*
X13155160Y10077807D1*
X13140530Y10066273D1*
X13125037Y10055920D1*
X13101313Y10043373D1*
X13101343Y9850183D1*
X13117477Y9835997D1*
X13134523Y9816033D1*
X13148240Y9793650D1*
X13158287Y9769400D1*
X13164413Y9743873D1*
X13166473Y9717703D1*
X13164413Y9691533D1*
X13158287Y9666007D1*
X13148240Y9641757D1*
X13134523Y9619373D1*
X13117477Y9599410D1*
X13097513Y9582363D1*
X13075130Y9568647D1*
X13050880Y9558600D1*
X13025353Y9552473D1*
X12999183Y9550413D1*
X12973013Y9552473D1*
X12947487Y9558600D1*
X12923237Y9568647D1*
X12900853Y9582363D1*
X12880890Y9599410D1*
X12863843Y9619373D1*
X12850127Y9641757D1*
X12840080Y9666007D1*
X12833953Y9691533D1*
X12831893Y9717703D1*
X12833953Y9743873D1*
X12840080Y9769400D1*
X12850127Y9793650D1*
X12863843Y9816033D1*
X12880890Y9835997D1*
X12900733Y9852950D1*
X12900763Y10043233D1*
X12877070Y10055920D1*
X12861577Y10066273D1*
X12846947Y10077807D1*
X12833263Y10090453D1*
X12820617Y10104137D1*
X12809083Y10118770D1*
X12798730Y10134260D1*
X12789627Y10150517D1*
X12781827Y10167437D1*
X12775377Y10184917D1*
X12770320Y10202850D1*
X12766683Y10221123D1*
X12764493Y10239627D1*
X12763763Y10258243D1*
X12764493Y10276863D1*
X12766683Y10295363D1*
X12770320Y10313640D1*
X12775377Y10331570D1*
X12781827Y10349050D1*
X12789627Y10365970D1*
X12798730Y10382227D1*
X12809083Y10397720D1*
X12820617Y10412353D1*
X12833263Y10426033D1*
X12846947Y10438680D1*
X12861577Y10450217D1*
X12877070Y10460567D1*
X12893327Y10469670D1*
X12910247Y10477470D1*
X12927727Y10483920D1*
X12945660Y10488977D1*
X12963933Y10492613D1*
X12982437Y10494803D1*
X13001053Y10495533D1*
X13019670Y10494803D1*
X13038173Y10492613D1*
X13056447Y10488977D1*
X13074380Y10483920D1*
X13091860Y10477470D1*
X13108780Y10469670D1*
X13125037Y10460567D1*
X13140530Y10450217D1*
X13155160Y10438680D1*
X13168843Y10426033D1*
X13181490Y10412353D1*
X13193023Y10397720D1*
X13203377Y10382227D1*
X13212480Y10365970D1*
X13220280Y10349050D1*
X13226730Y10331570D1*
X13231787Y10313640D1*
X13235423Y10295363D1*
X13237613Y10276863D1*
X13238343Y10258243D1*
X13237613Y10239627D1*
X4866427Y8833933D2*
X4866220Y8783780D1*
X4864567Y8773350D1*
X4861303Y8763310D1*
X4856510Y8753900D1*
X4850303Y8745360D1*
X4846703Y8741463D1*
X4847937Y8738140D1*
X4945737D1*
X4948730Y8747773D1*
Y8751693D1*
X4866413Y8833953D1*
X7827790Y6262717D2*
X7826543Y6252170D1*
X7911167Y6167523D1*
X8295047Y6167480D1*
X8282477Y6175547D1*
X7968347Y6175857D1*
X7952803Y6178317D1*
X7937837Y6183180D1*
X7923817Y6190327D1*
X7911083Y6199577D1*
X7828153Y6282067D1*
X7827790Y6262717D1*
X7636630Y6872403D2*
X7621963Y6875177D1*
X7596997Y6883287D1*
X7573607Y6895207D1*
X7552370Y6910637D1*
X7533810Y6929197D1*
X7528503Y6935927D1*
X7514187Y6919550D1*
X7494223Y6902503D1*
X7471840Y6888787D1*
X7464620Y6885457D1*
X7477597Y6872440D1*
X7636223Y6872403D1*
X6462727Y7277163D2*
X6444687Y7259167D1*
X6436347Y7252590D1*
X6436020Y7118167D1*
X6433560Y7102623D1*
X6428697Y7087657D1*
X6421550Y7073637D1*
X6412300Y7060903D1*
X6353380Y7001543D1*
X6341413Y6991323D1*
X6327993Y6983100D1*
X6313453Y6977077D1*
X6298153Y6973403D1*
X6282463Y6972170D1*
X5780627Y6972480D1*
X5765083Y6974940D1*
X5750117Y6979803D1*
X5736097Y6986950D1*
X5723363Y6996200D1*
X5651583Y7067540D1*
X5615853Y7103710D1*
X5606603Y7116443D1*
X5599457Y7130463D1*
X5594593Y7145430D1*
X5592133Y7160973D1*
X5591823Y7201930D1*
X5581917Y7214193D1*
X5574143Y7226213D1*
X5566237Y7214193D1*
X5551227Y7196617D1*
X5533650Y7181607D1*
X5513943Y7169530D1*
X5492593Y7160687D1*
X5470117Y7155290D1*
X5447077Y7153477D1*
X5424037Y7155290D1*
X5401560Y7160687D1*
X5380210Y7169530D1*
X5360503Y7181607D1*
X5342927Y7196617D1*
X5327917Y7214193D1*
X5320143Y7226213D1*
X5312237Y7214193D1*
X5297227Y7196617D1*
X5292747Y7192477D1*
X5292767Y7080387D1*
X5310770Y7064730D1*
X5319737Y7055083D1*
X5338297Y7073643D1*
X5359533Y7089073D1*
X5382923Y7100993D1*
X5407890Y7109103D1*
X5433817Y7113210D1*
X5460070D1*
X5485997Y7109103D1*
X5510963Y7100993D1*
X5534353Y7089073D1*
X5555590Y7073643D1*
X5574150Y7055083D1*
X5589580Y7033847D1*
X5601500Y7010457D1*
X5609610Y6985490D1*
X5613717Y6959563D1*
Y6933310D1*
X5609610Y6907383D1*
X5601500Y6882417D1*
X5596880Y6872400D1*
X6551177Y6872967D1*
X6526210Y6881077D1*
X6502820Y6892997D1*
X6481583Y6908427D1*
X6463023Y6926987D1*
X6447593Y6948223D1*
X6435673Y6971613D1*
X6427563Y6996580D1*
X6423457Y7022507D1*
Y7048760D1*
X6427563Y7074687D1*
X6435673Y7099653D1*
X6447593Y7123043D1*
X6463023Y7144280D1*
X6481583Y7162840D1*
X6489923Y7169417D1*
X6489940Y7251377D1*
X6472067Y7266950D1*
X6462740Y7277120D1*
X6230820Y8018463D2*
X6217747Y8030080D1*
X6206640Y8042507D1*
X6101020Y8042477D1*
X6095490Y8018427D1*
X6230703Y8018437D1*
X5767387Y3676447D2*
X5752030Y3692047D1*
X5736600Y3713283D1*
X5724680Y3736673D1*
X5716570Y3761640D1*
X5712463Y3787567D1*
Y3813820D1*
X5716570Y3839747D1*
X5724680Y3864713D1*
X5736600Y3888103D1*
X5745770Y3901400D1*
X5294500Y4353090D1*
X5285250Y4365823D1*
X5278103Y4379843D1*
X5273240Y4394810D1*
X5270780Y4410353D1*
X5270470Y4418253D1*
X5262113Y4435487D1*
X5243553Y4454047D1*
X5228123Y4475283D1*
X5217300Y4496297D1*
X5217280Y3867333D1*
X5228123Y3888103D1*
X5243553Y3909340D1*
X5262113Y3927900D1*
X5283350Y3943330D1*
X5306740Y3955250D1*
X5331707Y3963360D1*
X5357633Y3967467D1*
X5383887D1*
X5409813Y3963360D1*
X5434780Y3955250D1*
X5458170Y3943330D1*
X5479407Y3927900D1*
X5497967Y3909340D1*
X5513397Y3888103D1*
X5525317Y3864713D1*
X5533427Y3839747D1*
X5537533Y3813820D1*
Y3787567D1*
X5533427Y3761640D1*
X5525317Y3736673D1*
X5513397Y3713283D1*
X5497967Y3692047D1*
X5482533Y3676377D1*
X5496577Y3657217D1*
X5497923Y3654810D1*
X5505830Y3666830D1*
X5520840Y3684407D1*
X5538417Y3699417D1*
X5558123Y3711493D1*
X5579473Y3720337D1*
X5601950Y3725733D1*
X5624990Y3727547D1*
X5648030Y3725733D1*
X5670507Y3720337D1*
X5691857Y3711493D1*
X5711563Y3699417D1*
X5729140Y3684407D1*
X5744150Y3666830D1*
X5751923Y3654810D1*
X5759830Y3666830D1*
X5767390Y3676347D1*
X5217300Y4629090D2*
X5228123Y4650103D1*
X5243553Y4671340D1*
X5262113Y4689900D1*
X5283350Y4705330D1*
X5306740Y4717250D1*
X5326620Y4723927D1*
X5257227Y4792780D1*
X5239603Y4798507D1*
X5223090Y4806920D1*
X5217280Y4810803D1*
Y4629310D1*
X11421467Y3868373D2*
X11417360Y3842447D1*
X11409250Y3817480D1*
X11397330Y3794090D1*
X11381900Y3772853D1*
X11372043Y3762337D1*
X11372023Y3669363D1*
X11381667Y3654810D1*
X11389573Y3666830D1*
X11404583Y3684407D1*
X11422160Y3699417D1*
X11441867Y3711493D1*
X11463217Y3720337D1*
X11485693Y3725733D1*
X11508733Y3727547D1*
X11531773Y3725733D1*
X11554250Y3720337D1*
X11575600Y3711493D1*
X11595307Y3699417D1*
X11612883Y3684407D1*
X11627893Y3666830D1*
X11635667Y3654810D1*
X11643573Y3666830D1*
X11658583Y3684407D1*
X11676160Y3699417D1*
X11695867Y3711493D1*
X11717217Y3720337D1*
X11739693Y3725733D1*
X11762733Y3727547D1*
X11785773Y3725733D1*
X11808250Y3720337D1*
X11829600Y3711493D1*
X11849307Y3699417D1*
X11866883Y3684407D1*
X11881893Y3666830D1*
X11889667Y3654810D1*
X11897573Y3666830D1*
X11912583Y3684407D1*
X11930160Y3699417D1*
X11949867Y3711493D1*
X11971523Y3720423D1*
X11952673Y3726943D1*
X11929283Y3738863D1*
X11908047Y3754293D1*
X11889487Y3772853D1*
X11874057Y3794090D1*
X11862137Y3817480D1*
X11854027Y3842447D1*
X11849920Y3868373D1*
Y3894627D1*
X11854027Y3920553D1*
X11862137Y3945520D1*
X11874057Y3968910D1*
X11889487Y3990147D1*
X11908047Y4008707D1*
X11929283Y4024137D1*
X11943213Y4031697D1*
X11328373Y4031710D1*
X11342103Y4024137D1*
X11363340Y4008707D1*
X11381900Y3990147D1*
X11397330Y3968910D1*
X11409250Y3945520D1*
X11417360Y3920553D1*
X11421467Y3894627D1*
Y3868373D1*
X12183467D2*
X12179360Y3842447D1*
X12171250Y3817480D1*
X12159330Y3794090D1*
X12143900Y3772853D1*
X12125340Y3754293D1*
X12104103Y3738863D1*
X12080713Y3726943D1*
X12061723Y3720517D1*
X12083600Y3711493D1*
X12103307Y3699417D1*
X12120883Y3684407D1*
X12135893Y3666830D1*
X12143667Y3654810D1*
X12151573Y3666830D1*
X12166583Y3684407D1*
X12184160Y3699417D1*
X12203867Y3711493D1*
X12225217Y3720337D1*
X12247693Y3725733D1*
X12270733Y3727547D1*
X12293773Y3725733D1*
X12316250Y3720337D1*
X12337600Y3711493D1*
X12357307Y3699417D1*
X12374883Y3684407D1*
X12389893Y3666830D1*
X12397667Y3654810D1*
X12405573Y3666830D1*
X12420583Y3684407D1*
X12438160Y3699417D1*
X12457867Y3711493D1*
X12479217Y3720337D1*
X12501693Y3725733D1*
X12524733Y3727547D1*
X12547773Y3725733D1*
X12570250Y3720337D1*
X12591600Y3711493D1*
X12611307Y3699417D1*
X12628883Y3684407D1*
X12643893Y3666830D1*
X12651667Y3654810D1*
X12659573Y3666830D1*
X12674583Y3684407D1*
X12678463Y3687993D1*
X12678443Y3944227D1*
X12673370Y3929260D1*
X12664957Y3912747D1*
X12654067Y3897757D1*
X12640963Y3884653D1*
X12625973Y3873763D1*
X12609460Y3865350D1*
X12591837Y3859623D1*
X12573537Y3856723D1*
X12555003D1*
X12536703Y3859623D1*
X12519080Y3865350D1*
X12502567Y3873763D1*
X12487577Y3884653D1*
X12474473Y3897757D1*
X12463583Y3912747D1*
X12455170Y3929260D1*
X12449310Y3947557D1*
X12365163Y4031723D1*
X12090353Y4031710D1*
X12104103Y4024137D1*
X12125340Y4008707D1*
X12143900Y3990147D1*
X12159330Y3968910D1*
X12171250Y3945520D1*
X12179360Y3920553D1*
X12183467Y3894627D1*
Y3868373D1*
X14884407Y1535007D2*
X14880300Y1509080D1*
X14872190Y1484113D1*
X14860270Y1460723D1*
X14844840Y1439487D1*
X14826280Y1420927D1*
X14805043Y1405497D1*
X14781653Y1393577D1*
X14765427Y1387930D1*
X14782473Y1375990D1*
X14914727D1*
X15693883Y2155140D1*
X15693820Y2481123D1*
X14855580Y1642800D1*
X14866690Y1624080D1*
X14876737Y1599830D1*
X14882863Y1574303D1*
X14884923Y1548133D1*
X14884407Y1535007D1*
X14844527Y2201147D2*
X14826280Y2182927D1*
X14817213Y2175777D1*
X14832613Y2162843D1*
X14844647Y2148750D1*
X14854330Y2132953D1*
X14861420Y2115833D1*
X14865963Y2095980D1*
X14920787Y2150797D1*
X14907470Y2155577D1*
X14884080Y2167497D1*
X14862843Y2182927D1*
X14844597Y2201147D1*
X14590530Y2418893D2*
X14608987Y2437340D1*
X14617327Y2443917D1*
X14617343Y2550120D1*
X14605330Y2562600D1*
X14591743Y2581297D1*
X14590397Y2583703D1*
X14582490Y2571683D1*
X14567480Y2554107D1*
X14563663Y2550580D1*
Y2444087D1*
X14581667Y2428427D1*
X14590477Y2418893D1*
X13868247Y1535007D2*
X13864140Y1509080D1*
X13856030Y1484113D1*
X13844387Y1461217D1*
X13980143Y1461227D1*
X14043260Y1524337D1*
X14041597Y1548133D1*
X14043657Y1574303D1*
X14049240Y1597903D1*
X13861133Y1597923D1*
X13866703Y1574303D1*
X13868763Y1548133D1*
X13868247Y1535007D1*
X13558560Y1461217D2*
X13546917Y1484113D1*
X13538807Y1509080D1*
X13534700Y1535007D1*
Y1561260D1*
X13538807Y1587187D1*
X13541827Y1597903D1*
X13232497Y1597527D1*
X13215983Y1589113D1*
X13198360Y1583387D1*
X13180060Y1580487D1*
X13161527D1*
X13143227Y1583387D1*
X13125603Y1589113D1*
X13109090Y1597527D1*
X13094100Y1608417D1*
X13080997Y1621520D1*
X13070107Y1636510D1*
X13061693Y1653023D1*
X13055967Y1670647D1*
X13053067Y1688947D1*
Y1707480D1*
X13053430Y1710537D1*
X9060190Y1710513D1*
X9002250Y1652557D1*
X9273343Y1652293D1*
X9288887Y1649833D1*
X9303853Y1644970D1*
X9317873Y1637823D1*
X9330607Y1628573D1*
X9402387Y1557233D1*
X9498353Y1461267D1*
X13558503Y1461227D1*
X13603697Y2174423D2*
X13592827Y2182927D1*
X13574267Y2201487D1*
X13558837Y2222723D1*
X13546917Y2246113D1*
X13538807Y2271080D1*
X13534700Y2297007D1*
Y2323260D1*
X13538807Y2349187D1*
X13546917Y2374153D1*
X13558837Y2397543D1*
X13574267Y2418780D1*
X13592827Y2437340D1*
X13601007Y2443790D1*
X13601040Y2510890D1*
X13554040Y2510967D1*
Y2607490D1*
X12974050Y2027527D1*
X13187410Y2027547D1*
X13181183Y2046563D1*
X13178283Y2064863D1*
Y2083397D1*
X13181183Y2101697D1*
X13186910Y2119320D1*
X13195323Y2135833D1*
X13206213Y2150823D1*
X13219317Y2163927D1*
X13234307Y2174817D1*
X13250820Y2183230D1*
X13268443Y2188957D1*
X13286743Y2191857D1*
X13305277D1*
X13323577Y2188957D1*
X13341200Y2183230D1*
X13358283Y2174437D1*
X13603627Y2174420D1*
X13801617Y2444043D2*
X13819767Y2428427D1*
X13828367Y2419120D1*
X13846580Y2437340D1*
X13867817Y2452770D1*
X13891207Y2464690D1*
X13916173Y2472800D1*
X13942100Y2476907D1*
X13968353D1*
X13994280Y2472800D1*
X14019247Y2464690D1*
X14042637Y2452770D1*
X14063873Y2437340D1*
X14082053Y2419193D1*
X14100240Y2437340D1*
X14108580Y2443917D1*
X14108597Y2550850D1*
X14097330Y2562600D1*
X14083743Y2581297D1*
X14082397Y2583703D1*
X14074490Y2571683D1*
X14059480Y2554107D1*
X14041903Y2539097D1*
X14022197Y2527020D1*
X14000847Y2518177D1*
X13978370Y2512780D1*
X13955330Y2510967D1*
X13932290Y2512780D1*
X13909813Y2518177D1*
X13888463Y2527020D1*
X13868757Y2539097D1*
X13851180Y2554107D1*
X13848633Y2556860D1*
X13848620Y2510967D1*
X13801680D1*
X13801620Y2444130D1*
X14309193Y2443917D2*
X14327180Y2428427D1*
X14336167Y2418780D1*
X14354727Y2437340D1*
X14363067Y2443917D1*
X14363083Y2550303D1*
X14351330Y2562600D1*
X14337743Y2581297D1*
X14336397Y2583703D1*
X14328490Y2571683D1*
X14313480Y2554107D1*
X14309200Y2550150D1*
X14309177Y2444050D1*
X14487047Y1382607D2*
X14463373Y1380843D1*
X14437203Y1382903D1*
X14430610Y1384213D1*
X14207783Y1161870D1*
X14195050Y1152620D1*
X14181030Y1145473D1*
X14173613Y1142740D1*
X14209487Y1141977D1*
X15542130Y1142963D1*
X15531583Y1165187D1*
X15525277Y1182283D1*
X15520330Y1199820D1*
X15516773Y1217693D1*
X15514633Y1235790D1*
X15513917Y1254000D1*
X15514633Y1272210D1*
X15516773Y1290307D1*
X15520330Y1308180D1*
X15525277Y1325717D1*
X15531583Y1342813D1*
X15539213Y1359363D1*
X15548117Y1375263D1*
X15558240Y1390417D1*
X15569523Y1404727D1*
X15581893Y1418107D1*
X15595273Y1430477D1*
X15609583Y1441760D1*
X15624737Y1451883D1*
X15640637Y1460787D1*
X15657187Y1468417D1*
X15674283Y1474723D1*
X15691820Y1479670D1*
X15709693Y1483227D1*
X15727790Y1485367D1*
X15746000Y1486083D1*
X15764210Y1485367D1*
X15782307Y1483227D1*
X15800180Y1479670D1*
X15817717Y1474723D1*
X15834813Y1468417D1*
X15851363Y1460787D1*
X15877503Y1445043D1*
X15876647Y2056530D1*
X15865003Y2042597D1*
X15021410Y1199440D1*
X15008677Y1190190D1*
X14994657Y1183043D1*
X14979690Y1178180D1*
X14964147Y1175720D1*
X14862943Y1175410D1*
X14727937Y1175720D1*
X14712393Y1178180D1*
X14697427Y1183043D1*
X14683407Y1190190D1*
X14670673Y1199440D1*
X14598893Y1270780D1*
X14487073Y1382600D1*
X14752187Y8575210D2*
X14740633Y8552610D1*
X14725203Y8531373D1*
X14706643Y8512813D1*
X14698787Y8506617D1*
X14698757Y8330657D1*
X14710467Y8318423D1*
X14724053Y8299727D1*
X14725400Y8297320D1*
X14733307Y8309340D1*
X14748317Y8326917D1*
X14752197Y8330503D1*
X14752177Y8575070D1*
X8472697Y4210520D2*
Y4176797D1*
X8691207Y3957700D1*
X8702027Y3942810D1*
X8710383Y3926410D1*
X8716070Y3908907D1*
X8718950Y3890730D1*
X8719310Y3811527D1*
Y3365187D1*
X8764663Y3365230D1*
X8758087Y3385873D1*
X8754470Y3408700D1*
X8754017Y3466923D1*
X8754470Y3591813D1*
X8758087Y3614640D1*
X8765230Y3636623D1*
X8775720Y3657217D1*
X8789307Y3675913D1*
X8805650Y3692257D1*
X8824347Y3705843D1*
X8844940Y3716333D1*
X8866923Y3723477D1*
X8889750Y3727093D1*
X8912863D1*
X8935690Y3723477D1*
X8957673Y3716333D1*
X8976177Y3707013D1*
X8472710Y4210487D1*
X8386747Y3930850D2*
X8178117D1*
Y3976697D1*
X8171543Y3970280D1*
X8171570Y3688157D1*
X8183280Y3675913D1*
X8196867Y3657217D1*
X8198213Y3654810D1*
X8206120Y3666830D1*
X8221130Y3684407D1*
X8238707Y3699417D1*
X8258413Y3711493D1*
X8279763Y3720337D1*
X8302240Y3725733D1*
X8325280Y3727547D1*
X8348320Y3725733D1*
X8366663Y3721503D1*
X8366283Y3757687D1*
X8357870Y3774200D1*
X8352143Y3791823D1*
X8349243Y3810123D1*
Y3828657D1*
X8352143Y3846957D1*
X8357870Y3864580D1*
X8366283Y3881093D1*
X8377173Y3896083D1*
X8390277Y3909187D1*
X8400660Y3917000D1*
X8386767Y3930907D1*
X7944473Y4312693D2*
X7952247Y4324713D1*
X7965263Y4340133D1*
X7529813Y4775543D1*
X6441740Y4775590D1*
X6292160Y4625377D1*
X6286433Y4607753D1*
X6278020Y4591240D1*
X6267130Y4576250D1*
X6254027Y4563147D1*
X6239037Y4552257D1*
X6222523Y4543843D1*
X6204900Y4538117D1*
X6186600Y4535217D1*
X6175703Y4534917D1*
X6175733Y4492673D1*
X6186970Y4485487D1*
X6201063Y4473453D1*
X6213097Y4459360D1*
X6222780Y4443563D1*
X6229870Y4426443D1*
X6234197Y4408423D1*
X6235650Y4389950D1*
X6234197Y4371477D1*
X6229870Y4353457D1*
X6222780Y4336337D1*
X6213097Y4320540D1*
X6201063Y4306447D1*
X6186970Y4294413D1*
X6171173Y4284730D1*
X6154053Y4277640D1*
X6136033Y4273313D1*
X6117560Y4271860D1*
X6099087Y4273313D1*
X6081067Y4277640D1*
X6063947Y4284730D1*
X6050587Y4292783D1*
X6037037Y4297307D1*
X6315303Y4018930D1*
X6412540Y4018967D1*
X6407327Y4032623D1*
X6401930Y4055100D1*
X6400120Y4078187D1*
X6400570Y4249697D1*
X6404187Y4272523D1*
X6408310Y4286327D1*
X6390933Y4287790D1*
X6372913Y4292117D1*
X6355793Y4299207D1*
X6339997Y4308890D1*
X6325903Y4320923D1*
X6313870Y4335017D1*
X6304187Y4350813D1*
X6297097Y4367933D1*
X6292770Y4385953D1*
X6291317Y4404427D1*
X6292770Y4422900D1*
X6297097Y4440920D1*
X6304187Y4458040D1*
X6313870Y4473837D1*
X6325903Y4487930D1*
X6339997Y4499963D1*
X6355793Y4509647D1*
X6372913Y4516737D1*
X6382513Y4519387D1*
X6496700Y4633113D1*
X6509433Y4642363D1*
X6523453Y4649510D1*
X6538420Y4654373D1*
X6553963Y4656833D1*
X6655167Y4657143D1*
X7184447Y4656833D1*
X7199990Y4654373D1*
X7214957Y4649510D1*
X7228977Y4642363D1*
X7241710Y4633113D1*
X7313490Y4561773D1*
X7385667Y4489157D1*
X7394917Y4476423D1*
X7402063Y4462403D1*
X7406927Y4447437D1*
X7409387Y4431893D1*
X7409697Y4346093D1*
X7421407Y4333797D1*
X7434993Y4315100D1*
X7436340Y4312693D1*
X7444247Y4324713D1*
X7459257Y4342290D1*
X7476833Y4357300D1*
X7496540Y4369377D1*
X7517890Y4378220D1*
X7540367Y4383617D1*
X7563407Y4385430D1*
X7586447Y4383617D1*
X7608923Y4378220D1*
X7630273Y4369377D1*
X7649980Y4357300D1*
X7667557Y4342290D1*
X7682567Y4324713D1*
X7690340Y4312693D1*
X7698247Y4324713D1*
X7713257Y4342290D1*
X7730833Y4357300D1*
X7750540Y4369377D1*
X7771890Y4378220D1*
X7794367Y4383617D1*
X7817407Y4385430D1*
X7840447Y4383617D1*
X7862923Y4378220D1*
X7884273Y4369377D1*
X7903980Y4357300D1*
X7921557Y4342290D1*
X7936567Y4324713D1*
X7944340Y4312693D1*
X7971007Y3970527D2*
X7959407Y3982483D1*
X7945820Y4001180D1*
X7944473Y4003587D1*
X7936567Y3991567D1*
X7921557Y3973990D1*
X7917677Y3970403D1*
X7917387Y3943130D1*
X7914927Y3927587D1*
X7910063Y3912620D1*
X7902917Y3898600D1*
X7893667Y3885867D1*
X7822327Y3814087D1*
X7679310Y3671073D1*
X7690213Y3654810D1*
X7698120Y3666830D1*
X7713130Y3684407D1*
X7730707Y3699417D1*
X7750413Y3711493D1*
X7771763Y3720337D1*
X7794240Y3725733D1*
X7817280Y3727547D1*
X7840320Y3725733D1*
X7862797Y3720337D1*
X7884147Y3711493D1*
X7903853Y3699417D1*
X7921430Y3684407D1*
X7936440Y3666830D1*
X7944213Y3654810D1*
X7952120Y3666830D1*
X7967130Y3684407D1*
X7971010Y3687993D1*
X7970990Y3970297D1*
X7182473Y4312693D2*
X7190247Y4324713D1*
X7205257Y4342290D1*
X7209137Y4345877D1*
X7209117Y4382450D1*
X7135050Y4456550D1*
X6603360Y4456563D1*
X6531370Y4384557D1*
X6547407Y4385430D1*
X6570447Y4383617D1*
X6592923Y4378220D1*
X6614273Y4369377D1*
X6633980Y4357300D1*
X6651557Y4342290D1*
X6666567Y4324713D1*
X6674340Y4312693D1*
X6682247Y4324713D1*
X6697257Y4342290D1*
X6714833Y4357300D1*
X6734540Y4369377D1*
X6755890Y4378220D1*
X6778367Y4383617D1*
X6801407Y4385430D1*
X6824447Y4383617D1*
X6846923Y4378220D1*
X6868273Y4369377D1*
X6887980Y4357300D1*
X6905557Y4342290D1*
X6920567Y4324713D1*
X6928340Y4312693D1*
X6936247Y4324713D1*
X6951257Y4342290D1*
X6968833Y4357300D1*
X6988540Y4369377D1*
X7009890Y4378220D1*
X7032367Y4383617D1*
X7055407Y4385430D1*
X7078447Y4383617D1*
X7100923Y4378220D1*
X7122273Y4369377D1*
X7141980Y4357300D1*
X7159557Y4342290D1*
X7174567Y4324713D1*
X7182340Y4312693D1*
X6702597Y3969053D2*
X6689407Y3982483D1*
X6675820Y4001180D1*
X6674473Y4003587D1*
X6670757Y3997837D1*
X6680183Y3989570D1*
X6700843Y3969473D1*
X6702483Y3969013D1*
X11830107Y9135503D2*
X11818087Y9143277D1*
X11800510Y9158287D1*
X11796187Y9162963D1*
X11627707Y9162993D1*
X11613480Y9148737D1*
X11614187Y9133983D1*
X11612250Y9109377D1*
X11606490Y9085377D1*
X11597043Y9062577D1*
X11584147Y9041530D1*
X11568117Y9022763D1*
X11549350Y9006733D1*
X11528303Y8993837D1*
X11505503Y8984390D1*
X11481503Y8978630D1*
X11456897Y8976693D1*
X11432290Y8978630D1*
X11408290Y8984390D1*
X11385490Y8993837D1*
X11364443Y9006733D1*
X11345677Y9022763D1*
X11329647Y9041530D1*
X11316750Y9062577D1*
X11307303Y9085377D1*
X11301543Y9109377D1*
X11299607Y9133983D1*
X11301543Y9158590D1*
X11307303Y9182590D1*
X11316750Y9205390D1*
X11329647Y9226437D1*
X11345677Y9245203D1*
X11364443Y9261233D1*
X11385490Y9274130D1*
X11408290Y9283577D1*
X11432290Y9289337D1*
X11456897Y9291273D1*
X11471587Y9290510D1*
X11521063Y9339543D1*
X11533797Y9348793D1*
X11547817Y9355940D1*
X11562783Y9360803D1*
X11578327Y9363263D1*
X11679530Y9363573D1*
X11797563D1*
X11809003Y9374437D1*
X11827700Y9388023D1*
X11848293Y9398513D1*
X11870277Y9405657D1*
X11893103Y9409273D1*
X11951327Y9409727D1*
X12076217Y9409273D1*
X12099043Y9405657D1*
X12121027Y9398513D1*
X12141620Y9388023D1*
X12160317Y9374437D1*
X12176660Y9358093D1*
X12190247Y9339397D1*
X12200737Y9318803D1*
X12207880Y9296820D1*
X12211497Y9273993D1*
Y9250880D1*
X12207880Y9228053D1*
X12200737Y9206070D1*
X12190247Y9185477D1*
X12176660Y9166780D1*
X12160317Y9150437D1*
X12141620Y9136850D1*
X12139213Y9135503D1*
X12151233Y9127597D1*
X12168810Y9112587D1*
X12183820Y9095010D1*
X12195897Y9075303D1*
X12204740Y9053953D1*
X12210137Y9031477D1*
X12211950Y9008437D1*
X12210137Y8985397D1*
X12204740Y8962920D1*
X12195897Y8941570D1*
X12183820Y8921863D1*
X12168810Y8904287D1*
X12151233Y8889277D1*
X12131527Y8877200D1*
X12110177Y8868357D1*
X12087700Y8862960D1*
X12064660Y8861147D1*
X11904660D1*
X11881620Y8862960D1*
X11859143Y8868357D1*
X11837793Y8877200D1*
X11818087Y8889277D1*
X11800510Y8904287D1*
X11796923Y8908167D1*
X11763813Y8908147D1*
X11579387Y8723740D1*
X11590077Y8708357D1*
X11601280Y8686367D1*
X11608907Y8662893D1*
X11612770Y8638513D1*
Y8613833D1*
X11608907Y8589453D1*
X11601280Y8565980D1*
X11590077Y8543990D1*
X11575567Y8524020D1*
X11558117Y8506570D1*
X11538147Y8492060D1*
X11516157Y8480857D1*
X11492683Y8473230D1*
X11468303Y8469367D1*
X11443623D1*
X11419243Y8473230D1*
X11395770Y8480857D1*
X11373780Y8492060D1*
X11353810Y8506570D1*
X11336360Y8524020D1*
X11321850Y8543990D1*
X11310647Y8565980D1*
X11303020Y8589453D1*
X11299157Y8613833D1*
Y8638513D1*
X11303020Y8662893D1*
X11310647Y8686367D1*
X11321850Y8708357D1*
X11336360Y8728327D1*
X11353810Y8745777D1*
X11355820Y8747360D1*
X11358443Y8765563D1*
X11363307Y8780530D1*
X11370453Y8794550D1*
X11379703Y8807283D1*
X11451043Y8879063D1*
X11657117Y9084697D1*
X11669850Y9093947D1*
X11683870Y9101093D1*
X11698837Y9105957D1*
X11714380Y9108417D1*
X11796717Y9108727D1*
X11809003Y9120437D1*
X11827700Y9134023D1*
X11830107Y9135370D1*
X11904707Y8353150D2*
X11881620Y8354960D1*
X11859143Y8360357D1*
X11837793Y8369200D1*
X11818087Y8381277D1*
X11800510Y8396287D1*
X11785500Y8413863D1*
X11773423Y8433570D1*
X11764580Y8454920D1*
X11759183Y8477397D1*
X11757370Y8500437D1*
X11759183Y8523477D1*
X11764580Y8545953D1*
X11773423Y8567303D1*
X11785500Y8587010D1*
X11800510Y8604587D1*
X11818087Y8619597D1*
X11837793Y8631673D1*
X11859143Y8640517D1*
X11881620Y8645913D1*
X11904707Y8647723D1*
X12076217Y8647273D1*
X12099043Y8643657D1*
X12121027Y8636513D1*
X12141620Y8626023D1*
X12160317Y8612437D1*
X12176660Y8596093D1*
X12190247Y8577397D1*
X12200737Y8556803D1*
X12207880Y8534820D1*
X12211497Y8511993D1*
Y8488880D1*
X12207880Y8466053D1*
X12200737Y8444070D1*
X12190247Y8423477D1*
X12176660Y8404780D1*
X12160317Y8388437D1*
X12141620Y8374850D1*
X12121027Y8364360D1*
X12099043Y8357217D1*
X12076217Y8353600D1*
X12017993Y8353147D1*
X11904660Y8353237D1*
X4283790Y8222720D2*
X4285600Y8245807D1*
X4290590Y8266847D1*
X4166563Y8266887D1*
X4166537Y8018500D1*
X4290693Y8018437D1*
X4285600Y8039727D1*
X4283790Y8062813D1*
X4283787Y8222690D1*
X6618650Y2965547D2*
X6694570D1*
Y2919700D1*
X6705623Y2930257D1*
X6724320Y2943843D1*
X6744913Y2954333D1*
X6766897Y2961477D1*
X6789723Y2965093D1*
X6812837D1*
X6835663Y2961477D1*
X6857647Y2954333D1*
X6878240Y2943843D1*
X6896937Y2930257D1*
X6913280Y2913913D1*
X6926867Y2895217D1*
X6928213Y2892810D1*
X6936120Y2904830D1*
X6951130Y2922407D1*
X6968707Y2937417D1*
X6988413Y2949493D1*
X7009763Y2958337D1*
X7032240Y2963733D1*
X7055280Y2965547D1*
X7078320Y2963733D1*
X7100797Y2958337D1*
X7122147Y2949493D1*
X7141853Y2937417D1*
X7159430Y2922407D1*
X7174440Y2904830D1*
X7182213Y2892810D1*
X7190120Y2904830D1*
X7205130Y2922407D1*
X7222707Y2937417D1*
X7242413Y2949493D1*
X7263763Y2958337D1*
X7286240Y2963733D1*
X7309280Y2965547D1*
X7332320Y2963733D1*
X7342647Y2961680D1*
X7342640Y3040820D1*
X7334243Y3052830D1*
X7325830Y3069343D1*
X7320103Y3086967D1*
X7317203Y3105267D1*
Y3123800D1*
X7318017Y3130670D1*
X6518750Y3130650D1*
X6524367Y3113163D1*
X6594617Y3042453D1*
X6603867Y3029720D1*
X6611013Y3015700D1*
X6615877Y3000733D1*
X6618337Y2985190D1*
X6618647Y2977290D1*
X7690213Y2583703D2*
X7682440Y2571683D1*
X7667430Y2554107D1*
X7651663Y2540523D1*
X7651677Y2436700D1*
X8060883Y2027553D1*
X9297487Y2027547D1*
X9292567Y2047273D1*
X9291113Y2065747D1*
X9292567Y2084220D1*
X9295743Y2098160D1*
X8095757Y2098477D1*
X8080213Y2100937D1*
X8065247Y2105800D1*
X8051227Y2112947D1*
X8038493Y2122197D1*
X7966713Y2193537D1*
X7757013Y2403677D1*
X7747763Y2416410D1*
X7740617Y2430430D1*
X7735753Y2445397D1*
X7733293Y2460940D1*
X7732983Y2537443D1*
X7721623Y2546257D1*
X7705280Y2562600D1*
X7691693Y2581297D1*
X7690347Y2583703D1*
X7944213D2*
X7933560Y2568027D1*
X7933563Y2510350D1*
X8145167Y2298747D1*
X9595227D1*
X9816957Y2520533D1*
X9817017Y2550417D1*
X9805307Y2562600D1*
X9791720Y2581297D1*
X9790373Y2583703D1*
X9782467Y2571683D1*
X9767457Y2554107D1*
X9749880Y2539097D1*
X9730173Y2527020D1*
X9708823Y2518177D1*
X9686347Y2512780D1*
X9663307Y2510967D1*
X9640267Y2512780D1*
X9617790Y2518177D1*
X9596440Y2527020D1*
X9576733Y2539097D1*
X9559157Y2554107D1*
X9544147Y2571683D1*
X9536373Y2583703D1*
X9528467Y2571683D1*
X9513457Y2554107D1*
X9495880Y2539097D1*
X9476173Y2527020D1*
X9454823Y2518177D1*
X9432347Y2512780D1*
X9409307Y2510967D1*
X9386267Y2512780D1*
X9363790Y2518177D1*
X9342440Y2527020D1*
X9322733Y2539097D1*
X9305157Y2554107D1*
X9290147Y2571683D1*
X9282373Y2583703D1*
X9274467Y2571683D1*
X9259457Y2554107D1*
X9241880Y2539097D1*
X9222173Y2527020D1*
X9200823Y2518177D1*
X9178347Y2512780D1*
X9155307Y2510967D1*
X9132267Y2512780D1*
X9109790Y2518177D1*
X9088440Y2527020D1*
X9068733Y2539097D1*
X9051157Y2554107D1*
X9048610Y2556860D1*
X9048597Y2510967D1*
X8991267D1*
X8982443Y2496280D1*
X8972200Y2484293D1*
X8863917Y2376447D1*
X8851183Y2367197D1*
X8837163Y2360050D1*
X8822197Y2355187D1*
X8806653Y2352727D1*
X8705450Y2352417D1*
X8181327Y2352727D1*
X8165783Y2355187D1*
X8150817Y2360050D1*
X8136797Y2367197D1*
X8124063Y2376447D1*
X8052283Y2447787D1*
X8004083Y2496427D1*
X7994833Y2509160D1*
X7987687Y2523180D1*
X7982817Y2538177D1*
X7967130Y2554107D1*
X7952120Y2571683D1*
X7944347Y2583703D1*
X8472567Y3420210D2*
X8470757Y3397217D1*
X8465360Y3374740D1*
X8461843Y3365207D1*
X8484767Y3365230D1*
X8484730Y3517953D1*
X8472570Y3463590D1*
X8472480Y3420257D1*
X8472570Y3505790D2*
Y3463590D1*
X10552373Y3654810D2*
X10560147Y3666830D1*
X10567110Y3675667D1*
X10567400Y3831103D1*
X10551630Y3819650D1*
X10525657Y3793677D1*
X10525597Y3688143D1*
X10537307Y3675913D1*
X10550893Y3657217D1*
X10552240Y3654810D1*
X9028373D2*
X9036510Y3667293D1*
X9021940Y3672050D1*
X9013307Y3675913D1*
X9026893Y3657217D1*
X9028240Y3654810D1*
X11635667Y2583703D2*
X11627893Y2571683D1*
X11612883Y2554107D1*
X11603220Y2545333D1*
X11602940Y2530897D1*
X11600480Y2515353D1*
X11595617Y2500387D1*
X11588470Y2486367D1*
X11579220Y2473633D1*
X11535913Y2429890D1*
X12150977Y2429927D1*
X12170453Y2449470D1*
X12170443Y2550377D1*
X12158733Y2562600D1*
X12145147Y2581297D1*
X12143800Y2583703D1*
X12135893Y2571683D1*
X12120883Y2554107D1*
X12103307Y2539097D1*
X12083600Y2527020D1*
X12062250Y2518177D1*
X12039773Y2512780D1*
X12016733Y2510967D1*
X11993693Y2512780D1*
X11971217Y2518177D1*
X11949867Y2527020D1*
X11930160Y2539097D1*
X11912583Y2554107D1*
X11897573Y2571683D1*
X11889800Y2583703D1*
X11881893Y2571683D1*
X11866883Y2554107D1*
X11849307Y2539097D1*
X11829600Y2527020D1*
X11808250Y2518177D1*
X11785773Y2512780D1*
X11762733Y2510967D1*
X11739693Y2512780D1*
X11717217Y2518177D1*
X11695867Y2527020D1*
X11676160Y2539097D1*
X11658583Y2554107D1*
X11643573Y2571683D1*
X11635800Y2583703D1*
X12905800Y3654810D2*
X12913573Y3666830D1*
X12928583Y3684407D1*
X12932463Y3687993D1*
X12932443Y4282013D1*
X12879047Y4228527D1*
X12879023Y3688080D1*
X12890733Y3675913D1*
X12904320Y3657217D1*
X12905667Y3654810D1*
X13697413Y2965547D2*
X13848620D1*
Y2919700D1*
X13859673Y2930257D1*
X13878370Y2943843D1*
X13898963Y2954333D1*
X13920947Y2961477D1*
X13943773Y2965093D1*
X13966887D1*
X13989713Y2961477D1*
X14011697Y2954333D1*
X14032290Y2943843D1*
X14050987Y2930257D1*
X14067330Y2913913D1*
X14080917Y2895217D1*
X14082263Y2892810D1*
X14090170Y2904830D1*
X14105180Y2922407D1*
X14122757Y2937417D1*
X14142463Y2949493D1*
X14163813Y2958337D1*
X14186290Y2963733D1*
X14209330Y2965547D1*
X14232370Y2963733D1*
X14254847Y2958337D1*
X14276197Y2949493D1*
X14295903Y2937417D1*
X14313480Y2922407D1*
X14328490Y2904830D1*
X14336263Y2892810D1*
X14344170Y2904830D1*
X14359180Y2922407D1*
X14376757Y2937417D1*
X14396463Y2949493D1*
X14417813Y2958337D1*
X14440290Y2963733D1*
X14463330Y2965547D1*
X14486370Y2963733D1*
X14508847Y2958337D1*
X14530197Y2949493D1*
X14549903Y2937417D1*
X14567480Y2922407D1*
X14582490Y2904830D1*
X14590263Y2892810D1*
X14598170Y2904830D1*
X14613180Y2922407D1*
X14630757Y2937417D1*
X14650463Y2949493D1*
X14671813Y2958337D1*
X14694290Y2963733D1*
X14717330Y2965547D1*
X14740370Y2963733D1*
X14762847Y2958337D1*
X14784197Y2949493D1*
X14803903Y2937417D1*
X14821480Y2922407D1*
X14836490Y2904830D1*
X14844263Y2892810D1*
X14852170Y2904830D1*
X14867180Y2922407D1*
X14871060Y2925993D1*
X14871350Y3125480D1*
X14873810Y3141023D1*
X14878673Y3155990D1*
X14885820Y3170010D1*
X14895070Y3182743D1*
X14966410Y3254523D1*
X14985553Y3273663D1*
X14971330Y3272967D1*
X14948290Y3274780D1*
X14925813Y3280177D1*
X14904463Y3289020D1*
X14884757Y3301097D1*
X14867180Y3316107D1*
X14852170Y3333683D1*
X14844397Y3345703D1*
X14836490Y3333683D1*
X14821480Y3316107D1*
X14803903Y3301097D1*
X14784197Y3289020D1*
X14762847Y3280177D1*
X14740370Y3274780D1*
X14717330Y3272967D1*
X14694290Y3274780D1*
X14671813Y3280177D1*
X14650463Y3289020D1*
X14630757Y3301097D1*
X14613180Y3316107D1*
X14598170Y3333683D1*
X14590397Y3345703D1*
X14582490Y3333683D1*
X14567480Y3316107D1*
X14549903Y3301097D1*
X14530197Y3289020D1*
X14508847Y3280177D1*
X14486370Y3274780D1*
X14463330Y3272967D1*
X14440290Y3274780D1*
X14417813Y3280177D1*
X14396463Y3289020D1*
X14376757Y3301097D1*
X14359180Y3316107D1*
X14344170Y3333683D1*
X14336397Y3345703D1*
X14328490Y3333683D1*
X14313480Y3316107D1*
X14301403Y3305430D1*
X14301083Y3265067D1*
X14298623Y3249523D1*
X14293760Y3234557D1*
X14286613Y3220537D1*
X14277363Y3207803D1*
X14206023Y3136023D1*
X14066320Y2996760D1*
X14053587Y2987510D1*
X14039567Y2980363D1*
X14024600Y2975500D1*
X14009057Y2973040D1*
X13907853Y2972730D1*
X13704690D1*
X13697473Y2965560D1*
X14100797Y3320850D2*
X14090170Y3333683D1*
X14082397Y3345703D1*
X14074490Y3333683D1*
X14059480Y3316107D1*
X14041903Y3301097D1*
X14022197Y3289020D1*
X14000847Y3280177D1*
X13978370Y3274780D1*
X13955330Y3272967D1*
X13932290Y3274780D1*
X13909813Y3280177D1*
X13888463Y3289020D1*
X13868757Y3301097D1*
X13851180Y3316107D1*
X13836170Y3333683D1*
X13828397Y3345703D1*
X13820490Y3333683D1*
X13812010Y3323173D1*
X13808290Y3308483D1*
X13801247Y3291477D1*
X13791630Y3275787D1*
X13779677Y3261790D1*
X13691207Y3173320D1*
X13959597Y3173310D1*
X14100870Y3314533D1*
X14100813Y3320607D1*
X15563427Y5746190D2*
X15545000Y5761950D1*
X15528970Y5780717D1*
X15516073Y5801763D1*
X15506627Y5824563D1*
X15500867Y5848563D1*
X15498930Y5873170D1*
X15500867Y5897777D1*
X15506627Y5921777D1*
X15516073Y5944577D1*
X15528970Y5965623D1*
X15545000Y5984390D1*
X15563427Y6000150D1*
X15545000Y6015950D1*
X15535153Y6026873D1*
X15512613Y6026880D1*
X15421317Y5935540D1*
X15421017Y5726617D1*
X15418547Y5711043D1*
X15528467Y5710970D1*
X15545000Y5730390D1*
X15563427Y5746150D1*
Y6508190D2*
X15545000Y6523950D1*
X15535153Y6534873D1*
X15185400Y6534880D1*
X15155413Y6504897D1*
X15559030Y6504907D1*
X15563427Y5492190D2*
X15545000Y5507950D1*
X15542740Y5510393D1*
X15472223Y5510390D1*
X15401880Y5440060D1*
X15401827Y5154247D1*
X15416423Y5161433D1*
X15434047Y5167160D1*
X15452347Y5170060D1*
X15470880D1*
X15489180Y5167160D1*
X15506803Y5161433D1*
X15523317Y5153020D1*
X15538307Y5142130D1*
X15551410Y5129027D1*
X15562300Y5114037D1*
X15570713Y5097523D1*
X15576440Y5079900D1*
X15579340Y5061600D1*
Y5043067D1*
X15576253Y5024103D1*
X15870390Y4729500D1*
X15873040Y4728103D1*
X15872387Y5212180D1*
X15848560Y5208363D1*
X15789553Y5207880D1*
X15656220D1*
X15631613Y5209817D1*
X15607613Y5215577D1*
X15584813Y5225023D1*
X15563767Y5237920D1*
X15545000Y5253950D1*
X15528970Y5272717D1*
X15516073Y5293763D1*
X15506627Y5316563D1*
X15500867Y5340563D1*
X15498930Y5365170D1*
X15500867Y5389777D1*
X15506627Y5413777D1*
X15516073Y5436577D1*
X15528970Y5457623D1*
X15545000Y5476390D1*
X15563427Y5492150D1*
X6175733Y4866553D2*
Y4793090D1*
X6266447Y4883887D1*
X6249330Y4883433D1*
X6232817Y4875020D1*
X6215193Y4869293D1*
X6196893Y4866393D1*
X6178360D1*
X6175737Y4866703D1*
X4527720Y5464660D2*
X4619597Y5373347D1*
X4637220Y5367620D1*
X4653733Y5359207D1*
X4655810Y5357820D1*
Y5595570D1*
X4527733Y5723633D1*
X4527770Y5464690D1*
X12678443Y4004567D2*
Y4169723D1*
X12510857Y4169757D1*
X12591837Y4089277D1*
X12609460Y4083550D1*
X12625973Y4075137D1*
X12640963Y4064247D1*
X12654067Y4051143D1*
X12664957Y4036153D1*
X12673370Y4019640D1*
X12678440Y4004353D1*
X6883040Y5642753D2*
Y5666453D1*
X6794793Y5754787D1*
X6788103Y5742350D1*
X6788087Y5657057D1*
X6865240Y5580320D1*
X6866693Y5598793D1*
X6871020Y5616813D1*
X6878110Y5633933D1*
X6883023Y5642593D1*
D17*
X7146440Y6528797D3*
Y6782797D3*
D18*
X6314093Y9103533D3*
D19*
Y8853533D3*
D18*
X5750350Y9103533D3*
D19*
Y8853533D3*
D17*
X10233917Y8688343D3*
Y8942343D3*
X10234600Y6823387D3*
Y6569387D3*
X15225893Y4307183D3*
Y4053183D3*
D18*
X12683590Y6088587D3*
D19*
Y5838587D3*
D18*
X13260910Y6088587D3*
D19*
Y5838587D3*
D18*
X13836953Y6088587D3*
D19*
Y5838587D3*
D17*
X14344340Y6821137D3*
Y6567137D3*
X15420767Y7888683D3*
Y7634683D3*
X15106680Y8892307D3*
Y9146307D3*
X14852977Y8892237D3*
Y9146237D3*
X12819700Y6567137D3*
Y6821137D3*
D20*
X11469727Y9699933D3*
X10969727Y9700067D3*
D17*
X13582533Y8506343D3*
Y8760343D3*
X13328110Y8506343D3*
Y8760343D3*
X13074420D3*
Y8506343D3*
D21*
X1748337Y8193397D3*
D22*
Y7693397D3*
D17*
X7133083Y7647147D3*
Y7901147D3*
X8168413Y6782447D3*
Y6528447D3*
X9697223Y7647147D3*
Y7901147D3*
X6259707Y2993940D3*
Y3247940D3*
X10967010Y2993940D3*
Y3247940D3*
X8613270Y2993940D3*
Y3247940D3*
X12513703Y7901147D3*
Y7647147D3*
D18*
X1820527Y3833603D3*
D19*
X2070527D3*
D17*
X2680887Y3836230D3*
X2426887D3*
D21*
X1750047Y9551523D3*
D22*
Y9051523D3*
D18*
X1820527Y6839480D3*
D19*
X2070527D3*
D17*
X2680887Y6838513D3*
X2426887D3*
X4049247Y7647147D3*
Y7901147D3*
X3975593Y2993940D3*
Y3247940D3*
X13320633Y2993940D3*
Y3247940D3*
D23*
X6314087Y9603890D3*
D17*
X5304087D3*
D23*
X4684993Y7070787D3*
D17*
Y6060787D3*
D24*
X3352017Y7741307D3*
D25*
Y8846307D3*
D24*
X3036937Y8841360D3*
D25*
Y7736360D3*
D24*
Y4352910D3*
D25*
Y3247910D3*
D24*
Y6228387D3*
D25*
Y7333387D3*
D24*
Y2915953D3*
D25*
Y1810953D3*
D24*
Y4814940D3*
D25*
Y5919940D3*
D26*
X4000247Y10081673D3*
D27*
Y10681673D3*
D28*
X3510247Y10381673D3*
D29*
X9501053Y10258244D3*
D30*
X10001053D3*
D29*
X10501053D3*
X10001053Y10708244D3*
X12501053Y10258244D3*
D30*
X13001053D3*
D29*
X13501053D3*
X13001053Y10708244D3*
D21*
X12031960Y7491553D3*
D22*
X11777960D3*
X11523960D3*
D101*
X4742567Y8845630D3*
D31*
X4615567Y8972630D3*
X4742567Y9099630D3*
D32*
X10849810Y10809920D3*
D33*
X11611810D3*
D32*
X7661017Y6275843D3*
D33*
Y7037843D3*
D32*
X7395893D3*
D33*
Y6275843D3*
D32*
X8422477Y6275837D3*
D33*
Y7037837D3*
D32*
X5304103Y9369067D3*
D33*
Y8607067D3*
D32*
X5049683Y9369110D3*
D33*
Y8607110D3*
D32*
X6188313Y9908510D3*
D33*
X5426313D3*
D32*
X4303050Y8610307D3*
D33*
Y9372307D3*
D32*
X6336040Y7386373D3*
D33*
Y8148373D3*
D32*
X6211207Y8444273D3*
D33*
X5449207D3*
D32*
X6590360Y8147243D3*
D33*
Y7385243D3*
D32*
X6590230Y7035633D3*
D33*
Y6273633D3*
D32*
X5879237Y4562693D3*
D33*
Y3800693D3*
D32*
X5370760Y4562693D3*
D33*
Y3800693D3*
D32*
X11254693Y3881500D3*
D33*
X12016693D3*
D32*
X5192477Y6184437D3*
D33*
Y6946437D3*
D32*
X5446943D3*
D33*
Y6184437D3*
D32*
X4938880D3*
D33*
Y6946437D3*
D32*
X14971417Y4561943D3*
D33*
Y3799943D3*
D32*
X10488123Y9194947D3*
D33*
Y8432947D3*
D32*
X14717633Y1548133D3*
D33*
Y2310133D3*
D32*
X13701473Y1548133D3*
D33*
Y2310133D3*
D32*
X13957577Y4562023D3*
D33*
Y3800023D3*
D32*
X13703263Y4562023D3*
D33*
Y3800023D3*
D32*
X13955227Y1548133D3*
D33*
Y2310133D3*
D32*
X14971490Y1548133D3*
D33*
Y2310133D3*
D32*
X14465653Y4562023D3*
D33*
Y3800023D3*
D32*
X14208887Y1548133D3*
D33*
Y2310133D3*
D32*
X14463373Y1548133D3*
D33*
Y2310133D3*
D32*
X14090587Y7076507D3*
D33*
Y6314507D3*
D32*
X14598260Y7074637D3*
D33*
Y6312637D3*
D32*
X14597997Y8640020D3*
D33*
Y9402020D3*
D32*
X14343770Y9402170D3*
D33*
Y8640170D3*
D32*
X9980550Y6315970D3*
D33*
Y7077970D3*
D32*
X10488503D3*
D33*
Y6315970D3*
D32*
X13761183Y9717703D3*
D33*
X12999183D3*
D34*
X8325407Y4158140D3*
D35*
X8071407D3*
X7817407D3*
X7563407D3*
X7309407D3*
X7055407D3*
X6801407D3*
X6547407D3*
D36*
X2557700Y3320167D3*
D37*
X2303700D3*
X2049700D3*
D36*
X2557700Y6355347D3*
D37*
X2303700D3*
X2049700D3*
D38*
X12746660Y8500437D3*
D39*
Y8754437D3*
Y9008437D3*
Y9262437D3*
X11984660D3*
Y9008437D3*
Y8754437D3*
Y8500437D3*
D32*
X7600217Y10214220D3*
Y10814120D3*
X6400617Y10214520D3*
Y10814120D3*
D40*
X7399817Y10389820D3*
X7000717D3*
X6600417D3*
D34*
X7406277Y7380767D3*
D35*
X7660277D3*
X7914277D3*
X8168277D3*
Y8142767D3*
X7914277D3*
X7660277D3*
X7406277D3*
D34*
X9980480Y7380767D3*
D35*
X10234480D3*
X10488480D3*
X10742480D3*
Y8142767D3*
X10488480D3*
X10234480D3*
X9980480D3*
D34*
X4431077Y7380767D3*
D35*
X4685077D3*
X4939077D3*
X5193077D3*
X5447077D3*
X5701077D3*
X5955077D3*
Y8142767D3*
X5701077D3*
X5447077D3*
X5193077D3*
X4939077D3*
X4685077D3*
X4431077D3*
D34*
X4354990Y2738257D3*
D35*
X4608990D3*
X4862990D3*
X5116990D3*
X5370990D3*
X5624990D3*
X5878990D3*
Y3500257D3*
X5624990D3*
X5370990D3*
X5116990D3*
X4862990D3*
X4608990D3*
X4354990D3*
D34*
X6547280Y2738257D3*
D35*
X6801280D3*
X7055280D3*
X7309280D3*
X7563280D3*
X7817280D3*
X8071280D3*
X8325280D3*
Y3500257D3*
X8071280D3*
X7817280D3*
X7563280D3*
X7309280D3*
X7055280D3*
X6801280D3*
X6547280D3*
D34*
X8901307Y2738257D3*
D35*
X9155307D3*
X9409307D3*
X9663307D3*
X9917307D3*
X10171307D3*
X10425307D3*
X10679307D3*
Y3500257D3*
X10425307D3*
X10171307D3*
X9917307D3*
X9663307D3*
X9409307D3*
X9155307D3*
X8901307D3*
D34*
X11254733Y2738257D3*
D35*
X11508733D3*
X11762733D3*
X12016733D3*
X12270733D3*
X12524733D3*
X12778733D3*
X13032733D3*
Y3500257D3*
X12778733D3*
X12524733D3*
X12270733D3*
X12016733D3*
X11762733D3*
X11508733D3*
X11254733D3*
D34*
X13701330Y2738257D3*
D35*
X13955330D3*
X14209330D3*
X14463330D3*
X14717330D3*
X14971330D3*
X15225330D3*
Y3500257D3*
X14971330D3*
X14717330D3*
X14463330D3*
X14209330D3*
X13955330D3*
X13701330D3*
D34*
X12820463Y7380767D3*
D35*
X13074463D3*
X13328463D3*
X13582463D3*
X13836467D3*
X14090467D3*
X14344463D3*
X14598467D3*
X14852467D3*
X15106463D3*
X12820467Y8142767D3*
X13074467D3*
X13328467D3*
X13582463D3*
X13836467D3*
X14090467D3*
X14344463D3*
X14598467D3*
X14852467D3*
X15106463D3*
D41*
X15746220Y5873170D3*
Y6127170D3*
Y6381170D3*
Y6635170D3*
Y5619170D3*
Y5365170D3*
D42*
X8372857Y1254100D3*
X8626857D3*
X8880857D3*
X9134857D3*
X8118857D3*
X7864857D3*
X3868587Y1253833D3*
X4122587D3*
X4376587D3*
X4630587D3*
D41*
X1254217Y4456327D3*
Y4710327D3*
Y4964327D3*
Y5218327D3*
D43*
X10967850Y8625737D3*
X11455963Y8626173D3*
X10968783Y9133547D3*
X11456897Y9133983D3*
M02*
