G04 DipTrace 3.3.1.1*
G04 BottomMask.gbr*
%MOIN*%
G04 #@! TF.FileFunction,Soldermask,Bot*
G04 #@! TF.Part,Single*
%ADD18C,0.07874*%
%ADD24C,0.07874*%
%ADD25C,0.11811*%
%ADD34O,0.07874X0.149606*%
%ADD36O,0.149606X0.07874*%
%ADD39O,0.129921X0.145669*%
%ADD41R,0.07874X0.07874*%
%ADD43C,0.086614*%
%ADD44C,0.165354*%
%ADD46C,0.067874*%
%ADD48C,0.067874*%
%ADD50C,0.072835*%
%FSLAX26Y26*%
G04*
G70*
G90*
G75*
G01*
G04 BotMask*
%LPD*%
D50*
X3184228Y663172D3*
X3084228D3*
X3184228Y766664D3*
X3084228D3*
X3184228Y872963D3*
X3084228D3*
X3184228Y975035D3*
X3084228D3*
Y1080109D3*
X3184228D3*
X3084228Y1184689D3*
X3184228D3*
X3084228Y1292819D3*
X3184228D3*
X3084228Y1398333D3*
X3184228D3*
X1989198Y636335D3*
Y736335D3*
D48*
X3839451Y1688804D3*
D46*
Y1988804D3*
D48*
X885974Y3052370D3*
D46*
Y3352370D3*
D48*
X2263701Y3052370D3*
D46*
Y3352370D3*
D48*
X2401688Y521084D3*
D46*
X2101688D3*
D44*
X1673231Y3921677D3*
Y3740417D3*
Y3559157D3*
X1673209Y2543526D3*
Y2362266D3*
Y2181007D3*
X984302Y803152D3*
Y984412D3*
Y1165672D3*
X1673151Y803155D3*
Y984415D3*
Y1165675D3*
D43*
X3542720Y625333D3*
X3640988Y625255D3*
X3739295Y625176D3*
X3837799Y625136D3*
X3938232Y625097D3*
X3542262Y1345588D3*
X3640560D3*
X3738852D3*
X3837340D3*
X3935909Y1345570D3*
D24*
X3423927Y1028860D3*
X4053848Y1028741D3*
D41*
X3641686Y3464713D3*
D39*
X3562946Y3740303D3*
D18*
X3740112Y3464713D3*
D39*
X3917277Y3740303D3*
D18*
X3838537Y3464713D3*
D41*
X3641726Y2086636D3*
D39*
X3562986Y2362227D3*
D18*
X3740151Y2086636D3*
D39*
X3917316Y2362227D3*
D18*
X3838576Y2086636D3*
D41*
X885999Y3464713D3*
D39*
X807259Y3740303D3*
D18*
X984424Y3464713D3*
D39*
X1161589Y3740303D3*
D18*
X1082849Y3464713D3*
D41*
X2263707D3*
D39*
X2184967Y3740303D3*
D18*
X2362133Y3464713D3*
D39*
X2539298Y3740303D3*
D18*
X2460558Y3464713D3*
D41*
X885993Y2086636D3*
D39*
X807253Y2362227D3*
D18*
X984419Y2086636D3*
D39*
X1161584Y2362227D3*
D18*
X1082844Y2086636D3*
D41*
X2263651D3*
D39*
X2184911Y2362227D3*
D18*
X2362076Y2086636D3*
D39*
X2539241Y2362227D3*
D18*
X2460501Y2086636D3*
D41*
X2263701Y708765D3*
D39*
X2184961Y984356D3*
D18*
X2362126Y708765D3*
D39*
X2539291Y984356D3*
D18*
X2460551Y708765D3*
D36*
X3050991Y3101417D3*
Y3001417D3*
Y2901417D3*
Y2801417D3*
Y3201417D3*
Y3301417D3*
X549690Y3101331D3*
Y3001331D3*
Y2901331D3*
Y2801331D3*
Y3201331D3*
Y3301331D3*
Y1723063D3*
Y1623063D3*
Y1523063D3*
Y1423063D3*
Y1823063D3*
Y1923063D3*
D34*
X1773445Y549559D3*
X1673445D3*
X1573445D3*
D50*
X1985433Y1065562D3*
Y1165562D3*
D25*
X493701Y493701D3*
X4230709Y4230709D3*
Y493701D3*
X493701Y4230709D3*
M02*
