G04 DipTrace 3.3.1.1*
G04 Bottom.gbr*
%MOIN*%
G04 #@! TF.FileFunction,Copper,L2,Bot*
G04 #@! TF.Part,Single*
G04 #@! TA.AperFunction,Conductor*
%ADD13C,0.025984*%
G04 #@! TA.AperFunction,ComponentPad*
%ADD14C,0.064961*%
%ADD15C,0.06*%
%ADD16C,0.06*%
%ADD17C,0.15748*%
%ADD18C,0.07874*%
%ADD19R,0.070866X0.070866*%
%ADD20O,0.122047X0.137795*%
%ADD21C,0.070866*%
%ADD22O,0.141732X0.070866*%
%ADD23O,0.070866X0.141732*%
%FSLAX26Y26*%
G04*
G70*
G90*
G75*
G01*
G04 Bottom*
%LPD*%
X3641686Y3464713D2*
D13*
Y3149017D1*
X3294087Y2801417D1*
X3050991D1*
X885993Y2086636D2*
Y2121699D1*
X1014507Y2250213D1*
Y2583823D1*
X1232101Y2801417D1*
X3050991D1*
X984302Y803152D2*
X1001079D1*
X978769Y780843D1*
Y599723D1*
X1130364Y448129D1*
X2183836D1*
X2362126Y626419D1*
Y708765D1*
X3838537Y3464713D2*
Y3514266D1*
X3716415Y3636388D1*
X3510189D1*
X3413269Y3539469D1*
Y3228278D1*
X3286408Y3101417D1*
X3050991D1*
X3740112Y3464713D2*
Y3520787D1*
X3696972Y3563927D1*
X3549126D1*
X3497181Y3511982D1*
Y3188320D1*
X3310278Y3001417D1*
X3050991D1*
X549690Y1923063D2*
Y2512041D1*
X1387993Y3350344D1*
Y3807465D1*
X1502206Y3921677D1*
X1673231D1*
X549690Y1823063D2*
X637356D1*
X671543Y1857251D1*
Y2488038D1*
X1673231Y3489726D1*
Y3559157D1*
X549690Y1723063D2*
X679906D1*
X771337Y1814495D1*
Y2143270D1*
X932314Y2304247D1*
Y2604014D1*
X1822047Y3493748D1*
Y3698596D1*
X1780226Y3740417D1*
X1673231D1*
X549690Y1623063D2*
X755507D1*
X1328018Y2195575D1*
Y2337560D1*
X1533984Y2543526D1*
X1673209D1*
X549690Y1523063D2*
X768117D1*
X1426060Y2181007D1*
X1673209D1*
X549690Y1423063D2*
X1173043D1*
X1818415Y2068434D1*
Y2311818D1*
X1767966Y2362266D1*
X1673209D1*
X3938232Y625097D2*
Y1343247D1*
X3935909Y1345570D1*
X2460551Y708765D2*
X2884064D1*
X3027621Y565209D1*
X3354549D1*
X3427198Y492559D1*
X3866403D1*
X3938232Y564388D1*
Y625097D1*
X1773445Y549559D2*
Y662478D1*
X1876924Y765957D1*
Y944594D1*
X1837104Y984415D1*
X1673151D1*
D14*
X3184228Y663172D3*
X3084228D3*
X3184228Y766664D3*
X3084228D3*
X3184228Y872963D3*
X3084228D3*
X3184228Y975035D3*
X3084228D3*
Y1080109D3*
X3184228D3*
X3084228Y1184689D3*
X3184228D3*
X3084228Y1292819D3*
X3184228D3*
X3084228Y1398333D3*
X3184228D3*
X1989198Y636335D3*
Y736335D3*
D15*
X3839451Y1688804D3*
D16*
Y1988804D3*
D15*
X885974Y3052370D3*
D16*
Y3352370D3*
D15*
X2263701Y3052370D3*
D16*
Y3352370D3*
D15*
X2401688Y521084D3*
D16*
X2101688D3*
D17*
X1673231Y3921677D3*
Y3740417D3*
Y3559157D3*
X1673209Y2543526D3*
Y2362266D3*
Y2181007D3*
X984302Y803152D3*
Y984412D3*
Y1165672D3*
X1673151Y803155D3*
Y984415D3*
Y1165675D3*
D18*
X3542720Y625333D3*
X3640988Y625255D3*
X3739295Y625176D3*
X3837799Y625136D3*
X3938232Y625097D3*
X3542262Y1345588D3*
X3640560D3*
X3738852D3*
X3837340D3*
X3935909Y1345570D3*
D19*
X3641686Y3464713D3*
D20*
X3562946Y3740303D3*
D21*
X3740112Y3464713D3*
D20*
X3917277Y3740303D3*
D21*
X3838537Y3464713D3*
D19*
X3641726Y2086636D3*
D20*
X3562986Y2362227D3*
D21*
X3740151Y2086636D3*
D20*
X3917316Y2362227D3*
D21*
X3838576Y2086636D3*
D19*
X885999Y3464713D3*
D20*
X807259Y3740303D3*
D21*
X984424Y3464713D3*
D20*
X1161589Y3740303D3*
D21*
X1082849Y3464713D3*
D19*
X2263707D3*
D20*
X2184967Y3740303D3*
D21*
X2362133Y3464713D3*
D20*
X2539298Y3740303D3*
D21*
X2460558Y3464713D3*
D19*
X885993Y2086636D3*
D20*
X807253Y2362227D3*
D21*
X984419Y2086636D3*
D20*
X1161584Y2362227D3*
D21*
X1082844Y2086636D3*
D19*
X2263651D3*
D20*
X2184911Y2362227D3*
D21*
X2362076Y2086636D3*
D20*
X2539241Y2362227D3*
D21*
X2460501Y2086636D3*
D19*
X2263701Y708765D3*
D20*
X2184961Y984356D3*
D21*
X2362126Y708765D3*
D20*
X2539291Y984356D3*
D21*
X2460551Y708765D3*
D22*
X3050991Y3101417D3*
Y3001417D3*
Y2901417D3*
Y2801417D3*
Y3201417D3*
Y3301417D3*
X549690Y3101331D3*
Y3001331D3*
Y2901331D3*
Y2801331D3*
Y3201331D3*
Y3301331D3*
Y1723063D3*
Y1623063D3*
Y1523063D3*
Y1423063D3*
Y1823063D3*
Y1923063D3*
D23*
X1773445Y549559D3*
X1673445D3*
X1573445D3*
D14*
X1985433Y1065562D3*
Y1165562D3*
M02*
