M48
INCH
T01C0.0354
T02C0.038
T03C0.0394
T04C0.0433
T05C0.0787
T06C0.0984
T07C0.1004
T08C0.1181
%
T03
X+031842Y+006632
X+030842Y+006632
X+031842Y+007667
X+030842Y+007667
X+031842Y+008730
X+030842Y+008730
X+031842Y+009750
X+030842Y+009750
X+030842Y+010801
X+031842Y+010801
X+030842Y+011847
X+031842Y+011847
X+030842Y+012928
X+031842Y+012928
X+030842Y+013983
X+031842Y+013983
X+019892Y+006363
X+019892Y+007363
T02
X+038395Y+016888
X+038395Y+019888
X+008860Y+030524
X+008860Y+033524
X+022637Y+030524
X+022637Y+033524
X+024017Y+005211
X+021017Y+005211
T06
X+016732Y+039217
X+016732Y+037404
X+016732Y+035592
X+016732Y+025435
X+016732Y+023623
X+016732Y+021810
X+009843Y+008032
X+009843Y+009844
X+009843Y+011657
X+016732Y+008032
X+016732Y+009844
X+016732Y+011657
T01
X+035427Y+006253
X+036410Y+006253
X+037393Y+006252
X+038378Y+006251
X+039382Y+006251
X+035423Y+013456
X+036406Y+013456
X+037389Y+013456
X+038373Y+013456
X+039359Y+013456
T05
X+034239Y+010289
X+040538Y+010287
T04
X+036417Y+034647
T07
X+035629Y+037403
T04
X+037401Y+034647
T07
X+039173Y+037403
T04
X+038385Y+034647
X+036417Y+020866
T07
X+035630Y+023622
T04
X+037402Y+020866
T07
X+039173Y+023622
T04
X+038386Y+020866
X+008860Y+034647
T07
X+008073Y+037403
T04
X+009844Y+034647
T07
X+011616Y+037403
T04
X+010828Y+034647
X+022637Y+034647
T07
X+021850Y+037403
T04
X+023621Y+034647
T07
X+025393Y+037403
T04
X+024606Y+034647
X+008860Y+020866
T07
X+008073Y+023622
T04
X+009844Y+020866
T07
X+011616Y+023622
T04
X+010828Y+020866
X+022637Y+020866
T07
X+021849Y+023622
T04
X+023621Y+020866
T07
X+025392Y+023622
T04
X+024605Y+020866
X+022637Y+007088
T07
X+021850Y+009844
T04
X+023621Y+007088
T07
X+025393Y+009844
T04
X+024606Y+007088
T01
X+030510Y+031014
X+030510Y+030014
X+030510Y+029014
X+030510Y+028014
X+030510Y+032014
X+030510Y+033014
X+005497Y+031013
X+005497Y+030013
X+005497Y+029013
X+005497Y+028013
X+005497Y+032013
X+005497Y+033013
X+005497Y+017231
X+005497Y+016231
X+005497Y+015231
X+005497Y+014231
X+005497Y+018231
X+005497Y+019231
X+017734Y+005496
X+016734Y+005496
X+015734Y+005496
T03
X+019854Y+010656
X+019854Y+011656
T08
X+004937Y+004937
X+042307Y+042307
X+042307Y+004937
X+004937Y+042307
T00
M30
