G04 DipTrace 3.3.1.1*
G04 TopSilk.gbr*
%MOIN*%
G04 #@! TF.FileFunction,Legend,Top*
G04 #@! TF.Part,Single*
%ADD10C,0.009843*%
%ADD52C,0.00772*%
%ADD53C,0.012351*%
%ADD54C,0.009264*%
%FSLAX26Y26*%
G04*
G70*
G90*
G75*
G01*
G04 TopSilk*
%LPD*%
X3234622Y613959D2*
D10*
X3033835D1*
X3234622Y712385D2*
X3033835D1*
X3234622D2*
Y613959D1*
X3033835Y712385D2*
Y613959D1*
X3234622Y717451D2*
X3033835D1*
X3234622Y815877D2*
X3033835D1*
X3234622D2*
Y717451D1*
X3033835Y815877D2*
Y717451D1*
X3234622Y823751D2*
X3033835D1*
X3234622Y922176D2*
X3033835D1*
X3234622D2*
Y823751D1*
X3033835Y922176D2*
Y823751D1*
X3234622Y925823D2*
X3033835D1*
X3234622Y1024248D2*
X3033835D1*
X3234622D2*
Y925823D1*
X3033835Y1024248D2*
Y925823D1*
Y1129322D2*
X3234622D1*
X3033835Y1030896D2*
X3234622D1*
X3033835D2*
Y1129322D1*
X3234622Y1030896D2*
Y1129322D1*
X3033835Y1233902D2*
X3234622D1*
X3033835Y1135476D2*
X3234622D1*
X3033835D2*
Y1233902D1*
X3234622Y1135476D2*
Y1233902D1*
X3033835Y1342031D2*
X3234622D1*
X3033835Y1243606D2*
X3234622D1*
X3033835D2*
Y1342031D1*
X3234622Y1243606D2*
Y1342031D1*
X3033835Y1447546D2*
X3234622D1*
X3033835Y1349121D2*
X3234622D1*
X3033835D2*
Y1447546D1*
X3234622Y1349121D2*
Y1447546D1*
X1939986Y585941D2*
Y786728D1*
X2038411Y585941D2*
Y786728D1*
Y585941D2*
X1939986D1*
X2038411Y786728D2*
X1939986D1*
X3889451Y1938632D2*
Y1738976D1*
X3789451D2*
X3889451D1*
X3789451Y1938632D2*
Y1738976D1*
Y1938632D2*
X3889451D1*
X935974Y3302198D2*
Y3102542D1*
X835974D2*
X935974D1*
X835974Y3302198D2*
Y3102542D1*
Y3302198D2*
X935974D1*
X2313701D2*
Y3102542D1*
X2213701D2*
X2313701D1*
X2213701Y3302198D2*
Y3102542D1*
Y3302198D2*
X2313701D1*
X2151860Y571084D2*
X2351516D1*
Y471084D2*
Y571084D1*
X2151860Y471084D2*
X2351516D1*
X2151860D2*
Y571084D1*
X1816980Y3990433D2*
X1541980D1*
Y3490401D1*
X1816980D1*
Y3990433D1*
X1816958Y2612282D2*
X1541958D1*
Y2112250D1*
X1816958D1*
Y2612282D1*
X840552Y734396D2*
X1115552D1*
Y1234428D1*
X840552D1*
Y734396D1*
X1529402Y734399D2*
X1804402D1*
Y1234431D1*
X1529402D1*
Y734399D1*
X3399517Y1384878D2*
X4076682D1*
Y656459D1*
X3399517D1*
Y1384878D1*
X3496052Y984383D2*
G02X3496052Y984383I244094J0D01*
G01*
X3553086Y3504274D2*
Y3650726D1*
X3927138Y3504274D2*
Y3648773D1*
X3553086Y3504274D2*
X3584622D1*
X3553086Y3957035D2*
X3927138D1*
Y3504274D2*
X3893648D1*
X3553086Y3957035D2*
Y3836971D1*
X3927138Y3957035D2*
Y3833013D1*
X3553125Y2126198D2*
Y2272650D1*
X3927177Y2126198D2*
Y2270697D1*
X3553125Y2126198D2*
X3584661D1*
X3553125Y2578959D2*
X3927177D1*
Y2126198D2*
X3893688D1*
X3553125Y2578959D2*
Y2458895D1*
X3927177Y2578959D2*
Y2454937D1*
X797398Y3504274D2*
Y3650726D1*
X1171450Y3504274D2*
Y3648773D1*
X797398Y3504274D2*
X828934D1*
X797398Y3957035D2*
X1171450D1*
Y3504274D2*
X1137960D1*
X797398Y3957035D2*
Y3836971D1*
X1171450Y3957035D2*
Y3833013D1*
X2175107Y3504274D2*
Y3650726D1*
X2549159Y3504274D2*
Y3648773D1*
X2175107Y3504274D2*
X2206643D1*
X2175107Y3957035D2*
X2549159D1*
Y3504274D2*
X2515669D1*
X2175107Y3957035D2*
Y3836971D1*
X2549159Y3957035D2*
Y3833013D1*
X797393Y2126198D2*
Y2272650D1*
X1171445Y2126198D2*
Y2270697D1*
X797393Y2126198D2*
X828929D1*
X797393Y2578959D2*
X1171445D1*
Y2126198D2*
X1137955D1*
X797393Y2578959D2*
Y2458895D1*
X1171445Y2578959D2*
Y2454937D1*
X2175050Y2126198D2*
Y2272650D1*
X2549102Y2126198D2*
Y2270697D1*
X2175050Y2126198D2*
X2206586D1*
X2175050Y2578959D2*
X2549102D1*
Y2126198D2*
X2515613D1*
X2175050Y2578959D2*
Y2458895D1*
X2549102Y2578959D2*
Y2454937D1*
X2175100Y748326D2*
Y894778D1*
X2549152Y748326D2*
Y892826D1*
X2175100Y748326D2*
X2206636D1*
X2175100Y1201088D2*
X2549152D1*
Y748326D2*
X2515663D1*
X2175100Y1201088D2*
Y1081023D1*
X2549152Y1201088D2*
Y1077065D1*
X2957241Y2732649D2*
X3144741D1*
Y3370167D1*
X2957241D1*
Y2732649D1*
X455940Y2732562D2*
X643440D1*
Y3370081D1*
X455940D1*
Y2732562D1*
Y1354294D2*
X643440D1*
Y1991813D1*
X455940D1*
Y1354294D1*
X1504682Y637059D2*
X1842195D1*
Y462059D1*
X1504682D1*
Y637059D1*
X1936220Y1015168D2*
Y1215955D1*
X2034646Y1015168D2*
Y1215955D1*
Y1015168D2*
X1936220D1*
X2034646Y1215955D2*
X1936220D1*
X2874352Y673669D2*
D52*
X2871975Y678423D1*
X2867167Y683231D1*
X2862414Y685608D1*
X2852852D1*
X2848043Y683231D1*
X2843290Y678423D1*
X2840858Y673669D1*
X2838482Y666484D1*
Y654491D1*
X2840858Y647361D1*
X2843290Y642553D1*
X2848043Y637799D1*
X2852852Y635368D1*
X2862414D1*
X2867167Y637799D1*
X2871975Y642553D1*
X2874352Y647361D1*
X2889791Y675991D2*
X2894599Y678423D1*
X2901785Y685552D1*
Y635368D1*
X2931594Y685552D2*
X2924409Y683176D1*
X2919600Y675991D1*
X2917224Y664052D1*
Y656867D1*
X2919600Y644929D1*
X2924409Y637744D1*
X2931594Y635368D1*
X2936347D1*
X2943532Y637744D1*
X2948285Y644929D1*
X2950717Y656867D1*
Y664052D1*
X2948285Y675991D1*
X2943532Y683176D1*
X2936347Y685552D1*
X2931594D1*
X2948285Y675991D2*
X2919600Y644929D1*
X2980526Y685552D2*
X2973341Y683176D1*
X2968533Y675991D1*
X2966156Y664052D1*
Y656867D1*
X2968533Y644929D1*
X2973341Y637744D1*
X2980526Y635368D1*
X2985280D1*
X2992465Y637744D1*
X2997218Y644929D1*
X2999650Y656867D1*
Y664052D1*
X2997218Y675991D1*
X2992465Y683176D1*
X2985280Y685552D1*
X2980526D1*
X2997218Y675991D2*
X2968533Y644929D1*
X2874352Y777161D2*
X2871975Y781915D1*
X2867167Y786723D1*
X2862414Y789100D1*
X2852852D1*
X2848043Y786723D1*
X2843290Y781915D1*
X2840858Y777161D1*
X2838482Y769976D1*
Y757983D1*
X2840858Y750853D1*
X2843290Y746045D1*
X2848043Y741292D1*
X2852852Y738860D1*
X2862414D1*
X2867167Y741292D1*
X2871975Y746045D1*
X2874352Y750853D1*
X2889791Y779483D2*
X2894599Y781915D1*
X2901785Y789044D1*
Y738860D1*
X2931594Y789044D2*
X2924409Y786668D1*
X2919600Y779483D1*
X2917224Y767545D1*
Y760360D1*
X2919600Y748421D1*
X2924409Y741236D1*
X2931594Y738860D1*
X2936347D1*
X2943532Y741236D1*
X2948285Y748421D1*
X2950717Y760360D1*
Y767545D1*
X2948285Y779483D1*
X2943532Y786668D1*
X2936347Y789044D1*
X2931594D1*
X2948285Y779483D2*
X2919600Y748421D1*
X2966156Y779483D2*
X2970965Y781915D1*
X2978150Y789044D1*
Y738860D1*
X2874352Y883461D2*
X2871975Y888214D1*
X2867167Y893022D1*
X2862414Y895399D1*
X2852852D1*
X2848043Y893022D1*
X2843290Y888214D1*
X2840858Y883461D1*
X2838482Y876276D1*
Y864282D1*
X2840858Y857152D1*
X2843290Y852344D1*
X2848043Y847591D1*
X2852852Y845159D1*
X2862414D1*
X2867167Y847591D1*
X2871975Y852344D1*
X2874352Y857152D1*
X2889791Y885782D2*
X2894599Y888214D1*
X2901785Y895344D1*
Y845159D1*
X2931594Y895344D2*
X2924409Y892967D1*
X2919600Y885782D1*
X2917224Y873844D1*
Y866659D1*
X2919600Y854721D1*
X2924409Y847536D1*
X2931594Y845159D1*
X2936347D1*
X2943532Y847536D1*
X2948285Y854721D1*
X2950717Y866659D1*
Y873844D1*
X2948285Y885782D1*
X2943532Y892967D1*
X2936347Y895344D1*
X2931594D1*
X2948285Y885782D2*
X2919600Y854721D1*
X2968588Y883405D2*
Y885782D1*
X2970965Y890590D1*
X2973341Y892967D1*
X2978150Y895344D1*
X2987711D1*
X2992465Y892967D1*
X2994841Y890590D1*
X2997273Y885782D1*
Y881029D1*
X2994841Y876220D1*
X2990088Y869091D1*
X2966156Y845159D1*
X2999650D1*
X2874352Y985533D2*
X2871975Y990286D1*
X2867167Y995095D1*
X2862414Y997471D1*
X2852852D1*
X2848043Y995095D1*
X2843290Y990286D1*
X2840858Y985533D1*
X2838482Y978348D1*
Y966354D1*
X2840858Y959225D1*
X2843290Y954416D1*
X2848043Y949663D1*
X2852852Y947231D1*
X2862414D1*
X2867167Y949663D1*
X2871975Y954416D1*
X2874352Y959225D1*
X2889791Y987854D2*
X2894599Y990286D1*
X2901785Y997416D1*
Y947231D1*
X2931594Y997416D2*
X2924409Y995039D1*
X2919600Y987854D1*
X2917224Y975916D1*
Y968731D1*
X2919600Y956793D1*
X2924409Y949608D1*
X2931594Y947231D1*
X2936347D1*
X2943532Y949608D1*
X2948285Y956793D1*
X2950717Y968731D1*
Y975916D1*
X2948285Y987854D1*
X2943532Y995039D1*
X2936347Y997416D1*
X2931594D1*
X2948285Y987854D2*
X2919600Y956793D1*
X2970965Y997416D2*
X2997218D1*
X2982903Y978293D1*
X2990088D1*
X2994841Y975916D1*
X2997218Y973539D1*
X2999650Y966354D1*
Y961601D1*
X2997218Y954416D1*
X2992465Y949608D1*
X2985280Y947231D1*
X2978095D1*
X2970965Y949608D1*
X2968588Y952040D1*
X2966156Y956793D1*
X2874352Y1090606D2*
X2871975Y1095360D1*
X2867167Y1100168D1*
X2862414Y1102545D1*
X2852852D1*
X2848043Y1100168D1*
X2843290Y1095360D1*
X2840858Y1090606D1*
X2838482Y1083421D1*
Y1071428D1*
X2840858Y1064298D1*
X2843290Y1059490D1*
X2848043Y1054736D1*
X2852852Y1052305D1*
X2862414D1*
X2867167Y1054736D1*
X2871975Y1059490D1*
X2874352Y1064298D1*
X2889791Y1092928D2*
X2894599Y1095360D1*
X2901785Y1102489D1*
Y1052305D1*
X2931594Y1102489D2*
X2924409Y1100113D1*
X2919600Y1092928D1*
X2917224Y1080989D1*
Y1073804D1*
X2919600Y1061866D1*
X2924409Y1054681D1*
X2931594Y1052305D1*
X2936347D1*
X2943532Y1054681D1*
X2948285Y1061866D1*
X2950717Y1073804D1*
Y1080989D1*
X2948285Y1092928D1*
X2943532Y1100113D1*
X2936347Y1102489D1*
X2931594D1*
X2948285Y1092928D2*
X2919600Y1061866D1*
X2990088Y1052305D2*
Y1102489D1*
X2966156Y1069051D1*
X3002026D1*
X2874352Y1195186D2*
X2871975Y1199940D1*
X2867167Y1204748D1*
X2862414Y1207125D1*
X2852852D1*
X2848043Y1204748D1*
X2843290Y1199940D1*
X2840858Y1195186D1*
X2838482Y1188001D1*
Y1176008D1*
X2840858Y1168878D1*
X2843290Y1164070D1*
X2848043Y1159317D1*
X2852852Y1156885D1*
X2862414D1*
X2867167Y1159317D1*
X2871975Y1164070D1*
X2874352Y1168878D1*
X2889791Y1197508D2*
X2894599Y1199940D1*
X2901785Y1207069D1*
Y1156885D1*
X2931594Y1207069D2*
X2924409Y1204693D1*
X2919600Y1197508D1*
X2917224Y1185570D1*
Y1178384D1*
X2919600Y1166446D1*
X2924409Y1159261D1*
X2931594Y1156885D1*
X2936347D1*
X2943532Y1159261D1*
X2948285Y1166446D1*
X2950717Y1178384D1*
Y1185570D1*
X2948285Y1197508D1*
X2943532Y1204693D1*
X2936347Y1207069D1*
X2931594D1*
X2948285Y1197508D2*
X2919600Y1166446D1*
X2994841Y1207069D2*
X2970965D1*
X2968588Y1185570D1*
X2970965Y1187946D1*
X2978150Y1190378D1*
X2985280D1*
X2992465Y1187946D1*
X2997273Y1183193D1*
X2999650Y1176008D1*
Y1171255D1*
X2997273Y1164070D1*
X2992465Y1159261D1*
X2985280Y1156885D1*
X2978150D1*
X2970965Y1159261D1*
X2968588Y1161693D1*
X2966156Y1166446D1*
X2874352Y1303316D2*
X2871975Y1308070D1*
X2867167Y1312878D1*
X2862414Y1315255D1*
X2852852D1*
X2848043Y1312878D1*
X2843290Y1308070D1*
X2840858Y1303316D1*
X2838482Y1296131D1*
Y1284138D1*
X2840858Y1277008D1*
X2843290Y1272200D1*
X2848043Y1267446D1*
X2852852Y1265015D1*
X2862414D1*
X2867167Y1267446D1*
X2871975Y1272200D1*
X2874352Y1277008D1*
X2889791Y1305638D2*
X2894599Y1308070D1*
X2901785Y1315199D1*
Y1265015D1*
X2931594Y1315199D2*
X2924409Y1312823D1*
X2919600Y1305638D1*
X2917224Y1293699D1*
Y1286514D1*
X2919600Y1274576D1*
X2924409Y1267391D1*
X2931594Y1265015D1*
X2936347D1*
X2943532Y1267391D1*
X2948285Y1274576D1*
X2950717Y1286514D1*
Y1293699D1*
X2948285Y1305638D1*
X2943532Y1312823D1*
X2936347Y1315199D1*
X2931594D1*
X2948285Y1305638D2*
X2919600Y1274576D1*
X2994841Y1308070D2*
X2992465Y1312823D1*
X2985280Y1315199D1*
X2980526D1*
X2973341Y1312823D1*
X2968533Y1305638D1*
X2966156Y1293699D1*
Y1281761D1*
X2968533Y1272200D1*
X2973341Y1267391D1*
X2980526Y1265015D1*
X2982903D1*
X2990033Y1267391D1*
X2994841Y1272200D1*
X2997218Y1279385D1*
Y1281761D1*
X2994841Y1288946D1*
X2990033Y1293699D1*
X2982903Y1296076D1*
X2980526D1*
X2973341Y1293699D1*
X2968533Y1288946D1*
X2966156Y1281761D1*
X2874352Y1408831D2*
X2871975Y1413584D1*
X2867167Y1418392D1*
X2862414Y1420769D1*
X2852852D1*
X2848043Y1418392D1*
X2843290Y1413584D1*
X2840858Y1408831D1*
X2838482Y1401646D1*
Y1389652D1*
X2840858Y1382522D1*
X2843290Y1377714D1*
X2848043Y1372961D1*
X2852852Y1370529D1*
X2862414D1*
X2867167Y1372961D1*
X2871975Y1377714D1*
X2874352Y1382522D1*
X2889791Y1411152D2*
X2894599Y1413584D1*
X2901785Y1420714D1*
Y1370529D1*
X2931594Y1420714D2*
X2924409Y1418337D1*
X2919600Y1411152D1*
X2917224Y1399214D1*
Y1392029D1*
X2919600Y1380091D1*
X2924409Y1372906D1*
X2931594Y1370529D1*
X2936347D1*
X2943532Y1372906D1*
X2948285Y1380091D1*
X2950717Y1392029D1*
Y1399214D1*
X2948285Y1411152D1*
X2943532Y1418337D1*
X2936347Y1420714D1*
X2931594D1*
X2948285Y1411152D2*
X2919600Y1380091D1*
X2975718Y1370529D2*
X2999650Y1420714D1*
X2966156D1*
X1878701Y641648D2*
X1873948Y639272D1*
X1869139Y634463D1*
X1866763Y629710D1*
Y620149D1*
X1869139Y615340D1*
X1873948Y610587D1*
X1878701Y608155D1*
X1885886Y605778D1*
X1897879D1*
X1905009Y608155D1*
X1909817Y610587D1*
X1914571Y615340D1*
X1917003Y620149D1*
Y629710D1*
X1914571Y634463D1*
X1909818Y639272D1*
X1905009Y641648D1*
X1876379Y657088D2*
X1873948Y661896D1*
X1866818Y669081D1*
X1917003D1*
X1866818Y698890D2*
X1869194Y691705D1*
X1876379Y686897D1*
X1888318Y684520D1*
X1895503D1*
X1907441Y686897D1*
X1914626Y691705D1*
X1917003Y698890D1*
Y703644D1*
X1914626Y710829D1*
X1907441Y715582D1*
X1895503Y718014D1*
X1888318D1*
X1876379Y715582D1*
X1869194Y710829D1*
X1866818Y703644D1*
Y698890D1*
X1876379Y715582D2*
X1907441Y686897D1*
X1866818Y745391D2*
X1869194Y738261D1*
X1873948Y735829D1*
X1878756D1*
X1883509Y738261D1*
X1885941Y743015D1*
X1888318Y752576D1*
X1890694Y759761D1*
X1895503Y764514D1*
X1900256Y766891D1*
X1907441D1*
X1912194Y764514D1*
X1914626Y762138D1*
X1917003Y754953D1*
Y745391D1*
X1914626Y738261D1*
X1912194Y735829D1*
X1907441Y733453D1*
X1900256D1*
X1895503Y735829D1*
X1890694Y740638D1*
X1888318Y747768D1*
X1885941Y757329D1*
X1883509Y762138D1*
X1878756Y764514D1*
X1873948D1*
X1869194Y762138D1*
X1866818Y754953D1*
Y745391D1*
X3835251Y1759409D2*
Y1780909D1*
X3832819Y1788094D1*
X3830443Y1790526D1*
X3825689Y1792902D1*
X3820881D1*
X3816128Y1790526D1*
X3813696Y1788094D1*
X3811319Y1780909D1*
Y1759409D1*
X3861559D1*
X3835251Y1776156D2*
X3861559Y1792902D1*
X3820936Y1808342D2*
X3818504Y1813150D1*
X3811375Y1820335D1*
X3861559D1*
X3811375Y1850144D2*
X3813751Y1842959D1*
X3820936Y1838151D1*
X3832874Y1835774D1*
X3840059D1*
X3851998Y1838151D1*
X3859183Y1842959D1*
X3861559Y1850144D1*
Y1854897D1*
X3859183Y1862082D1*
X3851998Y1866836D1*
X3840059Y1869268D1*
X3832874D1*
X3820936Y1866836D1*
X3813751Y1862082D1*
X3811375Y1854897D1*
Y1850144D1*
X3820936Y1866836D2*
X3851998Y1838151D1*
X3811375Y1899077D2*
X3813751Y1891892D1*
X3820936Y1887083D1*
X3832874Y1884707D1*
X3840059D1*
X3851998Y1887083D1*
X3859183Y1891892D1*
X3861559Y1899077D1*
Y1903830D1*
X3859183Y1911015D1*
X3851998Y1915768D1*
X3840059Y1918200D1*
X3832874D1*
X3820936Y1915768D1*
X3813751Y1911015D1*
X3811375Y1903830D1*
Y1899077D1*
X3820936Y1915768D2*
X3851998Y1887083D1*
X881773Y3133725D2*
Y3155224D1*
X879341Y3162409D1*
X876965Y3164841D1*
X872212Y3167218D1*
X867403D1*
X862650Y3164841D1*
X860218Y3162409D1*
X857842Y3155224D1*
Y3133725D1*
X908082D1*
X881773Y3150471D2*
X908082Y3167218D1*
X867459Y3182657D2*
X865027Y3187465D1*
X857897Y3194651D1*
X908082Y3194650D1*
X857897Y3224460D2*
X860273Y3217275D1*
X867459Y3212466D1*
X879397Y3210090D1*
X886582D1*
X898520Y3212466D1*
X905705Y3217275D1*
X908082Y3224460D1*
Y3229213D1*
X905705Y3236398D1*
X898520Y3241151D1*
X886582Y3243583D1*
X879397D1*
X867459Y3241151D1*
X860273Y3236398D1*
X857897Y3229213D1*
Y3224460D1*
X867459Y3241151D2*
X898520Y3212466D1*
X867459Y3259022D2*
X865027Y3263831D1*
X857897Y3271016D1*
X908082D1*
X2259500Y3122975D2*
Y3144474D1*
X2257069Y3151659D1*
X2254692Y3154091D1*
X2249939Y3156468D1*
X2245130D1*
X2240377Y3154091D1*
X2237945Y3151659D1*
X2235569Y3144474D1*
Y3122975D1*
X2285809D1*
X2259500Y3139721D2*
X2285809Y3156468D1*
X2245186Y3171907D2*
X2242754Y3176716D1*
X2235624Y3183901D1*
X2285809D1*
X2235624Y3213710D2*
X2238001Y3206525D1*
X2245186Y3201716D1*
X2257124Y3199340D1*
X2264309D1*
X2276247Y3201716D1*
X2283432Y3206525D1*
X2285809Y3213710D1*
Y3218463D1*
X2283432Y3225648D1*
X2276247Y3230401D1*
X2264309Y3232833D1*
X2257124D1*
X2245186Y3230401D1*
X2238001Y3225648D1*
X2235624Y3218463D1*
Y3213710D1*
X2245186Y3230401D2*
X2276247Y3201716D1*
X2247562Y3250704D2*
X2245186D1*
X2240377Y3253081D1*
X2238001Y3255457D1*
X2235624Y3260266D1*
Y3269828D1*
X2238001Y3274581D1*
X2240377Y3276957D1*
X2245186Y3279389D1*
X2249939D1*
X2254747Y3276957D1*
X2261877Y3272204D1*
X2285809Y3248272D1*
Y3281766D1*
X2172292Y525284D2*
X2193792D1*
X2200977Y527716D1*
X2203409Y530093D1*
X2205785Y534846D1*
Y539655D1*
X2203409Y544408D1*
X2200977Y546840D1*
X2193792Y549216D1*
X2172292D1*
Y498976D1*
X2189039Y525284D2*
X2205785Y498976D1*
X2221225Y539599D2*
X2226033Y542031D1*
X2233218Y549161D1*
Y498976D1*
X2263027Y549161D2*
X2255842Y546784D1*
X2251034Y539599D1*
X2248657Y527661D1*
Y520476D1*
X2251034Y508538D1*
X2255842Y501353D1*
X2263027Y498976D1*
X2267781D1*
X2274966Y501353D1*
X2279719Y508538D1*
X2282151Y520476D1*
Y527661D1*
X2279719Y539599D1*
X2274966Y546784D1*
X2267781Y549161D1*
X2263027D1*
X2279719Y539599D2*
X2251034Y508538D1*
X2302398Y549161D2*
X2328651D1*
X2314337Y530038D1*
X2321522D1*
X2326275Y527661D1*
X2328651Y525284D1*
X2331083Y518099D1*
Y513346D1*
X2328651Y506161D1*
X2323898Y501353D1*
X2316713Y498976D1*
X2309528D1*
X2302398Y501353D1*
X2300022Y503785D1*
X2297590Y508538D1*
X1682511Y4066455D2*
X1677757Y4071264D1*
X1670572Y4073640D1*
X1661011D1*
X1653826Y4071264D1*
X1649017Y4066455D1*
Y4061702D1*
X1651449Y4056894D1*
X1653826Y4054517D1*
X1658579Y4052141D1*
X1672949Y4047332D1*
X1677757Y4044956D1*
X1680134Y4042524D1*
X1682511Y4037770D1*
Y4030585D1*
X1677757Y4025832D1*
X1670572Y4023400D1*
X1661011D1*
X1653826Y4025832D1*
X1649017Y4030585D1*
X1697950Y4064024D2*
X1702758Y4066455D1*
X1709943Y4073585D1*
Y4023400D1*
X1671738Y2688304D2*
X1666985Y2693113D1*
X1659800Y2695489D1*
X1650239D1*
X1643053Y2693113D1*
X1638245Y2688304D1*
Y2683551D1*
X1640677Y2678743D1*
X1643053Y2676366D1*
X1647807Y2673990D1*
X1662177Y2669181D1*
X1666985Y2666805D1*
X1669362Y2664373D1*
X1671738Y2659620D1*
Y2652435D1*
X1666985Y2647681D1*
X1659800Y2645249D1*
X1650239D1*
X1643053Y2647681D1*
X1638245Y2652435D1*
X1689609Y2683496D2*
Y2685873D1*
X1691986Y2690681D1*
X1694363Y2693058D1*
X1699171Y2695434D1*
X1708733D1*
X1713486Y2693058D1*
X1715863Y2690681D1*
X1718294Y2685873D1*
Y2681119D1*
X1715863Y2676311D1*
X1711109Y2669181D1*
X1687178Y2645249D1*
X1720671D1*
X970333Y1310450D2*
X965580Y1315259D1*
X958395Y1317635D1*
X948833D1*
X941648Y1315259D1*
X936840Y1310450D1*
Y1305697D1*
X939271Y1300888D1*
X941648Y1298512D1*
X946401Y1296135D1*
X960771Y1291327D1*
X965580Y1288950D1*
X967956Y1286518D1*
X970333Y1281765D1*
Y1274580D1*
X965580Y1269827D1*
X958395Y1267395D1*
X948833D1*
X941648Y1269827D1*
X936840Y1274580D1*
X990581Y1317580D2*
X1016834D1*
X1002519Y1298457D1*
X1009704D1*
X1014457Y1296080D1*
X1016834Y1293703D1*
X1019265Y1286518D1*
Y1281765D1*
X1016834Y1274580D1*
X1012080Y1269772D1*
X1004895Y1267395D1*
X997710D1*
X990581Y1269772D1*
X988204Y1272204D1*
X985772Y1276957D1*
X1657994Y1310453D2*
X1653240Y1315261D1*
X1646055Y1317638D1*
X1636494D1*
X1629309Y1315261D1*
X1624500Y1310453D1*
Y1305700D1*
X1626932Y1300891D1*
X1629309Y1298515D1*
X1634062Y1296138D1*
X1648432Y1291329D1*
X1653240Y1288953D1*
X1655617Y1286521D1*
X1657994Y1281768D1*
Y1274583D1*
X1653240Y1269830D1*
X1646055Y1267398D1*
X1636494D1*
X1629309Y1269830D1*
X1624500Y1274583D1*
X1697365Y1267398D2*
Y1317583D1*
X1673433Y1284144D1*
X1709303D1*
X3731168Y1450996D2*
X3726414Y1455804D1*
X3719229Y1458181D1*
X3709668D1*
X3702483Y1455804D1*
X3697674Y1450996D1*
Y1446243D1*
X3700106Y1441434D1*
X3702483Y1439058D1*
X3707236Y1436681D1*
X3721606Y1431873D1*
X3726414Y1429496D1*
X3728791Y1427064D1*
X3731168Y1422311D1*
Y1415126D1*
X3726414Y1410373D1*
X3719229Y1407941D1*
X3709668D1*
X3702483Y1410373D1*
X3697674Y1415126D1*
X3775292Y1458126D2*
X3751415D1*
X3749039Y1436626D1*
X3751415Y1439003D1*
X3758600Y1441434D1*
X3765730D1*
X3772915Y1439003D1*
X3777724Y1434249D1*
X3780100Y1427064D1*
Y1422311D1*
X3777724Y1415126D1*
X3772915Y1410318D1*
X3765730Y1407941D1*
X3758600D1*
X3751415Y1410318D1*
X3749039Y1412750D1*
X3746607Y1417503D1*
X3682806Y4030259D2*
X3701929Y3980019D1*
X3721052Y4030259D1*
X3736491Y4006327D2*
X3757991D1*
X3765176Y4008759D1*
X3767608Y4011135D1*
X3769985Y4015888D1*
Y4020697D1*
X3767608Y4025450D1*
X3765176Y4027882D1*
X3757991Y4030259D1*
X3736491D1*
Y3980019D1*
X3753238Y4006327D2*
X3769985Y3980019D1*
X3785424Y4020642D2*
X3790232Y4023073D1*
X3797417Y4030203D1*
Y3980019D1*
X3672095Y2652182D2*
X3691218Y2601942D1*
X3710342Y2652182D1*
X3725781Y2628251D2*
X3747281D1*
X3754466Y2630683D1*
X3756898Y2633059D1*
X3759274Y2637812D1*
Y2642621D1*
X3756898Y2647374D1*
X3754466Y2649806D1*
X3747281Y2652182D1*
X3725781D1*
Y2601942D1*
X3742528Y2628251D2*
X3759274Y2601942D1*
X3777145Y2640189D2*
Y2642565D1*
X3779522Y2647374D1*
X3781898Y2649751D1*
X3786707Y2652127D1*
X3796269D1*
X3801022Y2649751D1*
X3803398Y2647374D1*
X3805830Y2642565D1*
Y2637812D1*
X3803398Y2633004D1*
X3798645Y2625874D1*
X3774713Y2601942D1*
X3808207D1*
X916368Y4030259D2*
X935491Y3980019D1*
X954615Y4030259D1*
X970054Y4006327D2*
X991554D1*
X998739Y4008759D1*
X1001171Y4011135D1*
X1003547Y4015888D1*
Y4020697D1*
X1001171Y4025450D1*
X998739Y4027882D1*
X991554Y4030259D1*
X970054D1*
Y3980019D1*
X986800Y4006327D2*
X1003547Y3980019D1*
X1023795Y4030203D2*
X1050048D1*
X1035733Y4011080D1*
X1042918D1*
X1047671Y4008703D1*
X1050048Y4006327D1*
X1052480Y3999142D1*
Y3994389D1*
X1050048Y3987204D1*
X1045295Y3982395D1*
X1038110Y3980019D1*
X1030925D1*
X1023795Y3982395D1*
X1021418Y3984827D1*
X1018986Y3989580D1*
X2292888Y4030259D2*
X2312012Y3980019D1*
X2331135Y4030259D1*
X2346574Y4006327D2*
X2368074D1*
X2375259Y4008759D1*
X2377691Y4011135D1*
X2380068Y4015888D1*
Y4020697D1*
X2377691Y4025450D1*
X2375259Y4027882D1*
X2368074Y4030259D1*
X2346574D1*
Y3980019D1*
X2363321Y4006327D2*
X2380068Y3980019D1*
X2419438D2*
Y4030203D1*
X2395507Y3996765D1*
X2431377D1*
X916363Y2652182D2*
X935486Y2601942D1*
X954609Y2652182D1*
X970049Y2628251D2*
X991548D1*
X998733Y2630683D1*
X1001165Y2633059D1*
X1003542Y2637812D1*
Y2642621D1*
X1001165Y2647374D1*
X998733Y2649806D1*
X991548Y2652182D1*
X970049D1*
Y2601942D1*
X986795Y2628251D2*
X1003542Y2601942D1*
X1047666Y2652127D2*
X1023790D1*
X1021413Y2630627D1*
X1023790Y2633004D1*
X1030975Y2635436D1*
X1038104D1*
X1045289Y2633004D1*
X1050098Y2628251D1*
X1052474Y2621066D1*
Y2616312D1*
X1050098Y2609127D1*
X1045289Y2604319D1*
X1038104Y2601942D1*
X1030975D1*
X1023790Y2604319D1*
X1021413Y2606751D1*
X1018981Y2611504D1*
X2295236Y2652182D2*
X2314359Y2601942D1*
X2333483Y2652182D1*
X2348922Y2628251D2*
X2370422D1*
X2377607Y2630683D1*
X2380039Y2633059D1*
X2382415Y2637812D1*
Y2642621D1*
X2380039Y2647374D1*
X2377607Y2649806D1*
X2370422Y2652182D1*
X2348922D1*
Y2601942D1*
X2365669Y2628251D2*
X2382415Y2601942D1*
X2426539Y2644997D2*
X2424163Y2649751D1*
X2416978Y2652127D1*
X2412225D1*
X2405040Y2649751D1*
X2400231Y2642565D1*
X2397855Y2630627D1*
Y2618689D1*
X2400231Y2609127D1*
X2405040Y2604319D1*
X2412225Y2601942D1*
X2414601D1*
X2421731Y2604319D1*
X2426539Y2609127D1*
X2428916Y2616312D1*
Y2618689D1*
X2426539Y2625874D1*
X2421731Y2630627D1*
X2414601Y2633004D1*
X2412225D1*
X2405040Y2630627D1*
X2400231Y2625874D1*
X2397855Y2618689D1*
X2294070Y1274311D2*
X2313193Y1224071D1*
X2332317Y1274311D1*
X2347756Y1250379D2*
X2369256D1*
X2376441Y1252811D1*
X2378873Y1255188D1*
X2381249Y1259941D1*
Y1264749D1*
X2378873Y1269503D1*
X2376441Y1271934D1*
X2369256Y1274311D1*
X2347756D1*
Y1224071D1*
X2364503Y1250379D2*
X2381249Y1224071D1*
X2406250D2*
X2430182Y1274256D1*
X2396688D1*
X2996061Y3443390D2*
X3029555Y3393150D1*
Y3443390D2*
X2996061Y3393150D1*
X3078487Y3436205D2*
X3073734Y3441014D1*
X3066549Y3443390D1*
X3056988D1*
X3049803Y3441014D1*
X3044994Y3436205D1*
Y3431452D1*
X3047426Y3426644D1*
X3049803Y3424267D1*
X3054556Y3421891D1*
X3068926Y3417082D1*
X3073734Y3414706D1*
X3076111Y3412274D1*
X3078487Y3407520D1*
Y3400335D1*
X3073734Y3395582D1*
X3066549Y3393150D1*
X3056988D1*
X3049803Y3395582D1*
X3044994Y3400335D1*
X3093927Y3433774D2*
X3098735Y3436205D1*
X3105920Y3443335D1*
Y3393150D1*
X484011Y3443304D2*
X517504Y3393064D1*
Y3443304D2*
X484011Y3393064D1*
X566437Y3436119D2*
X561684Y3440927D1*
X554499Y3443304D1*
X544937D1*
X537752Y3440927D1*
X532944Y3436119D1*
Y3431366D1*
X535375Y3426557D1*
X537752Y3424181D1*
X542505Y3421804D1*
X556875Y3416995D1*
X561684Y3414619D1*
X564060Y3412187D1*
X566437Y3407434D1*
Y3400249D1*
X561684Y3395496D1*
X554499Y3393064D1*
X544937D1*
X537752Y3395496D1*
X532944Y3400249D1*
X584308Y3431310D2*
Y3433687D1*
X586685Y3438495D1*
X589061Y3440872D1*
X593870Y3443249D1*
X603431D1*
X608185Y3440872D1*
X610561Y3438495D1*
X612993Y3433687D1*
Y3428934D1*
X610561Y3424125D1*
X605808Y3416995D1*
X581876Y3393064D1*
X615370D1*
X484011Y2065036D2*
X517504Y2014796D1*
Y2065036D2*
X484011Y2014796D1*
X566437Y2057851D2*
X561684Y2062659D1*
X554499Y2065036D1*
X544937D1*
X537752Y2062659D1*
X532944Y2057851D1*
Y2053098D1*
X535375Y2048289D1*
X537752Y2045913D1*
X542505Y2043536D1*
X556875Y2038728D1*
X561684Y2036351D1*
X564060Y2033919D1*
X566437Y2029166D1*
Y2021981D1*
X561684Y2017228D1*
X554499Y2014796D1*
X544937D1*
X537752Y2017228D1*
X532944Y2021981D1*
X586685Y2064981D2*
X612938D1*
X598623Y2045858D1*
X605808D1*
X610561Y2043481D1*
X612938Y2041104D1*
X615370Y2033919D1*
Y2029166D1*
X612938Y2021981D1*
X608185Y2017173D1*
X600999Y2014796D1*
X593814D1*
X586685Y2017173D1*
X584308Y2019605D1*
X581876Y2024358D1*
X1581577Y710282D2*
X1615071Y660042D1*
Y710282D2*
X1581577Y660042D1*
X1664003Y703097D2*
X1659250Y707906D1*
X1652065Y710282D1*
X1642503D1*
X1635318Y707906D1*
X1630510Y703097D1*
Y698344D1*
X1632942Y693535D1*
X1635318Y691159D1*
X1640072Y688782D1*
X1654442Y683974D1*
X1659250Y681597D1*
X1661627Y679165D1*
X1664003Y674412D1*
Y667227D1*
X1659250Y662474D1*
X1652065Y660042D1*
X1642503D1*
X1635318Y662474D1*
X1630510Y667227D1*
X1703374Y660042D2*
Y710227D1*
X1679443Y676789D1*
X1715312D1*
X1874936Y1072036D2*
X1870182Y1069659D1*
X1865374Y1064851D1*
X1862997Y1060098D1*
Y1050536D1*
X1865374Y1045728D1*
X1870182Y1040975D1*
X1874936Y1038543D1*
X1882121Y1036166D1*
X1894114D1*
X1901244Y1038543D1*
X1906052Y1040975D1*
X1910806Y1045728D1*
X1913237Y1050536D1*
Y1060098D1*
X1910806Y1064851D1*
X1906052Y1069659D1*
X1901244Y1072036D1*
X1872614Y1087475D2*
X1870183Y1092284D1*
X1863053Y1099469D1*
X1913237D1*
X1863053Y1129278D2*
X1865429Y1122093D1*
X1872614Y1117285D1*
X1884553Y1114908D1*
X1891738D1*
X1903676Y1117285D1*
X1910861Y1122093D1*
X1913237Y1129278D1*
Y1134031D1*
X1910861Y1141216D1*
X1903676Y1145969D1*
X1891738Y1148401D1*
X1884553D1*
X1872614Y1145969D1*
X1865429Y1141216D1*
X1863053Y1134031D1*
Y1129278D1*
X1872614Y1145969D2*
X1903676Y1117285D1*
X1879744Y1194957D2*
X1886929Y1192525D1*
X1891738Y1187772D1*
X1894114Y1180587D1*
Y1178211D1*
X1891738Y1171026D1*
X1886929Y1166272D1*
X1879744Y1163841D1*
X1877368D1*
X1870182Y1166272D1*
X1865429Y1171026D1*
X1863053Y1178211D1*
Y1180587D1*
X1865429Y1187772D1*
X1870182Y1192525D1*
X1879744Y1194957D1*
X1891738D1*
X1903676Y1192525D1*
X1910861Y1187772D1*
X1913237Y1180587D1*
Y1175834D1*
X1910861Y1168649D1*
X1906052Y1166272D1*
X4127022Y665768D2*
D53*
X4207406D1*
X4127022Y638974D2*
Y692563D1*
X4165313Y717266D2*
Y751666D1*
X4161422Y763162D1*
X4157620Y767053D1*
X4150015Y770855D1*
X4142321D1*
X4134716Y767053D1*
X4130825Y763162D1*
X4127022Y751666D1*
Y717266D1*
X4207406D1*
X4165313Y744060D2*
X4207406Y770855D1*
X4127022Y818550D2*
X4130737Y810945D1*
X4138430Y803251D1*
X4146124Y799449D1*
X4157620Y795558D1*
X4176721D1*
X4188217Y799449D1*
X4195822Y803251D1*
X4203515Y810945D1*
X4207318Y818550D1*
Y833849D1*
X4203515Y841542D1*
X4195822Y849147D1*
X4188217Y852950D1*
X4176721Y856841D1*
X4157620D1*
X4146124Y852950D1*
X4138430Y849147D1*
X4130737Y841542D1*
X4127022Y833849D1*
Y818550D1*
X4192019Y830046D2*
X4215011Y852950D1*
X4127022Y959305D2*
X4207406Y989902D1*
X4127022Y1020500D1*
X4146212Y1049093D2*
X4142409D1*
X4134716Y1052896D1*
X4130913Y1056698D1*
X4127111Y1064392D1*
Y1079690D1*
X4130913Y1087296D1*
X4134716Y1091098D1*
X4142409Y1094989D1*
X4150015D1*
X4157708Y1091098D1*
X4169116Y1083493D1*
X4207406Y1045202D1*
Y1098792D1*
X4146124Y1258648D2*
X4138518Y1254845D1*
X4130825Y1247152D1*
X4127022Y1239547D1*
Y1224248D1*
X4130825Y1216555D1*
X4138518Y1208949D1*
X4146124Y1205059D1*
X4157620Y1201256D1*
X4176809D1*
X4188217Y1205059D1*
X4195910Y1208949D1*
X4203515Y1216555D1*
X4207406Y1224248D1*
Y1239547D1*
X4203515Y1247152D1*
X4195910Y1254845D1*
X4188217Y1258648D1*
X4153817Y1302452D2*
X4157620Y1294847D1*
X4165313Y1287153D1*
X4176809Y1283351D1*
X4184414D1*
X4195910Y1287153D1*
X4203515Y1294847D1*
X4207406Y1302452D1*
Y1313948D1*
X4203515Y1321641D1*
X4195910Y1329246D1*
X4184414Y1333137D1*
X4176809D1*
X4165313Y1329246D1*
X4157620Y1321641D1*
X4153817Y1313948D1*
Y1302452D1*
Y1357840D2*
X4207406D1*
X4169116D2*
X4157620Y1369336D1*
X4153817Y1377030D1*
Y1388437D1*
X4157620Y1396131D1*
X4169116Y1399934D1*
X4207406D1*
X4127022Y1436132D2*
X4192108D1*
X4203515Y1439935D1*
X4207406Y1447628D1*
Y1455234D1*
X4153817Y1424636D2*
Y1451431D1*
Y1479936D2*
X4207406D1*
X4176809D2*
X4165313Y1483827D1*
X4157620Y1491432D1*
X4153817Y1499126D1*
Y1510622D1*
Y1554426D2*
X4157620Y1546821D1*
X4165313Y1539127D1*
X4176809Y1535325D1*
X4184414D1*
X4195910Y1539127D1*
X4203515Y1546821D1*
X4207406Y1554426D1*
Y1565922D1*
X4203515Y1573615D1*
X4195910Y1581221D1*
X4184414Y1585112D1*
X4176809D1*
X4165313Y1581221D1*
X4157620Y1573615D1*
X4153817Y1565922D1*
Y1554426D1*
X4127022Y1609814D2*
X4207406D1*
X4127022Y1712279D2*
X4207406D1*
Y1746767D1*
X4203515Y1758263D1*
X4199713Y1762065D1*
X4192108Y1765868D1*
X4180612D1*
X4172918Y1762065D1*
X4169116Y1758263D1*
X4165313Y1746767D1*
X4161422Y1758263D1*
X4157620Y1762065D1*
X4150014Y1765868D1*
X4142321D1*
X4134716Y1762065D1*
X4130825Y1758263D1*
X4127022Y1746767D1*
Y1712279D1*
X4165313D2*
Y1746767D1*
X4153817Y1809672D2*
X4157620Y1802067D1*
X4165313Y1794373D1*
X4176809Y1790571D1*
X4184414D1*
X4195910Y1794373D1*
X4203515Y1802067D1*
X4207406Y1809672D1*
Y1821168D1*
X4203515Y1828862D1*
X4195910Y1836467D1*
X4184414Y1840358D1*
X4176809D1*
X4165313Y1836467D1*
X4157620Y1828862D1*
X4153817Y1821168D1*
Y1809672D1*
Y1910956D2*
X4207406D1*
X4165313D2*
X4157620Y1903351D1*
X4153817Y1895658D1*
Y1884250D1*
X4157620Y1876556D1*
X4165313Y1868951D1*
X4176809Y1865060D1*
X4184414D1*
X4195910Y1868951D1*
X4203515Y1876556D1*
X4207406Y1884250D1*
Y1895658D1*
X4203515Y1903351D1*
X4195910Y1910956D1*
X4153817Y1935659D2*
X4207406D1*
X4176809D2*
X4165313Y1939550D1*
X4157620Y1947155D1*
X4153817Y1954849D1*
Y1966345D1*
X4127022Y2036943D2*
X4207406D1*
X4165313D2*
X4157620Y2029338D1*
X4153817Y2021645D1*
Y2010149D1*
X4157620Y2002544D1*
X4165313Y1994850D1*
X4176809Y1991047D1*
X4184414D1*
X4195910Y1994850D1*
X4203515Y2002544D1*
X4207406Y2010149D1*
Y2021645D1*
X4203515Y2029338D1*
X4195910Y2036943D1*
X4167259Y2139408D2*
Y2183623D1*
X4138518Y2339677D2*
X4130825Y2332072D1*
X4127022Y2320576D1*
Y2305277D1*
X4130825Y2293781D1*
X4138518Y2286088D1*
X4146124D1*
X4153817Y2289979D1*
X4157620Y2293781D1*
X4161422Y2301386D1*
X4169116Y2324378D1*
X4172918Y2332072D1*
X4176809Y2335874D1*
X4184414Y2339677D1*
X4195910D1*
X4203515Y2332072D1*
X4207406Y2320576D1*
Y2305277D1*
X4203515Y2293781D1*
X4195910Y2286088D1*
X4153817Y2368271D2*
X4207406Y2391174D1*
X4222705Y2383569D1*
X4230398Y2375876D1*
X4234201Y2368271D1*
Y2364380D1*
X4153817Y2414167D2*
X4207406Y2391174D1*
X4153817Y2438869D2*
X4207406D1*
X4169116D2*
X4157620Y2450365D1*
X4153817Y2458059D1*
Y2469467D1*
X4157620Y2477160D1*
X4169116Y2480963D1*
X4207406D1*
X4127022Y2517161D2*
X4192108D1*
X4203515Y2520964D1*
X4207406Y2528658D1*
Y2536263D1*
X4153817Y2505665D2*
Y2532460D1*
Y2580067D2*
X4157620Y2572461D1*
X4165313Y2564768D1*
X4176809Y2560965D1*
X4184414D1*
X4195910Y2564768D1*
X4203515Y2572461D1*
X4207406Y2580067D1*
Y2591563D1*
X4203515Y2599256D1*
X4195910Y2606861D1*
X4184414Y2610752D1*
X4176809D1*
X4165313Y2606861D1*
X4157620Y2599256D1*
X4153817Y2591563D1*
Y2580067D1*
Y2635455D2*
X4207406D1*
X4169116D2*
X4157620Y2646951D1*
X4153817Y2654645D1*
Y2666052D1*
X4157620Y2673746D1*
X4169116Y2677548D1*
X4207406D1*
X4127022Y2702251D2*
X4130825Y2706054D1*
X4127022Y2709945D1*
X4123131Y2706054D1*
X4127022Y2702251D1*
X4153817Y2706054D2*
X4207406D1*
X4176809Y2734647D2*
Y2780543D1*
X4169116D1*
X4161422Y2776741D1*
X4157620Y2772938D1*
X4153817Y2765245D1*
Y2753749D1*
X4157620Y2746143D1*
X4165313Y2738450D1*
X4176809Y2734647D1*
X4184414D1*
X4195910Y2738450D1*
X4203515Y2746143D1*
X4207406Y2753749D1*
Y2765245D1*
X4203515Y2772938D1*
X4195910Y2780543D1*
X4146212Y2886899D2*
X4142409D1*
X4134716Y2890701D1*
X4130913Y2894504D1*
X4127111Y2902197D1*
Y2917496D1*
X4130913Y2925101D1*
X4134716Y2928903D1*
X4142409Y2932794D1*
X4150014D1*
X4157708Y2928903D1*
X4169116Y2921298D1*
X4207406Y2883008D1*
Y2936597D1*
X4127111Y2984292D2*
X4130913Y2972796D1*
X4142409Y2965102D1*
X4161511Y2961300D1*
X4173007D1*
X4192108Y2965102D1*
X4203604Y2972796D1*
X4207406Y2984292D1*
Y2991897D1*
X4203604Y3003393D1*
X4192108Y3010998D1*
X4173007Y3014889D1*
X4161511D1*
X4142409Y3010998D1*
X4130913Y3003393D1*
X4127111Y2991897D1*
Y2984292D1*
X4142409Y3010998D2*
X4192108Y2965102D1*
X4142409Y3039592D2*
X4138518Y3047285D1*
X4127111Y3058781D1*
X4207406D1*
X4127111Y3102585D2*
X4130913Y3091178D1*
X4138518Y3087287D1*
X4146212D1*
X4153817Y3091178D1*
X4157708Y3098783D1*
X4161511Y3114081D1*
X4165313Y3125577D1*
X4173007Y3133183D1*
X4180612Y3136985D1*
X4192108D1*
X4199713Y3133183D1*
X4203604Y3129380D1*
X4207406Y3117884D1*
Y3102585D1*
X4203604Y3091178D1*
X4199713Y3087287D1*
X4192108Y3083484D1*
X4180612D1*
X4173007Y3087287D1*
X4165313Y3094980D1*
X4161511Y3106388D1*
X4157708Y3121686D1*
X4153817Y3129380D1*
X4146212Y3133183D1*
X4138518D1*
X4130913Y3129380D1*
X4127111Y3117884D1*
Y3102585D1*
X4153817Y3239449D2*
X4207406Y3254748D1*
X4153817Y3270047D1*
X4207406Y3285345D1*
X4153817Y3300644D1*
Y3325347D2*
X4207406Y3340645D1*
X4153817Y3355944D1*
X4207406Y3371242D1*
X4153817Y3386541D1*
Y3411244D2*
X4207406Y3426542D1*
X4153817Y3441841D1*
X4207406Y3457140D1*
X4153817Y3472438D1*
X4199713Y3500944D2*
X4203604Y3497141D1*
X4207406Y3500944D1*
X4203604Y3504835D1*
X4199713Y3500944D1*
X4165313Y3571631D2*
X4157620Y3567828D1*
X4153817Y3556332D1*
Y3544836D1*
X4157620Y3533340D1*
X4165313Y3529537D1*
X4172918Y3533340D1*
X4176809Y3541033D1*
X4180612Y3560135D1*
X4184414Y3567828D1*
X4192108Y3571631D1*
X4195910D1*
X4203515Y3567828D1*
X4207406Y3556332D1*
Y3544836D1*
X4203515Y3533340D1*
X4195910Y3529537D1*
X4153817Y3600224D2*
X4207406Y3623128D1*
X4222705Y3615523D1*
X4230398Y3607830D1*
X4234201Y3600224D1*
Y3596333D1*
X4153817Y3646120D2*
X4207406Y3623128D1*
X4153817Y3670823D2*
X4207406D1*
X4169116D2*
X4157620Y3682319D1*
X4153817Y3690013D1*
Y3701420D1*
X4157620Y3709114D1*
X4169116Y3712916D1*
X4207406D1*
X4127022Y3749115D2*
X4192108D1*
X4203515Y3752918D1*
X4207406Y3760611D1*
Y3768216D1*
X4153817Y3737619D2*
Y3764414D1*
Y3812020D2*
X4157620Y3804415D1*
X4165313Y3796722D1*
X4176809Y3792919D1*
X4184414D1*
X4195910Y3796722D1*
X4203515Y3804415D1*
X4207406Y3812020D1*
Y3823516D1*
X4203515Y3831210D1*
X4195910Y3838815D1*
X4184414Y3842706D1*
X4176809D1*
X4165313Y3838815D1*
X4157620Y3831210D1*
X4153817Y3823516D1*
Y3812020D1*
Y3867409D2*
X4207406D1*
X4169116D2*
X4157620Y3878905D1*
X4153817Y3886598D1*
Y3898006D1*
X4157620Y3905699D1*
X4169116Y3909502D1*
X4207406D1*
X4127022Y3934205D2*
X4130825Y3938007D1*
X4127022Y3941898D1*
X4123131Y3938007D1*
X4127022Y3934205D1*
X4153817Y3938007D2*
X4207406D1*
X4176809Y3966601D2*
Y4012497D1*
X4169116D1*
X4161422Y4008694D1*
X4157620Y4004892D1*
X4153817Y3997198D1*
Y3985702D1*
X4157620Y3978097D1*
X4165313Y3970404D1*
X4176809Y3966601D1*
X4184414D1*
X4195910Y3970404D1*
X4203515Y3978097D1*
X4207406Y3985702D1*
Y3997198D1*
X4203515Y4004892D1*
X4195910Y4012497D1*
X4199713Y4041002D2*
X4203604Y4037200D1*
X4207406Y4041002D1*
X4203604Y4044893D1*
X4199713Y4041002D1*
X4127022Y4100193D2*
Y4092588D1*
X4130825Y4084895D1*
X4142321Y4081092D1*
X4207406D1*
X4153817Y4069596D2*
Y4096391D1*
Y4124896D2*
X4207406D1*
X4176809D2*
X4165313Y4128787D1*
X4157620Y4136392D1*
X4153817Y4144086D1*
Y4155582D1*
X4228803Y1185245D2*
D54*
X4289091D1*
X4248899Y1203772D2*
X4289091D1*
X4260373D2*
X4251751Y1212394D1*
X4248899Y1218164D1*
Y1226720D1*
X4251751Y1232490D1*
X4260373Y1235342D1*
X4289091D1*
X4257521Y1285439D2*
X4251751Y1282587D1*
X4248899Y1273965D1*
Y1265343D1*
X4251751Y1256721D1*
X4257521Y1253869D1*
X4263225Y1256721D1*
X4266143Y1262491D1*
X4268995Y1276817D1*
X4271847Y1282587D1*
X4277617Y1285439D1*
X4280469D1*
X4286173Y1282587D1*
X4289091Y1273965D1*
Y1265343D1*
X4286173Y1256721D1*
X4280469Y1253869D1*
X4248899Y1303966D2*
X4309187D1*
X4257521D2*
X4251817Y1309736D1*
X4248899Y1315440D1*
Y1324062D1*
X4251817Y1329832D1*
X4257521Y1335536D1*
X4266143Y1338454D1*
X4271913D1*
X4280469Y1335536D1*
X4286239Y1329832D1*
X4289091Y1324062D1*
Y1315440D1*
X4286239Y1309736D1*
X4280469Y1303966D1*
X4228803Y1356981D2*
X4231655Y1359833D1*
X4228803Y1362751D1*
X4225885Y1359833D1*
X4228803Y1356981D1*
X4248899Y1359833D2*
X4289091D1*
X4248899Y1381278D2*
X4289091D1*
X4266143D2*
X4257521Y1384197D1*
X4251751Y1389900D1*
X4248899Y1395671D1*
Y1404293D1*
X4266143Y1422820D2*
Y1457242D1*
X4260373D1*
X4254603Y1454390D1*
X4251751Y1451538D1*
X4248899Y1445768D1*
Y1437146D1*
X4251751Y1431442D1*
X4257521Y1425672D1*
X4266143Y1422820D1*
X4271847D1*
X4280469Y1425672D1*
X4286173Y1431442D1*
X4289091Y1437146D1*
Y1445768D1*
X4286173Y1451538D1*
X4280469Y1457242D1*
X4228803Y1510191D2*
X4289091D1*
X4257521D2*
X4251751Y1504487D1*
X4248899Y1498717D1*
Y1490095D1*
X4251751Y1484391D1*
X4257521Y1478621D1*
X4266143Y1475769D1*
X4271847D1*
X4280469Y1478621D1*
X4286173Y1484391D1*
X4289091Y1490095D1*
Y1498717D1*
X4286173Y1504487D1*
X4280469Y1510191D1*
X4228803Y1609987D2*
Y1604283D1*
X4231655Y1598513D1*
X4240277Y1595661D1*
X4289091D1*
X4248899Y1587039D2*
Y1607135D1*
Y1628514D2*
X4289091D1*
X4266143D2*
X4257521Y1631432D1*
X4251751Y1637136D1*
X4248899Y1642906D1*
Y1651528D1*
Y1684381D2*
X4251751Y1678677D1*
X4257521Y1672907D1*
X4266143Y1670055D1*
X4271847D1*
X4280469Y1672907D1*
X4286173Y1678677D1*
X4289091Y1684381D1*
Y1693003D1*
X4286173Y1698773D1*
X4280469Y1704477D1*
X4271847Y1707395D1*
X4266143D1*
X4257521Y1704477D1*
X4251751Y1698773D1*
X4248899Y1693003D1*
Y1684381D1*
Y1725922D2*
X4289091D1*
X4260373D2*
X4251751Y1734544D1*
X4248899Y1740314D1*
Y1748870D1*
X4251751Y1754640D1*
X4260373Y1757492D1*
X4289091D1*
X4260373D2*
X4251751Y1766114D1*
X4248899Y1771884D1*
Y1780440D1*
X4251751Y1786210D1*
X4260373Y1789129D1*
X4289091D1*
X4228803Y1865977D2*
X4289091D1*
X4228803Y1906169D2*
X4289091D1*
X4257521Y1865977D2*
Y1906169D1*
X4266143Y1924696D2*
Y1959118D1*
X4260373D1*
X4254603Y1956266D1*
X4251751Y1953414D1*
X4248899Y1947644D1*
Y1939022D1*
X4251751Y1933318D1*
X4257521Y1927548D1*
X4266143Y1924696D1*
X4271847D1*
X4280469Y1927548D1*
X4286173Y1933318D1*
X4289091Y1939022D1*
Y1947644D1*
X4286173Y1953414D1*
X4280469Y1959118D1*
X4248899Y1977645D2*
X4289091D1*
X4266143D2*
X4257521Y1980563D1*
X4251751Y1986267D1*
X4248899Y1992037D1*
Y2000659D1*
Y2019186D2*
X4289091Y2036430D1*
X4248899Y2053608D1*
X4266143Y2072135D2*
Y2106557D1*
X4260373D1*
X4254603Y2103705D1*
X4251751Y2100853D1*
X4248899Y2095083D1*
Y2086461D1*
X4251751Y2080757D1*
X4257521Y2074987D1*
X4266143Y2072135D1*
X4271847D1*
X4280469Y2074987D1*
X4286173Y2080757D1*
X4289091Y2086461D1*
Y2095083D1*
X4286173Y2100853D1*
X4280469Y2106557D1*
X4243129Y2226449D2*
X4237425Y2223597D1*
X4231655Y2217827D1*
X4228803Y2212123D1*
Y2200649D1*
X4231655Y2194879D1*
X4237425Y2189175D1*
X4243129Y2186257D1*
X4251751Y2183405D1*
X4266143D1*
X4274699Y2186257D1*
X4280469Y2189175D1*
X4286173Y2194879D1*
X4289091Y2200649D1*
Y2212123D1*
X4286173Y2217827D1*
X4280469Y2223597D1*
X4274699Y2226449D1*
X4248899Y2279398D2*
X4289091D1*
X4257521D2*
X4251751Y2273694D1*
X4248899Y2267924D1*
Y2259368D1*
X4251751Y2253598D1*
X4257521Y2247895D1*
X4266143Y2244976D1*
X4271847D1*
X4280469Y2247895D1*
X4286173Y2253598D1*
X4289091Y2259368D1*
Y2267924D1*
X4286173Y2273694D1*
X4280469Y2279398D1*
X4228803Y2332347D2*
X4289091D1*
X4257521D2*
X4251751Y2326643D1*
X4248899Y2320873D1*
Y2312251D1*
X4251751Y2306547D1*
X4257521Y2300777D1*
X4266143Y2297925D1*
X4271847D1*
X4280469Y2300777D1*
X4286173Y2306547D1*
X4289091Y2312251D1*
Y2320873D1*
X4286173Y2326643D1*
X4280469Y2332347D1*
X4228803Y2350874D2*
X4231655Y2353726D1*
X4228803Y2356644D1*
X4225885Y2353726D1*
X4228803Y2350874D1*
X4248899Y2353726D2*
X4289091D1*
X4248899Y2375171D2*
X4289091D1*
X4260373D2*
X4251751Y2383793D1*
X4248899Y2389564D1*
Y2398119D1*
X4251751Y2403889D1*
X4260373Y2406741D1*
X4289091D1*
X4248899Y2439594D2*
X4251751Y2433891D1*
X4257521Y2428120D1*
X4266143Y2425268D1*
X4271847D1*
X4280469Y2428120D1*
X4286173Y2433891D1*
X4289091Y2439594D1*
Y2448216D1*
X4286173Y2453987D1*
X4280469Y2459690D1*
X4271847Y2462609D1*
X4266143D1*
X4257521Y2459690D1*
X4251751Y2453987D1*
X4248899Y2448216D1*
Y2439594D1*
X4228803Y2489758D2*
X4277617D1*
X4286173Y2492610D1*
X4289091Y2498380D1*
Y2504084D1*
X4248899Y2481136D2*
Y2501232D1*
X4228870Y2537003D2*
X4246114Y2522611D1*
X4231721Y2539855D1*
X4228870Y2537003D1*
X4257521Y2589952D2*
X4251751Y2587100D1*
X4248899Y2578478D1*
Y2569856D1*
X4251751Y2561234D1*
X4257521Y2558382D1*
X4263225Y2561234D1*
X4266143Y2567004D1*
X4268995Y2581330D1*
X4271847Y2587100D1*
X4277617Y2589952D1*
X4280469D1*
X4286173Y2587100D1*
X4289091Y2578478D1*
Y2569856D1*
X4286173Y2561234D1*
X4280469Y2558382D1*
X4228803Y2686896D2*
X4289091D1*
X4228803Y2666800D2*
Y2706992D1*
X4248899Y2725519D2*
X4289091D1*
X4266143D2*
X4257521Y2728437D1*
X4251751Y2734141D1*
X4248899Y2739911D1*
Y2748533D1*
Y2767061D2*
X4277617D1*
X4286173Y2769912D1*
X4289091Y2775683D1*
Y2784305D1*
X4286173Y2790008D1*
X4277617Y2798630D1*
X4248899D2*
X4289091D1*
X4248899Y2851579D2*
X4309187D1*
X4257521D2*
X4251817Y2845876D1*
X4248899Y2840105D1*
Y2831483D1*
X4251817Y2825780D1*
X4257521Y2820009D1*
X4266143Y2817158D1*
X4271913D1*
X4280469Y2820009D1*
X4286239Y2825780D1*
X4289091Y2831483D1*
Y2840105D1*
X4286239Y2845876D1*
X4280469Y2851579D1*
X4248899Y2870107D2*
X4277617D1*
X4286173Y2872958D1*
X4289091Y2878729D1*
Y2887351D1*
X4286173Y2893054D1*
X4277617Y2901676D1*
X4248899D2*
X4289091D1*
X4266143Y2920204D2*
Y2954625D1*
X4260373D1*
X4254603Y2951774D1*
X4251751Y2948922D1*
X4248899Y2943152D1*
Y2934529D1*
X4251751Y2928826D1*
X4257521Y2923055D1*
X4266143Y2920204D1*
X4271847D1*
X4280469Y2923055D1*
X4286173Y2928826D1*
X4289091Y2934529D1*
Y2943152D1*
X4286173Y2948922D1*
X4280469Y2954625D1*
X4248899Y2973153D2*
X4277617D1*
X4286173Y2976004D1*
X4289091Y2981775D1*
Y2990397D1*
X4286173Y2996100D1*
X4277617Y3004723D1*
X4248899D2*
X4289091D1*
X4248899Y3023250D2*
X4289091D1*
X4266143D2*
X4257521Y3026168D1*
X4251751Y3031872D1*
X4248899Y3037642D1*
Y3046264D1*
X4257521Y3157600D2*
X4251751Y3151830D1*
X4248899Y3146060D1*
Y3137504D1*
X4251751Y3131734D1*
X4257521Y3126030D1*
X4266143Y3123112D1*
X4271847D1*
X4280469Y3126030D1*
X4286173Y3131734D1*
X4289091Y3137504D1*
Y3146060D1*
X4286173Y3151830D1*
X4280469Y3157600D1*
X4228803Y3176127D2*
X4231655Y3178979D1*
X4228803Y3181898D1*
X4225885Y3178979D1*
X4228803Y3176127D1*
X4248899Y3178979D2*
X4289091D1*
X4248899Y3200425D2*
X4289091D1*
X4266143D2*
X4257521Y3203343D1*
X4251751Y3209047D1*
X4248899Y3214817D1*
Y3223439D1*
X4257521Y3276454D2*
X4251751Y3270684D1*
X4248899Y3264914D1*
Y3256358D1*
X4251751Y3250588D1*
X4257521Y3244884D1*
X4266143Y3241966D1*
X4271847D1*
X4280469Y3244884D1*
X4286173Y3250588D1*
X4289091Y3256358D1*
Y3264914D1*
X4286173Y3270684D1*
X4280469Y3276454D1*
X4248899Y3294981D2*
X4277617D1*
X4286173Y3297833D1*
X4289091Y3303603D1*
Y3312225D1*
X4286173Y3317929D1*
X4277617Y3326551D1*
X4248899D2*
X4289091D1*
X4228803Y3345078D2*
X4231655Y3347930D1*
X4228803Y3350848D1*
X4225885Y3347930D1*
X4228803Y3345078D1*
X4248899Y3347930D2*
X4289091D1*
X4228803Y3377998D2*
X4277617D1*
X4286173Y3380849D1*
X4289091Y3386620D1*
Y3392323D1*
X4248899Y3369376D2*
Y3389472D1*
X3024756Y2688843D2*
D53*
X3020865Y2696537D1*
X3009457Y2708033D1*
X3089753D1*
X523455Y2688757D2*
X519564Y2696450D1*
X508156Y2707946D1*
X588452D1*
X523455Y1310489D2*
X519564Y1318182D1*
X508156Y1329678D1*
X588452D1*
X1460871Y575796D2*
X1468564Y579687D1*
X1480060Y591094D1*
Y510799D1*
M02*
