M48
METRIC,0000.00
T01C0.486
T02C0.7
T03C0.75
T04C0.8
T05C0.9
T06C1.0
T07C1.1
T08C1.4
T09C1.55
T10C2.55
T11C3.0
T12C3.1
%
T01
X+011781Y+005837
X+010592Y+005657
X+009794Y+005101
X+009353Y+004660
X+010470Y+003888
X+007815Y+003618
X+006258Y+007655
X+005501Y+009364
X+003820Y+010672
X+002461Y+010572
X+003749Y+007479
X+003736Y+006827
X+001867Y+004392
X+001867Y+002647
X+008312Y+009181
X+008483Y+009058
X+008504Y+009558
X+008312Y+009567
X+008193Y+010009
X+007714Y+010338
X+008959Y+008763
X+010262Y+009033
X+010262Y+009340
X+010416Y+008174
X+012442Y+006900
X+014658Y+005450
X+014658Y+004619
X+013511Y+010725
T02
X+010329Y+002088
X+010329Y+002215
X+010329Y+002342
X+009129Y+002342
X+009129Y+002215
X+009129Y+002088
X+007929Y+002088
X+007929Y+002215
X+007929Y+002342
T03
X+002625Y+002100
X+002875Y+002100
X+002875Y+002500
X+002625Y+002500
X+002625Y+002900
X+002875Y+002900
X+004847Y+002900
X+005097Y+002900
X+005097Y+002500
X+004847Y+002500
X+004847Y+002100
X+005097Y+002100
X+007069Y+002100
X+007319Y+002100
X+007319Y+002500
X+007069Y+002500
X+007069Y+002900
X+007319Y+002900
X+009337Y+003267
X+009587Y+003267
X+009587Y+003667
X+009337Y+003667
X+009337Y+004067
X+009587Y+004067
X+012625Y+002900
X+012875Y+002900
X+012875Y+002500
X+012625Y+002500
X+012625Y+002100
X+012875Y+002100
X+009587Y+007934
X+009337Y+007934
X+009337Y+008334
X+009587Y+008334
X+009587Y+008734
X+009337Y+008734
T04
X+014821Y+008434
X+014821Y+008184
X+010841Y+008184
X+010841Y+008434
X+008188Y+008506
X+008188Y+008256
X+004063Y+007421
X+004063Y+007171
X+001830Y+008256
X+001830Y+008506
T05
X+010262Y+010343
X+010062Y+010343
X+009862Y+010343
X+009662Y+010343
X+009462Y+010343
X+009262Y+010343
X+009062Y+010343
X+008862Y+010343
X+008662Y+010343
X+008662Y+010593
X+008862Y+010593
X+009062Y+010593
X+009262Y+010593
X+009462Y+010593
X+009662Y+010593
X+009862Y+010593
X+010062Y+010593
X+010262Y+010593
X+015746Y+005218
X+015746Y+004964
X+015746Y+004710
X+015746Y+004456
X+013131Y+001254
X+012877Y+001254
X+012623Y+001254
X+012369Y+001254
X+009135Y+001254
X+008881Y+001254
X+008627Y+001254
X+008373Y+001254
X+008119Y+001254
X+007865Y+001254
X+001254Y+005365
X+001254Y+005619
X+001254Y+005873
X+001254Y+006127
X+001254Y+006381
X+001254Y+006635
T06
X+003894Y+009054
X+004148Y+009054
X+004149Y+008749
X+004149Y+008495
X+004149Y+008241
X+004149Y+007987
X+004448Y+007987
X+004448Y+008495
X+004448Y+008749
X+005210Y+008749
X+005210Y+008495
X+005524Y+008749
X+005823Y+008749
X+005823Y+008495
X+005823Y+008241
X+005823Y+007987
X+005524Y+007987
X+005210Y+007987
X+005824Y+007682
X+006078Y+007682
X+006585Y+007987
X+006585Y+008241
X+006585Y+008495
X+006585Y+008749
X+006886Y+008749
X+006886Y+008496
X+006886Y+007988
X+007648Y+007988
X+007648Y+008496
X+007648Y+008749
X+006586Y+009054
X+006332Y+009054
X+005735Y+006212
X+004973Y+006212
X+005734Y+005190
X+006433Y+005190
X+006433Y+004428
X+005734Y+004428
X+005734Y+003879
X+004972Y+003879
X+004210Y+004427
X+003924Y+004428
X+003512Y+004428
X+003512Y+003879
X+002750Y+003879
X+003512Y+005190
X+003924Y+005190
X+004210Y+005189
X+003512Y+006213
X+002750Y+006213
X+003386Y+007682
X+003640Y+007682
X+003387Y+007987
X+003387Y+008241
X+003387Y+008495
X+003387Y+008749
X+003086Y+008749
X+003086Y+007987
X+007195Y+006212
X+007957Y+006212
X+008736Y+006406
X+009036Y+006406
X+009036Y+006152
X+009036Y+005898
X+009036Y+005644
X+008736Y+005644
X+009036Y+005339
X+009290Y+005339
X+009798Y+005644
X+009798Y+005898
X+009798Y+006152
X+009798Y+006406
X+009798Y+006711
X+009544Y+006711
X+010118Y+006406
X+010118Y+006152
X+010118Y+005644
X+010880Y+005644
X+011286Y+005818
X+011286Y+006103
X+010880Y+006152
X+010880Y+006406
X+012048Y+006103
X+012048Y+005818
X+012370Y+005848
X+012370Y+006102
X+012370Y+006356
X+012878Y+006661
X+013132Y+006661
X+013132Y+006356
X+013132Y+006102
X+013132Y+005848
X+013132Y+005594
X+013394Y+005848
X+013394Y+006102
X+014156Y+006102
X+014156Y+005848
X+013099Y+004895
X+012623Y+005289
X+012369Y+005289
X+012370Y+005594
X+013099Y+004133
X+013099Y+003879
X+012651Y+003879
X+012069Y+003388
X+011889Y+003879
X+011639Y+003879
X+010877Y+003879
X+010878Y+004133
X+010878Y+004895
X+010837Y+002590
X+010837Y+001828
X+009637Y+001828
X+009637Y+002590
X+008437Y+002590
X+008437Y+001828
X+007957Y+003879
X+007956Y+004427
X+007956Y+005189
X+007195Y+003879
X+012069Y+002626
X+012069Y+002377
X+012069Y+001615
X+013861Y+003879
X+014111Y+003879
X+014873Y+003879
X+014174Y+008184
X+014174Y+008435
X+013412Y+008435
X+013412Y+008184
X+013131Y+008182
X+013131Y+007928
X+013131Y+008436
X+013131Y+008690
X+013131Y+008995
X+012877Y+008995
X+012369Y+008690
X+012369Y+008436
X+012369Y+008182
X+012369Y+007928
X+012369Y+007622
X+012623Y+007622
X+012051Y+008182
X+012051Y+008430
X+011289Y+008430
X+011289Y+008182
T07
X+013861Y+009000
X+013861Y+009850
X+013861Y+010150
X+011639Y+010150
X+011639Y+009850
X+011639Y+009000
X+011639Y+006466
X+011389Y+006466
X+011889Y+006466
X+013611Y+006466
X+013861Y+006466
X+014111Y+006466
X+014111Y+004133
X+013861Y+004133
X+013611Y+004133
X+011889Y+004133
X+011639Y+004133
X+011389Y+004133
X+007445Y+004133
X+007195Y+004133
X+006945Y+004133
X+005222Y+004133
X+004972Y+004133
X+004722Y+004133
X+003000Y+004133
X+002750Y+004133
X+002500Y+004133
X+002500Y+006466
X+002750Y+006466
X+003000Y+006466
X+004722Y+006466
X+004972Y+006466
X+005222Y+006466
X+006945Y+006466
X+007195Y+006466
X+007445Y+006466
X+007195Y+009000
X+007195Y+009850
X+007195Y+010150
X+004972Y+010150
X+004972Y+009850
X+004972Y+009000
X+002750Y+009000
X+002750Y+009850
X+002750Y+010150
T08
X+010422Y+010188
X+010422Y+010748
X+008502Y+010748
X+008502Y+010188
T09
X+002450Y+001750
X+003050Y+001750
X+003050Y+003250
X+002450Y+003250
X+004672Y+003250
X+005272Y+003250
X+005272Y+001750
X+004672Y+001750
X+006894Y+001750
X+007494Y+001750
X+007494Y+003250
X+006894Y+003250
X+009162Y+002917
X+009762Y+002917
X+009762Y+004417
X+009162Y+004417
X+009162Y+007584
X+009762Y+007584
X+009762Y+009084
X+009162Y+009084
X+012450Y+003250
X+013050Y+003250
X+013050Y+001750
X+012450Y+001750
T10
X+011189Y+004833
X+012089Y+004833
X+013411Y+004833
X+014311Y+004833
X+014311Y+007166
X+013411Y+007166
X+012089Y+007166
X+011189Y+007166
X+007645Y+007166
X+006745Y+007166
X+005422Y+007166
X+004522Y+007166
X+003200Y+007166
X+002300Y+007166
X+002300Y+004833
X+003200Y+004833
X+004522Y+004833
X+005422Y+004833
X+006745Y+004833
X+007645Y+004833
T11
X+013861Y+009500
X+011639Y+009500
X+007195Y+009500
X+004972Y+009500
X+002750Y+009500
T12
X+001254Y+010746
X+001254Y+001254
X+015746Y+001254
X+015746Y+010746
T00
M30
