G04 DipTrace 3.3.1.1*
G04 TopMask.gbr*
%MOMM*%
G04 #@! TF.FileFunction,Soldermask,Top*
G04 #@! TF.Part,Single*
%AMOUTLINE1*
4,1,8,
-0.79142,0.6,
-1.1,0.29142,
-1.1,-0.29142,
-0.79142,-0.6,
0.79142,-0.6,
1.1,-0.29142,
1.1,0.29142,
0.79142,0.6,
-0.79142,0.6,
0*%
%ADD23C,1.793*%
%ADD26C,2.0*%
%ADD29C,2.2*%
%ADD38C,3.0*%
%ADD39C,3.1*%
%ADD51O,2.0X3.8*%
%ADD53O,3.8X2.0*%
%ADD55O,3.3X3.7*%
%ADD57R,2.0X2.0*%
%ADD59O,3.4X1.8*%
%ADD61R,3.4X1.8*%
%ADD63C,2.4*%
%ADD65C,3.2*%
%ADD67C,2.2*%
%ADD69O,2.2X1.2*%
%ADD73C,1.55*%
%ADD75R,1.55X1.55*%
%ADD77C,1.85*%
%ADD84OUTLINE1*%
%FSLAX35Y35*%
G04*
G71*
G90*
G75*
G01*
G04 TopMask*
%LPD*%
D77*
X3894263Y9053890D3*
X4148263D3*
X6331620Y9053867D3*
X6585620D3*
X9797730Y6711240D3*
X9543730D3*
X13131523Y6661407D3*
X12877523D3*
X13131457Y8994703D3*
X12877457D3*
X3640183Y7681867D3*
X3386183D3*
X6077570Y7682017D3*
X5823570D3*
X9289867Y5338890D3*
X9035867D3*
X12623147Y5288850D3*
X12369147D3*
X12623203Y7622363D3*
X12369203D3*
D75*
X14820777Y8434040D3*
D73*
Y8184040D3*
D75*
X10841343Y8433933D3*
D73*
Y8183933D3*
D75*
X1830233Y8505570D3*
D73*
Y8255570D3*
D75*
X4062543Y7421100D3*
D73*
Y7171100D3*
D75*
X8188287Y8505570D3*
D73*
Y8255570D3*
D23*
X13861157Y8999846D3*
Y9849846D3*
Y10149846D3*
D38*
Y9499846D3*
D23*
X11638970Y8999846D3*
Y9849846D3*
Y10149846D3*
D38*
Y9499846D3*
D23*
X2750260Y8999846D3*
Y9849846D3*
Y10149846D3*
D38*
Y9499846D3*
D23*
X4972393Y8999846D3*
Y9849846D3*
Y10149846D3*
D38*
Y9499846D3*
D23*
X7194670Y8999846D3*
Y9849846D3*
Y10149846D3*
D38*
Y9499846D3*
D84*
X10329007Y2088023D3*
D69*
Y2215023D3*
Y2342023D3*
D84*
X9129093Y2088023D3*
D69*
Y2215023D3*
Y2342023D3*
D84*
X7929117Y2088023D3*
D69*
Y2215023D3*
Y2342023D3*
D67*
X14110937Y3878873D3*
D29*
X14872937D3*
D67*
X13099060Y4895033D3*
D29*
Y4133033D3*
D67*
X13098907Y3878873D3*
D29*
X13860907D3*
D67*
X13412203Y8183800D3*
D29*
X14174203D3*
D67*
X13412423Y8435157D3*
D29*
X14174423D3*
D67*
X12051450Y8430067D3*
D29*
X11289450D3*
D67*
X11289453Y8182220D3*
D29*
X12051453D3*
D67*
X11889100Y3878667D3*
D29*
X12651100D3*
D67*
X10877537Y4895007D3*
D29*
Y4133007D3*
D67*
X10877457Y3878667D3*
D29*
X11639457D3*
D67*
X13393827Y5847767D3*
D29*
X14155827D3*
D67*
X13393913Y6102243D3*
D29*
X14155913D3*
D67*
X12048423Y5817920D3*
D29*
X11286423D3*
D67*
X11286343Y6102737D3*
D29*
X12048343D3*
D67*
X3923650Y4427773D3*
D29*
Y5189773D3*
D67*
X3511707Y5189627D3*
D29*
Y4427627D3*
D67*
X2749853Y3878777D3*
D29*
X3511853D3*
D67*
X2750093Y6212550D3*
D29*
X3512093D3*
D67*
X3086413Y7986970D3*
D29*
Y8748970D3*
D67*
X5210423Y7986910D3*
D29*
X4448423D3*
D67*
X5210423Y8494667D3*
D29*
X4448423D3*
D67*
Y8749050D3*
D29*
X5210423D3*
D67*
X4210230Y4427227D3*
D29*
Y5189227D3*
D67*
X5734487Y5189647D3*
D29*
Y4427647D3*
D67*
X4972397Y3879160D3*
D29*
X5734397D3*
D67*
X4972570Y6212140D3*
D29*
X5734570D3*
D67*
X5523690Y7987063D3*
D29*
Y8749063D3*
D67*
X7647780Y7987857D3*
D29*
X6885780D3*
D67*
X7647780Y8495820D3*
D29*
X6885780D3*
D67*
Y8749350D3*
D29*
X7647780D3*
D67*
X6433097Y4427807D3*
D29*
Y5189807D3*
D67*
X7956423Y5188770D3*
D29*
Y4426770D3*
D67*
X7195043Y3879007D3*
D29*
X7957043D3*
D67*
X7194780Y6212370D3*
D29*
X7956780D3*
D67*
X8735713Y5644097D3*
D29*
Y6406097D3*
D67*
X10880083Y5643947D3*
D29*
X10118083D3*
D67*
X10880083Y6152143D3*
D29*
X10118083D3*
D67*
Y6406200D3*
D29*
X10880083D3*
D67*
X10837197Y2590420D3*
D29*
Y1828420D3*
D67*
X9637250Y2590420D3*
D29*
Y1828420D3*
D67*
X8437400Y2590420D3*
D29*
Y1828420D3*
D67*
X12068760Y1615480D3*
D29*
Y2377480D3*
D67*
Y3388433D3*
D29*
Y2626433D3*
X2625480Y2100380D3*
Y2500380D3*
Y2900380D3*
X2875480Y2100380D3*
Y2500380D3*
Y2900380D3*
D65*
X2450480Y1750380D3*
Y3250380D3*
X3050480D3*
Y1750380D3*
D29*
X4847377Y2100380D3*
Y2500380D3*
Y2900380D3*
X5097377Y2100380D3*
Y2500380D3*
Y2900380D3*
D65*
X4672377Y1750380D3*
Y3250380D3*
X5272377D3*
Y1750380D3*
D29*
X7069480Y2100380D3*
Y2500380D3*
Y2900380D3*
X7319480Y2100380D3*
Y2500380D3*
Y2900380D3*
D65*
X6894480Y1750380D3*
Y3250380D3*
X7494480D3*
Y1750380D3*
D29*
X9337297Y7933743D3*
Y8333743D3*
Y8733743D3*
X9587297Y7933743D3*
Y8333743D3*
Y8733743D3*
D65*
X9162297Y7583743D3*
Y9083743D3*
X9762297D3*
Y7583743D3*
D29*
X9337297Y3266633D3*
Y3666633D3*
Y4066633D3*
X9587297Y3266633D3*
Y3666633D3*
Y4066633D3*
D65*
X9162297Y2916633D3*
Y4416633D3*
X9762297D3*
Y2916633D3*
D29*
X12624553Y2100380D3*
Y2500380D3*
Y2900380D3*
X12874553Y2100380D3*
Y2500380D3*
Y2900380D3*
D65*
X12449553Y1750380D3*
Y3250380D3*
X13049553D3*
Y1750380D3*
D26*
X10262157Y10342540D3*
X10062157D3*
X9862157D3*
X9662157D3*
X9462057D3*
X9262157D3*
X9062157D3*
X8862157D3*
X10262157Y10592857D3*
X10062260D3*
X9861987D3*
X9662023D3*
X9462057Y10592860D3*
X9262157D3*
X9062157D3*
X8862157D3*
D63*
X10422197Y10187810D3*
X10422157Y10747540D3*
X8502157D3*
Y10187540D3*
D26*
X8661573Y10342560D3*
Y10592877D3*
D61*
X3386610Y8749013D3*
D59*
Y8495013D3*
Y8241013D3*
Y7987013D3*
X4148610D3*
Y8241013D3*
Y8495013D3*
Y8749013D3*
D61*
X5823363Y8749233D3*
D59*
Y8495233D3*
Y8241233D3*
Y7987233D3*
X6585363D3*
Y8241233D3*
Y8495233D3*
Y8749233D3*
D61*
X9035940Y6406043D3*
D59*
Y6152043D3*
Y5898043D3*
Y5644043D3*
X9797940D3*
Y5898043D3*
Y6152043D3*
Y6406043D3*
D61*
X12369587Y6356303D3*
D59*
Y6102303D3*
Y5848303D3*
Y5594303D3*
X13131587D3*
Y5848303D3*
Y6102303D3*
Y6356303D3*
D61*
X12369463Y8689597D3*
D59*
Y8435597D3*
Y8181597D3*
Y7927597D3*
X13131463D3*
Y8181597D3*
Y8435597D3*
Y8689597D3*
D57*
X11389387Y4132923D3*
D55*
X11189387Y4832923D3*
D26*
X11639387Y4132923D3*
D55*
X12089387Y4832923D3*
D26*
X11889387Y4132923D3*
D57*
X13610847D3*
D55*
X13410847Y4832923D3*
D26*
X13860847Y4132923D3*
D55*
X14310847Y4832923D3*
D26*
X14110847Y4132923D3*
D57*
X2500100D3*
D55*
X2300100Y4832923D3*
D26*
X2750100Y4132923D3*
D55*
X3200100Y4832923D3*
D26*
X3000100Y4132923D3*
D57*
X4722310D3*
D55*
X4522310Y4832923D3*
D26*
X4972310Y4132923D3*
D55*
X5422310Y4832923D3*
D26*
X5222310Y4132923D3*
D57*
X6944747D3*
D55*
X6744747Y4832923D3*
D26*
X7194747Y4132923D3*
D55*
X7644747Y4832923D3*
D26*
X7444747Y4132923D3*
D57*
X13611010Y6466337D3*
D55*
X13411010Y7166337D3*
D26*
X13861010Y6466337D3*
D55*
X14311010Y7166337D3*
D26*
X14111010Y6466337D3*
D57*
X11389250D3*
D55*
X11189250Y7166337D3*
D26*
X11639250Y6466337D3*
D55*
X12089250Y7166337D3*
D26*
X11889250Y6466337D3*
D57*
X2500180D3*
D55*
X2300180Y7166337D3*
D26*
X2750180Y6466337D3*
D55*
X3200180Y7166337D3*
D26*
X3000180Y6466337D3*
D57*
X4722470D3*
D55*
X4522470Y7166337D3*
D26*
X4972470Y6466337D3*
D55*
X5422470Y7166337D3*
D26*
X5222470Y6466337D3*
D57*
X6944710D3*
D55*
X6744710Y7166337D3*
D26*
X7194710Y6466337D3*
D55*
X7644710Y7166337D3*
D26*
X7444710Y6466337D3*
D53*
X1254187Y5873220D3*
Y6127220D3*
Y6381220D3*
Y6635220D3*
Y5619220D3*
Y5365220D3*
D51*
X8626793Y1253783D3*
X8372793D3*
X8118793D3*
X7864793D3*
X8880793D3*
X9134793D3*
X13130533Y1253713D3*
X12876533D3*
X12622533D3*
X12368533D3*
D53*
X15746247Y4456030D3*
Y4710030D3*
Y4964030D3*
Y5218030D3*
D39*
X1254000Y10746000D3*
Y1254000D3*
X15746000D3*
Y10746000D3*
M02*
