M48
INCH
T01C0.0191
T02C0.0276
T03C0.0315
T04C0.035
T05C0.0354
T06C0.0394
T07C0.0433
T08C0.0591
T09C0.0709
T10C0.085
T11C0.0866
T12C0.0984
T13C0.1004
T14C0.1102
T15C0.1181
T16C0.1378
%
T03
X+016232Y+023790
X+016232Y+022805
X+011503Y+018315
X+011503Y+020315
X+014692Y+015491
X+014692Y+014507
X+013836Y+008164
X+015836Y+008164
X+014729Y+010739
X+014729Y+011723
X+029046Y+029506
X+029046Y+027506
X+035181Y+028878
X+035181Y+027894
X+017641Y+027530
X+017641Y+028515
X+011581Y+029034
X+011581Y+027034
X+034814Y+021057
X+034814Y+019057
X+028862Y+020395
X+028862Y+019411
X+027365Y+004830
X+027365Y+005814
X+019892Y+006925
X+019892Y+004925
X+037932Y+020769
X+037932Y+019784
X+029091Y+012572
X+029091Y+011588
X+040141Y+008210
X+040141Y+009210
X+017809Y+036827
X+017809Y+035843
T05
X+012299Y+038366
X+012299Y+042342
X+020109Y+026048
X+020109Y+030024
X+037407Y+011902
X+037407Y+015879
X+038432Y+015900
X+038432Y+011923
T04
X+007387Y+008903
X+006387Y+008903
T16
X+009130Y+037753
T15
X+009130Y+040115
X+007201Y+038934
T08
X+005638Y+032189
T10
X+006339Y+030088
X+006339Y+034289
T08
X+041575Y+032188
T10
X+040875Y+034289
X+040875Y+030088
T11
X+040876Y+022377
X+040876Y+025564
T09
X+042751Y+023439
T14
X+039189Y+023439
T06
X+008383Y+015711
X+005383Y+015711
T03
X+016558Y+018815
X+016058Y+019315
X+016558Y+019815
T02
X+018137Y+015293
X+017637Y+014793
X+018137Y+014293
T03
X+018218Y+010402
X+017718Y+010902
X+018218Y+011402
X+028561Y+008245
X+028061Y+008745
X+028561Y+009245
T06
X+009957Y+033721
X+009957Y+030721
X+018514Y+025004
X+018514Y+022004
X+020101Y+022004
X+020101Y+025004
X+020101Y+017815
X+020101Y+020815
X+018514Y+017815
X+018514Y+020815
X+013045Y+020815
X+013045Y+017815
X+014671Y+017815
X+014671Y+020815
X+020101Y+013293
X+020101Y+016293
X+020101Y+012364
X+020101Y+009364
X+013336Y+005128
X+016336Y+005128
X+016336Y+006644
X+013336Y+006644
X+026577Y+036311
X+023577Y+036311
X+022699Y+036332
X+019699Y+036332
X+035226Y+012399
X+035226Y+015399
X+038927Y+004609
X+035927Y+004609
X+005487Y+006629
X+008487Y+006629
X+018124Y+042640
X+018124Y+039640
X+019313Y+039633
X+019313Y+042633
X+036323Y+015400
X+036323Y+012400
X+034876Y+016888
X+037876Y+016888
X+034895Y+018021
X+037895Y+018021
X+029780Y+007227
X+029780Y+010227
X+030945Y+007219
X+030945Y+010219
X+038927Y+005893
X+035927Y+005893
X+032064Y+005893
X+035064Y+005893
X+035064Y+004609
X+032064Y+004609
T12
X+032238Y+030377
X+032238Y+032189
X+032238Y+034002
X+014938Y+030376
X+014938Y+032189
X+014938Y+034001
X+032237Y+022127
X+032237Y+023939
X+032237Y+025752
X+014940Y+042252
X+014940Y+040439
X+014940Y+038627
X+040879Y+017501
X+040879Y+015688
X+040879Y+013876
T06
X+038603Y+010198
X+037603Y+010198
X+036603Y+010198
X+035603Y+010198
X+034603Y+010198
X+033603Y+010198
X+032603Y+010198
X+032603Y+007198
X+033603Y+007198
X+034603Y+007198
X+035603Y+007198
X+036603Y+007198
X+037603Y+007198
X+038603Y+007198
T07
X+022630Y+037690
T13
X+021842Y+040446
T07
X+023614Y+037690
T13
X+025385Y+040446
T07
X+024598Y+037690
X+022630Y+029440
T13
X+021843Y+032196
T07
X+023614Y+029440
T13
X+025386Y+032196
T07
X+024599Y+029440
X+022631Y+021187
T13
X+021844Y+023943
T07
X+023615Y+021187
T13
X+025387Y+023943
T07
X+024600Y+021187
X+022632Y+012939
T13
X+021844Y+015695
T07
X+023616Y+012939
T13
X+025388Y+015695
T07
X+024600Y+012939
X+022632Y+004689
T13
X+021844Y+007444
T07
X+023616Y+004689
T13
X+025388Y+007444
T07
X+024600Y+004689
X+031253Y+012941
T13
X+030466Y+015697
T07
X+032238Y+012941
T13
X+034009Y+015697
T07
X+033222Y+012941
T15
X+005065Y+042127
X+005065Y+005065
X+042190Y+005065
X+042190Y+042190
T01
X+020107Y+031105
X+019271Y+010790
X+018711Y+013584
X+024254Y+010839
X+039503Y+015887
X+039437Y+012429
X+032765Y+012155
X+037977Y+005256
X+019983Y+008142
X+041555Y+007287
T00
M30
