M48
METRIC,0000.00
T01C0.7
T02C0.8
T03C0.9
T04C0.965
T05C1.0
T06C1.1
T07C1.2
T08C1.8
%
T01
X+014204Y+006133
X+014458Y+005879
X+014204Y+005625
X+003066Y+007420
X+002812Y+007166
X+002558Y+007420
T02
X+015880Y+002881
X+015880Y+002371
X+014414Y+002349
X+014414Y+002857
X+015676Y+004016
X+016176Y+004016
X+016431Y+006318
X+016431Y+006818
X+016276Y+007378
X+016776Y+007378
X+014160Y+009414
X+014160Y+009922
X+005159Y+006953
X+004659Y+006953
X+003762Y+006778
X+003762Y+007278
X+003230Y+007985
X+002730Y+007985
X+002175Y+007929
X+002175Y+007429
X+002349Y+005921
X+001841Y+005921
X+001810Y+005413
X+002318Y+005413
X+002540Y+004207
X+002540Y+003699
X+002476Y+003381
X+002476Y+002873
X+008191Y+001984
X+008191Y+001476
T03
X+015939Y+006058
X+016155Y+005353
X+016155Y+005003
X+016155Y+004653
X+015455Y+004653
X+015455Y+005353
X+015939Y+007068
X+016192Y+007922
X+015938Y+008175
X+016192Y+008429
X+015350Y+008437
X+015350Y+008183
X+015350Y+007929
X+015350Y+008691
X+014588Y+008691
X+014588Y+008437
X+014588Y+008183
X+014588Y+007929
X+013518Y+008263
X+013518Y+008517
X+013518Y+008771
X+013518Y+009025
X+013518Y+009279
X+013518Y+009533
X+013518Y+009787
X+012756Y+009787
X+012756Y+009533
X+012756Y+009279
X+012756Y+009025
X+012756Y+008771
X+012756Y+008517
X+012756Y+008263
X+011626Y+008273
X+011626Y+008527
X+011626Y+008781
X+011626Y+009035
X+011626Y+009289
X+011626Y+009543
X+011626Y+009797
X+011626Y+010051
X+010864Y+010051
X+010864Y+009797
X+010864Y+009543
X+010864Y+009289
X+010864Y+009035
X+010864Y+008781
X+010864Y+008527
X+010864Y+008273
X+010469Y+007782
X+009096Y+008176
X+008473Y+008062
X+008473Y+008316
X+008473Y+008570
X+008473Y+008824
X+008473Y+009078
X+008473Y+009332
X+008473Y+009586
X+008473Y+009840
X+008842Y+009557
X+009096Y+009938
X+008842Y+010573
X+007711Y+009840
X+007711Y+009586
X+007711Y+009332
X+007711Y+009078
X+007711Y+008824
X+007711Y+008570
X+007711Y+008316
X+007711Y+008062
X+007716Y+007529
X+007716Y+007275
X+007716Y+007021
X+007716Y+006767
X+007716Y+006513
X+007716Y+006259
X+007716Y+006005
X+007716Y+005751
X+007039Y+005776
X+006785Y+005522
X+007039Y+005268
X+006707Y+004610
X+006707Y+004356
X+006707Y+004102
X+006707Y+003848
X+006707Y+003594
X+006707Y+003340
X+006707Y+003086
X+007469Y+003086
X+007469Y+003340
X+007469Y+003594
X+007469Y+003848
X+007469Y+004102
X+007469Y+004356
X+007469Y+004610
X+008588Y+004873
X+008478Y+005751
X+008478Y+006005
X+008478Y+006259
X+008478Y+006513
X+008478Y+006767
X+008478Y+007021
X+008478Y+007275
X+008478Y+007529
X+007239Y+007445
X+006667Y+007779
X+005921Y+007176
X+005921Y+006166
X+006176Y+004866
X+006176Y+003856
X+004905Y+003984
X+004148Y+003890
X+004148Y+003636
X+004148Y+003382
X+004148Y+003128
X+004148Y+002874
X+004148Y+002620
X+004148Y+002366
X+003386Y+002366
X+003386Y+002620
X+003386Y+002874
X+003386Y+003128
X+003386Y+003382
X+003386Y+003636
X+003386Y+003890
X+003386Y+004144
X+003386Y+004398
X+003386Y+004652
X+004148Y+004652
X+004148Y+004398
X+004148Y+004144
X+004905Y+002699
X+001826Y+003131
X+001825Y+003619
X+004043Y+008185
X+004043Y+008439
X+004043Y+008693
X+004043Y+008947
X+004043Y+009201
X+004043Y+009455
X+004043Y+009709
X+004805Y+009709
X+004805Y+009455
X+004805Y+009201
X+004805Y+008947
X+004805Y+008693
X+004805Y+008439
X+004805Y+008185
X+006683Y+009525
X+006683Y+010303
X+007191Y+010192
X+007191Y+008826
X+007239Y+006620
X+009341Y+004223
X+009341Y+003969
X+009341Y+003715
X+009341Y+003461
X+009341Y+003207
X+009341Y+002953
X+009341Y+002699
X+010103Y+002699
X+010103Y+002953
X+010103Y+003207
X+010103Y+003461
X+010103Y+003715
X+010103Y+003969
X+010103Y+004223
X+010620Y+004873
X+011951Y+004846
X+011951Y+005100
X+011951Y+005354
X+011951Y+005608
X+011951Y+005862
X+012319Y+005302
X+012713Y+005354
X+012713Y+005100
X+012713Y+004846
X+012713Y+004592
X+012713Y+004338
X+011951Y+004338
X+011951Y+004592
X+012713Y+005608
X+012713Y+005862
X+012319Y+006477
X+010490Y+009811
X+010232Y+009811
X+010232Y+010731
X+010490Y+010731
X+014795Y+009895
X+015049Y+009641
X+015303Y+009895
T04
X+016697Y+007916
X+015959Y+007413
X+015557Y+007112
X+015557Y+006747
X+015541Y+006255
X+014525Y+006255
X+014541Y+006747
X+014541Y+007112
X+014943Y+007413
X+014017Y+007779
X+013525Y+007794
X+013319Y+007064
X+013806Y+006641
X+013806Y+005625
X+013319Y+004881
X+013319Y+003865
X+012732Y+003857
X+011716Y+003857
X+011477Y+004492
X+011192Y+005239
X+011477Y+005509
X+011616Y+006017
X+011612Y+006412
X+011614Y+006775
X+011625Y+007148
X+011621Y+007524
X+012239Y+008033
X+012509Y+007794
X+012303Y+007064
X+010609Y+007148
X+010598Y+006775
X+010596Y+006412
X+010600Y+006017
X+010176Y+005239
X+010112Y+006778
X+010605Y+007524
X+010490Y+008413
X+010233Y+008413
X+009983Y+008412
X+009983Y+009428
X+010233Y+009429
X+010490Y+009429
X+012239Y+009049
X+014017Y+008795
X+015795Y+008879
X+016176Y+008874
X+016697Y+008932
X+016176Y+009890
X+015795Y+009895
X+009096Y+006778
X+008604Y+004381
X+008604Y+003365
X+008826Y+003111
X+008826Y+002095
X+007703Y+001964
X+007698Y+002482
X+006682Y+002482
X+006687Y+001964
X+005412Y+001849
X+005412Y+002865
X+004524Y+002365
X+004524Y+001349
X+002878Y+002343
X+002878Y+003359
X+002984Y+004223
X+002984Y+005239
X+003080Y+006397
X+003064Y+006778
X+002048Y+006778
X+002064Y+006397
X+001714Y+006397
X+001714Y+007413
X+001931Y+008694
X+002264Y+008694
X+002763Y+008694
X+003064Y+008694
X+003508Y+008694
X+003508Y+009710
X+003064Y+009710
X+002763Y+009710
X+002264Y+009710
X+001931Y+009710
X+002434Y+010479
X+003000Y+010176
X+003450Y+010479
X+004016Y+010176
X+004290Y+010178
X+005306Y+010178
X+005800Y+010572
X+006203Y+010572
X+006203Y+009556
X+005800Y+009556
X+005670Y+008684
X+005670Y+007668
X+005029Y+007666
X+004013Y+007666
X+006302Y+007160
X+006302Y+006143
X+005778Y+004874
X+005778Y+003857
X+004659Y+003627
X+004659Y+004643
T05
X+016674Y+003282
X+016684Y+004143
X+016780Y+004794
X+016780Y+005302
X+016176Y+005905
X+015668Y+005905
X+016687Y+002376
X+010287Y+006016
X+009476Y+006001
X+009476Y+006522
X+009476Y+007019
X+009476Y+007521
X+006683Y+006921
X+006683Y+006413
X+006683Y+008683
X+005396Y+010558
X+004799Y+010558
X+004162Y+010558
X+001476Y+008445
X+001683Y+007937
X+003619Y+005286
X+004127Y+005286
X+005778Y+003365
X+005778Y+002857
X+006175Y+002365
X+006175Y+001857
X+004143Y+001873
X+004143Y+001365
X+003635Y+001381
X+003635Y+001889
X+002841Y+001905
X+002841Y+001365
X+002206Y+002111
X+001714Y+002127
X+001714Y+002635
X+002206Y+002619
X+008080Y+003365
X+008080Y+003873
T06
X+015147Y+003472
X+014893Y+003472
X+014639Y+003472
T07
X+001889Y+004953
X+001520Y+004616
T08
X+015805Y+004500
X+015805Y+005503
T00
M30
