G04 DipTrace 3.3.1.1*
G04 TopSilk.gbr*
%MOMM*%
G04 #@! TF.FileFunction,Legend,Top*
G04 #@! TF.Part,Single*
%ADD10C,0.25*%
%ADD17C,0.5*%
%ADD18C,0.2*%
%ADD19C,0.3*%
%ADD20C,0.15*%
%ADD21C,0.1*%
%ADD71C,0.19608*%
%FSLAX35Y35*%
G04*
G71*
G90*
G75*
G01*
G04 TopSilk*
%LPD*%
X7238877Y7431361D2*
D10*
Y6633639D1*
Y7431361D2*
Y6633639D1*
X9096250Y9923738D2*
Y8189392D1*
X4905250Y3970611D2*
Y2712516D1*
X8602139Y4873500D2*
X10606361D1*
X10232347Y10717488D2*
Y9824516D1*
X10489730Y10717488D2*
Y9824516D1*
X6683250Y10288861D2*
Y9538766D1*
X7191250Y10177738D2*
Y8840266D1*
X6681266Y7778627D2*
X10455568D1*
X10469457Y7792516D2*
Y7767941D1*
X8842250Y10558738D2*
Y9570516D1*
X15450150Y2625920D2*
G02X15450150Y2625920I430000J0D01*
G01*
X15850136Y2995892D2*
X15910164D1*
X15880150Y3025906D2*
Y2965878D1*
X14539377Y2223377D2*
X14289377D1*
X14539377Y2983377D2*
X14289377D1*
Y2223377D2*
Y2983377D1*
X14539377Y2223377D2*
Y2983377D1*
X15611512Y4126238D2*
G02X16241526Y4126238I315007J-131242D01*
G01*
X15611512Y3906228D2*
G03X16241526Y3906228I315008J123301D01*
G01*
X15546473Y3983757D2*
Y4043742D1*
X15516500Y4013750D2*
X15576519D1*
X16654750Y5428127D2*
X16904750D1*
X16654750Y4668127D2*
X16904750D1*
Y5428127D2*
Y4668127D1*
X16654750Y5428127D2*
Y4668127D1*
X15542500Y5780377D2*
Y6030377D1*
X16302500Y5780377D2*
Y6030377D1*
X15542500D2*
X16302500D1*
X15542500Y5780377D2*
X16302500D1*
X16320512Y6253138D2*
G02X16320512Y6883153I131242J315007D01*
G01*
X16540522Y6253138D2*
G03X16540522Y6883153I-123301J315007D01*
G01*
X16462993Y6188100D2*
X16403008D1*
X16433000Y6158127D2*
Y6218145D1*
X16210762Y7487738D2*
G02X16840776Y7487738I315007J-131242D01*
G01*
X16210762Y7267728D2*
G03X16840776Y7267728I315008J123301D01*
G01*
X16145723Y7345257D2*
Y7405242D1*
X16115750Y7375250D2*
X16175769D1*
X2664877Y3572750D2*
X2414877D1*
X2664877Y4332750D2*
X2414877D1*
Y3572750D2*
Y4332750D1*
X2664877Y3572750D2*
Y4332750D1*
X5653377Y3491377D2*
X5903377D1*
X5653377Y2731377D2*
X5903377D1*
Y3491377D2*
Y2731377D1*
X5653377Y3491377D2*
Y2731377D1*
X6808250Y6287377D2*
X6558250D1*
X6808250Y7047377D2*
X6558250D1*
Y6287377D2*
Y7047377D1*
X6808250Y6287377D2*
Y7047377D1*
X8205250Y3239377D2*
X7955250D1*
X8205250Y3999377D2*
X7955250D1*
Y3239377D2*
Y3999377D1*
X8205250Y3239377D2*
Y3999377D1*
X8316377Y1350250D2*
X8066377D1*
X8316377Y2110250D2*
X8066377D1*
Y1350250D2*
Y2110250D1*
X8316377Y1350250D2*
Y2110250D1*
X4268250Y1239127D2*
X4018250D1*
X4268250Y1999127D2*
X4018250D1*
Y1239127D2*
Y1999127D1*
X4268250Y1239127D2*
Y1999127D1*
X4594262Y7063115D2*
G02X5224276Y7063115I315007J-131242D01*
G01*
X4594262Y6843105D2*
G03X5224276Y6843105I315008J123301D01*
G01*
X4529223Y6920634D2*
Y6980619D1*
X4499250Y6950627D2*
X4559269D1*
X3295365Y7875012D2*
G02X2665350Y7875012I-315008J131242D01*
G01*
X3295365Y8095022D2*
G03X2665350Y8095022I-315007J-123301D01*
G01*
X3360404Y8017493D2*
Y7957508D1*
X3390377Y7987500D2*
X3330358D1*
X3652262Y6713512D2*
G02X3652262Y7343526I131242J315007D01*
G01*
X3872272Y6713512D2*
G03X3872272Y7343526I-123301J315007D01*
G01*
X3794743Y6648473D2*
X3734758D1*
X3764750Y6618500D2*
Y6678519D1*
X3760250Y1255000D2*
X3510250D1*
X3760250Y2015000D2*
X3510250D1*
Y1255000D2*
Y2015000D1*
X3760250Y1255000D2*
Y2015000D1*
X2064762Y7364388D2*
G02X2064762Y7994403I131242J315007D01*
G01*
X2284772Y7364388D2*
G03X2284772Y7994403I-123301J315007D01*
G01*
X2207243Y7299350D2*
X2147258D1*
X2177250Y7269377D2*
Y7329395D1*
X4253377Y5411250D2*
Y5161250D1*
X3493377Y5411250D2*
Y5161250D1*
X4253377D2*
X3493377D1*
X4253377Y5411250D2*
X3493377D1*
X2443627Y5538250D2*
Y5288250D1*
X1683627Y5538250D2*
Y5288250D1*
X2443627D2*
X1683627D1*
X2443627Y5538250D2*
X1683627D1*
X2475377Y6046250D2*
Y5796250D1*
X1715377Y6046250D2*
Y5796250D1*
X2475377D2*
X1715377D1*
X2475377Y6046250D2*
X1715377D1*
X14285377Y9287750D2*
X14035377D1*
X14285377Y10047750D2*
X14035377D1*
Y9287750D2*
Y10047750D1*
X14285377Y9287750D2*
Y10047750D1*
X2081500Y2745250D2*
X2331500D1*
X2081500Y1985250D2*
X2331500D1*
Y2745250D2*
Y1985250D1*
X2081500Y2745250D2*
Y1985250D1*
X1589377Y2761127D2*
X1839377D1*
X1589377Y2001127D2*
X1839377D1*
Y2761127D2*
Y2001127D1*
X1589377Y2761127D2*
Y2001127D1*
X2351377Y3507250D2*
X2601377D1*
X2351377Y2747250D2*
X2601377D1*
Y3507250D2*
Y2747250D1*
X2351377Y3507250D2*
Y2747250D1*
X1304467Y4784210D2*
G02X1304467Y4784210I400000J0D01*
G01*
X1802867Y4723650D2*
X1663667Y4875970D1*
X1755987Y4680770D2*
X1616707Y4833090D1*
X1727907Y4805650D2*
X1798227Y4869890D1*
X1681027Y4762770D2*
X1610707Y4698530D1*
X1701827Y4975410D2*
X1706067Y4570690D1*
X1663267Y4617490D1*
X1706067Y4570690D2*
X1752947Y4613490D1*
X16054373Y6307427D2*
X15824373D1*
Y6817827D1*
X16054373Y6392223D2*
X15824373D1*
X16054373Y6817827D2*
X15824373D1*
X16054373Y6307427D2*
Y6817827D1*
X6290677Y4105333D2*
X6060677D1*
Y4615733D1*
X6290677Y4190129D2*
X6060677D1*
X6290677Y4615733D2*
X6060677D1*
X6290677Y4105333D2*
Y4615733D1*
X6036283Y6416110D2*
X5806283D1*
Y6926510D1*
X6036283Y6500906D2*
X5806283D1*
X6036283Y6926510D2*
X5806283D1*
X6036283Y6416110D2*
Y6926510D1*
X16305270Y4503273D2*
X15305270D1*
Y5503356D1*
X16305270D1*
Y4503273D1*
X16065357Y7845500D2*
X15840377D1*
Y8115506D1*
Y8235494D2*
Y8505500D1*
X16105397D1*
X16290407D2*
X16540377D1*
Y8185532D1*
Y7845500D1*
X16320367D1*
X15379377Y9767563D2*
Y9542583D1*
X15109371D1*
X14989383D2*
X14719377D1*
Y9807603D1*
Y9992613D2*
Y10242583D1*
X15039345D1*
X15379377D1*
Y10022573D1*
X14100878Y6070792D2*
G02X14100878Y5686588I169075J-192102D01*
G01*
Y6070792D1*
X3004335Y7523092D2*
G02X2620132Y7523092I-192102J-169075D01*
G01*
X3004335D1*
X16823593Y8677436D2*
Y8170351D1*
X16569593D2*
X16823593D1*
X16569593Y8677436D2*
Y8170351D1*
Y8677436D2*
X16823593D1*
X15197164Y7540500D2*
X15704249D1*
Y7286500D2*
Y7540500D1*
X15197164Y7286500D2*
X15704249D1*
X15197164D2*
Y7540500D1*
X15302919Y6619750D2*
X14795834D1*
Y6873750D2*
Y6619750D1*
X15302919Y6873750D2*
X14795834D1*
X15302919D2*
Y6619750D1*
X15287043Y6127627D2*
X14779957D1*
Y6381627D2*
Y6127627D1*
X15287043Y6381627D2*
X14779957D1*
X15287043D2*
Y6127627D1*
X13933103Y6386193D2*
Y5879107D1*
X13679103D2*
X13933103D1*
X13679103Y6386193D2*
Y5879107D1*
Y6386193D2*
X13933103D1*
X11350500Y4746957D2*
Y5254043D1*
X11604500D2*
X11350500D1*
X11604500Y4746957D2*
Y5254043D1*
Y4746957D2*
X11350500D1*
X10430207Y5365627D2*
X10937293D1*
Y5111627D2*
Y5365627D1*
X10430207Y5111627D2*
X10937293D1*
X10430207D2*
Y5365627D1*
X11361943Y5890410D2*
X10854857D1*
Y6144410D2*
Y5890410D1*
X11361943Y6144410D2*
X10854857D1*
X11361943D2*
Y5890410D1*
X15302919Y6984877D2*
X14795834D1*
Y7238877D2*
Y6984877D1*
X15302919Y7238877D2*
X14795834D1*
X15302919D2*
Y6984877D1*
X16303500Y9635543D2*
Y9128457D1*
X16049500D2*
X16303500D1*
X16049500Y9635543D2*
Y9128457D1*
Y9635543D2*
X16303500D1*
X15668500Y9133101D2*
Y9640186D1*
X15922500D2*
X15668500D1*
X15922500Y9133101D2*
Y9640186D1*
Y9133101D2*
X15668500D1*
X12477169Y3730500D2*
X11970084D1*
Y3984500D2*
Y3730500D1*
X12477169Y3984500D2*
X11970084D1*
X12477169D2*
Y3730500D1*
X13445517Y4626903D2*
Y4119817D1*
X13191517D2*
X13445517D1*
X13191517Y4626903D2*
Y4119817D1*
Y4626903D2*
X13445517D1*
X12557457Y7191250D2*
X13064543D1*
Y6937250D2*
Y7191250D1*
X12557457Y6937250D2*
X13064543D1*
X12557457D2*
Y7191250D1*
X12112500Y8287084D2*
Y8794169D1*
X12366500D2*
X12112500D1*
X12366500Y8287084D2*
Y8794169D1*
Y8287084D2*
X12112500D1*
X13270919Y7667500D2*
X12763834D1*
Y7921500D2*
Y7667500D1*
X13270919Y7921500D2*
X12763834D1*
X13270919D2*
Y7667500D1*
X14144500Y8540169D2*
Y8033084D1*
X13890500D2*
X14144500D1*
X13890500Y8540169D2*
Y8033084D1*
Y8540169D2*
X14144500D1*
X11357179Y6284663D2*
X10850094D1*
Y6538663D2*
Y6284663D1*
X11357179Y6538663D2*
X10850094D1*
X11357179D2*
Y6284663D1*
X11359773Y6648267D2*
X10852687D1*
Y6902267D2*
Y6648267D1*
X11359773Y6902267D2*
X10852687D1*
X11359773D2*
Y6648267D1*
X11370949Y7020667D2*
X10863864D1*
Y7274667D2*
Y7020667D1*
X11370949Y7274667D2*
X10863864D1*
X11370949D2*
Y7020667D1*
X11366986Y7397263D2*
X10859901D1*
Y7651263D2*
Y7397263D1*
X11366986Y7651263D2*
X10859901D1*
X11366986D2*
Y7397263D1*
X10110197Y9173413D2*
Y8666327D1*
X9856197D2*
X10110197D1*
X9856197Y9173413D2*
Y8666327D1*
Y9173413D2*
X10110197D1*
X10359737Y9174309D2*
Y8667224D1*
X10105737D2*
X10359737D1*
X10105737Y9174309D2*
Y8667224D1*
Y9174309D2*
X10359737D1*
X10616730Y9174173D2*
Y8667087D1*
X10362730D2*
X10616730D1*
X10362730Y9174173D2*
Y8667087D1*
Y9174173D2*
X10616730D1*
X9350707Y6905500D2*
X9857793D1*
Y6651500D2*
Y6905500D1*
X9350707Y6651500D2*
X9857793D1*
X9350707D2*
Y6905500D1*
X5651377Y4111957D2*
Y4619043D1*
X5905377D2*
X5651377D1*
X5905377Y4111957D2*
Y4619043D1*
Y4111957D2*
X5651377D1*
X6175250Y6397957D2*
Y6905043D1*
X6429250D2*
X6175250D1*
X6429250Y6397957D2*
Y6905043D1*
Y6397957D2*
X6175250D1*
X6936124Y2608620D2*
X7443209D1*
Y2354620D2*
Y2608620D1*
X6936124Y2354620D2*
X7443209D1*
X6936124D2*
Y2608620D1*
X6941054Y2090723D2*
X7448139D1*
Y1836723D2*
Y2090723D1*
X6941054Y1836723D2*
X7448139D1*
X6941054D2*
Y2090723D1*
X8477127Y3619834D2*
Y4126919D1*
X8731127D2*
X8477127D1*
X8731127Y3619834D2*
Y4126919D1*
Y3619834D2*
X8477127D1*
X8953377Y2856919D2*
Y2349834D1*
X8699377D2*
X8953377D1*
X8699377Y2856919D2*
Y2349834D1*
Y2856919D2*
X8953377D1*
X3381250Y8947987D2*
Y9455073D1*
X3635250D2*
X3381250D1*
X3635250Y8947987D2*
Y9455073D1*
Y8947987D2*
X3381250D1*
X4544474Y10304870D2*
X5051559D1*
Y10050870D2*
Y10304870D1*
X4544474Y10050870D2*
X5051559D1*
X4544474D2*
Y10304870D1*
X5672977Y9810787D2*
Y10317873D1*
X5926977D2*
X5672977D1*
X5926977Y9810787D2*
Y10317873D1*
Y9810787D2*
X5672977D1*
X6076273D2*
Y10317873D1*
X6330273D2*
X6076273D1*
X6330273Y9810787D2*
Y10317873D1*
Y9810787D2*
X6076273D1*
X3761793Y10048750D2*
X3254707D1*
Y10302750D2*
Y10048750D1*
X3761793Y10302750D2*
X3254707D1*
X3761793D2*
Y10048750D1*
X2936750Y8947987D2*
Y9455073D1*
X3190750D2*
X2936750D1*
X3190750Y8947987D2*
Y9455073D1*
Y8947987D2*
X2936750D1*
X5797500Y8429906D2*
Y7922821D1*
X5543500D2*
X5797500D1*
X5543500Y8429906D2*
Y7922821D1*
Y8429906D2*
X5797500D1*
X3196026Y10351613D2*
X2688941D1*
Y10605613D2*
Y10351613D1*
X3196026Y10605613D2*
X2688941D1*
X3196026D2*
Y10351613D1*
X2635967Y8947987D2*
Y9455073D1*
X2889967D2*
X2635967D1*
X2889967Y8947987D2*
Y9455073D1*
Y8947987D2*
X2635967D1*
X2750650Y2597194D2*
Y3104279D1*
X3004650D2*
X2750650D1*
X3004650Y2597194D2*
Y3104279D1*
Y2597194D2*
X2750650D1*
X4651250Y2110796D2*
Y1603711D1*
X4397250D2*
X4651250D1*
X4397250Y2110796D2*
Y1603711D1*
Y2110796D2*
X4651250D1*
X5284823Y2103797D2*
Y2610883D1*
X5538823D2*
X5284823D1*
X5538823Y2103797D2*
Y2610883D1*
Y2103797D2*
X5284823D1*
X4785937Y4388459D2*
Y3881374D1*
X4531937D2*
X4785937D1*
X4531937Y4388459D2*
Y3881374D1*
Y4388459D2*
X4785937D1*
X2302207Y6905500D2*
X2809293D1*
Y6651500D2*
Y6905500D1*
X2302207Y6651500D2*
X2809293D1*
X2302207D2*
Y6905500D1*
X1587377Y6651957D2*
Y7159043D1*
X1841377D2*
X1587377D1*
X1841377Y6651957D2*
Y7159043D1*
Y6651957D2*
X1587377D1*
X2318084Y6524500D2*
X2825169D1*
Y6270500D2*
Y6524500D1*
X2318084Y6270500D2*
X2825169D1*
X2318084D2*
Y6524500D1*
X3111377Y4984169D2*
Y4477084D1*
X2857377D2*
X3111377D1*
X2857377Y4984169D2*
Y4477084D1*
Y4984169D2*
X3111377D1*
X4267407Y7793380D2*
X4774493D1*
Y7539380D2*
Y7793380D1*
X4267407Y7539380D2*
X4774493D1*
X4267407D2*
Y7793380D1*
X1804333Y8947987D2*
Y9455073D1*
X2058333D2*
X1804333D1*
X2058333Y8947987D2*
Y9455073D1*
Y8947987D2*
X1804333D1*
X2391187Y9455073D2*
Y8947987D1*
X2137187D2*
X2391187D1*
X2137187Y9455073D2*
Y8947987D1*
Y9455073D2*
X2391187D1*
X6912450Y5191707D2*
X6687470D1*
Y5461713D1*
Y5581701D2*
Y5851707D1*
X6952490D1*
X7137500D2*
X7387470D1*
Y5531739D1*
Y5191707D1*
X7167460D1*
X12592328Y6079723D2*
Y4119723D1*
X12072305D2*
X12592328D1*
X12072305Y6079723D2*
Y4119723D1*
Y6079723D2*
X12272307D1*
X12592328D2*
X12392326D1*
X12272307D2*
G03X12392326Y6079723I60010J34D01*
G01*
X13396858Y10004797D2*
Y8044797D1*
X12876835D2*
X13396858D1*
X12876835Y10004797D2*
Y8044797D1*
Y10004797D2*
X13076837D1*
X13396858D2*
X13196856D1*
X13076837D2*
G03X13196856Y10004797I60010J34D01*
G01*
X14708839Y7809773D2*
Y8809773D1*
X15228861D2*
X14708839D1*
X15228861Y7809773D2*
Y8809773D1*
Y7809773D2*
X15028860D1*
X14708839D2*
X14908840D1*
X15028860D2*
G03X14908840Y7809773I-60010J-10D01*
G01*
X6827825Y2868163D2*
Y4828163D1*
X7347848D2*
X6827825D1*
X7347848Y2868163D2*
Y4828163D1*
Y2868163D2*
X7147846D1*
X6827825D2*
X7027827D1*
X7147846D2*
G03X7027827Y2868163I-60010J-34D01*
G01*
X10985352Y8141967D2*
Y10181967D1*
X11505375D2*
X10985352D1*
X11505375Y8141967D2*
Y10181967D1*
Y8141967D2*
X11305373D1*
X10985352D2*
X11185354D1*
X11305373D2*
G03X11185354Y8141967I-60010J-34D01*
G01*
X8352148Y9970523D2*
Y7930523D1*
X7832125D2*
X8352148D1*
X7832125Y9970523D2*
Y7930523D1*
Y9970523D2*
X8032127D1*
X8352148D2*
X8152146D1*
X8032127D2*
G03X8152146Y9970523I60010J34D01*
G01*
X8356818Y7659860D2*
Y5619860D1*
X7836795D2*
X8356818D1*
X7836795Y7659860D2*
Y5619860D1*
Y7659860D2*
X8036797D1*
X8356818D2*
X8156816D1*
X8036797D2*
G03X8156816Y7659860I60010J34D01*
G01*
X4684451Y9926637D2*
Y7966637D1*
X4164429D2*
X4684451D1*
X4164429Y9926637D2*
Y7966637D1*
Y9926637D2*
X4364430D1*
X4684451D2*
X4484450D1*
X4364430D2*
G03X4484450Y9926637I60010J34D01*
G01*
X3506875Y2209130D2*
Y4809130D1*
X4026898D2*
X3506875D1*
X4026898Y2209130D2*
Y4809130D1*
Y2209130D2*
X3826896D1*
X3506875D2*
X3706877D1*
X3826896D2*
G03X3706877Y2209130I-60010J-210D01*
G01*
X9981748Y4440760D2*
Y2480760D1*
X9461725D2*
X9981748D1*
X9461725Y4440760D2*
Y2480760D1*
Y4440760D2*
X9661727D1*
X9981748D2*
X9781746D1*
X9661727D2*
G03X9781746Y4440760I60010J34D01*
G01*
X15393307Y3202110D2*
X14393307D1*
Y3652110D1*
X15393307D1*
Y3202110D1*
Y3292110D2*
X14393307D1*
X2058937Y3939263D2*
X1593937D1*
Y2804263D1*
X2058937D1*
Y3939263D1*
X2010670Y3877973D2*
X1640716D1*
Y2873044D1*
X2010670D1*
Y3877973D1*
X6683250Y10334500D2*
D17*
Y9524877D1*
X7191250Y10144000D2*
Y8889877D1*
X8842250Y10604377D2*
Y9588377D1*
X9096250Y9969377D2*
Y8223127D1*
X10232347Y10763127D2*
Y9890000D1*
X10489730Y10763127D2*
Y9890000D1*
X7238877Y7477000D2*
Y6651500D1*
X4905250Y4016250D2*
Y2714500D1*
X12318877Y6508627D2*
Y5333877D1*
X6714773Y7795530D2*
X10431023Y7794727D1*
X8572377Y4873500D2*
X10604377D1*
X6108757Y10980570D2*
D18*
X6489757D1*
X10350377Y5810127D2*
D19*
X10604377D1*
X10477377D2*
Y6064127D1*
X9477250Y6016500D2*
X10191627D1*
X9556623Y6524500D2*
X10271003D1*
X9556620Y7032500D2*
X10271000D1*
X9540743Y7524623D2*
X10286877Y7524627D1*
Y6064127D2*
Y7524627D1*
X10064623Y7429377D2*
Y7604000D1*
Y6953127D2*
Y7127750D1*
Y6429250D2*
Y6603873D1*
Y5921250D2*
Y6095873D1*
G36*
X9921750Y6111750D2*
Y5905377D1*
X10080500Y6016500D1*
X9921750Y6111750D1*
G37*
G36*
X9921753Y6619753D2*
Y6413373D1*
X10080497Y6524503D1*
X9921753Y6619753D1*
G37*
G36*
Y7127753D2*
Y6921373D1*
X10080497Y7032503D1*
X9921753Y7127753D1*
G37*
G36*
Y7635753D2*
Y7429373D1*
X10080497Y7540503D1*
X9921753Y7635753D1*
G37*
X9937627Y7397627D2*
D20*
X9985250Y7302377D1*
G36*
X9953500Y7286500D2*
X10017000Y7318250D1*
Y7238877D1*
X9953500Y7286500D1*
G37*
X10017000Y7429377D2*
D20*
X10064623Y7334127D1*
G36*
X10032873Y7318250D2*
X10096373Y7350000D1*
Y7270627D1*
X10032873Y7318250D1*
G37*
X9953500Y6921377D2*
D20*
X10001123Y6826127D1*
G36*
X9969377Y6810250D2*
X10032873Y6842000D1*
Y6762627D1*
X9969377Y6810250D1*
G37*
X10032873Y6953127D2*
D20*
X10080500Y6857877D1*
G36*
X10048750Y6842000D2*
X10112250Y6873750D1*
Y6794377D1*
X10048750Y6842000D1*
G37*
X9953500Y6381627D2*
D20*
X10001123Y6286377D1*
G36*
X9969377Y6270500D2*
X10032873Y6302250D1*
Y6222877D1*
X9969377Y6270500D1*
G37*
X10032873Y6413377D2*
D20*
X10080500Y6318127D1*
G36*
X10048750Y6302250D2*
X10112250Y6334000D1*
Y6254627D1*
X10048750Y6302250D1*
G37*
X9937627Y5889503D2*
D20*
X9985250Y5794253D1*
G36*
X9953500Y5778373D2*
X10017000Y5810123D1*
Y5730750D1*
X9953500Y5778373D1*
G37*
X10017000Y5921253D2*
D20*
X10064623Y5826003D1*
G36*
X10032873Y5810123D2*
X10096373Y5841873D1*
Y5762500D1*
X10032873Y5810123D1*
G37*
X16744117Y2002830D2*
D19*
X16998113D1*
X16871117D2*
Y2256827D1*
X1142877Y8239003D2*
X1396877D1*
X1269877D2*
Y8445377D1*
X1381003D1*
X1127000Y7937377D2*
X1666753D1*
G36*
X1317500D2*
X1412750Y8016750D1*
Y7858000D1*
X1317500Y7937377D1*
G37*
X16732127Y4143253D2*
D19*
X17271877D1*
G36*
X16922623D2*
X17017873Y4222623D1*
Y4063873D1*
X16922623Y4143253D1*
G37*
X2936750Y1904877D2*
D19*
X3159000D1*
X2936750Y1365127D2*
X3159000D1*
X3159283Y1536253D1*
X3159000Y1873127D2*
Y1904877D1*
X3118510Y1817563D2*
G02X3118510Y1817563I39688J0D01*
G01*
X3174877Y1777877D2*
X3317750Y1571500D1*
X5953000Y2365250D2*
X6080000D1*
X5968877Y1857250D2*
X6095873D1*
X5968873Y1857253D2*
X5968877Y1952500D1*
X5953000Y2301750D2*
Y2365250D1*
X5905377Y2238252D2*
G02X5905377Y2238252I47625J0D01*
G01*
X5921250Y2190627D2*
X5762500Y1968377D1*
X5603750Y2127127D2*
X5873627D1*
X5587873Y2079503D2*
X5587877Y2174750D1*
G36*
X5683127Y2127127D2*
X5762500Y2206500D1*
Y2047750D1*
X5683127Y2127127D1*
G37*
X6665917Y8680867D2*
D18*
X6915463D1*
X6917273Y8681373D2*
X6916177Y11097170D1*
X4160226Y11096338D2*
X6916520Y11097827D1*
X4159930Y10548420D2*
X4159983Y10738943D1*
X4223943Y10739516D2*
X4160748Y10739447D1*
X4160688Y11000533D2*
X4160479Y11094020D1*
X4128487Y10963570D2*
D21*
G02X4128487Y10963570I31750J0D01*
G01*
X4180063Y10932560D2*
D18*
X4307063Y10757935D1*
X4799093Y10545602D2*
X4799146Y10736125D1*
X4863106Y10736698D2*
X4799913Y10736628D1*
X4799849Y10997715D2*
X4799643Y11091202D1*
X4767649Y10960752D2*
D21*
G02X4767649Y10960752I31750J0D01*
G01*
X4819226Y10929742D2*
D18*
X4946226Y10755118D1*
X5396777Y10549688D2*
X5396831Y10740211D1*
X5460791Y10740784D2*
X5397597Y10740714D1*
X5397534Y11001801D2*
X5397327Y11095288D1*
X5365334Y10964838D2*
D21*
G02X5365334Y10964838I31750J0D01*
G01*
X5416911Y10933828D2*
D18*
X5543911Y10759204D1*
X16816112Y3161265D2*
D71*
Y3051905D1*
X16761502Y3106515D2*
X16870862D1*
X16910077Y3146033D2*
X16922291Y3152210D1*
X16940541Y3170320D1*
Y3042850D1*
X17052616Y3170320D2*
X16991970D1*
X16985933Y3115710D1*
X16991970Y3121746D1*
X17010220Y3127923D1*
X17028330D1*
X17046580Y3121746D1*
X17058793Y3109673D1*
X17064830Y3091423D1*
Y3079350D1*
X17058793Y3061100D1*
X17046580Y3048887D1*
X17028330Y3042850D1*
X17010220D1*
X16991970Y3048887D1*
X16985933Y3055064D1*
X16979756Y3067137D1*
X17104045Y3170460D2*
X17152618Y3042850D1*
X17201191Y3170460D1*
X4275383Y10624957D2*
Y10497347D1*
X4330133D1*
X4348383Y10503524D1*
X4354420Y10509560D1*
X4360457Y10521634D1*
Y10539884D1*
X4354420Y10552097D1*
X4348383Y10558134D1*
X4330133Y10564170D1*
X4348383Y10570347D1*
X4354420Y10576384D1*
X4360457Y10588457D1*
Y10600670D1*
X4354420Y10612743D1*
X4348383Y10618920D1*
X4330133Y10624957D1*
X4275383D1*
Y10564170D2*
X4330133D1*
X9005073Y7608467D2*
Y7480857D1*
X9059823D1*
X9078073Y7487034D1*
X9084110Y7493070D1*
X9090146Y7505144D1*
Y7523394D1*
X9084110Y7535607D1*
X9078073Y7541644D1*
X9059823Y7547680D1*
X9078073Y7553857D1*
X9084110Y7559894D1*
X9090146Y7571967D1*
Y7584180D1*
X9084110Y7596253D1*
X9078073Y7602430D1*
X9059823Y7608467D1*
X9005073D1*
Y7547680D2*
X9059823D1*
X9220471Y7578144D2*
X9214435Y7590217D1*
X9202221Y7602430D1*
X9190148Y7608467D1*
X9165862D1*
X9153648Y7602430D1*
X9141575Y7590217D1*
X9135398Y7578144D1*
X9129362Y7559894D1*
Y7529430D1*
X9135398Y7511320D1*
X9141575Y7499107D1*
X9153648Y7487034D1*
X9165862Y7480857D1*
X9190148D1*
X9202221Y7487034D1*
X9214435Y7499107D1*
X9220471Y7511320D1*
Y7529430D1*
X9190148D1*
X9259687Y7547680D2*
X9314297D1*
X9332547Y7553857D1*
X9338724Y7559894D1*
X9344760Y7571967D1*
Y7584180D1*
X9338724Y7596253D1*
X9332547Y7602430D1*
X9314297Y7608467D1*
X9259687D1*
Y7480857D1*
X9302224Y7547680D2*
X9344760Y7480857D1*
X8989213Y7142117D2*
Y7014507D1*
X9043963D1*
X9062213Y7020684D1*
X9068250Y7026720D1*
X9074286Y7038794D1*
Y7057044D1*
X9068250Y7069257D1*
X9062213Y7075294D1*
X9043963Y7081330D1*
X9062213Y7087507D1*
X9068250Y7093544D1*
X9074286Y7105617D1*
Y7117830D1*
X9068250Y7129903D1*
X9062213Y7136080D1*
X9043963Y7142117D1*
X8989213D1*
Y7081330D2*
X9043963D1*
X9113502D2*
X9168111D1*
X9186361Y7087507D1*
X9192538Y7093544D1*
X9198575Y7105617D1*
Y7117830D1*
X9192538Y7129903D1*
X9186361Y7136080D1*
X9168111Y7142117D1*
X9113502D1*
Y7014507D1*
X9156038Y7081330D2*
X9198575Y7014507D1*
X9328900Y7111794D2*
X9322864Y7123867D1*
X9310650Y7136080D1*
X9298577Y7142117D1*
X9274291D1*
X9262077Y7136080D1*
X9250004Y7123867D1*
X9243827Y7111794D1*
X9237791Y7093544D1*
Y7063080D1*
X9243827Y7044970D1*
X9250004Y7032757D1*
X9262077Y7020684D1*
X9274291Y7014507D1*
X9298577D1*
X9310650Y7020684D1*
X9322864Y7032757D1*
X9328900Y7044970D1*
Y7063080D1*
X9298577D1*
X16131229Y2227193D2*
Y2233230D1*
X16137266Y2245443D1*
X16143303Y2251480D1*
X16155516Y2257516D1*
X16179803D1*
X16191876Y2251480D1*
X16197912Y2245443D1*
X16204089Y2233230D1*
Y2221157D1*
X16197912Y2208943D1*
X16185839Y2190834D1*
X16125053Y2130047D1*
X16210126D1*
X16255518Y2227193D2*
Y2233230D1*
X16261555Y2245443D1*
X16267591Y2251480D1*
X16279805Y2257516D1*
X16304091D1*
X16316164Y2251480D1*
X16322201Y2245443D1*
X16328378Y2233230D1*
Y2221157D1*
X16322201Y2208943D1*
X16310128Y2190834D1*
X16249341Y2130047D1*
X16334414D1*
X16410130Y2257516D2*
X16391880Y2251480D1*
X16379667Y2233230D1*
X16373630Y2202907D1*
Y2184657D1*
X16379667Y2154334D1*
X16391880Y2136084D1*
X16410130Y2130047D1*
X16422203D1*
X16440453Y2136084D1*
X16452526Y2154334D1*
X16458703Y2184657D1*
Y2202907D1*
X16452526Y2233230D1*
X16440453Y2251480D1*
X16422203Y2257516D1*
X16410130D1*
X16452526Y2233230D2*
X16379667Y2154334D1*
X16497919Y2215120D2*
Y2154334D1*
X16503955Y2136224D1*
X16516169Y2130047D1*
X16534419D1*
X16546492Y2136224D1*
X16564742Y2154334D1*
Y2215120D2*
Y2130047D1*
X16682994Y2257657D2*
X16603958D1*
Y2130047D1*
Y2196870D2*
X16652531D1*
X14127817Y2351711D2*
X14121640Y2363924D1*
X14103530Y2382174D1*
X14231000D1*
X14103531Y2457890D2*
X14109567Y2439640D1*
X14127817Y2427427D1*
X14158140Y2421390D1*
X14176390D1*
X14206713Y2427427D1*
X14224963Y2439640D1*
X14231000Y2457890D1*
Y2469963D1*
X14224963Y2488213D1*
X14206713Y2500286D1*
X14176390Y2506463D1*
X14158140D1*
X14127817Y2500286D1*
X14109567Y2488213D1*
X14103531Y2469963D1*
Y2457890D1*
X14127817Y2500286D2*
X14206713Y2427427D1*
X14103531Y2582179D2*
X14109567Y2563929D1*
X14127817Y2551715D1*
X14158140Y2545679D1*
X14176390D1*
X14206713Y2551715D1*
X14224963Y2563929D1*
X14231000Y2582179D1*
Y2594252D1*
X14224963Y2612502D1*
X14206713Y2624575D1*
X14176390Y2630752D1*
X14158140D1*
X14127817Y2624575D1*
X14109567Y2612502D1*
X14103531Y2594252D1*
Y2582179D1*
X14127817Y2624575D2*
X14206713Y2551715D1*
X14145927Y2669967D2*
X14231000D1*
X14170213D2*
X14151963Y2688217D1*
X14145927Y2700431D1*
Y2718540D1*
X14151963Y2730754D1*
X14170213Y2736790D1*
X14231000D1*
X14103390Y2855043D2*
Y2776006D1*
X14231000D1*
X14164177D2*
Y2824579D1*
X16022815Y3553254D2*
Y3680723D1*
X15962029Y3595790D1*
X16053138D1*
X16116640Y3553254D2*
X16177427Y3680723D1*
X16092354D1*
X16216643Y3638327D2*
Y3577540D1*
X16222679Y3559431D1*
X16234893Y3553254D1*
X16253143D1*
X16265216Y3559431D1*
X16283466Y3577540D1*
Y3638327D2*
Y3553254D1*
X16401718Y3680863D2*
X16322681D1*
Y3553254D1*
Y3620077D2*
X16371255D1*
X16807491Y5616400D2*
Y5622436D1*
X16813528Y5634650D1*
X16819564Y5640686D1*
X16831778Y5646723D1*
X16856064D1*
X16868137Y5640686D1*
X16874174Y5634650D1*
X16880351Y5622436D1*
Y5610363D1*
X16874174Y5598150D1*
X16862101Y5580040D1*
X16801314Y5519254D1*
X16886387D1*
X16949889D2*
X17010676Y5646723D1*
X16925603D1*
X17086392D2*
X17068142Y5640686D1*
X17055928Y5622436D1*
X17049892Y5592113D1*
Y5573863D1*
X17055928Y5543540D1*
X17068142Y5525290D1*
X17086392Y5519254D1*
X17098465D1*
X17116715Y5525290D1*
X17128788Y5543540D1*
X17134965Y5573863D1*
Y5592113D1*
X17128788Y5622436D1*
X17116715Y5640686D1*
X17098465Y5646723D1*
X17086392D1*
X17128788Y5622436D2*
X17055928Y5543540D1*
X17174180Y5604327D2*
Y5476717D1*
Y5586077D2*
X17186394Y5598150D1*
X17198467Y5604327D1*
X17216717D1*
X17228930Y5598150D1*
X17241003Y5586077D1*
X17247180Y5567827D1*
Y5555613D1*
X17241003Y5537504D1*
X17228930Y5525290D1*
X17216717Y5519254D1*
X17198467D1*
X17186394Y5525290D1*
X17174180Y5537504D1*
X17365433Y5646863D2*
X17286396D1*
Y5519254D1*
Y5586077D2*
X17334969D1*
X15692172Y6216223D2*
X15758855D1*
X15722496Y6167650D1*
X15740746D1*
X15752819Y6161613D1*
X15758855Y6155577D1*
X15765032Y6137327D1*
Y6125254D1*
X15758855Y6107004D1*
X15746782Y6094790D1*
X15728532Y6088754D1*
X15710282D1*
X15692172Y6094790D1*
X15686136Y6100967D1*
X15679959Y6113040D1*
X15810284Y6100967D2*
X15804248Y6094790D1*
X15810284Y6088754D1*
X15816461Y6094790D1*
X15810284Y6100967D1*
X15867890Y6216223D2*
X15934573D1*
X15898213Y6167650D1*
X15916463D1*
X15928537Y6161613D1*
X15934573Y6155577D1*
X15940750Y6137327D1*
Y6125254D1*
X15934573Y6107004D1*
X15922500Y6094790D1*
X15904250Y6088754D1*
X15886000D1*
X15867890Y6094790D1*
X15861854Y6100967D1*
X15855677Y6113040D1*
X15979966Y6173827D2*
Y6088754D1*
Y6149540D2*
X15998216Y6167790D1*
X16010429Y6173827D1*
X16028539D1*
X16040752Y6167790D1*
X16046789Y6149540D1*
Y6088754D1*
X16165041Y6216363D2*
X16086004D1*
Y6088754D1*
Y6155577D2*
X16134578D1*
X16735602Y6809063D2*
X16747815Y6815240D1*
X16766065Y6833350D1*
Y6705880D1*
X16878140Y6833350D2*
X16817494D1*
X16811458Y6778740D1*
X16817494Y6784776D1*
X16835744Y6790953D1*
X16853854D1*
X16872104Y6784776D1*
X16884317Y6772703D1*
X16890354Y6754453D1*
Y6742380D1*
X16884317Y6724130D1*
X16872104Y6711917D1*
X16853854Y6705880D1*
X16835744D1*
X16817494Y6711917D1*
X16811458Y6718094D1*
X16805281Y6730167D1*
X16929570Y6790953D2*
Y6730167D1*
X16935606Y6712057D1*
X16947820Y6705880D1*
X16966070D1*
X16978143Y6712057D1*
X16996393Y6730167D1*
Y6790953D2*
Y6705880D1*
X17114645Y6833490D2*
X17035608D1*
Y6705880D1*
Y6772703D2*
X17084181D1*
X16734478Y7748186D2*
X16746692Y7754363D1*
X16764942Y7772473D1*
Y7645004D1*
X16840658Y7772473D2*
X16822408Y7766436D1*
X16810194Y7748186D1*
X16804158Y7717863D1*
Y7699613D1*
X16810194Y7669290D1*
X16822408Y7651040D1*
X16840658Y7645004D1*
X16852731D1*
X16870981Y7651040D1*
X16883054Y7669290D1*
X16889231Y7699613D1*
Y7717863D1*
X16883054Y7748186D1*
X16870981Y7766436D1*
X16852731Y7772473D1*
X16840658D1*
X16883054Y7748186D2*
X16810194Y7669290D1*
X16928446Y7730077D2*
Y7669290D1*
X16934483Y7651181D1*
X16946696Y7645004D1*
X16964946D1*
X16977019Y7651181D1*
X16995269Y7669290D1*
Y7730077D2*
Y7645004D1*
X17113522Y7772613D2*
X17034485D1*
Y7645004D1*
Y7711827D2*
X17083058D1*
X2687087Y3733310D2*
X2699301Y3739487D1*
X2717551Y3757596D1*
Y3630127D1*
X2793266Y3757596D2*
X2775016Y3751560D1*
X2762803Y3733310D1*
X2756766Y3702987D1*
Y3684737D1*
X2762803Y3654414D1*
X2775016Y3636164D1*
X2793266Y3630127D1*
X2805340D1*
X2823590Y3636164D1*
X2835663Y3654414D1*
X2841840Y3684737D1*
Y3702987D1*
X2835663Y3733310D1*
X2823590Y3751560D1*
X2805340Y3757596D1*
X2793266D1*
X2835663Y3733310D2*
X2762803Y3654414D1*
X2917555Y3757596D2*
X2899305Y3751560D1*
X2887092Y3733310D1*
X2881055Y3702987D1*
Y3684737D1*
X2887092Y3654414D1*
X2899305Y3636164D1*
X2917555Y3630127D1*
X2929628D1*
X2947878Y3636164D1*
X2959951Y3654414D1*
X2966128Y3684737D1*
Y3702987D1*
X2959951Y3733310D1*
X2947878Y3751560D1*
X2929628Y3757596D1*
X2917555D1*
X2959951Y3733310D2*
X2887092Y3654414D1*
X3005344Y3715200D2*
Y3630127D1*
Y3690914D2*
X3023594Y3709164D1*
X3035807Y3715200D1*
X3053917D1*
X3066131Y3709164D1*
X3072167Y3690914D1*
Y3630127D1*
X3190419Y3757737D2*
X3111383D1*
Y3630127D1*
Y3696950D2*
X3159956D1*
X6079962Y2947504D2*
Y3074973D1*
X6019176Y2990040D1*
X6110285D1*
X6173788Y2947504D2*
X6234574Y3074973D1*
X6149501D1*
X6310290D2*
X6292040Y3068936D1*
X6279826Y3050686D1*
X6273790Y3020363D1*
Y3002113D1*
X6279826Y2971790D1*
X6292040Y2953540D1*
X6310290Y2947504D1*
X6322363D1*
X6340613Y2953540D1*
X6352686Y2971790D1*
X6358863Y3002113D1*
Y3020363D1*
X6352686Y3050686D1*
X6340613Y3068936D1*
X6322363Y3074973D1*
X6310290D1*
X6352686Y3050686D2*
X6279826Y2971790D1*
X6398079Y3032577D2*
Y2904967D1*
Y3014327D2*
X6410292Y3026400D1*
X6422365Y3032577D1*
X6440615D1*
X6452829Y3026400D1*
X6464902Y3014327D1*
X6471079Y2996077D1*
Y2983863D1*
X6464902Y2965754D1*
X6452829Y2953540D1*
X6440615Y2947504D1*
X6422365D1*
X6410292Y2953540D1*
X6398079Y2965754D1*
X6589331Y3075113D2*
X6510294D1*
Y2947504D1*
Y3014327D2*
X6558867D1*
X6916958Y6313004D2*
Y6440473D1*
X6856172Y6355540D1*
X6947282D1*
X7010784Y6313004D2*
X7071570Y6440473D1*
X6986497D1*
X7147286D2*
X7129036Y6434436D1*
X7116823Y6416186D1*
X7110786Y6385863D1*
Y6367613D1*
X7116823Y6337290D1*
X7129036Y6319040D1*
X7147286Y6313004D1*
X7159359D1*
X7177609Y6319040D1*
X7189682Y6337290D1*
X7195859Y6367613D1*
Y6385863D1*
X7189682Y6416186D1*
X7177609Y6434436D1*
X7159359Y6440473D1*
X7147286D1*
X7189682Y6416186D2*
X7116823Y6337290D1*
X7235075Y6398077D2*
Y6270467D1*
Y6379827D2*
X7247288Y6391900D1*
X7259361Y6398077D1*
X7277611D1*
X7289825Y6391900D1*
X7301898Y6379827D1*
X7308075Y6361577D1*
Y6349363D1*
X7301898Y6331254D1*
X7289825Y6319040D1*
X7277611Y6313004D1*
X7259361D1*
X7247288Y6319040D1*
X7235075Y6331254D1*
X7669123Y3415810D2*
X7681336Y3421987D1*
X7699586Y3440096D1*
Y3312627D1*
X7738802Y3397700D2*
Y3336914D1*
X7744838Y3318804D1*
X7757052Y3312627D1*
X7775302D1*
X7787375Y3318804D1*
X7805625Y3336914D1*
Y3397700D2*
Y3312627D1*
X7923877Y3440237D2*
X7844841D1*
Y3312627D1*
Y3379450D2*
X7893414D1*
X8481461Y1780683D2*
X8493674Y1786860D1*
X8511924Y1804970D1*
Y1677500D1*
X8587640Y1804970D2*
X8569390Y1798933D1*
X8557176Y1780683D1*
X8551140Y1750360D1*
Y1732110D1*
X8557176Y1701787D1*
X8569390Y1683537D1*
X8587640Y1677500D1*
X8599713D1*
X8617963Y1683537D1*
X8630036Y1701787D1*
X8636213Y1732110D1*
Y1750360D1*
X8630036Y1780683D1*
X8617963Y1798933D1*
X8599713Y1804970D1*
X8587640D1*
X8630036Y1780683D2*
X8557176Y1701787D1*
X8711929Y1804970D2*
X8693679Y1798933D1*
X8681465Y1780683D1*
X8675429Y1750360D1*
Y1732110D1*
X8681465Y1701787D1*
X8693679Y1683537D1*
X8711929Y1677500D1*
X8724002D1*
X8742252Y1683537D1*
X8754325Y1701787D1*
X8760502Y1732110D1*
Y1750360D1*
X8754325Y1780683D1*
X8742252Y1798933D1*
X8724002Y1804970D1*
X8711929D1*
X8754325Y1780683D2*
X8681465Y1701787D1*
X8799717Y1762573D2*
Y1677500D1*
Y1738287D2*
X8817967Y1756537D1*
X8830181Y1762573D1*
X8848290D1*
X8860504Y1756537D1*
X8866540Y1738287D1*
Y1677500D1*
X8984793Y1805110D2*
X8905756D1*
Y1677500D1*
Y1744323D2*
X8954329D1*
X3856690Y1491750D2*
X3850513Y1503963D1*
X3832404Y1522213D1*
X3959873D1*
X3874800Y1561429D2*
X3959873D1*
X3899087D2*
X3880837Y1579679D1*
X3874800Y1591892D1*
Y1610002D1*
X3880837Y1622215D1*
X3899087Y1628252D1*
X3959873D1*
X3832264Y1746504D2*
Y1667468D1*
X3959873Y1667467D1*
X3893050D2*
Y1716040D1*
X5213228Y7164810D2*
X5225442Y7170987D1*
X5243692Y7189096D1*
Y7061627D1*
X5355767Y7189096D2*
X5295121D1*
X5289084Y7134487D1*
X5295121Y7140523D1*
X5313371Y7146700D1*
X5331481D1*
X5349731Y7140523D1*
X5361944Y7128450D1*
X5367981Y7110200D1*
Y7098127D1*
X5361944Y7079877D1*
X5349731Y7067664D1*
X5331481Y7061627D1*
X5313371D1*
X5295121Y7067664D1*
X5289084Y7073840D1*
X5282908Y7085914D1*
X5407196Y7146700D2*
Y7085914D1*
X5413233Y7067804D1*
X5425446Y7061627D1*
X5443696D1*
X5455769Y7067804D1*
X5474019Y7085914D1*
Y7146700D2*
Y7061627D1*
X5592272Y7189237D2*
X5513235D1*
Y7061627D1*
Y7128450D2*
X5561808D1*
X3319728Y8251658D2*
X3331941Y8257835D1*
X3350191Y8275944D1*
Y8148475D1*
X3462267Y8275944D2*
X3401620D1*
X3395584Y8221335D1*
X3401620Y8227371D1*
X3419870Y8233548D1*
X3437980D1*
X3456230Y8227371D1*
X3468443Y8215298D1*
X3474480Y8197048D1*
Y8184975D1*
X3468443Y8166725D1*
X3456230Y8154512D1*
X3437980Y8148475D1*
X3419870D1*
X3401620Y8154512D1*
X3395584Y8160689D1*
X3389407Y8172762D1*
X3513696Y8233548D2*
Y8172762D1*
X3519732Y8154652D1*
X3531946Y8148475D1*
X3550196D1*
X3562269Y8154652D1*
X3580519Y8172762D1*
Y8233548D2*
Y8148475D1*
X3698771Y8276085D2*
X3619734D1*
Y8148475D1*
Y8215298D2*
X3668307D1*
X4003852Y6745560D2*
X4016065Y6751737D1*
X4034315Y6769846D1*
Y6642377D1*
X4146390Y6769846D2*
X4085744D1*
X4079708Y6715237D1*
X4085744Y6721273D1*
X4103994Y6727450D1*
X4122104D1*
X4140354Y6721273D1*
X4152567Y6709200D1*
X4158604Y6690950D1*
Y6678877D1*
X4152567Y6660627D1*
X4140354Y6648414D1*
X4122104Y6642377D1*
X4103994D1*
X4085744Y6648414D1*
X4079708Y6654590D1*
X4073531Y6666664D1*
X4197820Y6727450D2*
Y6666664D1*
X4203856Y6648554D1*
X4216070Y6642377D1*
X4234320D1*
X4246393Y6648554D1*
X4264643Y6666664D1*
Y6727450D2*
Y6642377D1*
X4382895Y6769987D2*
X4303858D1*
Y6642377D1*
Y6709200D2*
X4352431D1*
X3364564Y1493102D2*
X3358387Y1505316D1*
X3340277Y1523566D1*
X3467746Y1523565D1*
X3340277Y1599281D2*
X3346314Y1581031D1*
X3364564Y1568818D1*
X3394887Y1562781D1*
X3413137D1*
X3443460Y1568818D1*
X3461710Y1581031D1*
X3467746Y1599281D1*
Y1611354D1*
X3461710Y1629604D1*
X3443460Y1641677D1*
X3413137Y1647854D1*
X3394887D1*
X3364564Y1641677D1*
X3346314Y1629604D1*
X3340277Y1611354D1*
Y1599281D1*
X3364564Y1641677D2*
X3443460Y1568818D1*
X3382673Y1687070D2*
X3467746D1*
X3406960D2*
X3388710Y1705320D1*
X3382673Y1717533D1*
Y1735643D1*
X3388710Y1747856D1*
X3406960Y1753893D1*
X3467746D1*
X3340137Y1872145D2*
Y1793108D1*
X3467746D1*
X3400923D2*
Y1841682D1*
X2013943Y8058494D2*
Y8185963D1*
X1953157Y8101031D1*
X2044266D1*
X2107769Y8058494D2*
X2168555Y8185963D1*
X2083482D1*
X2207771Y8143567D2*
Y8082781D1*
X2213807Y8064671D1*
X2226021Y8058494D1*
X2244271D1*
X2256344Y8064671D1*
X2274594Y8082781D1*
Y8143567D2*
Y8058494D1*
X2392846Y8186104D2*
X2313810D1*
Y8058494D1*
Y8125317D2*
X2362383D1*
X3745999Y5572810D2*
X3758213Y5578987D1*
X3776463Y5597096D1*
Y5469627D1*
X3815679Y5554700D2*
Y5469627D1*
Y5530414D2*
X3833929Y5548664D1*
X3846142Y5554700D1*
X3864252D1*
X3876465Y5548664D1*
X3882502Y5530414D1*
Y5469627D1*
X4000754Y5597237D2*
X3921717D1*
Y5469627D1*
Y5536450D2*
X3970290D1*
X2272334Y5207686D2*
X2284547Y5213863D1*
X2302797Y5231973D1*
Y5104504D1*
X2378513Y5231973D2*
X2360263Y5225936D1*
X2348050Y5207686D1*
X2342013Y5177363D1*
Y5159113D1*
X2348050Y5128790D1*
X2360263Y5110540D1*
X2378513Y5104504D1*
X2390586D1*
X2408836Y5110540D1*
X2420909Y5128790D1*
X2427086Y5159113D1*
Y5177363D1*
X2420909Y5207686D1*
X2408836Y5225936D1*
X2390586Y5231973D1*
X2378513D1*
X2420909Y5207686D2*
X2348050Y5128790D1*
X2502802Y5231973D2*
X2484552Y5225936D1*
X2472338Y5207686D1*
X2466302Y5177363D1*
Y5159113D1*
X2472338Y5128790D1*
X2484552Y5110540D1*
X2502802Y5104504D1*
X2514875D1*
X2533125Y5110540D1*
X2545198Y5128790D1*
X2551375Y5159113D1*
Y5177363D1*
X2545198Y5207686D1*
X2533125Y5225936D1*
X2514875Y5231973D1*
X2502802D1*
X2545198Y5207686D2*
X2472338Y5128790D1*
X2590591Y5189577D2*
Y5104504D1*
Y5165290D2*
X2608841Y5183540D1*
X2621054Y5189577D1*
X2639164D1*
X2651377Y5183540D1*
X2657414Y5165290D1*
Y5104504D1*
X2775666Y5232113D2*
X2696629D1*
Y5104504D1*
Y5171327D2*
X2745203D1*
X2288211Y5747433D2*
X2300424Y5753610D1*
X2318674Y5771720D1*
Y5644250D1*
X2394390Y5771720D2*
X2376140Y5765683D1*
X2363926Y5747433D1*
X2357890Y5717110D1*
Y5698860D1*
X2363926Y5668537D1*
X2376140Y5650287D1*
X2394390Y5644250D1*
X2406463D1*
X2424713Y5650287D1*
X2436786Y5668537D1*
X2442963Y5698860D1*
Y5717110D1*
X2436786Y5747433D1*
X2424713Y5765683D1*
X2406463Y5771720D1*
X2394390D1*
X2436786Y5747433D2*
X2363926Y5668537D1*
X2518679Y5771720D2*
X2500429Y5765683D1*
X2488215Y5747433D1*
X2482179Y5717110D1*
Y5698860D1*
X2488215Y5668537D1*
X2500429Y5650287D1*
X2518679Y5644250D1*
X2530752D1*
X2549002Y5650287D1*
X2561075Y5668537D1*
X2567252Y5698860D1*
Y5717110D1*
X2561075Y5747433D1*
X2549002Y5765683D1*
X2530752Y5771720D1*
X2518679D1*
X2561075Y5747433D2*
X2488215Y5668537D1*
X2606467Y5729323D2*
Y5644250D1*
Y5705037D2*
X2624717Y5723287D1*
X2636931Y5729323D1*
X2655040D1*
X2667254Y5723287D1*
X2673290Y5705037D1*
Y5644250D1*
X2791543Y5771860D2*
X2712506D1*
Y5644250D1*
Y5711073D2*
X2761079D1*
X14307587Y9480060D2*
X14319801Y9486237D1*
X14338051Y9504346D1*
Y9376877D1*
X14413766Y9504346D2*
X14395516Y9498310D1*
X14383303Y9480060D1*
X14377266Y9449737D1*
Y9431487D1*
X14383303Y9401164D1*
X14395516Y9382914D1*
X14413766Y9376877D1*
X14425840D1*
X14444090Y9382914D1*
X14456163Y9401164D1*
X14462340Y9431487D1*
Y9449737D1*
X14456163Y9480060D1*
X14444090Y9498310D1*
X14425840Y9504346D1*
X14413766D1*
X14456163Y9480060D2*
X14383303Y9401164D1*
X14538055Y9504346D2*
X14519805Y9498310D1*
X14507592Y9480060D1*
X14501555Y9449737D1*
Y9431487D1*
X14507592Y9401164D1*
X14519805Y9382914D1*
X14538055Y9376877D1*
X14550128D1*
X14568378Y9382914D1*
X14580451Y9401164D1*
X14586628Y9431487D1*
Y9449737D1*
X14580451Y9480060D1*
X14568378Y9498310D1*
X14550128Y9504346D1*
X14538055D1*
X14580451Y9480060D2*
X14507592Y9401164D1*
X14625844Y9461950D2*
Y9376877D1*
Y9437664D2*
X14644094Y9455914D1*
X14656307Y9461950D1*
X14674417D1*
X14686631Y9455914D1*
X14692667Y9437664D1*
Y9376877D1*
X14810919Y9504487D2*
X14731883D1*
Y9376877D1*
Y9443700D2*
X14780456D1*
X2368228Y2558560D2*
X2380442Y2564737D1*
X2398692Y2582846D1*
Y2455377D1*
X2474408Y2582846D2*
X2456158Y2576810D1*
X2443944Y2558560D1*
X2437908Y2528237D1*
Y2509987D1*
X2443944Y2479664D1*
X2456158Y2461414D1*
X2474408Y2455377D1*
X2486481D1*
X2504731Y2461414D1*
X2516804Y2479664D1*
X2522981Y2509987D1*
Y2528237D1*
X2516804Y2558560D1*
X2504731Y2576810D1*
X2486481Y2582846D1*
X2474408D1*
X2516804Y2558560D2*
X2443944Y2479664D1*
X2562196Y2540450D2*
Y2455377D1*
Y2516164D2*
X2580446Y2534414D1*
X2592660Y2540450D1*
X2610769D1*
X2622983Y2534414D1*
X2629019Y2516164D1*
Y2455377D1*
X2747272Y2582987D2*
X2668235D1*
Y2455377D1*
Y2522200D2*
X2716808D1*
X1011871Y2346150D2*
Y2352186D1*
X1017908Y2364400D1*
X1023944Y2370436D1*
X1036158Y2376473D1*
X1060444D1*
X1072517Y2370436D1*
X1078554Y2364400D1*
X1084731Y2352186D1*
Y2340113D1*
X1078554Y2327900D1*
X1066481Y2309790D1*
X1005694Y2249004D1*
X1090767D1*
X1136160Y2346150D2*
Y2352186D1*
X1142196Y2364400D1*
X1148233Y2370436D1*
X1160446Y2376473D1*
X1184733D1*
X1196806Y2370436D1*
X1202842Y2364400D1*
X1209019Y2352186D1*
Y2340113D1*
X1202842Y2327900D1*
X1190769Y2309790D1*
X1129983Y2249004D1*
X1215056D1*
X1290772Y2376473D2*
X1272522Y2370436D1*
X1260308Y2352186D1*
X1254272Y2321863D1*
Y2303613D1*
X1260308Y2273290D1*
X1272522Y2255040D1*
X1290772Y2249004D1*
X1302845D1*
X1321095Y2255040D1*
X1333168Y2273290D1*
X1339345Y2303613D1*
Y2321863D1*
X1333168Y2352186D1*
X1321095Y2370436D1*
X1302845Y2376473D1*
X1290772D1*
X1333168Y2352186D2*
X1260308Y2273290D1*
X1378560Y2334077D2*
Y2206467D1*
Y2315827D2*
X1390774Y2327900D1*
X1402847Y2334077D1*
X1421097D1*
X1433310Y2327900D1*
X1445383Y2315827D1*
X1451560Y2297577D1*
Y2285363D1*
X1445383Y2267254D1*
X1433310Y2255040D1*
X1421097Y2249004D1*
X1402847D1*
X1390774Y2255040D1*
X1378560Y2267254D1*
X1569813Y2376613D2*
X1490776D1*
Y2249004D1*
Y2315827D2*
X1539349D1*
X2195854Y2914868D2*
X2189817D1*
X2177604Y2920905D1*
X2171567Y2926941D1*
X2165530Y2939155D1*
X2165531Y2963441D1*
X2171567Y2975514D1*
X2177604Y2981551D1*
X2189817Y2987728D1*
X2201890D1*
X2214104Y2981551D1*
X2232213Y2969478D1*
X2293000Y2908691D1*
Y2993764D1*
X2195854Y3039157D2*
X2189817D1*
X2177604Y3045193D1*
X2171567Y3051230D1*
X2165531Y3063443D1*
Y3087730D1*
X2171567Y3099803D1*
X2177604Y3105839D1*
X2189817Y3112016D1*
X2201890D1*
X2214104Y3105839D1*
X2232213Y3093766D1*
X2293000Y3032980D1*
Y3118053D1*
X2165531Y3193768D2*
X2171567Y3175518D1*
X2189817Y3163305D1*
X2220140Y3157268D1*
X2238390D1*
X2268713Y3163305D1*
X2286963Y3175518D1*
X2293000Y3193768D1*
Y3205841D1*
X2286963Y3224091D1*
X2268713Y3236164D1*
X2238390Y3242341D1*
X2220140D1*
X2189817Y3236164D1*
X2171567Y3224091D1*
X2165531Y3205841D1*
Y3193768D1*
X2189817Y3236164D2*
X2268713Y3163305D1*
X2207927Y3281557D2*
X2335536D1*
X2226177D2*
X2214104Y3293771D1*
X2207927Y3305844D1*
Y3324094D1*
X2214104Y3336307D1*
X2226177Y3348380D1*
X2244427Y3354557D1*
X2256640D1*
X2274750Y3348380D1*
X2286963Y3336307D1*
X2293000Y3324094D1*
Y3305844D1*
X2286963Y3293771D1*
X2274750Y3281557D1*
X2165390Y3472809D2*
Y3393773D1*
X2293000D1*
X2226177D2*
Y3442346D1*
X16027758Y7057563D2*
X16039972Y7063740D1*
X16058222Y7081850D1*
Y6954380D1*
X16182510Y7081990D2*
Y6954380D1*
X16097437Y7081990D1*
Y6954380D1*
X16282513D2*
Y7081850D1*
X16221726Y6996917D1*
X16312836D1*
X16352051Y7057563D2*
X16364265Y7063740D1*
X16382515Y7081850D1*
Y6954380D1*
X16482517D2*
Y7081850D1*
X16421731Y6996917D1*
X16512840D1*
X16582379Y7081850D2*
X16564269Y7075813D1*
X16558092Y7063740D1*
Y7051526D1*
X16564269Y7039453D1*
X16576342Y7033276D1*
X16600629Y7027240D1*
X16618879Y7021203D1*
X16630952Y7008990D1*
X16636989Y6996917D1*
Y6978667D1*
X16630952Y6966594D1*
X16624915Y6960417D1*
X16606665Y6954380D1*
X16582379D1*
X16564269Y6960417D1*
X16558092Y6966594D1*
X16552056Y6978667D1*
Y6996917D1*
X16558092Y7008990D1*
X16570306Y7021203D1*
X16588415Y7027240D1*
X16612702Y7033276D1*
X16624915Y7039453D1*
X16630952Y7051526D1*
Y7063740D1*
X16624915Y7075813D1*
X16606665Y7081850D1*
X16582379D1*
X5817611Y3688803D2*
X5829825Y3694980D1*
X5848075Y3713090D1*
Y3585620D1*
X5972364Y3713230D2*
Y3585620D1*
X5887291Y3713230D1*
Y3585620D1*
X6072366D2*
Y3713090D1*
X6011579Y3628157D1*
X6102689D1*
X6141905Y3688803D2*
X6154118Y3694980D1*
X6172368Y3713090D1*
Y3585620D1*
X6272370D2*
Y3713090D1*
X6211584Y3628157D1*
X6302693D1*
X6372232Y3713090D2*
X6354123Y3707053D1*
X6347946Y3694980D1*
Y3682766D1*
X6354123Y3670693D1*
X6366196Y3664516D1*
X6390482Y3658480D1*
X6408732Y3652443D1*
X6420805Y3640230D1*
X6426842Y3628157D1*
Y3609907D1*
X6420805Y3597834D1*
X6414769Y3591657D1*
X6396519Y3585620D1*
X6372232D1*
X6354123Y3591657D1*
X6347946Y3597834D1*
X6341909Y3609907D1*
Y3628157D1*
X6347946Y3640230D1*
X6360159Y3652443D1*
X6378269Y3658480D1*
X6402555Y3664516D1*
X6414769Y3670693D1*
X6420805Y3682766D1*
Y3694980D1*
X6414769Y3707053D1*
X6396519Y3713090D1*
X6372232D1*
X5195751Y6206806D2*
X5207965Y6212983D1*
X5226215Y6231093D1*
Y6103624D1*
X5350504Y6231233D2*
Y6103624D1*
X5265431Y6231233D1*
Y6103624D1*
X5450506D2*
Y6231093D1*
X5389719Y6146160D1*
X5480829D1*
X5520045Y6206806D2*
X5532258Y6212983D1*
X5550508Y6231093D1*
Y6103624D1*
X5650510D2*
Y6231093D1*
X5589724Y6146160D1*
X5680833D1*
X5750372Y6231093D2*
X5732263Y6225056D1*
X5726086Y6212983D1*
Y6200770D1*
X5732263Y6188697D1*
X5744336Y6182520D1*
X5768622Y6176483D1*
X5786872Y6170447D1*
X5798945Y6158233D1*
X5804982Y6146160D1*
Y6127910D1*
X5798945Y6115837D1*
X5792909Y6109660D1*
X5774659Y6103624D1*
X5750372D1*
X5732263Y6109660D1*
X5726086Y6115837D1*
X5720049Y6127910D1*
Y6146160D1*
X5726086Y6158233D1*
X5738299Y6170447D1*
X5756409Y6176483D1*
X5780695Y6182520D1*
X5792909Y6188697D1*
X5798945Y6200770D1*
Y6212983D1*
X5792909Y6225056D1*
X5774659Y6231093D1*
X5750372D1*
X5021935Y10592830D2*
X5015898Y10604903D1*
X5003685Y10617117D1*
X4991612Y10623153D1*
X4967325D1*
X4955112Y10617117D1*
X4943039Y10604903D1*
X4936862Y10592830D1*
X4930825Y10574580D1*
Y10544117D1*
X4936862Y10526007D1*
X4943039Y10513794D1*
X4955112Y10501721D1*
X4967325Y10495544D1*
X4991612D1*
X5003685Y10501721D1*
X5015898Y10513794D1*
X5021935Y10526007D1*
Y10544117D1*
X4991612D1*
X9081776Y6536464D2*
X9075740Y6548537D1*
X9063526Y6560750D1*
X9051453Y6566787D1*
X9027166D1*
X9014953Y6560750D1*
X9002880Y6548537D1*
X8996703Y6536464D1*
X8990666Y6518214D1*
Y6487750D1*
X8996703Y6469640D1*
X9002880Y6457427D1*
X9014953Y6445354D1*
X9027166Y6439177D1*
X9051453D1*
X9063526Y6445354D1*
X9075740Y6457427D1*
X9081776Y6469640D1*
Y6487750D1*
X9051453D1*
X9120992Y6506000D2*
X9175601D1*
X9193851Y6512177D1*
X9200028Y6518214D1*
X9206065Y6530287D1*
Y6542500D1*
X9200028Y6554573D1*
X9193851Y6560750D1*
X9175601Y6566787D1*
X9120992D1*
Y6439177D1*
X9163528Y6506000D2*
X9206065Y6439177D1*
X9245280Y6566787D2*
Y6439177D1*
X9300030D1*
X9318280Y6445354D1*
X9324317Y6451390D1*
X9330354Y6463464D1*
Y6481714D1*
X9324317Y6493927D1*
X9318280Y6499964D1*
X9300030Y6506000D1*
X9318280Y6512177D1*
X9324317Y6518214D1*
X9330354Y6530287D1*
Y6542500D1*
X9324317Y6554573D1*
X9318280Y6560750D1*
X9300030Y6566787D1*
X9245280D1*
Y6506000D2*
X9300030D1*
X15456074Y8660961D2*
Y8666998D1*
X15462110Y8679211D1*
X15468147Y8685248D1*
X15480360Y8691285D1*
X15504647D1*
X15516720Y8685248D1*
X15522756Y8679211D1*
X15528933Y8666998D1*
Y8654925D1*
X15522756Y8642711D1*
X15510683Y8624602D1*
X15449897Y8563815D1*
X15534970D1*
X15586399Y8569852D2*
X15580222Y8563815D1*
X15574186Y8569852D1*
X15580222Y8576029D1*
X15586399Y8569852D1*
Y8557779D1*
X15580222Y8545565D1*
X15574186Y8539529D1*
X15698474Y8691285D2*
X15637828D1*
X15631792Y8636675D1*
X15637828Y8642711D1*
X15656078Y8648888D1*
X15674188D1*
X15692438Y8642711D1*
X15704651Y8630638D1*
X15710688Y8612388D1*
Y8600315D1*
X15704651Y8582065D1*
X15692438Y8569852D1*
X15674188Y8563815D1*
X15656078D1*
X15637828Y8569852D1*
X15631792Y8576029D1*
X15625615Y8588102D1*
X15749903Y8691425D2*
Y8563815D1*
X15810690Y8648888D2*
X15749903Y8588102D1*
X15774190Y8612388D2*
X15816727Y8563815D1*
X15979389Y8691425D2*
Y8563815D1*
X16018604Y8691425D2*
X16024641Y8685388D1*
X16030818Y8691425D1*
X16024641Y8697602D1*
X16018604Y8691425D1*
X16024641Y8648888D2*
Y8563815D1*
X16070033Y8648888D2*
Y8563815D1*
Y8624602D2*
X16088283Y8642852D1*
X16100497Y8648888D1*
X16118607D1*
X16130820Y8642852D1*
X16136857Y8624602D1*
Y8563815D1*
X6131300Y8958817D2*
Y8831207D1*
X6261625Y8928494D2*
X6255589Y8940567D1*
X6243375Y8952780D1*
X6231302Y8958817D1*
X6207016D1*
X6194802Y8952780D1*
X6182729Y8940567D1*
X6176552Y8928494D1*
X6170516Y8910244D1*
Y8879780D1*
X6176552Y8861670D1*
X6182729Y8849457D1*
X6194802Y8837384D1*
X6207016Y8831207D1*
X6231302D1*
X6243375Y8837384D1*
X6255589Y8849457D1*
X6261625Y8861670D1*
X6373701Y8958676D2*
X6313055D1*
X6307018Y8904067D1*
X6313055Y8910103D1*
X6331305Y8916280D1*
X6349414D1*
X6367664Y8910103D1*
X6379878Y8898030D1*
X6385914Y8879780D1*
Y8867707D1*
X6379878Y8849457D1*
X6367664Y8837244D1*
X6349414Y8831207D1*
X6331305D1*
X6313055Y8837244D1*
X6307018Y8843420D1*
X6300841Y8855494D1*
X6425130Y8916280D2*
Y8788670D1*
Y8898030D2*
X6437343Y8910103D1*
X6449416Y8916280D1*
X6467666D1*
X6479880Y8910103D1*
X6491953Y8898030D1*
X6498130Y8879780D1*
Y8867567D1*
X6491953Y8849457D1*
X6479880Y8837244D1*
X6467666Y8831207D1*
X6449416D1*
X6437343Y8837244D1*
X6425130Y8849457D1*
X6537346Y8958817D2*
X6543382Y8952780D1*
X6549559Y8958817D1*
X6543382Y8964994D1*
X6537346Y8958817D1*
X6543382Y8916280D2*
Y8831207D1*
X6588775Y8916280D2*
Y8831207D1*
Y8891994D2*
X6607025Y8910244D1*
X6619238Y8916280D1*
X6637348D1*
X6649561Y8910244D1*
X6655598Y8891994D1*
Y8831207D1*
X6767673Y8958676D2*
X6707027D1*
X6700990Y8904067D1*
X6707027Y8910103D1*
X6725277Y8916280D1*
X6743387D1*
X6761637Y8910103D1*
X6773850Y8898030D1*
X6779887Y8879780D1*
Y8867707D1*
X6773850Y8849457D1*
X6761637Y8837244D1*
X6743387Y8831207D1*
X6725277D1*
X6707027Y8837244D1*
X6700990Y8843420D1*
X6694813Y8855494D1*
X15331074Y10421045D2*
Y10427081D1*
X15337110Y10439295D1*
X15343147Y10445331D1*
X15355360Y10451368D1*
X15379647D1*
X15391720Y10445331D1*
X15397756Y10439295D1*
X15403933Y10427081D1*
Y10415008D1*
X15397756Y10402795D1*
X15385683Y10384685D1*
X15324897Y10323899D1*
X15409970D1*
X15461399Y10329935D2*
X15455222Y10323899D1*
X15449186Y10329935D1*
X15455222Y10336112D1*
X15461399Y10329935D1*
Y10317862D1*
X15455222Y10305649D1*
X15449186Y10299612D1*
X15573474Y10451368D2*
X15512828D1*
X15506792Y10396758D1*
X15512828Y10402795D1*
X15531078Y10408972D1*
X15549188D1*
X15567438Y10402795D1*
X15579651Y10390722D1*
X15585688Y10372472D1*
Y10360399D1*
X15579651Y10342149D1*
X15567438Y10329935D1*
X15549188Y10323899D1*
X15531078D1*
X15512828Y10329935D1*
X15506792Y10336112D1*
X15500615Y10348185D1*
X15624903Y10451508D2*
Y10323899D1*
X15685690Y10408972D2*
X15624903Y10348185D1*
X15649190Y10372472D2*
X15691727Y10323899D1*
X15854389Y10451508D2*
Y10323899D1*
X15893604Y10451508D2*
X15899641Y10445472D1*
X15905818Y10451508D1*
X15899641Y10457685D1*
X15893604Y10451508D1*
X15899641Y10408972D2*
Y10323899D1*
X15945033Y10408972D2*
Y10323899D1*
Y10384685D2*
X15963283Y10402935D1*
X15975497Y10408972D1*
X15993607D1*
X16005820Y10402935D1*
X16011857Y10384685D1*
Y10323899D1*
X1546265Y8223363D2*
X1534051Y8217327D1*
X1521978Y8205113D1*
X1515801Y8193040D1*
X1509765Y8174790D1*
Y8144327D1*
X1515801Y8126217D1*
X1521978Y8114004D1*
X1534051Y8101931D1*
X1546265Y8095754D1*
X1570551D1*
X1582624Y8101931D1*
X1594838Y8114004D1*
X1600874Y8126217D1*
X1606911Y8144327D1*
Y8174790D1*
X1600874Y8193040D1*
X1594838Y8205113D1*
X1582624Y8217327D1*
X1570551Y8223363D1*
X1546265D1*
X1646127D2*
Y8132254D1*
X1652163Y8114004D1*
X1664377Y8101931D1*
X1682627Y8095754D1*
X1694700D1*
X1712950Y8101931D1*
X1725163Y8114004D1*
X1731200Y8132254D1*
Y8223363D1*
X1812952D2*
Y8095754D1*
X1770415Y8223363D2*
X1855489D1*
X13950977Y5366177D2*
Y5238567D1*
X14005727D1*
X14023977Y5244744D1*
X14030013Y5250780D1*
X14036050Y5262854D1*
Y5281104D1*
X14030013Y5293317D1*
X14023977Y5299354D1*
X14005727Y5305390D1*
X14023977Y5311567D1*
X14030013Y5317604D1*
X14036050Y5329677D1*
Y5341890D1*
X14030013Y5353963D1*
X14023977Y5360140D1*
X14005727Y5366177D1*
X13950977D1*
Y5305390D2*
X14005727D1*
X14166375Y5335854D2*
X14160338Y5347927D1*
X14148125Y5360140D1*
X14136052Y5366177D1*
X14111765D1*
X14099552Y5360140D1*
X14087479Y5347927D1*
X14081302Y5335854D1*
X14075265Y5317604D1*
Y5287140D1*
X14081302Y5269030D1*
X14087479Y5256817D1*
X14099552Y5244744D1*
X14111765Y5238567D1*
X14136052D1*
X14148125Y5244744D1*
X14160338Y5256817D1*
X14166375Y5269030D1*
X14211768Y5335713D2*
Y5341750D1*
X14217804Y5353963D1*
X14223841Y5360000D1*
X14236054Y5366036D1*
X14260341D1*
X14272414Y5360000D1*
X14278450Y5353963D1*
X14284627Y5341750D1*
Y5329677D1*
X14278450Y5317463D1*
X14266377Y5299354D1*
X14205591Y5238567D1*
X14290664D1*
X14342093Y5366036D2*
X14408776D1*
X14372416Y5317463D1*
X14390666D1*
X14402739Y5311427D1*
X14408776Y5305390D1*
X14414953Y5287140D1*
Y5275067D1*
X14408776Y5256817D1*
X14396703Y5244604D1*
X14378453Y5238567D1*
X14360203D1*
X14342093Y5244604D1*
X14336056Y5250780D1*
X14329879Y5262854D1*
X14478455Y5238567D2*
X14539241Y5366036D1*
X14454168D1*
X14578457Y5366177D2*
Y5238567D1*
X14633207D1*
X14651457Y5244744D1*
X14657494Y5250780D1*
X14663530Y5262854D1*
Y5281104D1*
X14657494Y5293317D1*
X14651457Y5299354D1*
X14633207Y5305390D1*
X14651457Y5311567D1*
X14657494Y5317604D1*
X14663530Y5329677D1*
Y5341890D1*
X14657494Y5353963D1*
X14651457Y5360140D1*
X14633207Y5366177D1*
X14578457D1*
Y5305390D2*
X14633207D1*
X3181265Y7528374D2*
Y7400764D1*
X3236015D1*
X3254265Y7406941D1*
X3260301Y7412978D1*
X3266338Y7425051D1*
Y7443301D1*
X3260301Y7455514D1*
X3254265Y7461551D1*
X3236015Y7467587D1*
X3254265Y7473764D1*
X3260301Y7479801D1*
X3266338Y7491874D1*
Y7504087D1*
X3260301Y7516161D1*
X3254265Y7522337D1*
X3236015Y7528374D1*
X3181265D1*
Y7467587D2*
X3236015D1*
X3396663Y7498051D2*
X3390627Y7510124D1*
X3378413Y7522337D1*
X3366340Y7528374D1*
X3342054D1*
X3329840Y7522337D1*
X3317767Y7510124D1*
X3311590Y7498051D1*
X3305554Y7479801D1*
Y7449337D1*
X3311590Y7431228D1*
X3317767Y7419014D1*
X3329840Y7406941D1*
X3342054Y7400764D1*
X3366340D1*
X3378413Y7406941D1*
X3390627Y7419014D1*
X3396663Y7431228D1*
X3442056Y7497911D2*
Y7503947D1*
X3448092Y7516161D1*
X3454129Y7522197D1*
X3466342Y7528234D1*
X3490629D1*
X3502702Y7522197D1*
X3508738Y7516161D1*
X3514915Y7503947D1*
Y7491874D1*
X3508738Y7479661D1*
X3496665Y7461551D1*
X3435879Y7400764D1*
X3520952D1*
X3572381Y7528234D2*
X3639064D1*
X3602704Y7479661D1*
X3620954D1*
X3633027Y7473624D1*
X3639064Y7467587D1*
X3645241Y7449337D1*
Y7437264D1*
X3639064Y7419014D1*
X3626991Y7406801D1*
X3608741Y7400764D1*
X3590491D1*
X3572381Y7406801D1*
X3566345Y7412978D1*
X3560168Y7425051D1*
X3708743Y7400764D2*
X3769529Y7528234D1*
X3684456D1*
X3808745Y7528374D2*
Y7400764D1*
X3863495D1*
X3881745Y7406941D1*
X3887782Y7412978D1*
X3893818Y7425051D1*
Y7443301D1*
X3887782Y7455514D1*
X3881745Y7461551D1*
X3863495Y7467587D1*
X3881745Y7473764D1*
X3887782Y7479801D1*
X3893818Y7491874D1*
Y7504087D1*
X3887782Y7516161D1*
X3881745Y7522337D1*
X3863495Y7528374D1*
X3808745D1*
Y7467587D2*
X3863495D1*
X5528033Y10560660D2*
X5582643D1*
X5600893Y10566837D1*
X5607070Y10572874D1*
X5613107Y10584947D1*
Y10597160D1*
X5607070Y10609233D1*
X5600893Y10615410D1*
X5582643Y10621447D1*
X5528033D1*
Y10493837D1*
X5570570Y10560660D2*
X5613107Y10493837D1*
X16928770Y8466417D2*
X16922733Y8478490D1*
X16904483Y8484526D1*
X16892410D1*
X16874160Y8478490D1*
X16861947Y8460240D1*
X16855910Y8429917D1*
Y8399594D1*
X16861947Y8375307D1*
X16874160Y8363094D1*
X16892410Y8357057D1*
X16898447D1*
X16916556Y8363094D1*
X16928770Y8375307D1*
X16934806Y8393557D1*
Y8399594D1*
X16928770Y8417844D1*
X16916556Y8429917D1*
X16898447Y8435953D1*
X16892410D1*
X16874160Y8429917D1*
X16861947Y8417844D1*
X16855910Y8399594D1*
X17004345Y8484526D2*
X16986235Y8478490D1*
X16980058Y8466417D1*
Y8454203D1*
X16986235Y8442130D1*
X16998308Y8435953D1*
X17022595Y8429917D1*
X17040845Y8423880D1*
X17052918Y8411667D1*
X17058955Y8399594D1*
Y8381344D1*
X17052918Y8369270D1*
X17046881Y8363094D1*
X17028631Y8357057D1*
X17004345D1*
X16986235Y8363094D1*
X16980058Y8369270D1*
X16974022Y8381344D1*
Y8399594D1*
X16980058Y8411667D1*
X16992272Y8423880D1*
X17010381Y8429917D1*
X17034668Y8435953D1*
X17046881Y8442130D1*
X17052918Y8454203D1*
Y8466417D1*
X17046881Y8478490D1*
X17028631Y8484526D1*
X17004345D1*
X17134670D2*
X17116420Y8478490D1*
X17104207Y8460240D1*
X17098170Y8429917D1*
Y8411667D1*
X17104207Y8381344D1*
X17116420Y8363094D1*
X17134670Y8357057D1*
X17146743D1*
X17164993Y8363094D1*
X17177066Y8381344D1*
X17183243Y8411667D1*
Y8429917D1*
X17177066Y8460240D1*
X17164993Y8478490D1*
X17146743Y8484526D1*
X17134670D1*
X17177066Y8460240D2*
X17104207Y8381344D1*
X15382456Y7702060D2*
X15394669Y7708237D1*
X15412919Y7726346D1*
Y7598877D1*
X15452135Y7726487D2*
Y7598877D1*
X15512921Y7683950D2*
X15452135Y7623164D1*
X15476421Y7647450D2*
X15518958Y7598877D1*
X14844353Y6455877D2*
Y6583346D1*
X14783567Y6498414D1*
X14874676D1*
X14919929Y6468090D2*
X14913892Y6461914D1*
X14919929Y6455877D1*
X14926106Y6461914D1*
X14919929Y6468090D1*
X14989608Y6455877D2*
X15050394Y6583346D1*
X14965321D1*
X15089610Y6583487D2*
Y6455877D1*
X15150397Y6540950D2*
X15089610Y6480164D1*
X15113897Y6504450D2*
X15156433Y6455877D1*
X14849444Y6075346D2*
X14916126D1*
X14879767Y6026773D1*
X14898017D1*
X14910090Y6020737D1*
X14916126Y6014700D1*
X14922303Y5996450D1*
Y5984377D1*
X14916126Y5966127D1*
X14904053Y5953914D1*
X14885803Y5947877D1*
X14867553D1*
X14849444Y5953914D1*
X14843407Y5960090D1*
X14837230Y5972164D1*
X14967555Y5960090D2*
X14961519Y5953914D1*
X14967555Y5947877D1*
X14973732Y5953914D1*
X14967555Y5960090D1*
X15091985Y6032950D2*
X15085808Y6014700D1*
X15073735Y6002487D1*
X15055485Y5996450D1*
X15049448D1*
X15031198Y6002487D1*
X15019125Y6014700D1*
X15012948Y6032950D1*
Y6038987D1*
X15019125Y6057237D1*
X15031198Y6069310D1*
X15049448Y6075346D1*
X15055485D1*
X15073735Y6069310D1*
X15085808Y6057237D1*
X15091985Y6032950D1*
Y6002487D1*
X15085808Y5972164D1*
X15073735Y5953914D1*
X15055485Y5947877D1*
X15043411D1*
X15025161Y5953914D1*
X15019125Y5966127D1*
X15131200Y6075487D2*
Y5947877D1*
X15191987Y6032950D2*
X15131200Y5972164D1*
X15155487Y5996450D2*
X15198023Y5947877D1*
X13318423Y6189260D2*
X13312386Y6201333D1*
X13294136Y6207370D1*
X13282063D1*
X13263813Y6201333D1*
X13251600Y6183083D1*
X13245563Y6152760D1*
Y6122437D1*
X13251600Y6098150D1*
X13263813Y6085937D1*
X13282063Y6079900D1*
X13288100D1*
X13306210Y6085937D1*
X13318423Y6098150D1*
X13324460Y6116400D1*
Y6122437D1*
X13318423Y6140687D1*
X13306210Y6152760D1*
X13288100Y6158796D1*
X13282063D1*
X13263813Y6152760D1*
X13251600Y6140687D1*
X13245563Y6122437D1*
X13393998Y6207370D2*
X13375889Y6201333D1*
X13369712Y6189260D1*
Y6177046D1*
X13375889Y6164973D1*
X13387962Y6158796D1*
X13412248Y6152760D1*
X13430498Y6146723D1*
X13442571Y6134510D1*
X13448608Y6122437D1*
Y6104187D1*
X13442571Y6092114D1*
X13436535Y6085937D1*
X13418285Y6079900D1*
X13393998D1*
X13375889Y6085937D1*
X13369712Y6092114D1*
X13363675Y6104187D1*
Y6122437D1*
X13369712Y6134510D1*
X13381925Y6146723D1*
X13400035Y6152760D1*
X13424321Y6158796D1*
X13436535Y6164973D1*
X13442571Y6177046D1*
Y6189260D1*
X13436535Y6201333D1*
X13418285Y6207370D1*
X13393998D1*
X13524324D2*
X13506074Y6201333D1*
X13493860Y6183083D1*
X13487824Y6152760D1*
Y6134510D1*
X13493860Y6104187D1*
X13506074Y6085937D1*
X13524324Y6079900D1*
X13536397D1*
X13554647Y6085937D1*
X13566720Y6104187D1*
X13572897Y6134510D1*
Y6152760D1*
X13566720Y6183083D1*
X13554647Y6201333D1*
X13536397Y6207370D1*
X13524324D1*
X13566720Y6183083D2*
X13493860Y6104187D1*
X10981981Y5019183D2*
X10994195Y5025360D1*
X11012445Y5043470D1*
Y4916000D1*
X11057837Y5013146D2*
Y5019183D1*
X11063874Y5031396D1*
X11069910Y5037433D1*
X11082124Y5043470D1*
X11106410D1*
X11118483Y5037433D1*
X11124520Y5031396D1*
X11130697Y5019183D1*
Y5007110D1*
X11124520Y4994896D1*
X11112447Y4976787D1*
X11051660Y4916000D1*
X11136733D1*
X11175949Y5043610D2*
Y4916000D1*
X11236736Y5001073D2*
X11175949Y4940287D1*
X11200236Y4964573D2*
X11242772Y4916000D1*
X10384763Y5511313D2*
X10396977Y5517490D1*
X10415227Y5535600D1*
Y5408130D1*
X10460479Y5420344D2*
X10454442Y5414167D1*
X10460479Y5408130D1*
X10466656Y5414167D1*
X10460479Y5420344D1*
X10578731Y5535600D2*
X10518085D1*
X10512048Y5480990D1*
X10518085Y5487026D1*
X10536335Y5493203D1*
X10554445D1*
X10572695Y5487026D1*
X10584908Y5474953D1*
X10590945Y5456703D1*
Y5444630D1*
X10584908Y5426380D1*
X10572695Y5414167D1*
X10554445Y5408130D1*
X10536335D1*
X10518085Y5414167D1*
X10512048Y5420344D1*
X10505872Y5432417D1*
X10630160Y5535740D2*
Y5408130D1*
X10690947Y5493203D2*
X10630160Y5432417D1*
X10654447Y5456703D2*
X10696983Y5408130D1*
X14410981Y7321060D2*
X14423195Y7327237D1*
X14441445Y7345346D1*
Y7217877D1*
X14553520Y7345346D2*
X14492874D1*
X14486837Y7290737D1*
X14492874Y7296773D1*
X14511124Y7302950D1*
X14529233D1*
X14547483Y7296773D1*
X14559697Y7284700D1*
X14565733Y7266450D1*
Y7254377D1*
X14559697Y7236127D1*
X14547483Y7223914D1*
X14529233Y7217877D1*
X14511124D1*
X14492874Y7223914D1*
X14486837Y7230090D1*
X14480660Y7242164D1*
X14604949Y7345487D2*
Y7217877D1*
X14665736Y7302950D2*
X14604949Y7242164D1*
X14629236Y7266450D2*
X14671772Y7217877D1*
X16333352Y9426396D2*
Y9432433D1*
X16339388Y9444646D1*
X16345425Y9450683D1*
X16357638Y9456720D1*
X16381925D1*
X16393998Y9450683D1*
X16400034Y9444646D1*
X16406211Y9432433D1*
Y9420360D1*
X16400034Y9408146D1*
X16387961Y9390037D1*
X16327175Y9329250D1*
X16412248D1*
X16475750D2*
X16536537Y9456720D1*
X16451463D1*
X16612252D2*
X16594002Y9450683D1*
X16581789Y9432433D1*
X16575752Y9402110D1*
Y9383860D1*
X16581789Y9353537D1*
X16594002Y9335287D1*
X16612252Y9329250D1*
X16624325D1*
X16642575Y9335287D1*
X16654648Y9353537D1*
X16660825Y9383860D1*
Y9402110D1*
X16654648Y9432433D1*
X16642575Y9450683D1*
X16624325Y9456720D1*
X16612252D1*
X16654648Y9432433D2*
X16581789Y9353537D1*
X15210837Y9437076D2*
X15223050Y9443253D1*
X15241300Y9461363D1*
Y9333894D1*
X15286552Y9346107D2*
X15280516Y9339930D1*
X15286552Y9333894D1*
X15292729Y9339930D1*
X15286552Y9346107D1*
X15362268Y9461363D2*
X15344159Y9455326D1*
X15337982Y9443253D1*
Y9431040D1*
X15344159Y9418967D1*
X15356232Y9412790D1*
X15380518Y9406753D1*
X15398768Y9400717D1*
X15410841Y9388503D1*
X15416878Y9376430D1*
Y9358180D1*
X15410841Y9346107D1*
X15404805Y9339930D1*
X15386555Y9333894D1*
X15362268D1*
X15344159Y9339930D1*
X15337982Y9346107D1*
X15331945Y9358180D1*
Y9376430D1*
X15337982Y9388503D1*
X15350195Y9400717D1*
X15368305Y9406753D1*
X15392591Y9412790D1*
X15404805Y9418967D1*
X15410841Y9431040D1*
Y9443253D1*
X15404805Y9455326D1*
X15386555Y9461363D1*
X15362268D1*
X15456093Y9461503D2*
Y9333894D1*
X15516880Y9418967D2*
X15456093Y9358180D1*
X15480380Y9382467D2*
X15522917Y9333894D1*
X12123626Y3638060D2*
X12135839Y3644237D1*
X12154089Y3662346D1*
Y3534877D1*
X12193305Y3662487D2*
Y3534877D1*
X12254091Y3619950D2*
X12193305Y3559164D1*
X12217591Y3583450D2*
X12260128Y3534877D1*
X13536016Y4436496D2*
X13548229Y4442673D1*
X13566479Y4460783D1*
Y4333314D1*
X13605695Y4460923D2*
Y4333314D1*
X13666481Y4418387D2*
X13605695Y4357600D1*
X13629981Y4381887D2*
X13672518Y4333314D1*
X12710999Y6844810D2*
X12723212Y6850987D1*
X12741462Y6869096D1*
Y6741627D1*
X12780678Y6869237D2*
Y6741627D1*
X12841465Y6826700D2*
X12780678Y6765914D1*
X12804965Y6790200D2*
X12847501Y6741627D1*
X12171249Y9286386D2*
X12183462Y9292563D1*
X12201712Y9310673D1*
Y9183204D1*
X12240928Y9310813D2*
Y9183204D1*
X12301715Y9268277D2*
X12240928Y9207490D1*
X12265215Y9231777D2*
X12307751Y9183204D1*
X12917379Y7575060D2*
X12929592Y7581237D1*
X12947842Y7599346D1*
Y7471877D1*
X12987058Y7599487D2*
Y7471877D1*
X13047845Y7556950D2*
X12987058Y7496164D1*
X13011345Y7520450D2*
X13053881Y7471877D1*
X14219122Y8333886D2*
X14231336Y8340063D1*
X14249586Y8358173D1*
Y8230704D1*
X14288801Y8358313D2*
Y8230704D1*
X14349588Y8315777D2*
X14288801Y8254990D1*
X14313088Y8279277D2*
X14355624Y8230704D1*
X11141906Y7843297D2*
X11135870Y7855370D1*
X11117620Y7861406D1*
X11105547D1*
X11087297Y7855370D1*
X11075083Y7837120D1*
X11069047Y7806797D1*
Y7776474D1*
X11075083Y7752187D1*
X11087297Y7739974D1*
X11105547Y7733937D1*
X11111583D1*
X11129693Y7739974D1*
X11141906Y7752187D1*
X11147943Y7770437D1*
Y7776474D1*
X11141906Y7794724D1*
X11129693Y7806797D1*
X11111583Y7812833D1*
X11105547D1*
X11087297Y7806797D1*
X11075083Y7794724D1*
X11069047Y7776474D1*
X11217482Y7861406D2*
X11199372Y7855370D1*
X11193195Y7843297D1*
Y7831083D1*
X11199372Y7819010D1*
X11211445Y7812833D1*
X11235732Y7806797D1*
X11253982Y7800760D1*
X11266055Y7788547D1*
X11272091Y7776474D1*
Y7758224D1*
X11266055Y7746150D1*
X11260018Y7739974D1*
X11241768Y7733937D1*
X11217482D1*
X11199372Y7739974D1*
X11193195Y7746150D1*
X11187159Y7758224D1*
Y7776474D1*
X11193195Y7788547D1*
X11205409Y7800760D1*
X11223518Y7806797D1*
X11247805Y7812833D1*
X11260018Y7819010D1*
X11266055Y7831083D1*
Y7843297D1*
X11260018Y7855370D1*
X11241768Y7861406D1*
X11217482D1*
X11347807D2*
X11329557Y7855370D1*
X11317343Y7837120D1*
X11311307Y7806797D1*
Y7788547D1*
X11317343Y7758224D1*
X11329557Y7739974D1*
X11347807Y7733937D1*
X11359880D1*
X11378130Y7739974D1*
X11390203Y7758224D1*
X11396380Y7788547D1*
Y7806797D1*
X11390203Y7837120D1*
X11378130Y7855370D1*
X11359880Y7861406D1*
X11347807D1*
X11390203Y7837120D2*
X11317343Y7758224D1*
X8658195Y6853223D2*
X8640085Y6847186D1*
X8633908Y6835113D1*
Y6822900D1*
X8640085Y6810827D1*
X8652158Y6804650D1*
X8676445Y6798613D1*
X8694695Y6792577D1*
X8706768Y6780363D1*
X8712804Y6768290D1*
Y6750040D1*
X8706768Y6737967D1*
X8700731Y6731790D1*
X8682481Y6725754D1*
X8658195D1*
X8640085Y6731790D1*
X8633908Y6737967D1*
X8627872Y6750040D1*
Y6768290D1*
X8633908Y6780363D1*
X8646122Y6792577D1*
X8664231Y6798613D1*
X8688518Y6804650D1*
X8700731Y6810827D1*
X8706768Y6822900D1*
Y6835113D1*
X8700731Y6847186D1*
X8682481Y6853223D1*
X8658195D1*
X8758197Y6822900D2*
Y6828936D1*
X8764233Y6841150D1*
X8770270Y6847186D1*
X8782483Y6853223D1*
X8806770D1*
X8818843Y6847186D1*
X8824880Y6841150D1*
X8831056Y6828936D1*
Y6816863D1*
X8824880Y6804650D1*
X8812806Y6786540D1*
X8752020Y6725754D1*
X8837093D1*
X8912809Y6853223D2*
X8894559Y6847186D1*
X8882345Y6828936D1*
X8876309Y6798613D1*
Y6780363D1*
X8882345Y6750040D1*
X8894559Y6731790D1*
X8912809Y6725754D1*
X8924882D1*
X8943132Y6731790D1*
X8955205Y6750040D1*
X8961382Y6780363D1*
Y6798613D1*
X8955205Y6828936D1*
X8943132Y6847186D1*
X8924882Y6853223D1*
X8912809D1*
X8955205Y6828936D2*
X8882345Y6750040D1*
X5378108Y4447683D2*
X5390321Y4453860D1*
X5408571Y4471970D1*
Y4344500D1*
X5484287Y4471970D2*
X5466037Y4465933D1*
X5453824Y4447683D1*
X5447787Y4417360D1*
Y4399110D1*
X5453824Y4368787D1*
X5466037Y4350537D1*
X5484287Y4344500D1*
X5496360D1*
X5514610Y4350537D1*
X5526683Y4368787D1*
X5532860Y4399110D1*
Y4417360D1*
X5526683Y4447683D1*
X5514610Y4465933D1*
X5496360Y4471970D1*
X5484287D1*
X5526683Y4447683D2*
X5453824Y4368787D1*
X5572076Y4472110D2*
Y4344500D1*
X5632862Y4429573D2*
X5572076Y4368787D1*
X5596362Y4393073D2*
X5638899Y4344500D1*
X6409981Y7146433D2*
X6422195Y7152610D1*
X6440445Y7170720D1*
Y7043250D1*
X6552520Y7170720D2*
X6491874D1*
X6485837Y7116110D1*
X6491874Y7122146D1*
X6510124Y7128323D1*
X6528233D1*
X6546483Y7122146D1*
X6558697Y7110073D1*
X6564733Y7091823D1*
Y7079750D1*
X6558697Y7061500D1*
X6546483Y7049287D1*
X6528233Y7043250D1*
X6510124D1*
X6491874Y7049287D1*
X6485837Y7055464D1*
X6479660Y7067537D1*
X6603949Y7170860D2*
Y7043250D1*
X6664736Y7128323D2*
X6603949Y7067537D1*
X6628236Y7091823D2*
X6670772Y7043250D1*
X6997127Y2770180D2*
X7009340Y2776357D1*
X7027590Y2794466D1*
Y2666997D1*
X7103306Y2794466D2*
X7085056Y2788430D1*
X7072842Y2770180D1*
X7066806Y2739857D1*
Y2721607D1*
X7072842Y2691284D1*
X7085056Y2673034D1*
X7103306Y2666997D1*
X7115379D1*
X7133629Y2673034D1*
X7145702Y2691284D1*
X7151879Y2721607D1*
Y2739857D1*
X7145702Y2770180D1*
X7133629Y2788430D1*
X7115379Y2794466D1*
X7103306D1*
X7145702Y2770180D2*
X7072842Y2691284D1*
X7227595Y2794466D2*
X7209345Y2788430D1*
X7197131Y2770180D1*
X7191095Y2739857D1*
Y2721607D1*
X7197131Y2691284D1*
X7209345Y2673034D1*
X7227595Y2666997D1*
X7239668D1*
X7257918Y2673034D1*
X7269991Y2691284D1*
X7276168Y2721607D1*
Y2739857D1*
X7269991Y2770180D1*
X7257918Y2788430D1*
X7239668Y2794466D1*
X7227595D1*
X7269991Y2770180D2*
X7197131Y2691284D1*
X7315383Y2794607D2*
Y2666997D1*
X7376170Y2752070D2*
X7315383Y2691284D1*
X7339670Y2715570D2*
X7382207Y2666997D1*
X6969508Y2261753D2*
X6981721Y2267930D1*
X6999971Y2286040D1*
Y2158570D1*
X7045364Y2255716D2*
Y2261753D1*
X7051400Y2273966D1*
X7057437Y2280003D1*
X7069650Y2286040D1*
X7093937D1*
X7106010Y2280003D1*
X7112047Y2273966D1*
X7118224Y2261753D1*
Y2249680D1*
X7112047Y2237466D1*
X7099974Y2219357D1*
X7039187Y2158570D1*
X7124260D1*
X7163476Y2286180D2*
Y2158570D1*
X7224262Y2243643D2*
X7163476Y2182857D1*
X7187762Y2207143D2*
X7230299Y2158570D1*
X8790591Y3939686D2*
X8802804Y3945863D1*
X8821054Y3963973D1*
Y3836504D1*
X8957416D2*
Y3964113D1*
X8908843Y3836504D1*
X8860270Y3964113D1*
Y3836504D1*
X8284587Y2669686D2*
X8296800Y2675863D1*
X8315050Y2693973D1*
Y2566504D1*
X8390766Y2693973D2*
X8372516Y2687936D1*
X8360302Y2669686D1*
X8354266Y2639363D1*
Y2621113D1*
X8360302Y2590790D1*
X8372516Y2572540D1*
X8390766Y2566504D1*
X8402839D1*
X8421089Y2572540D1*
X8433162Y2590790D1*
X8439339Y2621113D1*
Y2639363D1*
X8433162Y2669686D1*
X8421089Y2687936D1*
X8402839Y2693973D1*
X8390766D1*
X8433162Y2669686D2*
X8360302Y2590790D1*
X8515055Y2693973D2*
X8496805Y2687936D1*
X8484591Y2669686D1*
X8478555Y2639363D1*
Y2621113D1*
X8484591Y2590790D1*
X8496805Y2572540D1*
X8515055Y2566504D1*
X8527128D1*
X8545378Y2572540D1*
X8557451Y2590790D1*
X8563628Y2621113D1*
Y2639363D1*
X8557451Y2669686D1*
X8545378Y2687936D1*
X8527128Y2693973D1*
X8515055D1*
X8557451Y2669686D2*
X8484591Y2590790D1*
X8602843Y2694113D2*
Y2566504D1*
X8663630Y2651577D2*
X8602843Y2590790D1*
X8627130Y2615077D2*
X8669667Y2566504D1*
X3729639Y9042330D2*
Y9169800D1*
X3668853Y9084867D1*
X3759962D1*
X3823465Y9042330D2*
X3884251Y9169800D1*
X3799178D1*
X3923467Y9169940D2*
Y9042330D1*
X3984253Y9127403D2*
X3923467Y9066617D1*
X3947753Y9090903D2*
X3990290Y9042330D1*
X4958488Y9852857D2*
Y9980326D1*
X4897701Y9895394D1*
X4988811D1*
X5052313Y9852857D2*
X5113100Y9980326D1*
X5028027D1*
X5152315Y9980467D2*
Y9852857D1*
X5213102Y9937930D2*
X5152315Y9877144D1*
X5176602Y9901430D2*
X5219139Y9852857D1*
X5407345Y9580177D2*
Y9707646D1*
X5346558Y9622714D1*
X5437668D1*
X5501170Y9580177D2*
X5561956Y9707646D1*
X5476883D1*
X5601172Y9707787D2*
Y9580177D1*
X5661959Y9665250D2*
X5601172Y9604464D1*
X5625459Y9628750D2*
X5667995Y9580177D1*
X6034772Y9406363D2*
Y9412400D1*
X6040809Y9424613D1*
X6046845Y9430650D1*
X6059059Y9436686D1*
X6083345D1*
X6095418Y9430650D1*
X6101455Y9424613D1*
X6107632Y9412400D1*
Y9400327D1*
X6101455Y9388113D1*
X6089382Y9370004D1*
X6028595Y9309217D1*
X6113668D1*
X6159061Y9406363D2*
Y9412400D1*
X6165098Y9424613D1*
X6171134Y9430650D1*
X6183348Y9436686D1*
X6207634D1*
X6219707Y9430650D1*
X6225744Y9424613D1*
X6231921Y9412400D1*
Y9400327D1*
X6225744Y9388113D1*
X6213671Y9370004D1*
X6152884Y9309217D1*
X6237957D1*
X6313673Y9436686D2*
X6295423Y9430650D1*
X6283209Y9412400D1*
X6277173Y9382077D1*
Y9363827D1*
X6283209Y9333504D1*
X6295423Y9315254D1*
X6313673Y9309217D1*
X6325746D1*
X6343996Y9315254D1*
X6356069Y9333504D1*
X6362246Y9363827D1*
Y9382077D1*
X6356069Y9412400D1*
X6343996Y9430650D1*
X6325746Y9436686D1*
X6313673D1*
X6356069Y9412400D2*
X6283209Y9333504D1*
X6401462Y9436827D2*
Y9309217D1*
X6462248Y9394290D2*
X6401462Y9333504D1*
X6425748Y9357790D2*
X6468285Y9309217D1*
X3294582Y9963513D2*
Y9969550D1*
X3300619Y9981763D1*
X3306655Y9987800D1*
X3318869Y9993836D1*
X3343155D1*
X3355228Y9987800D1*
X3361265Y9981763D1*
X3367442Y9969550D1*
Y9957477D1*
X3361265Y9945263D1*
X3349192Y9927154D1*
X3288405Y9866367D1*
X3373478D1*
X3418871Y9963513D2*
Y9969550D1*
X3424908Y9981763D1*
X3430944Y9987800D1*
X3443158Y9993836D1*
X3467444D1*
X3479517Y9987800D1*
X3485554Y9981763D1*
X3491731Y9969550D1*
Y9957477D1*
X3485554Y9945263D1*
X3473481Y9927154D1*
X3412694Y9866367D1*
X3497767D1*
X3573483Y9993836D2*
X3555233Y9987800D1*
X3543019Y9969550D1*
X3536983Y9939227D1*
Y9920977D1*
X3543019Y9890654D1*
X3555233Y9872404D1*
X3573483Y9866367D1*
X3585556D1*
X3603806Y9872404D1*
X3615879Y9890654D1*
X3622056Y9920977D1*
Y9939227D1*
X3615879Y9969550D1*
X3603806Y9987800D1*
X3585556Y9993836D1*
X3573483D1*
X3615879Y9969550D2*
X3543019Y9890654D1*
X3661272Y9993977D2*
Y9866367D1*
X3722058Y9951440D2*
X3661272Y9890654D1*
X3685558Y9914940D2*
X3728095Y9866367D1*
X2961209Y8531553D2*
Y8537590D1*
X2967245Y8549803D1*
X2973282Y8555840D1*
X2985495Y8561876D1*
X3009782D1*
X3021855Y8555840D1*
X3027892Y8549803D1*
X3034069Y8537590D1*
Y8525517D1*
X3027892Y8513303D1*
X3015819Y8495194D1*
X2955032Y8434407D1*
X3040105D1*
X3085498Y8531553D2*
Y8537590D1*
X3091534Y8549803D1*
X3097571Y8555840D1*
X3109784Y8561876D1*
X3134071D1*
X3146144Y8555840D1*
X3152180Y8549803D1*
X3158357Y8537590D1*
Y8525517D1*
X3152180Y8513303D1*
X3140107Y8495194D1*
X3079321Y8434407D1*
X3164394D1*
X3240110Y8561876D2*
X3221860Y8555840D1*
X3209646Y8537590D1*
X3203610Y8507267D1*
Y8489017D1*
X3209646Y8458694D1*
X3221860Y8440444D1*
X3240110Y8434407D1*
X3252183D1*
X3270433Y8440444D1*
X3282506Y8458694D1*
X3288683Y8489017D1*
Y8507267D1*
X3282506Y8537590D1*
X3270433Y8555840D1*
X3252183Y8561876D1*
X3240110D1*
X3282506Y8537590D2*
X3209646Y8458694D1*
X3327898Y8562017D2*
Y8434407D1*
X3388685Y8519480D2*
X3327898Y8458694D1*
X3352185Y8482980D2*
X3394721Y8434407D1*
X5897753Y8203237D2*
X5891717Y8215310D1*
X5873467Y8221346D1*
X5861394D1*
X5843144Y8215310D1*
X5830930Y8197060D1*
X5824894Y8166737D1*
Y8136414D1*
X5830930Y8112127D1*
X5843144Y8099914D1*
X5861394Y8093877D1*
X5867430D1*
X5885540Y8099914D1*
X5897753Y8112127D1*
X5903790Y8130377D1*
Y8136414D1*
X5897753Y8154664D1*
X5885540Y8166737D1*
X5867430Y8172773D1*
X5861394D1*
X5843144Y8166737D1*
X5830930Y8154664D1*
X5824894Y8136414D1*
X5949042Y8106090D2*
X5943005Y8099914D1*
X5949042Y8093877D1*
X5955219Y8099914D1*
X5949042Y8106090D1*
X6000611Y8191023D2*
Y8197060D1*
X6006648Y8209273D1*
X6012685Y8215310D1*
X6024898Y8221346D1*
X6049185D1*
X6061258Y8215310D1*
X6067294Y8209273D1*
X6073471Y8197060D1*
Y8184987D1*
X6067294Y8172773D1*
X6055221Y8154664D1*
X5994435Y8093877D1*
X6079508D1*
X6118723Y8221487D2*
Y8093877D1*
X6179510Y8178950D2*
X6118723Y8118164D1*
X6143010Y8142450D2*
X6185546Y8093877D1*
X2835017Y10773350D2*
X2828980Y10785423D1*
X2810730Y10791460D1*
X2798657D1*
X2780407Y10785423D1*
X2768193Y10767173D1*
X2762157Y10736850D1*
Y10706527D1*
X2768193Y10682240D1*
X2780407Y10670027D1*
X2798657Y10663990D1*
X2804693D1*
X2822803Y10670027D1*
X2835017Y10682240D1*
X2841053Y10700490D1*
Y10706527D1*
X2835017Y10724777D1*
X2822803Y10736850D1*
X2804693Y10742886D1*
X2798657D1*
X2780407Y10736850D1*
X2768193Y10724777D1*
X2762157Y10706527D1*
X2886305Y10676204D2*
X2880269Y10670027D1*
X2886305Y10663990D1*
X2892482Y10670027D1*
X2886305Y10676204D1*
X2937875Y10761136D2*
Y10767173D1*
X2943911Y10779386D1*
X2949948Y10785423D1*
X2962161Y10791460D1*
X2986448D1*
X2998521Y10785423D1*
X3004558Y10779386D1*
X3010734Y10767173D1*
Y10755100D1*
X3004558Y10742886D1*
X2992484Y10724777D1*
X2931698Y10663990D1*
X3016771D1*
X3055987Y10791600D2*
Y10663990D1*
X3116773Y10749063D2*
X3055987Y10688277D1*
X3080273Y10712563D2*
X3122810Y10663990D1*
X2689950Y9921320D2*
X2683913Y9933393D1*
X2665663Y9939430D1*
X2653590D1*
X2635340Y9933393D1*
X2623127Y9915143D1*
X2617090Y9884820D1*
Y9854497D1*
X2623127Y9830210D1*
X2635340Y9817997D1*
X2653590Y9811960D1*
X2659627D1*
X2677736Y9817997D1*
X2689950Y9830210D1*
X2695986Y9848460D1*
Y9854497D1*
X2689950Y9872747D1*
X2677736Y9884820D1*
X2659627Y9890856D1*
X2653590D1*
X2635340Y9884820D1*
X2623127Y9872747D1*
X2617090Y9854497D1*
X2741239Y9824174D2*
X2735202Y9817997D1*
X2741239Y9811960D1*
X2747415Y9817997D1*
X2741239Y9824174D1*
X2792808Y9909106D2*
Y9915143D1*
X2798845Y9927356D1*
X2804881Y9933393D1*
X2817095Y9939430D1*
X2841381D1*
X2853454Y9933393D1*
X2859491Y9927356D1*
X2865668Y9915143D1*
Y9903070D1*
X2859491Y9890856D1*
X2847418Y9872747D1*
X2786631Y9811960D1*
X2871704D1*
X2910920Y9939570D2*
Y9811960D1*
X2971706Y9897033D2*
X2910920Y9836247D1*
X2935206Y9860533D2*
X2977743Y9811960D1*
X2820865Y2127697D2*
Y2255166D1*
X2760078Y2170234D1*
X2851188D1*
X2902617Y2255166D2*
X2969300D1*
X2932940Y2206593D1*
X2951190D1*
X2963263Y2200557D1*
X2969300Y2194520D1*
X2975476Y2176270D1*
Y2164197D1*
X2969300Y2145947D1*
X2957226Y2133734D1*
X2938976Y2127697D1*
X2920726D1*
X2902617Y2133734D1*
X2896580Y2139910D1*
X2890403Y2151984D1*
X3014692Y2255307D2*
Y2127697D1*
X3075479Y2212770D2*
X3014692Y2151984D1*
X3038979Y2176270D2*
X3081515Y2127697D1*
X4743105Y1907686D2*
X4755318Y1913863D1*
X4773568Y1931973D1*
Y1804504D1*
X4849284Y1931973D2*
X4831034Y1925936D1*
X4818820Y1907686D1*
X4812784Y1877363D1*
Y1859113D1*
X4818820Y1828790D1*
X4831034Y1810540D1*
X4849284Y1804504D1*
X4861357D1*
X4879607Y1810540D1*
X4891680Y1828790D1*
X4897857Y1859113D1*
Y1877363D1*
X4891680Y1907686D1*
X4879607Y1925936D1*
X4861357Y1931973D1*
X4849284D1*
X4891680Y1907686D2*
X4818820Y1828790D1*
X4937072Y1932113D2*
Y1804504D1*
X4997859Y1889577D2*
X4937072Y1828790D1*
X4961359Y1853077D2*
X5003895Y1804504D1*
X4838320Y2298330D2*
Y2425800D1*
X4777534Y2340867D1*
X4868643D1*
X4913895Y2310544D2*
X4907859Y2304367D1*
X4913895Y2298330D1*
X4920072Y2304367D1*
X4913895Y2310544D1*
X4983575Y2298330D2*
X5044361Y2425800D1*
X4959288D1*
X5083577Y2425940D2*
Y2298330D1*
X5144363Y2383403D2*
X5083577Y2322617D1*
X5107863Y2346903D2*
X5150400Y2298330D1*
X4590686Y4880676D2*
X4602899Y4886853D1*
X4621149Y4904963D1*
Y4777494D1*
X4660365Y4905103D2*
Y4777494D1*
X4721151Y4862567D2*
X4660365Y4801780D1*
X4684651Y4826067D2*
X4727188Y4777494D1*
X2947872Y6654310D2*
X2960086Y6660487D1*
X2978336Y6678596D1*
Y6551127D1*
X3017551Y6678737D2*
Y6551127D1*
X3078338Y6636200D2*
X3017551Y6575414D1*
X3041838Y6599700D2*
X3084374Y6551127D1*
X1425817Y6765980D2*
X1419640Y6778193D1*
X1401530Y6796443D1*
X1529000D1*
X1401531Y6872159D2*
X1407567Y6853909D1*
X1425817Y6841695D1*
X1456140Y6835659D1*
X1474390D1*
X1504713Y6841695D1*
X1522963Y6853909D1*
X1529000Y6872159D1*
Y6884232D1*
X1522963Y6902482D1*
X1504713Y6914555D1*
X1474390Y6920732D1*
X1456140D1*
X1425817Y6914555D1*
X1407567Y6902482D1*
X1401531Y6884232D1*
Y6872159D1*
X1425817Y6914555D2*
X1504713Y6841695D1*
X1401531Y6996448D2*
X1407567Y6978198D1*
X1425817Y6965984D1*
X1456140Y6959948D1*
X1474390Y6959947D1*
X1504713Y6965984D1*
X1522963Y6978197D1*
X1529000Y6996447D1*
Y7008521D1*
X1522963Y7026771D1*
X1504713Y7038844D1*
X1474390Y7045021D1*
X1456140D1*
X1425817Y7038844D1*
X1407567Y7026771D1*
X1401531Y7008521D1*
Y6996448D1*
X1425817Y7038844D2*
X1504713Y6965984D1*
X2441231Y6193933D2*
X2453445Y6200110D1*
X2471695Y6218220D1*
Y6090750D1*
X2547410Y6218220D2*
X2529160Y6212183D1*
X2516947Y6193933D1*
X2510910Y6163610D1*
Y6145360D1*
X2516947Y6115037D1*
X2529160Y6096787D1*
X2547410Y6090750D1*
X2559483D1*
X2577733Y6096787D1*
X2589806Y6115037D1*
X2595983Y6145360D1*
Y6163610D1*
X2589806Y6193933D1*
X2577733Y6212183D1*
X2559483Y6218220D1*
X2547410D1*
X2589806Y6193933D2*
X2516947Y6115037D1*
X2635199Y6218360D2*
Y6090750D1*
X2695986Y6175823D2*
X2635199Y6115037D1*
X2659486Y6139323D2*
X2702022Y6090750D1*
X2434372Y4747510D2*
Y4753546D1*
X2440409Y4765760D1*
X2446445Y4771796D1*
X2458659Y4777833D1*
X2482945D1*
X2495018Y4771796D1*
X2501055Y4765760D1*
X2507232Y4753546D1*
Y4741473D1*
X2501055Y4729260D1*
X2488982Y4711150D1*
X2428195Y4650364D1*
X2513268D1*
X2558520Y4662577D2*
X2552484Y4656400D1*
X2558520Y4650364D1*
X2564697Y4656400D1*
X2558520Y4662577D1*
X2610090Y4747510D2*
Y4753546D1*
X2616126Y4765760D1*
X2622163Y4771796D1*
X2634376Y4777833D1*
X2658663D1*
X2670736Y4771796D1*
X2676773Y4765760D1*
X2682950Y4753546D1*
Y4741473D1*
X2676773Y4729260D1*
X2664700Y4711150D1*
X2603913Y4650364D1*
X2688986D1*
X2728202Y4777973D2*
Y4650364D1*
X2788988Y4735437D2*
X2728202Y4674650D1*
X2752488Y4698937D2*
X2795025Y4650364D1*
X4383012Y7444180D2*
X4322366D1*
X4316329Y7389570D1*
X4322366Y7395606D1*
X4340616Y7401783D1*
X4358725D1*
X4376975Y7395606D1*
X4389189Y7383533D1*
X4395225Y7365283D1*
Y7353210D1*
X4389189Y7334960D1*
X4376975Y7322747D1*
X4358725Y7316710D1*
X4340616D1*
X4322366Y7322747D1*
X4316329Y7328924D1*
X4310152Y7340997D1*
X4507300Y7426070D2*
X4501264Y7438143D1*
X4483014Y7444180D1*
X4470941D1*
X4452691Y7438143D1*
X4440477Y7419893D1*
X4434441Y7389570D1*
Y7359247D1*
X4440477Y7334960D1*
X4452691Y7322747D1*
X4470941Y7316710D1*
X4476977D1*
X4495087Y7322747D1*
X4507300Y7334960D1*
X4513337Y7353210D1*
Y7359247D1*
X4507300Y7377497D1*
X4495087Y7389570D1*
X4476977Y7395606D1*
X4470941D1*
X4452691Y7389570D1*
X4440477Y7377497D1*
X4434441Y7359247D1*
X4589053Y7444180D2*
X4570803Y7438143D1*
X4558589Y7419893D1*
X4552553Y7389570D1*
Y7371320D1*
X4558589Y7340997D1*
X4570803Y7322747D1*
X4589053Y7316710D1*
X4601126D1*
X4619376Y7322747D1*
X4631449Y7340997D1*
X4637626Y7371320D1*
Y7389570D1*
X4631449Y7419893D1*
X4619376Y7438143D1*
X4601126Y7444180D1*
X4589053D1*
X4631449Y7419893D2*
X4558589Y7340997D1*
X4707305Y7416875D2*
Y7344015D1*
X4676841Y7398765D2*
X4737628Y7362265D1*
Y7398765D2*
X4676841Y7362265D1*
X1304505Y9261260D2*
X1243859D1*
X1237822Y9206650D1*
X1243859Y9212686D1*
X1262109Y9218863D1*
X1280218D1*
X1298468Y9212686D1*
X1310682Y9200613D1*
X1316718Y9182363D1*
Y9170290D1*
X1310682Y9152040D1*
X1298468Y9139827D1*
X1280218Y9133790D1*
X1262109D1*
X1243859Y9139827D1*
X1237822Y9146004D1*
X1231645Y9158077D1*
X1428794Y9243150D2*
X1422757Y9255223D1*
X1404507Y9261260D1*
X1392434D1*
X1374184Y9255223D1*
X1361971Y9236973D1*
X1355934Y9206650D1*
Y9176327D1*
X1361971Y9152040D1*
X1374184Y9139827D1*
X1392434Y9133790D1*
X1398471D1*
X1416580Y9139827D1*
X1428794Y9152040D1*
X1434830Y9170290D1*
Y9176327D1*
X1428794Y9194577D1*
X1416580Y9206650D1*
X1398471Y9212686D1*
X1392434D1*
X1374184Y9206650D1*
X1361971Y9194577D1*
X1355934Y9176327D1*
X1510546Y9261260D2*
X1492296Y9255223D1*
X1480083Y9236973D1*
X1474046Y9206650D1*
Y9188400D1*
X1480083Y9158077D1*
X1492296Y9139827D1*
X1510546Y9133790D1*
X1522619D1*
X1540869Y9139827D1*
X1552942Y9158077D1*
X1559119Y9188400D1*
Y9206650D1*
X1552942Y9236973D1*
X1540869Y9255223D1*
X1522619Y9261260D1*
X1510546D1*
X1552942Y9236973D2*
X1480083Y9158077D1*
X1628798Y9233955D2*
Y9161095D1*
X1598335Y9215845D2*
X1659121Y9179345D1*
Y9215845D2*
X1598335Y9179345D1*
X2189995Y8548060D2*
X2129349D1*
X2123312Y8493450D1*
X2129349Y8499486D1*
X2147599Y8505663D1*
X2165708D1*
X2183958Y8499486D1*
X2196172Y8487413D1*
X2202208Y8469163D1*
Y8457090D1*
X2196172Y8438840D1*
X2183958Y8426627D1*
X2165708Y8420590D1*
X2147599D1*
X2129349Y8426627D1*
X2123312Y8432804D1*
X2117135Y8444877D1*
X2314284Y8529950D2*
X2308247Y8542023D1*
X2289997Y8548060D1*
X2277924D1*
X2259674Y8542023D1*
X2247461Y8523773D1*
X2241424Y8493450D1*
Y8463127D1*
X2247461Y8438840D1*
X2259674Y8426627D1*
X2277924Y8420590D1*
X2283961D1*
X2302070Y8426627D1*
X2314284Y8438840D1*
X2320320Y8457090D1*
Y8463127D1*
X2314284Y8481377D1*
X2302070Y8493450D1*
X2283961Y8499486D1*
X2277924D1*
X2259674Y8493450D1*
X2247461Y8481377D1*
X2241424Y8463127D1*
X2396036Y8548060D2*
X2377786Y8542023D1*
X2365573Y8523773D1*
X2359536Y8493450D1*
Y8475200D1*
X2365573Y8444877D1*
X2377786Y8426627D1*
X2396036Y8420590D1*
X2408109D1*
X2426359Y8426627D1*
X2438432Y8444877D1*
X2444609Y8475200D1*
Y8493450D1*
X2438432Y8523773D1*
X2426359Y8542023D1*
X2408109Y8548060D1*
X2396036D1*
X2438432Y8523773D2*
X2365573Y8444877D1*
X2514288Y8520755D2*
Y8447895D1*
X2483825Y8502645D2*
X2544611Y8466145D1*
Y8502645D2*
X2483825Y8466145D1*
X8991750Y5988197D2*
X9046359D1*
X9064609Y5994374D1*
X9070786Y6000410D1*
X9076823Y6012483D1*
Y6024697D1*
X9070786Y6036770D1*
X9064609Y6042947D1*
X9046359Y6048983D1*
X8991750D1*
Y5921374D1*
X9034286Y5988197D2*
X9076823Y5921374D1*
X9116039Y6048983D2*
Y5921374D1*
X9170789D1*
X9189039Y5927551D1*
X9195075Y5933587D1*
X9201112Y5945660D1*
Y5963910D1*
X9195075Y5976124D1*
X9189039Y5982160D1*
X9170789Y5988197D1*
X9189039Y5994374D1*
X9195075Y6000410D1*
X9201112Y6012483D1*
Y6024697D1*
X9195075Y6036770D1*
X9189039Y6042947D1*
X9170789Y6048983D1*
X9116039D1*
Y5988197D2*
X9170789D1*
X9331437Y6018660D2*
X9325400Y6030733D1*
X9313187Y6042947D1*
X9301114Y6048983D1*
X9276827D1*
X9264614Y6042947D1*
X9252541Y6030733D1*
X9246364Y6018660D1*
X9240327Y6000410D1*
Y5969947D1*
X9246364Y5951837D1*
X9252541Y5939624D1*
X9264614Y5927551D1*
X9276827Y5921374D1*
X9301114D1*
X9313187Y5927551D1*
X9325400Y5939624D1*
X9331437Y5951837D1*
Y5969947D1*
X9301114D1*
X6087685Y5722583D2*
X6075612Y5734797D1*
X6057362Y5740833D1*
X6033076D1*
X6014826Y5734797D1*
X6002612Y5722583D1*
Y5710510D1*
X6008789Y5698297D1*
X6014826Y5692260D1*
X6026899Y5686224D1*
X6063399Y5674010D1*
X6075612Y5667974D1*
X6081649Y5661797D1*
X6087685Y5649724D1*
Y5631474D1*
X6075612Y5619401D1*
X6057362Y5613224D1*
X6033076D1*
X6014826Y5619401D1*
X6002612Y5631474D1*
X6126901Y5740833D2*
X6175474Y5680047D1*
Y5613224D1*
X6224047Y5740833D2*
X6175474Y5680047D1*
X6348336Y5740833D2*
Y5613224D1*
X6263263Y5740833D1*
Y5613224D1*
X6478661Y5710510D2*
X6472625Y5722583D1*
X6460411Y5734797D1*
X6448338Y5740833D1*
X6424052D1*
X6411838Y5734797D1*
X6399765Y5722583D1*
X6393588Y5710510D1*
X6387552Y5692260D1*
Y5661797D1*
X6393588Y5643687D1*
X6399765Y5631474D1*
X6411838Y5619401D1*
X6424052Y5613224D1*
X6448338D1*
X6460411Y5619401D1*
X6472625Y5631474D1*
X6478661Y5643687D1*
X6053009Y5394195D2*
Y5400231D1*
X6059045Y5412445D1*
X6065082Y5418481D1*
X6077295Y5424518D1*
X6101582D1*
X6113655Y5418481D1*
X6119692Y5412445D1*
X6125869Y5400231D1*
Y5388158D1*
X6119692Y5375945D1*
X6107619Y5357835D1*
X6046832Y5297049D1*
X6131905D1*
X6243980Y5424518D2*
X6183334D1*
X6177298Y5369908D1*
X6183334Y5375945D1*
X6201584Y5382122D1*
X6219694D1*
X6237944Y5375945D1*
X6250157Y5363872D1*
X6256194Y5345622D1*
Y5333549D1*
X6250157Y5315299D1*
X6237944Y5303085D1*
X6219694Y5297049D1*
X6201584D1*
X6183334Y5303085D1*
X6177298Y5309262D1*
X6171121Y5321335D1*
X6331910Y5424518D2*
X6313660Y5418481D1*
X6301446Y5400231D1*
X6295410Y5369908D1*
Y5351658D1*
X6301446Y5321335D1*
X6313660Y5303085D1*
X6331910Y5297049D1*
X6343983D1*
X6362233Y5303085D1*
X6374306Y5321335D1*
X6380483Y5351658D1*
Y5369908D1*
X6374306Y5400231D1*
X6362233Y5418481D1*
X6343983Y5424518D1*
X6331910D1*
X6374306Y5400231D2*
X6301446Y5321335D1*
X6419698Y5424658D2*
Y5297049D1*
X6480485Y5382122D2*
X6419698Y5321335D1*
X6443985Y5345622D2*
X6486521Y5297049D1*
X14535743Y3171347D2*
Y3043737D1*
X14608603D1*
X14744965D2*
Y3171347D1*
X14696392Y3043737D1*
X14647819Y3171347D1*
Y3043737D1*
X14808467D2*
X14869254Y3171206D1*
X14784181D1*
X14938792D2*
X14920683Y3165170D1*
X14914506Y3153097D1*
Y3140883D1*
X14920683Y3128810D1*
X14932756Y3122633D1*
X14957042Y3116597D1*
X14975292Y3110560D1*
X14987365Y3098347D1*
X14993402Y3086274D1*
Y3068024D1*
X14987365Y3055950D1*
X14981329Y3049774D1*
X14963079Y3043737D1*
X14938792D1*
X14920683Y3049774D1*
X14914506Y3055950D1*
X14908469Y3068024D1*
Y3086274D1*
X14914506Y3098347D1*
X14926719Y3110560D1*
X14944829Y3116597D1*
X14969115Y3122633D1*
X14981329Y3128810D1*
X14987365Y3140883D1*
Y3153097D1*
X14981329Y3165170D1*
X14963079Y3171206D1*
X14938792D1*
X15032618Y3146920D2*
X15044831Y3153097D1*
X15063081Y3171206D1*
Y3043737D1*
X15108474Y3140883D2*
Y3146920D1*
X15114510Y3159133D1*
X15120547Y3165170D1*
X15132760Y3171206D1*
X15157047D1*
X15169120Y3165170D1*
X15175156Y3159133D1*
X15181333Y3146920D1*
Y3134847D1*
X15175156Y3122633D1*
X15163083Y3104524D1*
X15102297Y3043737D1*
X15187370D1*
X9960184Y8274858D2*
X10026867D1*
X9990507Y8226285D1*
X10008757D1*
X10020830Y8220248D1*
X10026867Y8214212D1*
X10033044Y8195962D1*
Y8183889D1*
X10026867Y8165639D1*
X10014794Y8153425D1*
X9996544Y8147389D1*
X9978294D1*
X9960184Y8153425D1*
X9954148Y8159602D1*
X9947971Y8171675D1*
X10072259Y8232462D2*
X10139082Y8147389D1*
Y8232462D2*
X10072259Y8147389D1*
X10890820Y7867318D2*
X10830174D1*
X10824138Y7812708D1*
X10830174Y7818745D1*
X10848424Y7824922D1*
X10866534D1*
X10884784Y7818745D1*
X10896997Y7806672D1*
X10903034Y7788422D1*
Y7776349D1*
X10896997Y7758099D1*
X10884784Y7745885D1*
X10866534Y7739849D1*
X10848424D1*
X10830174Y7745885D1*
X10824138Y7752062D1*
X10817961Y7764135D1*
X10942249Y7824922D2*
X11009072Y7739849D1*
Y7824922D2*
X10942249Y7739849D1*
X15208124Y10719068D2*
Y10658282D1*
X15214160Y10640172D1*
X15226374Y10633995D1*
X15244624D1*
X15256697Y10640172D1*
X15274947Y10658282D1*
Y10719068D2*
Y10633995D1*
X15314163Y10719068D2*
Y10633995D1*
Y10694782D2*
X15332413Y10713032D1*
X15344626Y10719068D1*
X15362736D1*
X15374949Y10713032D1*
X15380986Y10694782D1*
Y10633995D1*
X15438451Y10761605D2*
Y10658282D1*
X15444488Y10640172D1*
X15456701Y10633995D1*
X15468775D1*
X15420201Y10719068D2*
X15462738D1*
X15507990Y10682568D2*
X15580850D1*
Y10694782D1*
X15574813Y10706995D1*
X15568777Y10713032D1*
X15556563Y10719068D1*
X15538313D1*
X15526240Y10713032D1*
X15514027Y10700818D1*
X15507990Y10682568D1*
Y10670495D1*
X15514027Y10652245D1*
X15526240Y10640172D1*
X15538313Y10633995D1*
X15556563D1*
X15568777Y10640172D1*
X15580850Y10652245D1*
X15620066Y10719068D2*
Y10633995D1*
Y10682568D2*
X15626242Y10700818D1*
X15638316Y10713032D1*
X15650529Y10719068D1*
X15668779D1*
X15707995Y10682568D2*
X15780854D1*
Y10694782D1*
X15774818Y10706995D1*
X15768781Y10713032D1*
X15756568Y10719068D1*
X15738318D1*
X15726245Y10713032D1*
X15714031Y10700818D1*
X15707995Y10682568D1*
Y10670495D1*
X15714031Y10652245D1*
X15726245Y10640172D1*
X15738318Y10633995D1*
X15756568D1*
X15768781Y10640172D1*
X15780854Y10652245D1*
X16034626Y10731282D2*
X16028589Y10743355D1*
X16016376Y10755568D1*
X16004303Y10761605D1*
X15980016D1*
X15967803Y10755568D1*
X15955730Y10743355D1*
X15949553Y10731282D1*
X15943516Y10713032D1*
Y10682568D1*
X15949553Y10664459D1*
X15955730Y10652245D1*
X15967803Y10640172D1*
X15980016Y10633995D1*
X16004303D1*
X16016376Y10640172D1*
X16028589Y10652245D1*
X16034626Y10664459D1*
Y10682568D1*
X16004303D1*
X16073842Y10719068D2*
Y10633995D1*
Y10682568D2*
X16080019Y10700818D1*
X16092092Y10713032D1*
X16104305Y10719068D1*
X16122555D1*
X16161771Y10682568D2*
X16234630D1*
Y10694782D1*
X16228594Y10706995D1*
X16222557Y10713032D1*
X16210344Y10719068D1*
X16192094D1*
X16180021Y10713032D1*
X16167807Y10700818D1*
X16161771Y10682568D1*
Y10670495D1*
X16167807Y10652245D1*
X16180021Y10640172D1*
X16192094Y10633995D1*
X16210344D1*
X16222557Y10640172D1*
X16234630Y10652245D1*
X16273846Y10719068D2*
Y10633995D1*
Y10694782D2*
X16292096Y10713032D1*
X16304310Y10719068D1*
X16322419D1*
X16334633Y10713032D1*
X16340669Y10694782D1*
Y10633995D1*
X16379885Y10719068D2*
X16446708D1*
X16379885Y10633995D1*
X16446708D1*
X16485924Y10682568D2*
X16558783D1*
Y10694782D1*
X16552747Y10706995D1*
X16546710Y10713032D1*
X16534497Y10719068D1*
X16516247D1*
X16504174Y10713032D1*
X16491960Y10700818D1*
X16485924Y10682568D1*
Y10670495D1*
X16491960Y10652245D1*
X16504174Y10640172D1*
X16516247Y10633995D1*
X16534497D1*
X16546710Y10640172D1*
X16558783Y10652245D1*
X15555947Y7813942D2*
X15543874Y7807905D1*
X15531660Y7795692D1*
X15525624Y7777442D1*
Y7765369D1*
X15531660Y7747119D1*
X15543874Y7735046D1*
X15555947Y7728869D1*
X15574197D1*
X15586410Y7735046D1*
X15598484Y7747119D1*
X15604660Y7765369D1*
Y7777442D1*
X15598484Y7795692D1*
X15586410Y7807905D1*
X15574197Y7813942D1*
X15555947D1*
X15643876Y7856478D2*
Y7728869D1*
Y7795692D2*
X15656090Y7807905D1*
X15668163Y7813942D1*
X15686413D1*
X15698486Y7807905D1*
X15710699Y7795692D1*
X15716736Y7777442D1*
Y7765369D1*
X15710699Y7747119D1*
X15698486Y7735046D1*
X15686413Y7728869D1*
X15668163D1*
X15656090Y7735046D1*
X15643876Y7747119D1*
X15755951Y7777442D2*
X15828811D1*
Y7789655D1*
X15822775Y7801869D1*
X15816738Y7807905D1*
X15804525Y7813942D1*
X15786275D1*
X15774201Y7807905D1*
X15761988Y7795692D1*
X15755951Y7777442D1*
Y7765369D1*
X15761988Y7747119D1*
X15774201Y7735046D1*
X15786275Y7728869D1*
X15804525D1*
X15816738Y7735046D1*
X15828811Y7747119D1*
X15868027Y7813942D2*
Y7728869D1*
Y7777442D2*
X15874204Y7795692D1*
X15886277Y7807905D1*
X15898490Y7813942D1*
X15916740D1*
X15955956Y7777442D2*
X16028816D1*
Y7789655D1*
X16022779Y7801869D1*
X16016742Y7807905D1*
X16004529Y7813942D1*
X15986279D1*
X15974206Y7807905D1*
X15961992Y7795692D1*
X15955956Y7777442D1*
Y7765369D1*
X15961992Y7747119D1*
X15974206Y7735046D1*
X15986279Y7728869D1*
X16004529D1*
X16016742Y7735046D1*
X16028816Y7747119D1*
X15854860Y7667405D2*
X15848824Y7679478D1*
X15836610Y7691692D1*
X15824537Y7697728D1*
X15800251D1*
X15788037Y7691692D1*
X15775964Y7679478D1*
X15769787Y7667405D1*
X15763751Y7649155D1*
Y7618692D1*
X15769787Y7600582D1*
X15775964Y7588369D1*
X15788037Y7576296D1*
X15800251Y7570119D1*
X15824537D1*
X15836610Y7576296D1*
X15848824Y7588369D1*
X15854860Y7600582D1*
Y7618692D1*
X15824537D1*
X15894076Y7655192D2*
Y7570119D1*
Y7618692D2*
X15900253Y7636942D1*
X15912326Y7649155D1*
X15924539Y7655192D1*
X15942789D1*
X15982005Y7618692D2*
X16054865D1*
Y7630905D1*
X16048828Y7643119D1*
X16042792Y7649155D1*
X16030578Y7655192D1*
X16012328D1*
X16000255Y7649155D1*
X15988042Y7636942D1*
X15982005Y7618692D1*
Y7606619D1*
X15988042Y7588369D1*
X16000255Y7576296D1*
X16012328Y7570119D1*
X16030578D1*
X16042792Y7576296D1*
X16054865Y7588369D1*
X16094080Y7655192D2*
Y7570119D1*
Y7630905D2*
X16112330Y7649155D1*
X16124544Y7655192D1*
X16142653D1*
X16154867Y7649155D1*
X16160903Y7630905D1*
Y7570119D1*
X16200119Y7655192D2*
X16266942D1*
X16200119Y7570119D1*
X16266942D1*
X16306158Y7618692D2*
X16379017D1*
Y7630905D1*
X16372981Y7643119D1*
X16366944Y7649155D1*
X16354731Y7655192D1*
X16336481D1*
X16324408Y7649155D1*
X16312194Y7636942D1*
X16306158Y7618692D1*
Y7606619D1*
X16312194Y7588369D1*
X16324408Y7576296D1*
X16336481Y7570119D1*
X16354731D1*
X16366944Y7576296D1*
X16379017Y7588369D1*
X5742484Y1730155D2*
X5736447Y1742228D1*
X5724234Y1754442D1*
X5712160Y1760478D1*
X5687874D1*
X5675660Y1754442D1*
X5663587Y1742228D1*
X5657410Y1730155D1*
X5651374Y1711905D1*
Y1681442D1*
X5657410Y1663332D1*
X5663587Y1651119D1*
X5675660Y1639046D1*
X5687874Y1632869D1*
X5712160D1*
X5724234Y1639046D1*
X5736447Y1651119D1*
X5742484Y1663332D1*
X5812022Y1717942D2*
X5799949Y1711905D1*
X5787736Y1699692D1*
X5781699Y1681442D1*
Y1669369D1*
X5787736Y1651119D1*
X5799949Y1639046D1*
X5812022Y1632869D1*
X5830272D1*
X5842486Y1639046D1*
X5854559Y1651119D1*
X5860736Y1669369D1*
Y1681442D1*
X5854559Y1699692D1*
X5842486Y1711905D1*
X5830272Y1717942D1*
X5812022D1*
X5899951Y1760478D2*
Y1632869D1*
X5969490Y1717942D2*
X5957417Y1711905D1*
X5945204Y1699692D1*
X5939167Y1681442D1*
Y1669369D1*
X5945204Y1651119D1*
X5957417Y1639046D1*
X5969490Y1632869D1*
X5987740D1*
X5999954Y1639046D1*
X6012027Y1651119D1*
X6018204Y1669369D1*
Y1681442D1*
X6012027Y1699692D1*
X5999954Y1711905D1*
X5987740Y1717942D1*
X5969490D1*
X6057419D2*
Y1657155D1*
X6063456Y1639046D1*
X6075669Y1632869D1*
X6093919D1*
X6105992Y1639046D1*
X6124242Y1657155D1*
Y1717942D2*
Y1632869D1*
X6163458Y1717942D2*
Y1632869D1*
Y1681442D2*
X6169635Y1699692D1*
X6181708Y1711905D1*
X6193922Y1717942D1*
X6212172D1*
X6374834Y1696603D2*
X6445026D1*
X5768197Y1519978D2*
X5756124Y1532192D1*
X5737874Y1538228D1*
X5713587D1*
X5695337Y1532192D1*
X5683124Y1519978D1*
Y1507905D1*
X5689301Y1495692D1*
X5695337Y1489655D1*
X5707410Y1483619D1*
X5743910Y1471405D1*
X5756124Y1465369D1*
X5762160Y1459192D1*
X5768197Y1447119D1*
Y1428869D1*
X5756124Y1416796D1*
X5737874Y1410619D1*
X5713587D1*
X5695337Y1416796D1*
X5683124Y1428869D1*
X5807413Y1459192D2*
X5880272D1*
Y1471405D1*
X5874236Y1483619D1*
X5868199Y1489655D1*
X5855986Y1495692D1*
X5837736D1*
X5825663Y1489655D1*
X5813449Y1477442D1*
X5807413Y1459192D1*
Y1447119D1*
X5813449Y1428869D1*
X5825663Y1416796D1*
X5837736Y1410619D1*
X5855986D1*
X5868199Y1416796D1*
X5880272Y1428869D1*
X5919488Y1538228D2*
Y1410619D1*
X5958704Y1459192D2*
X6031563D1*
Y1471405D1*
X6025527Y1483619D1*
X6019490Y1489655D1*
X6007277Y1495692D1*
X5989027D1*
X5976954Y1489655D1*
X5964740Y1477442D1*
X5958704Y1459192D1*
Y1447119D1*
X5964740Y1428869D1*
X5976954Y1416796D1*
X5989027Y1410619D1*
X6007277D1*
X6019490Y1416796D1*
X6031563Y1428869D1*
X6143779Y1477442D2*
X6131566Y1489655D1*
X6119352Y1495692D1*
X6101242D1*
X6089029Y1489655D1*
X6076956Y1477442D1*
X6070779Y1459192D1*
Y1447119D1*
X6076956Y1428869D1*
X6089029Y1416796D1*
X6101242Y1410619D1*
X6119352D1*
X6131566Y1416796D1*
X6143779Y1428869D1*
X6201245Y1538228D2*
Y1434905D1*
X6207281Y1416796D1*
X6219495Y1410619D1*
X6231568D1*
X6182995Y1495692D2*
X6225531D1*
X1746124Y1630155D2*
X1800874D1*
X1818984Y1636192D1*
X1825160Y1642369D1*
X1831197Y1654442D1*
Y1672692D1*
X1825160Y1684765D1*
X1818984Y1690942D1*
X1800874Y1696978D1*
X1746124D1*
Y1569369D1*
X1943272Y1654442D2*
Y1569369D1*
Y1636192D2*
X1931199Y1648405D1*
X1918986Y1654442D1*
X1900876D1*
X1888663Y1648405D1*
X1876590Y1636192D1*
X1870413Y1617942D1*
Y1605869D1*
X1876590Y1587619D1*
X1888663Y1575546D1*
X1900876Y1569369D1*
X1918986D1*
X1931199Y1575546D1*
X1943272Y1587619D1*
X1982488Y1696978D2*
Y1569369D1*
X2021704Y1633103D2*
X2091896D1*
X2216185Y1678728D2*
X2204112Y1690942D1*
X2185862Y1696978D1*
X2161575D1*
X2143325Y1690942D1*
X2131112Y1678728D1*
Y1666655D1*
X2137289Y1654442D1*
X2143325Y1648405D1*
X2155398Y1642369D1*
X2191898Y1630155D1*
X2204112Y1624119D1*
X2210148Y1617942D1*
X2216185Y1605869D1*
Y1587619D1*
X2204112Y1575546D1*
X2185862Y1569369D1*
X2161575D1*
X2143325Y1575546D1*
X2131112Y1587619D1*
X2255400Y1617942D2*
X2328260D1*
Y1630155D1*
X2322224Y1642369D1*
X2316187Y1648405D1*
X2303974Y1654442D1*
X2285724D1*
X2273650Y1648405D1*
X2261437Y1636192D1*
X2255400Y1617942D1*
Y1605869D1*
X2261437Y1587619D1*
X2273650Y1575546D1*
X2285724Y1569369D1*
X2303974D1*
X2316187Y1575546D1*
X2328260Y1587619D1*
X2367476Y1696978D2*
Y1569369D1*
X2406691Y1617942D2*
X2479551D1*
Y1630155D1*
X2473514Y1642369D1*
X2467478Y1648405D1*
X2455264Y1654442D1*
X2437014D1*
X2424941Y1648405D1*
X2412728Y1636192D1*
X2406691Y1617942D1*
Y1605869D1*
X2412728Y1587619D1*
X2424941Y1575546D1*
X2437014Y1569369D1*
X2455264D1*
X2467478Y1575546D1*
X2479551Y1587619D1*
X2591767Y1636192D2*
X2579553Y1648405D1*
X2567340Y1654442D1*
X2549230D1*
X2537017Y1648405D1*
X2524944Y1636192D1*
X2518767Y1617942D1*
Y1605869D1*
X2524944Y1587619D1*
X2537017Y1575546D1*
X2549230Y1569369D1*
X2567340D1*
X2579553Y1575546D1*
X2591767Y1587619D1*
X2649232Y1696978D2*
Y1593655D1*
X2655269Y1575546D1*
X2667482Y1569369D1*
X2679555D1*
X2630982Y1654442D2*
X2673519D1*
X1744697Y1352818D2*
X1732624Y1346782D1*
X1720410Y1334568D1*
X1714374Y1316318D1*
Y1304245D1*
X1720410Y1285995D1*
X1732624Y1273922D1*
X1744697Y1267745D1*
X1762947D1*
X1775160Y1273922D1*
X1787234Y1285995D1*
X1793410Y1304245D1*
Y1316318D1*
X1787234Y1334568D1*
X1775160Y1346782D1*
X1762947Y1352818D1*
X1744697D1*
X1881199Y1395355D2*
X1869126D1*
X1856913Y1389318D1*
X1850876Y1371068D1*
Y1267745D1*
X1832626Y1352818D2*
X1875163D1*
X1968988Y1395355D2*
X1956915D1*
X1944701Y1389318D1*
X1938665Y1371068D1*
Y1267745D1*
X1920415Y1352818D2*
X1962951D1*
X2008204Y1316318D2*
X2081063D1*
Y1328532D1*
X2075027Y1340745D1*
X2068990Y1346782D1*
X2056777Y1352818D1*
X2038527D1*
X2026454Y1346782D1*
X2014240Y1334568D1*
X2008204Y1316318D1*
Y1304245D1*
X2014240Y1285995D1*
X2026454Y1273922D1*
X2038527Y1267745D1*
X2056777D1*
X2068990Y1273922D1*
X2081063Y1285995D1*
X2120279Y1352818D2*
Y1267745D1*
Y1328532D2*
X2138529Y1346782D1*
X2150742Y1352818D1*
X2168852D1*
X2181066Y1346782D1*
X2187102Y1328532D1*
Y1267745D1*
X2232495Y1352818D2*
X2226318Y1346641D1*
X2232495Y1340605D1*
X2238531Y1346641D1*
X2232495Y1352818D1*
Y1279959D2*
X2226318Y1273782D1*
X2232495Y1267745D1*
X2238531Y1273782D1*
X2232495Y1279959D1*
X2401193Y1328532D2*
X2455943D1*
X2474053Y1334568D1*
X2480230Y1340745D1*
X2486266Y1352818D1*
Y1371068D1*
X2480230Y1383141D1*
X2474053Y1389318D1*
X2455943Y1395355D1*
X2401193D1*
Y1267745D1*
X2598342Y1352818D2*
Y1267745D1*
Y1334568D2*
X2586269Y1346782D1*
X2574055Y1352818D1*
X2555946D1*
X2543732Y1346782D1*
X2531659Y1334568D1*
X2525482Y1316318D1*
Y1304245D1*
X2531659Y1285995D1*
X2543732Y1273922D1*
X2555946Y1267745D1*
X2574055D1*
X2586269Y1273922D1*
X2598342Y1285995D1*
X2637557Y1395355D2*
Y1267745D1*
X1771360Y1140405D2*
Y1043119D1*
X1765324Y1025009D1*
X1759287Y1018832D1*
X1747074Y1012796D1*
X1728824D1*
X1716751Y1018832D1*
X1771360Y1122155D2*
X1759287Y1134228D1*
X1747074Y1140405D1*
X1728824D1*
X1716751Y1134228D1*
X1704537Y1122155D1*
X1698501Y1103905D1*
Y1091692D1*
X1704537Y1073582D1*
X1716751Y1061369D1*
X1728824Y1055332D1*
X1747074D1*
X1759287Y1061369D1*
X1771360Y1073582D1*
X1810576Y1109942D2*
X1883436D1*
Y1122155D1*
X1877399Y1134369D1*
X1871362Y1140405D1*
X1859149Y1146442D1*
X1840899D1*
X1828826Y1140405D1*
X1816612Y1128192D1*
X1810576Y1109942D1*
Y1097869D1*
X1816612Y1079619D1*
X1828826Y1067546D1*
X1840899Y1061369D1*
X1859149D1*
X1871362Y1067546D1*
X1883436Y1079619D1*
X1989474Y1128192D2*
X1983438Y1140405D1*
X1965188Y1146442D1*
X1946938D1*
X1928688Y1140405D1*
X1922651Y1128192D1*
X1928688Y1116119D1*
X1940901Y1109942D1*
X1971224Y1103905D1*
X1983438Y1097869D1*
X1989474Y1085655D1*
Y1079619D1*
X1983438Y1067546D1*
X1965188Y1061369D1*
X1946938D1*
X1928688Y1067546D1*
X1922651Y1079619D1*
X2101690Y1128192D2*
X2089476Y1140405D1*
X2077263Y1146442D1*
X2059153D1*
X2046940Y1140405D1*
X2034867Y1128192D1*
X2028690Y1109942D1*
Y1097869D1*
X2034867Y1079619D1*
X2046940Y1067546D1*
X2059153Y1061369D1*
X2077263D1*
X2089476Y1067546D1*
X2101690Y1079619D1*
X2140906Y1188978D2*
Y1061369D1*
Y1122155D2*
X2159156Y1140405D1*
X2171369Y1146442D1*
X2189619D1*
X2201692Y1140405D1*
X2207729Y1122155D1*
Y1061369D1*
X2246944Y1188978D2*
Y1061369D1*
X2316483Y1146442D2*
X2304410Y1140405D1*
X2292197Y1128192D1*
X2286160Y1109942D1*
Y1097869D1*
X2292197Y1079619D1*
X2304410Y1067546D1*
X2316483Y1061369D1*
X2334733D1*
X2346947Y1067546D1*
X2359020Y1079619D1*
X2365197Y1097869D1*
Y1109942D1*
X2359020Y1128192D1*
X2346947Y1140405D1*
X2334733Y1146442D1*
X2316483D1*
X2471235Y1128192D2*
X2465199Y1140405D1*
X2446949Y1146442D1*
X2428699D1*
X2410449Y1140405D1*
X2404412Y1128192D1*
X2410449Y1116119D1*
X2422662Y1109942D1*
X2452985Y1103905D1*
X2465199Y1097869D1*
X2471235Y1085655D1*
Y1079619D1*
X2465199Y1067546D1*
X2446949Y1061369D1*
X2428699D1*
X2410449Y1067546D1*
X2404412Y1079619D1*
X2577274Y1128192D2*
X2571238Y1140405D1*
X2552988Y1146442D1*
X2534738D1*
X2516488Y1140405D1*
X2510451Y1128192D1*
X2516488Y1116119D1*
X2528701Y1109942D1*
X2559024Y1103905D1*
X2571238Y1097869D1*
X2577274Y1085655D1*
Y1079619D1*
X2571238Y1067546D1*
X2552988Y1061369D1*
X2534738D1*
X2516488Y1067546D1*
X2510451Y1079619D1*
X2616490Y1109942D2*
X2689349D1*
Y1122155D1*
X2683313Y1134369D1*
X2677276Y1140405D1*
X2665063Y1146442D1*
X2646813D1*
X2634740Y1140405D1*
X2622526Y1128192D1*
X2616490Y1109942D1*
Y1097869D1*
X2622526Y1079619D1*
X2634740Y1067546D1*
X2646813Y1061369D1*
X2665063D1*
X2677276Y1067546D1*
X2689349Y1079619D1*
X2728565Y1146442D2*
Y1061369D1*
Y1122155D2*
X2746815Y1140405D1*
X2759029Y1146442D1*
X2777138D1*
X2789352Y1140405D1*
X2795388Y1122155D1*
Y1061369D1*
X2840781Y1146442D2*
X2834604Y1140265D1*
X2840781Y1134228D1*
X2846817Y1140265D1*
X2840781Y1146442D1*
Y1073582D2*
X2834604Y1067405D1*
X2840781Y1061369D1*
X2846817Y1067405D1*
X2840781Y1073582D1*
X3094553Y1188978D2*
Y1061369D1*
X3009480Y1188978D1*
Y1061369D1*
X3176305Y1188978D2*
Y1061369D1*
X3133768Y1188978D2*
X3218841D1*
X3343130Y1170728D2*
X3331057Y1182942D1*
X3312807Y1188978D1*
X3288520D1*
X3270270Y1182942D1*
X3258057Y1170728D1*
Y1158655D1*
X3264234Y1146442D1*
X3270270Y1140405D1*
X3282344Y1134369D1*
X3318844Y1122155D1*
X3331057Y1116119D1*
X3337094Y1109942D1*
X3343130Y1097869D1*
Y1079619D1*
X3331057Y1067546D1*
X3312807Y1061369D1*
X3288520D1*
X3270270Y1067546D1*
X3258057Y1079619D1*
X3473455Y1158655D2*
X3467419Y1170728D1*
X3455205Y1182942D1*
X3443132Y1188978D1*
X3418846D1*
X3406632Y1182942D1*
X3394559Y1170728D1*
X3388382Y1158655D1*
X3382346Y1140405D1*
Y1109942D1*
X3388382Y1091832D1*
X3394559Y1079619D1*
X3406632Y1067546D1*
X3418846Y1061369D1*
X3443132D1*
X3455205Y1067546D1*
X3467419Y1079619D1*
X3473455Y1091832D1*
X3666441Y1146442D2*
X3654368Y1140405D1*
X3642154Y1128192D1*
X3636118Y1109942D1*
Y1097869D1*
X3642154Y1079619D1*
X3654368Y1067546D1*
X3666441Y1061369D1*
X3684691D1*
X3696904Y1067546D1*
X3708977Y1079619D1*
X3715154Y1097869D1*
Y1109942D1*
X3708977Y1128192D1*
X3696904Y1140405D1*
X3684691Y1146442D1*
X3666441D1*
X3827229Y1188978D2*
Y1061369D1*
Y1128192D2*
X3815156Y1140405D1*
X3802943Y1146442D1*
X3784693D1*
X3772620Y1140405D1*
X3760406Y1128192D1*
X3754370Y1109942D1*
Y1097869D1*
X3760406Y1079619D1*
X3772620Y1067546D1*
X3784693Y1061369D1*
X3802943D1*
X3815156Y1067546D1*
X3827229Y1079619D1*
X3866445Y1109942D2*
X3939305D1*
Y1122155D1*
X3933268Y1134369D1*
X3927232Y1140405D1*
X3915018Y1146442D1*
X3896768D1*
X3884695Y1140405D1*
X3872482Y1128192D1*
X3866445Y1109942D1*
Y1097869D1*
X3872482Y1079619D1*
X3884695Y1067546D1*
X3896768Y1061369D1*
X3915018D1*
X3927232Y1067546D1*
X3939305Y1079619D1*
X3978520Y1146442D2*
Y1061369D1*
Y1109942D2*
X3984697Y1128192D1*
X3996770Y1140405D1*
X4008984Y1146442D1*
X4027234D1*
X4256719Y1128192D2*
X4250683Y1140405D1*
X4232433Y1146442D1*
X4214183D1*
X4195933Y1140405D1*
X4189896Y1128192D1*
X4195933Y1116119D1*
X4208146Y1109942D1*
X4238469Y1103905D1*
X4250683Y1097869D1*
X4256719Y1085655D1*
Y1079619D1*
X4250683Y1067546D1*
X4232433Y1061369D1*
X4214183D1*
X4195933Y1067546D1*
X4189896Y1079619D1*
X4295935Y1061369D2*
X4381008Y1188838D1*
X4420224Y1146442D2*
X4444510Y1061369D1*
X4468797Y1146442D1*
X4493083Y1061369D1*
X4517370Y1146442D1*
X1203660Y3442619D2*
Y3570088D1*
X1142874Y3485155D1*
X1233984D1*
X1285413Y3448655D2*
X1279236Y3442619D1*
X1273199Y3448655D1*
X1279236Y3454832D1*
X1285413Y3448655D1*
Y3436582D1*
X1279236Y3424369D1*
X1273199Y3418332D1*
X1385415Y3442619D2*
Y3570088D1*
X1324628Y3485155D1*
X1415738D1*
X1467167Y3570088D2*
X1533850D1*
X1497490Y3521515D1*
X1515740D1*
X1527813Y3515478D1*
X1533850Y3509442D1*
X1540027Y3491192D1*
Y3479119D1*
X1533850Y3460869D1*
X1521777Y3448655D1*
X1503527Y3442619D1*
X1485277D1*
X1467167Y3448655D1*
X1461131Y3454832D1*
X1454954Y3466905D1*
X1271770Y3204495D2*
Y3332105D1*
X1223197Y3204495D1*
X1174624Y3332105D1*
Y3204495D1*
X1310986Y3332105D2*
Y3204495D1*
X1396059Y3332105D2*
Y3204495D1*
X1310986Y3271318D2*
X1396059D1*
X1435275Y3289568D2*
X1502098D1*
X1435275Y3204495D1*
X1502098D1*
X1170964Y4363838D2*
X1237647D1*
X1201287Y4315265D1*
X1219537D1*
X1231610Y4309228D1*
X1237647Y4303192D1*
X1243824Y4284942D1*
Y4272869D1*
X1237647Y4254619D1*
X1225574Y4242405D1*
X1207324Y4236369D1*
X1189074D1*
X1170964Y4242405D1*
X1164928Y4248582D1*
X1158751Y4260655D1*
X1319539Y4363838D2*
X1301289Y4357801D1*
X1289076Y4339551D1*
X1283039Y4309228D1*
Y4290978D1*
X1289076Y4260655D1*
X1301289Y4242405D1*
X1319539Y4236369D1*
X1331612D1*
X1349862Y4242405D1*
X1361936Y4260655D1*
X1368112Y4290978D1*
Y4309228D1*
X1361936Y4339551D1*
X1349862Y4357801D1*
X1331612Y4363838D1*
X1319539D1*
X1361936Y4339551D2*
X1289076Y4260655D1*
X1407328Y4321442D2*
Y4193832D1*
Y4303192D2*
X1419542Y4315265D1*
X1431615Y4321442D1*
X1449865D1*
X1462078Y4315265D1*
X1474151Y4303192D1*
X1480328Y4284942D1*
Y4272728D1*
X1474151Y4254619D1*
X1462078Y4242405D1*
X1449865Y4236369D1*
X1431615D1*
X1419542Y4242405D1*
X1407328Y4254619D1*
X1598580Y4363978D2*
X1519544D1*
Y4236369D1*
Y4303192D2*
X1568117D1*
X1252714Y10257910D2*
Y10185050D1*
X1222251Y10239800D2*
X1283037Y10203300D1*
Y10239800D2*
X1222251Y10203300D1*
X1322253Y10318626D2*
X1334466Y10306553D1*
X1346539Y10288303D1*
X1358753Y10264016D1*
X1364789Y10233553D1*
Y10209266D1*
X1358753Y10178943D1*
X1346539Y10154657D1*
X1334466Y10136407D1*
X1322253Y10124334D1*
X1527451Y10206318D2*
X1600311D1*
Y10218532D1*
X1594275Y10230745D1*
X1588238Y10236782D1*
X1576025Y10242818D1*
X1557775D1*
X1545701Y10236782D1*
X1533488Y10224568D1*
X1527451Y10206318D1*
Y10194245D1*
X1533488Y10175995D1*
X1545701Y10163922D1*
X1557775Y10157745D1*
X1576025D1*
X1588238Y10163922D1*
X1600311Y10175995D1*
X1639527Y10242818D2*
X1676027Y10157745D1*
X1712386Y10242818D1*
X1751602D2*
Y10157745D1*
Y10218532D2*
X1769852Y10236782D1*
X1782066Y10242818D1*
X1800175D1*
X1812389Y10236782D1*
X1818425Y10218532D1*
Y10157745D1*
X1875891Y10285355D2*
Y10182032D1*
X1881927Y10163922D1*
X1894141Y10157745D1*
X1906214D1*
X1857641Y10242818D2*
X1900177D1*
X1951466Y10169959D2*
X1945430Y10163782D1*
X1951466Y10157745D1*
X1957643Y10163782D1*
X1951466Y10169959D1*
X2120305Y10218532D2*
X2175055D1*
X2193165Y10224568D1*
X2199342Y10230745D1*
X2205378Y10242818D1*
Y10261068D1*
X2199342Y10273141D1*
X2193165Y10279318D1*
X2175055Y10285355D1*
X2120305D1*
Y10157745D1*
X2274917Y10242818D2*
X2262844Y10236782D1*
X2250631Y10224568D1*
X2244594Y10206318D1*
Y10194245D1*
X2250631Y10175995D1*
X2262844Y10163922D1*
X2274917Y10157745D1*
X2293167D1*
X2305381Y10163922D1*
X2317454Y10175995D1*
X2323631Y10194245D1*
Y10206318D1*
X2317454Y10224568D1*
X2305381Y10236782D1*
X2293167Y10242818D1*
X2274917D1*
X2381096Y10285355D2*
Y10182032D1*
X2387133Y10163922D1*
X2399346Y10157745D1*
X2411419D1*
X2362846Y10242818D2*
X2405383D1*
X2450635Y10285355D2*
X2456672Y10279318D1*
X2462848Y10285355D1*
X2456672Y10291532D1*
X2450635Y10285355D1*
X2456672Y10242818D2*
Y10157745D1*
X1344160Y10064626D2*
X1331947Y10052553D1*
X1319874Y10034303D1*
X1307660Y10010016D1*
X1301624Y9979553D1*
Y9955266D1*
X1307660Y9924943D1*
X1319874Y9900657D1*
X1331947Y9882407D1*
X1344160Y9870334D1*
X1450199Y9970568D2*
X1444163Y9982782D1*
X1425913Y9988818D1*
X1407663D1*
X1389413Y9982782D1*
X1383376Y9970568D1*
X1389413Y9958495D1*
X1401626Y9952318D1*
X1431949Y9946282D1*
X1444163Y9940245D1*
X1450199Y9928032D1*
Y9921995D1*
X1444163Y9909922D1*
X1425913Y9903745D1*
X1407663D1*
X1389413Y9909922D1*
X1383376Y9921995D1*
X1489415Y10031355D2*
X1495451Y10025318D1*
X1501628Y10031355D1*
X1495451Y10037532D1*
X1489415Y10031355D1*
X1495451Y9988818D2*
Y9903745D1*
X1540844Y9952318D2*
X1613704D1*
Y9964532D1*
X1607667Y9976745D1*
X1601631Y9982782D1*
X1589417Y9988818D1*
X1571167D1*
X1559094Y9982782D1*
X1546881Y9970568D1*
X1540844Y9952318D1*
Y9940245D1*
X1546881Y9921995D1*
X1559094Y9909922D1*
X1571167Y9903745D1*
X1589417D1*
X1601631Y9909922D1*
X1613704Y9921995D1*
X1652919Y10031355D2*
Y9903745D1*
Y9964532D2*
X1671169Y9982782D1*
X1683383Y9988818D1*
X1701633D1*
X1713706Y9982782D1*
X1719742Y9964532D1*
Y9903745D1*
X1758958Y9952318D2*
X1831818D1*
Y9964532D1*
X1825781Y9976745D1*
X1819745Y9982782D1*
X1807531Y9988818D1*
X1789281D1*
X1777208Y9982782D1*
X1764995Y9970568D1*
X1758958Y9952318D1*
Y9940245D1*
X1764995Y9921995D1*
X1777208Y9909922D1*
X1789281Y9903745D1*
X1807531D1*
X1819745Y9909922D1*
X1831818Y9921995D1*
X2037016Y10031355D2*
Y9903745D1*
X1994480Y10031355D2*
X2079553D1*
X2118769Y9952318D2*
X2191628D1*
Y9964532D1*
X2185592Y9976745D1*
X2179555Y9982782D1*
X2167342Y9988818D1*
X2149092D1*
X2137019Y9982782D1*
X2124805Y9970568D1*
X2118769Y9952318D1*
Y9940245D1*
X2124805Y9921995D1*
X2137019Y9909922D1*
X2149092Y9903745D1*
X2167342D1*
X2179555Y9909922D1*
X2191628Y9921995D1*
X2230844Y9988818D2*
X2297667Y9903745D1*
Y9988818D2*
X2230844Y9903745D1*
X2355133Y10031355D2*
Y9928032D1*
X2361169Y9909922D1*
X2373383Y9903745D1*
X2385456D1*
X2336883Y9988818D2*
X2379419D1*
X2424671Y10064626D2*
X2436885Y10052553D1*
X2448958Y10034303D1*
X2461171Y10010016D1*
X2467208Y9979553D1*
Y9955266D1*
X2461171Y9924943D1*
X2448958Y9900657D1*
X2436885Y9882407D1*
X2424671Y9870334D1*
X6129414Y10854762D2*
X6184024D1*
X6202274Y10860939D1*
X6208450Y10866975D1*
X6214487Y10879048D1*
Y10891262D1*
X6208450Y10903335D1*
X6202274Y10909512D1*
X6184024Y10915548D1*
X6129414D1*
Y10787939D1*
X6171950Y10854762D2*
X6214487Y10787939D1*
X6344812Y10885225D2*
X6338776Y10897298D1*
X6326562Y10909512D1*
X6314489Y10915548D1*
X6290203D1*
X6277989Y10909512D1*
X6265916Y10897298D1*
X6259739Y10885225D1*
X6253703Y10866975D1*
Y10836512D1*
X6259739Y10818402D1*
X6265916Y10806189D1*
X6277989Y10794116D1*
X6290203Y10787939D1*
X6314489D1*
X6326562Y10794116D1*
X6338776Y10806189D1*
X6344812Y10818402D1*
Y10836512D1*
X6314489D1*
X6384028Y10915548D2*
Y10787939D1*
X6438778D1*
X6457028Y10794116D1*
X6463065Y10800152D1*
X6469101Y10812225D1*
Y10830475D1*
X6463065Y10842689D1*
X6457028Y10848725D1*
X6438778Y10854762D1*
X6457028Y10860939D1*
X6463065Y10866975D1*
X6469101Y10879048D1*
Y10891262D1*
X6463065Y10903335D1*
X6457028Y10909512D1*
X6438778Y10915548D1*
X6384028D1*
Y10854762D2*
X6438778D1*
X6397501Y10015478D2*
Y9887869D1*
X6452251D1*
X6470501Y9894046D1*
X6476537Y9900082D1*
X6482574Y9912155D1*
Y9930405D1*
X6476537Y9942619D1*
X6470501Y9948655D1*
X6452251Y9954692D1*
X6470501Y9960869D1*
X6476537Y9966905D1*
X6482574Y9978978D1*
Y9991192D1*
X6476537Y10003265D1*
X6470501Y10009442D1*
X6452251Y10015478D1*
X6397501D1*
Y9954692D2*
X6452251D1*
X6521789Y9972942D2*
Y9887869D1*
Y9936442D2*
X6527966Y9954692D1*
X6540039Y9966905D1*
X6552253Y9972942D1*
X6570503D1*
X7286501Y9555105D2*
Y9427495D1*
X7341251D1*
X7359501Y9433672D1*
X7365537Y9439709D1*
X7371574Y9451782D1*
Y9470032D1*
X7365537Y9482245D1*
X7359501Y9488282D1*
X7341251Y9494318D1*
X7359501Y9500495D1*
X7365537Y9506532D1*
X7371574Y9518605D1*
Y9530818D1*
X7365537Y9542891D1*
X7359501Y9549068D1*
X7341251Y9555105D1*
X7286501D1*
Y9494318D2*
X7341251D1*
X7410789Y9512568D2*
Y9427495D1*
Y9476068D2*
X7416966Y9494318D1*
X7429039Y9506532D1*
X7441253Y9512568D1*
X7459503D1*
X8937501Y10475855D2*
Y10348245D1*
X8992251D1*
X9010501Y10354422D1*
X9016537Y10360459D1*
X9022574Y10372532D1*
Y10390782D1*
X9016537Y10402995D1*
X9010501Y10409032D1*
X8992251Y10415068D1*
X9010501Y10421245D1*
X9016537Y10427282D1*
X9022574Y10439355D1*
Y10451568D1*
X9016537Y10463641D1*
X9010501Y10469818D1*
X8992251Y10475855D1*
X8937501D1*
Y10415068D2*
X8992251D1*
X9061789Y10433318D2*
Y10348245D1*
Y10396818D2*
X9067966Y10415068D1*
X9080039Y10427282D1*
X9092253Y10433318D1*
X9110503D1*
X9175627Y9142355D2*
Y9014745D1*
X9230377D1*
X9248627Y9020922D1*
X9254664Y9026959D1*
X9260700Y9039032D1*
Y9057282D1*
X9254664Y9069495D1*
X9248627Y9075532D1*
X9230377Y9081568D1*
X9248627Y9087745D1*
X9254664Y9093782D1*
X9260700Y9105855D1*
Y9118068D1*
X9254664Y9130141D1*
X9248627Y9136318D1*
X9230377Y9142355D1*
X9175627D1*
Y9081568D2*
X9230377D1*
X9299916Y9099818D2*
Y9014745D1*
Y9063318D2*
X9306093Y9081568D1*
X9318166Y9093782D1*
X9330379Y9099818D1*
X9348629D1*
X9921751Y10459978D2*
Y10332369D1*
X9976501D1*
X9994751Y10338546D1*
X10000787Y10344582D1*
X10006824Y10356655D1*
Y10374905D1*
X10000787Y10387119D1*
X9994751Y10393155D1*
X9976501Y10399192D1*
X9994751Y10405369D1*
X10000787Y10411405D1*
X10006824Y10423478D1*
Y10435692D1*
X10000787Y10447765D1*
X9994751Y10453942D1*
X9976501Y10459978D1*
X9921751D1*
Y10399192D2*
X9976501D1*
X10046039Y10417442D2*
Y10332369D1*
Y10380942D2*
X10052216Y10399192D1*
X10064289Y10411405D1*
X10076503Y10417442D1*
X10094753D1*
X10588501Y10459978D2*
Y10332369D1*
X10643251D1*
X10661501Y10338546D1*
X10667537Y10344582D1*
X10673574Y10356655D1*
Y10374905D1*
X10667537Y10387119D1*
X10661501Y10393155D1*
X10643251Y10399192D1*
X10661501Y10405369D1*
X10667537Y10411405D1*
X10673574Y10423478D1*
Y10435692D1*
X10667537Y10447765D1*
X10661501Y10453942D1*
X10643251Y10459978D1*
X10588501D1*
Y10399192D2*
X10643251D1*
X10712789Y10417442D2*
Y10332369D1*
Y10380942D2*
X10718966Y10399192D1*
X10731039Y10411405D1*
X10743253Y10417442D1*
X10761503D1*
X7334127Y7110355D2*
Y6982745D1*
X7388877D1*
X7407127Y6988922D1*
X7413164Y6994959D1*
X7419200Y7007032D1*
Y7025282D1*
X7413164Y7037495D1*
X7407127Y7043532D1*
X7388877Y7049568D1*
X7407127Y7055745D1*
X7413164Y7061782D1*
X7419200Y7073855D1*
Y7086068D1*
X7413164Y7098141D1*
X7407127Y7104318D1*
X7388877Y7110355D1*
X7334127D1*
Y7049568D2*
X7388877D1*
X7458416Y7067818D2*
Y6982745D1*
Y7031318D2*
X7464593Y7049568D1*
X7476666Y7061782D1*
X7488879Y7067818D1*
X7507129D1*
X9112131Y5141858D2*
Y5014249D1*
X9166881D1*
X9185131Y5020426D1*
X9191167Y5026462D1*
X9197204Y5038535D1*
Y5056785D1*
X9191167Y5068999D1*
X9185131Y5075035D1*
X9166881Y5081072D1*
X9185131Y5087249D1*
X9191167Y5093285D1*
X9197204Y5105358D1*
Y5117572D1*
X9191167Y5129645D1*
X9185131Y5135822D1*
X9166881Y5141858D1*
X9112131D1*
Y5081072D2*
X9166881D1*
X9236419Y5099322D2*
Y5014249D1*
Y5062822D2*
X9242596Y5081072D1*
X9254669Y5093285D1*
X9266883Y5099322D1*
X9285133D1*
X5016381Y3427358D2*
Y3299749D1*
X5071131D1*
X5089381Y3305926D1*
X5095417Y3311962D1*
X5101454Y3324035D1*
Y3342285D1*
X5095417Y3354499D1*
X5089381Y3360535D1*
X5071131Y3366572D1*
X5089381Y3372749D1*
X5095417Y3378785D1*
X5101454Y3390858D1*
Y3403072D1*
X5095417Y3415145D1*
X5089381Y3421322D1*
X5071131Y3427358D1*
X5016381D1*
Y3366572D2*
X5071131D1*
X5140669Y3384822D2*
Y3299749D1*
Y3348322D2*
X5146846Y3366572D1*
X5158919Y3378785D1*
X5171133Y3384822D1*
X5189383D1*
X9001007Y7967608D2*
Y7839999D1*
X9055757D1*
X9074007Y7846176D1*
X9080044Y7852212D1*
X9086080Y7864285D1*
Y7882535D1*
X9080044Y7894749D1*
X9074007Y7900785D1*
X9055757Y7906822D1*
X9074007Y7912999D1*
X9080044Y7919035D1*
X9086080Y7931108D1*
Y7943322D1*
X9080044Y7955395D1*
X9074007Y7961572D1*
X9055757Y7967608D1*
X9001007D1*
Y7906822D2*
X9055757D1*
X9125296Y7925072D2*
Y7839999D1*
Y7888572D2*
X9131473Y7906822D1*
X9143546Y7919035D1*
X9155759Y7925072D1*
X9174009D1*
X12398257Y6332485D2*
Y6204875D1*
X12453007D1*
X12471257Y6211052D1*
X12477294Y6217089D1*
X12483330Y6229162D1*
Y6247412D1*
X12477294Y6259625D1*
X12471257Y6265662D1*
X12453007Y6271698D1*
X12471257Y6277875D1*
X12477294Y6283912D1*
X12483330Y6295985D1*
Y6308198D1*
X12477294Y6320271D1*
X12471257Y6326448D1*
X12453007Y6332485D1*
X12398257D1*
Y6271698D2*
X12453007D1*
X12522546Y6289948D2*
Y6204875D1*
Y6253448D2*
X12528723Y6271698D1*
X12540796Y6283912D1*
X12553009Y6289948D1*
X12571259D1*
X9506287Y5553995D2*
Y5681465D1*
X9445501Y5596532D1*
X9536610D1*
X9575826Y5639068D2*
X9642649Y5553995D1*
Y5639068D2*
X9575826Y5553995D1*
X9805311Y5681605D2*
Y5553995D1*
X9878171D1*
X9996283Y5681605D2*
X9917386D1*
Y5553995D1*
X9996283D1*
X9917386Y5620818D2*
X9965959D1*
X10035498Y5681605D2*
Y5553995D1*
X10078035D1*
X10096285Y5560172D1*
X10108498Y5572245D1*
X10114535Y5584459D1*
X10120571Y5602568D1*
Y5633032D1*
X10114535Y5651282D1*
X10108498Y5663355D1*
X10096285Y5675568D1*
X10078035Y5681605D1*
X10035498D1*
X14668037Y4379855D2*
X14589001D1*
Y4252245D1*
Y4319068D2*
X14637574D1*
X14707253Y4379855D2*
X14713289Y4373818D1*
X14719466Y4379855D1*
X14713289Y4386032D1*
X14707253Y4379855D1*
X14713289Y4337318D2*
Y4252245D1*
X14758682Y4379855D2*
Y4252245D1*
X14816148Y4379855D2*
Y4276532D1*
X14822184Y4258422D1*
X14834398Y4252245D1*
X14846471D1*
X14797898Y4337318D2*
X14840434D1*
X14885686Y4300818D2*
X14958546D1*
Y4313032D1*
X14952509Y4325245D1*
X14946473Y4331282D1*
X14934259Y4337318D1*
X14916009D1*
X14903936Y4331282D1*
X14891723Y4319068D1*
X14885686Y4300818D1*
Y4288745D1*
X14891723Y4270495D1*
X14903936Y4258422D1*
X14916009Y4252245D1*
X14934259D1*
X14946473Y4258422D1*
X14958546Y4270495D1*
X14997762Y4337318D2*
Y4252245D1*
Y4300818D2*
X15003939Y4319068D1*
X15016012Y4331282D1*
X15028225Y4337318D1*
X15046475D1*
X15128227Y4413126D2*
X15116014Y4401053D1*
X15103941Y4382803D1*
X15091727Y4358516D1*
X15085691Y4328053D1*
Y4303766D1*
X15091727Y4273443D1*
X15103941Y4249157D1*
X15116014Y4230907D1*
X15128227Y4218834D1*
X15167443Y4379855D2*
Y4252245D1*
Y4319068D2*
X15179657Y4331282D1*
X15191730Y4337318D1*
X15209980D1*
X15222053Y4331282D1*
X15234266Y4319068D1*
X15240303Y4300818D1*
Y4288745D1*
X15234266Y4270495D1*
X15222053Y4258422D1*
X15209980Y4252245D1*
X15191730D1*
X15179657Y4258422D1*
X15167443Y4270495D1*
X15279518Y4379855D2*
Y4252245D1*
X15391594Y4337318D2*
Y4252245D1*
Y4319068D2*
X15379521Y4331282D1*
X15367307Y4337318D1*
X15349198D1*
X15336984Y4331282D1*
X15324911Y4319068D1*
X15318734Y4300818D1*
Y4288745D1*
X15324911Y4270495D1*
X15336984Y4258422D1*
X15349198Y4252245D1*
X15367307D1*
X15379521Y4258422D1*
X15391594Y4270495D1*
X15430809Y4337318D2*
Y4276532D1*
X15436846Y4258422D1*
X15449059Y4252245D1*
X15467309D1*
X15479382Y4258422D1*
X15497632Y4276532D1*
Y4337318D2*
Y4252245D1*
X15536848Y4413126D2*
X15549062Y4401053D1*
X15561135Y4382803D1*
X15573348Y4358516D1*
X15579385Y4328053D1*
Y4303766D1*
X15573348Y4273443D1*
X15561135Y4249157D1*
X15549062Y4230907D1*
X15536848Y4218834D1*
X14700124Y4101428D2*
X14712337Y4107605D1*
X14730587Y4125715D1*
Y3998245D1*
X14806303Y4125715D2*
X14788053Y4119678D1*
X14775840Y4101428D1*
X14769803Y4071105D1*
Y4052855D1*
X14775840Y4022532D1*
X14788053Y4004282D1*
X14806303Y3998245D1*
X14818376D1*
X14836626Y4004282D1*
X14848699Y4022532D1*
X14854876Y4052855D1*
Y4071105D1*
X14848699Y4101428D1*
X14836626Y4119678D1*
X14818376Y4125715D1*
X14806303D1*
X14848699Y4101428D2*
X14775840Y4022532D1*
X14906305Y4004282D2*
X14900128Y3998245D1*
X14894092Y4004282D1*
X14900128Y4010459D1*
X14906305Y4004282D1*
Y3992209D1*
X14900128Y3979995D1*
X14894092Y3973959D1*
X14969808Y3998245D2*
X15030594Y4125715D1*
X14945521D1*
X15166956Y3998245D2*
Y4125855D1*
X15118383Y3998245D1*
X15069810Y4125855D1*
Y3998245D1*
X15206172Y4125855D2*
Y3998245D1*
X15291245Y4125855D2*
Y3998245D1*
X15206172Y4065068D2*
X15291245D1*
X15330460Y4083318D2*
X15397283D1*
X15330460Y3998245D1*
X15397283D1*
X16811501Y3998855D2*
Y3871245D1*
X16866251D1*
X16884501Y3877422D1*
X16890537Y3883459D1*
X16896574Y3895532D1*
Y3913782D1*
X16890537Y3925995D1*
X16884501Y3932032D1*
X16866251Y3938068D1*
X16884501Y3944245D1*
X16890537Y3950282D1*
X16896574Y3962355D1*
Y3974568D1*
X16890537Y3986641D1*
X16884501Y3992818D1*
X16866251Y3998855D1*
X16811501D1*
Y3938068D2*
X16866251D1*
X17033076Y3871245D2*
X16984362Y3998855D1*
X16935789Y3871245D1*
X16954039Y3913782D2*
X17014826D1*
X17157365Y3980605D2*
X17145292Y3992818D1*
X17127042Y3998855D1*
X17102755D1*
X17084505Y3992818D1*
X17072292Y3980605D1*
Y3968532D1*
X17078468Y3956318D1*
X17084505Y3950282D1*
X17096578Y3944245D1*
X17133078Y3932032D1*
X17145292Y3925995D1*
X17151328Y3919818D1*
X17157365Y3907745D1*
Y3889495D1*
X17145292Y3877422D1*
X17127042Y3871245D1*
X17102755D1*
X17084505Y3877422D1*
X17072292Y3889495D1*
X16605124Y3728978D2*
X16653697Y3601369D1*
X16702270Y3728978D1*
X16741486D2*
X16747522Y3722942D1*
X16753699Y3728978D1*
X16747522Y3735155D1*
X16741486Y3728978D1*
X16747522Y3686442D2*
Y3601369D1*
X16865775Y3728978D2*
Y3601369D1*
Y3668192D2*
X16853701Y3680405D1*
X16841488Y3686442D1*
X16823238D1*
X16811165Y3680405D1*
X16798951Y3668192D1*
X16792915Y3649942D1*
Y3637869D1*
X16798951Y3619619D1*
X16811165Y3607546D1*
X16823238Y3601369D1*
X16841488D1*
X16853701Y3607546D1*
X16865775Y3619619D1*
X16904990Y3649942D2*
X16977850D1*
Y3662155D1*
X16971813Y3674369D1*
X16965777Y3680405D1*
X16953563Y3686442D1*
X16935313D1*
X16923240Y3680405D1*
X16911027Y3668192D1*
X16904990Y3649942D1*
Y3637869D1*
X16911027Y3619619D1*
X16923240Y3607546D1*
X16935313Y3601369D1*
X16953563D1*
X16965777Y3607546D1*
X16977850Y3619619D1*
X17047389Y3686442D2*
X17035316Y3680405D1*
X17023102Y3668192D1*
X17017066Y3649942D1*
Y3637869D1*
X17023102Y3619619D1*
X17035316Y3607546D1*
X17047389Y3601369D1*
X17065639D1*
X17077852Y3607546D1*
X17089925Y3619619D1*
X17096102Y3637869D1*
Y3649942D1*
X17089925Y3668192D1*
X17077852Y3680405D1*
X17065639Y3686442D1*
X17047389D1*
X17135318Y3665103D2*
X17205510D1*
X17244726Y3728978D2*
Y3601369D1*
X17283941Y3686442D2*
Y3601369D1*
Y3662155D2*
X17302191Y3680405D1*
X17314405Y3686442D1*
X17332514D1*
X17344728Y3680405D1*
X17350764Y3662155D1*
Y3601369D1*
X3545208Y3533238D2*
X3672818D1*
X3575532Y3663563D2*
X3563459Y3657526D1*
X3551245Y3645313D1*
X3545209Y3633240D1*
Y3608953D1*
X3551245Y3596740D1*
X3563459Y3584667D1*
X3575532Y3578490D1*
X3593782Y3572453D1*
X3624245D1*
X3642355Y3578490D1*
X3654568Y3584667D1*
X3666641Y3596740D1*
X3672818Y3608953D1*
Y3633240D1*
X3666641Y3645313D1*
X3654568Y3657526D1*
X3642355Y3663563D1*
X3587745Y3781815D2*
X3605995Y3775638D1*
X3618209Y3763565D1*
X3624245Y3745315D1*
Y3739278D1*
X3618209Y3721028D1*
X3605995Y3708955D1*
X3587745Y3702778D1*
X3581709D1*
X3563459Y3708955D1*
X3551385Y3721028D1*
X3545349Y3739278D1*
Y3745315D1*
X3551385Y3763565D1*
X3563459Y3775638D1*
X3587745Y3781815D1*
X3618209D1*
X3648532Y3775638D1*
X3666782Y3763565D1*
X3672818Y3745315D1*
Y3733242D1*
X3666782Y3714992D1*
X3654568Y3708955D1*
X3883538Y3419660D2*
X3755929D1*
X3883538Y3371087D1*
X3755928Y3322514D1*
X3883538D1*
X3786252Y3549985D2*
X3774179Y3543949D1*
X3761965Y3531736D1*
X3755929Y3519662D1*
Y3495376D1*
X3761965Y3483162D1*
X3774179Y3471089D1*
X3786252Y3464912D1*
X3804502Y3458876D1*
X3834965D1*
X3853075Y3464912D1*
X3865288Y3471089D1*
X3877361Y3483162D1*
X3883538Y3495376D1*
Y3519662D1*
X3877361Y3531735D1*
X3865288Y3543949D1*
X3853075Y3549985D1*
X3780355Y3589201D2*
X3774179Y3601415D1*
X3756069Y3619665D1*
X3883538D1*
X3756069Y3671094D2*
Y3737776D1*
X3804642Y3701417D1*
Y3719667D1*
X3810678Y3731740D1*
X3816715Y3737776D1*
X3834965Y3743953D1*
X3847038D1*
X3865288Y3737776D1*
X3877502Y3725703D1*
X3883538Y3707453D1*
Y3689203D1*
X3877502Y3671094D1*
X3871325Y3665057D1*
X3859252Y3658880D1*
X3883538Y3807456D2*
X3756069Y3868242D1*
Y3783169D1*
X3883538Y3931744D2*
X3756069Y3992531D1*
Y3907458D1*
X4238368Y8802851D2*
X4365978D1*
X4268692Y8933176D2*
X4256619Y8927140D1*
X4244405Y8914926D1*
X4238369Y8902853D1*
Y8878567D1*
X4244405Y8866353D1*
X4256619Y8854280D1*
X4268692Y8848103D1*
X4286942Y8842067D1*
X4317405D1*
X4335515Y8848103D1*
X4347728Y8854280D1*
X4359801Y8866353D1*
X4365978Y8878566D1*
Y8902853D1*
X4359801Y8914926D1*
X4347728Y8927139D1*
X4335515Y8933176D1*
X4238509Y9002715D2*
X4244545Y8984605D1*
X4256619Y8978428D1*
X4268832D1*
X4280905Y8984605D1*
X4287082Y8996678D1*
X4293119Y9020965D1*
X4299155Y9039215D1*
X4311369Y9051288D1*
X4323442Y9057324D1*
X4341692D1*
X4353765Y9051288D1*
X4359942Y9045251D1*
X4365978Y9027001D1*
Y9002715D1*
X4359942Y8984605D1*
X4353765Y8978428D1*
X4341692Y8972392D1*
X4323442D1*
X4311369Y8978428D1*
X4299155Y8990642D1*
X4293119Y9008751D1*
X4287082Y9033038D1*
X4280905Y9045251D1*
X4268832Y9051288D1*
X4256619D1*
X4244545Y9045251D1*
X4238509Y9027001D1*
Y9002715D1*
X4480848Y8665274D2*
X4468775Y8659237D1*
X4456562Y8647024D1*
X4450525Y8634951D1*
Y8610664D1*
X4456562Y8598451D1*
X4468775Y8586378D1*
X4480848Y8580201D1*
X4499098Y8574164D1*
X4529562D1*
X4547671Y8580201D1*
X4559885Y8586378D1*
X4571958Y8598451D1*
X4578135Y8610664D1*
Y8634951D1*
X4571958Y8647024D1*
X4559885Y8659237D1*
X4547671Y8665274D1*
X4450525Y8704489D2*
X4578135D1*
Y8747026D1*
X4571958Y8765276D1*
X4559885Y8777489D1*
X4547671Y8783526D1*
X4529562Y8789562D1*
X4499098D1*
X4480848Y8783526D1*
X4468775Y8777489D1*
X4456562Y8765276D1*
X4450525Y8747026D1*
Y8704489D1*
X4578135Y8889565D2*
X4450666D1*
X4535598Y8828778D1*
Y8919888D1*
X4450666Y8995603D2*
X4456702Y8977353D1*
X4474952Y8965140D1*
X4505275Y8959103D1*
X4523525D1*
X4553848Y8965140D1*
X4572098Y8977353D1*
X4578135Y8995603D1*
Y9007676D1*
X4572098Y9025926D1*
X4553848Y9037999D1*
X4523525Y9044176D1*
X4505275D1*
X4474952Y9037999D1*
X4456702Y9025926D1*
X4450666Y9007676D1*
Y8995603D1*
X4474952Y9037999D2*
X4553848Y8965140D1*
X4578135Y9107679D2*
X4450666Y9168465D1*
Y9083392D1*
Y9244181D2*
X4456702Y9225931D1*
X4474952Y9213717D1*
X4505275Y9207681D1*
X4523525D1*
X4553848Y9213717D1*
X4572098Y9225931D1*
X4578135Y9244181D1*
Y9256254D1*
X4572098Y9274504D1*
X4553848Y9286577D1*
X4523525Y9292754D1*
X4505275D1*
X4474952Y9286577D1*
X4456702Y9274504D1*
X4450666Y9256254D1*
Y9244181D1*
X4474952Y9286577D2*
X4553848Y9213717D1*
X7876195Y8755004D2*
X8003805D1*
X7906518Y8885329D2*
X7894445Y8879293D1*
X7882232Y8867079D1*
X7876195Y8855006D1*
Y8830720D1*
X7882232Y8818506D1*
X7894445Y8806433D1*
X7906518Y8800256D1*
X7924768Y8794220D1*
X7955232D1*
X7973341Y8800256D1*
X7985555Y8806433D1*
X7997628Y8818506D1*
X8003805Y8830720D1*
Y8855006D1*
X7997628Y8867079D1*
X7985555Y8879293D1*
X7973341Y8885329D1*
X7894445Y8997405D2*
X7882372Y8991368D1*
X7876336Y8973118D1*
Y8961045D1*
X7882372Y8942795D1*
X7900622Y8930582D1*
X7930945Y8924545D1*
X7961268D1*
X7985555Y8930581D1*
X7997768Y8942795D1*
X8003805Y8961045D1*
Y8967081D1*
X7997768Y8985191D1*
X7985555Y8997405D1*
X7967305Y9003441D1*
X7961268D1*
X7943018Y8997405D1*
X7930945Y8985191D1*
X7924909Y8967082D1*
Y8961045D1*
X7930945Y8942795D1*
X7943018Y8930582D1*
X7961268Y8924545D1*
X8129842Y8611037D2*
X8117769Y8605001D1*
X8105555Y8592787D1*
X8099519Y8580714D1*
X8099518Y8556428D1*
X8105555Y8544214D1*
X8117768Y8532141D1*
X8129841Y8525964D1*
X8148091Y8519928D1*
X8178555D1*
X8196665Y8525964D1*
X8208878Y8532141D1*
X8220951Y8544214D1*
X8227128Y8556427D1*
Y8580714D1*
X8220951Y8592787D1*
X8208878Y8605000D1*
X8196665Y8611037D1*
X8099519Y8650253D2*
X8227128D1*
Y8692789D1*
X8220951Y8711039D1*
X8208878Y8723253D1*
X8196665Y8729289D1*
X8178555Y8735326D1*
X8148092D1*
X8129842Y8729289D1*
X8117769Y8723253D1*
X8105555Y8711039D1*
X8099519Y8692789D1*
Y8650253D1*
X8227128Y8835328D2*
X8099659D1*
X8184592Y8774541D1*
Y8865651D1*
X8099659Y8941367D2*
X8105695Y8923117D1*
X8123945Y8910903D1*
X8154269Y8904867D1*
X8172518D1*
X8202842Y8910903D1*
X8221092Y8923117D1*
X8227128Y8941367D1*
Y8953440D1*
X8221092Y8971690D1*
X8202842Y8983763D1*
X8172518Y8989940D1*
X8154268D1*
X8123945Y8983763D1*
X8105695Y8971690D1*
X8099659Y8953440D1*
Y8941367D1*
X8123945Y8983763D2*
X8202842Y8910903D1*
X8099659Y9102015D2*
Y9041369D1*
X8154268Y9035332D1*
X8148232Y9041369D1*
X8142055Y9059619D1*
Y9077728D1*
X8148232Y9095978D1*
X8160305Y9108192D1*
X8178555Y9114228D1*
X8190628D1*
X8208878Y9108192D1*
X8221092Y9095978D1*
X8227128Y9077728D1*
Y9059619D1*
X8221092Y9041369D1*
X8214915Y9035332D1*
X8202842Y9029155D1*
X8129982Y9159621D2*
X8123945D1*
X8111732Y9165658D1*
X8105695Y9171694D1*
X8099659Y9183908D1*
Y9208194D1*
X8105695Y9220267D1*
X8111732Y9226304D1*
X8123945Y9232481D1*
X8136018D1*
X8148232Y9226304D1*
X8166342Y9214231D1*
X8227128Y9153444D1*
Y9238517D1*
X11050778Y8999101D2*
X11178388D1*
X11081102Y9129426D2*
X11069029Y9123390D1*
X11056815Y9111176D1*
X11050779Y9099103D1*
Y9074817D1*
X11056815Y9062603D1*
X11069029Y9050530D1*
X11081102Y9044353D1*
X11099352Y9038317D1*
X11129815D1*
X11147925Y9044353D1*
X11160138Y9050530D1*
X11172211Y9062603D1*
X11178388Y9074816D1*
Y9099103D1*
X11172211Y9111176D1*
X11160138Y9123389D1*
X11147925Y9129426D1*
X11050919Y9241501D2*
Y9180855D1*
X11105529Y9174819D1*
X11099492Y9180855D1*
X11093315Y9199105D1*
Y9217215D1*
X11099492Y9235465D1*
X11111565Y9247678D1*
X11129815Y9253715D1*
X11141888D1*
X11160138Y9247678D1*
X11172352Y9235465D1*
X11178388Y9217215D1*
Y9199105D1*
X11172352Y9180855D1*
X11166175Y9174819D1*
X11154102Y9168642D1*
X11265298Y8858224D2*
X11253225Y8852187D1*
X11241012Y8839974D1*
X11234975Y8827901D1*
Y8803614D1*
X11241012Y8791401D1*
X11253225Y8779328D1*
X11265298Y8773151D1*
X11283548Y8767114D1*
X11314012D1*
X11332121Y8773151D1*
X11344335Y8779328D1*
X11356408Y8791401D1*
X11362585Y8803614D1*
Y8827901D1*
X11356408Y8839974D1*
X11344335Y8852187D1*
X11332121Y8858224D1*
X11234975Y8897439D2*
X11362585D1*
Y8939976D1*
X11356408Y8958226D1*
X11344335Y8970439D1*
X11332121Y8976476D1*
X11314012Y8982512D1*
X11283548D1*
X11265298Y8976476D1*
X11253225Y8970439D1*
X11241012Y8958226D1*
X11234975Y8939976D1*
Y8897439D1*
X11362585Y9082515D2*
X11235116D1*
X11320048Y9021728D1*
Y9112838D1*
X11235116Y9224913D2*
Y9164267D1*
X11289725Y9158230D1*
X11283689Y9164267D1*
X11277512Y9182517D1*
Y9200626D1*
X11283689Y9218876D1*
X11295762Y9231090D1*
X11314012Y9237126D1*
X11326085D1*
X11344335Y9231090D1*
X11356548Y9218876D1*
X11362585Y9200626D1*
Y9182517D1*
X11356548Y9164267D1*
X11350371Y9158230D1*
X11338298Y9152053D1*
X11235116Y9288556D2*
Y9355238D1*
X11283689Y9318879D1*
Y9337129D1*
X11289725Y9349202D1*
X11295762Y9355238D1*
X11314012Y9361415D1*
X11326085D1*
X11344335Y9355238D1*
X11356548Y9343165D1*
X11362585Y9324915D1*
Y9306665D1*
X11356548Y9288556D1*
X11350371Y9282519D1*
X11338298Y9276342D1*
X11265439Y9406808D2*
X11259402D1*
X11247189Y9412844D1*
X11241152Y9418881D1*
X11235116Y9431094D1*
Y9455381D1*
X11241152Y9467454D1*
X11247189Y9473490D1*
X11259402Y9479667D1*
X11271475D1*
X11283689Y9473490D1*
X11301798Y9461417D1*
X11362585Y9400631D1*
Y9485704D1*
X7930432Y6487238D2*
X8058041D1*
X7960755Y6617563D2*
X7948682Y6611526D1*
X7936468Y6599313D1*
X7930432Y6587240D1*
Y6562953D1*
X7936468Y6550740D1*
X7948682Y6538667D1*
X7960755Y6532490D1*
X7979005Y6526453D1*
X8009468D1*
X8027578Y6532490D1*
X8039792Y6538667D1*
X8051865Y6550740D1*
X8058042Y6562953D1*
X8058041Y6587240D1*
X8051865Y6599313D1*
X8039791Y6611526D1*
X8027578Y6617563D1*
X8058041Y6681065D2*
X7930572Y6741851D1*
Y6656778D1*
X8184078Y6346360D2*
X8172005Y6340324D1*
X8159792Y6328110D1*
X8153755Y6316037D1*
Y6291751D1*
X8159792Y6279537D1*
X8172005Y6267464D1*
X8184078Y6261287D1*
X8202328Y6255251D1*
X8232792D1*
X8250901Y6261287D1*
X8263115Y6267464D1*
X8275188Y6279537D1*
X8281365Y6291751D1*
Y6316037D1*
X8275188Y6328110D1*
X8263115Y6340324D1*
X8250901Y6346360D1*
X8153755Y6385576D2*
X8281365D1*
Y6428112D1*
X8275188Y6446362D1*
X8263115Y6458576D1*
X8250901Y6464612D1*
X8232792Y6470649D1*
X8202328D1*
X8184078Y6464613D1*
X8172005Y6458576D1*
X8159792Y6446363D1*
X8153755Y6428113D1*
Y6385576D1*
X8281365Y6570651D2*
X8153896D1*
X8238828Y6509865D1*
Y6600974D1*
X8153896Y6676690D2*
X8159932Y6658440D1*
X8178182Y6646227D1*
X8208505Y6640190D1*
X8226755D1*
X8257078Y6646227D1*
X8275328Y6658440D1*
X8281365Y6676690D1*
Y6688763D1*
X8275328Y6707013D1*
X8257078Y6719086D1*
X8226755Y6725263D1*
X8208505D1*
X8178182Y6719086D1*
X8159932Y6707013D1*
X8153896Y6688763D1*
Y6676690D1*
X8178182Y6719086D2*
X8257078Y6646227D1*
X8153896Y6837338D2*
Y6776692D1*
X8208505Y6770656D1*
X8202469Y6776692D1*
X8196292Y6794942D1*
Y6813052D1*
X8202469Y6831302D1*
X8214542Y6843515D1*
X8232792Y6849552D1*
X8244865D1*
X8263115Y6843515D1*
X8275328Y6831302D1*
X8281365Y6813052D1*
Y6794942D1*
X8275328Y6776692D1*
X8269151Y6770656D1*
X8257078Y6764479D1*
X8184219Y6894944D2*
X8178182D1*
X8165969Y6900981D1*
X8159932Y6907018D1*
X8153896Y6919231D1*
Y6943518D1*
X8159932Y6955591D1*
X8165969Y6961627D1*
X8178182Y6967804D1*
X8190255D1*
X8202469Y6961627D1*
X8220578Y6949554D1*
X8281365Y6888767D1*
Y6973841D1*
X6912942Y3753501D2*
X7040551D1*
X6943265Y3883826D2*
X6931192Y3877790D1*
X6918978Y3865576D1*
X6912942Y3853503D1*
Y3829217D1*
X6918978Y3817003D1*
X6931192Y3804930D1*
X6943265Y3798753D1*
X6961515Y3792717D1*
X6991978D1*
X7010088Y3798753D1*
X7022302Y3804930D1*
X7034375Y3817003D1*
X7040552Y3829216D1*
X7040551Y3853503D1*
X7034375Y3865576D1*
X7022301Y3877789D1*
X7010088Y3883826D1*
X7040551Y3983828D2*
X6913082D1*
X6998015Y3923042D1*
Y4014151D1*
X7166588Y3642944D2*
X7154515Y3636907D1*
X7142302Y3624694D1*
X7136265Y3612621D1*
Y3588334D1*
X7142302Y3576121D1*
X7154515Y3564048D1*
X7166588Y3557871D1*
X7184838Y3551834D1*
X7215302D1*
X7233411Y3557871D1*
X7245625Y3564048D1*
X7257698Y3576121D1*
X7263875Y3588334D1*
Y3612621D1*
X7257698Y3624694D1*
X7245625Y3636907D1*
X7233411Y3642944D1*
X7136265Y3682159D2*
X7263875D1*
Y3724696D1*
X7257698Y3742946D1*
X7245625Y3755159D1*
X7233411Y3761196D1*
X7215302Y3767232D1*
X7184838D1*
X7166588Y3761196D1*
X7154515Y3755159D1*
X7142302Y3742946D1*
X7136265Y3724696D1*
Y3682159D1*
X7263875Y3867235D2*
X7136406D1*
X7221338Y3806448D1*
Y3897558D1*
X7136406Y3973273D2*
X7142442Y3955023D1*
X7160692Y3942810D1*
X7191015Y3936773D1*
X7209265D1*
X7239588Y3942810D1*
X7257838Y3955023D1*
X7263875Y3973273D1*
Y3985346D1*
X7257838Y4003596D1*
X7239588Y4015669D1*
X7209265Y4021846D1*
X7191015D1*
X7160692Y4015669D1*
X7142442Y4003596D1*
X7136406Y3985346D1*
Y3973273D1*
X7160692Y4015669D2*
X7239588Y3942810D1*
X7136406Y4097562D2*
X7142442Y4079312D1*
X7160692Y4067099D1*
X7191015Y4061062D1*
X7209265D1*
X7239588Y4067099D1*
X7257838Y4079312D1*
X7263875Y4097562D1*
Y4109635D1*
X7257838Y4127885D1*
X7239588Y4139958D1*
X7209265Y4146135D1*
X7191015D1*
X7160692Y4139958D1*
X7142442Y4127885D1*
X7136406Y4109635D1*
Y4097562D1*
X7160692Y4139958D2*
X7239588Y4067099D1*
X7160692Y4185351D2*
X7154515Y4197564D1*
X7136406Y4215814D1*
X7263875D1*
X9530395Y3347008D2*
X9658005D1*
X9560718Y3477333D2*
X9548645Y3471296D1*
X9536432Y3459083D1*
X9530395Y3447010D1*
Y3422723D1*
X9536432Y3410510D1*
X9548645Y3398437D1*
X9560718Y3392260D1*
X9578968Y3386223D1*
X9609432D1*
X9627541Y3392260D1*
X9639755Y3398437D1*
X9651828Y3410510D1*
X9658005Y3422723D1*
Y3447010D1*
X9651828Y3459083D1*
X9639755Y3471296D1*
X9627541Y3477333D1*
X9554822Y3516548D2*
X9548645Y3528762D1*
X9530536Y3547012D1*
X9658005D1*
X9530536Y3622727D2*
X9536572Y3604477D1*
X9554822Y3592264D1*
X9585145Y3586227D1*
X9603395D1*
X9633718Y3592264D1*
X9651968Y3604477D1*
X9658005Y3622727D1*
Y3634800D1*
X9651968Y3653050D1*
X9633718Y3665124D1*
X9603395Y3671300D1*
X9585145Y3671301D1*
X9554822Y3665124D1*
X9536572Y3653051D1*
X9530536Y3634801D1*
Y3622727D1*
X9554822Y3665124D2*
X9633718Y3592264D1*
X9778835Y3268274D2*
X9766762Y3262237D1*
X9754548Y3250024D1*
X9748512Y3237951D1*
Y3213664D1*
X9754548Y3201451D1*
X9766762Y3189378D1*
X9778835Y3183201D1*
X9797085Y3177164D1*
X9827548D1*
X9845658Y3183201D1*
X9857871Y3189378D1*
X9869945Y3201451D1*
X9876122Y3213664D1*
Y3237951D1*
X9869945Y3250024D1*
X9857872Y3262237D1*
X9845658Y3268274D1*
X9748512Y3307489D2*
X9876121D1*
Y3350026D1*
X9869945Y3368276D1*
X9857871Y3380489D1*
X9845658Y3386526D1*
X9827548Y3392562D1*
X9797085D1*
X9778835Y3386526D1*
X9766762Y3380489D1*
X9754548Y3368276D1*
X9748512Y3350026D1*
Y3307489D1*
X9876121Y3492565D2*
X9748652D1*
X9833585Y3431778D1*
Y3522888D1*
X9748652Y3598603D2*
X9754689Y3580353D1*
X9772939Y3568140D1*
X9803262Y3562103D1*
X9821512D1*
X9851835Y3568140D1*
X9870085Y3580353D1*
X9876121Y3598603D1*
Y3610676D1*
X9870085Y3628926D1*
X9851835Y3640999D1*
X9821512Y3647176D1*
X9803262D1*
X9772939Y3640999D1*
X9754689Y3628926D1*
X9748652Y3610676D1*
Y3598603D1*
X9772939Y3640999D2*
X9851835Y3568140D1*
X9772939Y3686392D2*
X9766762Y3698606D1*
X9748652Y3716856D1*
X9876121D1*
X9748652Y3768285D2*
Y3834967D1*
X9797225Y3798608D1*
Y3816858D1*
X9803262Y3828931D1*
X9809298Y3834967D1*
X9827548Y3841144D1*
X9839621D1*
X9857871Y3834967D1*
X9870085Y3822894D1*
X9876121Y3804644D1*
Y3786394D1*
X9870085Y3768285D1*
X9863908Y3762248D1*
X9851835Y3756071D1*
X12959535Y8896981D2*
X13087145D1*
X12989858Y9027306D2*
X12977785Y9021270D1*
X12965572Y9009056D1*
X12959535Y8996983D1*
Y8972697D1*
X12965572Y8960483D1*
X12977785Y8948410D1*
X12989858Y8942233D1*
X13008108Y8936197D1*
X13038572D1*
X13056681Y8942233D1*
X13068895Y8948410D1*
X13080968Y8960483D1*
X13087145Y8972696D1*
Y8996983D1*
X13080968Y9009056D1*
X13068895Y9021269D1*
X13056681Y9027306D1*
X12989999Y9072699D2*
X12983962D1*
X12971749Y9078735D1*
X12965712Y9084772D1*
X12959676Y9096985D1*
Y9121272D1*
X12965712Y9133345D1*
X12971749Y9139381D1*
X12983962Y9145558D1*
X12996035D1*
X13008249Y9139381D1*
X13026358Y9127308D1*
X13087145Y9066522D1*
Y9151595D1*
X13143732Y8736261D2*
X13271341D1*
X13271342Y8809120D1*
X13271341Y8945482D2*
X13143732D1*
X13271341Y8896909D1*
X13143732Y8848336D1*
X13271341D1*
X13143872Y8996911D2*
Y9063594D1*
X13192445Y9027234D1*
Y9045484D1*
X13198482Y9057557D1*
X13204518Y9063594D1*
X13222768Y9069771D1*
X13234841D1*
X13253091Y9063594D1*
X13265305Y9051521D1*
X13271341Y9033271D1*
Y9015021D1*
X13265305Y8996911D1*
X13259128Y8990875D1*
X13247055Y8984698D1*
X13143872Y9121200D2*
Y9187883D1*
X13192445Y9151523D1*
Y9169773D1*
X13198482Y9181846D1*
X13204518Y9187883D1*
X13222768Y9194060D1*
X13234841D1*
X13253091Y9187883D1*
X13265305Y9175810D1*
X13271341Y9157560D1*
Y9139310D1*
X13265305Y9121200D1*
X13259128Y9115163D1*
X13247055Y9108987D1*
X13186268Y9312312D2*
X13204518Y9306135D1*
X13216732Y9294062D1*
X13222768Y9275812D1*
Y9269775D1*
X13216732Y9251525D1*
X13204518Y9239452D1*
X13186268Y9233275D1*
X13180232D1*
X13161982Y9239452D1*
X13149909Y9251525D1*
X13143872Y9269775D1*
Y9275812D1*
X13149909Y9294062D1*
X13161982Y9306135D1*
X13186268Y9312312D1*
X13216732D1*
X13247055Y9306135D1*
X13265305Y9294062D1*
X13271341Y9275812D1*
Y9263739D1*
X13265305Y9245489D1*
X13253091Y9239452D1*
X12185712Y4688598D2*
X12313321D1*
X12216035Y4818923D2*
X12203962Y4812886D1*
X12191748Y4800673D1*
X12185712Y4788600D1*
Y4764313D1*
X12191748Y4752100D1*
X12203962Y4740027D1*
X12216035Y4733850D1*
X12234285Y4727813D1*
X12264748D1*
X12282858Y4733850D1*
X12295072Y4740027D1*
X12307145Y4752100D1*
X12313322Y4764313D1*
X12313321Y4788600D1*
X12307145Y4800673D1*
X12295071Y4812886D1*
X12282858Y4818923D1*
X12210139Y4858138D2*
X12203962Y4870352D1*
X12185852Y4888602D1*
X12313321D1*
X12369908Y4500574D2*
X12497518D1*
Y4573434D1*
Y4709795D2*
X12369909Y4709796D1*
X12497518Y4661222D1*
X12369909Y4612649D1*
X12497518D1*
X12370049Y4761225D2*
Y4827907D1*
X12418622Y4791548D1*
Y4809798D1*
X12424659Y4821871D1*
X12430695Y4827907D1*
X12448945Y4834084D1*
X12461018D1*
X12479268Y4827907D1*
X12491482Y4815834D1*
X12497518Y4797584D1*
Y4779334D1*
X12491482Y4761225D1*
X12485305Y4755188D1*
X12473232Y4749011D1*
X12370049Y4885513D2*
Y4952196D1*
X12418622Y4915836D1*
Y4934086D1*
X12424658Y4946159D1*
X12430695Y4952196D1*
X12448945Y4958373D1*
X12461018D1*
X12479268Y4952196D1*
X12491482Y4940123D1*
X12497518Y4921873D1*
Y4903623D1*
X12491482Y4885513D1*
X12485305Y4879477D1*
X12473232Y4873300D1*
X12412445Y5076625D2*
X12430695Y5070448D1*
X12442908Y5058375D1*
X12448945Y5040125D1*
Y5034089D1*
X12442908Y5015839D1*
X12430695Y5003766D1*
X12412445Y4997589D1*
X12406408D1*
X12388159Y5003766D1*
X12376085Y5015839D1*
X12370049Y5034089D1*
Y5040125D1*
X12376085Y5058375D1*
X12388158Y5070448D1*
X12412445Y5076625D1*
X12442908D1*
X12473232Y5070448D1*
X12491482Y5058375D1*
X12497518Y5040125D1*
Y5028052D1*
X12491482Y5009802D1*
X12479268Y5003766D1*
X14827792Y8252911D2*
X14955401D1*
X14858115Y8383236D2*
X14846042Y8377200D1*
X14833828Y8364986D1*
X14827792Y8352913D1*
Y8328627D1*
X14833828Y8316413D1*
X14846042Y8304340D1*
X14858115Y8298163D1*
X14876365Y8292127D1*
X14906828D1*
X14924938Y8298163D1*
X14937152Y8304340D1*
X14949225Y8316413D1*
X14955402Y8328626D1*
X14955401Y8352913D1*
X14949225Y8364986D1*
X14937151Y8377199D1*
X14924938Y8383236D1*
X14827932Y8434665D2*
Y8501348D1*
X14876505Y8464988D1*
Y8483238D1*
X14882542Y8495311D1*
X14888578Y8501348D1*
X14906828Y8507525D1*
X14918901D1*
X14937151Y8501348D1*
X14949365Y8489275D1*
X14955401Y8471025D1*
Y8452775D1*
X14949365Y8434665D1*
X14943188Y8428629D1*
X14931115Y8422452D1*
X15139598Y8139410D2*
X15011989D1*
X15139598Y8090837D1*
X15011988Y8042264D1*
X15139598D1*
X15042312Y8269735D2*
X15030239Y8263699D1*
X15018025Y8251486D1*
X15011989Y8239412D1*
Y8215126D1*
X15018025Y8202912D1*
X15030239Y8190839D1*
X15042312Y8184662D1*
X15060562Y8178626D1*
X15091025D1*
X15109135Y8184662D1*
X15121348Y8190839D1*
X15133421Y8202912D1*
X15139598Y8215126D1*
Y8239412D1*
X15133421Y8251485D1*
X15121348Y8263699D1*
X15109135Y8269735D1*
X15036415Y8308951D2*
X15030239Y8321165D1*
X15012129Y8339415D1*
X15139598D1*
Y8439417D2*
X15012129D1*
X15097062Y8378630D1*
Y8469740D1*
X15012129Y8581815D2*
Y8521169D1*
X15066738Y8515132D1*
X15060702Y8521169D1*
X15054525Y8539419D1*
Y8557529D1*
X15060702Y8575779D1*
X15072775Y8587992D1*
X15091025Y8594029D1*
X15103098D1*
X15121348Y8587992D1*
X15133562Y8575779D1*
X15139598Y8557529D1*
Y8539419D1*
X15133562Y8521169D1*
X15127385Y8515132D1*
X15115312Y8508956D1*
X15012129Y8663567D2*
X15018165Y8645458D1*
X15030238Y8639281D1*
X15042452D1*
X15054525Y8645458D1*
X15060702Y8657531D1*
X15066738Y8681817D1*
X15072775Y8700067D1*
X15084988Y8712140D1*
X15097062Y8718177D1*
X15115312D1*
X15127385Y8712140D1*
X15133562Y8706104D1*
X15139598Y8687854D1*
Y8663567D1*
X15133562Y8645458D1*
X15127385Y8639281D1*
X15115312Y8633244D1*
X15097062D1*
X15084988Y8639281D1*
X15072775Y8651494D1*
X15066738Y8669604D1*
X15060702Y8693890D1*
X15054525Y8706104D1*
X15042452Y8712140D1*
X15030238D1*
X15018165Y8706104D1*
X15012129Y8687854D1*
Y8663567D1*
M02*
