G04 DipTrace 3.3.1.1*
G04 Bottom.gbr*
%MOMM*%
G04 #@! TF.FileFunction,Copper,L2,Bot*
G04 #@! TF.Part,Single*
G04 #@! TA.AperFunction,Conductor*
%ADD13C,0.66*%
%ADD14C,1.0*%
%ADD15C,0.33*%
G04 #@! TA.AperFunction,CopperBalancing*
%ADD16C,0.635*%
G04 #@! TA.AperFunction,ComponentPad*
%ADD22C,2.0*%
%ADD23R,1.35X1.35*%
%ADD24C,1.35*%
%ADD25C,1.8*%
%ADD26C,1.65*%
%ADD27C,2.4*%
%ADD28R,1.5X1.5*%
%ADD29C,1.5*%
%ADD30C,1.8*%
%ADD31C,3.6*%
%ADD32C,1.5*%
%ADD33C,1.3*%
%ADD34C,1.524*%
%ADD35C,1.524*%
%ADD36R,1.9X1.9*%
%ADD37C,1.9*%
%FSLAX35Y35*%
G04*
G71*
G90*
G75*
G01*
G04 Bottom*
%LPD*%
X16673597Y3282180D2*
D13*
X16628837Y3237420D1*
X15803900D1*
X15506410D1*
X15271720Y3472110D1*
X15147307D1*
X15880150Y2880920D2*
Y3237420D1*
X15803900D1*
X1931333Y8693530D2*
X1936627Y8698823D1*
Y9381970D1*
X2264187Y9709530D1*
X2492283Y9937627D1*
X3000250D1*
Y10175750D1*
X3063750Y9709530D2*
X3000250Y9773030D1*
Y9937627D1*
X7711137Y8569523D2*
Y8315523D1*
Y8061523D2*
Y8193427D1*
Y8315523D1*
X7238877Y7445250D2*
X7254750Y7461123D1*
Y7810373D1*
X7637803Y8193427D1*
X7711137D1*
X7715807Y6258860D2*
Y6004860D1*
Y5750860D2*
Y6004860D1*
X7238877Y6619750D2*
X7599767Y6258860D1*
X7715807D1*
X7238877Y6619750D2*
X6699123D1*
X6683250Y6603877D1*
Y6413377D1*
X4805440Y8184637D2*
X4762377Y8141573D1*
Y7365877D1*
X4889377Y7238877D1*
Y6667373D1*
X4937000Y6619750D1*
X6699123D1*
X4012950Y7666380D2*
X4265830Y7413500D1*
X4714753D1*
X4762377Y7365877D1*
X4043440Y8184637D2*
X3769067Y7910263D1*
X4012950Y7666380D1*
X3063750Y9709530D2*
X2492250Y9138030D1*
Y8572377D1*
X2682750Y8381877D1*
X3297453D1*
X3769067Y7910263D1*
X6175250Y2365253D2*
X6286377Y2254127D1*
X7032500D1*
Y4365500D1*
X7277163Y4610163D1*
X7468837D1*
X10286877Y6016500D2*
Y5826000D1*
X10159877Y5699000D1*
Y5222753D1*
X10175750Y5238627D1*
X10191627Y5222750D1*
Y4651250D1*
X10477377Y4365500D1*
Y2920877D1*
X10255260Y2698760D1*
X10102737D1*
X9340737D1*
Y2952760D2*
Y2698760D1*
X8826377Y2095377D2*
X9048627Y2317627D1*
Y2381127D1*
X9340737Y2673237D1*
Y2698760D1*
X7468837Y4610163D2*
X7525800Y4667127D1*
X8731127D1*
X8842250Y4778250D1*
Y4984627D1*
X8604127Y5222750D1*
X8243917D1*
X7715807Y5750860D1*
X8826377Y2095377D2*
X8477127Y1746127D1*
X7302373D1*
X7032500Y2016000D1*
Y2254127D1*
X12713317Y5353723D2*
X12736380Y5330660D1*
X13068157D1*
X13276477Y5538980D1*
Y6519047D1*
X12968730Y6826793D1*
Y7200827D1*
X13101297Y7333393D1*
X13446923D1*
X13806103Y6974213D1*
Y6640650D1*
X13803417Y6637963D1*
Y6138080D1*
X14039103Y5902393D1*
X14253993D1*
X14524337Y5632050D1*
X14773887D1*
X14967980Y5826143D1*
X14942707Y5851417D1*
Y7413500D1*
X15037300Y7508093D1*
Y8481070D1*
X15247003Y8690773D1*
X15349850D1*
X16696593Y8931893D2*
X16494220Y8729520D1*
Y7646753D1*
X16763223Y7377750D1*
X16775750D1*
X15795500Y8878643D2*
X16159777Y9242920D1*
X16669520D1*
X16696593Y9215847D1*
Y8931893D1*
X15349850Y8690773D2*
X15537720Y8878643D1*
X15795500D1*
X14893307Y3472110D2*
X14927793Y3506597D1*
Y3622413D1*
X15805270Y4499890D1*
Y5503330D1*
X15455270Y5353330D2*
X15605270Y5503330D1*
X15805270D1*
X15668500Y5905377D2*
X15805270Y5768607D1*
Y5503330D1*
X11626363Y10050967D2*
D14*
X11628350Y10052953D1*
X12867207D1*
X13033283Y9886877D1*
Y9545503D1*
X13299990Y9278797D1*
X13517847D1*
X13526213Y9287163D1*
X13614547D1*
X14160377Y9832993D1*
Y9921750D1*
X14623730Y10385103D1*
X16188713D1*
X16714617Y9859200D1*
Y8949917D1*
X16696593Y8931893D1*
X17192823Y8435663D1*
Y2834930D1*
X16734140Y2376247D1*
X16687120D1*
X15880150Y2370920D2*
X15885477Y2376247D1*
X16687120D1*
X15880150Y2370920D2*
X15858607Y2349377D1*
X14945020D1*
X14414377D1*
X14893307Y3472110D2*
X14945020Y3420397D1*
Y2349377D1*
X14414377D2*
X13233220Y1168220D1*
X4736240D1*
X4555207Y1349253D1*
X4524250D1*
X4143250Y1365127D2*
X4159123Y1349253D1*
X4524250D1*
X3635250Y1381000D2*
X3651123Y1365127D1*
X4143250D1*
X2841500D2*
X2857373Y1381000D1*
X3635250D1*
X2841500Y1365127D2*
X2828890Y1377737D1*
X2696693D1*
X1963180Y2111250D1*
X2206500D1*
X1714377Y2127127D2*
X1730253Y2111250D1*
X2206500D1*
X1714377Y2127127D2*
X1442117Y2399387D1*
Y3164443D1*
X1653413Y3375740D1*
X2072093D1*
X2395103Y3698750D1*
X2539877D1*
X3385887Y3636133D2*
X3369680Y3652340D1*
X2539877D1*
Y3698750D1*
X2419237Y3819390D1*
Y3996073D1*
X1950510Y4464800D1*
Y4891363D1*
X1889000Y4952873D1*
X1809627Y5413250D2*
X1889000Y5333877D1*
Y4952873D1*
X1841377Y5921250D2*
X1809627Y5889500D1*
Y5413250D1*
X1841377Y5921250D2*
Y6397500D1*
X2063627D1*
X1714377D2*
X2063627D1*
X2047750Y6778500D2*
X2063627Y6762623D1*
Y6397500D1*
X2047750Y6778500D2*
X2023033Y6803217D1*
X1846350D1*
X1367210Y7282357D1*
Y8336337D1*
X1476250Y8445377D1*
X1419290Y8502337D1*
Y9599943D1*
X2143210Y10323863D1*
Y10635003D1*
X2370593Y10862387D1*
X3000250D1*
X6203273D1*
Y10572330D1*
Y10862387D2*
X9108367D1*
X9414927Y10555827D1*
X11224160D1*
X11626363Y10153623D1*
Y10050967D1*
X3000250Y10175750D2*
Y10862387D1*
X2539877Y4206750D2*
D13*
X2555753Y4222627D1*
X2635127D1*
X2952627Y3905127D1*
X3370890D1*
X3385887Y3890130D1*
X6706837Y3086163D2*
X6681667Y3060993D1*
Y2619250D1*
Y2481620D1*
X4905250Y2698627D2*
X4984627Y2619250D1*
X5762500D1*
X6681667D1*
X8191377Y1476250D2*
X6000627D1*
X5762500Y1714377D1*
Y2619250D1*
X8191377Y1476250D2*
X9445500D1*
X10837673Y2868423D1*
X11160000Y3190750D1*
X14382623D1*
X14639307Y3447433D1*
Y3472110D1*
X14414377Y2857377D2*
Y3210800D1*
X14639307Y3447433D1*
X4905250Y3984500D2*
Y5079877D1*
X3476500Y6508627D1*
Y7032500D1*
X3089413Y7419587D1*
X3066233D1*
X3385887Y3890130D2*
D15*
X3402640Y3873377D1*
X3730503D1*
X3873377Y4016250D1*
X4873500D1*
X4905250Y3984500D1*
X4805440Y9708637D2*
D13*
X4875680Y9778877D1*
X7096000D1*
X7350000Y10032877D1*
X8334250D1*
X8473137Y9893990D1*
Y9839523D1*
X9096250Y9937627D2*
X8571240D1*
X8473137Y9839523D1*
X8477807Y7528860D2*
X9096250Y8147303D1*
Y8175503D1*
X9159747Y8239000D1*
X9810327D1*
X9983197Y8411870D1*
X9984093Y8412767D1*
X10232737D1*
X10489730Y8412630D2*
X10489593Y8412767D1*
X10232737D1*
X10489730Y8412630D2*
X10631610Y8270750D1*
X10862147D1*
X10864363Y8272967D1*
X10605443Y7524263D2*
X10609407Y7520300D1*
Y7147667D1*
X10598230Y7136490D1*
Y6775267D1*
X10595637Y6411663D2*
X10598230Y6414257D1*
Y6775267D1*
X10600400Y6017410D2*
X10595637Y6022173D1*
Y6411663D1*
X10112250Y6778500D2*
Y6411663D1*
X10595637D1*
X10112250Y6778500D2*
X10128127Y6794377D1*
Y8308157D1*
X10232737Y8412767D1*
X10102737Y4222760D2*
X10096377Y4229120D1*
Y4365500D1*
X9477250Y4984627D1*
Y5302123D1*
X10032877Y5857750D1*
Y6300977D1*
X10112250Y6380350D1*
Y6411663D1*
X10600400Y6017410D2*
X10604377Y6013433D1*
Y5635503D1*
X10366250Y5397377D1*
Y4841750D1*
X10801687Y4406313D1*
X10837673Y4370327D1*
Y2868423D1*
X11477500Y5508500D2*
X11461627Y5492627D1*
X11144127D1*
X10953627Y5302127D1*
Y4558253D1*
X10801687Y4406313D1*
X11477500Y5508500D2*
X11632277Y5353723D1*
X11951317D1*
X14204383Y6132690D2*
X14217817Y6146123D1*
Y6423190D1*
X14541377Y6746750D1*
Y7111877D2*
Y6746750D1*
X14160377Y9413750D2*
X14162193Y9415567D1*
X14572463D1*
X15007283Y9850387D1*
X15127017D1*
X15316070Y9661333D1*
Y9510093D1*
X14830833Y9024857D1*
Y7997670D1*
X14697157Y7863993D1*
X14452837Y7619673D1*
Y7537490D1*
Y7386293D1*
X14541377Y7297753D1*
Y7111877D1*
X14587850Y7928773D2*
X14652630Y7863993D1*
X14697157D1*
X12755847Y9278797D2*
X12770007Y9264637D1*
X12990173D1*
X13104750Y9150060D1*
X13896687D1*
X14160377Y9413750D1*
X11951317Y5353723D2*
X11960157Y5344883D1*
X12106880D1*
X12245050Y5483053D1*
X12997643D1*
X13106417Y5591827D1*
Y6200367D1*
X12733060Y6573723D1*
Y7282220D1*
X12988330Y7537490D1*
X14452837D1*
X16176500Y4016250D2*
X16303500Y4143250D1*
X16684500D1*
X4659250Y6953127D2*
X4667127Y6945250D1*
Y6397500D1*
X5572000Y5492627D1*
Y3381250D1*
X5254500Y3063750D1*
X4460750D1*
X4271130Y2874130D1*
X4147887D1*
X16155270Y4653330D2*
X16177307Y4675367D1*
X16660990D1*
X16779750Y4794127D1*
X15676500Y4016250D2*
X16155270Y4495020D1*
Y4653330D1*
Y5353330D2*
X16206473Y5302127D1*
X16779750D1*
X16696593Y7915893D2*
X17015400Y7597087D1*
Y7050543D1*
X16622410Y6657553D1*
X16591073D1*
X16430500Y6818127D1*
X16779750Y5302127D2*
X16846960Y5369337D1*
Y6401667D1*
X16591073Y6657553D1*
X16176500Y5905377D2*
X16155270Y5884147D1*
Y5353330D1*
X5921283Y6166310D2*
X5944093Y6143500D1*
X6302250D1*
X6318123Y6127627D1*
X6429250D1*
X7000750Y5556127D1*
X7052370D1*
X7175373D1*
X7858000Y4873500D1*
X8588250D1*
X6706837Y4610163D2*
X6715000Y4618327D1*
Y5218757D1*
X7052370Y5556127D1*
X10620250Y4873500D2*
X10636127Y4889377D1*
Y5302127D1*
X11128250Y5794250D1*
X11616400D1*
X11652127D1*
X11838653Y5607723D1*
X11951317D1*
X11616400Y6017410D2*
Y5794250D1*
X15541500Y6254627D2*
X15605000Y6318127D1*
X15939373D1*
X16430500D1*
X15939373Y6057627D2*
Y6318127D1*
X15557377Y6746750D2*
X15878253Y7067627D1*
X15939373D1*
X15958707Y7413500D2*
X15939373Y7394167D1*
Y7067627D1*
X16275750Y7377750D2*
X16240000Y7413500D1*
X15958707D1*
X14525500Y6254627D2*
Y5946207D1*
X14457983Y5878690D1*
X12318877Y5302127D2*
X12334510Y5286493D1*
Y5090463D1*
Y4845723D1*
Y4564923D1*
X12107310Y4337723D1*
X11951317D1*
Y4845723D2*
X12334510D1*
X12713317Y5099723D2*
X12704057Y5090463D1*
X12334510D1*
X12713317Y4591723D2*
X12334510Y4564923D1*
X12713317Y4591723D2*
X12730647Y4574393D1*
X13409263D1*
X13806103Y4971233D1*
Y5624650D1*
X12318877Y6476877D2*
X12335413Y6493413D1*
X12397643D1*
X12558053Y6653823D1*
Y7398573D1*
X13022093Y7862613D1*
Y8265057D1*
Y8516797D1*
Y8770797D1*
X12978703D1*
X12755847D1*
Y8262797D2*
X12758107Y8265057D1*
X13022093D1*
X13517847Y9024797D2*
X13469273Y8976223D1*
X13184130D1*
X12978703Y8770797D1*
X13517847Y8516797D2*
X13022093D1*
X13806103Y5624650D2*
Y5624690D1*
X14204383D1*
X11191750Y5238627D2*
X11330653Y5099723D1*
X11477500D1*
X11951317D1*
X11477500Y4492500D2*
Y5099723D1*
X15557377Y7111877D2*
X15638170Y7192670D1*
Y7367293D1*
X16192377Y7921500D1*
Y8429500D2*
X16176500Y8445377D1*
Y8874000D1*
X14795377Y9894583D2*
X15082527Y10181733D1*
X15902430D1*
X16176500Y9907663D1*
Y9890000D1*
X15938377Y8175500D2*
X15922767Y8191110D1*
X15709977D1*
X15464313Y8436773D1*
X15349850D1*
Y8182773D2*
Y7928773D1*
X15304017Y7882940D1*
Y5478550D1*
X13440287Y3614820D1*
X11973287D1*
X11730607Y3857500D1*
X11715627D1*
X11951317Y4591723D2*
X11950223Y4592817D1*
X11825667D1*
X11715627Y4482777D1*
Y3857500D1*
X15795500Y9894643D2*
Y9894583D1*
X15303377D1*
X15049377Y9640583D2*
X14649093Y9240300D1*
Y8752017D1*
X14587850Y8690773D1*
X12713317Y4337723D2*
X12731627Y4319413D1*
Y3857500D1*
X13318517Y3865360D2*
X13310657Y3857500D1*
X12731627D1*
X12713317Y4845723D2*
X12714777Y4844263D1*
X13281420D1*
X13318517Y4881360D1*
X13418733Y4981577D1*
Y6629207D1*
X13319000Y6728940D1*
Y7064250D1*
X12755847Y9024797D2*
X12732017Y9048627D1*
X12239500D1*
X12058600Y8867727D1*
Y7308650D1*
X12303000Y7064250D1*
X12755847Y8516797D2*
X12744997Y8505947D1*
X12688777D1*
X12449310Y8266480D1*
Y8032627D1*
Y7854567D1*
X12509377Y7794500D1*
X12239500Y8032627D2*
X12449310D1*
X13517847Y8262797D2*
X13525377Y8255267D1*
Y7794500D1*
X14017500Y7778627D2*
X14001627Y7794500D1*
X13525377D1*
X13517847Y8770797D2*
X13541677Y8794627D1*
X14017500D1*
X14375353Y8436773D1*
X14587850D1*
Y8182773D1*
X11611637Y6411663D2*
X11951317Y6071983D1*
Y5861723D1*
X11611637Y6411663D2*
X11210880Y6812420D1*
Y8708350D1*
X11537497Y9034967D1*
X11626363D1*
Y8780967D2*
X11620210Y8774813D1*
X11551667D1*
X11316783Y8539930D1*
Y7072713D1*
X11614230Y6775267D1*
X11913660Y6475837D1*
Y6350747D1*
X12178333Y6086073D1*
X12562740D1*
X12713317Y5935497D1*
Y5861723D1*
X11626363Y8526967D2*
X11454277Y8354880D1*
Y7318797D1*
X11625407Y7147667D1*
X12119840Y6653233D1*
Y6390337D1*
X12253953Y6256223D1*
X12821110D1*
X12984957Y6092377D1*
Y5701667D1*
X12891013Y5607723D1*
X12713317D1*
X11626363Y8272967D2*
X11621443Y8268047D1*
Y7524263D1*
X11626363Y8272967D2*
X11664360Y8234970D1*
X11737210D1*
X11888453Y8386213D1*
Y9016390D1*
X12404860Y9532797D1*
X12755847D1*
X10864363Y9034967D2*
X10850703Y9048627D1*
X10128123D1*
X9983197Y9193553D1*
Y9427870D1*
X10864363Y9034967D2*
X10866207Y9036810D1*
X11072900D1*
X11452403Y9416313D1*
X11938807D1*
X12309290Y9786797D1*
X12755847D1*
X10232737Y9428767D2*
X10239250Y9422253D1*
Y9302627D1*
X10350377Y9191500D1*
X10766897D1*
X10864363Y9288967D1*
X10232347Y9810627D2*
X10232737Y9810237D1*
Y9428767D1*
X13517847Y9786797D2*
Y9947253D1*
X13013603Y10451497D1*
X11842110D1*
X11349940Y10943667D1*
X10379473D1*
X10232347Y10796540D1*
Y10731377D1*
X10489730Y9810627D2*
Y9428630D1*
X10864363Y9542967D2*
X10750027Y9428630D1*
X10489730D1*
X10864363Y9796967D2*
Y9542967D1*
X10489730Y10731377D2*
X10500103Y10741750D1*
X11298750D1*
X11798560Y10241940D1*
X12946773D1*
X13284480Y9904233D1*
Y9634067D1*
X13385750Y9532797D1*
X13517847D1*
X6683250Y10302750D2*
X6787720Y10407220D1*
X11105250D1*
X11289777Y10222693D1*
Y10028937D1*
X11521747Y9796967D1*
X11626363D1*
X7711137Y9839523D2*
X7724160Y9826500D1*
X8080250D1*
X8321227Y9585523D1*
X8473137D1*
X6683250Y9524877D2*
X6715000Y9556627D1*
X7381753D1*
X7470563Y9645437D1*
X7664650Y9839523D1*
X7711137D1*
X7470563Y9645437D2*
Y9572553D1*
X7584393Y9458723D1*
X7829840D1*
X7868967Y9419597D1*
Y9077523D1*
Y7957593D1*
X7737547Y7826173D1*
X7534783D1*
X7445663Y7737053D1*
Y7463150D1*
X7491907Y7416907D1*
X7499020D1*
X7513250Y7402677D1*
X7965013D1*
X8021927Y7345763D1*
Y6719700D1*
X7815087Y6512860D1*
X7715807D1*
X7711137Y9077523D2*
X7868967D1*
X7715807Y7528860D2*
X7969127Y7782180D1*
Y8318377D1*
X8207250Y8556500D1*
X8460113D1*
X8473137Y8569523D1*
X7711137Y9585523D2*
X7745740Y9620127D1*
X7969127D1*
X8191377Y9397877D1*
Y9331523D1*
Y8522083D1*
X8207250Y8556500D1*
X8473137Y8569523D2*
X8499727Y8542933D1*
X8600980D1*
X10109013Y10050967D1*
X10864363D1*
X8473137Y9331523D2*
X8191377D1*
X7711137Y8823523D2*
X7708283Y8826377D1*
X7191250D1*
X6968997Y8604123D1*
Y7365873D1*
X7060010Y7274860D1*
X7715807D1*
X7735917Y7254750D1*
X7810377D1*
X7889750Y7175377D1*
Y6873750D1*
X7782860Y6766860D1*
X7715807D1*
X8473137Y8823523D2*
X8486160Y8810500D1*
X8573303D1*
X10021847Y10259043D1*
X11018297D1*
X11129013Y10148327D1*
Y9926893D1*
X11512940Y9542967D1*
X11626363D1*
X7191250Y10191627D2*
X7258667Y10259043D1*
X10021847D1*
X8473137Y8315523D2*
X8460113Y8302500D1*
X8302500D1*
X8159627Y8159627D1*
Y6004860D1*
Y5651373D1*
X8334250Y5476750D1*
X8683503D1*
X9016877Y5143377D1*
Y4619500D1*
X9340737Y4295640D1*
Y4222760D1*
X10102737Y3460760D2*
X10086997Y3476500D1*
X9969377D1*
X9699500Y3746377D1*
Y4048000D1*
X9524740Y4222760D1*
X9340737D1*
X8477807Y6004860D2*
X8159627D1*
X8477807Y5750860D2*
X8489447Y5762500D1*
X9270877D1*
X9620123D1*
X9763000Y5905377D1*
Y7699250D1*
X9636000Y7826250D1*
X9413750D1*
X9001000Y7413500D1*
X8711253D1*
D15*
X8286627D1*
D13*
Y7842127D1*
X8473137Y8028637D1*
Y8061523D1*
X10102737Y3968760D2*
X10000990D1*
X9858250Y4111500D1*
Y4270253D1*
X9270877Y4857627D1*
Y5762500D1*
X9476357Y6521510D2*
X9467707Y6512860D1*
X8477807D1*
Y6258860D2*
X8497917Y6238750D1*
X9238747D1*
X9476357Y6001140D1*
Y7520723D2*
X9210383Y7254750D1*
X8497917D1*
X8477807Y7274860D1*
Y7020860D2*
X8479973Y7018693D1*
X9476357D1*
X9096250Y6778500D2*
X9084610Y6766860D1*
X8477807D1*
X6785470Y5521707D2*
X6766927Y5540250D1*
X6683250D1*
X6413377Y5270377D1*
Y4498880D1*
Y4397250D1*
X6454463Y4356163D1*
X6706837D1*
X5778377Y3857500D2*
Y3968627D1*
X6308630Y4498880D1*
X6413377D1*
X5778377Y3857500D2*
Y3365377D1*
Y4873500D2*
X5786343Y4865533D1*
X6175677D1*
X6706837Y4102163D2*
X6700300Y4095627D1*
X6286377D1*
X6175677Y3984927D1*
Y3855533D1*
X7039470Y5267707D2*
X6905500Y5133737D1*
Y4102163D1*
Y3698750D1*
X6800913Y3594163D1*
X6706837D1*
Y3340163D2*
Y3594163D1*
Y4102163D2*
X6905500D1*
X5411823Y2865340D2*
X5419787Y2857377D1*
X5778377D1*
X5826000Y2905000D1*
Y2984373D1*
X6032377Y3190750D1*
Y3413000D1*
X6048250D1*
X6483413Y3848163D1*
X6706837D1*
X5921283Y7176310D2*
X5938093Y7159500D1*
X6127627D1*
X6302250D1*
X6540373Y6921377D1*
X6683250D1*
X4805440Y8438637D2*
X4830450Y8413627D1*
X4968750D1*
X5397377Y7985000D1*
X5730753D1*
X6127627Y7588127D1*
Y7159500D1*
X4805440Y8692637D2*
X4828053Y8715250D1*
X5254500D1*
X5540250Y8429500D1*
X6643793D1*
X6667377Y8453083D1*
X6683250Y8468957D1*
Y8683500D1*
X6667377Y7778627D2*
X6683250D1*
Y8453083D1*
X6667377D1*
X11626363Y9288967D2*
X11074383Y8736987D1*
Y7959557D1*
X10891823Y7776997D1*
X10474290D1*
X10469457Y7781830D1*
X7702597Y1963723D2*
X7697667Y1968653D1*
Y2481620D1*
X7464787Y2714500D1*
Y3082113D1*
X7468837Y3086163D1*
Y4356163D2*
X7427750Y4397250D1*
X7302377D1*
X7175377Y4270250D1*
Y3286000D1*
X7375213Y3086163D1*
X7468837D1*
X6175250Y1857250D2*
X6286377Y1968377D1*
X6681943D1*
X6686597Y1963723D1*
X7468837Y3340163D2*
X7494050Y3365377D1*
X8080250D1*
X8604127D2*
X8080250D1*
X7468837Y4102163D2*
X7541673Y4175000D1*
X8334250D1*
X8540627Y4381377D1*
X8604127D1*
X7468837Y4102163D2*
X7443623Y4127377D1*
X7334127D1*
X7270627Y4063877D1*
Y3714623D1*
X7391087Y3594163D1*
X7468837D1*
Y3848163D2*
X7494050Y3873377D1*
X8080250D1*
X8175497D1*
X8334113Y3714760D1*
X9340737D1*
Y3968760D2*
X9340870Y3968627D1*
X9445500D1*
X9556627Y3857500D1*
Y3333627D1*
X9429760Y3206760D1*
X9340737D1*
X10102737Y3714760D2*
X10118477Y3730500D1*
X10191627D1*
X10302750Y3619377D1*
Y3063750D1*
X10191760Y2952760D1*
X10102737D1*
X8191377Y1984250D2*
X8223127Y2016000D1*
Y2508127D1*
X8826377Y3111377D1*
X9340737Y3460760D2*
X9324727Y3444750D1*
X8969250D1*
X8826377Y3301877D1*
Y3111377D1*
X10102737Y3206760D2*
X10086727Y3190750D1*
X10048750D1*
X9937627Y3079627D1*
X8826377D1*
Y3111377D1*
X3508250Y9709530D2*
Y10096377D1*
X3952750Y10540877D1*
X4144843D1*
X4161677Y10557710D1*
X4798520D2*
X5178360Y10177870D1*
X5306017D1*
X5799977Y10572330D2*
X5785357Y10557710D1*
X5395943D1*
X4805440Y9454637D2*
X4814577Y9445500D1*
X4905250D1*
X5016080Y9556330D1*
X5799977D1*
X6203273D1*
X4290017Y10177870D2*
X4287897Y10175750D1*
X4016250D1*
X3921000D1*
X3778127Y10032877D1*
Y9604247D1*
X3905123Y9477250D1*
X4020827D1*
X4043440Y9454637D1*
Y8692637D2*
X4042547Y8693530D1*
X3508250D1*
X3063750D2*
X3508250D1*
X4043440Y8946637D2*
X4018430Y8921627D1*
X2968500D1*
X2762967Y8716093D1*
Y8693530D1*
X4043440Y9200637D2*
X4034303Y9191500D1*
X3397127D1*
X3270127Y9318500D1*
Y10298257D1*
X3450483Y10478613D1*
X4805440Y8946637D2*
X4814577Y8937500D1*
X5417363D1*
X5670500Y8684363D1*
X2877650Y2342737D2*
X2677913Y2143000D1*
Y1773040D1*
X2831827Y1619127D1*
X3809877D1*
X4063877Y1873127D1*
X4143250D1*
X4147887Y2366130D2*
X4143250Y2361493D1*
Y1873127D1*
X3385887Y3382133D2*
X3362490Y3358737D1*
X2877650D1*
X4147887Y2620130D2*
X4162883Y2635127D1*
X4254377D1*
X4524250Y2365253D1*
X5016377Y1873127D1*
X5388037D1*
X5411823Y1849340D1*
X4147887Y3128130D2*
X4258133Y3238377D1*
X5175127D1*
X5381500Y3444750D1*
Y5349753D1*
X4063877Y6667377D1*
Y7286500D1*
X3365377Y7985000D1*
X3230377D1*
X5028950Y7666380D2*
X5030933Y7668363D1*
X5670500D1*
X5159250Y6953127D2*
X5670500Y7464377D1*
Y7668363D1*
X4147887Y3382133D2*
X4178753Y3413000D1*
X5079873D1*
X5222750Y3555877D1*
Y5318000D1*
X3762250Y6778500D1*
X2730377Y7985000D2*
X2555750D1*
X2238250Y8302500D1*
X1984250D1*
X1635000Y8651750D1*
Y9413197D1*
X1931333Y9709530D1*
X1936627Y9714823D1*
Y9826503D1*
X2434483Y10324360D1*
Y10478613D1*
X3762250Y7278500D2*
X3738373Y7302377D1*
X3603500D1*
X2984377Y7921500D1*
Y8096127D1*
X2857377Y8223127D1*
X2603377D1*
X2254127Y8572377D1*
Y8683470D1*
X2264187Y8693530D1*
X2762967Y9709530D2*
X2260810Y9207373D1*
Y8696907D1*
X2264187Y8693530D1*
X4147887Y3636133D2*
X4157103Y3626917D1*
X4658937D1*
X4147887Y4144133D2*
X4162880Y4159127D1*
X4270250D1*
X4658937Y4547813D1*
Y4642917D1*
X3063750Y6778500D2*
X3143127D1*
X3270127Y6651500D1*
Y6508627D1*
X4540127Y5238627D1*
Y4810000D1*
X4658937Y4691190D1*
Y4642917D1*
X4147887Y3890130D2*
X4131133Y3873377D1*
X4000377D1*
X3889250Y3762250D1*
Y2095373D1*
X3682877Y1889000D1*
X3635250D1*
X4147887Y4398133D2*
X4147003Y4397250D1*
X4063877D1*
X3524127Y4937000D1*
X2936753D1*
X2762127Y5111627D1*
Y7115880D1*
X2812233Y7165987D1*
X2558233Y7419587D2*
X2548443Y7429377D1*
X2174750D1*
X1714377Y7413500D2*
X1730253Y7429377D1*
X2174750D1*
X1682627Y7937377D2*
X1690627Y7929377D1*
X2174750D1*
X4127377Y5286250D2*
X4147887Y5265740D1*
Y4652130D1*
X3079627Y6397500D2*
Y5349753D1*
X2984377Y5254503D1*
Y5238627D1*
X3619377Y5286250D2*
X3016127D1*
X2968503Y5238627D1*
X2984377D1*
X3385887Y4144133D2*
X3370893Y4159127D1*
X3047877D1*
X2984377Y4222627D1*
X3385887Y4652130D2*
X3385007Y4651250D1*
X2809750D1*
X2587500Y4873500D1*
Y5794250D1*
X2460500Y5921250D1*
X2349377D1*
X2317627Y5413250D2*
Y4873500D1*
X2746250Y4444877D1*
X3339143D1*
X3385887Y4398133D1*
Y2366133D2*
X3381250Y2361497D1*
Y2270000D1*
X3032000Y1920750D1*
X2857373D1*
X2841500Y1904877D1*
X2206500Y2619250D2*
X2207383Y2620133D1*
X3385887D1*
X2476377Y2873250D2*
X2477260Y2874133D1*
X3385887D1*
X1714377Y2635127D2*
X1952500Y2873250D1*
X2476377D1*
X1825937Y3131263D2*
X2476377Y3128130D1*
X3385887D1*
X2476377Y3381250D2*
Y3128130D1*
X1519933Y4615547D2*
X1460377Y4555990D1*
Y3984500D1*
X1825500Y3619377D1*
X4805440Y9200637D2*
X4814577Y9191500D1*
X4952873D1*
X5092897Y9331523D1*
X7711137D1*
X8473137Y9077523D2*
X8842250Y9446637D1*
Y9556627D1*
X4043440Y9708637D2*
X4266053Y9931250D1*
X5908917D1*
X6597840Y10620173D1*
X8794703D1*
X8842250Y10572627D1*
X4043440Y8438637D2*
X4052577Y8429500D1*
X4175000D1*
X4302000Y8556500D1*
D15*
X5095753D1*
D13*
X5429127Y8223127D1*
X5730750D1*
X6933017Y7020860D1*
X7715807D1*
X1334770Y7211293D2*
D16*
X1358440D1*
X1334770Y7148127D2*
X1417863D1*
X1334770Y7084960D2*
X1477380D1*
X1334677Y7021793D2*
X1536807D1*
X1334677Y6958627D2*
X1596237D1*
X1334587Y6895460D2*
X1655663D1*
X1334587Y6832293D2*
X1715180D1*
X1334587Y6769127D2*
X1774607D1*
X1371773Y6705960D2*
X2012497D1*
X1434663Y6642793D2*
X2013410D1*
X1497553Y6579627D2*
X2014320D1*
X1560353Y6516460D2*
X2015233D1*
X1618140Y6453293D2*
X2016143D1*
X1618140Y6390127D2*
X2017057D1*
X1653050Y6326960D2*
X2017967D1*
X1328460Y7249807D2*
X1328197Y6743397D1*
X1605710Y6464003D1*
X1609357Y6457490D1*
X1611383Y6450307D1*
X1611773Y6422007D1*
Y6368020D1*
X1655160Y6317040D1*
X2024563Y6317017D1*
X2018267Y6748420D1*
X1805327Y6752077D1*
X1798207Y6754317D1*
X1791810Y6758160D1*
X1772127Y6778500D1*
X1328410Y7249940D1*
D22*
X16673597Y3282180D3*
X4161677Y10557710D3*
X9476357Y7520723D3*
Y7018693D3*
D23*
X15880150Y2880920D3*
D24*
Y2370920D3*
D25*
X14414377Y2349377D3*
Y2857377D3*
D23*
X15676500Y4016250D3*
D24*
X16176500D3*
D26*
X16779750Y5302127D3*
Y4794127D3*
X15668500Y5905377D3*
X16176500D3*
D23*
X16430500Y6318127D3*
D24*
Y6818127D3*
D23*
X16275750Y7377750D3*
D24*
X16775750D3*
D25*
X2539877Y3698750D3*
Y4206750D3*
D26*
X5778377Y3365377D3*
Y2857377D3*
X6683250Y6413377D3*
Y6921377D3*
X8080250Y3365377D3*
Y3873377D3*
D25*
X8191377Y1476250D3*
Y1984250D3*
D26*
X4143250Y1365127D3*
Y1873127D3*
D23*
X4659250Y6953127D3*
D24*
X5159250D3*
D23*
X3230377Y7985000D3*
D24*
X2730377D3*
D23*
X3762250Y6778500D3*
D24*
Y7278500D3*
D26*
X3635250Y1381000D3*
Y1889000D3*
D23*
X2174750Y7429377D3*
D24*
Y7929377D3*
D26*
X4127377Y5286250D3*
X3619377D3*
D25*
X2317627Y5413250D3*
X1809627D3*
X2349377Y5921250D3*
X1841377D3*
X14160377Y9413750D3*
Y9921750D3*
D26*
X2206500Y2619250D3*
Y2111250D3*
X1714377Y2635127D3*
Y2127127D3*
D25*
X2476377Y3381250D3*
Y2873250D3*
D27*
X1889000Y4952873D3*
X1519933Y4615547D3*
D28*
X15939373Y6057627D3*
D29*
Y7067627D3*
D28*
X6175677Y3855533D3*
D29*
Y4865533D3*
D28*
X5921283Y6166310D3*
D29*
Y7176310D3*
D30*
X16155270Y4653330D3*
Y5003330D3*
Y5353330D3*
X15455270Y4653330D3*
Y5353330D3*
D31*
X15805270Y4499890D3*
Y5503330D3*
D22*
X4798520Y10557710D3*
X16687120Y2376247D3*
X1476250Y8445377D3*
X2841500Y1365127D3*
X6175250Y2365253D3*
X10286877Y6016500D3*
X9476357Y6521510D3*
D28*
X16192377Y7921500D3*
D29*
X15938377Y8175500D3*
X16192377Y8429500D3*
D22*
X6683250Y8683500D3*
X16684500Y4143250D3*
D28*
X15303377Y9894583D3*
D29*
X15049377Y9640583D3*
X14795377Y9894583D3*
D22*
X1682627Y7937377D3*
D32*
X6683250Y10302750D3*
Y9524877D3*
X7191250Y10191627D3*
Y8826377D3*
X8842250Y10572627D3*
Y9556627D3*
X9096250Y9937627D3*
Y8175503D3*
X10232347Y10731377D3*
Y9810627D3*
X10489730Y10731377D3*
Y9810627D3*
X7238877Y7445250D3*
Y6619750D3*
X4905250Y3984500D3*
Y2698627D3*
X12318877Y6476877D3*
Y5302127D3*
X6667377Y7778627D3*
X10469457Y7781830D3*
X8588250Y4873500D3*
X10620250D3*
D22*
X2841500Y1904877D3*
X6175250Y1857250D3*
D33*
X14204383Y6132690D3*
Y5624690D3*
X14457983Y5878690D3*
X3066233Y7419587D3*
X2558233D3*
X2812233Y7165987D3*
D22*
X5395943Y10557710D3*
D34*
X16696593Y7915893D3*
D35*
Y8931893D3*
D34*
X15958707Y7413500D3*
D35*
X14942707D3*
D34*
X14541377Y6746750D3*
D35*
X15557377D3*
D34*
X14525500Y6254627D3*
D35*
X15541500D3*
D34*
X13806103Y5624650D3*
D35*
Y6640650D3*
D34*
X11477500Y5508500D3*
D35*
Y4492500D3*
D34*
X11191750Y5238627D3*
D35*
X10175750D3*
D34*
X10600400Y6017410D3*
D35*
X11616400D3*
D34*
X14541377Y7111877D3*
D35*
X15557377D3*
D34*
X16176500Y8874000D3*
D35*
Y9890000D3*
D34*
X15795500Y9894643D3*
D35*
Y8878643D3*
D34*
X11715627Y3857500D3*
D35*
X12731627D3*
D34*
X13318517Y3865360D3*
D35*
Y4881360D3*
D34*
X13319000Y7064250D3*
D35*
X12303000D3*
D34*
X12239500Y9048627D3*
D35*
Y8032627D3*
D34*
X12509377Y7794500D3*
D35*
X13525377D3*
D34*
X14017500Y7778627D3*
D35*
Y8794627D3*
D34*
X10595637Y6411663D3*
D35*
X11611637D3*
D34*
X10598230Y6775267D3*
D35*
X11614230D3*
D34*
X10609407Y7147667D3*
D35*
X11625407D3*
D34*
X10605443Y7524263D3*
D35*
X11621443D3*
D34*
X9983197Y8411870D3*
D35*
Y9427870D3*
D34*
X10232737Y8412767D3*
D35*
Y9428767D3*
D34*
X10489730Y8412630D3*
D35*
Y9428630D3*
D34*
X10112250Y6778500D3*
D35*
X9096250D3*
D34*
X5778377Y4873500D3*
D35*
Y3857500D3*
D34*
X6302250Y7159500D3*
D35*
Y6143500D3*
D34*
X7697667Y2481620D3*
D35*
X6681667D3*
D34*
X7702597Y1963723D3*
D35*
X6686597D3*
D34*
X8604127Y4381377D3*
D35*
Y3365377D3*
D34*
X8826377Y2095377D3*
D35*
Y3111377D3*
D34*
X3508250Y9709530D3*
D35*
Y8693530D3*
D34*
X5306017Y10177870D3*
D35*
X4290017D3*
D34*
X5799977Y10572330D3*
D35*
Y9556330D3*
D34*
X6203273Y10572330D3*
D35*
Y9556330D3*
D34*
X3000250Y10175750D3*
D35*
X4016250D3*
D34*
X3063750Y9709530D3*
D35*
Y8693530D3*
D34*
X5670500Y7668363D3*
D35*
Y8684363D3*
D34*
X2434483Y10478613D3*
D35*
X3450483D3*
D34*
X2762967Y9709530D3*
D35*
Y8693530D3*
D34*
X2877650Y3358737D3*
D35*
Y2342737D3*
D34*
X4524250Y1349253D3*
D35*
Y2365253D3*
D34*
X5411823Y2865340D3*
D35*
Y1849340D3*
D34*
X4658937Y3626917D3*
D35*
Y4642917D3*
D34*
X3063750Y6778500D3*
D35*
X2047750D3*
D34*
X1714377Y7413500D3*
D35*
Y6397500D3*
D34*
X3079627D3*
D35*
X2063627D3*
D34*
X2984377Y4222627D3*
D35*
Y5238627D3*
D34*
X5028950Y7666380D3*
D35*
X4012950D3*
D34*
X1931333Y9709530D3*
D35*
Y8693530D3*
D34*
X2264187D3*
D35*
Y9709530D3*
D22*
X9476357Y6001140D3*
D28*
X7039470Y5267707D3*
D29*
X6785470Y5521707D3*
X7039470Y5775707D3*
D28*
X11951317Y5861723D3*
D29*
Y5607723D3*
Y5353723D3*
Y5099723D3*
Y4845723D3*
Y4591723D3*
Y4337723D3*
X12713317D3*
Y4591723D3*
Y4845723D3*
Y5099723D3*
Y5353723D3*
Y5607723D3*
Y5861723D3*
D28*
X12755847Y9786797D3*
D29*
Y9532797D3*
Y9278797D3*
Y9024797D3*
Y8770797D3*
Y8516797D3*
Y8262797D3*
X13517847D3*
Y8516797D3*
Y8770797D3*
Y9024797D3*
Y9278797D3*
Y9532797D3*
Y9786797D3*
D28*
X15349850Y7928773D3*
D29*
Y8182773D3*
Y8436773D3*
Y8690773D3*
X14587850D3*
Y8436773D3*
Y8182773D3*
Y7928773D3*
D28*
X7468837Y3086163D3*
D29*
Y3340163D3*
Y3594163D3*
Y3848163D3*
Y4102163D3*
Y4356163D3*
Y4610163D3*
X6706837D3*
Y4356163D3*
Y4102163D3*
Y3848163D3*
Y3594163D3*
Y3340163D3*
Y3086163D3*
D28*
X11626363Y8272967D3*
D29*
Y8526967D3*
Y8780967D3*
Y9034967D3*
Y9288967D3*
Y9542967D3*
Y9796967D3*
Y10050967D3*
X10864363D3*
Y9796967D3*
Y9542967D3*
Y9288967D3*
Y9034967D3*
Y8780967D3*
Y8526967D3*
Y8272967D3*
D28*
X7711137Y9839523D3*
D29*
Y9585523D3*
Y9331523D3*
Y9077523D3*
Y8823523D3*
Y8569523D3*
Y8315523D3*
Y8061523D3*
X8473137D3*
Y8315523D3*
Y8569523D3*
Y8823523D3*
Y9077523D3*
Y9331523D3*
Y9585523D3*
Y9839523D3*
D28*
X7715807Y7528860D3*
D29*
Y7274860D3*
Y7020860D3*
Y6766860D3*
Y6512860D3*
Y6258860D3*
Y6004860D3*
Y5750860D3*
X8477807D3*
Y6004860D3*
Y6258860D3*
Y6512860D3*
Y6766860D3*
Y7020860D3*
Y7274860D3*
Y7528860D3*
D28*
X4043440Y9708637D3*
D29*
Y9454637D3*
Y9200637D3*
Y8946637D3*
Y8692637D3*
Y8438637D3*
Y8184637D3*
X4805440D3*
Y8438637D3*
Y8692637D3*
Y8946637D3*
Y9200637D3*
Y9454637D3*
Y9708637D3*
D28*
X4147887Y2366130D3*
D29*
Y2620130D3*
Y2874130D3*
Y3128130D3*
Y3382133D3*
Y3636133D3*
Y3890130D3*
Y4144133D3*
Y4398133D3*
Y4652130D3*
X3385887Y2366133D3*
Y2620133D3*
Y2874133D3*
Y3128130D3*
Y3382133D3*
Y3636133D3*
Y3890130D3*
Y4144133D3*
Y4398133D3*
Y4652130D3*
D28*
X9340737Y4222760D3*
D29*
Y3968760D3*
Y3714760D3*
Y3460760D3*
Y3206760D3*
Y2952760D3*
Y2698760D3*
X10102737D3*
Y2952760D3*
Y3206760D3*
Y3460760D3*
Y3714760D3*
Y3968760D3*
Y4222760D3*
D36*
X15147307Y3472110D3*
D37*
X14893307D3*
X14639307D3*
D30*
X1825500Y3619377D3*
X1825937Y3131263D3*
M02*
