G04 DipTrace 3.3.1.1*
G04 Bottom.gbr*
%MOIN*%
G04 #@! TF.FileFunction,Copper,L2,Bot*
G04 #@! TF.Part,Single*
%AMOUTLINE0*
4,1,4,
-0.022272,0.022272,
0.022272,0.022272,
0.022272,-0.022272,
-0.022272,-0.022272,
-0.022272,0.022272,
0*%
%AMOUTLINE3*
4,1,4,
0.022272,-0.022272,
-0.022272,-0.022272,
-0.022272,0.022272,
0.022272,0.022272,
0.022272,-0.022272,
0*%
G04 #@! TA.AperFunction,Conductor*
%ADD13C,0.025984*%
%ADD14C,0.03937*%
G04 #@! TA.AperFunction,CopperBalancing*
%ADD15C,0.025*%
G04 #@! TA.AperFunction,ComponentPad*
%ADD17R,0.05315X0.05315*%
%ADD18C,0.05315*%
%ADD19C,0.064961*%
%ADD20R,0.059055X0.059055*%
%ADD21C,0.059055*%
%ADD22R,0.062992X0.062992*%
%ADD23C,0.062992*%
%ADD24R,0.070866X0.070866*%
%ADD25C,0.070866*%
%ADD26R,0.094488X0.094488*%
%ADD27C,0.094488*%
%ADD28C,0.177165*%
%ADD29C,0.133858*%
%ADD30C,0.204724*%
%ADD31C,0.19685*%
%ADD32C,0.177165*%
%ADD33C,0.055118*%
%ADD34C,0.06*%
%ADD35C,0.06*%
%ADD36C,0.07874*%
%ADD37C,0.062992*%
%ADD38R,0.125984X0.062992*%
%ADD39O,0.125984X0.062992*%
%ADD40R,0.074803X0.074803*%
%ADD41C,0.074803*%
%ADD42O,0.141732X0.070866*%
%ADD43O,0.070866X0.141732*%
G04 #@! TA.AperFunction,ViaPad*
%ADD44C,0.04*%
G04 #@! TA.AperFunction,ComponentPad*
%ADD107OUTLINE0*%
%ADD110OUTLINE3*%
%FSLAX26Y26*%
G04*
G70*
G90*
G75*
G01*
G04 Bottom*
%LPD*%
X1806163Y971916D2*
D13*
Y923940D1*
X1776509Y894286D1*
X1659220D1*
X1627643Y925864D1*
Y1070218D1*
X4174307Y3001188D2*
X4126987D1*
X4079278Y3048896D1*
Y3501427D1*
X4054772Y3525933D1*
X4022358D1*
X3985488Y3562803D1*
X3510371D1*
X3387965Y3685210D1*
X3206008D1*
X1335261Y2966520D2*
D14*
Y3140156D1*
X1186031Y3289386D1*
X939192D1*
X773419Y3123613D1*
X1335261Y2966520D2*
X1356509D1*
X1407606Y2915423D1*
Y1824513D1*
X1096786Y1513693D1*
X977324D1*
X752146Y2531898D2*
Y2440399D1*
X802448Y2390097D1*
X1293777D1*
X2218731Y1674420D2*
Y1561454D1*
X2219248Y1560937D1*
X1673189Y3201188D2*
X1964345D1*
X2120745Y3044787D1*
X2627299Y3656329D2*
X2596055Y3687573D1*
X2300190D1*
X2257710Y3730054D1*
X2219567D1*
X2120745Y3044787D2*
X2123009D1*
X2219226Y2948571D1*
Y2893597D1*
X2270436D1*
X2359719Y2804314D1*
Y2748831D1*
X1293777Y1082480D2*
Y1106550D1*
X1340272Y1153045D1*
X2007343D1*
X2113017Y1258719D1*
Y1522906D1*
X2151049Y1560937D1*
X2219248D1*
X2750420Y1261045D2*
X2808832D1*
X2895669Y1347882D1*
Y1489882D1*
X2966832Y1561045D1*
X3050420D1*
X3013043D1*
X2749148Y1824940D1*
X2218731Y1674420D2*
X2234811D1*
X2385331Y1824940D1*
X2749148D1*
X2797266D1*
X2905041Y1932714D1*
Y2047541D1*
X2982440Y2124940D1*
X3049148D1*
X3856808Y3499472D2*
X3910064D1*
X3952429Y3457108D1*
Y3239259D1*
X4022749Y3168938D1*
Y3083526D1*
X3881075Y2941852D1*
Y2893667D1*
X3050420Y1561045D2*
Y1610668D1*
X3081605Y1641853D1*
X3540933D1*
X3581075Y1601711D1*
Y1561018D1*
X2533995Y3261294D2*
Y3347173D1*
X2704340Y3517518D1*
Y3579289D1*
X2627299Y3656329D1*
X2359719Y2748831D2*
X2438732D1*
X2524550Y2834648D1*
Y3261294D1*
X2533995D1*
X3049408Y2673900D2*
X3198937D1*
X3264068Y2608769D1*
Y2308609D1*
X3080399Y2124940D1*
X3049148D1*
X746428Y1337076D2*
Y1213004D1*
X876951Y1082480D1*
X1293777D1*
X3881075Y2893667D2*
Y2900224D1*
X3800642Y2980657D1*
X2944088D1*
Y2684870D1*
X2955058Y2673900D1*
X3049408D1*
X2533995Y3261294D2*
Y3230533D1*
X2669869Y3094659D1*
X2922520D1*
X2944088Y3073091D1*
Y2980657D1*
X1919567Y3630054D2*
D13*
X1796962D1*
X1776175Y3609266D1*
Y3409252D1*
X1802496Y2382564D2*
Y2235933D1*
X1960251Y2078178D1*
X2152365D1*
X2179457Y2051087D1*
X2360329Y3326343D2*
X2417833D1*
X2542298Y3450807D1*
Y3512322D1*
X2424566Y3630054D1*
X2219567D1*
X1673189Y3101188D2*
X1629417D1*
X1564308Y3166297D1*
Y3343365D1*
X1610063Y3389119D1*
Y3507743D1*
X1723602Y3621282D1*
Y3660566D1*
X1962570Y3899533D1*
X2199307D1*
X2344199Y3754640D1*
X2359226D1*
X1919248Y1460937D2*
X1803722D1*
X1803337Y1461322D1*
Y1787900D1*
X1996627Y1981190D1*
X2189154D1*
X2423255Y2215291D1*
Y2645617D1*
X2219248Y1460937D2*
X2344461D1*
X2373026Y1489503D1*
Y1676528D1*
X2247797Y1801757D2*
X2046068D1*
X1918731Y1674420D1*
X3183531Y2139831D2*
X3196056D1*
X3243891Y2187665D1*
X3397948D1*
X3413953Y2171660D1*
X3905734D1*
X4269906Y2535832D1*
Y3290709D1*
X4259427Y3301188D1*
X4174307D1*
X1919226Y2493597D2*
Y2393597D1*
X1995353D1*
X2017364Y2371587D1*
Y2240059D1*
X2095228Y2162194D1*
X2250215D1*
X2371273Y2283252D1*
Y2363220D1*
X2545564Y2355018D2*
X2715755Y2184828D1*
X3072407D1*
X3112490Y2224911D1*
Y2252161D1*
X3196541Y2336213D1*
X3277547Y2135186D2*
X3866682D1*
X4005512Y1996357D1*
Y1727570D1*
X2219226Y2793597D2*
Y2693597D1*
Y2393597D2*
X2304486D1*
X2359719Y2448831D1*
X2219226Y2693597D2*
X2276164D1*
X2359719Y2610042D1*
Y2448831D1*
X1919226Y2793597D2*
X1851142D1*
X1743551Y2901188D1*
X1673189D1*
X1919226Y2893597D2*
X1989762D1*
X2019844Y2863516D1*
Y2720383D1*
X1993058Y2693597D1*
X1919226D1*
Y2893597D2*
X2047604D1*
X2100440Y2946433D1*
X2219226Y2493597D2*
X2138736D1*
X2038736Y2593597D1*
X1919226D1*
X1733562D1*
X1565471Y2761688D1*
Y2957693D1*
X1608966Y3001188D1*
X1673189D1*
X2582984Y2840829D2*
Y2800458D1*
X2477236Y2694710D1*
X2375841D1*
X2357665Y2676534D1*
X2950900Y549680D2*
Y633631D1*
X2423747Y1160785D1*
Y1767610D1*
X2128899Y2232693D2*
X2076289Y2285303D1*
Y2475757D1*
X3048770Y2343336D2*
X3065037D1*
X3214134Y2492433D1*
X2748770Y2343336D2*
Y2449877D1*
X2666231Y2532416D1*
Y2742463D1*
X2697668Y2773900D1*
X2749408D1*
X2455852Y3187106D2*
X2432371Y3163626D1*
Y2941349D1*
X2474676Y2899045D1*
X2489392Y2179352D2*
Y2063776D1*
X2490133Y2063035D1*
X3881075Y2393667D2*
X3827406D1*
X3627406Y2593667D1*
X3581075D1*
X3908605Y2017671D2*
X3764567Y1873633D1*
X3375500D1*
X3218088Y1716220D1*
X4174332Y1922928D2*
X4157304D1*
X4067997Y1833621D1*
Y1547367D1*
X3791694Y2076386D2*
X3489619D1*
X3144748Y1731514D1*
X3025037D1*
X2977896Y1684374D1*
X2919522Y1584049D2*
X2796518Y1461045D1*
X2750420D1*
X3237896Y3214761D2*
Y3218545D1*
X3318824Y3299472D1*
X3556808D1*
X3237896Y3214761D2*
Y3207211D1*
X3329012Y3116096D1*
X3973450D1*
X4174332Y1522928D2*
X4127873D1*
X4052496Y1447551D1*
Y1285151D1*
X3953253Y1185908D1*
X3822432D1*
X3740776Y1267564D1*
Y1310420D1*
X3690177Y1361018D1*
X3581075D1*
X3393978Y2899545D2*
X3242652D1*
X3285193Y1236189D2*
X3386900Y1134482D1*
X4130127D1*
X4174332Y1178686D1*
Y1422928D1*
X3879282Y3021727D2*
X3825600Y3075409D1*
X3724495D1*
X2673257Y2385280D2*
X2653650Y2404887D1*
X2529381D1*
X2492031Y2367538D1*
Y2298588D1*
X2556735Y2233885D1*
Y1982773D1*
X2529004Y1955042D1*
Y1890339D1*
X2526000Y1756046D2*
X2628004Y1654042D1*
Y1091818D1*
X3050900Y668921D1*
Y549680D1*
X3881075Y2693667D2*
X3900178D1*
X4107699Y2901188D1*
X4174307D1*
D44*
X1627643Y1070218D3*
X1802496Y2382564D3*
X2179457Y2051087D3*
X2423255Y2645617D3*
X2373026Y1676528D3*
X2247797Y1801757D3*
X2373026Y1676528D3*
X2371273Y2363220D3*
X2545564Y2355018D3*
X3196541Y2336213D3*
X3277547Y2135186D3*
X4005512Y1727570D3*
X2100440Y2946433D3*
X2357665Y2676534D3*
X2423747Y1767610D3*
X2128899Y2232693D3*
X2076289Y2475757D3*
X3214134Y2492433D3*
X2455852Y3187106D3*
X2474676Y2899045D3*
X3908605Y2017671D3*
X3218088Y1716220D3*
X4067997Y1547367D3*
X3791694Y2076386D3*
X2977896Y1684374D3*
X2919522Y1584049D3*
X3973450Y3116096D3*
X3393978Y2899545D3*
X3242652D3*
X3285193Y1236189D3*
X3879282Y3021727D3*
X3724495Y3075409D3*
X2673257Y2385280D3*
X2529004Y1890339D3*
X2526000Y1756046D3*
X3465692Y2883718D3*
X3453563Y2096154D3*
X3284598Y2233472D3*
X408966Y4293262D2*
D15*
X424635D1*
X563016D2*
X1218429D1*
X1345614D2*
X1605440D1*
X579631Y4268394D2*
X1213656D1*
X1350387D2*
X1605332D1*
X586807Y4243525D2*
X1218644D1*
X1345399D2*
X1605260D1*
X586879Y4218656D2*
X1236622D1*
X1327386D2*
X1605152D1*
X579882Y4193787D2*
X705608D1*
X822244D2*
X1605081D1*
X409001Y4168919D2*
X424097D1*
X563555D2*
X674783D1*
X853033D2*
X1604974D1*
X409001Y4144050D2*
X462636D1*
X525014D2*
X658205D1*
X869647D2*
X1318654D1*
X1402671D2*
X1476257D1*
X1560274D2*
X1604902D1*
X409001Y4119181D2*
X649341D1*
X878510D2*
X1302900D1*
X1418424D2*
X1460504D1*
X1576026D2*
X1604794D1*
X409001Y4094312D2*
X646364D1*
X881488D2*
X917181D1*
X996497D2*
X1256538D1*
X1420720D2*
X1458243D1*
X1578287D2*
X1604722D1*
X409001Y4069444D2*
X648803D1*
X1041173D2*
X1224924D1*
X1411427D2*
X1467537D1*
X1569029D2*
X1604614D1*
X409037Y4044575D2*
X657092D1*
X1063134D2*
X1214769D1*
X1373676D2*
X1505251D1*
X1531280D2*
X1593992D1*
X409037Y4019706D2*
X672845D1*
X1076017D2*
X1214912D1*
X1349096D2*
X1569555D1*
X409037Y3994837D2*
X701625D1*
X1082692D2*
X1225534D1*
X1338474D2*
X1545118D1*
X409037Y3969969D2*
X829516D1*
X1084163D2*
X1259085D1*
X1304921D2*
X1520681D1*
X409037Y3945100D2*
X833068D1*
X1080610D2*
X1496280D1*
X409037Y3920231D2*
X842076D1*
X1071567D2*
X1471843D1*
X409073Y3895362D2*
X858152D1*
X1055526D2*
X1447406D1*
X409073Y3870493D2*
X885997D1*
X1027681D2*
X1422969D1*
X409073Y3845625D2*
X1398531D1*
X409073Y3820756D2*
X1380912D1*
X409073Y3795887D2*
X1380949D1*
X409073Y3771018D2*
X1380984D1*
X409109Y3746150D2*
X1380984D1*
X409109Y3721281D2*
X725308D1*
X804875D2*
X1381020D1*
X409109Y3696412D2*
X709197D1*
X820988D2*
X1381056D1*
X409109Y3671543D2*
X707115D1*
X823033D2*
X1381056D1*
X409109Y3646675D2*
X717163D1*
X812986D2*
X1381092D1*
X409144Y3621806D2*
X1381127D1*
X409144Y3596937D2*
X1381127D1*
X409144Y3572068D2*
X1381164D1*
X409144Y3547199D2*
X1160045D1*
X1258381D2*
X1381199D1*
X409144Y3522331D2*
X1148814D1*
X1269612D2*
X1381199D1*
X409144Y3497462D2*
X1149352D1*
X1269073D2*
X1381235D1*
X409181Y3472593D2*
X1162055D1*
X1256335D2*
X1381272D1*
X409181Y3447724D2*
X1142820D1*
X1271693D2*
X1291490D1*
X409181Y3422856D2*
X1142820D1*
X409181Y3397987D2*
X1142820D1*
X409181Y3373118D2*
X1142820D1*
X409181Y3348249D2*
X1142820D1*
X1271693D2*
X1301249D1*
X1369262D2*
X1381379D1*
X409217Y3323381D2*
X905448D1*
X1219769D2*
X1381415D1*
X409217Y3298512D2*
X880508D1*
X1244709D2*
X1381450D1*
X409217Y3273643D2*
X855639D1*
X1269576D2*
X1381450D1*
X409217Y3248774D2*
X830772D1*
X1294444D2*
X1381487D1*
X409217Y3223906D2*
X805904D1*
X941522D2*
X1183693D1*
X1319311D2*
X1381522D1*
X409252Y3199037D2*
X781037D1*
X916655D2*
X1208560D1*
X1344178D2*
X1381522D1*
X409252Y3174168D2*
X714902D1*
X891787D2*
X1233428D1*
X1369047D2*
X1381558D1*
X409252Y3149299D2*
X714902D1*
X866920D2*
X1258297D1*
X409252Y3124430D2*
X714902D1*
X842051D2*
X1283199D1*
X409252Y3099562D2*
X714902D1*
X831932D2*
X1286573D1*
X409252Y3074693D2*
X714902D1*
X831932D2*
X1286573D1*
X409289Y3049824D2*
X1286573D1*
X409289Y3024955D2*
X1187425D1*
X1227052D2*
X1270820D1*
X409289Y3000087D2*
X1153371D1*
X1261108D2*
X1270820D1*
X409289Y2975218D2*
X1143610D1*
X409289Y2950349D2*
X1144723D1*
X409289Y2925480D2*
X1157497D1*
X1257017D2*
X1270820D1*
X409324Y2900612D2*
X1354609D1*
X409324Y2875743D2*
X1255605D1*
X1331979D2*
X1358916D1*
X409324Y2850874D2*
X1234971D1*
X409324Y2826005D2*
X1229374D1*
X409324Y2801136D2*
X1234182D1*
X409360Y2776268D2*
X588841D1*
X652619D2*
X1253236D1*
X1334311D2*
X1358916D1*
X409360Y2751399D2*
X565983D1*
X675513D2*
X1358916D1*
X409360Y2726530D2*
X560241D1*
X681219D2*
X840640D1*
X941630D2*
X1358916D1*
X409360Y2701661D2*
X565731D1*
X675728D2*
X830413D1*
X951857D2*
X1358916D1*
X409360Y2676793D2*
X588016D1*
X653480D2*
X831741D1*
X950566D2*
X1358916D1*
X409360Y2651924D2*
X845629D1*
X936643D2*
X1358916D1*
X409396Y2627055D2*
X1358916D1*
X409396Y2602186D2*
X1358916D1*
X409396Y2577318D2*
X704711D1*
X899573D2*
X1358916D1*
X409396Y2552449D2*
X689136D1*
X915148D2*
X1358916D1*
X409396Y2527580D2*
X685908D1*
X918378D2*
X1358916D1*
X409396Y2502711D2*
X692798D1*
X911488D2*
X1358916D1*
X409432Y2477843D2*
X703455D1*
X800820D2*
X815593D1*
X888701D2*
X1358916D1*
X409432Y2452974D2*
X703455D1*
X807387D2*
X1358916D1*
X409432Y2428105D2*
X705142D1*
X409432Y2403236D2*
X721505D1*
X409432Y2378367D2*
X746373D1*
X409467Y2353499D2*
X771778D1*
X409467Y2328630D2*
X1226252D1*
X409467Y2303761D2*
X1218214D1*
X409467Y2278892D2*
X1219075D1*
X409467Y2254024D2*
X1229230D1*
X409467Y2229155D2*
X1255928D1*
X1331656D2*
X1358916D1*
X409504Y2204286D2*
X1358916D1*
X409504Y2179417D2*
X1358916D1*
X409504Y2154549D2*
X1358916D1*
X409504Y2129680D2*
X1358916D1*
X409504Y2104811D2*
X1358916D1*
X409504Y2079942D2*
X1358916D1*
X409539Y2055073D2*
X1358916D1*
X409539Y2030205D2*
X801131D1*
X903343D2*
X1358916D1*
X409539Y2005336D2*
X771276D1*
X933234D2*
X1358916D1*
X409539Y1980467D2*
X756385D1*
X948126D2*
X1358916D1*
X409539Y1955598D2*
X749530D1*
X954979D2*
X1358916D1*
X409576Y1930730D2*
X749100D1*
X955409D2*
X1358916D1*
X409576Y1905861D2*
X754984D1*
X949525D2*
X1358916D1*
X409576Y1880992D2*
X768549D1*
X935925D2*
X1358916D1*
X409576Y1856123D2*
X795282D1*
X909227D2*
X1358916D1*
X409576Y1831255D2*
X1346535D1*
X409576Y1806386D2*
X1321668D1*
X409612Y1781517D2*
X1296801D1*
X409612Y1756648D2*
X1271932D1*
X409612Y1731780D2*
X1247064D1*
X409612Y1706911D2*
X1222197D1*
X1357815D2*
X1382993D1*
X409612Y1682042D2*
X1197329D1*
X1332948D2*
X1383030D1*
X409612Y1657173D2*
X1172461D1*
X1308080D2*
X1383030D1*
X409647Y1632304D2*
X1147593D1*
X1283211D2*
X1383066D1*
X409647Y1607436D2*
X1122726D1*
X1258344D2*
X1383101D1*
X409647Y1582567D2*
X578972D1*
X699950D2*
X1097858D1*
X1233476D2*
X1383101D1*
X409647Y1557698D2*
X578972D1*
X699950D2*
X935554D1*
X1208609D2*
X1229337D1*
X1358210D2*
X1383138D1*
X409647Y1532829D2*
X578972D1*
X699950D2*
X919047D1*
X1183741D2*
X1229337D1*
X1358210D2*
X1383173D1*
X409684Y1507961D2*
X578972D1*
X699950D2*
X916140D1*
X1158873D2*
X1229337D1*
X1358210D2*
X1383173D1*
X409684Y1483092D2*
X924429D1*
X1134005D2*
X1229337D1*
X1358210D2*
X1383209D1*
X409684Y1458223D2*
X954787D1*
X999835D2*
X1229337D1*
X1358210D2*
X1383245D1*
X409684Y1433354D2*
X1383245D1*
X409684Y1408486D2*
X1383281D1*
X409684Y1383617D2*
X700154D1*
X792711D2*
X880041D1*
X1012824D2*
X1383316D1*
X409719Y1358748D2*
X683827D1*
X809038D2*
X880041D1*
X1012824D2*
X1383316D1*
X409719Y1333879D2*
X680130D1*
X812735D2*
X880041D1*
X1012824D2*
X1383353D1*
X409719Y1309010D2*
X686517D1*
X806311D2*
X880041D1*
X1012824D2*
X1383388D1*
X409719Y1284142D2*
X697749D1*
X795115D2*
X880041D1*
X1012824D2*
X1383388D1*
X409719Y1259273D2*
X697749D1*
X795115D2*
X1383424D1*
X409719Y1234404D2*
X697749D1*
X795115D2*
X1383461D1*
X409755Y1209535D2*
X697892D1*
X817686D2*
X1383461D1*
X409755Y1184667D2*
X707474D1*
X842554D2*
X1304084D1*
X409755Y1159798D2*
X731840D1*
X867421D2*
X1279217D1*
X409755Y1134929D2*
X756707D1*
X892290D2*
X1254852D1*
X409755Y1110060D2*
X781575D1*
X409791Y1085192D2*
X806442D1*
X1358138D2*
X1383604D1*
X409791Y1060323D2*
X831310D1*
X1354119D2*
X1383639D1*
X409791Y1035454D2*
X1217531D1*
X1370016D2*
X1383639D1*
X409791Y1010585D2*
X1217531D1*
X1370016D2*
X1383676D1*
X409791Y985717D2*
X1217531D1*
X1370016D2*
X1383711D1*
X409791Y960848D2*
X1217531D1*
X1370016D2*
X1383711D1*
X409827Y935979D2*
X1217531D1*
X1370016D2*
X1383747D1*
X409827Y911110D2*
X1217531D1*
X1370016D2*
X1383783D1*
X409827Y886241D2*
X1383783D1*
X409827Y861373D2*
X1383819D1*
X409827Y836504D2*
X797364D1*
X895520D2*
X1383854D1*
X409827Y811635D2*
X766360D1*
X926559D2*
X1383854D1*
X409862Y786766D2*
X751037D1*
X941882D2*
X1383891D1*
X409862Y761898D2*
X743896D1*
X949022D2*
X1383927D1*
X409862Y737029D2*
X743214D1*
X949705D2*
X1383927D1*
X409862Y712160D2*
X748812D1*
X944106D2*
X1383962D1*
X409862Y687291D2*
X761982D1*
X930937D2*
X1383999D1*
X409899Y662423D2*
X787819D1*
X905100D2*
X1383999D1*
X409899Y637554D2*
X1384034D1*
X409899Y612685D2*
X1384071D1*
X409899Y587816D2*
X1384071D1*
X409899Y562948D2*
X433534D1*
X556306D2*
X1384106D1*
X576940Y538079D2*
X1384142D1*
X586556Y513210D2*
X1384142D1*
X588673Y488341D2*
X1384178D1*
X583865Y463472D2*
X1384214D1*
X409934Y438604D2*
X419094D1*
X570768D2*
X1384249D1*
X409934Y413735D2*
X447134D1*
X542706D2*
X1384249D1*
X726585Y3179633D2*
X764156D1*
X909202Y3324499D1*
X915064Y3328759D1*
X921520Y3332049D1*
X928412Y3334287D1*
X935568Y3335421D1*
X966751Y3335563D1*
X1189655Y3335421D1*
X1196811Y3334287D1*
X1203703Y3332049D1*
X1210159Y3328759D1*
X1216021Y3324499D1*
X1238171Y3302551D1*
X1370374Y3170146D1*
X1374634Y3164283D1*
X1377924Y3157828D1*
X1380163Y3150936D1*
X1381297Y3143780D1*
X1381438Y3112597D1*
Y3028449D1*
X1384182Y3028445D1*
X1383871Y3363182D1*
X1379049Y3357772D1*
X1371660Y3351461D1*
X1363374Y3346383D1*
X1354398Y3342664D1*
X1344949Y3340396D1*
X1335261Y3339634D1*
X1325573Y3340396D1*
X1316125Y3342664D1*
X1307148Y3346383D1*
X1298862Y3351461D1*
X1291474Y3357772D1*
X1285163Y3365160D1*
X1280085Y3373446D1*
X1276366Y3382423D1*
X1274098Y3391871D1*
X1273336Y3401559D1*
X1274098Y3411247D1*
X1276366Y3420696D1*
X1280085Y3429672D1*
X1285163Y3437958D1*
X1291474Y3445346D1*
X1298862Y3451657D1*
X1307148Y3456735D1*
X1316125Y3460454D1*
X1325573Y3462722D1*
X1335261Y3463484D1*
X1344949Y3462722D1*
X1354398Y3460454D1*
X1363374Y3456735D1*
X1371660Y3451657D1*
X1379049Y3445346D1*
X1383795Y3439941D1*
X1383559Y3824429D1*
X1384332Y3827264D1*
X1385745Y3829840D1*
X1393444Y3837896D1*
X1607064Y4055335D1*
X1608010Y4316774D1*
X1326614Y4317101D1*
X1332096Y4311424D1*
X1338171Y4303063D1*
X1342864Y4293854D1*
X1346056Y4284025D1*
X1347673Y4273818D1*
Y4263482D1*
X1346056Y4253274D1*
X1342864Y4243445D1*
X1338171Y4234236D1*
X1332096Y4225875D1*
X1324789Y4218568D1*
X1316428Y4212493D1*
X1307219Y4207801D1*
X1297390Y4204608D1*
X1287182Y4202991D1*
X1276846D1*
X1266639Y4204608D1*
X1256810Y4207801D1*
X1247601Y4212493D1*
X1239240Y4218568D1*
X1231933Y4225875D1*
X1225858Y4234236D1*
X1221165Y4243445D1*
X1217972Y4253274D1*
X1216356Y4263482D1*
Y4273818D1*
X1217972Y4284025D1*
X1221165Y4293854D1*
X1225858Y4303063D1*
X1231933Y4311424D1*
X1237593Y4317210D1*
X521159Y4317991D1*
X528801Y4315214D1*
X535316Y4312210D1*
X541576Y4308705D1*
X547542Y4304719D1*
X553176Y4300277D1*
X558444Y4295407D1*
X563314Y4290139D1*
X567756Y4284505D1*
X571741Y4278539D1*
X575247Y4272280D1*
X578251Y4265764D1*
X580734Y4259033D1*
X582681Y4252129D1*
X584081Y4245092D1*
X584924Y4237967D1*
X585206Y4230798D1*
X584924Y4223629D1*
X584081Y4216504D1*
X582681Y4209467D1*
X580734Y4202563D1*
X578251Y4195832D1*
X575247Y4189316D1*
X571741Y4183056D1*
X567756Y4177091D1*
X563314Y4171457D1*
X558444Y4166189D1*
X553176Y4161319D1*
X547542Y4156877D1*
X541576Y4152891D1*
X535316Y4149386D1*
X528801Y4146382D1*
X522070Y4143899D1*
X515165Y4141951D1*
X508129Y4140551D1*
X501004Y4139709D1*
X493835Y4139427D1*
X486665Y4139709D1*
X479541Y4140551D1*
X472504Y4141951D1*
X465600Y4143899D1*
X458869Y4146382D1*
X452353Y4149386D1*
X446093Y4152891D1*
X440127Y4156877D1*
X434493Y4161319D1*
X429226Y4166189D1*
X424356Y4171457D1*
X419913Y4177091D1*
X415928Y4183056D1*
X412423Y4189316D1*
X409419Y4195832D1*
X406487Y4204154D1*
X407419Y519411D1*
X410497Y528054D1*
X413501Y534570D1*
X417007Y540829D1*
X420992Y546795D1*
X425434Y552429D1*
X430304Y557697D1*
X435572Y562567D1*
X441206Y567009D1*
X447172Y570995D1*
X453432Y574500D1*
X459948Y577504D1*
X466678Y579987D1*
X473583Y581934D1*
X480619Y583335D1*
X487744Y584177D1*
X494913Y584459D1*
X502083Y584177D1*
X509207Y583335D1*
X516244Y581934D1*
X523148Y579987D1*
X529879Y577504D1*
X536395Y574500D1*
X542655Y570995D1*
X548621Y567009D1*
X554255Y562567D1*
X559522Y557697D1*
X564392Y552429D1*
X568835Y546795D1*
X572820Y540829D1*
X576325Y534570D1*
X579329Y528054D1*
X581812Y521323D1*
X583760Y514419D1*
X585160Y507382D1*
X586003Y500257D1*
X586285Y493088D1*
X586003Y485919D1*
X585160Y478794D1*
X583760Y471757D1*
X581812Y464853D1*
X579329Y458122D1*
X576325Y451606D1*
X572820Y445346D1*
X568835Y439381D1*
X564392Y433747D1*
X559522Y428479D1*
X554255Y423609D1*
X548621Y419167D1*
X542655Y415181D1*
X536395Y411676D1*
X529879Y408672D1*
X521126Y405618D1*
X1386761Y405033D1*
X1386079Y1106857D1*
X1359382Y1106867D1*
X1353005Y1100474D1*
X1354940Y1092168D1*
X1355702Y1082480D1*
X1354940Y1072793D1*
X1352672Y1063344D1*
X1350663Y1058075D1*
X1367513Y1058084D1*
Y910612D1*
X1220041D1*
Y1036314D1*
X873328Y1036445D1*
X866172Y1037579D1*
X859281Y1039818D1*
X852824Y1043108D1*
X846962Y1047367D1*
X824812Y1069315D1*
X711315Y1183014D1*
X707055Y1188877D1*
X703765Y1195333D1*
X701526Y1202224D1*
X700392Y1209381D1*
X700251Y1240563D1*
Y1292919D1*
X694736Y1299520D1*
X689499Y1308070D1*
X685661Y1317332D1*
X683320Y1327081D1*
X682534Y1337076D1*
X683320Y1347071D1*
X685661Y1356820D1*
X689499Y1366083D1*
X694736Y1374633D1*
X701248Y1382256D1*
X708871Y1388768D1*
X717421Y1394005D1*
X726684Y1397843D1*
X736433Y1400184D1*
X746428Y1400970D1*
X756423Y1400184D1*
X766172Y1397843D1*
X775434Y1394005D1*
X783984Y1388768D1*
X791608Y1382256D1*
X798119Y1374633D1*
X803357Y1366083D1*
X807194Y1356820D1*
X809535Y1347071D1*
X810322Y1337076D1*
X809535Y1327081D1*
X807194Y1317332D1*
X803357Y1308070D1*
X798119Y1299520D1*
X792605Y1292976D1*
Y1232115D1*
X896079Y1128657D1*
X1252551D1*
X1254404Y1130678D1*
X1258664Y1136541D1*
X1280612Y1158690D1*
X1310281Y1188157D1*
X1316143Y1192417D1*
X1322600Y1195707D1*
X1329491Y1197946D1*
X1336648Y1199080D1*
X1367831Y1199222D1*
X1386024D1*
X1385462Y1737055D1*
X1126776Y1478580D1*
X1120913Y1474320D1*
X1114458Y1471030D1*
X1107566Y1468791D1*
X1100409Y1467657D1*
X1069227Y1467516D1*
X1014001D1*
X1008138Y1463411D1*
X999892Y1459210D1*
X991091Y1456350D1*
X981951Y1454903D1*
X972697D1*
X963558Y1456350D1*
X954756Y1459210D1*
X946510Y1463411D1*
X939025Y1468850D1*
X932482Y1475394D1*
X927042Y1482879D1*
X922841Y1491125D1*
X919982Y1499927D1*
X918534Y1509066D1*
Y1518320D1*
X919982Y1527459D1*
X922841Y1536261D1*
X927042Y1544507D1*
X932482Y1551992D1*
X939025Y1558535D1*
X946510Y1563975D1*
X954756Y1568176D1*
X963558Y1571035D1*
X972697Y1572483D1*
X981951D1*
X991091Y1571035D1*
X999892Y1568176D1*
X1008138Y1563975D1*
X1014070Y1559870D1*
X1077692D1*
X1361441Y1843652D1*
X1361429Y2264560D1*
X1356647Y2255331D1*
X1349846Y2245970D1*
X1341665Y2237789D1*
X1332304Y2230988D1*
X1321995Y2225735D1*
X1310991Y2222159D1*
X1299562Y2220349D1*
X1287992D1*
X1276563Y2222159D1*
X1265559Y2225735D1*
X1255249Y2230988D1*
X1245888Y2237789D1*
X1237707Y2245970D1*
X1230907Y2255331D1*
X1225654Y2265640D1*
X1222077Y2276644D1*
X1220268Y2288073D1*
Y2299643D1*
X1222077Y2311072D1*
X1225654Y2322076D1*
X1230907Y2332386D1*
X1231849Y2333795D1*
X1231852Y2343925D1*
X798824Y2344062D1*
X791668Y2345196D1*
X784776Y2347434D1*
X778320Y2350724D1*
X772458Y2354984D1*
X750308Y2376932D1*
X717033Y2410409D1*
X712773Y2416272D1*
X709483Y2422727D1*
X707244Y2429619D1*
X706110Y2436776D1*
X705969Y2467958D1*
Y2487730D1*
X700454Y2494341D1*
X695217Y2502891D1*
X691379Y2512154D1*
X689038Y2521903D1*
X688252Y2531898D1*
X689038Y2541892D1*
X691379Y2551642D1*
X695217Y2560904D1*
X700454Y2569454D1*
X706966Y2577077D1*
X714589Y2583589D1*
X723139Y2588827D1*
X732402Y2592664D1*
X742151Y2595005D1*
X752146Y2595791D1*
X762140Y2595005D1*
X771890Y2592664D1*
X781152Y2588827D1*
X789702Y2583589D1*
X797325Y2577077D1*
X802126Y2571623D1*
X806966Y2577077D1*
X814589Y2583589D1*
X823139Y2588827D1*
X832402Y2592664D1*
X842151Y2595005D1*
X852146Y2595791D1*
X862140Y2595005D1*
X871890Y2592664D1*
X881152Y2588827D1*
X889702Y2583589D1*
X897325Y2577077D1*
X903837Y2569454D1*
X909075Y2560904D1*
X912912Y2551642D1*
X915253Y2541892D1*
X916039Y2531898D1*
X915253Y2521903D1*
X912912Y2512154D1*
X909075Y2502891D1*
X903837Y2494341D1*
X897325Y2486718D1*
X889702Y2480206D1*
X881152Y2474969D1*
X871890Y2471131D1*
X862140Y2468790D1*
X852146Y2468004D1*
X842151Y2468790D1*
X832402Y2471131D1*
X823139Y2474969D1*
X814589Y2480206D1*
X806966Y2486718D1*
X802165Y2492172D1*
X798323Y2487798D1*
Y2459520D1*
X821564Y2436285D1*
X1231874Y2436274D1*
X1231852Y2452022D1*
X1355702D1*
Y2333856D1*
X1359476Y2327333D1*
X1361436Y2323083D1*
X1361429Y2896266D1*
X1353108Y2904617D1*
X1273336Y2904594D1*
Y3028445D1*
X1289089D1*
X1289084Y3121001D1*
X1166883Y3243230D1*
X958346Y3243209D1*
X829420Y3114310D1*
X829438Y3067593D1*
X717399D1*
Y3179633D1*
X726585D1*
X820930Y3675072D2*
X819556Y3666390D1*
X816840Y3658029D1*
X812849Y3650197D1*
X807681Y3643085D1*
X801466Y3636870D1*
X794354Y3631702D1*
X786522Y3627711D1*
X778161Y3624995D1*
X769479Y3623621D1*
X760689D1*
X752007Y3624995D1*
X743646Y3627711D1*
X735814Y3631702D1*
X728702Y3636870D1*
X722487Y3643085D1*
X717319Y3650197D1*
X713328Y3658029D1*
X710612Y3666390D1*
X709238Y3675072D1*
Y3683862D1*
X710612Y3692545D1*
X713328Y3700906D1*
X717319Y3708738D1*
X722487Y3715849D1*
X728702Y3722064D1*
X735814Y3727232D1*
X743646Y3731223D1*
X752007Y3733940D1*
X760689Y3735314D1*
X769479D1*
X778161Y3733940D1*
X786522Y3731223D1*
X794354Y3727232D1*
X801466Y3722064D1*
X807681Y3715849D1*
X812849Y3708738D1*
X816840Y3700906D1*
X819556Y3692545D1*
X820930Y3683862D1*
Y3675072D1*
X949933Y2687640D2*
X948486Y2678501D1*
X945626Y2669699D1*
X941425Y2661454D1*
X935986Y2653969D1*
X929442Y2647425D1*
X921957Y2641986D1*
X913711Y2637785D1*
X904909Y2634925D1*
X895770Y2633478D1*
X886516D1*
X877377Y2634925D1*
X868575Y2637785D1*
X860329Y2641986D1*
X852844Y2647425D1*
X846301Y2653969D1*
X840861Y2661454D1*
X836660Y2669699D1*
X833801Y2678501D1*
X832353Y2687640D1*
Y2696895D1*
X833801Y2706034D1*
X836660Y2714836D1*
X840861Y2723081D1*
X846301Y2730567D1*
X852844Y2737110D1*
X860329Y2742550D1*
X868575Y2746751D1*
X877377Y2749610D1*
X886516Y2751058D1*
X895770D1*
X904909Y2749610D1*
X913711Y2746751D1*
X921957Y2742550D1*
X929442Y2737110D1*
X935986Y2730567D1*
X941425Y2723081D1*
X945626Y2714836D1*
X948486Y2706034D1*
X949933Y2696895D1*
Y2687640D1*
X590655Y1601530D2*
X697445D1*
Y1485554D1*
X581469D1*
Y1601530D1*
X590655D1*
X678546Y2721724D2*
X677122Y2712738D1*
X674310Y2704083D1*
X670180Y2695975D1*
X664831Y2688614D1*
X658396Y2682180D1*
X651035Y2676831D1*
X642928Y2672701D1*
X634273Y2669888D1*
X625286Y2668465D1*
X616186D1*
X607199Y2669888D1*
X598545Y2672701D1*
X590437Y2676831D1*
X583076Y2682180D1*
X576642Y2688614D1*
X571293Y2695975D1*
X567163Y2704083D1*
X564350Y2712738D1*
X562927Y2721724D1*
Y2730824D1*
X564350Y2739811D1*
X567163Y2748466D1*
X571293Y2756573D1*
X576642Y2763934D1*
X583076Y2770369D1*
X590437Y2775718D1*
X598545Y2779848D1*
X607199Y2782660D1*
X616186Y2784084D1*
X625286D1*
X634273Y2782660D1*
X642928Y2779848D1*
X651035Y2775718D1*
X658396Y2770369D1*
X664831Y2763934D1*
X670180Y2756573D1*
X674310Y2748466D1*
X677122Y2739811D1*
X678546Y2730824D1*
Y2721724D1*
X1267991Y3506514D2*
X1266543Y3497375D1*
X1263684Y3488573D1*
X1259483Y3480328D1*
X1254043Y3472843D1*
X1247500Y3466299D1*
X1242406Y3462457D1*
X1269176Y3462463D1*
Y3338613D1*
X1145325D1*
Y3462463D1*
X1175934D1*
X1170902Y3466299D1*
X1164358Y3472843D1*
X1158919Y3480328D1*
X1154718Y3488573D1*
X1151858Y3497375D1*
X1150411Y3506514D1*
Y3515769D1*
X1151858Y3524908D1*
X1154718Y3533710D1*
X1158919Y3541955D1*
X1164358Y3549441D1*
X1170902Y3555984D1*
X1178387Y3561424D1*
X1186633Y3565625D1*
X1195434Y3568484D1*
X1204573Y3569932D1*
X1213828D1*
X1222967Y3568484D1*
X1231769Y3565625D1*
X1240014Y3561424D1*
X1247500Y3555984D1*
X1254043Y3549441D1*
X1259483Y3541955D1*
X1263684Y3533710D1*
X1266543Y3524908D1*
X1267991Y3515769D1*
Y3506514D1*
X1268986Y2960640D2*
X1267465Y2951042D1*
X1264462Y2941801D1*
X1260051Y2933143D1*
X1254339Y2925281D1*
X1247469Y2918411D1*
X1239606Y2912698D1*
X1230949Y2908287D1*
X1221707Y2905285D1*
X1212109Y2903764D1*
X1202392D1*
X1192794Y2905285D1*
X1183552Y2908287D1*
X1174895Y2912698D1*
X1167033Y2918411D1*
X1160163Y2925281D1*
X1154450Y2933143D1*
X1150039Y2941801D1*
X1147037Y2951042D1*
X1145516Y2960640D1*
Y2970357D1*
X1147037Y2979955D1*
X1150039Y2989197D1*
X1154450Y2997854D1*
X1160163Y3005717D1*
X1167033Y3012587D1*
X1174895Y3018299D1*
X1183552Y3022710D1*
X1192794Y3025713D1*
X1202392Y3027234D1*
X1212109D1*
X1221707Y3025713D1*
X1230949Y3022710D1*
X1239606Y3018299D1*
X1247469Y3012587D1*
X1254339Y3005717D1*
X1260051Y2997854D1*
X1264462Y2989197D1*
X1267465Y2979955D1*
X1268986Y2970357D1*
Y2960640D1*
X1241038Y1579445D2*
X1355702D1*
Y1455594D1*
X1231852D1*
Y1579445D1*
X1241038D1*
X1355512Y2820278D2*
X1353991Y2810680D1*
X1350988Y2801438D1*
X1346577Y2792781D1*
X1340865Y2784919D1*
X1333995Y2778049D1*
X1326133Y2772336D1*
X1317475Y2767925D1*
X1308234Y2764923D1*
X1298635Y2763402D1*
X1288919D1*
X1279320Y2764923D1*
X1270079Y2767925D1*
X1261421Y2772336D1*
X1253559Y2778049D1*
X1246689Y2784919D1*
X1240976Y2792781D1*
X1236566Y2801438D1*
X1233563Y2810680D1*
X1232042Y2820278D1*
Y2829995D1*
X1233563Y2839593D1*
X1236566Y2848835D1*
X1240976Y2857492D1*
X1246689Y2865354D1*
X1253559Y2872224D1*
X1261421Y2877937D1*
X1270079Y2882348D1*
X1279320Y2885350D1*
X1288919Y2886871D1*
X1298635D1*
X1308234Y2885350D1*
X1317475Y2882348D1*
X1326133Y2877937D1*
X1333995Y2872224D1*
X1340865Y2865354D1*
X1346577Y2857492D1*
X1350988Y2848835D1*
X1353991Y2839593D1*
X1355512Y2829995D1*
Y2820278D1*
X1081416Y3965874D2*
X1080404Y3956745D1*
X1078726Y3947717D1*
X1076387Y3938835D1*
X1073403Y3930148D1*
X1069789Y3921706D1*
X1065564Y3913551D1*
X1060752Y3905728D1*
X1055378Y3898281D1*
X1049470Y3891248D1*
X1043063Y3884668D1*
X1036189Y3878577D1*
X1028886Y3873008D1*
X1021194Y3867990D1*
X1013154Y3863551D1*
X1004808Y3859714D1*
X996205Y3856501D1*
X987388Y3853929D1*
X978407Y3852012D1*
X969308Y3850760D1*
X960142Y3850178D1*
X950958Y3850273D1*
X941806Y3851043D1*
X932735Y3852482D1*
X923795Y3854584D1*
X915033Y3857337D1*
X906497Y3860727D1*
X898234Y3864735D1*
X890286Y3869339D1*
X882699Y3874514D1*
X875512Y3880232D1*
X868765Y3886465D1*
X862495Y3893175D1*
X856734Y3900327D1*
X851514Y3907885D1*
X846864Y3915804D1*
X842807Y3924045D1*
X839367Y3932560D1*
X836563Y3941306D1*
X834409Y3950234D1*
X832916Y3959295D1*
X832093Y3968444D1*
X831945Y3977626D1*
X832472Y3986795D1*
X833671Y3995902D1*
X835091Y4002751D1*
X824049Y3995046D1*
X816165Y3990630D1*
X807959Y3986848D1*
X799483Y3983720D1*
X790786Y3981268D1*
X781924Y3979505D1*
X772951Y3978442D1*
X763923Y3978088D1*
X754894Y3978442D1*
X745921Y3979505D1*
X737059Y3981268D1*
X728362Y3983720D1*
X719886Y3986848D1*
X711680Y3990630D1*
X703797Y3995046D1*
X696283Y4000066D1*
X689188Y4005659D1*
X682552Y4011793D1*
X676419Y4018428D1*
X670825Y4025524D1*
X665806Y4033037D1*
X661390Y4040920D1*
X657608Y4049126D1*
X654480Y4057602D1*
X652028Y4066299D1*
X650265Y4075161D1*
X649202Y4084134D1*
X648848Y4093163D1*
X649202Y4102192D1*
X650265Y4111164D1*
X652028Y4120026D1*
X654480Y4128723D1*
X657608Y4137199D1*
X661390Y4145406D1*
X665806Y4153289D1*
X670825Y4160802D1*
X676419Y4167898D1*
X682552Y4174533D1*
X689188Y4180667D1*
X696283Y4186260D1*
X703797Y4191280D1*
X711680Y4195696D1*
X719886Y4199478D1*
X728362Y4202605D1*
X737059Y4205058D1*
X745921Y4206820D1*
X754894Y4207883D1*
X763923Y4208238D1*
X772951Y4207883D1*
X781924Y4206820D1*
X790786Y4205058D1*
X799483Y4202605D1*
X807959Y4199478D1*
X816165Y4195696D1*
X824049Y4191280D1*
X831562Y4186260D1*
X838657Y4180667D1*
X845293Y4174533D1*
X851427Y4167898D1*
X857020Y4160802D1*
X862039Y4153289D1*
X866455Y4145406D1*
X870238Y4137199D1*
X873365Y4128723D1*
X875818Y4120026D1*
X877580Y4111164D1*
X878643Y4102192D1*
X878997Y4093163D1*
X878643Y4084134D1*
X877580Y4075161D1*
X876734Y4070903D1*
X886904Y4078560D1*
X894698Y4083419D1*
X902828Y4087692D1*
X911249Y4091354D1*
X919917Y4094390D1*
X928786Y4096780D1*
X937806Y4098512D1*
X946928Y4099576D1*
X956104Y4099967D1*
X965283Y4099684D1*
X974417Y4098726D1*
X983457Y4097100D1*
X992352Y4094815D1*
X1001055Y4091882D1*
X1009520Y4088316D1*
X1017699Y4084139D1*
X1025550Y4079373D1*
X1033029Y4074042D1*
X1040096Y4068177D1*
X1046713Y4061807D1*
X1052844Y4054970D1*
X1058457Y4047699D1*
X1063520Y4040037D1*
X1068005Y4032022D1*
X1071891Y4023701D1*
X1075155Y4015115D1*
X1077778Y4006315D1*
X1079748Y3997344D1*
X1081054Y3988253D1*
X1081753Y3975052D1*
X1081416Y3965874D1*
X1347673Y4027419D2*
X1346056Y4017211D1*
X1342864Y4007382D1*
X1338171Y3998173D1*
X1332096Y3989812D1*
X1324789Y3982505D1*
X1316428Y3976430D1*
X1307219Y3971738D1*
X1297390Y3968545D1*
X1287182Y3966928D1*
X1276846D1*
X1266639Y3968545D1*
X1256810Y3971738D1*
X1247601Y3976430D1*
X1239240Y3982505D1*
X1231933Y3989812D1*
X1225858Y3998173D1*
X1221165Y4007382D1*
X1217972Y4017211D1*
X1216356Y4027419D1*
Y4037755D1*
X1217972Y4047962D1*
X1221165Y4057791D1*
X1225858Y4067000D1*
X1231933Y4075361D1*
X1239240Y4082668D1*
X1247601Y4088743D1*
X1256810Y4093436D1*
X1266639Y4096629D1*
X1276846Y4098245D1*
X1287182D1*
X1297390Y4096629D1*
X1303068Y4094967D1*
X1302688Y4101602D1*
X1303402Y4110673D1*
X1305526Y4119522D1*
X1309008Y4127928D1*
X1313762Y4135686D1*
X1319672Y4142606D1*
X1326592Y4148516D1*
X1334350Y4153270D1*
X1342756Y4156752D1*
X1351605Y4158877D1*
X1360676Y4159591D1*
X1369747Y4158877D1*
X1378596Y4156752D1*
X1387001Y4153270D1*
X1394760Y4148516D1*
X1401680Y4142606D1*
X1407589Y4135686D1*
X1412344Y4127928D1*
X1415825Y4119522D1*
X1417950Y4110673D1*
X1418664Y4101602D1*
X1417950Y4092531D1*
X1415825Y4083682D1*
X1412344Y4075277D1*
X1407589Y4067518D1*
X1401680Y4060598D1*
X1394760Y4054689D1*
X1387001Y4049934D1*
X1378596Y4046453D1*
X1369747Y4044328D1*
X1360676Y4043614D1*
X1351605Y4044328D1*
X1346642Y4045357D1*
X1347673Y4037755D1*
Y4027419D1*
X1576084Y4097052D2*
X1574660Y4088066D1*
X1571848Y4079411D1*
X1567718Y4071303D1*
X1562369Y4063942D1*
X1555934Y4057508D1*
X1548573Y4052159D1*
X1540466Y4048029D1*
X1531811Y4045217D1*
X1522824Y4043793D1*
X1513724D1*
X1504738Y4045217D1*
X1496083Y4048029D1*
X1487975Y4052159D1*
X1480614Y4057508D1*
X1474180Y4063942D1*
X1468831Y4071303D1*
X1464701Y4079411D1*
X1461888Y4088066D1*
X1460465Y4097052D1*
Y4106152D1*
X1461888Y4115139D1*
X1464701Y4123794D1*
X1468831Y4131902D1*
X1474180Y4139262D1*
X1480614Y4145697D1*
X1487975Y4151046D1*
X1496083Y4155176D1*
X1504738Y4157988D1*
X1513724Y4159412D1*
X1522824D1*
X1531811Y4157988D1*
X1540466Y4155176D1*
X1548573Y4151046D1*
X1555934Y4145697D1*
X1562369Y4139262D1*
X1567718Y4131902D1*
X1571848Y4123794D1*
X1574660Y4115139D1*
X1576084Y4106152D1*
Y4097052D1*
X891720Y1400970D2*
X1010322D1*
Y1273182D1*
X882534D1*
Y1400970D1*
X891720D1*
X406471Y4257388D2*
X409419Y4265764D1*
X412423Y4272280D1*
X415928Y4278539D1*
X419913Y4284505D1*
X424356Y4290139D1*
X429226Y4295407D1*
X434493Y4300277D1*
X440127Y4304719D1*
X446093Y4308705D1*
X452353Y4312210D1*
X458869Y4315214D1*
X466867Y4318055D1*
X406472Y4318117D1*
X406466Y4257538D1*
X947357Y738702D2*
X946423Y730810D1*
X944873Y723016D1*
X942715Y715366D1*
X939965Y707911D1*
X936638Y700693D1*
X932755Y693759D1*
X928339Y687151D1*
X923419Y680909D1*
X918025Y675073D1*
X912189Y669680D1*
X905948Y664760D1*
X899340Y660344D1*
X892406Y656461D1*
X885188Y653134D1*
X877732Y650383D1*
X870083Y648226D1*
X862289Y646676D1*
X854396Y645741D1*
X846455Y645429D1*
X838514Y645741D1*
X830622Y646676D1*
X822828Y648226D1*
X815178Y650383D1*
X807723Y653134D1*
X800505Y656461D1*
X793571Y660344D1*
X786963Y664760D1*
X780722Y669680D1*
X774886Y675073D1*
X769492Y680909D1*
X764572Y687151D1*
X760156Y693759D1*
X756273Y700693D1*
X752946Y707911D1*
X750196Y715366D1*
X748038Y723016D1*
X746488Y730810D1*
X745554Y738702D1*
X745241Y746643D1*
X745554Y754584D1*
X746488Y762476D1*
X748038Y770270D1*
X750196Y777920D1*
X752946Y785375D1*
X756273Y792593D1*
X760156Y799528D1*
X764572Y806135D1*
X769492Y812377D1*
X774886Y818213D1*
X780722Y823606D1*
X786963Y828526D1*
X793571Y832942D1*
X800505Y836825D1*
X807723Y840152D1*
X815178Y842903D1*
X822828Y845060D1*
X830622Y846610D1*
X838514Y847545D1*
X846455Y847857D1*
X854396Y847545D1*
X862289Y846610D1*
X870083Y845060D1*
X877732Y842903D1*
X885188Y840152D1*
X892406Y836825D1*
X899340Y832942D1*
X905948Y828526D1*
X912189Y823606D1*
X918025Y818213D1*
X923419Y812377D1*
X928339Y806135D1*
X932755Y799528D1*
X936638Y792593D1*
X939965Y785375D1*
X942715Y777920D1*
X944873Y770270D1*
X946423Y762476D1*
X947357Y754584D1*
X947669Y746643D1*
X947357Y738702D1*
X468539Y405664D2*
X459948Y408672D1*
X453432Y411676D1*
X447172Y415181D1*
X441206Y419167D1*
X435572Y423609D1*
X430304Y428479D1*
X425434Y433747D1*
X420992Y439381D1*
X417007Y445346D1*
X413501Y451606D1*
X410497Y458122D1*
X407428Y466929D1*
X407448Y405730D1*
X468341Y405661D1*
X953151Y1933486D2*
X952217Y1925593D1*
X950667Y1917799D1*
X948509Y1910150D1*
X945759Y1902694D1*
X942432Y1895476D1*
X938549Y1888542D1*
X934133Y1881934D1*
X929213Y1875693D1*
X923819Y1869857D1*
X917983Y1864463D1*
X911741Y1859543D1*
X905134Y1855127D1*
X898199Y1851244D1*
X890982Y1847917D1*
X883526Y1845167D1*
X875877Y1843009D1*
X868083Y1841459D1*
X860190Y1840525D1*
X852249Y1840213D1*
X844308Y1840525D1*
X836416Y1841459D1*
X828622Y1843009D1*
X820972Y1845167D1*
X813517Y1847917D1*
X806299Y1851244D1*
X799365Y1855127D1*
X792757Y1859543D1*
X786516Y1864463D1*
X780680Y1869857D1*
X775286Y1875693D1*
X770366Y1881934D1*
X765950Y1888542D1*
X762067Y1895476D1*
X758740Y1902694D1*
X755990Y1910150D1*
X753832Y1917799D1*
X752282Y1925593D1*
X751348Y1933486D1*
X751035Y1941427D1*
X751348Y1949367D1*
X752282Y1957260D1*
X753832Y1965054D1*
X755990Y1972703D1*
X758740Y1980159D1*
X762067Y1987377D1*
X765950Y1994311D1*
X770366Y2000919D1*
X775286Y2007160D1*
X780680Y2012996D1*
X786516Y2018390D1*
X792757Y2023310D1*
X799365Y2027726D1*
X806299Y2031609D1*
X813517Y2034936D1*
X820972Y2037686D1*
X828622Y2039844D1*
X836416Y2041394D1*
X844308Y2042328D1*
X852249Y2042640D1*
X860190Y2042328D1*
X868083Y2041394D1*
X875877Y2039844D1*
X883526Y2037686D1*
X890982Y2034936D1*
X898199Y2031609D1*
X905134Y2027726D1*
X911741Y2023310D1*
X917983Y2018390D1*
X923819Y2012996D1*
X929213Y2007160D1*
X934133Y2000919D1*
X938549Y1994311D1*
X942432Y1987377D1*
X945759Y1980159D1*
X948509Y1972703D1*
X950667Y1965054D1*
X952217Y1957260D1*
X953151Y1949367D1*
X953463Y1941427D1*
X953151Y1933486D1*
X1818105Y4292735D2*
X4161760D1*
X4299854D2*
X4315022D1*
X1822661Y4267866D2*
X4145075D1*
X1817459Y4242997D2*
X4137825D1*
X1801921Y4218129D2*
X4137718D1*
X1801921Y4193260D2*
X4144680D1*
X1801921Y4168391D2*
X4160936D1*
X4300680D2*
X4315022D1*
X1801921Y4143522D2*
X4005126D1*
X4073820D2*
X4199152D1*
X4262428D2*
X4315022D1*
X1801921Y4118654D2*
X3984852D1*
X4094094D2*
X4315022D1*
X1801921Y4093785D2*
X2785280D1*
X2895671D2*
X3980546D1*
X4098365D2*
X4315022D1*
X1811646Y4068916D2*
X2025933D1*
X2136793D2*
X2588885D1*
X2698416D2*
X2752875D1*
X2928110D2*
X3987866D1*
X4091081D2*
X4315022D1*
X1821621Y4044047D2*
X2001318D1*
X2161408D2*
X2563909D1*
X2723354D2*
X2735615D1*
X2945370D2*
X4016896D1*
X4062050D2*
X4315022D1*
X1821298Y4019178D2*
X1989475D1*
X2173214D2*
X2551924D1*
X2954701D2*
X4315022D1*
X1810497Y3994310D2*
X1985457D1*
X2177234D2*
X2547761D1*
X2958038D2*
X4315022D1*
X1775904Y3969441D2*
X1988184D1*
X2174507D2*
X2550345D1*
X2955920D2*
X4315022D1*
X1740021Y3944572D2*
X1998339D1*
X2164387D2*
X2560357D1*
X2948062D2*
X4315022D1*
X1714256Y3919703D2*
X1924417D1*
X2237483D2*
X2581349D1*
X2705915D2*
X2748031D1*
X2932919D2*
X4315022D1*
X1716588Y3894835D2*
X1899550D1*
X2262350D2*
X2775518D1*
X2905432D2*
X3511647D1*
X3615364D2*
X4315022D1*
X1711169Y3869966D2*
X1874646D1*
X2287219D2*
X3473035D1*
X3653975D2*
X4315022D1*
X1685692Y3845097D2*
X1732724D1*
X1819647D2*
X1849778D1*
X1966486D2*
X2195415D1*
X2312087D2*
X3452366D1*
X3674644D2*
X4007566D1*
X4071381D2*
X4315022D1*
X1611197Y3820228D2*
X1719268D1*
X1941618D2*
X2220282D1*
X2336954D2*
X3440022D1*
X3686953D2*
X3985533D1*
X4093413D2*
X4315022D1*
X1602404Y3795360D2*
X1619546D1*
X1710596D2*
X1718837D1*
X1916751D2*
X2245150D1*
X2400900D2*
X2706621D1*
X2788484D2*
X3136657D1*
X3275361D2*
X3433634D1*
X3844234D2*
X3980509D1*
X4196365D2*
X4315022D1*
X1722832Y3770491D2*
X1731100D1*
X2011556D2*
X2143992D1*
X2415936D2*
X2691047D1*
X2804059D2*
X3106909D1*
X3305109D2*
X3432235D1*
X3870932D2*
X3987004D1*
X4196365D2*
X4315022D1*
X1722509Y3745622D2*
X1750307D1*
X2011556D2*
X2129711D1*
X2417478D2*
X2689181D1*
X2805924D2*
X3089685D1*
X3322333D2*
X3435715D1*
X3886685D2*
X4013164D1*
X4065782D2*
X4079335D1*
X4196365D2*
X4315022D1*
X1599499Y3720753D2*
X1620765D1*
X1709375D2*
X1725440D1*
X2011556D2*
X2128348D1*
X2630667D2*
X2699336D1*
X2795769D2*
X3079636D1*
X3407667D2*
X3444508D1*
X3895692D2*
X4079335D1*
X4196365D2*
X4315022D1*
X1557406Y3695885D2*
X1700572D1*
X1817243D2*
X1827571D1*
X2011556D2*
X2138718D1*
X2666622D2*
X3075080D1*
X3435621D2*
X3459937D1*
X3899387D2*
X4079335D1*
X4196365D2*
X4315022D1*
X1557406Y3671016D2*
X1683025D1*
X1792375D2*
X1844539D1*
X1994619D2*
X2144531D1*
X2681801D2*
X3075438D1*
X3460488D2*
X3486025D1*
X3898203D2*
X4083605D1*
X4144942D2*
X4315022D1*
X1557442Y3646147D2*
X1681625D1*
X2009260D2*
X2129854D1*
X2705269D2*
X3080714D1*
X3485356D2*
X3644346D1*
X3891995D2*
X4062075D1*
X4166437D2*
X4315022D1*
X1557442Y3621278D2*
X1665261D1*
X2010874D2*
X2128240D1*
X2491686D2*
X2522858D1*
X2730136D2*
X3091622D1*
X3320396D2*
X3393551D1*
X3510223D2*
X3656403D1*
X3879974D2*
X4034049D1*
X4170707D2*
X4315022D1*
X1557478Y3596409D2*
X1640394D1*
X2000791D2*
X2138323D1*
X2749730D2*
X3110139D1*
X3301879D2*
X3418420D1*
X4162706D2*
X4315022D1*
X1557513Y3571541D2*
X1615526D1*
X1818176D2*
X2145070D1*
X2294072D2*
X2424751D1*
X2753031D2*
X3142829D1*
X3269189D2*
X3443287D1*
X4125493D2*
X4315022D1*
X1557513Y3546672D2*
X1590659D1*
X1707331D2*
X1734196D1*
X1818176D2*
X2129997D1*
X2309108D2*
X2449618D1*
X2566290D2*
X2576038D1*
X2753031D2*
X3388707D1*
X4112862D2*
X4315022D1*
X1557550Y3521803D2*
X1570654D1*
X1682462D2*
X1734196D1*
X1818176D2*
X2128168D1*
X2310974D2*
X2474486D1*
X2753031D2*
X3379270D1*
X3648808D2*
X3769295D1*
X4115589D2*
X4315022D1*
X1557585Y3496934D2*
X1568108D1*
X1657594D2*
X1734196D1*
X1818176D2*
X2137965D1*
X2301177D2*
X2319287D1*
X2399177D2*
X2419727D1*
X2584268D2*
X2615941D1*
X2786727D2*
X2808496D1*
X2886412D2*
X3381675D1*
X3648808D2*
X3764882D1*
X4121260D2*
X4315022D1*
X1557585Y3472066D2*
X1568108D1*
X1652033D2*
X1734196D1*
X1818176D2*
X1845615D1*
X1993542D2*
X2145608D1*
X2293534D2*
X2302965D1*
X2903421D2*
X3398253D1*
X3648808D2*
X3771699D1*
X4121260D2*
X4315022D1*
X1557621Y3447197D2*
X1568113D1*
X1652033D2*
X1717652D1*
X2008972D2*
X2130177D1*
X2906077D2*
X3464818D1*
X3648808D2*
X3789857D1*
X4121260D2*
X4315022D1*
X1557657Y3422328D2*
X1568047D1*
X1652033D2*
X1717652D1*
X2011018D2*
X2128096D1*
X2676957D2*
X2698260D1*
X2896891D2*
X3469518D1*
X3644108D2*
X3769510D1*
X4121260D2*
X4315022D1*
X1652033Y3397459D2*
X1717652D1*
X2001509D2*
X2137605D1*
X2301537D2*
X2430600D1*
X2652089D2*
X2840648D1*
X2854249D2*
X3464854D1*
X3648772D2*
X3764845D1*
X4001119D2*
X4037278D1*
X4121260D2*
X4315022D1*
X1648408Y3372591D2*
X1717652D1*
X1834684D2*
X1877803D1*
X1961354D2*
X2177795D1*
X2261346D2*
X2325387D1*
X2395266D2*
X2405719D1*
X2627222D2*
X3471420D1*
X3642169D2*
X3771449D1*
X4001119D2*
X4037278D1*
X4121260D2*
X4315022D1*
X1751970Y3347722D2*
X2305543D1*
X2602353D2*
X3490655D1*
X3622971D2*
X3790646D1*
X4001119D2*
X4037278D1*
X4253098D2*
X4315058D1*
X1769122Y3322853D2*
X2301453D1*
X2472668D2*
X2485323D1*
X2582689D2*
X3283854D1*
X3643856D2*
X3769761D1*
X4001119D2*
X4037278D1*
X4296087D2*
X4315058D1*
X1772962Y3297984D2*
X2308988D1*
X2447801D2*
X2478433D1*
X2589579D2*
X3258986D1*
X3648772D2*
X3764845D1*
X4001119D2*
X4037278D1*
X1766324Y3273115D2*
X2338916D1*
X2381773D2*
X2477429D1*
X2589579D2*
X3234118D1*
X3642457D2*
X3771161D1*
X4001119D2*
X4037278D1*
X1751360Y3248247D2*
X2475886D1*
X2589579D2*
X3189909D1*
X3622182D2*
X3795634D1*
X4011239D2*
X4037278D1*
X2009978Y3223378D2*
X2424283D1*
X2608957D2*
X3179575D1*
X3643640D2*
X3906552D1*
X2034845Y3198509D2*
X2408280D1*
X2633824D2*
X3181297D1*
X3648772D2*
X3925391D1*
X2059713Y3173640D2*
X2391665D1*
X2658692D2*
X3196655D1*
X3379462D2*
X3396530D1*
X3642707D2*
X3950259D1*
X1750749Y3148772D2*
X1948962D1*
X2084580D2*
X2390374D1*
X2683559D2*
X3237993D1*
X1768728Y3123903D2*
X1973829D1*
X2109449D2*
X2390374D1*
X2961088D2*
X3262862D1*
X1557945Y3099034D2*
X1573219D1*
X1772999D2*
X1995109D1*
X2146373D2*
X2390374D1*
X2573215D2*
X2597676D1*
X2984772D2*
X3287730D1*
X1557980Y3074165D2*
X1579534D1*
X1766825D2*
X1967119D1*
X2174362D2*
X2327756D1*
X2573215D2*
X2622545D1*
X2992738D2*
X3675530D1*
X3885177D2*
X3945594D1*
X1557980Y3049297D2*
X1596256D1*
X1750104D2*
X1959441D1*
X2186312D2*
X2306226D1*
X2573215D2*
X2658715D1*
X2992773D2*
X3683531D1*
X1558016Y3024428D2*
X1573865D1*
X1768513D2*
X1962886D1*
X2211180D2*
X2301381D1*
X2573215D2*
X2895408D1*
X4031441D2*
X4045782D1*
X1773034Y2999559D2*
X1980396D1*
X2061076D2*
X2080406D1*
X2236047D2*
X2308091D1*
X2573215D2*
X2895408D1*
X4006573D2*
X4070291D1*
X1767077Y2974690D2*
X2061029D1*
X2259803D2*
X2334969D1*
X2573215D2*
X2895408D1*
X3981706D2*
X4080411D1*
X1749458Y2949822D2*
X1827243D1*
X2011197D2*
X2045491D1*
X2267877D2*
X2390374D1*
X2573215D2*
X2895408D1*
X3956839D2*
X4011047D1*
X4027451D2*
X4098030D1*
X1778130Y2924953D2*
X1827243D1*
X2306883D2*
X2393962D1*
X2573215D2*
X2657424D1*
X2841378D2*
X2895408D1*
X3110904D2*
X3146777D1*
X3435406D2*
X3489076D1*
X3673066D2*
X3788529D1*
X1802997Y2900084D2*
X1827243D1*
X2112427D2*
X2127593D1*
X2331751D2*
X2415314D1*
X2573215D2*
X2657424D1*
X2841378D2*
X2895408D1*
X3442976D2*
X3489076D1*
X3673066D2*
X3789462D1*
X2087559Y2875215D2*
X2130249D1*
X2356618D2*
X2432251D1*
X2630307D2*
X2657424D1*
X2841378D2*
X2895408D1*
X3436087D2*
X3489076D1*
X3673066D2*
X3792118D1*
X2061829Y2850346D2*
X2146613D1*
X2381487D2*
X2472441D1*
X2641180D2*
X2657424D1*
X2841378D2*
X2895408D1*
X3229071D2*
X3489076D1*
X3673066D2*
X3808517D1*
X3953609D2*
X3974122D1*
X1607465Y2825478D2*
X1760929D1*
X2061829D2*
X2136780D1*
X2403268D2*
X2447573D1*
X2639853D2*
X2657424D1*
X2841378D2*
X2895408D1*
X3115318D2*
X3146202D1*
X3205352D2*
X3498585D1*
X3663556D2*
X3798613D1*
X3963549D2*
X3973656D1*
X1607465Y2800609D2*
X1785797D1*
X2061829D2*
X2127665D1*
X2408399D2*
X2422705D1*
X2625140D2*
X2663954D1*
X2834883D2*
X2895408D1*
X3134875D2*
X3489507D1*
X3672635D2*
X3789497D1*
X4065459D2*
X4074427D1*
X1609761Y2775740D2*
X1810664D1*
X2061829D2*
X2130070D1*
X2616277D2*
X2641168D1*
X2841378D2*
X2895408D1*
X3141370D2*
X3415118D1*
X3670231D2*
X3791938D1*
X4040592D2*
X4079908D1*
X1634629Y2750871D2*
X1846010D1*
X2061829D2*
X2146038D1*
X2292421D2*
X2300734D1*
X2591732D2*
X2625164D1*
X2836642D2*
X2895408D1*
X3136633D2*
X3397606D1*
X3654190D2*
X3807942D1*
X4062517D2*
X4100291D1*
X1659496Y2726003D2*
X1837147D1*
X2061829D2*
X2137139D1*
X2566864D2*
X2624231D1*
X2816080D2*
X2895408D1*
X3116108D2*
X3394161D1*
X3663198D2*
X3798936D1*
X4077337D2*
X4227930D1*
X1558303Y2701134D2*
X1567667D1*
X1684365D2*
X1827745D1*
X2056806D2*
X2127738D1*
X2541996D2*
X2624231D1*
X2834596D2*
X2895408D1*
X3239513D2*
X3401841D1*
X3672563D2*
X3789570D1*
X4079274D2*
X4227930D1*
X1558339Y2676265D2*
X1592560D1*
X1709232D2*
X1829899D1*
X2034055D2*
X2129890D1*
X2517129D2*
X2624231D1*
X2841343D2*
X2896232D1*
X3264381D2*
X3415728D1*
X3670374D2*
X3791759D1*
X4069802D2*
X4227930D1*
X1558375Y2651396D2*
X1617428D1*
X1734100D2*
X1845472D1*
X1993004D2*
X2145465D1*
X2471878D2*
X2624231D1*
X2836857D2*
X2909761D1*
X3289248D2*
X3397822D1*
X3654765D2*
X3807369D1*
X3954757D2*
X4003906D1*
X4032769D2*
X4227930D1*
X1558375Y2626528D2*
X1642295D1*
X2063014D2*
X2137497D1*
X2468147D2*
X2624231D1*
X2816833D2*
X2981961D1*
X3116861D2*
X3178497D1*
X3309201D2*
X3394126D1*
X3662839D2*
X3799294D1*
X3962866D2*
X4227930D1*
X1558411Y2601659D2*
X1667164D1*
X2089030D2*
X2127808D1*
X2465240D2*
X2624231D1*
X2834308D2*
X2964484D1*
X3134301D2*
X3203366D1*
X3312753D2*
X3401518D1*
X3677766D2*
X3789642D1*
X3972520D2*
X4227930D1*
X1558446Y2576790D2*
X1692031D1*
X2113898D2*
X2129747D1*
X2308713D2*
X2317744D1*
X2465240D2*
X2624231D1*
X2841306D2*
X2957487D1*
X3141333D2*
X3215387D1*
X3312753D2*
X3428647D1*
X3482269D2*
X3491588D1*
X3702634D2*
X3791615D1*
X3970546D2*
X4227930D1*
X1558446Y2551921D2*
X1844898D1*
X1993542D2*
X2022058D1*
X2293534D2*
X2317744D1*
X2465240D2*
X2624231D1*
X2837072D2*
X2961757D1*
X3137064D2*
X3215387D1*
X3312753D2*
X3404927D1*
X3727503D2*
X3806829D1*
X3955331D2*
X3984887D1*
X4049419D2*
X4227644D1*
X1558483Y2527052D2*
X1837865D1*
X2000576D2*
X2046927D1*
X2300604D2*
X2317744D1*
X2522152D2*
X2624626D1*
X2817587D2*
X2981243D1*
X3117579D2*
X3180615D1*
X3312753D2*
X3396423D1*
X3752370D2*
X3799654D1*
X4071165D2*
X4202776D1*
X1558518Y2502184D2*
X1827888D1*
X2010588D2*
X2035551D1*
X2543575D2*
X2638118D1*
X2754790D2*
X3165543D1*
X3312753D2*
X3399688D1*
X3777238D2*
X3789713D1*
X4076117D2*
X4177908D1*
X4294580D2*
X4315058D1*
X1558518Y2477315D2*
X1829575D1*
X2008865D2*
X2027333D1*
X2548348D2*
X2662986D1*
X2779657D2*
X3140676D1*
X3312753D2*
X3417774D1*
X3670697D2*
X3685434D1*
X4069514D2*
X4153041D1*
X4269713D2*
X4315058D1*
X1558554Y2452446D2*
X1844360D1*
X1994080D2*
X2033577D1*
X2119029D2*
X2144387D1*
X2541566D2*
X2687853D1*
X2790673D2*
X3115808D1*
X3312753D2*
X3506301D1*
X3655841D2*
X3710302D1*
X3955869D2*
X3991311D1*
X4042961D2*
X4128173D1*
X4244844D2*
X4315058D1*
X1558554Y2427577D2*
X1788381D1*
X1816634D2*
X1838223D1*
X2017944D2*
X2034295D1*
X2118276D2*
X2138251D1*
X2695042D2*
X2706801D1*
X2790745D2*
X3090941D1*
X3207612D2*
X3215387D1*
X3312753D2*
X3500056D1*
X3662121D2*
X3735169D1*
X3962113D2*
X4103306D1*
X4219976D2*
X4315058D1*
X1558591Y2402709D2*
X1758094D1*
X2118276D2*
X2127966D1*
X2790745D2*
X3066072D1*
X3182744D2*
X3215387D1*
X3312753D2*
X3489793D1*
X3672348D2*
X3760037D1*
X3972340D2*
X4078437D1*
X4195109D2*
X4315058D1*
X1558626Y2377840D2*
X1753752D1*
X2118276D2*
X2129424D1*
X2795984D2*
X3001552D1*
X3157877D2*
X3173331D1*
X3312753D2*
X3491301D1*
X3670841D2*
X3784904D1*
X3970869D2*
X4053570D1*
X4170241D2*
X4315058D1*
X1558626Y2352971D2*
X1760499D1*
X2118276D2*
X2143849D1*
X2294610D2*
X2323413D1*
X2605942D2*
X2637328D1*
X2806929D2*
X2990609D1*
X3133009D2*
X3150688D1*
X3312753D2*
X3505761D1*
X3656379D2*
X3805753D1*
X3956371D2*
X4028702D1*
X4145374D2*
X4315058D1*
X1558661Y2328102D2*
X1760499D1*
X2118276D2*
X2138610D1*
X2299814D2*
X2329299D1*
X2630810D2*
X2691873D1*
X2805673D2*
X2991865D1*
X3108142D2*
X3130091D1*
X3312753D2*
X3800407D1*
X3961718D2*
X4003835D1*
X4120505D2*
X4315058D1*
X1558698Y2303234D2*
X1760499D1*
X2118276D2*
X2128035D1*
X2310400D2*
X2329299D1*
X2655677D2*
X2706478D1*
X2791068D2*
X3006469D1*
X3091060D2*
X3105222D1*
X3312429D2*
X3789892D1*
X4095638D2*
X4315058D1*
X1558698Y2278365D2*
X1760499D1*
X2680545D2*
X2702171D1*
X2795411D2*
X3002163D1*
X3301449D2*
X3791148D1*
X4070770D2*
X4315058D1*
X1558734Y2253496D2*
X1760499D1*
X2465240D2*
X2478793D1*
X2806822D2*
X2990752D1*
X3276761D2*
X3805251D1*
X4046692D2*
X4315093D1*
X1558769Y2228627D2*
X1761180D1*
X1868127D2*
X1977059D1*
X2177699D2*
X2258320D1*
X2598730D2*
X2613609D1*
X2805888D2*
X2991685D1*
X3251894D2*
X3904364D1*
X4070448D2*
X4315093D1*
X1558769Y2203759D2*
X1776323D1*
X1892995D2*
X1995324D1*
X2167797D2*
X2233451D1*
X2598730D2*
X2638476D1*
X4076154D2*
X4315093D1*
X1558806Y2178890D2*
X1801192D1*
X1917862D2*
X2020192D1*
X2598730D2*
X2657172D1*
X4070303D2*
X4315093D1*
X1558841Y2154021D2*
X1826059D1*
X1942731D2*
X2045060D1*
X2420314D2*
X2436413D1*
X2598730D2*
X2657172D1*
X3946432D2*
X3988117D1*
X4046189D2*
X4315093D1*
X1558841Y2129152D2*
X1850927D1*
X1967634D2*
X2071112D1*
X2395445D2*
X2447394D1*
X2598730D2*
X2657172D1*
X2841127D2*
X2918840D1*
X3931073D2*
X4315093D1*
X1558877Y2104283D2*
X1875794D1*
X2184589D2*
X2253906D1*
X2370577D2*
X2447394D1*
X2598730D2*
X2657172D1*
X2841127D2*
X2893972D1*
X3955941D2*
X4315093D1*
X1558913Y2079415D2*
X1900661D1*
X2218823D2*
X2229071D1*
X2345710D2*
X2434045D1*
X2598730D2*
X2657172D1*
X2841127D2*
X2869140D1*
X3119050D2*
X3434316D1*
X3840573D2*
X3864101D1*
X3980808D2*
X4315093D1*
X1558913Y2054546D2*
X1925530D1*
X2320843D2*
X2432251D1*
X2598730D2*
X2665282D1*
X2833017D2*
X2856904D1*
X3133009D2*
X3409449D1*
X3835227D2*
X3877773D1*
X4005676D2*
X4315093D1*
X1558949Y2029677D2*
X2135703D1*
X2295974D2*
X2442621D1*
X2598730D2*
X2657352D1*
X2840948D2*
X2856366D1*
X3140940D2*
X3384581D1*
X3501252D2*
X3638318D1*
X3685339D2*
X3861194D1*
X4030545D2*
X4315093D1*
X1558949Y2004808D2*
X1961916D1*
X2271106D2*
X2514748D1*
X2598730D2*
X2660761D1*
X2837538D2*
X2856366D1*
X3137530D2*
X3359713D1*
X3476385D2*
X3610041D1*
X3713651D2*
X3837403D1*
X4046584D2*
X4315093D1*
X1558984Y1979940D2*
X1937049D1*
X2246239D2*
X2495873D1*
X2598622D2*
X2678596D1*
X2819703D2*
X2856366D1*
X2953731D2*
X2978587D1*
X3119732D2*
X3334845D1*
X3451517D2*
X3602900D1*
X3720756D2*
X3812535D1*
X3938286D2*
X3963537D1*
X4047482D2*
X4112240D1*
X4236448D2*
X4315093D1*
X1559021Y1955071D2*
X1912181D1*
X2221371D2*
X2487009D1*
X2587354D2*
X2665605D1*
X2832694D2*
X2856366D1*
X2953731D2*
X2965622D1*
X3132686D2*
X3309978D1*
X3426650D2*
X3607386D1*
X3716306D2*
X3787668D1*
X3904340D2*
X3963537D1*
X4047482D2*
X4083461D1*
X4265190D2*
X4315093D1*
X1559021Y1930202D2*
X1887314D1*
X2003984D2*
X2487009D1*
X2570991D2*
X2657387D1*
X3140903D2*
X3285110D1*
X3401781D2*
X3628055D1*
X3695636D2*
X3762801D1*
X3879471D2*
X3963537D1*
X4047482D2*
X4074885D1*
X4273768D2*
X4315093D1*
X1559056Y1905333D2*
X1862445D1*
X1979117D2*
X2482488D1*
X2575512D2*
X2660581D1*
X2944724D2*
X2960573D1*
X3137710D2*
X3260241D1*
X3854604D2*
X3963537D1*
X4047482D2*
X4077038D1*
X4271650D2*
X4315093D1*
X1559093Y1880465D2*
X1837577D1*
X1954249D2*
X2481089D1*
X2576948D2*
X2677949D1*
X2920610D2*
X2977941D1*
X3120341D2*
X3235374D1*
X3829736D2*
X3963537D1*
X4047482D2*
X4056490D1*
X4257332D2*
X4315093D1*
X1559093Y1855596D2*
X1812710D1*
X1929382D2*
X2348173D1*
X2895743D2*
X2965920D1*
X3132364D2*
X3210507D1*
X3804869D2*
X3963537D1*
X4264867D2*
X4315093D1*
X1559129Y1830727D2*
X1787843D1*
X1904513D2*
X2016747D1*
X2286644D2*
X2323306D1*
X2870875D2*
X2957451D1*
X3140832D2*
X3185639D1*
X3390945D2*
X3854627D1*
X3900320D2*
X3963537D1*
X4273696D2*
X4315093D1*
X1559164Y1805858D2*
X1765665D1*
X1879646D2*
X1991844D1*
X2846007D2*
X2960394D1*
X3137888D2*
X3160735D1*
X3366076D2*
X3824486D1*
X3930463D2*
X3963537D1*
X4271794D2*
X4315093D1*
X1559164Y1780990D2*
X1761360D1*
X1854778D2*
X1966976D1*
X2860899D2*
X2977331D1*
X3120988D2*
X3135867D1*
X3341209D2*
X3816268D1*
X3938681D2*
X3963537D1*
X4257835D2*
X4315093D1*
X1559201Y1756121D2*
X1761360D1*
X1845304D2*
X1942108D1*
X2058780D2*
X2236430D1*
X2584268D2*
X2750148D1*
X2885766D2*
X2991290D1*
X3316341D2*
X3819245D1*
X3935738D2*
X3963537D1*
X4264545D2*
X4315093D1*
X1559236Y1731252D2*
X1761360D1*
X1845304D2*
X1917240D1*
X2033912D2*
X2223835D1*
X2359454D2*
X2381761D1*
X2465743D2*
X2484175D1*
X2609135D2*
X2775016D1*
X2910635D2*
X2966423D1*
X3291474D2*
X3642768D1*
X3680888D2*
X3750348D1*
X3779642D2*
X3835861D1*
X3919123D2*
X3956682D1*
X4273623D2*
X4315093D1*
X1559236Y1706383D2*
X1761360D1*
X1845304D2*
X1869657D1*
X2009045D2*
X2169650D1*
X2634004D2*
X2799883D1*
X3266606D2*
X3610938D1*
X3815167D2*
X3961634D1*
X4271937D2*
X4315093D1*
X1559272Y1681514D2*
X1761360D1*
X1845304D2*
X1860185D1*
X1984177D2*
X2160176D1*
X2309718D2*
X2324311D1*
X2658871D2*
X2824752D1*
X3033358D2*
X3055451D1*
X3567100D2*
X3603008D1*
X3823707D2*
X3996657D1*
X4014343D2*
X4026010D1*
X4258301D2*
X4315093D1*
X1559308Y1656646D2*
X1761360D1*
X1845304D2*
X1862625D1*
X1974846D2*
X2162617D1*
X2284850D2*
X2328509D1*
X2548635D2*
X2567067D1*
X2669887D2*
X2849655D1*
X3017713D2*
X3028610D1*
X3593941D2*
X3606740D1*
X3820550D2*
X4026010D1*
X4264222D2*
X4315093D1*
X1559308Y1631777D2*
X1761360D1*
X1845304D2*
X1879168D1*
X1958268D2*
X2170045D1*
X2267411D2*
X2331056D1*
X2548635D2*
X2586014D1*
X2669995D2*
X2874522D1*
X3697862D2*
X3727454D1*
X3802535D2*
X4026010D1*
X4273551D2*
X4315093D1*
X1559344Y1606908D2*
X1761360D1*
X2011234D2*
X2144207D1*
X2288583D2*
X2331056D1*
X2465743D2*
X2586014D1*
X2842419D2*
X2876533D1*
X3673066D2*
X3811639D1*
X3950522D2*
X4026010D1*
X4272080D2*
X4315093D1*
X1559344Y1582039D2*
X1761360D1*
X2011234D2*
X2104341D1*
X2307241D2*
X2331056D1*
X2465743D2*
X2586014D1*
X2842419D2*
X2859164D1*
X3257491D2*
X3489076D1*
X3673066D2*
X3793050D1*
X3969110D2*
X4026010D1*
X4258768D2*
X4315093D1*
X1559379Y1557171D2*
X1761360D1*
X2011234D2*
X2079472D1*
X2311117D2*
X2331056D1*
X2465743D2*
X2586014D1*
X3262479D2*
X3489076D1*
X3673066D2*
X3789211D1*
X3972915D2*
X4020054D1*
X4263864D2*
X4315093D1*
X1559416Y1532302D2*
X1761360D1*
X2011234D2*
X2065299D1*
X2303654D2*
X2331056D1*
X2465743D2*
X2586014D1*
X3134768D2*
X3145592D1*
X3256487D2*
X3489076D1*
X3673066D2*
X3796711D1*
X3965450D2*
X4021525D1*
X4273480D2*
X4315093D1*
X1559416Y1507433D2*
X1761360D1*
X2011234D2*
X2064329D1*
X2287900D2*
X2331056D1*
X2465743D2*
X2586014D1*
X3119230D2*
X3168665D1*
X3233413D2*
X3489076D1*
X3673066D2*
X3824916D1*
X3937245D2*
X4041692D1*
X4272224D2*
X4315093D1*
X1559451Y1482564D2*
X1749016D1*
X2007035D2*
X2064329D1*
X2465743D2*
X2586014D1*
X3138248D2*
X3493238D1*
X3668903D2*
X4029168D1*
X4259234D2*
X4315093D1*
X1559487Y1457696D2*
X1744925D1*
X2011126D2*
X2064329D1*
X2465743D2*
X2586014D1*
X2944329D2*
X2958528D1*
X3142303D2*
X3489184D1*
X3672958D2*
X4011836D1*
X4263504D2*
X4315093D1*
X1559487Y1432827D2*
X1752604D1*
X2003949D2*
X2064329D1*
X2465743D2*
X2586014D1*
X2835063D2*
X2847009D1*
X2944329D2*
X2965777D1*
X3135091D2*
X3496396D1*
X3665745D2*
X4010509D1*
X4273408D2*
X4315093D1*
X1559524Y1407958D2*
X1783787D1*
X1822877D2*
X1851322D1*
X1987190D2*
X2064329D1*
X2287182D2*
X2381761D1*
X2465743D2*
X2586014D1*
X2669995D2*
X2682327D1*
X2818484D2*
X2847000D1*
X2944329D2*
X2982354D1*
X3118512D2*
X3513046D1*
X3649131D2*
X3813038D1*
X3949123D2*
X4010509D1*
X4272367D2*
X4315093D1*
X1559559Y1383089D2*
X1831656D1*
X2006819D2*
X2064329D1*
X2306848D2*
X2381761D1*
X2465743D2*
X2586014D1*
X2838041D2*
X2846995D1*
X2944329D2*
X2962798D1*
X3138033D2*
X3493453D1*
X3726462D2*
X3793445D1*
X3968680D2*
X4010509D1*
X4259664D2*
X4315093D1*
X1559559Y1358220D2*
X1827315D1*
X2011161D2*
X2064329D1*
X2311154D2*
X2381761D1*
X2465743D2*
X2586014D1*
X2944329D2*
X2958492D1*
X3142339D2*
X3489147D1*
X3751329D2*
X3789175D1*
X3972986D2*
X4010509D1*
X4094490D2*
X4132336D1*
X4216316D2*
X4315093D1*
X1559594Y1333352D2*
X1834240D1*
X2004236D2*
X2064329D1*
X2304264D2*
X2381761D1*
X2465743D2*
X2586014D1*
X2941997D2*
X2965490D1*
X3135377D2*
X3496109D1*
X3775408D2*
X3796101D1*
X3966025D2*
X4010509D1*
X4094490D2*
X4132336D1*
X4216316D2*
X4315093D1*
X1559631Y1308483D2*
X1852039D1*
X1986437D2*
X2064329D1*
X2286429D2*
X2381761D1*
X2465743D2*
X2586014D1*
X2669995D2*
X2683081D1*
X2924091D2*
X2983072D1*
X3117759D2*
X3172147D1*
X3227958D2*
X3513764D1*
X3648378D2*
X3684357D1*
X3782764D2*
X3813756D1*
X3948369D2*
X4010509D1*
X4094490D2*
X4132336D1*
X4216316D2*
X4315093D1*
X1559631Y1283614D2*
X1831871D1*
X2006604D2*
X2064329D1*
X2306633D2*
X2381761D1*
X2465743D2*
X2586014D1*
X2899223D2*
X2963013D1*
X3137818D2*
X3145875D1*
X3254261D2*
X3493669D1*
X3668472D2*
X3698782D1*
X3783051D2*
X3793694D1*
X3968465D2*
X3992602D1*
X4094454D2*
X4132336D1*
X4216316D2*
X4315093D1*
X1559667Y1258745D2*
X1827315D1*
X2011197D2*
X2045239D1*
X2311189D2*
X2381761D1*
X2465743D2*
X2586014D1*
X2874320D2*
X2958492D1*
X3328362D2*
X3489147D1*
X3673030D2*
X3699787D1*
X4084335D2*
X4132336D1*
X4216316D2*
X4315093D1*
X1559667Y1233877D2*
X1833953D1*
X2004522D2*
X2020371D1*
X2304514D2*
X2381761D1*
X2465743D2*
X2586014D1*
X2849451D2*
X2965202D1*
X3345839D2*
X3495822D1*
X3666320D2*
X3716114D1*
X4059575D2*
X4132336D1*
X4216316D2*
X4315093D1*
X1559702Y1209008D2*
X1859430D1*
X1979045D2*
X1995504D1*
X2131122D2*
X2159459D1*
X2279037D2*
X2381761D1*
X2465743D2*
X2586014D1*
X2669995D2*
X2690832D1*
X2810016D2*
X2990824D1*
X3110007D2*
X3160987D1*
X3370706D2*
X3521444D1*
X3640698D2*
X3740983D1*
X4034706D2*
X4132336D1*
X4216316D2*
X4315093D1*
X2106255Y1184139D2*
X2381761D1*
X2465743D2*
X2586014D1*
X2669995D2*
X3278902D1*
X3395573D2*
X3765850D1*
X4009839D2*
X4121462D1*
X4216316D2*
X4315130D1*
X2081387Y1159270D2*
X2381797D1*
X2483613D2*
X2586014D1*
X2669995D2*
X3303769D1*
X4211220D2*
X4315130D1*
X2056520Y1134402D2*
X2391881D1*
X2508480D2*
X2586014D1*
X2669995D2*
X3328638D1*
X4188399D2*
X4315130D1*
X2120106Y1109533D2*
X2416677D1*
X2533348D2*
X2586014D1*
X2669995D2*
X3353505D1*
X4163531D2*
X4315130D1*
X1559810Y1084664D2*
X1652990D1*
X1861848D2*
X2008961D1*
X2120106D2*
X2441545D1*
X2558217D2*
X2586660D1*
X2693499D2*
X4315130D1*
X1559846Y1059795D2*
X1648539D1*
X1861848D2*
X2008961D1*
X2120106D2*
X2466412D1*
X2583084D2*
X2601696D1*
X2718367D2*
X4315130D1*
X1559882Y1034927D2*
X1655789D1*
X1861848D2*
X2008961D1*
X2120106D2*
X2491280D1*
X2607951D2*
X2626563D1*
X2743235D2*
X4215371D1*
X4297774D2*
X4315130D1*
X1559882Y1010058D2*
X1661924D1*
X1861848D2*
X2516147D1*
X2632819D2*
X2651430D1*
X2768102D2*
X4199978D1*
X1559917Y985189D2*
X1648539D1*
X1763238D2*
X2541016D1*
X2657686D2*
X2676299D1*
X2792970D2*
X4198219D1*
X1559954Y960320D2*
X1648037D1*
X1763705D2*
X2565883D1*
X2682555D2*
X2701167D1*
X2817839D2*
X4208554D1*
X4304592D2*
X4315146D1*
X1559954Y935451D2*
X1660022D1*
X1751719D2*
X2590751D1*
X2707423D2*
X2726034D1*
X2842706D2*
X4315130D1*
X1559990Y910583D2*
X2615618D1*
X2732290D2*
X2750902D1*
X2867573D2*
X4315130D1*
X1560025Y885714D2*
X2640487D1*
X2757157D2*
X2775769D1*
X2892441D2*
X4315130D1*
X1560025Y860845D2*
X2665354D1*
X2782026D2*
X2800638D1*
X2917308D2*
X4315130D1*
X1560062Y835976D2*
X2690222D1*
X2806894D2*
X2825505D1*
X2942177D2*
X4315130D1*
X1560062Y811108D2*
X1875113D1*
X1959596D2*
X2715089D1*
X2831761D2*
X2850373D1*
X2967045D2*
X4315130D1*
X1560097Y786239D2*
X1858929D1*
X1975780D2*
X2739957D1*
X2856629D2*
X2875240D1*
X2991912D2*
X4315130D1*
X1560133Y761370D2*
X1856202D1*
X1978471D2*
X2764825D1*
X2881496D2*
X2900109D1*
X3016780D2*
X4315130D1*
X1560133Y736501D2*
X1864706D1*
X1969966D2*
X2789693D1*
X2906365D2*
X2924976D1*
X3041648D2*
X4315130D1*
X1560169Y711633D2*
X1663432D1*
X1748310D2*
X1763476D1*
X1848822D2*
X1896068D1*
X1938604D2*
X2814560D1*
X2931232D2*
X2949844D1*
X3066516D2*
X4315130D1*
X1560205Y686764D2*
X1648934D1*
X1863175D2*
X2839428D1*
X2956100D2*
X2974711D1*
X3088621D2*
X4315130D1*
X1560205Y661895D2*
X1647751D1*
X1864252D2*
X2864297D1*
X2980967D2*
X2999579D1*
X3092890D2*
X4315130D1*
X1560241Y637026D2*
X1658766D1*
X1853092D2*
X2889164D1*
X2992738D2*
X3008909D1*
X3092890D2*
X3114625D1*
X3187157D2*
X4315130D1*
X1560277Y612157D2*
X2892680D1*
X3209119D2*
X4315130D1*
X1560277Y587289D2*
X2886508D1*
X3215291D2*
X4315130D1*
X1560312Y562420D2*
X2886472D1*
X3215327D2*
X4167358D1*
X4292786D2*
X4315130D1*
X1560349Y537551D2*
X2886472D1*
X3215327D2*
X4147407D1*
X1560349Y512682D2*
X2886508D1*
X3215291D2*
X4138185D1*
X1560385Y487814D2*
X2892394D1*
X3209407D2*
X4136390D1*
X1560420Y462945D2*
X2913709D1*
X2988072D2*
X3013718D1*
X3088081D2*
X3113727D1*
X3188091D2*
X4141522D1*
X1560420Y438076D2*
X4155087D1*
X4305058D2*
X4315138D1*
X1560457Y413207D2*
X4184332D1*
X4275812D2*
X4315130D1*
X1713936Y3889152D2*
X1712634Y3880928D1*
X1710060Y3873008D1*
X1706280Y3865589D1*
X1701386Y3858852D1*
X1695497Y3852963D1*
X1688760Y3848070D1*
X1681341Y3844289D1*
X1673421Y3841715D1*
X1665197Y3840413D1*
X1656869D1*
X1648644Y3841715D1*
X1640724Y3844289D1*
X1635990Y3846566D1*
X1591589Y3803696D1*
X1596035Y3799651D1*
X1601793Y3792909D1*
X1606424Y3785352D1*
X1609816Y3777161D1*
X1610696Y3774043D1*
X1612879Y3780370D1*
X1616903Y3788269D1*
X1622114Y3795441D1*
X1628382Y3801709D1*
X1635554Y3806920D1*
X1643453Y3810944D1*
X1651883Y3813684D1*
X1660639Y3815070D1*
X1669503D1*
X1678259Y3813684D1*
X1686689Y3810944D1*
X1694588Y3806920D1*
X1701760Y3801709D1*
X1708028Y3795441D1*
X1713239Y3788269D1*
X1717262Y3780370D1*
X1720003Y3771940D1*
X1721388Y3763184D1*
Y3754320D1*
X1720003Y3745564D1*
X1717262Y3737134D1*
X1713239Y3729235D1*
X1708028Y3722063D1*
X1701760Y3715795D1*
X1694588Y3710584D1*
X1686689Y3706560D1*
X1678259Y3703820D1*
X1669503Y3702434D1*
X1660639D1*
X1651883Y3703820D1*
X1643453Y3706560D1*
X1635554Y3710584D1*
X1628382Y3715795D1*
X1622114Y3722063D1*
X1616903Y3729235D1*
X1612879Y3737134D1*
X1610465Y3744413D1*
X1608281Y3738087D1*
X1604257Y3730188D1*
X1599046Y3723016D1*
X1592778Y3716748D1*
X1585606Y3711537D1*
X1577707Y3707513D1*
X1569277Y3704773D1*
X1560521Y3703387D1*
X1554895Y3703260D1*
X1555173Y3390088D1*
X1570567Y3405463D1*
X1570701Y3510841D1*
X1571669Y3516961D1*
X1573584Y3522853D1*
X1576398Y3528373D1*
X1580039Y3533386D1*
X1608126Y3561646D1*
X1684121Y3637640D1*
X1684240Y3663664D1*
X1685209Y3669783D1*
X1687123Y3675676D1*
X1689937Y3681196D1*
X1693579Y3686209D1*
X1721665Y3714469D1*
X1760361Y3753164D1*
X1754736Y3755134D1*
X1746904Y3759125D1*
X1739793Y3764293D1*
X1733577Y3770508D1*
X1728409Y3777619D1*
X1724419Y3785451D1*
X1721702Y3793812D1*
X1720328Y3802495D1*
Y3811285D1*
X1721702Y3819967D1*
X1724419Y3828328D1*
X1728409Y3836160D1*
X1733577Y3843272D1*
X1739793Y3849487D1*
X1746904Y3854655D1*
X1754736Y3858646D1*
X1763097Y3861362D1*
X1771780Y3862736D1*
X1780570D1*
X1789252Y3861362D1*
X1797613Y3858646D1*
X1805445Y3854655D1*
X1812556Y3849487D1*
X1818772Y3843272D1*
X1823940Y3836160D1*
X1827930Y3828328D1*
X1829877Y3822696D1*
X1936927Y3929556D1*
X1941940Y3933198D1*
X1947459Y3936012D1*
X1953352Y3937927D1*
X1959471Y3938895D1*
X2004374Y3939017D1*
X1998113Y3949528D1*
X1995042Y3956189D1*
X1992503Y3963071D1*
X1990512Y3970131D1*
X1989080Y3977325D1*
X1988218Y3984610D1*
X1987930Y3991940D1*
X1988218Y3999269D1*
X1989080Y4006554D1*
X1990512Y4013748D1*
X1992503Y4020808D1*
X1995042Y4027690D1*
X1998113Y4034352D1*
X2001697Y4040752D1*
X2005773Y4046852D1*
X2010314Y4052612D1*
X2015293Y4057999D1*
X2020680Y4062978D1*
X2026440Y4067518D1*
X2032539Y4071594D1*
X2038940Y4075178D1*
X2045601Y4078249D1*
X2052483Y4080789D1*
X2059543Y4082780D1*
X2066738Y4084211D1*
X2074022Y4085073D1*
X2081352Y4085361D1*
X2088681Y4085073D1*
X2095966Y4084211D1*
X2103160Y4082780D1*
X2110220Y4080789D1*
X2117102Y4078249D1*
X2123764Y4075178D1*
X2130164Y4071594D1*
X2136264Y4067518D1*
X2142024Y4062978D1*
X2147411Y4057999D1*
X2152390Y4052612D1*
X2156930Y4046852D1*
X2161007Y4040752D1*
X2164591Y4034352D1*
X2167661Y4027690D1*
X2170201Y4020808D1*
X2172192Y4013748D1*
X2173623Y4006554D1*
X2174486Y3999269D1*
X2174773Y3991940D1*
X2174486Y3984610D1*
X2173623Y3977325D1*
X2172192Y3970131D1*
X2170201Y3963071D1*
X2167661Y3956189D1*
X2164591Y3949528D1*
X2161007Y3943127D1*
X2158252Y3939005D1*
X2202406Y3938895D1*
X2208525Y3937927D1*
X2214417Y3936012D1*
X2219937Y3933198D1*
X2224950Y3929556D1*
X2253210Y3901470D1*
X2345291Y3809387D1*
X2350388Y3810437D1*
X2359226Y3811133D1*
X2368063Y3810437D1*
X2376682Y3808367D1*
X2384873Y3804975D1*
X2392430Y3800344D1*
X2399172Y3794587D1*
X2404929Y3787845D1*
X2409560Y3780287D1*
X2412953Y3772097D1*
X2415022Y3763478D1*
X2415718Y3754640D1*
X2415022Y3745803D1*
X2412953Y3737184D1*
X2411688Y3733753D1*
X2599678Y3733609D1*
X2606835Y3732475D1*
X2613726Y3730236D1*
X2620182Y3726946D1*
X2626045Y3722686D1*
X2640100Y3708833D1*
X2647984Y3706266D1*
X2655541Y3702416D1*
X2662403Y3697430D1*
X2668400Y3691433D1*
X2673386Y3684571D1*
X2677236Y3677014D1*
X2679807Y3669123D1*
X2739453Y3609278D1*
X2743713Y3603416D1*
X2747003Y3596959D1*
X2749241Y3590068D1*
X2750375Y3582912D1*
X2750517Y3551730D1*
X2750373Y3513882D1*
X2751988Y3510274D1*
X2760744Y3508888D1*
X2769175Y3506148D1*
X2777073Y3502125D1*
X2784245Y3496913D1*
X2790513Y3490646D1*
X2795724Y3483474D1*
X2797545Y3480223D1*
X2801757Y3486991D1*
X2807514Y3493732D1*
X2814256Y3499490D1*
X2821814Y3504121D1*
X2830004Y3507513D1*
X2838623Y3509583D1*
X2847461Y3510278D1*
X2856298Y3509583D1*
X2864917Y3507513D1*
X2873108Y3504121D1*
X2880665Y3499490D1*
X2887407Y3493732D1*
X2893164Y3486991D1*
X2897795Y3479433D1*
X2901188Y3471243D1*
X2903257Y3462623D1*
X2903953Y3453786D1*
X2903257Y3444949D1*
X2901188Y3436329D1*
X2897795Y3428139D1*
X2893164Y3420581D1*
X2887407Y3413840D1*
X2880665Y3408083D1*
X2873108Y3403451D1*
X2864917Y3400059D1*
X2856298Y3397990D1*
X2847461Y3397294D1*
X2838623Y3397990D1*
X2830004Y3400059D1*
X2821814Y3403451D1*
X2814256Y3408083D1*
X2807514Y3413840D1*
X2801757Y3420581D1*
X2797472Y3427520D1*
X2793260Y3420752D1*
X2787503Y3414010D1*
X2780761Y3408253D1*
X2773203Y3403622D1*
X2765013Y3400230D1*
X2756394Y3398160D1*
X2747556Y3397465D1*
X2738719Y3398160D1*
X2730100Y3400230D1*
X2721909Y3403622D1*
X2714352Y3408253D1*
X2707610Y3414010D1*
X2701853Y3420752D1*
X2697222Y3428310D1*
X2693829Y3436500D1*
X2692686Y3440552D1*
X2580156Y3328030D1*
X2580172Y3314339D1*
X2587062Y3314361D1*
Y3242772D1*
X2688975Y3140857D1*
X2926146Y3140693D1*
X2933302Y3139560D1*
X2940193Y3137320D1*
X2946650Y3134030D1*
X2952512Y3129772D1*
X2976740Y3105743D1*
X2981446Y3100232D1*
X2985232Y3094055D1*
X2988005Y3087360D1*
X2989697Y3080314D1*
X2990265Y3073091D1*
Y3026836D1*
X3804265Y3026693D1*
X3811421Y3025559D1*
X3818314Y3023320D1*
X3825379Y3019790D1*
X3809268Y3035903D1*
X3748787Y3035769D1*
X3742286Y3032457D1*
X3735348Y3030202D1*
X3728143Y3029060D1*
X3720846D1*
X3713642Y3030202D1*
X3706703Y3032457D1*
X3700202Y3035769D1*
X3694301Y3040056D1*
X3689142Y3045215D1*
X3684854Y3051117D1*
X3681542Y3057618D1*
X3679287Y3064556D1*
X3678146Y3071761D1*
X3678050Y3076621D1*
X3325913Y3076734D1*
X3319794Y3077702D1*
X3313902Y3079617D1*
X3308382Y3082430D1*
X3303369Y3086072D1*
X3275109Y3114159D1*
X3230528Y3158741D1*
X3224709Y3159829D1*
X3216278Y3162570D1*
X3208379Y3166593D1*
X3201207Y3171804D1*
X3194940Y3178072D1*
X3189728Y3185244D1*
X3185705Y3193143D1*
X3182965Y3201573D1*
X3181579Y3210329D1*
Y3219193D1*
X3182965Y3227949D1*
X3185705Y3236379D1*
X3189728Y3244278D1*
X3194940Y3251450D1*
X3201207Y3257718D1*
X3208379Y3262929D1*
X3216278Y3266953D1*
X3224709Y3269693D1*
X3233465Y3271079D1*
X3234625Y3271125D1*
X3293181Y3329496D1*
X3298194Y3333138D1*
X3303714Y3335951D1*
X3309606Y3337866D1*
X3315726Y3338835D1*
X3355570Y3338957D1*
X3482850D1*
X3487652Y3343567D1*
X3495013Y3348916D1*
X3495961Y3349446D1*
X3491228Y3352559D1*
X3484308Y3358469D1*
X3478399Y3365388D1*
X3473644Y3373147D1*
X3470163Y3381552D1*
X3468038Y3390402D1*
X3467324Y3399472D1*
X3468038Y3408543D1*
X3470163Y3417392D1*
X3473644Y3425798D1*
X3478399Y3433556D1*
X3484308Y3440476D1*
X3485392Y3441479D1*
X3467324Y3441484D1*
X3467322Y3466541D1*
X3459423Y3462517D1*
X3450992Y3459777D1*
X3442236Y3458391D1*
X3433373D1*
X3424617Y3459777D1*
X3416186Y3462517D1*
X3408287Y3466541D1*
X3401115Y3471752D1*
X3394848Y3478020D1*
X3389636Y3485192D1*
X3385613Y3493091D1*
X3382873Y3501521D1*
X3381487Y3510277D1*
Y3519140D1*
X3382873Y3527896D1*
X3385613Y3536327D1*
X3389636Y3544226D1*
X3394848Y3551398D1*
X3401115Y3557665D1*
X3408287Y3562877D1*
X3416186Y3566900D1*
X3424617Y3569640D1*
X3433373Y3571026D1*
X3442236D1*
X3446862Y3570462D1*
X3371593Y3645743D1*
X3328648Y3645726D1*
X3323252Y3631757D1*
X3319147Y3623542D1*
X3314467Y3615639D1*
X3309236Y3608091D1*
X3303480Y3600933D1*
X3297230Y3594205D1*
X3290514Y3587937D1*
X3283371Y3582165D1*
X3275835Y3576916D1*
X3267944Y3572217D1*
X3259738Y3568092D1*
X3251259Y3564563D1*
X3242549Y3561646D1*
X3233655Y3559357D1*
X3224619Y3557707D1*
X3215490Y3556705D1*
X3206312Y3556357D1*
X3197133Y3556661D1*
X3187999Y3557621D1*
X3178955Y3559227D1*
X3170050Y3561475D1*
X3161328Y3564350D1*
X3152832Y3567840D1*
X3144606Y3571927D1*
X3136693Y3576588D1*
X3129133Y3581801D1*
X3121961Y3587539D1*
X3115218Y3593774D1*
X3108934Y3600474D1*
X3103146Y3607604D1*
X3097879Y3615129D1*
X3093161Y3623008D1*
X3089017Y3631205D1*
X3085467Y3639676D1*
X3082530Y3648378D1*
X3080220Y3657266D1*
X3078549Y3666298D1*
X3077526Y3675425D1*
X3077155Y3684602D1*
X3077438Y3693782D1*
X3078377Y3702919D1*
X3079962Y3711965D1*
X3082188Y3720875D1*
X3085043Y3729605D1*
X3088512Y3738109D1*
X3092579Y3746344D1*
X3097222Y3754268D1*
X3102417Y3761843D1*
X3108139Y3769026D1*
X3114358Y3775785D1*
X3121042Y3782083D1*
X3128159Y3787890D1*
X3135671Y3793173D1*
X3143539Y3797909D1*
X3151726Y3802073D1*
X3160189Y3805643D1*
X3168883Y3808601D1*
X3177768Y3810932D1*
X3186794Y3812625D1*
X3195920Y3813669D1*
X3205096Y3814062D1*
X3214276Y3813799D1*
X3223415Y3812883D1*
X3232465Y3811319D1*
X3241381Y3809114D1*
X3250117Y3806280D1*
X3258629Y3802831D1*
X3266874Y3798783D1*
X3274808Y3794159D1*
X3282395Y3788982D1*
X3289593Y3783277D1*
X3296366Y3777073D1*
X3302680Y3770404D1*
X3308503Y3763302D1*
X3313804Y3755802D1*
X3318559Y3747944D1*
X3322743Y3739768D1*
X3326332Y3731314D1*
X3328601Y3724696D1*
X3391063Y3724572D1*
X3397182Y3723604D1*
X3403075Y3721689D1*
X3408594Y3718875D1*
X3413608Y3715234D1*
X3441867Y3687147D1*
X3526743Y3602270D1*
X3673394Y3602287D1*
X3665318Y3611944D1*
X3660051Y3619469D1*
X3655333Y3627348D1*
X3651189Y3635545D1*
X3647639Y3644016D1*
X3644702Y3652718D1*
X3642392Y3661606D1*
X3640509Y3672528D1*
X3633322Y3667516D1*
X3625430Y3662816D1*
X3617224Y3658692D1*
X3608745Y3655163D1*
X3600035Y3652245D1*
X3591142Y3649957D1*
X3582106Y3648307D1*
X3572976Y3647304D1*
X3563799Y3646957D1*
X3554619Y3647261D1*
X3545486Y3648220D1*
X3536442Y3649827D1*
X3527537Y3652075D1*
X3518815Y3654950D1*
X3510319Y3658440D1*
X3502093Y3662526D1*
X3494180Y3667188D1*
X3486619Y3672400D1*
X3479448Y3678139D1*
X3472705Y3684374D1*
X3466421Y3691073D1*
X3460633Y3698203D1*
X3455366Y3705728D1*
X3450648Y3713608D1*
X3446504Y3721804D1*
X3442954Y3730276D1*
X3440017Y3738978D1*
X3437707Y3747866D1*
X3436035Y3756898D1*
X3435013Y3766025D1*
X3434642Y3775202D1*
X3434925Y3784382D1*
X3435864Y3793518D1*
X3437449Y3802564D1*
X3439675Y3811475D1*
X3442530Y3820205D1*
X3445999Y3828709D1*
X3450066Y3836944D1*
X3454709Y3844867D1*
X3459904Y3852442D1*
X3465626Y3859626D1*
X3471845Y3866385D1*
X3478529Y3872682D1*
X3485646Y3878490D1*
X3493157Y3883773D1*
X3501026Y3888509D1*
X3509213Y3892673D1*
X3517676Y3896243D1*
X3526370Y3899201D1*
X3535255Y3901531D1*
X3544281Y3903224D1*
X3553407Y3904269D1*
X3562583Y3904661D1*
X3571762Y3904399D1*
X3580902Y3903483D1*
X3589951Y3901919D1*
X3598867Y3899714D1*
X3607604Y3896879D1*
X3616115Y3893430D1*
X3624361Y3889383D1*
X3632295Y3884759D1*
X3639882Y3879581D1*
X3647080Y3873877D1*
X3653853Y3867673D1*
X3660167Y3861004D1*
X3665990Y3853902D1*
X3671291Y3846402D1*
X3676046Y3838543D1*
X3680230Y3830367D1*
X3683819Y3821913D1*
X3686798Y3813226D1*
X3689150Y3804348D1*
X3691151Y3792865D1*
X3697843Y3797513D1*
X3705711Y3802249D1*
X3713898Y3806413D1*
X3722361Y3809983D1*
X3731055Y3812941D1*
X3739940Y3815272D1*
X3748966Y3816965D1*
X3758092Y3818009D1*
X3767268Y3818402D1*
X3776448Y3818139D1*
X3785587Y3817223D1*
X3794636Y3815659D1*
X3803552Y3813454D1*
X3812289Y3810619D1*
X3820801Y3807171D1*
X3829046Y3803123D1*
X3836980Y3798499D1*
X3844567Y3793322D1*
X3851765Y3787617D1*
X3858538Y3781413D1*
X3864852Y3774744D1*
X3870675Y3767642D1*
X3875976Y3760142D1*
X3880731Y3752283D1*
X3884915Y3744108D1*
X3888504Y3735654D1*
X3891483Y3726966D1*
X3893835Y3718088D1*
X3895549Y3709064D1*
X3896614Y3699942D1*
X3897034Y3689550D1*
X3896707Y3680371D1*
X3895727Y3671240D1*
X3894098Y3662201D1*
X3891831Y3653301D1*
X3888934Y3644585D1*
X3885424Y3636097D1*
X3881319Y3627882D1*
X3876639Y3619979D1*
X3871408Y3612430D1*
X3862892Y3602303D1*
X3988587Y3602165D1*
X3994706Y3601197D1*
X4000598Y3599282D1*
X4006118Y3596469D1*
X4012857Y3591585D1*
X4016102Y3599423D1*
X4020534Y3606654D1*
X4026042Y3613104D1*
X4032492Y3618612D1*
X4039723Y3623043D1*
X4047560Y3626289D1*
X4055807Y3628269D1*
X4060336Y3628780D1*
X4061705Y3637501D1*
X4064325Y3645568D1*
X4068176Y3653125D1*
X4073161Y3659987D1*
X4079159Y3665984D1*
X4086021Y3670970D1*
X4093577Y3674820D1*
X4101644Y3677441D1*
X4110022Y3678768D1*
X4118503D1*
X4126881Y3677441D1*
X4134948Y3674820D1*
X4142504Y3670970D1*
X4149366Y3665984D1*
X4155364Y3659987D1*
X4160349Y3653125D1*
X4164199Y3645568D1*
X4166820Y3637501D1*
X4168147Y3629123D1*
Y3620643D1*
X4166820Y3612265D1*
X4164199Y3604198D1*
X4160349Y3596642D1*
X4155364Y3589780D1*
X4149366Y3583782D1*
X4142504Y3578797D1*
X4134948Y3574946D1*
X4126881Y3572325D1*
X4118189Y3570987D1*
X4116820Y3562265D1*
X4114199Y3554198D1*
X4110349Y3546642D1*
X4105364Y3539780D1*
X4101131Y3535415D1*
X4109302Y3527070D1*
X4112944Y3522056D1*
X4115757Y3516537D1*
X4117672Y3510644D1*
X4118640Y3504525D1*
X4118762Y3464681D1*
Y3359791D1*
X4129186Y3362350D1*
X4138892Y3363112D1*
X4214598Y3362923D1*
X4224197Y3361402D1*
X4233438Y3358399D1*
X4242096Y3353988D1*
X4249958Y3348276D1*
X4256828Y3341406D1*
X4257404Y3340675D1*
X4265604Y3340186D1*
X4271627Y3338739D1*
X4277352Y3336369D1*
X4282635Y3333131D1*
X4287354Y3329098D1*
X4299929Y3316352D1*
X4303571Y3311339D1*
X4306385Y3305819D1*
X4308299Y3299927D1*
X4309268Y3293807D1*
X4309390Y3253963D1*
X4309268Y2532734D1*
X4308299Y2526614D1*
X4306385Y2520722D1*
X4303571Y2515202D1*
X4299929Y2510189D1*
X4271843Y2481929D1*
X4043705Y2253793D1*
X4050356Y2249601D1*
X4057097Y2243844D1*
X4062854Y2237102D1*
X4067486Y2229545D1*
X4070878Y2221354D1*
X4072948Y2212735D1*
X4073643Y2203898D1*
X4072948Y2195060D1*
X4070878Y2186441D1*
X4067486Y2178251D1*
X4062854Y2170693D1*
X4057097Y2163951D1*
X4050356Y2158194D1*
X4042798Y2153563D1*
X4034608Y2150171D1*
X4025988Y2148101D1*
X4017151Y2147406D1*
X4008314Y2148101D1*
X3999694Y2150171D1*
X3991504Y2153563D1*
X3983946Y2158194D1*
X3977205Y2163951D1*
X3971448Y2170693D1*
X3967299Y2177388D1*
X3931377Y2141636D1*
X3926364Y2137995D1*
X3923648Y2136474D1*
X3927081Y2130627D1*
X4035535Y2022000D1*
X4039177Y2016987D1*
X4041991Y2011467D1*
X4043906Y2005575D1*
X4044874Y1999455D1*
X4044996Y1959612D1*
Y1866492D1*
X4080600Y1902063D1*
X4078685Y1908471D1*
X4077164Y1918070D1*
Y1927786D1*
X4078685Y1937385D1*
X4081688Y1946626D1*
X4086098Y1955283D1*
X4091811Y1963146D1*
X4098681Y1970016D1*
X4106543Y1975728D1*
X4115201Y1980139D1*
X4124442Y1983142D1*
X4134041Y1984663D1*
X4157272Y1984853D1*
X4214623Y1984663D1*
X4224222Y1983142D1*
X4233463Y1980139D1*
X4242121Y1975728D1*
X4249983Y1970016D1*
X4256853Y1963146D1*
X4262566Y1955283D1*
X4266976Y1946626D1*
X4269979Y1937385D1*
X4271500Y1927786D1*
Y1918070D1*
X4269979Y1908471D1*
X4266976Y1899230D1*
X4262566Y1890572D1*
X4256853Y1882710D1*
X4249983Y1875840D1*
X4246298Y1872936D1*
X4253552Y1866715D1*
X4259864Y1859327D1*
X4264941Y1851041D1*
X4268660Y1842064D1*
X4270928Y1832615D1*
X4271690Y1822928D1*
X4270928Y1813240D1*
X4268660Y1803791D1*
X4264941Y1794815D1*
X4259864Y1786529D1*
X4253552Y1779140D1*
X4246298Y1772936D1*
X4253552Y1766715D1*
X4259864Y1759327D1*
X4264941Y1751041D1*
X4268660Y1742064D1*
X4270928Y1732615D1*
X4271690Y1722928D1*
X4270928Y1713240D1*
X4268660Y1703791D1*
X4264941Y1694815D1*
X4259864Y1686529D1*
X4253552Y1679140D1*
X4246298Y1672936D1*
X4253552Y1666715D1*
X4259864Y1659327D1*
X4264941Y1651041D1*
X4268660Y1642064D1*
X4270928Y1632615D1*
X4271690Y1622928D1*
X4270928Y1613240D1*
X4268660Y1603791D1*
X4264941Y1594815D1*
X4259864Y1586529D1*
X4253552Y1579140D1*
X4246298Y1572936D1*
X4253552Y1566715D1*
X4259864Y1559327D1*
X4264941Y1551041D1*
X4268660Y1542064D1*
X4270928Y1532615D1*
X4271690Y1522928D1*
X4270928Y1513240D1*
X4268660Y1503791D1*
X4264941Y1494815D1*
X4259864Y1486529D1*
X4253552Y1479140D1*
X4246298Y1472936D1*
X4253552Y1466715D1*
X4259864Y1459327D1*
X4264941Y1451041D1*
X4268660Y1442064D1*
X4270928Y1432615D1*
X4271690Y1422928D1*
X4270928Y1413240D1*
X4268660Y1403791D1*
X4264941Y1394815D1*
X4259864Y1386529D1*
X4253552Y1379140D1*
X4246164Y1372829D1*
X4237878Y1367752D1*
X4228902Y1364033D1*
X4219453Y1361765D1*
X4213807Y1361161D1*
X4213694Y1175588D1*
X4212726Y1169469D1*
X4210811Y1163576D1*
X4207997Y1158056D1*
X4204356Y1153043D1*
X4176269Y1124783D1*
X4155770Y1104458D1*
X4150757Y1100816D1*
X4145238Y1098003D1*
X4139345Y1096088D1*
X4133226Y1095119D1*
X4093382Y1094997D1*
X3383802Y1095119D1*
X3377682Y1096088D1*
X3371790Y1098003D1*
X3366269Y1100816D1*
X3361257Y1104458D1*
X3332997Y1132545D1*
X3274340Y1190982D1*
X3267400Y1193236D1*
X3260900Y1196549D1*
X3254999Y1200836D1*
X3249840Y1205995D1*
X3245551Y1211896D1*
X3243583Y1215483D1*
X3238358Y1210419D1*
X3230873Y1204979D1*
X3222627Y1200778D1*
X3213825Y1197919D1*
X3204686Y1196471D1*
X3195432D1*
X3186293Y1197919D1*
X3177491Y1200778D1*
X3169247Y1204979D1*
X3161760Y1210419D1*
X3155217Y1216962D1*
X3149777Y1224448D1*
X3145576Y1232693D1*
X3142717Y1241495D1*
X3141269Y1250634D1*
Y1259888D1*
X3142717Y1269028D1*
X3145576Y1277829D1*
X3149777Y1286075D1*
X3155217Y1293560D1*
X3161760Y1300104D1*
X3169247Y1305543D1*
X3177491Y1309744D1*
X3186293Y1312604D1*
X3195432Y1314051D1*
X3204686D1*
X3213825Y1312604D1*
X3222627Y1309744D1*
X3230873Y1305543D1*
X3238358Y1300104D1*
X3244902Y1293560D1*
X3250341Y1286075D1*
X3254542Y1277829D1*
X3256377Y1272667D1*
X3260900Y1275829D1*
X3267400Y1279142D1*
X3274340Y1281396D1*
X3281545Y1282538D1*
X3288840D1*
X3296046Y1281396D1*
X3302984Y1279142D1*
X3309484Y1275829D1*
X3315387Y1271542D1*
X3320546Y1266383D1*
X3324833Y1260482D1*
X3328146Y1253980D1*
X3330453Y1246777D1*
X3403266Y1173955D1*
X3778504Y1173966D1*
X3710752Y1241921D1*
X3707110Y1246934D1*
X3704297Y1252454D1*
X3702382Y1258346D1*
X3701413Y1264466D1*
X3701291Y1294083D1*
X3673806Y1321551D1*
X3655046Y1321534D1*
X3650231Y1316924D1*
X3642870Y1311575D1*
X3641923Y1311045D1*
X3646655Y1307932D1*
X3653575Y1302022D1*
X3659484Y1295102D1*
X3664239Y1287344D1*
X3667720Y1278938D1*
X3669845Y1270089D1*
X3670559Y1261018D1*
X3669845Y1251948D1*
X3667720Y1243098D1*
X3664239Y1234693D1*
X3659484Y1226934D1*
X3653575Y1220014D1*
X3646655Y1214105D1*
X3638896Y1209350D1*
X3630491Y1205869D1*
X3621642Y1203744D1*
X3612571Y1203030D1*
X3549579D1*
X3540508Y1203744D1*
X3531659Y1205869D1*
X3523253Y1209350D1*
X3515495Y1214105D1*
X3508575Y1220014D1*
X3502665Y1226934D1*
X3497911Y1234693D1*
X3494429Y1243098D1*
X3492304Y1251948D1*
X3491591Y1261018D1*
X3492304Y1270089D1*
X3494429Y1278938D1*
X3497911Y1287344D1*
X3502665Y1295102D1*
X3508575Y1302022D1*
X3515495Y1307932D1*
X3520227Y1310992D1*
X3515495Y1314105D1*
X3508575Y1320014D1*
X3502665Y1326934D1*
X3497911Y1334693D1*
X3494429Y1343098D1*
X3492304Y1351948D1*
X3491591Y1361018D1*
X3492304Y1370089D1*
X3494429Y1378938D1*
X3497911Y1387344D1*
X3502665Y1395102D1*
X3508575Y1402022D1*
X3515495Y1407932D1*
X3520227Y1410992D1*
X3515495Y1414105D1*
X3508575Y1420014D1*
X3502665Y1426934D1*
X3497911Y1434693D1*
X3494429Y1443098D1*
X3492304Y1451948D1*
X3491591Y1461018D1*
X3492304Y1470089D1*
X3494429Y1478938D1*
X3497911Y1487344D1*
X3502665Y1495102D1*
X3508575Y1502022D1*
X3509659Y1503025D1*
X3491591Y1503030D1*
Y1595647D1*
X3246647Y1595676D1*
X3251312Y1589094D1*
X3255513Y1580849D1*
X3258373Y1572047D1*
X3259822Y1562908D1*
Y1553654D1*
X3258373Y1544514D1*
X3255513Y1535713D1*
X3251312Y1527467D1*
X3245873Y1519982D1*
X3239329Y1513438D1*
X3231844Y1507999D1*
X3223598Y1503798D1*
X3214797Y1500938D1*
X3205657Y1499491D1*
X3196403D1*
X3187264Y1500938D1*
X3178462Y1503798D1*
X3170218Y1507999D1*
X3162731Y1513438D1*
X3156188Y1519982D1*
X3150748Y1527467D1*
X3146547Y1535713D1*
X3143688Y1544514D1*
X3142240Y1553654D1*
Y1562908D1*
X3143688Y1572047D1*
X3146547Y1580849D1*
X3150748Y1589094D1*
X3155482Y1595685D1*
X3128445Y1595676D1*
X3133584Y1587370D1*
X3137066Y1578965D1*
X3139190Y1570115D1*
X3139904Y1561045D1*
X3139190Y1551974D1*
X3137066Y1543125D1*
X3133584Y1534719D1*
X3128829Y1526961D1*
X3122920Y1520041D1*
X3116000Y1514131D1*
X3111268Y1511071D1*
X3116000Y1507958D1*
X3122920Y1502049D1*
X3128829Y1495129D1*
X3133584Y1487370D1*
X3137066Y1478965D1*
X3139190Y1470115D1*
X3139904Y1461045D1*
X3139190Y1451974D1*
X3137066Y1443125D1*
X3133584Y1434719D1*
X3128829Y1426961D1*
X3122920Y1420041D1*
X3116000Y1414131D1*
X3111268Y1411071D1*
X3116000Y1407958D1*
X3122920Y1402049D1*
X3128829Y1395129D1*
X3133584Y1387370D1*
X3137066Y1378965D1*
X3139190Y1370115D1*
X3139904Y1361045D1*
X3139190Y1351974D1*
X3137066Y1343125D1*
X3133584Y1334719D1*
X3128829Y1326961D1*
X3122920Y1320041D1*
X3116000Y1314131D1*
X3111268Y1311071D1*
X3116000Y1307958D1*
X3122920Y1302049D1*
X3128829Y1295129D1*
X3133584Y1287370D1*
X3137066Y1278965D1*
X3139190Y1270115D1*
X3139904Y1261045D1*
X3139190Y1251974D1*
X3137066Y1243125D1*
X3133584Y1234719D1*
X3128829Y1226961D1*
X3122920Y1220041D1*
X3116000Y1214131D1*
X3108241Y1209377D1*
X3099836Y1205895D1*
X3090987Y1203770D1*
X3081916Y1203056D1*
X3018924D1*
X3009853Y1203770D1*
X3001004Y1205895D1*
X2992598Y1209377D1*
X2984840Y1214131D1*
X2977920Y1220041D1*
X2972010Y1226961D1*
X2967256Y1234719D1*
X2963774Y1243125D1*
X2961650Y1251974D1*
X2960936Y1261045D1*
X2961650Y1270115D1*
X2963774Y1278965D1*
X2967256Y1287370D1*
X2972010Y1295129D1*
X2977920Y1302049D1*
X2984840Y1307958D1*
X2989572Y1311018D1*
X2984840Y1314131D1*
X2977920Y1320041D1*
X2972010Y1326961D1*
X2967256Y1334719D1*
X2963774Y1343125D1*
X2961650Y1351974D1*
X2960936Y1361045D1*
X2961650Y1370115D1*
X2963774Y1378965D1*
X2967256Y1387370D1*
X2972010Y1395129D1*
X2977920Y1402049D1*
X2984840Y1407958D1*
X2989572Y1411018D1*
X2984840Y1414131D1*
X2977920Y1420041D1*
X2972010Y1426961D1*
X2967256Y1434719D1*
X2963774Y1443125D1*
X2961650Y1451974D1*
X2960936Y1461045D1*
X2961650Y1470115D1*
X2963774Y1478965D1*
X2967256Y1487370D1*
X2972010Y1495129D1*
X2977920Y1502049D1*
X2984840Y1507958D1*
X2989572Y1511018D1*
X2985062Y1513983D1*
X2941860Y1470768D1*
X2941705Y1344259D1*
X2940571Y1337102D1*
X2938332Y1330210D1*
X2935042Y1323755D1*
X2930782Y1317892D1*
X2908835Y1295743D1*
X2838822Y1225932D1*
X2832959Y1221672D1*
X2826504Y1218382D1*
X2819598Y1216140D1*
X2812215Y1211601D1*
X2804108Y1207471D1*
X2795453Y1204659D1*
X2786466Y1203235D1*
X2763543Y1203056D1*
X2718924D1*
X2709853Y1203770D1*
X2701004Y1205895D1*
X2692598Y1209377D1*
X2684840Y1214131D1*
X2677920Y1220041D1*
X2672010Y1226961D1*
X2667491Y1234299D1*
X2667488Y1108207D1*
X3078820Y696841D1*
X3082844Y692130D1*
X3086081Y686846D1*
X3088451Y681122D1*
X3089899Y675098D1*
X3090385Y668921D1*
Y632786D1*
X3094688Y628900D1*
X3100892Y621646D1*
X3107113Y628900D1*
X3114501Y635211D1*
X3122787Y640289D1*
X3131764Y644008D1*
X3141213Y646276D1*
X3150900Y647038D1*
X3160588Y646276D1*
X3170037Y644008D1*
X3179013Y640289D1*
X3187299Y635211D1*
X3194688Y628900D1*
X3200999Y621512D1*
X3206076Y613226D1*
X3209795Y604249D1*
X3212063Y594801D1*
X3212825Y585113D1*
X3212635Y509388D1*
X3211114Y499790D1*
X3208112Y490549D1*
X3203701Y481891D1*
X3197988Y474029D1*
X3191118Y467159D1*
X3183256Y461446D1*
X3174598Y457035D1*
X3165357Y454033D1*
X3155759Y452512D1*
X3146042D1*
X3136444Y454033D1*
X3127202Y457035D1*
X3118545Y461446D1*
X3110682Y467159D1*
X3103812Y474029D1*
X3100908Y477714D1*
X3094688Y470459D1*
X3087299Y464148D1*
X3079013Y459071D1*
X3070037Y455352D1*
X3060588Y453084D1*
X3050900Y452322D1*
X3041213Y453084D1*
X3031764Y455352D1*
X3022787Y459071D1*
X3014501Y464148D1*
X3007113Y470459D1*
X3000908Y477714D1*
X2994688Y470459D1*
X2987299Y464148D1*
X2979013Y459071D1*
X2970037Y455352D1*
X2960588Y453084D1*
X2950900Y452322D1*
X2941213Y453084D1*
X2931764Y455352D1*
X2922787Y459071D1*
X2914501Y464148D1*
X2907113Y470459D1*
X2900802Y477848D1*
X2895724Y486134D1*
X2892005Y495110D1*
X2889738Y504559D1*
X2888976Y514265D1*
X2889165Y589971D1*
X2890686Y599570D1*
X2893689Y608811D1*
X2898100Y617469D1*
X2903612Y625076D1*
X2393723Y1135142D1*
X2390081Y1140155D1*
X2387268Y1145675D1*
X2385353Y1151567D1*
X2384385Y1157686D1*
X2384262Y1197530D1*
Y1444879D1*
X2370104Y1430913D1*
X2365091Y1427272D1*
X2359571Y1424458D1*
X2353678Y1422543D1*
X2347559Y1421575D1*
X2307715Y1421453D1*
X2293182D1*
X2288404Y1416843D1*
X2281043Y1411493D1*
X2280096Y1410963D1*
X2284828Y1407850D1*
X2291748Y1401941D1*
X2297657Y1395021D1*
X2302412Y1387262D1*
X2305894Y1378857D1*
X2308018Y1370008D1*
X2308732Y1360937D1*
X2308018Y1351866D1*
X2305894Y1343017D1*
X2302412Y1334612D1*
X2297657Y1326853D1*
X2291748Y1319933D1*
X2284828Y1314024D1*
X2280096Y1310963D1*
X2284828Y1307850D1*
X2291748Y1301941D1*
X2297657Y1295021D1*
X2302412Y1287262D1*
X2305894Y1278857D1*
X2308018Y1270008D1*
X2308732Y1260937D1*
X2308018Y1251866D1*
X2305894Y1243017D1*
X2302412Y1234612D1*
X2297657Y1226853D1*
X2291748Y1219933D1*
X2284828Y1214024D1*
X2277070Y1209269D1*
X2268664Y1205787D1*
X2259815Y1203663D1*
X2250744Y1202949D1*
X2187752D1*
X2178681Y1203663D1*
X2169832Y1205787D1*
X2161427Y1209269D1*
X2153668Y1214024D1*
X2146748Y1219933D1*
X2143316Y1223710D1*
X2037322Y1117923D1*
X2039033Y1117407D1*
X2117608D1*
Y1011273D1*
X2011474D1*
Y1107047D1*
X1988970Y1106867D1*
X1859392D1*
X1859357Y1007664D1*
X1749444D1*
X1754045Y1001188D1*
X1758068Y993289D1*
X1760808Y984858D1*
X1762194Y976102D1*
Y967239D1*
X1760808Y958483D1*
X1758068Y950052D1*
X1754045Y942154D1*
X1748833Y934982D1*
X1742566Y928714D1*
X1735394Y923503D1*
X1727495Y919479D1*
X1719064Y916739D1*
X1710308Y915353D1*
X1701445D1*
X1692689Y916739D1*
X1684259Y919479D1*
X1676360Y923503D1*
X1669188Y928714D1*
X1662920Y934982D1*
X1657709Y942154D1*
X1653685Y950052D1*
X1650945Y958483D1*
X1649559Y967239D1*
Y976102D1*
X1650945Y984858D1*
X1653685Y993289D1*
X1657709Y1001188D1*
X1662920Y1008360D1*
X1669188Y1014627D1*
X1673320Y1017807D1*
X1667375Y1022986D1*
X1661665Y1029669D1*
X1657073Y1037165D1*
X1653709Y1045286D1*
X1651657Y1053833D1*
X1650967Y1062597D1*
X1651657Y1071361D1*
X1653709Y1079908D1*
X1657073Y1088029D1*
X1661665Y1095525D1*
X1667375Y1102209D1*
X1672723Y1106865D1*
X1557319Y1106867D1*
X1557955Y406319D1*
X4203588Y406251D1*
X4195113Y409285D1*
X4188597Y412289D1*
X4182337Y415794D1*
X4176371Y419780D1*
X4170738Y424222D1*
X4165470Y429092D1*
X4160600Y434360D1*
X4156157Y439993D1*
X4152172Y445959D1*
X4148667Y452219D1*
X4145663Y458735D1*
X4143180Y465466D1*
X4141232Y472370D1*
X4139832Y479407D1*
X4138990Y486531D1*
X4138707Y493701D1*
X4138990Y500870D1*
X4139832Y507995D1*
X4141232Y515031D1*
X4143180Y521936D1*
X4145663Y528667D1*
X4148667Y535182D1*
X4152172Y541442D1*
X4156157Y547408D1*
X4160600Y553042D1*
X4165470Y558310D1*
X4170738Y563180D1*
X4176371Y567622D1*
X4182337Y571608D1*
X4188597Y575113D1*
X4195113Y578117D1*
X4201844Y580600D1*
X4208748Y582547D1*
X4215785Y583948D1*
X4222909Y584790D1*
X4230079Y585072D1*
X4237248Y584790D1*
X4244373Y583948D1*
X4251409Y582547D1*
X4258314Y580600D1*
X4265045Y578117D1*
X4271560Y575113D1*
X4277820Y571608D1*
X4283786Y567622D1*
X4289420Y563180D1*
X4294688Y558310D1*
X4299558Y553042D1*
X4304000Y547408D1*
X4307986Y541442D1*
X4311491Y535182D1*
X4314495Y528667D1*
X4317640Y519589D1*
X4317512Y4201311D1*
X4315214Y4195156D1*
X4312210Y4188640D1*
X4308705Y4182381D1*
X4304719Y4176415D1*
X4300277Y4170781D1*
X4295407Y4165513D1*
X4290139Y4160643D1*
X4284505Y4156201D1*
X4278539Y4152215D1*
X4272280Y4148710D1*
X4265764Y4145706D1*
X4259033Y4143223D1*
X4252129Y4141276D1*
X4245092Y4139875D1*
X4237967Y4139033D1*
X4230798Y4138751D1*
X4223629Y4139033D1*
X4216504Y4139875D1*
X4209467Y4141276D1*
X4202563Y4143223D1*
X4195832Y4145706D1*
X4189316Y4148710D1*
X4183056Y4152215D1*
X4177091Y4156201D1*
X4171457Y4160643D1*
X4166189Y4165513D1*
X4161319Y4170781D1*
X4156877Y4176415D1*
X4152891Y4182381D1*
X4149386Y4188640D1*
X4146382Y4195156D1*
X4143899Y4201887D1*
X4141951Y4208791D1*
X4140551Y4215828D1*
X4139709Y4222953D1*
X4139427Y4230122D1*
X4139709Y4237291D1*
X4140551Y4244416D1*
X4141951Y4251453D1*
X4143899Y4258357D1*
X4146382Y4265088D1*
X4149386Y4271604D1*
X4152891Y4277864D1*
X4156877Y4283829D1*
X4161319Y4289463D1*
X4166189Y4294731D1*
X4171457Y4299601D1*
X4177091Y4304043D1*
X4183056Y4308029D1*
X4189316Y4311534D1*
X4195832Y4314538D1*
X4203722Y4317349D1*
X1803541Y4312421D1*
X1807581Y4307362D1*
X1812982Y4298550D1*
X1816937Y4289003D1*
X1819349Y4278953D1*
X1820160Y4268650D1*
X1819349Y4258346D1*
X1816937Y4248297D1*
X1812982Y4238749D1*
X1807581Y4229937D1*
X1800870Y4222077D1*
X1799430Y4220748D1*
X1799428Y4080408D1*
X1804379Y4075243D1*
X1810454Y4066882D1*
X1815147Y4057673D1*
X1818340Y4047844D1*
X1819957Y4037636D1*
Y4027301D1*
X1818340Y4017093D1*
X1815147Y4007264D1*
X1810454Y3998055D1*
X1804379Y3989694D1*
X1797072Y3982387D1*
X1788711Y3976312D1*
X1779503Y3971619D1*
X1769673Y3968427D1*
X1760689Y3966954D1*
X1708638Y3916702D1*
X1711503Y3909715D1*
X1713446Y3901618D1*
X1714100Y3893316D1*
X1713936Y3889152D1*
X1976130Y762911D2*
X1974682Y753772D1*
X1971823Y744970D1*
X1967622Y736724D1*
X1962182Y729239D1*
X1955639Y722696D1*
X1948154Y717256D1*
X1939908Y713055D1*
X1931106Y710196D1*
X1921967Y708748D1*
X1912713D1*
X1903573Y710196D1*
X1894772Y713055D1*
X1886526Y717256D1*
X1879041Y722696D1*
X1872497Y729239D1*
X1867058Y736724D1*
X1862857Y744970D1*
X1859997Y753772D1*
X1858550Y762911D1*
Y772165D1*
X1859997Y781304D1*
X1862857Y790106D1*
X1867058Y798352D1*
X1872497Y805837D1*
X1879041Y812381D1*
X1886526Y817820D1*
X1894772Y822021D1*
X1903573Y824881D1*
X1912713Y826328D1*
X1921967D1*
X1931106Y824881D1*
X1939908Y822021D1*
X1948154Y817820D1*
X1955639Y812381D1*
X1962182Y805837D1*
X1967622Y798352D1*
X1971823Y790106D1*
X1974682Y781304D1*
X1976130Y772165D1*
Y762911D1*
X3236341Y2113633D2*
X3233814Y2109017D1*
X3228374Y2101531D1*
X3221831Y2094988D1*
X3214345Y2089549D1*
X3206100Y2085348D1*
X3197298Y2082488D1*
X3188159Y2081041D1*
X3178904D1*
X3169765Y2082488D1*
X3160963Y2085348D1*
X3152718Y2089549D1*
X3145232Y2094988D1*
X3138689Y2101531D1*
X3135390Y2105814D1*
X3132312Y2098614D1*
X3127558Y2090856D1*
X3121648Y2083936D1*
X3114728Y2078026D1*
X3109996Y2074966D1*
X3114728Y2071853D1*
X3121648Y2065944D1*
X3127558Y2059024D1*
X3132312Y2051265D1*
X3135794Y2042860D1*
X3137919Y2034010D1*
X3138633Y2024940D1*
X3137919Y2015869D1*
X3135794Y2007020D1*
X3132312Y1998614D1*
X3127558Y1990856D1*
X3121648Y1983936D1*
X3114728Y1978026D1*
X3109996Y1974966D1*
X3114728Y1971853D1*
X3121648Y1965944D1*
X3127558Y1959024D1*
X3132312Y1951265D1*
X3135794Y1942860D1*
X3137919Y1934010D1*
X3138633Y1924940D1*
X3137919Y1915869D1*
X3135794Y1907020D1*
X3132312Y1898614D1*
X3127558Y1890856D1*
X3121648Y1883936D1*
X3114728Y1878026D1*
X3109996Y1874966D1*
X3114728Y1871853D1*
X3121648Y1865944D1*
X3127558Y1859024D1*
X3132312Y1851265D1*
X3135794Y1842860D1*
X3137919Y1834010D1*
X3138633Y1824940D1*
X3137919Y1815869D1*
X3135794Y1807020D1*
X3132312Y1798614D1*
X3127558Y1790856D1*
X3121648Y1783936D1*
X3114728Y1778026D1*
X3106970Y1773272D1*
X3101850Y1771003D1*
X3128419Y1770999D1*
X3453109Y2095715D1*
X3301840Y2095546D1*
X3295339Y2092234D1*
X3288400Y2089979D1*
X3281196Y2088837D1*
X3273899D1*
X3266694Y2089979D1*
X3259756Y2092234D1*
X3253255Y2095546D1*
X3247353Y2099833D1*
X3242194Y2104992D1*
X3237907Y2110894D1*
X3236366Y2113644D1*
X2480928Y3276442D2*
Y3314361D1*
X2487782D1*
X2487818Y3340491D1*
X2443476Y3296319D1*
X2438463Y3292677D1*
X2432944Y3289864D1*
X2427051Y3287949D1*
X2420932Y3286980D1*
X2400717Y3286858D1*
X2397018Y3283386D1*
X2389846Y3278175D1*
X2381948Y3274151D1*
X2373517Y3271411D1*
X2364761Y3270025D1*
X2355898D1*
X2347142Y3271411D1*
X2338711Y3274151D1*
X2330812Y3278175D1*
X2323640Y3283386D1*
X2317373Y3289654D1*
X2312161Y3296825D1*
X2308138Y3304724D1*
X2305398Y3313155D1*
X2304012Y3321911D1*
Y3330774D1*
X2305398Y3339530D1*
X2308138Y3347961D1*
X2312161Y3355860D1*
X2317373Y3363031D1*
X2323640Y3369299D1*
X2330812Y3374510D1*
X2338711Y3378534D1*
X2347142Y3381274D1*
X2355898Y3382660D1*
X2364761D1*
X2373517Y3381274D1*
X2381948Y3378534D1*
X2389846Y3374510D1*
X2397018Y3369299D1*
X2400710Y3365818D1*
X2402906Y3367253D1*
X2437333Y3401802D1*
X2429434Y3405825D1*
X2422262Y3411037D1*
X2415995Y3417304D1*
X2410783Y3424476D1*
X2408930Y3427787D1*
X2404929Y3421436D1*
X2399172Y3414694D1*
X2392430Y3408937D1*
X2384873Y3404306D1*
X2376682Y3400913D1*
X2368063Y3398844D1*
X2359226Y3398148D1*
X2350388Y3398844D1*
X2341769Y3400913D1*
X2333579Y3404306D1*
X2326021Y3408937D1*
X2319280Y3414694D1*
X2313522Y3421436D1*
X2309035Y3428736D1*
X2308337Y3420983D1*
X2306213Y3412134D1*
X2302731Y3403728D1*
X2297976Y3395970D1*
X2292067Y3389050D1*
X2285147Y3383140D1*
X2277388Y3378386D1*
X2268983Y3374904D1*
X2260134Y3372780D1*
X2251063Y3372066D1*
X2188071D1*
X2179000Y3372780D1*
X2170151Y3374904D1*
X2161745Y3378386D1*
X2153987Y3383140D1*
X2147067Y3389050D1*
X2141157Y3395970D1*
X2136403Y3403728D1*
X2132921Y3412134D1*
X2130797Y3420983D1*
X2130083Y3430054D1*
X2130797Y3439125D1*
X2132921Y3447974D1*
X2136403Y3456379D1*
X2141157Y3464138D1*
X2147067Y3471058D1*
X2153987Y3476967D1*
X2158719Y3480028D1*
X2153987Y3483140D1*
X2147067Y3489050D1*
X2141157Y3495970D1*
X2136403Y3503728D1*
X2132921Y3512134D1*
X2130797Y3520983D1*
X2130083Y3530054D1*
X2130797Y3539125D1*
X2132921Y3547974D1*
X2136403Y3556379D1*
X2141157Y3564138D1*
X2147067Y3571058D1*
X2153987Y3576967D1*
X2158719Y3580028D1*
X2153987Y3583140D1*
X2147067Y3589050D1*
X2141157Y3595970D1*
X2136403Y3603728D1*
X2132921Y3612134D1*
X2130797Y3620983D1*
X2130083Y3630054D1*
X2130797Y3639125D1*
X2132921Y3647974D1*
X2136403Y3656379D1*
X2141157Y3664138D1*
X2147067Y3671058D1*
X2153987Y3676967D1*
X2158719Y3680028D1*
X2153987Y3683140D1*
X2147067Y3689050D1*
X2141157Y3695970D1*
X2136403Y3703728D1*
X2132921Y3712134D1*
X2130797Y3720983D1*
X2130083Y3730054D1*
X2130797Y3739125D1*
X2132921Y3747974D1*
X2136403Y3756379D1*
X2141157Y3764138D1*
X2147067Y3771058D1*
X2153987Y3776967D1*
X2161745Y3781722D1*
X2170151Y3785203D1*
X2179000Y3787328D1*
X2188089Y3788041D1*
X2255133Y3787882D1*
X2182940Y3860060D1*
X1978942Y3860049D1*
X1906933Y3788056D1*
X2009051Y3788042D1*
Y3672066D1*
X1991001D1*
X1995157Y3667714D1*
X2000507Y3660353D1*
X2004636Y3652245D1*
X2007449Y3643591D1*
X2008873Y3634604D1*
Y3625504D1*
X2007449Y3616517D1*
X2004636Y3607862D1*
X2000507Y3599755D1*
X1995157Y3592394D1*
X1988723Y3585959D1*
X1981362Y3580610D1*
X1973255Y3576480D1*
X1964600Y3573668D1*
X1955613Y3572244D1*
X1932690Y3572066D1*
X1888071D1*
X1879000Y3572780D1*
X1870151Y3574904D1*
X1861745Y3578386D1*
X1853987Y3583140D1*
X1847067Y3589050D1*
X1845655Y3590577D1*
X1815682Y3590570D1*
X1815659Y3465264D1*
X1832194Y3465272D1*
Y3445571D1*
X1834497Y3452245D1*
X1838627Y3460353D1*
X1843976Y3467714D1*
X1850411Y3474148D1*
X1857772Y3479497D1*
X1865879Y3483627D1*
X1874534Y3486440D1*
X1883521Y3487864D1*
X1906444Y3488042D1*
X1955613Y3487864D1*
X1964600Y3486440D1*
X1973255Y3483627D1*
X1981362Y3479497D1*
X1988723Y3474148D1*
X1995157Y3467714D1*
X2000507Y3460353D1*
X2004636Y3452245D1*
X2007449Y3443591D1*
X2008873Y3434604D1*
Y3425504D1*
X2007449Y3416517D1*
X2004636Y3407862D1*
X2000507Y3399755D1*
X1995157Y3392394D1*
X1988723Y3385959D1*
X1981362Y3380610D1*
X1973255Y3376480D1*
X1964600Y3373668D1*
X1955613Y3372244D1*
X1932690Y3372066D1*
X1888071D1*
X1879000Y3372780D1*
X1870151Y3374904D1*
X1861745Y3378386D1*
X1853987Y3383140D1*
X1847067Y3389050D1*
X1841157Y3395970D1*
X1836403Y3403728D1*
X1832921Y3412134D1*
X1832192Y3414719D1*
X1832194Y3353232D1*
X1742161D1*
X1748840Y3348276D1*
X1755710Y3341406D1*
X1761423Y3333543D1*
X1765833Y3324886D1*
X1768836Y3315644D1*
X1770357Y3306046D1*
Y3296329D1*
X1768836Y3286731D1*
X1765833Y3277490D1*
X1761423Y3268832D1*
X1755710Y3260970D1*
X1748840Y3254100D1*
X1745155Y3251196D1*
X1749829Y3247361D1*
X1967969Y3247223D1*
X1975125Y3246089D1*
X1982017Y3243850D1*
X1988472Y3240560D1*
X1994335Y3236301D1*
X2016484Y3214353D1*
X2127445Y3103392D1*
X2134512Y3102130D1*
X2143314Y3099270D1*
X2151559Y3095070D1*
X2159045Y3089630D1*
X2165588Y3083087D1*
X2171028Y3075601D1*
X2175228Y3067356D1*
X2178088Y3058554D1*
X2178967Y3054136D1*
X2254339Y2978560D1*
X2258598Y2972698D1*
X2261888Y2966241D1*
X2264127Y2959350D1*
X2265261Y2952180D1*
X2268642Y2948747D1*
X2277047Y2945265D1*
X2284806Y2940510D1*
X2291786Y2934535D1*
X2297577Y2930955D1*
X2303088Y2926249D1*
X2394832Y2834303D1*
X2399092Y2828441D1*
X2402382Y2821986D1*
X2404621Y2815093D1*
X2405755Y2807937D1*
X2405896Y2795020D1*
X2419610Y2795008D1*
X2477203Y2852606D1*
X2471028Y2852696D1*
X2463823Y2853837D1*
X2456885Y2856092D1*
X2450383Y2859404D1*
X2444482Y2863692D1*
X2439323Y2868850D1*
X2435035Y2874752D1*
X2431723Y2881253D1*
X2429416Y2888457D1*
X2402348Y2915706D1*
X2398706Y2920719D1*
X2395892Y2926239D1*
X2393978Y2932131D1*
X2393009Y2938251D1*
X2392887Y2980211D1*
X2385976Y2976008D1*
X2377786Y2972615D1*
X2369167Y2970546D1*
X2360329Y2969850D1*
X2351492Y2970546D1*
X2342873Y2972615D1*
X2334682Y2976008D1*
X2327125Y2980639D1*
X2320383Y2986396D1*
X2314626Y2993138D1*
X2309995Y3000696D1*
X2306602Y3008886D1*
X2304533Y3017505D1*
X2303837Y3026343D1*
X2304533Y3035180D1*
X2306602Y3043799D1*
X2309995Y3051990D1*
X2314626Y3059547D1*
X2320383Y3066289D1*
X2327125Y3072046D1*
X2334682Y3076677D1*
X2342873Y3080070D1*
X2351492Y3082139D1*
X2360329Y3082835D1*
X2369167Y3082139D1*
X2377786Y3080070D1*
X2385976Y3076677D1*
X2392886Y3072479D1*
X2393009Y3166724D1*
X2393978Y3172844D1*
X2395892Y3178736D1*
X2398706Y3184256D1*
X2402348Y3189269D1*
X2410644Y3197959D1*
X2412899Y3204898D1*
X2416211Y3211399D1*
X2420499Y3217301D1*
X2425657Y3222459D1*
X2431559Y3226747D1*
X2438060Y3230059D1*
X2444999Y3232314D1*
X2452203Y3233455D1*
X2459500D1*
X2466705Y3232314D1*
X2473643Y3230059D1*
X2478365Y3227744D1*
X2478514Y3264917D1*
X2479648Y3272073D1*
X2480638Y3275577D1*
X3492325Y2584549D2*
X3486274Y2580240D1*
X3478029Y2576039D1*
X3474618Y2574781D1*
X3480816Y2572077D1*
X3488374Y2567446D1*
X3495115Y2561689D1*
X3500873Y2554948D1*
X3505504Y2547390D1*
X3508896Y2539199D1*
X3509832Y2535881D1*
X3515495Y2540580D1*
X3520227Y2543640D1*
X3515495Y2546753D1*
X3508575Y2552663D1*
X3502665Y2559583D1*
X3497911Y2567341D1*
X3494429Y2575747D1*
X3492322Y2584508D1*
X3435999Y2574894D2*
X3428688Y2577978D1*
X3420798Y2582812D1*
X3413761Y2588823D1*
X3407751Y2595860D1*
X3402916Y2603749D1*
X3399374Y2612299D1*
X3397214Y2621297D1*
X3396488Y2630522D1*
X3397214Y2639748D1*
X3399374Y2648745D1*
X3402916Y2657295D1*
X3407751Y2665185D1*
X3413761Y2672222D1*
X3420798Y2678232D1*
X3424211Y2680513D1*
X3417161Y2685680D1*
X3410618Y2692223D1*
X3405178Y2699709D1*
X3400978Y2707954D1*
X3398118Y2716756D1*
X3396671Y2725895D1*
Y2735150D1*
X3398118Y2744289D1*
X3400978Y2753091D1*
X3405178Y2761336D1*
X3410618Y2768822D1*
X3417161Y2775365D1*
X3424647Y2780804D1*
X3432892Y2785005D1*
X3441694Y2787865D1*
X3450833Y2789312D1*
X3460088D1*
X3469227Y2787865D1*
X3478029Y2785005D1*
X3486274Y2780804D1*
X3493760Y2775365D1*
X3494916Y2774297D1*
X3493193Y2780130D1*
X3491769Y2789117D1*
Y2798217D1*
X3493193Y2807203D1*
X3496005Y2815858D1*
X3500135Y2823966D1*
X3505484Y2831327D1*
X3509659Y2835673D1*
X3491591Y2835678D1*
Y2934467D1*
X3424684Y2934480D1*
X3429331Y2929739D1*
X3433618Y2923837D1*
X3436930Y2917336D1*
X3439185Y2910398D1*
X3440327Y2903193D1*
Y2895896D1*
X3439185Y2888692D1*
X3436930Y2881753D1*
X3433618Y2875252D1*
X3429331Y2869350D1*
X3424172Y2864192D1*
X3418270Y2859904D1*
X3411769Y2856592D1*
X3404831Y2854337D1*
X3397626Y2853196D1*
X3390329D1*
X3383125Y2854337D1*
X3376186Y2856592D1*
X3369461Y2860054D1*
X3266945Y2859904D1*
X3260444Y2856592D1*
X3253505Y2854337D1*
X3246301Y2853196D1*
X3239004D1*
X3231799Y2854337D1*
X3228656Y2855223D1*
X3226110Y2849419D1*
X3221479Y2841861D1*
X3215722Y2835119D1*
X3208980Y2829362D1*
X3201423Y2824731D1*
X3193232Y2821339D1*
X3184613Y2819269D1*
X3175776Y2818573D1*
X3166938Y2819269D1*
X3158319Y2821339D1*
X3150129Y2824731D1*
X3142571Y2829362D1*
X3135829Y2835119D1*
X3130072Y2841861D1*
X3129659Y2842480D1*
X3124999Y2836240D1*
X3118564Y2829806D1*
X3111203Y2824457D1*
X3110256Y2823927D1*
X3114988Y2820814D1*
X3121908Y2814904D1*
X3127818Y2807984D1*
X3132572Y2800226D1*
X3136054Y2791820D1*
X3138178Y2782971D1*
X3138892Y2773900D1*
X3138178Y2764829D1*
X3136054Y2755980D1*
X3132572Y2747575D1*
X3127818Y2739816D1*
X3121908Y2732896D1*
X3114988Y2726987D1*
X3110256Y2723927D1*
X3115925Y2720076D1*
X3202560Y2719936D1*
X3209717Y2718802D1*
X3216609Y2716563D1*
X3223064Y2713273D1*
X3228927Y2709013D1*
X3251076Y2687066D1*
X3299181Y2638759D1*
X3303441Y2632896D1*
X3306731Y2626441D1*
X3308970Y2619549D1*
X3310104Y2612392D1*
X3310245Y2581210D1*
X3310104Y2304986D1*
X3308970Y2297829D1*
X3306731Y2290937D1*
X3303441Y2284482D1*
X3299181Y2278619D1*
X3277234Y2256470D1*
X3247927Y2227163D1*
X3401046Y2227028D1*
X3407165Y2226059D1*
X3413058Y2224144D1*
X3418577Y2221331D1*
X3423591Y2217689D1*
X3430307Y2211144D1*
X3889382D1*
X3913921Y2235686D1*
X3849579Y2235678D1*
X3840508Y2236392D1*
X3831659Y2238517D1*
X3823253Y2241999D1*
X3815495Y2246753D1*
X3808575Y2252663D1*
X3802665Y2259583D1*
X3797911Y2267341D1*
X3794429Y2275747D1*
X3792304Y2284596D1*
X3791591Y2293667D1*
X3792304Y2302738D1*
X3794429Y2311587D1*
X3797911Y2319992D1*
X3802665Y2327751D1*
X3808575Y2334671D1*
X3815495Y2340580D1*
X3820227Y2343640D1*
X3815495Y2346753D1*
X3808575Y2352663D1*
X3802665Y2359583D1*
X3797937Y2367294D1*
X3670560Y2494672D1*
X3670381Y2489117D1*
X3668957Y2480130D1*
X3666144Y2471475D1*
X3662014Y2463367D1*
X3656665Y2456007D1*
X3650231Y2449572D1*
X3642870Y2444223D1*
X3641923Y2443693D1*
X3646655Y2440580D1*
X3653575Y2434671D1*
X3659484Y2427751D1*
X3664239Y2419992D1*
X3667720Y2411587D1*
X3669845Y2402738D1*
X3670559Y2393667D1*
X3669845Y2384596D1*
X3667720Y2375747D1*
X3664239Y2367341D1*
X3659484Y2359583D1*
X3653575Y2352663D1*
X3646655Y2346753D1*
X3638896Y2341999D1*
X3630491Y2338517D1*
X3621642Y2336392D1*
X3612571Y2335678D1*
X3549579D1*
X3540508Y2336392D1*
X3531659Y2338517D1*
X3523253Y2341999D1*
X3515495Y2346753D1*
X3508575Y2352663D1*
X3502665Y2359583D1*
X3497911Y2367341D1*
X3494429Y2375747D1*
X3492304Y2384596D1*
X3491591Y2393667D1*
X3492304Y2402738D1*
X3494429Y2411587D1*
X3497911Y2419992D1*
X3502665Y2427751D1*
X3508575Y2434671D1*
X3515495Y2440580D1*
X3520227Y2443640D1*
X3515495Y2446753D1*
X3508575Y2452663D1*
X3502665Y2459583D1*
X3497911Y2467341D1*
X3494429Y2475747D1*
X3493227Y2480009D1*
X3488374Y2476039D1*
X3480816Y2471408D1*
X3472626Y2468016D1*
X3464007Y2465946D1*
X3455169Y2465251D1*
X3446332Y2465946D1*
X3437713Y2468016D1*
X3429522Y2471408D1*
X3421965Y2476039D1*
X3415223Y2481797D1*
X3409466Y2488538D1*
X3404835Y2496096D1*
X3401442Y2504286D1*
X3399373Y2512906D1*
X3398677Y2521743D1*
X3399373Y2530580D1*
X3401442Y2539199D1*
X3404835Y2547390D1*
X3409466Y2554948D1*
X3415223Y2561689D1*
X3421965Y2567446D1*
X3429522Y2572077D1*
X3436005Y2574840D1*
X3936272Y1770745D2*
X3934824Y1761606D1*
X3931965Y1752804D1*
X3927764Y1744559D1*
X3922324Y1737073D1*
X3915781Y1730530D1*
X3908295Y1725091D1*
X3900050Y1720890D1*
X3891248Y1718030D1*
X3882109Y1716583D1*
X3872854D1*
X3863715Y1718030D1*
X3854913Y1720890D1*
X3846668Y1725091D1*
X3839182Y1730530D1*
X3832639Y1737073D1*
X3827199Y1744559D1*
X3822999Y1752804D1*
X3820139Y1761606D1*
X3818692Y1770745D1*
Y1780000D1*
X3820139Y1789139D1*
X3822999Y1797941D1*
X3827199Y1806186D1*
X3832639Y1813672D1*
X3839182Y1820215D1*
X3846668Y1825655D1*
X3854913Y1829856D1*
X3863715Y1832715D1*
X3872854Y1834163D1*
X3882109D1*
X3891248Y1832715D1*
X3900050Y1829856D1*
X3908295Y1825655D1*
X3915781Y1820215D1*
X3922324Y1813672D1*
X3927764Y1806186D1*
X3931965Y1797941D1*
X3934824Y1789139D1*
X3936272Y1780000D1*
Y1770745D1*
X4077126Y2704524D2*
X4075678Y2695385D1*
X4072819Y2686583D1*
X4068618Y2678337D1*
X4063178Y2670852D1*
X4056635Y2664308D1*
X4049150Y2658869D1*
X4040904Y2654668D1*
X4032102Y2651808D1*
X4022963Y2650361D1*
X4013709D1*
X4004570Y2651808D1*
X3995768Y2654668D1*
X3987522Y2658869D1*
X3980037Y2664308D1*
X3973493Y2670852D1*
X3968365Y2677871D1*
X3966144Y2671475D1*
X3962014Y2663367D1*
X3956665Y2656007D1*
X3950231Y2649572D1*
X3942870Y2644223D1*
X3941923Y2643693D1*
X3946655Y2640580D1*
X3953575Y2634671D1*
X3959484Y2627751D1*
X3964239Y2619992D1*
X3967720Y2611587D1*
X3969845Y2602738D1*
X3970559Y2593667D1*
X3969845Y2584596D1*
X3967720Y2575747D1*
X3964239Y2567341D1*
X3959484Y2559583D1*
X3953575Y2552663D1*
X3946655Y2546753D1*
X3941923Y2543693D1*
X3946655Y2540580D1*
X3953575Y2534671D1*
X3959484Y2527751D1*
X3963448Y2521406D1*
X3966816Y2529545D1*
X3971448Y2537102D1*
X3977205Y2543844D1*
X3983946Y2549601D1*
X3991504Y2554232D1*
X3999694Y2557625D1*
X4008314Y2559694D1*
X4017151Y2560390D1*
X4025988Y2559694D1*
X4034608Y2557625D1*
X4042798Y2554232D1*
X4050356Y2549601D1*
X4057097Y2543844D1*
X4062854Y2537102D1*
X4067486Y2529545D1*
X4070878Y2521354D1*
X4072948Y2512735D1*
X4073643Y2503898D1*
X4072948Y2495060D1*
X4070878Y2486441D1*
X4067486Y2478251D1*
X4062854Y2470693D1*
X4057097Y2463951D1*
X4050356Y2458194D1*
X4042798Y2453563D1*
X4034608Y2450171D1*
X4025988Y2448101D1*
X4017151Y2447406D1*
X4008314Y2448101D1*
X3999694Y2450171D1*
X3991504Y2453563D1*
X3983946Y2458194D1*
X3977205Y2463951D1*
X3971448Y2470693D1*
X3967908Y2476301D1*
X3964239Y2467341D1*
X3959484Y2459583D1*
X3953575Y2452663D1*
X3946655Y2446753D1*
X3941923Y2443693D1*
X3946655Y2440580D1*
X3953575Y2434671D1*
X3959484Y2427751D1*
X3964239Y2419992D1*
X3967720Y2411587D1*
X3969845Y2402738D1*
X3970559Y2393667D1*
X3969845Y2384596D1*
X3967720Y2375747D1*
X3964239Y2367341D1*
X3959484Y2359583D1*
X3953575Y2352663D1*
X3946655Y2346753D1*
X3941923Y2343693D1*
X3946655Y2340580D1*
X3953575Y2334671D1*
X3959484Y2327751D1*
X3964239Y2319992D1*
X3967720Y2311587D1*
X3969845Y2302738D1*
X3970559Y2293667D1*
X3970504Y2292262D1*
X4230436Y2552202D1*
X4230421Y2742848D1*
X4224197Y2740974D1*
X4214598Y2739453D1*
X4191367Y2739262D1*
X4138874D1*
X4129186Y2740025D1*
X4119738Y2742293D1*
X4110761Y2746012D1*
X4102475Y2751089D1*
X4095087Y2757400D1*
X4088776Y2764789D1*
X4083698Y2773075D1*
X4079979Y2782051D1*
X4077711Y2791500D1*
X4076949Y2801188D1*
X4077711Y2810875D1*
X4078923Y2816576D1*
X4029429Y2767077D1*
X4036559Y2765238D1*
X4045109Y2761696D1*
X4052999Y2756861D1*
X4060035Y2750850D1*
X4066046Y2743814D1*
X4070881Y2735924D1*
X4074423Y2727374D1*
X4076583Y2718377D1*
X4077308Y2709151D1*
X4077126Y2704524D1*
X2070736Y3013538D2*
X2065588Y3006488D1*
X2059045Y2999945D1*
X2051559Y2994505D1*
X2043314Y2990304D1*
X2034512Y2987445D1*
X2025373Y2985997D1*
X2016118D1*
X2006979Y2987445D1*
X1998177Y2990304D1*
X1989932Y2994505D1*
X1982446Y2999945D1*
X1975903Y3006488D1*
X1970463Y3013974D1*
X1966262Y3022219D1*
X1963403Y3031021D1*
X1961955Y3040160D1*
Y3049415D1*
X1963403Y3058554D1*
X1966262Y3067356D1*
X1970463Y3075601D1*
X1975903Y3083087D1*
X1982446Y3089630D1*
X1989932Y3095070D1*
X1998177Y3099270D1*
X2000197Y3100016D1*
X1945213Y3155016D1*
X1749865Y3155010D1*
X1745155Y3151196D1*
X1752409Y3144975D1*
X1758720Y3137587D1*
X1763798Y3129301D1*
X1767517Y3120324D1*
X1769785Y3110875D1*
X1770547Y3101188D1*
X1769785Y3091500D1*
X1767517Y3082051D1*
X1763798Y3073075D1*
X1758720Y3064789D1*
X1752409Y3057400D1*
X1745155Y3051196D1*
X1752409Y3044975D1*
X1758720Y3037587D1*
X1763798Y3029301D1*
X1767517Y3020324D1*
X1769785Y3010875D1*
X1770547Y3001188D1*
X1769785Y2991500D1*
X1767517Y2982051D1*
X1763798Y2973075D1*
X1758720Y2964789D1*
X1752409Y2957400D1*
X1745155Y2951196D1*
X1752409Y2944975D1*
X1758661Y2937661D1*
X1764181Y2934853D1*
X1769194Y2931211D1*
X1797454Y2903125D1*
X1829755Y2870823D1*
X1829741Y2951585D1*
X2008710D1*
Y2933105D1*
X2031220Y2933081D1*
X2055232Y2957286D1*
X2057487Y2964224D1*
X2060799Y2970726D1*
X2065087Y2976627D1*
X2070245Y2981786D1*
X2076147Y2986073D1*
X2082648Y2989386D1*
X2089587Y2991640D1*
X2093634Y2992408D1*
X2086083Y2997077D1*
X2079046Y3003088D1*
X2073035Y3010125D1*
X2070755Y3013538D1*
X3990398Y2839739D2*
X3984575Y2843416D1*
X3977538Y2849427D1*
X3971528Y2856463D1*
X3966693Y2864353D1*
X3964791Y2868476D1*
X3962014Y2863367D1*
X3956665Y2856007D1*
X3950231Y2849572D1*
X3942870Y2844223D1*
X3941923Y2843693D1*
X3946655Y2840580D1*
X3953575Y2834671D1*
X3959484Y2827751D1*
X3964239Y2819992D1*
X3966249Y2815573D1*
X3990374Y2839702D1*
X3965958Y2916306D2*
X3968955Y2921940D1*
X3974395Y2929425D1*
X3980938Y2935969D1*
X3988424Y2941408D1*
X3996669Y2945609D1*
X4005471Y2948469D1*
X4014610Y2949916D1*
X4023865D1*
X4033004Y2948469D1*
X4041806Y2945609D1*
X4050051Y2941408D1*
X4057537Y2935969D1*
X4064080Y2929425D1*
X4069520Y2921940D1*
X4070625Y2919966D1*
X4082056Y2931211D1*
X4084501Y2933138D1*
X4088776Y2937587D1*
X4095087Y2944975D1*
X4102341Y2951180D1*
X4095087Y2957400D1*
X4088776Y2964789D1*
X4083698Y2973075D1*
X4079979Y2982051D1*
X4077711Y2991500D1*
X4077294Y2995028D1*
X4049255Y3023253D1*
X4045613Y3028266D1*
X4042799Y3033786D1*
X4041723Y3036706D1*
X4029419Y3024891D1*
X3945761Y2941234D1*
X3950231Y2937761D1*
X3956665Y2931327D1*
X3962014Y2923966D1*
X3965929Y2916327D1*
X1729341Y3465272D2*
X1736698D1*
X1736690Y3578517D1*
X1649545Y3491385D1*
X1649425Y3386021D1*
X1648457Y3379902D1*
X1646542Y3374009D1*
X1643728Y3368490D1*
X1640079Y3363467D1*
X1656129Y3363113D1*
X1713480Y3362923D1*
X1720154Y3361984D1*
X1720155Y3465272D1*
X1729341D1*
X1747318Y1010068D2*
Y1023705D1*
X1743369Y1020000D1*
X1739558Y1017038D1*
X1745823Y1011617D1*
X1747316Y1010001D1*
X1842659Y1421441D2*
X1836265Y1416000D1*
X1828769Y1411408D1*
X1820648Y1408043D1*
X1812101Y1405992D1*
X1803337Y1405302D1*
X1794573Y1405992D1*
X1786026Y1408043D1*
X1777906Y1411408D1*
X1770409Y1416000D1*
X1763726Y1421710D1*
X1758016Y1428394D1*
X1753424Y1435890D1*
X1750059Y1444010D1*
X1748008Y1452558D1*
X1747318Y1461322D1*
X1748008Y1470085D1*
X1750059Y1478633D1*
X1753424Y1486753D1*
X1758016Y1494249D1*
X1763864Y1501062D1*
X1763975Y1790999D1*
X1764944Y1797118D1*
X1766858Y1803010D1*
X1769672Y1808530D1*
X1773314Y1813543D1*
X1801400Y1841803D1*
X1970984Y2011214D1*
X1975997Y2014856D1*
X1981517Y2017669D1*
X1987409Y2019584D1*
X1993529Y2020552D1*
X2033373Y2020675D1*
X2144104Y2020892D1*
X2139816Y2026794D1*
X2136504Y2033295D1*
X2134686Y2038682D1*
X1957152Y2038816D1*
X1951033Y2039785D1*
X1945140Y2041699D1*
X1939621Y2044513D1*
X1934608Y2048155D1*
X1906348Y2076241D1*
X1772472Y2210290D1*
X1768831Y2215303D1*
X1766017Y2220823D1*
X1764102Y2226715D1*
X1763134Y2232835D1*
X1763012Y2272678D1*
X1762856Y2358272D1*
X1759543Y2364773D1*
X1757289Y2371711D1*
X1756147Y2378916D1*
Y2386213D1*
X1757289Y2393417D1*
X1759543Y2400356D1*
X1762856Y2406857D1*
X1767143Y2412759D1*
X1772302Y2417917D1*
X1778203Y2422205D1*
X1784705Y2425517D1*
X1791643Y2427772D1*
X1798848Y2428913D1*
X1806144D1*
X1813349Y2427772D1*
X1820287Y2425517D1*
X1826789Y2422205D1*
X1832690Y2417917D1*
X1834398Y2416340D1*
X1838286Y2423896D1*
X1843635Y2431257D1*
X1850070Y2437692D1*
X1857430Y2443041D1*
X1858378Y2443571D1*
X1853646Y2446684D1*
X1846726Y2452593D1*
X1840816Y2459513D1*
X1836062Y2467272D1*
X1832580Y2475677D1*
X1830455Y2484526D1*
X1829741Y2493597D1*
X1830455Y2502668D1*
X1832580Y2511517D1*
X1836062Y2519923D1*
X1840816Y2527681D1*
X1846726Y2534601D1*
X1853646Y2540510D1*
X1858378Y2543571D1*
X1853646Y2546684D1*
X1846726Y2552593D1*
X1845314Y2554121D1*
X1730463Y2554235D1*
X1724344Y2555203D1*
X1718451Y2557118D1*
X1712932Y2559932D1*
X1707919Y2563573D1*
X1679659Y2591660D1*
X1555808Y2715510D1*
X1557217Y1199215D1*
X1988232Y1199222D1*
X2066823Y1277829D1*
X2066982Y1526529D1*
X2068115Y1533685D1*
X2070354Y1540577D1*
X2073644Y1547033D1*
X2077904Y1552895D1*
X2099852Y1575045D1*
X2121059Y1596050D1*
X2126921Y1600310D1*
X2133377Y1603600D1*
X2140269Y1605839D1*
X2147425Y1606972D1*
X2152663Y1607114D1*
X2157453Y1610381D1*
X2165560Y1614510D1*
X2172554Y1616854D1*
Y1641870D1*
X2168396Y1648773D1*
X2165004Y1656963D1*
X2162934Y1665583D1*
X2162239Y1674420D1*
X2162934Y1683257D1*
X2165004Y1691877D1*
X2168396Y1700067D1*
X2173028Y1707625D1*
X2178785Y1714366D1*
X2185526Y1720123D1*
X2193084Y1724755D1*
X2201274Y1728147D1*
X2209894Y1730217D1*
X2218731Y1730912D1*
X2225555Y1730455D1*
X2250445Y1755358D1*
X2244148Y1755408D1*
X2236944Y1756550D1*
X2230005Y1758804D1*
X2223280Y1762266D1*
X2062455Y1762273D1*
X1975207Y1675056D1*
X1975049Y1669988D1*
X1973663Y1661232D1*
X1970923Y1652802D1*
X1966899Y1644903D1*
X1961688Y1637731D1*
X1955420Y1631463D1*
X1948248Y1626252D1*
X1940349Y1622228D1*
X1931919Y1619488D1*
X1929081Y1618924D1*
X2008732Y1618925D1*
Y1502949D1*
X1990682D1*
X1994839Y1498597D1*
X2000188Y1491236D1*
X2004318Y1483129D1*
X2007130Y1474474D1*
X2008554Y1465487D1*
Y1456387D1*
X2007130Y1447400D1*
X2004318Y1438745D1*
X2000188Y1430638D1*
X1994839Y1423277D1*
X1988404Y1416843D1*
X1981043Y1411493D1*
X1980096Y1410963D1*
X1984828Y1407850D1*
X1991748Y1401941D1*
X1997657Y1395021D1*
X2002412Y1387262D1*
X2005894Y1378857D1*
X2008018Y1370008D1*
X2008732Y1360937D1*
X2008018Y1351866D1*
X2005894Y1343017D1*
X2002412Y1334612D1*
X1997657Y1326853D1*
X1991748Y1319933D1*
X1984828Y1314024D1*
X1980096Y1310963D1*
X1984828Y1307850D1*
X1991748Y1301941D1*
X1997657Y1295021D1*
X2002412Y1287262D1*
X2005894Y1278857D1*
X2008018Y1270008D1*
X2008732Y1260937D1*
X2008018Y1251866D1*
X2005894Y1243017D1*
X2002412Y1234612D1*
X1997657Y1226853D1*
X1991748Y1219933D1*
X1984828Y1214024D1*
X1977070Y1209269D1*
X1968664Y1205787D1*
X1959815Y1203663D1*
X1950744Y1202949D1*
X1887752D1*
X1878681Y1203663D1*
X1869832Y1205787D1*
X1861427Y1209269D1*
X1853668Y1214024D1*
X1846748Y1219933D1*
X1840839Y1226853D1*
X1836084Y1234612D1*
X1832602Y1243017D1*
X1830478Y1251866D1*
X1829764Y1260937D1*
X1830478Y1270008D1*
X1832602Y1278857D1*
X1836084Y1287262D1*
X1840839Y1295021D1*
X1846748Y1301941D1*
X1853668Y1307850D1*
X1858400Y1310911D1*
X1853668Y1314024D1*
X1846748Y1319933D1*
X1840839Y1326853D1*
X1836084Y1334612D1*
X1832602Y1343017D1*
X1830478Y1351866D1*
X1829764Y1360937D1*
X1830478Y1370008D1*
X1832602Y1378857D1*
X1836084Y1387262D1*
X1840839Y1395021D1*
X1846748Y1401941D1*
X1853668Y1407850D1*
X1858400Y1410911D1*
X1853668Y1414024D1*
X1846748Y1419933D1*
X1845336Y1421461D1*
X2463215Y1721417D2*
X2495008D1*
X2490647Y1725852D1*
X2486360Y1731753D1*
X2483047Y1738255D1*
X2480793Y1745193D1*
X2479651Y1752398D1*
Y1759694D1*
X2480793Y1766899D1*
X2483047Y1773837D1*
X2485474Y1778759D1*
X2468857Y1778762D1*
X2470096Y1771259D1*
Y1763962D1*
X2468954Y1756757D1*
X2466699Y1749819D1*
X2463238Y1743093D1*
X2463231Y1721428D1*
X2546152Y1680043D2*
Y1609378D1*
X2463224D1*
X2463231Y1177136D1*
X2980924Y659274D1*
X2984566Y654261D1*
X2987379Y648741D1*
X2989294Y642849D1*
X2990262Y636730D1*
X2990385Y633619D1*
X2991118Y632201D1*
X2997988Y625331D1*
X3000892Y621646D1*
X3007113Y628900D1*
X3011413Y632777D1*
X3011416Y652560D1*
X2597980Y1066175D1*
X2594339Y1071188D1*
X2591525Y1076707D1*
X2589610Y1082600D1*
X2588642Y1088719D1*
X2588520Y1128563D1*
Y1637652D1*
X2546164Y1680042D1*
X2517259Y2014071D2*
X2511571Y2011280D1*
X2503210Y2008563D1*
X2494528Y2007189D1*
X2485738D1*
X2477055Y2008563D1*
X2468694Y2011280D1*
X2460862Y2015270D1*
X2453751Y2020438D1*
X2447535Y2026654D1*
X2442367Y2033765D1*
X2438377Y2041597D1*
X2435660Y2049958D1*
X2434286Y2058640D1*
Y2067430D1*
X2435660Y2076113D1*
X2438377Y2084474D1*
X2442367Y2092306D1*
X2447535Y2099417D1*
X2449903Y2101979D1*
X2449908Y2138953D1*
X2443689Y2146147D1*
X2439058Y2153705D1*
X2435665Y2161895D1*
X2433714Y2169920D1*
X2214797Y1951167D1*
X2209783Y1947525D1*
X2204264Y1944711D1*
X2198371Y1942797D1*
X2192252Y1941828D1*
X2152408Y1941706D1*
X2012999D1*
X1842844Y1771568D1*
X1842822Y1618921D1*
X1908171Y1618925D1*
X1901274Y1620693D1*
X1893084Y1624085D1*
X1885526Y1628717D1*
X1878785Y1634474D1*
X1873028Y1641215D1*
X1868396Y1648773D1*
X1865004Y1656963D1*
X1862934Y1665583D1*
X1862239Y1674420D1*
X1862934Y1683257D1*
X1865004Y1691877D1*
X1868396Y1700067D1*
X1873028Y1707625D1*
X1878785Y1714366D1*
X1885526Y1720123D1*
X1893084Y1724755D1*
X1901274Y1728147D1*
X1909894Y1730217D1*
X1918731Y1730912D1*
X1919371Y1730887D1*
X2020425Y1831781D1*
X2025438Y1835423D1*
X2030958Y1838236D1*
X2036850Y1840151D1*
X2042970Y1841119D1*
X2082814Y1841241D1*
X2223504Y1841398D1*
X2230005Y1844710D1*
X2236944Y1846965D1*
X2244148Y1848106D1*
X2251445D1*
X2258650Y1846965D1*
X2265588Y1844710D1*
X2272089Y1841398D1*
X2277991Y1837110D1*
X2283150Y1831951D1*
X2287437Y1826050D1*
X2290749Y1819549D1*
X2293004Y1812610D1*
X2294146Y1805406D1*
X2294184Y1799093D1*
X2355341Y1860052D1*
X2361203Y1864312D1*
X2367660Y1867602D1*
X2374551Y1869841D1*
X2381707Y1870975D1*
X2412890Y1871117D1*
X2486703D1*
X2484787Y1875971D1*
X2483084Y1883066D1*
X2482512Y1890339D1*
X2483084Y1897612D1*
X2484787Y1904706D1*
X2487579Y1911446D1*
X2489513Y1914856D1*
X2489642Y1958140D1*
X2490610Y1964260D1*
X2492525Y1970152D1*
X2495339Y1975672D1*
X2498980Y1980685D1*
X2517248Y1999125D1*
X2517251Y2014028D1*
X4095433Y3804509D2*
X4193873D1*
Y3692470D1*
X4081833D1*
Y3759466D1*
X4076160Y3753896D1*
X4068988Y3748685D1*
X4061089Y3744661D1*
X4052659Y3741921D1*
X4043903Y3740535D1*
X4035039D1*
X4026283Y3741921D1*
X4017853Y3744661D1*
X4009954Y3748685D1*
X4002782Y3753896D1*
X3996514Y3760164D1*
X3991303Y3767336D1*
X3987280Y3775235D1*
X3984539Y3783665D1*
X3983154Y3792421D1*
Y3801285D1*
X3984539Y3810041D1*
X3987280Y3818471D1*
X3991303Y3826370D1*
X3996514Y3833542D1*
X4002782Y3839810D1*
X4009954Y3845021D1*
X4017853Y3849045D1*
X4026283Y3851785D1*
X4035039Y3853171D1*
X4043903D1*
X4052659Y3851785D1*
X4061089Y3849045D1*
X4068988Y3845021D1*
X4076160Y3839810D1*
X4082428Y3833542D1*
X4087639Y3826370D1*
X4091663Y3818471D1*
X4094403Y3810041D1*
X4095408Y3804503D1*
X2730573Y3957428D2*
X2726878Y3949073D1*
X2723294Y3942673D1*
X2719218Y3936573D1*
X2714677Y3930814D1*
X2709698Y3925427D1*
X2704311Y3920448D1*
X2698551Y3915907D1*
X2692451Y3911831D1*
X2686051Y3908247D1*
X2679390Y3905176D1*
X2672508Y3902636D1*
X2665448Y3900646D1*
X2658253Y3899214D1*
X2650969Y3898352D1*
X2643639Y3898064D1*
X2636310Y3898352D1*
X2629025Y3899214D1*
X2621831Y3900646D1*
X2614770Y3902636D1*
X2607888Y3905176D1*
X2601227Y3908247D1*
X2594827Y3911831D1*
X2588727Y3915907D1*
X2582967Y3920448D1*
X2577580Y3925427D1*
X2572601Y3930814D1*
X2568060Y3936573D1*
X2563984Y3942673D1*
X2560400Y3949073D1*
X2557329Y3955735D1*
X2554790Y3962617D1*
X2552799Y3969677D1*
X2551367Y3976871D1*
X2550505Y3984156D1*
X2550218Y3991486D1*
X2550505Y3998815D1*
X2551367Y4006100D1*
X2552799Y4013294D1*
X2554790Y4020354D1*
X2557329Y4027236D1*
X2560400Y4033898D1*
X2563984Y4040298D1*
X2568060Y4046398D1*
X2572601Y4052157D1*
X2577580Y4057545D1*
X2582967Y4062524D1*
X2588727Y4067064D1*
X2594827Y4071140D1*
X2601227Y4074724D1*
X2607888Y4077795D1*
X2614770Y4080335D1*
X2621831Y4082325D1*
X2629025Y4083757D1*
X2636310Y4084619D1*
X2643639Y4084907D1*
X2650969Y4084619D1*
X2658253Y4083757D1*
X2665448Y4082325D1*
X2672508Y4080335D1*
X2679390Y4077795D1*
X2686051Y4074724D1*
X2692451Y4071140D1*
X2698551Y4067064D1*
X2704311Y4062524D1*
X2709698Y4057545D1*
X2714677Y4052157D1*
X2719218Y4046398D1*
X2723294Y4040298D1*
X2726878Y4033898D1*
X2730573Y4025543D1*
X2734175Y4035522D1*
X2737957Y4043728D1*
X2742373Y4051612D1*
X2747392Y4059125D1*
X2752986Y4066220D1*
X2759119Y4072856D1*
X2765755Y4078990D1*
X2772850Y4084583D1*
X2780364Y4089602D1*
X2788247Y4094018D1*
X2796453Y4097801D1*
X2804929Y4100928D1*
X2813626Y4103381D1*
X2822488Y4105143D1*
X2831461Y4106206D1*
X2840490Y4106560D1*
X2849518Y4106206D1*
X2858491Y4105143D1*
X2867353Y4103381D1*
X2876050Y4100928D1*
X2884526Y4097801D1*
X2892732Y4094018D1*
X2900615Y4089602D1*
X2908129Y4084583D1*
X2915224Y4078990D1*
X2921860Y4072856D1*
X2927993Y4066220D1*
X2933587Y4059125D1*
X2938606Y4051612D1*
X2943022Y4043728D1*
X2946804Y4035522D1*
X2949932Y4027046D1*
X2952385Y4018349D1*
X2954147Y4009487D1*
X2955210Y4000514D1*
X2955564Y3991486D1*
X2955210Y3982457D1*
X2954147Y3973484D1*
X2952385Y3964622D1*
X2949932Y3955925D1*
X2946804Y3947449D1*
X2943022Y3939243D1*
X2938606Y3931360D1*
X2933587Y3923846D1*
X2927993Y3916751D1*
X2921860Y3910115D1*
X2915224Y3903982D1*
X2908129Y3898388D1*
X2900615Y3893369D1*
X2892732Y3888953D1*
X2884526Y3885171D1*
X2876050Y3882043D1*
X2867353Y3879591D1*
X2858491Y3877828D1*
X2849518Y3876765D1*
X2840490Y3876411D1*
X2831461Y3876765D1*
X2822488Y3877828D1*
X2813626Y3879591D1*
X2804929Y3882043D1*
X2796453Y3885171D1*
X2788247Y3888953D1*
X2780364Y3893369D1*
X2772850Y3898388D1*
X2765755Y3903982D1*
X2759119Y3910115D1*
X2752986Y3916751D1*
X2747392Y3923846D1*
X2742373Y3931360D1*
X2737957Y3939243D1*
X2734175Y3947449D1*
X2730635Y3957386D1*
X2629081Y3507566D2*
X2602949Y3507647D1*
X2598843Y3508298D1*
X2594890Y3509583D1*
X2591185Y3511470D1*
X2587823Y3513913D1*
X2584883Y3516853D1*
X2582440Y3520215D1*
X2580552Y3523920D1*
X2579268Y3527873D1*
X2578617Y3531979D1*
X2578535Y3552323D1*
X2573059Y3552445D1*
X2564681Y3553772D1*
X2556614Y3556392D1*
X2551676Y3558777D1*
X2572322Y3537965D1*
X2575963Y3532951D1*
X2578777Y3527432D1*
X2580692Y3521539D1*
X2581660Y3515420D1*
X2581782Y3475576D1*
Y3460253D1*
X2629101Y3507583D1*
X2529747Y3580706D2*
X2527362Y3585644D1*
X2524741Y3593711D1*
X2523415Y3602089D1*
Y3610570D1*
X2524741Y3618948D1*
X2527362Y3627014D1*
X2531213Y3634571D1*
X2536168Y3641394D1*
X2469060Y3641396D1*
X2529647Y3580811D1*
X2409286Y3480835D2*
X2413248Y3487198D1*
X2419005Y3493940D1*
X2425747Y3499697D1*
X2433304Y3504328D1*
X2441495Y3507720D1*
X2450114Y3509790D1*
X2458951Y3510486D1*
X2467789Y3509790D1*
X2476408Y3507720D1*
X2484598Y3504328D1*
X2492156Y3499697D1*
X2498898Y3493940D1*
X2502820Y3489525D1*
X2501387Y3497394D1*
X2408188Y3590592D1*
X2293552Y3590570D1*
X2288723Y3585959D1*
X2281362Y3580610D1*
X2280415Y3580080D1*
X2285147Y3576967D1*
X2292067Y3571058D1*
X2297976Y3564138D1*
X2302731Y3556379D1*
X2306213Y3547974D1*
X2308337Y3539125D1*
X2309051Y3530054D1*
X2308337Y3520983D1*
X2306213Y3512134D1*
X2302731Y3503728D1*
X2297976Y3495970D1*
X2292067Y3489050D1*
X2285147Y3483140D1*
X2280415Y3480080D1*
X2285147Y3476967D1*
X2292067Y3471058D1*
X2297976Y3464138D1*
X2302753Y3456332D1*
X2303429Y3463478D1*
X2305499Y3472097D1*
X2308891Y3480287D1*
X2313522Y3487845D1*
X2319280Y3494587D1*
X2326021Y3500344D1*
X2333579Y3504975D1*
X2341769Y3508367D1*
X2350388Y3510437D1*
X2359226Y3511133D1*
X2368063Y3510437D1*
X2376682Y3508367D1*
X2384873Y3504975D1*
X2392430Y3500344D1*
X2399172Y3494587D1*
X2404929Y3487845D1*
X2409247Y3480846D1*
X1756084Y645797D2*
X1751580Y638466D1*
X1745823Y631724D1*
X1739081Y625967D1*
X1731524Y621336D1*
X1723333Y617944D1*
X1714714Y615874D1*
X1705877Y615178D1*
X1697039Y615874D1*
X1688420Y617944D1*
X1680230Y621336D1*
X1672672Y625967D1*
X1665930Y631724D1*
X1660173Y638466D1*
X1655542Y646024D1*
X1652150Y654214D1*
X1650080Y662833D1*
X1649385Y671671D1*
X1650080Y680508D1*
X1652150Y689127D1*
X1655542Y697318D1*
X1660173Y704875D1*
X1665930Y711617D1*
X1672672Y717374D1*
X1680230Y722005D1*
X1688420Y725398D1*
X1697039Y727467D1*
X1705877Y728163D1*
X1714714Y727467D1*
X1723333Y725398D1*
X1731524Y722005D1*
X1739081Y717374D1*
X1745823Y711617D1*
X1751580Y704875D1*
X1755949Y697786D1*
X1760459Y705121D1*
X1766217Y711862D1*
X1772958Y717619D1*
X1780516Y722251D1*
X1788706Y725643D1*
X1797325Y727713D1*
X1806163Y728408D1*
X1815000Y727713D1*
X1823619Y725643D1*
X1831810Y722251D1*
X1839367Y717619D1*
X1846109Y711862D1*
X1851866Y705121D1*
X1856497Y697563D1*
X1859890Y689373D1*
X1861959Y680753D1*
X1862655Y671916D1*
X1861959Y663079D1*
X1859890Y654459D1*
X1856497Y646269D1*
X1851866Y638711D1*
X1846109Y631970D1*
X1839367Y626213D1*
X1831810Y621581D1*
X1823619Y618189D1*
X1815000Y616119D1*
X1806163Y615424D1*
X1797325Y616119D1*
X1788706Y618189D1*
X1780516Y621581D1*
X1772958Y626213D1*
X1766217Y631970D1*
X1760459Y638711D1*
X1756091Y645801D1*
X2322228Y2706614D2*
X2316762Y2712142D1*
X2311551Y2719314D1*
X2307528Y2727213D1*
X2304787Y2735643D1*
X2303402Y2744399D1*
Y2753262D1*
X2304787Y2762018D1*
X2307528Y2770449D1*
X2311551Y2778348D1*
X2313545Y2781329D1*
X2307996Y2784526D1*
X2305871Y2775677D1*
X2302390Y2767272D1*
X2297635Y2759513D1*
X2291726Y2752593D1*
X2284806Y2746684D1*
X2280073Y2743623D1*
X2284806Y2740510D1*
X2291726Y2734601D1*
X2297635Y2727681D1*
X2299373Y2725541D1*
X2304084Y2721517D1*
X2320755Y2704846D1*
X2303252Y2448190D2*
X2303402Y2453262D1*
X2304787Y2462018D1*
X2307528Y2470449D1*
X2311551Y2478348D1*
X2316762Y2485520D1*
X2320244Y2489211D1*
X2320235Y2593696D1*
X2307213Y2606710D1*
X2308531Y2598147D1*
Y2589047D1*
X2307108Y2580060D1*
X2304295Y2571406D1*
X2300165Y2563298D1*
X2294816Y2555937D1*
X2288382Y2549503D1*
X2281021Y2544154D1*
X2280073Y2543623D1*
X2284806Y2540510D1*
X2291726Y2534601D1*
X2297635Y2527681D1*
X2302390Y2519923D1*
X2305871Y2511517D1*
X2307996Y2502668D1*
X2308710Y2493597D1*
X2307996Y2484526D1*
X2305871Y2475677D1*
X2302390Y2467272D1*
X2297635Y2459513D1*
X2291726Y2452593D1*
X2284806Y2446684D1*
X2280073Y2443623D1*
X2284806Y2440510D1*
X2290642Y2435604D1*
X2303234Y2448185D1*
X3128869Y2906470D2*
X3132819Y2911755D1*
X3139087Y2918022D1*
X3146259Y2923234D1*
X3154157Y2927257D1*
X3162588Y2929997D1*
X3171344Y2931383D1*
X3180207D1*
X3188963Y2929997D1*
X3197394Y2927257D1*
X3203312Y2924343D1*
X3207299Y2929739D1*
X3212008Y2934482D1*
X2990269Y2934480D1*
X2990265Y2924857D1*
X2995720Y2927474D1*
X3004375Y2930286D1*
X3013362Y2931710D1*
X3036285Y2931888D1*
X3085454Y2931710D1*
X3094441Y2930286D1*
X3103096Y2927474D1*
X3111203Y2923344D1*
X3118564Y2917995D1*
X3124999Y2911560D1*
X3128816Y2906491D1*
X2639302Y2836398D2*
X2637916Y2827642D1*
X2635176Y2819211D1*
X2631152Y2811312D1*
X2625941Y2804140D1*
X2622459Y2800449D1*
X2621983Y2794281D1*
X2620535Y2788257D1*
X2618165Y2782533D1*
X2614928Y2777249D1*
X2610904Y2772538D1*
X2502879Y2664686D1*
X2497866Y2661045D1*
X2492346Y2658231D1*
X2486454Y2656316D1*
X2480335Y2655348D1*
X2468732Y2655226D1*
X2469604Y2649265D1*
Y2641969D1*
X2468462Y2634764D1*
X2466207Y2627825D1*
X2462745Y2621100D1*
X2462739Y2529173D1*
X2467774Y2531543D1*
X2476205Y2534283D1*
X2484961Y2535669D1*
X2493824D1*
X2502580Y2534283D1*
X2511010Y2531543D1*
X2518909Y2527520D1*
X2526081Y2522308D1*
X2532349Y2516041D1*
X2537560Y2508869D1*
X2541584Y2500970D1*
X2544324Y2492539D1*
X2545710Y2483783D1*
Y2474920D1*
X2544324Y2466164D1*
X2541584Y2457734D1*
X2537560Y2449835D1*
X2533690Y2444364D1*
X2656748Y2444249D1*
X2662867Y2443281D1*
X2668760Y2441366D1*
X2674280Y2438552D1*
X2679293Y2434911D1*
X2684110Y2430487D1*
X2691049Y2428232D1*
X2697550Y2424920D1*
X2703451Y2420633D1*
X2708610Y2415474D1*
X2709290Y2414612D1*
X2709286Y2433513D1*
X2636207Y2506773D1*
X2632566Y2511786D1*
X2629752Y2517306D1*
X2627837Y2523198D1*
X2626869Y2529318D1*
X2626747Y2569161D1*
X2626869Y2745562D1*
X2627837Y2751681D1*
X2629752Y2757573D1*
X2632566Y2763093D1*
X2636207Y2768106D1*
X2664571Y2796643D1*
X2668469Y2804199D1*
X2673818Y2811560D1*
X2677992Y2815907D1*
X2659924Y2815912D1*
Y2931888D1*
X2838892D1*
Y2815912D1*
X2820843D1*
X2824999Y2811560D1*
X2830348Y2804199D1*
X2834478Y2796092D1*
X2837290Y2787437D1*
X2838714Y2778450D1*
Y2769350D1*
X2837290Y2760364D1*
X2834478Y2751709D1*
X2830348Y2743601D1*
X2824999Y2736240D1*
X2818564Y2729806D1*
X2811203Y2724457D1*
X2810256Y2723927D1*
X2814988Y2720814D1*
X2821908Y2714904D1*
X2827818Y2707984D1*
X2832572Y2700226D1*
X2836054Y2691820D1*
X2838178Y2682971D1*
X2838892Y2673900D1*
X2838178Y2664829D1*
X2836054Y2655980D1*
X2832572Y2647575D1*
X2827818Y2639816D1*
X2821908Y2632896D1*
X2814988Y2626987D1*
X2810256Y2623927D1*
X2814988Y2620814D1*
X2821908Y2614904D1*
X2827818Y2607984D1*
X2832572Y2600226D1*
X2836054Y2591820D1*
X2838178Y2582971D1*
X2838892Y2573900D1*
X2838178Y2564829D1*
X2836054Y2555980D1*
X2832572Y2547575D1*
X2827818Y2539816D1*
X2821908Y2532896D1*
X2814988Y2526987D1*
X2807230Y2522232D1*
X2798824Y2518751D1*
X2789975Y2516626D1*
X2780904Y2515912D1*
X2738597D1*
X2778794Y2475520D1*
X2782436Y2470507D1*
X2785249Y2464987D1*
X2787164Y2459094D1*
X2788133Y2452975D1*
X2788255Y2413131D1*
Y2383741D1*
X2794474Y2376541D1*
X2799105Y2368983D1*
X2802497Y2360793D1*
X2804567Y2352173D1*
X2805262Y2343336D1*
X2804567Y2334499D1*
X2802497Y2325879D1*
X2799105Y2317689D1*
X2794474Y2310131D1*
X2788717Y2303390D1*
X2781975Y2297633D1*
X2774825Y2293230D1*
X2781992Y2288791D1*
X2788734Y2283034D1*
X2794491Y2276293D1*
X2799122Y2268735D1*
X2802514Y2260545D1*
X2804584Y2251925D1*
X2805280Y2243088D1*
X2804584Y2234251D1*
X2802514Y2225631D1*
X2802029Y2224314D1*
X2995472Y2224312D1*
X2993856Y2229900D1*
X2992470Y2238656D1*
Y2247520D1*
X2993856Y2256276D1*
X2996596Y2264706D1*
X3000619Y2272605D1*
X3005831Y2279777D1*
X3012098Y2286045D1*
X3019270Y2291256D1*
X3022732Y2293194D1*
X3015566Y2297633D1*
X3008824Y2303390D1*
X3003067Y2310131D1*
X2998436Y2317689D1*
X2995043Y2325879D1*
X2992974Y2334499D1*
X2992278Y2343336D1*
X2992974Y2352173D1*
X2995043Y2360793D1*
X2998436Y2368983D1*
X3003067Y2376541D1*
X3008824Y2383282D1*
X3015566Y2389039D1*
X3023123Y2393671D1*
X3031314Y2397063D1*
X3039933Y2399133D1*
X3048770Y2399828D1*
X3057608Y2399133D1*
X3063643Y2397793D1*
X3168927Y2503286D1*
X3171181Y2510224D1*
X3174493Y2516726D1*
X3178781Y2522627D1*
X3183940Y2527786D1*
X3189841Y2532073D1*
X3196343Y2535386D1*
X3203281Y2537640D1*
X3210486Y2538782D1*
X3217881Y2538770D1*
X3217891Y2589618D1*
X3179831Y2627702D1*
X3116009Y2627723D1*
X3110256Y2623927D1*
X3114988Y2620814D1*
X3121908Y2614904D1*
X3127818Y2607984D1*
X3132572Y2600226D1*
X3136054Y2591820D1*
X3138178Y2582971D1*
X3138892Y2573900D1*
X3138178Y2564829D1*
X3136054Y2555980D1*
X3132572Y2547575D1*
X3127818Y2539816D1*
X3121908Y2532896D1*
X3114988Y2526987D1*
X3107230Y2522232D1*
X3098824Y2518751D1*
X3089975Y2516626D1*
X3080904Y2515912D1*
X3017912D1*
X3008841Y2516626D1*
X2999992Y2518751D1*
X2991587Y2522232D1*
X2983828Y2526987D1*
X2976908Y2532896D1*
X2970999Y2539816D1*
X2966244Y2547575D1*
X2962762Y2555980D1*
X2960638Y2564829D1*
X2959924Y2573900D1*
X2960638Y2582971D1*
X2962762Y2591820D1*
X2966244Y2600226D1*
X2970999Y2607984D1*
X2976908Y2614904D1*
X2983828Y2620814D1*
X2988560Y2623874D1*
X2982891Y2627724D1*
X2951434Y2627865D1*
X2944278Y2628999D1*
X2937386Y2631238D1*
X2930930Y2634528D1*
X2925068Y2638787D1*
X2911437Y2652214D1*
X2906731Y2657724D1*
X2902945Y2663903D1*
X2900172Y2670597D1*
X2898479Y2677642D1*
X2897911Y2684881D1*
Y3048514D1*
X2669869Y3048482D1*
X2662646Y3049050D1*
X2655600Y3050741D1*
X2648904Y3053514D1*
X2642727Y3057301D1*
X2637217Y3062007D1*
X2570711Y3128512D1*
X2570727Y2895957D1*
X2578552Y2897147D1*
X2587416D1*
X2596172Y2895761D1*
X2604602Y2893021D1*
X2612501Y2888997D1*
X2619673Y2883786D1*
X2625941Y2877518D1*
X2631152Y2870346D1*
X2635176Y2862448D1*
X2637916Y2854017D1*
X2639302Y2845261D1*
Y2836398D1*
X2722745Y2293213D2*
X2715566Y2297633D1*
X2708824Y2303390D1*
X2703067Y2310131D1*
X2698436Y2317689D1*
X2695043Y2325879D1*
X2692974Y2334499D1*
X2692297Y2342869D1*
X2687625Y2341063D1*
X2680530Y2339360D1*
X2673257Y2338787D1*
X2665984Y2339360D1*
X2658890Y2341063D1*
X2652150Y2343854D1*
X2645930Y2347667D1*
X2640382Y2352404D1*
X2635644Y2357953D1*
X2631832Y2364172D1*
X2631265Y2365403D1*
X2591031D1*
X2695253Y2261168D1*
X2698453Y2268735D1*
X2703084Y2276293D1*
X2708841Y2283034D1*
X2715583Y2288791D1*
X2722732Y2293194D1*
X3101963Y2324432D2*
X3099105Y2317689D1*
X3094474Y2310131D1*
X3088717Y2303390D1*
X3081975Y2297633D1*
X3074825Y2293230D1*
X3081992Y2288791D1*
X3088110Y2283610D1*
X3151333Y2347066D1*
X3153588Y2354004D1*
X3156900Y2360505D1*
X3161188Y2366407D1*
X3166346Y2371566D1*
X3172248Y2375853D1*
X3178749Y2379165D1*
X3185688Y2381420D1*
X3192892Y2382562D1*
X3200189D1*
X3207394Y2381420D1*
X3214332Y2379165D1*
X3217885Y2377505D1*
X3217891Y2440340D1*
X3102014Y2324475D1*
X2491592Y2422946D2*
X2484961Y2423034D1*
X2476205Y2424420D1*
X2467774Y2427160D1*
X2462732Y2429584D1*
X2462739Y2394033D1*
X2491541Y2422887D1*
X2462732Y2229119D2*
X2467774Y2231543D1*
X2476205Y2234283D1*
X2484961Y2235669D1*
X2493824D1*
X2499980Y2234801D1*
X2464104Y2270677D1*
X2462739Y2268976D1*
Y2229181D1*
X2803874Y3749525D2*
X2802488Y3740769D1*
X2799748Y3732339D1*
X2795724Y3724440D1*
X2790513Y3717268D1*
X2784245Y3711000D1*
X2777073Y3705789D1*
X2769175Y3701765D1*
X2760744Y3699025D1*
X2751988Y3697639D1*
X2743125D1*
X2734369Y3699025D1*
X2725938Y3701765D1*
X2718039Y3705789D1*
X2710867Y3711000D1*
X2704600Y3717268D1*
X2699388Y3724440D1*
X2695365Y3732339D1*
X2692625Y3740769D1*
X2691239Y3749525D1*
Y3758388D1*
X2692625Y3767144D1*
X2695365Y3775575D1*
X2699388Y3783474D1*
X2704600Y3790646D1*
X2710867Y3796913D1*
X2718039Y3802125D1*
X2725938Y3806148D1*
X2734369Y3808888D1*
X2743125Y3810274D1*
X2751988D1*
X2760744Y3808888D1*
X2769175Y3806148D1*
X2777073Y3802125D1*
X2784245Y3796913D1*
X2790513Y3790646D1*
X2795724Y3783474D1*
X2799748Y3775575D1*
X2802488Y3767144D1*
X2803874Y3758388D1*
Y3749525D1*
X3474425Y3171698D2*
X3467322Y3166541D1*
X3459423Y3162517D1*
X3450992Y3159777D1*
X3442236Y3158391D1*
X3433373D1*
X3424617Y3159777D1*
X3416186Y3162517D1*
X3408287Y3166541D1*
X3401115Y3171752D1*
X3394848Y3178020D1*
X3389636Y3185192D1*
X3387969Y3188169D1*
X3383731Y3181381D1*
X3377974Y3174639D1*
X3371232Y3168882D1*
X3363675Y3164251D1*
X3355484Y3160858D1*
X3346865Y3158789D1*
X3342650Y3158290D1*
X3345364Y3155584D1*
X3487441Y3155580D1*
X3481218Y3161812D1*
X3475869Y3169173D1*
X3474453Y3171703D1*
X4095789Y4092421D2*
X4094403Y4083665D1*
X4091663Y4075235D1*
X4087639Y4067336D1*
X4082428Y4060164D1*
X4076160Y4053896D1*
X4068988Y4048685D1*
X4061089Y4044661D1*
X4052659Y4041921D1*
X4043903Y4040535D1*
X4035039D1*
X4026283Y4041921D1*
X4017853Y4044661D1*
X4009954Y4048685D1*
X4002782Y4053896D1*
X3996514Y4060164D1*
X3991303Y4067336D1*
X3987280Y4075235D1*
X3984539Y4083665D1*
X3983154Y4092421D1*
Y4101285D1*
X3984539Y4110041D1*
X3987280Y4118471D1*
X3991303Y4126370D1*
X3996514Y4133542D1*
X4002782Y4139810D1*
X4009954Y4145021D1*
X4017853Y4149045D1*
X4026283Y4151785D1*
X4035039Y4153171D1*
X4043903D1*
X4052659Y4151785D1*
X4061089Y4149045D1*
X4068988Y4145021D1*
X4076160Y4139810D1*
X4082428Y4133542D1*
X4087639Y4126370D1*
X4091663Y4118471D1*
X4094403Y4110041D1*
X4095789Y4101285D1*
Y4092421D1*
X4039790Y3415093D2*
X4031587Y3413142D1*
X4022749Y3412446D1*
X4013912Y3413142D1*
X4005293Y3415211D1*
X3998597Y3417915D1*
X3998606Y3258417D1*
X4032404Y3224588D1*
X4039790Y3222783D1*
X4039794Y3415094D1*
X3713134Y1653685D2*
X3710003Y1647722D1*
X3704791Y1640550D1*
X3698524Y1634282D1*
X3691352Y1629071D1*
X3683453Y1625047D1*
X3675022Y1622307D1*
X3666266Y1620921D1*
X3657403D1*
X3648647Y1622307D1*
X3640217Y1625047D1*
X3632318Y1629071D1*
X3625146Y1634282D1*
X3618878Y1640550D1*
X3613667Y1647722D1*
X3609643Y1655621D1*
X3606903Y1664051D1*
X3605517Y1672807D1*
Y1681671D1*
X3606903Y1690427D1*
X3609643Y1698857D1*
X3613667Y1706756D1*
X3618878Y1713928D1*
X3625146Y1720196D1*
X3632318Y1725407D1*
X3640217Y1729430D1*
X3648647Y1732171D1*
X3657403Y1733556D1*
X3666266D1*
X3675022Y1732171D1*
X3683453Y1729430D1*
X3691352Y1725407D1*
X3698524Y1720196D1*
X3704791Y1713928D1*
X3710003Y1706756D1*
X3713656Y1699660D1*
X3716822Y1705596D1*
X3722033Y1712768D1*
X3728301Y1719035D1*
X3735472Y1724247D1*
X3743371Y1728270D1*
X3751802Y1731010D1*
X3760558Y1732396D1*
X3769421D1*
X3778177Y1731010D1*
X3786608Y1728270D1*
X3794507Y1724247D1*
X3801678Y1719035D1*
X3807946Y1712768D1*
X3813157Y1705596D1*
X3817181Y1697697D1*
X3819921Y1689266D1*
X3821307Y1680510D1*
Y1671647D1*
X3819921Y1662891D1*
X3817181Y1654461D1*
X3813157Y1646562D1*
X3807946Y1639390D1*
X3801678Y1633122D1*
X3794507Y1627911D1*
X3786608Y1623887D1*
X3778177Y1621147D1*
X3769421Y1619761D1*
X3760558D1*
X3751802Y1621147D1*
X3743371Y1623887D1*
X3735472Y1627911D1*
X3728301Y1633122D1*
X3722033Y1639390D1*
X3716822Y1646562D1*
X3713168Y1653657D1*
X3718152Y1972807D2*
X3716766Y1964051D1*
X3714026Y1955621D1*
X3710003Y1947722D1*
X3704791Y1940550D1*
X3698524Y1934282D1*
X3691352Y1929071D1*
X3683453Y1925047D1*
X3675022Y1922307D1*
X3666266Y1920921D1*
X3657403D1*
X3648647Y1922307D1*
X3640217Y1925047D1*
X3632318Y1929071D1*
X3625146Y1934282D1*
X3618878Y1940550D1*
X3613667Y1947722D1*
X3609643Y1955621D1*
X3606903Y1964051D1*
X3605517Y1972807D1*
Y1981671D1*
X3606903Y1990427D1*
X3609643Y1998857D1*
X3613667Y2006756D1*
X3618878Y2013928D1*
X3625146Y2020196D1*
X3632318Y2025407D1*
X3640217Y2029430D1*
X3648647Y2032171D1*
X3657403Y2033556D1*
X3666266D1*
X3675022Y2032171D1*
X3683453Y2029430D1*
X3691352Y2025407D1*
X3698524Y2020196D1*
X3704791Y2013928D1*
X3710003Y2006756D1*
X3714026Y1998857D1*
X3716766Y1990427D1*
X3718152Y1981671D1*
Y1972807D1*
X4312882Y989339D2*
X4311496Y980583D1*
X4308756Y972152D1*
X4304732Y964253D1*
X4299521Y957081D1*
X4293253Y950814D1*
X4286081Y945602D1*
X4278182Y941579D1*
X4269752Y938839D1*
X4260996Y937453D1*
X4252133D1*
X4243377Y938839D1*
X4234946Y941579D1*
X4227047Y945602D1*
X4219875Y950814D1*
X4213608Y957081D1*
X4208396Y964253D1*
X4204373Y972152D1*
X4201633Y980583D1*
X4200247Y989339D1*
Y998202D1*
X4201633Y1006958D1*
X4204373Y1015388D1*
X4208396Y1023287D1*
X4213608Y1030459D1*
X4219875Y1036727D1*
X4227047Y1041938D1*
X4234946Y1045962D1*
X4243377Y1048702D1*
X4252133Y1050088D1*
X4260996D1*
X4269752Y1048702D1*
X4278182Y1045962D1*
X4286081Y1041938D1*
X4293253Y1036727D1*
X4299521Y1030459D1*
X4304732Y1023287D1*
X4308756Y1015388D1*
X4311496Y1006958D1*
X4312882Y998202D1*
Y989339D1*
X1848110Y3672066D2*
X1830083D1*
Y3711215D1*
X1787168Y3668291D1*
X1793864Y3669416D1*
X1833707Y3669538D1*
X1845585D1*
X1848151Y3672060D1*
X2280096Y1510911D2*
X2284828Y1507850D1*
X2291748Y1501941D1*
X2293160Y1500413D1*
X2328085Y1500421D1*
X2333567Y1505883D1*
X2333542Y1651950D1*
X2330073Y1658736D1*
X2327819Y1665675D1*
X2326677Y1672879D1*
Y1680176D1*
X2327819Y1687381D1*
X2330073Y1694319D1*
X2333386Y1700820D1*
X2337673Y1706722D1*
X2342832Y1711881D1*
X2348734Y1716168D1*
X2355235Y1719480D1*
X2362173Y1721735D1*
X2369378Y1722877D1*
X2376675D1*
X2384251Y1721631D1*
X2384106Y1743318D1*
X2380794Y1749819D1*
X2379403Y1753697D1*
X2267453Y1641759D1*
X2264908Y1637675D1*
Y1617185D1*
X2272936Y1614510D1*
X2281043Y1610381D1*
X2288404Y1605031D1*
X2294839Y1598597D1*
X2300188Y1591236D1*
X2304318Y1583129D1*
X2307130Y1574474D1*
X2308554Y1565487D1*
Y1556387D1*
X2307130Y1547400D1*
X2304318Y1538745D1*
X2300188Y1530638D1*
X2294839Y1523277D1*
X2288404Y1516843D1*
X2281043Y1511493D1*
X2280096Y1510963D1*
X2838633Y2145357D2*
Y2066951D1*
X2820583D1*
X2824739Y2062600D1*
X2830088Y2055239D1*
X2834218Y2047131D1*
X2837030Y2038476D1*
X2838454Y2029490D1*
Y2020390D1*
X2837030Y2011403D1*
X2834218Y2002748D1*
X2830088Y1994640D1*
X2824739Y1987280D1*
X2818304Y1980845D1*
X2810944Y1975496D1*
X2809996Y1974966D1*
X2814728Y1971853D1*
X2821648Y1965944D1*
X2827558Y1959024D1*
X2832312Y1951265D1*
X2835794Y1942860D1*
X2837919Y1934010D1*
X2838247Y1931238D1*
X2858878Y1951856D1*
X2859005Y2051164D1*
X2860139Y2058320D1*
X2862378Y2065211D1*
X2865668Y2071668D1*
X2869928Y2077530D1*
X2891875Y2099680D1*
X2937524Y2145328D1*
X2838621Y2145344D1*
X2677692Y2066951D2*
X2659664D1*
Y2182928D1*
X2661781D1*
X2590678Y2254066D1*
X2593214Y2248995D1*
X2595129Y2243102D1*
X2596097Y2236983D1*
X2596219Y2197139D1*
X2596097Y1979675D1*
X2595129Y1973555D1*
X2593214Y1967663D1*
X2590400Y1962143D1*
X2586759Y1957130D1*
X2568491Y1938690D1*
X2568644Y1914631D1*
X2571957Y1908130D1*
X2574211Y1901192D1*
X2575353Y1893987D1*
Y1886690D1*
X2574211Y1879486D1*
X2571957Y1872547D1*
X2571294Y1871109D1*
X2682559Y1871117D1*
X2688301Y1874913D1*
X2683568Y1878026D1*
X2676648Y1883936D1*
X2670739Y1890856D1*
X2665984Y1898614D1*
X2662503Y1907020D1*
X2660378Y1915869D1*
X2659664Y1924940D1*
X2660378Y1934010D1*
X2662503Y1942860D1*
X2665984Y1951265D1*
X2670739Y1959024D1*
X2676648Y1965944D1*
X2683568Y1971853D1*
X2688301Y1974913D1*
X2683568Y1978026D1*
X2676648Y1983936D1*
X2670739Y1990856D1*
X2665984Y1998614D1*
X2662503Y2007020D1*
X2660378Y2015869D1*
X2659664Y2024940D1*
X2660378Y2034010D1*
X2662503Y2042860D1*
X2665984Y2051265D1*
X2670739Y2059024D1*
X2676648Y2065944D1*
X2677732Y2066946D1*
X2717671Y1766953D2*
X2708581Y1767665D1*
X2699732Y1769790D1*
X2691327Y1773272D1*
X2683568Y1778026D1*
X2682631Y1778764D1*
X2566534Y1778762D1*
X2568953Y1773837D1*
X2571260Y1766634D1*
X2658028Y1679685D1*
X2661669Y1674672D1*
X2664483Y1669152D1*
X2666398Y1663260D1*
X2667366Y1657140D1*
X2667488Y1619055D1*
X2839904Y1619033D1*
X2840051Y1560417D1*
X2874315Y1594902D1*
X2876570Y1601840D1*
X2879882Y1608341D1*
X2884169Y1614243D1*
X2889362Y1619428D1*
X2741850Y1766933D1*
X2717652Y1766987D1*
X3009022Y1767613D2*
X3004115Y1768554D1*
X2995461Y1771366D1*
X2987353Y1775496D1*
X2979992Y1780845D1*
X2973558Y1787280D1*
X2968209Y1794640D1*
X2964079Y1802748D1*
X2961266Y1811403D1*
X2959843Y1820390D1*
Y1829490D1*
X2961266Y1838476D1*
X2964079Y1847131D1*
X2968209Y1855239D1*
X2973558Y1862600D1*
X2979992Y1869034D1*
X2987353Y1874383D1*
X2988301Y1874913D1*
X2983568Y1878026D1*
X2976648Y1883936D1*
X2970739Y1890856D1*
X2965984Y1898614D1*
X2962503Y1907020D1*
X2960378Y1915869D1*
X2959664Y1924940D1*
X2960378Y1934010D1*
X2962503Y1942860D1*
X2965984Y1951265D1*
X2970739Y1959024D1*
X2976648Y1965944D1*
X2983568Y1971853D1*
X2988301Y1974913D1*
X2983568Y1978026D1*
X2976648Y1983936D1*
X2970739Y1990856D1*
X2965984Y1998614D1*
X2962503Y2007020D1*
X2960378Y2015869D1*
X2959664Y2024940D1*
X2960378Y2034010D1*
X2961262Y2038459D1*
X2951226Y2028421D1*
X2951076Y1929091D1*
X2949942Y1921934D1*
X2947703Y1915043D1*
X2944413Y1908587D1*
X2940154Y1902724D1*
X2918206Y1880575D1*
X2838507Y1800875D1*
X2935643Y1703749D1*
X2938256Y1708667D1*
X2942543Y1714568D1*
X2947702Y1719727D1*
X2953604Y1724014D1*
X2960105Y1727327D1*
X2967308Y1729634D1*
X2999394Y1761538D1*
X3004407Y1765180D1*
X3007122Y1766701D1*
X1858378Y2743623D2*
X1853646Y2746684D1*
X1846726Y2752593D1*
X1844854Y2754618D1*
X1838941Y2756046D1*
X1833217Y2758416D1*
X1827933Y2761654D1*
X1823222Y2765677D1*
X1740681Y2848219D1*
X1732320Y2843976D1*
X1723079Y2840974D1*
X1713480Y2839453D1*
X1690249Y2839262D1*
X1637756D1*
X1628068Y2840025D1*
X1618619Y2842293D1*
X1609643Y2846012D1*
X1604942Y2848694D1*
X1604955Y2778021D1*
X1749923Y2633075D1*
X1845269Y2633081D1*
X1850070Y2637692D1*
X1857430Y2643041D1*
X1858378Y2643571D1*
X1853646Y2646684D1*
X1846726Y2652593D1*
X1840816Y2659513D1*
X1836062Y2667272D1*
X1832580Y2675677D1*
X1830455Y2684526D1*
X1829741Y2693597D1*
X1830455Y2702668D1*
X1832580Y2711517D1*
X1836062Y2719923D1*
X1840816Y2727681D1*
X1846726Y2734601D1*
X1853646Y2740510D1*
X1858378Y2743571D1*
X1993138Y2654121D2*
X1988382Y2649503D1*
X1981021Y2644154D1*
X1980073Y2643623D1*
X1984806Y2640510D1*
X1991726Y2634601D1*
X1993138Y2633073D1*
X2041835Y2632959D1*
X2047954Y2631991D1*
X2053846Y2630076D1*
X2059366Y2627262D1*
X2064379Y2623621D1*
X2092639Y2595534D1*
X2150314Y2537858D1*
X2157430Y2543041D1*
X2158378Y2543571D1*
X2153646Y2546684D1*
X2146726Y2552593D1*
X2140816Y2559513D1*
X2136062Y2567272D1*
X2132580Y2575677D1*
X2130455Y2584526D1*
X2129741Y2593597D1*
X2130455Y2602668D1*
X2132580Y2611517D1*
X2136062Y2619923D1*
X2140816Y2627681D1*
X2146726Y2634601D1*
X2153646Y2640510D1*
X2158378Y2643571D1*
X2153646Y2646684D1*
X2146726Y2652593D1*
X2140816Y2659513D1*
X2136062Y2667272D1*
X2132580Y2675677D1*
X2130455Y2684526D1*
X2129741Y2693597D1*
X2130455Y2702668D1*
X2132580Y2711517D1*
X2136062Y2719923D1*
X2140816Y2727681D1*
X2146726Y2734601D1*
X2153646Y2740510D1*
X2158378Y2743571D1*
X2153646Y2746684D1*
X2146726Y2752593D1*
X2140816Y2759513D1*
X2136062Y2767272D1*
X2132580Y2775677D1*
X2130455Y2784526D1*
X2129741Y2793597D1*
X2130455Y2802668D1*
X2132580Y2811517D1*
X2136062Y2819923D1*
X2140816Y2827681D1*
X2146726Y2834601D1*
X2153646Y2840510D1*
X2158378Y2843571D1*
X2153646Y2846684D1*
X2146726Y2852593D1*
X2140816Y2859513D1*
X2136062Y2867272D1*
X2132580Y2875677D1*
X2130455Y2884526D1*
X2129741Y2893597D1*
X2130455Y2902668D1*
X2132580Y2911517D1*
X2133349Y2913602D1*
X2127766Y2908820D1*
X2121547Y2905008D1*
X2114807Y2902217D1*
X2111028Y2901173D1*
X2073247Y2863573D1*
X2068234Y2859932D1*
X2062714Y2857118D1*
X2059794Y2856042D1*
X2059328Y2854329D1*
X2059206Y2717285D1*
X2058238Y2711165D1*
X2056323Y2705273D1*
X2053509Y2699753D1*
X2049867Y2694740D1*
X2020978Y2665677D1*
X2016266Y2661654D1*
X2010983Y2658416D1*
X2005259Y2656045D1*
X1999235Y2654598D1*
X1996143Y2654234D1*
X1993138Y2554121D2*
X1988382Y2549503D1*
X1981021Y2544154D1*
X1980073Y2543623D1*
X1984806Y2540510D1*
X1991726Y2534601D1*
X1997635Y2527681D1*
X2002390Y2519923D1*
X2005871Y2511517D1*
X2007996Y2502668D1*
X2008710Y2493597D1*
X2007996Y2484526D1*
X2005871Y2475677D1*
X2002390Y2467272D1*
X1997635Y2459513D1*
X1991726Y2452593D1*
X1984806Y2446684D1*
X1980073Y2443623D1*
X1984806Y2440510D1*
X1991726Y2434601D1*
X1993138Y2433073D1*
X1998451Y2432959D1*
X2004571Y2431991D1*
X2010463Y2430076D1*
X2015983Y2427262D1*
X2020996Y2423621D1*
X2036797Y2407992D1*
X2036648Y2451465D1*
X2033336Y2457966D1*
X2031081Y2464904D1*
X2029940Y2472109D1*
Y2479406D1*
X2031081Y2486610D1*
X2033336Y2493549D1*
X2036648Y2500050D1*
X2040936Y2505951D1*
X2046094Y2511110D1*
X2051996Y2515398D1*
X2058018Y2518490D1*
X2022388Y2554106D1*
X1993199Y2554113D1*
X1887748Y2235610D2*
X1878659Y2236323D1*
X1869810Y2238448D1*
X1861404Y2241929D1*
X1853646Y2246684D1*
X1846726Y2252593D1*
X1841972Y2258046D1*
X1841980Y2252269D1*
X1976594Y2117673D1*
X2155463Y2117541D1*
X2161583Y2116572D1*
X2167475Y2114657D1*
X2172995Y2111844D1*
X2178008Y2108202D1*
X2190003Y2096379D1*
X2197248Y2094039D1*
X2203749Y2090727D1*
X2209651Y2086440D1*
X2214810Y2081281D1*
X2219097Y2075379D1*
X2221962Y2069849D1*
X2383789Y2231665D1*
X2383770Y2239944D1*
X2275858Y2132171D1*
X2270845Y2128529D1*
X2265325Y2125715D1*
X2259433Y2123801D1*
X2253314Y2122832D1*
X2213470Y2122710D1*
X2092130Y2122832D1*
X2086010Y2123801D1*
X2080118Y2125715D1*
X2074598Y2128529D1*
X2069585Y2132171D1*
X2041325Y2160257D1*
X1987340Y2214416D1*
X1983698Y2219429D1*
X1980885Y2224949D1*
X1978970Y2230841D1*
X1978001Y2236961D1*
X1977879Y2240071D1*
X1977047Y2241929D1*
X1968642Y2238448D1*
X1959793Y2236323D1*
X1950722Y2235609D1*
X1887730Y2235644D1*
X2187748Y2235610D2*
X2178659Y2236323D1*
X2175186Y2237013D1*
X2175248Y2229045D1*
X2174106Y2221840D1*
X2171852Y2214902D1*
X2168539Y2208400D1*
X2164252Y2202499D1*
X2163487Y2201672D1*
X2233849Y2201678D1*
X2271749Y2239568D1*
X2264259Y2237211D1*
X2255272Y2235787D1*
X2232349Y2235609D1*
X2187730Y2235644D1*
X2130127Y2287299D2*
X2129741Y2293597D1*
X2130455Y2302668D1*
X2132580Y2311517D1*
X2136062Y2319923D1*
X2140816Y2327681D1*
X2146726Y2334601D1*
X2153646Y2340510D1*
X2158378Y2343571D1*
X2153646Y2346684D1*
X2146726Y2352593D1*
X2140816Y2359513D1*
X2136062Y2367272D1*
X2132580Y2375677D1*
X2130455Y2384526D1*
X2129741Y2393597D1*
X2130455Y2402668D1*
X2132580Y2411517D1*
X2136062Y2419923D1*
X2140816Y2427681D1*
X2146726Y2434601D1*
X2153646Y2440510D1*
X2158378Y2443571D1*
X2153646Y2446684D1*
X2146726Y2452593D1*
X2145314Y2454121D1*
X2135638Y2454235D1*
X2129518Y2455203D1*
X2123626Y2457118D1*
X2120801Y2458423D1*
X2119241Y2457966D1*
X2115780Y2451240D1*
X2115773Y2301682D1*
X2130064Y2287366D1*
X2308531Y2289047D2*
X2307108Y2280060D1*
X2304709Y2272524D1*
X2331785Y2299602D1*
X2331633Y2338928D1*
X2328320Y2345429D1*
X2326066Y2352367D1*
X2324915Y2359815D1*
X2319596Y2357118D1*
X2313703Y2355203D1*
X2307584Y2354235D1*
X2293182Y2354113D1*
X2288382Y2349503D1*
X2281021Y2344154D1*
X2280073Y2343623D1*
X2284806Y2340510D1*
X2291726Y2334601D1*
X2297635Y2327681D1*
X2302390Y2319923D1*
X2305871Y2311517D1*
X2307996Y2302668D1*
X2308710Y2293597D1*
X2308531Y2289047D1*
X2308575Y2790167D2*
X2307996Y2784526D1*
X2144806Y2932525D2*
X2150070Y2937692D1*
X2157430Y2943041D1*
X2158719Y2943761D1*
X2145798Y2956694D1*
X2146789Y2950081D1*
Y2942785D1*
X2145647Y2935580D1*
X2144799Y2932573D1*
X2689572Y1411071D2*
X2684840Y1414131D1*
X2677920Y1420041D1*
X2672010Y1426961D1*
X2667491Y1434299D1*
X2667488Y1387818D1*
X2672010Y1395129D1*
X2677920Y1402049D1*
X2684840Y1407958D1*
X2689572Y1411018D1*
X2838094Y1446772D2*
X2835490Y1438853D1*
X2831360Y1430745D1*
X2826010Y1423385D1*
X2819576Y1416950D1*
X2812215Y1411601D1*
X2811268Y1411071D1*
X2816000Y1407958D1*
X2822920Y1402049D1*
X2828829Y1395129D1*
X2833584Y1387370D1*
X2837066Y1378965D1*
X2839190Y1370115D1*
X2839904Y1361045D1*
X2839756Y1357259D1*
X2849486Y1367003D1*
X2849492Y1458154D1*
X2838156Y1446844D1*
X2689572Y1311071D2*
X2684840Y1314131D1*
X2677920Y1320041D1*
X2672010Y1326961D1*
X2667491Y1334299D1*
X2667488Y1287844D1*
X2672010Y1295129D1*
X2677920Y1302049D1*
X2684840Y1307958D1*
X2689572Y1311018D1*
X3646293Y3523335D2*
Y3441484D1*
X3628243D1*
X3632399Y3437133D1*
X3637748Y3429772D1*
X3641878Y3421664D1*
X3644690Y3413009D1*
X3646114Y3404022D1*
Y3394923D1*
X3644690Y3385936D1*
X3641878Y3377281D1*
X3637748Y3369173D1*
X3632399Y3361812D1*
X3625965Y3355378D1*
X3618604Y3350029D1*
X3617656Y3349499D1*
X3622388Y3346386D1*
X3629308Y3340476D1*
X3635218Y3333556D1*
X3639972Y3325798D1*
X3643454Y3317392D1*
X3645579Y3308543D1*
X3646293Y3299472D1*
X3645579Y3290402D1*
X3643454Y3281552D1*
X3639972Y3273147D1*
X3635218Y3265388D1*
X3629308Y3258469D1*
X3622388Y3252559D1*
X3617656Y3249499D1*
X3622388Y3246386D1*
X3629308Y3240476D1*
X3635218Y3233556D1*
X3639972Y3225798D1*
X3643454Y3217392D1*
X3645579Y3208543D1*
X3646293Y3199472D1*
X3645579Y3190402D1*
X3643454Y3181552D1*
X3639972Y3173147D1*
X3635218Y3165388D1*
X3629308Y3158469D1*
X3626186Y3155583D1*
X3949157Y3155736D1*
X3955659Y3159049D1*
X3962597Y3161303D1*
X3964681Y3161718D1*
X3917316Y3209269D1*
X3913056Y3215131D1*
X3909766Y3221587D1*
X3907528Y3228479D1*
X3906394Y3235635D1*
X3906224Y3244323D1*
X3897375Y3242198D1*
X3888304Y3241484D1*
X3825312D1*
X3816241Y3242198D1*
X3807392Y3244323D1*
X3798987Y3247804D1*
X3791228Y3252559D1*
X3784308Y3258469D1*
X3778399Y3265388D1*
X3773644Y3273147D1*
X3770163Y3281552D1*
X3768038Y3290402D1*
X3767324Y3299472D1*
X3768038Y3308543D1*
X3770163Y3317392D1*
X3773644Y3325798D1*
X3778399Y3333556D1*
X3784308Y3340476D1*
X3791228Y3346386D1*
X3795961Y3349446D1*
X3791228Y3352559D1*
X3784308Y3358469D1*
X3778399Y3365388D1*
X3773644Y3373147D1*
X3770163Y3381552D1*
X3768038Y3390402D1*
X3767324Y3399472D1*
X3768038Y3408543D1*
X3770163Y3417392D1*
X3773644Y3425798D1*
X3778399Y3433556D1*
X3784308Y3440476D1*
X3791228Y3446386D1*
X3795961Y3449446D1*
X3791228Y3452559D1*
X3784308Y3458469D1*
X3778399Y3465388D1*
X3773644Y3473147D1*
X3770163Y3481552D1*
X3768038Y3490402D1*
X3767324Y3499472D1*
X3768038Y3508543D1*
X3770163Y3517392D1*
X3772505Y3523327D1*
X3646276Y3523319D1*
X3670559Y2934466D2*
Y2835678D1*
X3652509D1*
X3656665Y2831327D1*
X3662014Y2823966D1*
X3666144Y2815858D1*
X3668957Y2807203D1*
X3670381Y2798217D1*
Y2789117D1*
X3668957Y2780130D1*
X3666144Y2771475D1*
X3662014Y2763367D1*
X3656665Y2756007D1*
X3650231Y2749572D1*
X3642870Y2744223D1*
X3641923Y2743693D1*
X3646655Y2740580D1*
X3653575Y2734671D1*
X3659484Y2727751D1*
X3664239Y2719992D1*
X3667720Y2711587D1*
X3669845Y2702738D1*
X3670559Y2693667D1*
X3669845Y2684596D1*
X3667720Y2675747D1*
X3664239Y2667341D1*
X3659484Y2659583D1*
X3653575Y2652663D1*
X3646655Y2646753D1*
X3641923Y2643693D1*
X3646655Y2640580D1*
X3653575Y2634671D1*
X3659484Y2627751D1*
X3664239Y2619992D1*
X3667720Y2611587D1*
X3668663Y2608248D1*
X3792319Y2484592D1*
X3791591Y2493667D1*
X3792304Y2502738D1*
X3794429Y2511587D1*
X3797911Y2519992D1*
X3802665Y2527751D1*
X3808575Y2534671D1*
X3815495Y2540580D1*
X3820227Y2543640D1*
X3815495Y2546753D1*
X3808575Y2552663D1*
X3802665Y2559583D1*
X3797911Y2567341D1*
X3794429Y2575747D1*
X3792304Y2584596D1*
X3791591Y2593667D1*
X3792304Y2602738D1*
X3794429Y2611587D1*
X3797911Y2619992D1*
X3802665Y2627751D1*
X3808575Y2634671D1*
X3815495Y2640580D1*
X3820227Y2643640D1*
X3815495Y2646753D1*
X3808575Y2652663D1*
X3802665Y2659583D1*
X3797911Y2667341D1*
X3794429Y2675747D1*
X3792304Y2684596D1*
X3791591Y2693667D1*
X3792304Y2702738D1*
X3794429Y2711587D1*
X3797911Y2719992D1*
X3802665Y2727751D1*
X3808575Y2734671D1*
X3815495Y2740580D1*
X3820227Y2743640D1*
X3815495Y2746753D1*
X3808575Y2752663D1*
X3802665Y2759583D1*
X3797911Y2767341D1*
X3794429Y2775747D1*
X3792304Y2784596D1*
X3791591Y2793667D1*
X3792304Y2802738D1*
X3794429Y2811587D1*
X3797911Y2819992D1*
X3802665Y2827751D1*
X3808575Y2834671D1*
X3815495Y2840580D1*
X3820227Y2843640D1*
X3815495Y2846753D1*
X3808575Y2852663D1*
X3802665Y2859583D1*
X3797911Y2867341D1*
X3794429Y2875747D1*
X3792304Y2884596D1*
X3791591Y2893667D1*
X3792304Y2902738D1*
X3794429Y2911587D1*
X3797307Y2918685D1*
X3781512Y2934483D1*
X3670562Y2934480D1*
X3623895Y1619007D2*
X3670559D1*
Y1503030D1*
X3652509D1*
X3656665Y1498678D1*
X3662014Y1491318D1*
X3666144Y1483210D1*
X3668957Y1474555D1*
X3670381Y1465568D1*
Y1456469D1*
X3668957Y1447482D1*
X3666144Y1438827D1*
X3662014Y1430719D1*
X3656665Y1423358D1*
X3650231Y1416924D1*
X3642870Y1411575D1*
X3641923Y1411045D1*
X3646655Y1407932D1*
X3653575Y1402022D1*
X3654987Y1400495D1*
X3693276Y1400381D1*
X3699395Y1399412D1*
X3705287Y1397497D1*
X3710807Y1394684D1*
X3715820Y1391042D1*
X3744080Y1362955D1*
X3770799Y1336063D1*
X3774441Y1331050D1*
X3777255Y1325530D1*
X3779169Y1319638D1*
X3780138Y1313518D1*
X3780260Y1283902D1*
X3792572Y1271608D1*
X3794429Y1278938D1*
X3797911Y1287344D1*
X3802665Y1295102D1*
X3808575Y1302022D1*
X3815495Y1307932D1*
X3820227Y1310992D1*
X3815495Y1314105D1*
X3808575Y1320014D1*
X3802665Y1326934D1*
X3797911Y1334693D1*
X3794429Y1343098D1*
X3792304Y1351948D1*
X3791591Y1361018D1*
X3792304Y1370089D1*
X3794429Y1378938D1*
X3797911Y1387344D1*
X3802665Y1395102D1*
X3808575Y1402022D1*
X3815495Y1407932D1*
X3823253Y1412686D1*
X3831659Y1416168D1*
X3840508Y1418293D1*
X3849597Y1419005D1*
X3917121Y1418828D1*
X3926108Y1417404D1*
X3934762Y1414592D1*
X3942870Y1410462D1*
X3950231Y1405113D1*
X3956665Y1398678D1*
X3962014Y1391318D1*
X3966144Y1383210D1*
X3968957Y1374555D1*
X3970381Y1365568D1*
Y1356469D1*
X3968957Y1347482D1*
X3966144Y1338827D1*
X3962014Y1330719D1*
X3956665Y1323358D1*
X3950231Y1316924D1*
X3942870Y1311575D1*
X3941923Y1311045D1*
X3946655Y1307932D1*
X3953575Y1302022D1*
X3959484Y1295102D1*
X3964239Y1287344D1*
X3967720Y1278938D1*
X3969845Y1270089D1*
X3970559Y1261018D1*
X3970479Y1258975D1*
X4013001Y1301495D1*
X4013134Y1450650D1*
X4014102Y1456769D1*
X4016017Y1462661D1*
X4018831Y1468181D1*
X4022472Y1473194D1*
X4052614Y1503509D1*
X4046890Y1505942D1*
X4040671Y1509755D1*
X4035122Y1514492D1*
X4030385Y1520041D1*
X4026572Y1526260D1*
X4023781Y1533000D1*
X4022077Y1540094D1*
X4021505Y1547367D1*
X4022077Y1554640D1*
X4023781Y1561735D1*
X4026572Y1568475D1*
X4028507Y1571885D1*
X4028513Y1687136D1*
X4023303Y1684617D1*
X4016365Y1682362D1*
X4009160Y1681220D1*
X4001864D1*
X3994659Y1682362D1*
X3987720Y1684617D1*
X3981219Y1687929D1*
X3975318Y1692217D1*
X3970159Y1697375D1*
X3965871Y1703277D1*
X3962559Y1709778D1*
X3960304Y1716717D1*
X3959163Y1723921D1*
Y1731218D1*
X3960304Y1738423D1*
X3962559Y1745361D1*
X3966021Y1752087D1*
X3966028Y1980014D1*
X3949858Y1996171D1*
X3946218Y1990344D1*
X3941480Y1984795D1*
X3935932Y1980058D1*
X3929713Y1976245D1*
X3922972Y1973454D1*
X3919193Y1972411D1*
X3790210Y1843609D1*
X3785197Y1839967D1*
X3779677Y1837154D1*
X3773785Y1835239D1*
X3767665Y1834270D1*
X3727822Y1834148D1*
X3391837D1*
X3263295Y1705367D1*
X3261041Y1698429D1*
X3257728Y1691928D1*
X3255021Y1688030D1*
X3544556Y1687888D1*
X3551713Y1686755D1*
X3558605Y1684516D1*
X3565060Y1681226D1*
X3570923Y1676966D1*
X3593072Y1655018D1*
X3616188Y1631701D1*
X3620448Y1625839D1*
X3623741Y1619369D1*
X3849597Y1503031D2*
X3840508Y1503744D1*
X3831659Y1505869D1*
X3823253Y1509350D1*
X3815495Y1514105D1*
X3808575Y1520014D1*
X3802665Y1526934D1*
X3797911Y1534693D1*
X3794429Y1543098D1*
X3792304Y1551948D1*
X3791591Y1561018D1*
X3792304Y1570089D1*
X3794429Y1578938D1*
X3797911Y1587344D1*
X3802665Y1595102D1*
X3808575Y1602022D1*
X3815495Y1607932D1*
X3823253Y1612686D1*
X3831659Y1616168D1*
X3840508Y1618293D1*
X3849597Y1619005D1*
X3917121Y1618828D1*
X3926108Y1617404D1*
X3934762Y1614592D1*
X3942870Y1610462D1*
X3950231Y1605113D1*
X3956665Y1598678D1*
X3962014Y1591318D1*
X3966144Y1583210D1*
X3968957Y1574555D1*
X3970381Y1565568D1*
Y1556469D1*
X3968957Y1547482D1*
X3966144Y1538827D1*
X3962014Y1530719D1*
X3956665Y1523358D1*
X3950231Y1516924D1*
X3942870Y1511575D1*
X3934762Y1507445D1*
X3926108Y1504633D1*
X3917121Y1503209D1*
X3894198Y1503030D1*
X3849579Y1503066D1*
X1601223Y3051196D2*
X1593969Y3057400D1*
X1587657Y3064789D1*
X1582580Y3073075D1*
X1578861Y3082051D1*
X1576593Y3091500D1*
X1575923Y3098853D1*
X1555444Y3119322D1*
X1555534Y3003615D1*
X1583332Y3031219D1*
X1587657Y3037587D1*
X1593969Y3044975D1*
X1601223Y3051180D1*
X4134857Y1361161D2*
X4129211Y1361765D1*
X4119762Y1364033D1*
X4110786Y1367752D1*
X4102500Y1372829D1*
X4095112Y1379140D1*
X4091978Y1382529D1*
X4091858Y1282052D1*
X4090890Y1275933D1*
X4088975Y1270041D1*
X4086161Y1264521D1*
X4082520Y1259508D1*
X4054433Y1231248D1*
X3997164Y1173979D1*
X4113806Y1173966D1*
X4134864Y1195058D1*
X4134848Y1361157D1*
X4257496Y4317455D2*
X4265764Y4314538D1*
X4272280Y4311534D1*
X4278539Y4308029D1*
X4284505Y4304043D1*
X4290139Y4299601D1*
X4295407Y4294731D1*
X4300277Y4289463D1*
X4304719Y4283829D1*
X4308705Y4277864D1*
X4312210Y4271604D1*
X4315214Y4265088D1*
X4317513Y4258857D1*
X4317508Y4317576D1*
X4257655Y4317455D1*
X4317640Y467812D2*
X4314495Y458735D1*
X4311491Y452219D1*
X4307986Y445959D1*
X4304000Y439993D1*
X4299558Y434360D1*
X4294688Y429092D1*
X4289420Y424222D1*
X4283786Y419780D1*
X4277820Y415794D1*
X4271560Y412289D1*
X4265045Y409285D1*
X4256345Y406247D1*
X4317629Y406248D1*
X4317635Y467562D1*
X2997302Y1642091D2*
X3008770Y1630622D1*
X3013062Y1637810D1*
X3017768Y1643320D1*
X3051615Y1676966D1*
X3057478Y1681226D1*
X3063933Y1684516D1*
X3070825Y1686755D1*
X3077982Y1687888D1*
X3109164Y1688030D1*
X3181112D1*
X3176663Y1695113D1*
X3173871Y1701853D1*
X3173224Y1704146D1*
X3167957Y1699571D1*
X3162673Y1696333D1*
X3156949Y1693962D1*
X3150925Y1692516D1*
X3144748Y1692030D1*
X3041366D1*
X3023104Y1673521D1*
X3020849Y1666583D1*
X3017537Y1660081D1*
X3013249Y1654180D1*
X3008091Y1649021D1*
X3002189Y1644734D1*
X2997255Y1642143D1*
X3919291Y3045374D2*
X3949892Y3075974D1*
X3948933Y3076605D1*
X3880259Y3076612D1*
X3890135Y3066934D1*
X3897073Y3064680D1*
X3903575Y3061367D1*
X3909476Y3057080D1*
X3914635Y3051921D1*
X3919293Y3045360D1*
X2478373Y2951164D2*
Y3146446D1*
X2471864Y3143497D1*
X2471856Y2957686D1*
X2478383Y2951177D1*
X2333535Y1652010D2*
X2330073Y1658736D1*
X2327819Y1665675D1*
X2326677Y1672879D1*
Y1680176D1*
X2327819Y1687381D1*
X2330073Y1694319D1*
X2333386Y1700820D1*
X2337673Y1706722D1*
X2342832Y1711881D1*
X2348734Y1716168D1*
X2355235Y1719480D1*
X2362173Y1721735D1*
X2369378Y1722877D1*
X2376675D1*
X2384251Y1721631D1*
X3850356Y2095702D2*
X3833992D1*
X3835911Y2090753D1*
X3837614Y2083659D1*
X3838186Y2076386D1*
X3837614Y2069113D1*
X3835911Y2062018D1*
X3833119Y2055278D1*
X3829307Y2049059D1*
X3824570Y2043510D1*
X3819021Y2038773D1*
X3812802Y2034961D1*
X3806062Y2032169D1*
X3798967Y2030466D1*
X3791694Y2029894D1*
X3784421Y2030466D1*
X3777327Y2032169D1*
X3770587Y2034961D1*
X3767177Y2036895D1*
X3505949Y2036902D1*
X3382169Y1913096D1*
X3748230Y1913117D1*
X3863398Y2028524D1*
X3865652Y2035462D1*
X3868965Y2041963D1*
X3873252Y2047865D1*
X3878411Y2053024D1*
X3884312Y2057311D1*
X3887138Y2058894D1*
X3850341Y2095688D1*
X1308719Y556332D2*
X1578699D1*
X1308719Y531463D2*
X1578699D1*
X1308719Y506594D2*
X1578699D1*
X1308719Y481726D2*
X1578699D1*
X1308719Y456857D2*
X1578699D1*
X1308719Y431988D2*
X1578699D1*
X1308719Y407119D2*
X1578699D1*
X1306201Y581177D2*
Y406206D1*
X1581169Y406201D1*
X1581201Y581196D1*
X1306232Y581201D1*
X1328455Y2749902D2*
X1358945D1*
X1456274D2*
X1525303D1*
X1635588D2*
X1665610D1*
X1328240Y2725033D2*
X1358945D1*
X1456274D2*
X1543783D1*
X1328025Y2700164D2*
X1358945D1*
X1456274D2*
X1568652D1*
X1327773Y2675295D2*
X1358945D1*
X1456274D2*
X1593520D1*
X1327558Y2650427D2*
X1358945D1*
X1456274D2*
X1618387D1*
X1327343Y2625558D2*
X1358945D1*
X1456274D2*
X1643255D1*
X1327092Y2600689D2*
X1358945D1*
X1456274D2*
X1666543D1*
X1326877Y2575820D2*
X1358945D1*
X1456274D2*
X1666688D1*
X1326625Y2550951D2*
X1358945D1*
X1456274D2*
X1666831D1*
X1326409Y2526083D2*
X1358945D1*
X1456274D2*
X1666974D1*
X1326194Y2501214D2*
X1358945D1*
X1456274D2*
X1667118D1*
X1325944Y2476345D2*
X1358945D1*
X1456274D2*
X1667298D1*
X1456274Y2451476D2*
X1667441D1*
X1456274Y2426608D2*
X1667584D1*
X1456274Y2401739D2*
X1667728D1*
X1456274Y2376870D2*
X1667871D1*
X1456274Y2352001D2*
X1668051D1*
X1456274Y2327133D2*
X1668194D1*
X1456274Y2302264D2*
X1668339D1*
X1456274Y2277395D2*
X1668482D1*
X1456274Y2252526D2*
X1668625D1*
X1328741Y2227657D2*
X1358945D1*
X1456274D2*
X1668804D1*
X1323467Y2202789D2*
X1358945D1*
X1456274D2*
X1668948D1*
X1323217Y2177920D2*
X1358945D1*
X1456274D2*
X1669092D1*
X1323000Y2153051D2*
X1358945D1*
X1456274D2*
X1669235D1*
X1322749Y2128182D2*
X1358945D1*
X1456274D2*
X1669378D1*
X1322534Y2103314D2*
X1358945D1*
X1456274D2*
X1669558D1*
X1322319Y2078445D2*
X1358945D1*
X1456274D2*
X1669702D1*
X1322068Y2053576D2*
X1358945D1*
X1456274D2*
X1669845D1*
X1321852Y2028707D2*
X1358945D1*
X1456274D2*
X1669988D1*
X1321636Y2003839D2*
X1358945D1*
X1456274D2*
X1670133D1*
X1321386Y1978970D2*
X1358945D1*
X1456274D2*
X1670311D1*
X1321171Y1954101D2*
X1358945D1*
X1456274D2*
X1670455D1*
X1320955Y1929232D2*
X1358945D1*
X1456274D2*
X1670598D1*
X1320703Y1904364D2*
X1358945D1*
X1456274D2*
X1670743D1*
X1320488Y1879495D2*
X1358945D1*
X1456274D2*
X1670886D1*
X1320273Y1854626D2*
X1358945D1*
X1456274D2*
X1671066D1*
X1320022Y1829757D2*
X1345058D1*
X1456274D2*
X1671209D1*
X1451896Y1804888D2*
X1671352D1*
X1430904Y1780020D2*
X1671496D1*
X1406037Y1755151D2*
X1671639D1*
X1381169Y1730282D2*
X1671819D1*
X1356301Y1705413D2*
X1671962D1*
X1331433Y1680545D2*
X1672106D1*
X1318444Y1655676D2*
X1672249D1*
X1318192Y1630807D2*
X1672392D1*
X1317976Y1605938D2*
X1672572D1*
X1317761Y1581070D2*
X1672715D1*
X1358203Y1556201D2*
X1672860D1*
X1358203Y1531332D2*
X1673003D1*
X1358203Y1506463D2*
X1673147D1*
X1358203Y1481594D2*
X1673325D1*
X1358203Y1456726D2*
X1673470D1*
X1316398Y1431857D2*
X1673613D1*
X1316147Y1406988D2*
X1673756D1*
X1315932Y1382119D2*
X1673936D1*
X1315717Y1357251D2*
X1674080D1*
X1315465Y1332382D2*
X1674223D1*
X1315249Y1307513D2*
X1674366D1*
X1314999Y1282644D2*
X1674510D1*
X1314783Y1257776D2*
X1674689D1*
X1314568Y1232907D2*
X1674833D1*
X1314316Y1208038D2*
X1674976D1*
X1358203Y1083694D2*
X1652585D1*
X1353503Y1058825D2*
X1648601D1*
X1370009Y1033957D2*
X1656353D1*
X1370009Y1009088D2*
X1661054D1*
X1370009Y984219D2*
X1648278D1*
X1370009Y959350D2*
X1648243D1*
X1370009Y934482D2*
X1660839D1*
X1311589Y909613D2*
X1676770D1*
X1311374Y884744D2*
X1676950D1*
X1311159Y859875D2*
X1677093D1*
X1310908Y835007D2*
X1677238D1*
X1310693Y810138D2*
X1677381D1*
X1310441Y785269D2*
X1677525D1*
X1310226Y760400D2*
X1677703D1*
X1310010Y735531D2*
X1677848D1*
X1309760Y710663D2*
X1662488D1*
X1309545Y685794D2*
X1648673D1*
X1309329Y660925D2*
X1647920D1*
X1309077Y636056D2*
X1659510D1*
X1308862Y611188D2*
X1678601D1*
X1673344Y1017840D2*
X1667375Y1022986D1*
X1661665Y1029669D1*
X1657073Y1037165D1*
X1653709Y1045286D1*
X1651657Y1053833D1*
X1650967Y1062597D1*
X1651657Y1071361D1*
X1653709Y1079908D1*
X1657073Y1088029D1*
X1661665Y1095525D1*
X1667375Y1102209D1*
X1672723Y1106865D1*
X1359382Y1106867D1*
X1353005Y1100474D1*
X1354940Y1092168D1*
X1355702Y1082480D1*
X1354940Y1072793D1*
X1352672Y1063344D1*
X1350663Y1058075D1*
X1367513Y1058084D1*
Y910612D1*
X1309130D1*
X1306316Y606171D1*
X1681142Y606201D1*
X1681035Y620932D1*
X1676360Y623503D1*
X1669188Y628714D1*
X1662920Y634982D1*
X1657709Y642154D1*
X1653685Y650052D1*
X1650945Y658483D1*
X1649559Y667239D1*
Y676102D1*
X1650945Y684858D1*
X1653685Y693289D1*
X1657709Y701188D1*
X1662920Y708360D1*
X1669188Y714627D1*
X1676360Y719839D1*
X1680421Y722231D1*
X1679210Y921852D1*
X1672672Y925967D1*
X1665930Y931724D1*
X1660173Y938466D1*
X1655542Y946024D1*
X1652150Y954214D1*
X1650080Y962833D1*
X1649385Y971671D1*
X1650080Y980508D1*
X1652150Y989127D1*
X1655542Y997318D1*
X1660173Y1004875D1*
X1665930Y1011617D1*
X1672672Y1017374D1*
X1673320Y1017807D1*
X1315211Y1579445D2*
X1355702D1*
Y1455594D1*
X1314113D1*
X1311660Y1189264D1*
X1316143Y1192417D1*
X1322600Y1195707D1*
X1329491Y1197946D1*
X1336648Y1199080D1*
X1367831Y1199222D1*
X1677547D1*
X1669017Y2602277D1*
X1535448Y2736045D1*
X1531806Y2741058D1*
X1528992Y2746577D1*
X1527077Y2752470D1*
X1526109Y2758589D1*
X1525987Y2768542D1*
X1453798Y2770647D1*
X1453642Y1820890D1*
X1452508Y1813734D1*
X1450269Y1806843D1*
X1446979Y1800386D1*
X1442719Y1794524D1*
X1420772Y1772374D1*
X1316052Y1667655D1*
X1315236Y1579453D1*
X1323249Y2452022D2*
X1355702D1*
Y2333856D1*
X1359476Y2327333D1*
X1361436Y2323083D1*
X1361429Y2773399D1*
X1329190Y2774312D1*
X1326138Y2768783D1*
X1323235Y2452047D1*
X1361436Y2264634D2*
X1356647Y2255331D1*
X1349846Y2245970D1*
X1341665Y2237789D1*
X1332304Y2230988D1*
X1321995Y2225735D1*
X1321167Y2225429D1*
X1317253Y1799486D1*
X1361441Y1843652D1*
X1361429Y2264560D1*
X1617167Y2765832D2*
X1668320Y2714678D1*
X1668034Y2764327D1*
X1617143Y2765843D1*
D17*
X1562608Y3893316D3*
D18*
X1661033D3*
D17*
X2064541Y1064340D3*
D18*
Y965915D3*
D19*
X1917340Y867538D3*
Y767538D3*
X3183531Y2039831D3*
Y2139831D3*
X3200008Y1458281D3*
Y1558281D3*
D17*
X2533995Y3261294D3*
D18*
X2632420D3*
D19*
X3455461Y2630522D3*
Y2730522D3*
X3877482Y1775373D3*
Y1875373D3*
X4018336Y2709151D3*
Y2609151D3*
X3200059Y1355261D3*
Y1255261D3*
D20*
X773419Y3123613D3*
D21*
X576568D3*
D19*
X2020745Y3044787D3*
X2120745D3*
D20*
X568234Y3679467D3*
D21*
X765084D3*
D19*
X877324Y1513693D3*
X977324D3*
X891143Y2692268D3*
X991143D3*
D22*
X639457Y1543542D3*
D23*
X737882D3*
D22*
X719161Y2726274D3*
D23*
X620736D3*
D19*
X4019238Y2991126D3*
Y2891126D3*
D20*
X1776175Y3409252D3*
D21*
Y3806890D3*
D20*
X1803337Y1063684D3*
D21*
Y1461322D3*
D20*
X1706987Y1460235D3*
D21*
Y1062597D3*
D20*
X2490133Y1665398D3*
D21*
Y2063035D3*
D20*
X4137853Y3748490D3*
D21*
Y4146127D3*
D24*
X1335261Y2966520D3*
D25*
Y3401559D3*
D24*
X1207251Y3400538D3*
D25*
Y2965499D3*
D24*
X1293777Y1517520D3*
D25*
Y1082480D3*
D24*
Y2390097D3*
D25*
Y2825136D3*
D26*
Y984348D3*
D27*
Y549308D3*
D26*
Y1858819D3*
D27*
Y2293858D3*
D28*
X1884501Y3991940D3*
D29*
X2081352D3*
D28*
X2278202D3*
X2081352Y4198579D3*
X2446789Y3991486D3*
D29*
X2643639D3*
D28*
X2840490D3*
X2643639Y4198125D3*
D30*
X3768022Y4208999D3*
X3768180Y3689550D3*
X3563495Y3775810D3*
X3205850Y4204659D3*
X3206008Y3685210D3*
X3001323Y3771470D3*
D31*
X956836Y3975052D3*
D32*
Y4211273D3*
X763923Y4093163D3*
D107*
X2627299Y3556329D3*
D33*
X2577299Y3606329D3*
X2627299Y3656329D3*
D110*
X4064262Y3674883D3*
D33*
X4114262Y3624883D3*
X4064262Y3574883D3*
D34*
X2458951Y3753993D3*
D35*
Y3453993D3*
D34*
X2359226Y3454640D3*
D35*
Y3754640D3*
D34*
X1556089Y3759705D3*
D35*
Y3459705D3*
D34*
X1665071Y3758752D3*
D35*
Y3458752D3*
D34*
X2360329Y3326343D3*
D35*
Y3026343D3*
D34*
X1705877Y671671D3*
D35*
Y971671D3*
D34*
X1806163Y671916D3*
D35*
Y971916D3*
D34*
X2218731Y1674420D3*
D35*
X1918731D3*
D34*
X2359719Y2748831D3*
D35*
Y2448831D3*
D34*
X3175776Y2875066D3*
D35*
Y2575066D3*
D34*
X2582984Y2840829D3*
D35*
Y2540829D3*
D34*
X2748770Y2343336D3*
D35*
X3048770D3*
D34*
X3048787Y2243088D3*
D35*
X2748787D3*
D34*
X2489392Y2479352D3*
D35*
Y2179352D3*
D34*
X2847461Y3453786D3*
D35*
Y3753786D3*
D34*
X2747556Y3753957D3*
D35*
Y3453957D3*
D34*
X3237896Y3214761D3*
D35*
Y3514761D3*
D34*
X3437804Y3214709D3*
D35*
Y3514709D3*
D34*
X3338028Y3214585D3*
D35*
Y3514585D3*
D34*
X4039471Y4096853D3*
D35*
Y3796853D3*
D34*
X4022749Y3468938D3*
D35*
Y3168938D3*
D34*
X3455169Y2221743D3*
D35*
Y2521743D3*
D34*
X3661835Y1677239D3*
D35*
Y1977239D3*
D34*
X3764990Y1676079D3*
D35*
Y1976079D3*
D34*
X4256564Y993770D3*
D35*
X3956564D3*
D34*
X4017151Y2203898D3*
D35*
Y2503898D3*
D36*
X1754298Y4032469D3*
Y4268650D3*
X1282014Y4032587D3*
Y4268650D3*
D37*
X1675400Y4101602D3*
X1518274D3*
X1360676D3*
D38*
X1919567Y3730054D3*
D39*
Y3630054D3*
Y3530054D3*
Y3430054D3*
X2219567D3*
Y3530054D3*
Y3630054D3*
Y3730054D3*
D38*
X1919248Y1560937D3*
D39*
Y1460937D3*
Y1360937D3*
Y1260937D3*
X2219248D3*
Y1360937D3*
Y1460937D3*
Y1560937D3*
D38*
X2749148Y2124940D3*
D39*
Y2024940D3*
Y1924940D3*
Y1824940D3*
X3049148D3*
Y1924940D3*
Y2024940D3*
Y2124940D3*
D38*
X1919226Y2893597D3*
D39*
Y2793597D3*
Y2693597D3*
Y2593597D3*
Y2493597D3*
Y2393597D3*
Y2293597D3*
X2219226D3*
Y2393597D3*
Y2493597D3*
Y2593597D3*
Y2693597D3*
Y2793597D3*
Y2893597D3*
D38*
X2749408Y2873900D3*
D39*
Y2773900D3*
Y2673900D3*
Y2573900D3*
X3049408D3*
Y2673900D3*
Y2773900D3*
Y2873900D3*
D38*
X2750420Y1561045D3*
D39*
Y1461045D3*
Y1361045D3*
Y1261045D3*
X3050420D3*
Y1361045D3*
Y1461045D3*
Y1561045D3*
D38*
X3556808Y3499472D3*
D39*
Y3399472D3*
Y3299472D3*
Y3199472D3*
X3856808D3*
Y3299472D3*
Y3399472D3*
Y3499472D3*
D38*
X3581075Y2893667D3*
D39*
Y2793667D3*
Y2693667D3*
Y2593667D3*
Y2493667D3*
Y2393667D3*
Y2293667D3*
X3881075D3*
Y2393667D3*
Y2493667D3*
Y2593667D3*
Y2693667D3*
Y2793667D3*
Y2893667D3*
D38*
X3581075Y1561018D3*
D39*
Y1461018D3*
Y1361018D3*
Y1261018D3*
X3881075D3*
Y1361018D3*
Y1461018D3*
Y1561018D3*
D40*
X946428Y1337076D3*
D41*
X846428D3*
X746428D3*
D40*
X952146Y2531898D3*
D41*
X852146D3*
X752146D3*
D42*
X1673189Y3101188D3*
Y3001188D3*
Y2901188D3*
Y2801188D3*
Y3201188D3*
Y3301188D3*
X4174307Y3101188D3*
Y3001188D3*
Y2901188D3*
Y2801188D3*
Y3201188D3*
Y3301188D3*
X4174332Y1722928D3*
Y1622928D3*
Y1522928D3*
Y1422928D3*
Y1822928D3*
Y1922928D3*
D43*
X2950900Y549680D3*
X3050900D3*
X3150900D3*
M02*
