M48
INCH
T01C0.0191
T02C0.0315
T03C0.0354
T04C0.038
T05C0.0394
T06C0.0433
T07C0.0472
T08C0.0669
T09C0.1024
T10C0.1181
T11C0.1378
%
T02
X+015626Y+038933
X+016610Y+038933
X+020645Y+010643
X+020645Y+009659
T05
X+019173Y+008675
X+019173Y+007675
X+031835Y+020398
X+031835Y+021398
X+032000Y+014583
X+032000Y+015583
T02
X+025340Y+032613
X+026324Y+032613
T05
X+034555Y+026305
X+034555Y+027305
X+038775Y+017754
X+038775Y+018754
X+040183Y+027092
X+040183Y+026092
X+032001Y+013553
X+032001Y+012553
T03
X+007734Y+031236
X+005766Y+031236
T05
X+020207Y+030448
X+021207Y+030448
T03
X+005682Y+036795
X+007651Y+036795
T05
X+008773Y+015137
X+009773Y+015137
X+008911Y+026923
X+009911Y+026923
T02
X+006395Y+015435
X+007379Y+015435
X+007192Y+027263
X+006207Y+027263
T05
X+040192Y+029911
X+040192Y+028911
T03
X+017762Y+034093
X+017762Y+038069
X+018033Y+010637
X+018033Y+014613
X+017070Y+014602
X+017070Y+010626
X+024901Y+016654
X+024901Y+020630
X+041379Y+037485
X+041379Y+041461
T07
X+013353Y+029665
X+013353Y+034016
X+012073Y+034005
X+012073Y+029655
X+012938Y+015175
X+012938Y+010825
X+012938Y+023901
X+012938Y+028251
X+012938Y+009843
X+012938Y+005493
X+012938Y+018588
X+012938Y+022939
T09
X+018845Y+039919
T08
X+020814Y+039919
T09
X+022782Y+039919
X+020814Y+041986
X+024468Y+039915
T08
X+026436Y+039915
T09
X+028405Y+039915
X+026436Y+041981
X+037680Y+042090
X+037682Y+036896
X+035635Y+037758
X+032059Y+042047
X+032060Y+036852
X+030013Y+037715
T11
X+009568Y+039751
T10
X+009568Y+042113
X+007639Y+040932
T02
X+026273Y+035563
X+025773Y+036063
X+026273Y+036563
X+040643Y+036749
X+041143Y+036249
X+040643Y+035749
T04
X+024590Y+037540
X+024590Y+034540
X+023592Y+034546
X+023592Y+037546
X+015561Y+037597
X+015561Y+034597
X+016651Y+037588
X+016651Y+034588
X+023603Y+033263
X+023603Y+030263
X+017059Y+006717
X+017059Y+009717
X+018062Y+006719
X+018062Y+009719
X+022187Y+016744
X+019187Y+016744
X+023597Y+027488
X+023597Y+024488
X+031758Y+028751
X+031758Y+025751
X+025830Y+028408
X+025830Y+025408
X+027488Y+023433
X+030488Y+023433
X+030488Y+022431
X+027488Y+022431
X+024894Y+024794
X+024894Y+021794
X+028475Y+034538
X+028475Y+037538
X+027476Y+037540
X+027476Y+034540
X+032379Y+032148
X+032379Y+035148
X+034378Y+032147
X+034378Y+035147
X+033380Y+032146
X+033380Y+035146
X+040395Y+040969
X+040395Y+037969
X+040227Y+034689
X+040227Y+031689
X+034552Y+022217
X+034552Y+025217
X+036618Y+016772
X+036618Y+019772
X+037650Y+016761
X+037650Y+019761
X+042566Y+009938
X+039566Y+009938
X+040172Y+022039
X+040172Y+025039
T05
X+017543Y+040325
X+017543Y+042686
X+012820Y+040326
X+012820Y+042686
T02
X+016754Y+041016
X+015183Y+041016
X+013607Y+041016
T05
X+019196Y+037301
X+019196Y+036301
X+019196Y+035301
X+019196Y+034301
X+022196Y+034301
X+022196Y+035301
X+022196Y+036301
X+022196Y+037301
X+019192Y+015609
X+019192Y+014609
X+019192Y+013609
X+019192Y+012609
X+022192Y+012609
X+022192Y+013609
X+022192Y+014609
X+022192Y+015609
X+027491Y+021249
X+027491Y+020249
X+027491Y+019249
X+027491Y+018249
X+030491Y+018249
X+030491Y+019249
X+030491Y+020249
X+030491Y+021249
X+019192Y+028936
X+019192Y+027936
X+019192Y+026936
X+019192Y+025936
X+019192Y+024936
X+019192Y+023936
X+019192Y+022936
X+022192Y+022936
X+022192Y+023936
X+022192Y+024936
X+022192Y+025936
X+022192Y+026936
X+022192Y+027936
X+022192Y+028936
X+027494Y+028739
X+027494Y+027739
X+027494Y+026739
X+027494Y+025739
X+030494Y+025739
X+030494Y+026739
X+030494Y+027739
X+030494Y+028739
X+027504Y+015610
X+027504Y+014610
X+027504Y+013610
X+027504Y+012610
X+030504Y+012610
X+030504Y+013610
X+030504Y+014610
X+030504Y+015610
X+035568Y+034995
X+035568Y+033995
X+035568Y+032995
X+035568Y+031995
X+038568Y+031995
X+038568Y+032995
X+038568Y+033995
X+038568Y+034995
X+035811Y+028937
X+035811Y+027937
X+035811Y+026937
X+035811Y+025937
X+035811Y+024937
X+035811Y+023937
X+035811Y+022937
X+038811Y+022937
X+038811Y+023937
X+038811Y+024937
X+038811Y+025937
X+038811Y+026937
X+038811Y+027937
X+038811Y+028937
X+035811Y+015610
X+035811Y+014610
X+035811Y+013610
X+035811Y+012610
X+038811Y+012610
X+038811Y+013610
X+038811Y+014610
X+038811Y+015610
T06
X+009464Y+013371
X+008464Y+013371
X+007464Y+013371
X+009521Y+025319
X+008521Y+025319
X+007521Y+025319
T03
X+016732Y+031012
X+016732Y+030012
X+016732Y+029012
X+016732Y+028012
X+016732Y+032012
X+016732Y+033012
X+041743Y+031012
X+041743Y+030012
X+041743Y+029012
X+041743Y+028012
X+041743Y+032012
X+041743Y+033012
X+041743Y+017229
X+041743Y+016229
X+041743Y+015229
X+041743Y+014229
X+041743Y+018229
X+041743Y+019229
X+029509Y+005497
X+030509Y+005497
X+031509Y+005497
T10
X+004938Y+042308
X+042308Y+042301
T11
X+008465Y+007466
T10
X+004949Y+004931
T11
X+008522Y+019414
T10
X+042301Y+004937
T01
X+034657Y+028837
X+034536Y+020962
X+032846Y+022335
X+016276Y+010702
X+018025Y+023826
X+021795Y+020511
X+024233Y+026456
X+023730Y+016765
X+022478Y+018018
X+023713Y+023632
X+025456Y+023550
X+031965Y+023362
X+032775Y+021352
X+040055Y+017276
X+021004Y+029464
X+023577Y+026765
X+024237Y+017676
X+021289Y+022327
X+020763Y+024758
X+032141Y+024924
X+024559Y+031871
X+024747Y+028990
X+039086Y+020177
X+032181Y+017162
X+040680Y+015474
X+037917Y+020764
X+029779Y+016844
X+029195Y+015840
X+039735Y+031161
X+033940Y+028995
X+032427Y+028995
X+032852Y+012362
X+038793Y+030217
X+037245Y+030754
X+026733Y+023853
X+025290Y+018903
X+025260Y+017560
T00
M30
