G04 DipTrace 3.3.1.1*
G04 Top.gbr*
%MOIN*%
G04 #@! TF.FileFunction,Copper,L1,Top*
G04 #@! TF.Part,Single*
%AMOUTLINE0*
4,1,4,
-0.022272,0.022272,
0.022272,0.022272,
0.022272,-0.022272,
-0.022272,-0.022272,
-0.022272,0.022272,
0*%
%AMOUTLINE3*
4,1,4,
0.022272,-0.022272,
-0.022272,-0.022272,
-0.022272,0.022272,
0.022272,0.022272,
0.022272,-0.022272,
0*%
G04 #@! TA.AperFunction,Conductor*
%ADD13C,0.025984*%
%ADD14C,0.03937*%
G04 #@! TA.AperFunction,CopperBalancing*
%ADD15C,0.025*%
G04 #@! TA.AperFunction,ComponentPad*
%ADD17R,0.05315X0.05315*%
%ADD18C,0.05315*%
%ADD19C,0.064961*%
%ADD20R,0.059055X0.059055*%
%ADD21C,0.059055*%
%ADD22R,0.062992X0.062992*%
%ADD23C,0.062992*%
%ADD24R,0.070866X0.070866*%
%ADD25C,0.070866*%
%ADD26R,0.094488X0.094488*%
%ADD27C,0.094488*%
%ADD28C,0.177165*%
%ADD29C,0.133858*%
%ADD30C,0.204724*%
%ADD31C,0.19685*%
%ADD32C,0.177165*%
%ADD33C,0.055118*%
%ADD34C,0.06*%
%ADD35C,0.06*%
%ADD36C,0.07874*%
%ADD37C,0.062992*%
%ADD38R,0.125984X0.062992*%
%ADD39O,0.125984X0.062992*%
%ADD40R,0.074803X0.074803*%
%ADD41C,0.074803*%
%ADD42O,0.141732X0.070866*%
%ADD43O,0.070866X0.141732*%
G04 #@! TA.AperFunction,ViaPad*
%ADD44C,0.04*%
G04 #@! TA.AperFunction,ComponentPad*
%ADD107OUTLINE0*%
%ADD110OUTLINE3*%
%FSLAX26Y26*%
G04*
G70*
G90*
G75*
G01*
G04 Top*
%LPD*%
X1556089Y3459705D2*
D13*
X1664118D1*
X1665071Y3458752D1*
X1679718D1*
X1751020Y3530054D1*
X1919567D1*
X1917340Y867538D2*
X1910541D1*
X1806163Y971916D1*
X2064541Y965915D2*
X2060720D1*
X1962344Y867538D1*
X1917340D1*
X1627643Y1070218D2*
X1706987Y1149562D1*
Y1460235D1*
X3877482Y1875373D2*
X3865696D1*
X3764990Y1976079D1*
X977324Y1513693D2*
D14*
Y1436609D1*
X950730Y1410014D1*
Y1337076D1*
X946428D1*
X1293777Y1517520D2*
X1241888D1*
X1061445Y1337076D1*
X946428D1*
X1207251Y2965499D2*
Y3227387D1*
X755171Y3679467D1*
X765084D1*
X891143Y2692268D2*
Y2658751D1*
X852146Y2619753D1*
Y2531898D1*
X1293777Y2825136D2*
Y2601211D1*
X1126539Y2433974D1*
X893056D1*
X852146Y2474885D1*
Y2531898D1*
X1207251Y2965499D2*
Y2911663D1*
X1293777Y2825136D1*
Y2390097D2*
Y2293858D1*
X620736Y2726274D2*
Y2663307D1*
X752146Y2531898D1*
X2020745Y3044787D2*
Y2293597D1*
X2219226D1*
X1919226D2*
X2020745D1*
X1919248Y1560937D2*
X2006862D1*
X2021499Y1546301D1*
Y1268062D1*
X2014374Y1260937D1*
X1919248D1*
X2021499Y1546301D2*
X2020745Y2293597D1*
X1293777Y2293858D2*
X1604782D1*
X1605043Y2293597D1*
X1919226D1*
X2750420Y1561045D2*
X2868449D1*
Y2124940D1*
X2749148D1*
X3581075Y1261018D2*
X3520623D1*
X3428757Y1169152D1*
X2921374D1*
X2868449Y1222077D1*
Y1561045D1*
X2219226Y2293597D2*
X2580491D1*
X2749148Y2124940D1*
X3556808Y3199472D2*
X3529335D1*
X3333009Y3003147D1*
Y1339972D1*
X3411963Y1261018D1*
X3581075D1*
X1288602Y2303419D2*
Y2384923D1*
X1293777Y2390097D1*
X2020745Y3044787D2*
Y3310497D1*
X1919567Y3411676D1*
Y3430054D1*
X2749408Y2673900D2*
X2808345D1*
X2868449Y2613797D1*
Y2124940D1*
X1293777Y1082480D2*
Y984348D1*
X639457Y1543542D2*
Y1444047D1*
X746428Y1337076D1*
X4019238Y2891126D2*
X3881075Y2893667D1*
X2081352Y3991940D2*
D13*
X2060050D1*
X1943928Y3875818D1*
X1766840D1*
X1686685Y3955972D1*
X1625264D1*
X1562608Y3893316D1*
X1556089Y3759705D2*
Y3886798D1*
X1562608Y3893316D1*
X1661033D2*
Y3762790D1*
X1665071Y3758752D1*
Y3744576D1*
X1779593Y3630054D1*
X1919567D1*
X1962273D1*
X2162273Y3430054D1*
X2219567D1*
X1776175Y3409252D2*
Y3355871D1*
X1802496Y3329550D1*
Y2382564D1*
X2179457Y2051087D2*
Y1802891D1*
X2524625Y1457723D1*
Y1205555D1*
X3080715Y649465D1*
X3084815D1*
X3150900Y583379D1*
Y549680D1*
X3768180Y3689550D2*
Y3900486D1*
X3964547Y4096853D1*
X4039471D1*
X1776175Y3806890D2*
Y3790055D1*
X1836176Y3730054D1*
X1919567D1*
X2219567Y3530054D2*
X2243089D1*
X2318503Y3454640D1*
X2359226D1*
X2458951Y3453993D2*
X2359873D1*
X2359226Y3454640D1*
Y3754640D2*
Y3685289D1*
X2303991Y3630054D1*
X2219567D1*
X2423255Y2645617D2*
Y2963417D1*
X2360329Y3026343D1*
X1705877Y971671D2*
Y1061487D1*
X1706987Y1062597D1*
X1802251D1*
X1803337Y1063684D1*
X2064541Y1064340D2*
X1803993D1*
X1803337Y1063684D1*
X1705877Y671671D2*
X1805917D1*
X1806163Y671916D1*
X1821718D1*
X1917340Y767538D1*
X1919248Y1360937D2*
X1882274D1*
X1823875Y1302538D1*
Y1173972D1*
X1848686Y1149161D1*
X2078751D1*
X2135139Y1092773D1*
Y887518D1*
X2015159Y767538D1*
X1917340D1*
X2373026Y1676528D2*
X2247797Y1801757D1*
X2373026Y1676528D2*
Y1665398D1*
X2490133D1*
X2532123D1*
X2590348Y1723622D1*
Y1943025D1*
X2672262Y2024940D1*
X2749148D1*
X3049148D2*
Y1924940D1*
Y2024940D2*
X3068640D1*
X3183531Y2139831D1*
X3661835Y1977239D2*
Y2113577D1*
X3760635Y2212378D1*
Y2452285D1*
X3802017Y2493667D1*
X3881075D1*
X1919226Y2493597D2*
Y2393597D1*
X2371273Y2363220D2*
X2537362D1*
X2545564Y2355018D1*
X3196541Y2336213D2*
X3240381Y2292373D1*
Y2172353D1*
X3277547Y2135186D1*
X4005512Y1727570D2*
X4169690D1*
X4174332Y1722928D1*
X4017151Y2203898D2*
X4123765D1*
X4174307Y2254440D1*
Y2801188D1*
X2100440Y2946433D2*
X2135857D1*
X2316739Y3127315D1*
X3024958D1*
X3175776Y2976497D1*
Y2875066D1*
X3049408Y2873900D2*
X3174610D1*
X3175776Y2875066D1*
X2749408Y2873900D2*
X2616055D1*
X2582984Y2840829D1*
X2357665Y2676534D2*
Y2624879D1*
X2326383Y2593597D1*
X2219226D1*
X2423747Y1767610D2*
Y1937845D1*
X2128899Y2232693D1*
X2076289Y2475757D2*
Y2538891D1*
X2130995Y2593597D1*
X2219226D1*
X3214134Y2492433D2*
X3237051Y2515350D1*
Y2693597D1*
X3156748Y2773900D1*
X3049408D1*
X3048787Y2243088D2*
X3097199D1*
X3121190Y2267079D1*
Y2502118D1*
X3049408Y2573900D1*
X2577299Y3606329D2*
Y3475724D1*
X2455852Y3354277D1*
Y3187106D1*
X2474676Y2899045D2*
Y2494068D1*
X2489392Y2479352D1*
X2748787Y2243088D2*
X2725656D1*
X2489392Y2479352D1*
X2747556Y3453957D2*
X2847290D1*
X2847461Y3453786D1*
X2747556Y3453957D2*
X2729672D1*
X2627299Y3556329D1*
X2643639Y3991486D2*
Y3951471D1*
X2747556Y3847554D1*
Y3753957D1*
X3881075Y2393667D2*
Y2293667D1*
X3050420Y1361045D2*
Y1461045D1*
X3102772D1*
X3200008Y1558281D1*
X4174307Y3201188D2*
X4235878D1*
X4266759Y3170307D1*
Y2230140D1*
X4054289Y2017671D1*
X3908605D1*
X3218088Y1716220D2*
X3200008Y1698140D1*
Y1558281D1*
X4067997Y1547367D2*
Y1142052D1*
X4017009Y1091064D1*
X2740797D1*
X2640815Y1191046D1*
Y1331701D1*
X2670159Y1361045D1*
X2750420D1*
X2749148Y1924940D2*
X2704281D1*
X2640986Y1861644D1*
Y1478413D1*
X2658354Y1461045D1*
X2750420D1*
X4174332Y1822928D2*
X4045152D1*
X3791694Y2076386D1*
X2977896Y1684374D2*
Y1642423D1*
X2919522Y1584049D1*
X3973450Y3116096D2*
X3954434Y3097080D1*
X4170199D1*
X4174307Y3101188D1*
X3437804Y3514709D2*
X3541572D1*
X3556808Y3499472D1*
X3581075Y1361018D2*
X3497983D1*
X3393978Y1465024D1*
Y2899545D1*
X3242652D2*
Y3116281D1*
X3148329Y3210604D1*
Y3335684D1*
X3234450Y3421804D1*
X3414731D1*
X3441441Y3448514D1*
Y3518345D1*
X3437804Y3514709D1*
X4174332Y1522928D2*
X4243490D1*
X4282631Y1483786D1*
Y1019837D1*
X4256564Y993770D1*
X3338028Y3214585D2*
X3437681D1*
X3437804Y3214709D1*
X3556808Y3399472D2*
X3473408D1*
X3437466Y3363530D1*
Y3215047D1*
X3437804Y3214709D1*
X3049148Y1824940D2*
X3204962D1*
X3285193Y1744709D1*
Y1236189D1*
X4039471Y3796853D2*
X4089490D1*
X4137853Y3748490D1*
Y3648474D1*
X4114262Y3624883D1*
X4064262Y3574883D2*
Y3510451D1*
X4022749Y3468938D1*
X4021724D1*
X3951051Y3398265D1*
Y3156755D1*
X3687963Y2893667D1*
X3581075D1*
Y2793667D1*
X3455461Y2730522D2*
X3463259D1*
X3500114Y2693667D1*
X3581075D1*
Y2493667D2*
Y2393667D1*
X3455169Y2521743D2*
X3475379D1*
X3503455Y2493667D1*
X3581075D1*
X3455169Y2521743D2*
Y2630231D1*
X3455461Y2630522D1*
X956836Y3975052D2*
D14*
X1008165D1*
X1209711Y4176598D1*
X1629869D1*
X1675400Y4131067D1*
Y4101602D1*
X1335261Y3401559D2*
X1208272D1*
X1207251Y3400538D1*
X1335261Y3401559D2*
Y3866349D1*
X1518274Y4049362D1*
Y4101602D1*
X3661835Y1677239D2*
D13*
X3763829D1*
X3764990Y1676079D1*
X3766014D1*
X3881075Y1561018D1*
X4017151Y2503898D2*
Y2500714D1*
X3924197Y2593667D1*
X3881075D1*
X3797822D1*
X3765967Y2625521D1*
Y2908412D1*
X3879282Y3021727D1*
X3724495Y3075409D2*
Y3538727D1*
X3614013Y3649209D1*
Y3725291D1*
X3563495Y3775810D1*
X2749408Y2573900D2*
Y2461430D1*
X2673257Y2385280D1*
X2529004Y1890339D2*
X2526000Y1887335D1*
Y1756046D1*
X3200059Y1255261D2*
D14*
X3056203D1*
X3050420Y1261045D1*
X4018336Y2709151D2*
D13*
Y2712698D1*
X3937367Y2793667D1*
X3881075D1*
Y2693667D1*
X3877482Y1775373D2*
X3882932D1*
X3970205Y1688100D1*
Y1374386D1*
X3956837Y1361018D1*
X3881075D1*
X4174332Y1622928D2*
X4057264D1*
X4013836Y1579500D1*
Y1326722D1*
X3948133Y1261018D1*
X3881075D1*
X3856808Y3399472D2*
Y3299472D1*
D44*
X1627643Y1070218D3*
X1802496Y2382564D3*
X2179457Y2051087D3*
X2423255Y2645617D3*
X2373026Y1676528D3*
X2247797Y1801757D3*
X2373026Y1676528D3*
X2371273Y2363220D3*
X2545564Y2355018D3*
X3196541Y2336213D3*
X3277547Y2135186D3*
X4005512Y1727570D3*
X2100440Y2946433D3*
X2357665Y2676534D3*
X2423747Y1767610D3*
X2128899Y2232693D3*
X2076289Y2475757D3*
X3214134Y2492433D3*
X2455852Y3187106D3*
X2474676Y2899045D3*
X3908605Y2017671D3*
X3218088Y1716220D3*
X4067997Y1547367D3*
X3791694Y2076386D3*
X2977896Y1684374D3*
X2919522Y1584049D3*
X3973450Y3116096D3*
X3393978Y2899545D3*
X3242652D3*
X3285193Y1236189D3*
X3879282Y3021727D3*
X3724495Y3075409D3*
X2673257Y2385280D3*
X2529004Y1890339D3*
X2526000Y1756046D3*
X3465692Y2883718D3*
X3453563Y2096154D3*
X3284598Y2233472D3*
X1822462Y4273655D2*
D15*
X4147959D1*
X1819591Y4248786D2*
X4138845D1*
X1805130Y4223917D2*
X4137123D1*
X1804627Y4199049D2*
X4142362D1*
X1804555Y4174180D2*
X4156070D1*
X1804448Y4149311D2*
X4016013D1*
X4062927D2*
X4185675D1*
X4275934D2*
X4296126D1*
X1804375Y4124442D2*
X3933803D1*
X4091276D2*
X4296126D1*
X1804304Y4099573D2*
X2798499D1*
X2882480D2*
X3908936D1*
X4098381D2*
X4296161D1*
X1807319Y4074705D2*
X2035530D1*
X2127190D2*
X2598696D1*
X2688598D2*
X2758524D1*
X2922455D2*
X3884068D1*
X4093930D2*
X4296161D1*
X1820344Y4049836D2*
X2005530D1*
X2157154D2*
X2568194D1*
X2719100D2*
X2738787D1*
X2942156D2*
X3859199D1*
X3975871D2*
X4005643D1*
X4073297D2*
X4296197D1*
X1822247Y4024967D2*
X1991463D1*
X2171256D2*
X2553912D1*
X2953100D2*
X3834332D1*
X3951004D2*
X4296197D1*
X1814172Y4000098D2*
X1985794D1*
X2176925D2*
X2548100D1*
X2957730D2*
X3809465D1*
X3926136D2*
X4296197D1*
X1789377Y3975230D2*
X1985005D1*
X2175777D2*
X2549140D1*
X2956904D2*
X3784597D1*
X3901268D2*
X4296234D1*
X1750621Y3950361D2*
X1960136D1*
X2167524D2*
X2557249D1*
X2950480D2*
X3759728D1*
X3876400D2*
X4296234D1*
X1775490Y3925492D2*
X1935269D1*
X2149510D2*
X2575013D1*
X2727963D2*
X2743703D1*
X2937276D2*
X3735113D1*
X3851533D2*
X4296269D1*
X2027073Y3900623D2*
X2059142D1*
X2103579D2*
X2619437D1*
X2752831D2*
X2767387D1*
X2913592D2*
X3528993D1*
X3598010D2*
X3726213D1*
X3826665D2*
X4296269D1*
X2002205Y3875755D2*
X2661026D1*
X2777698D2*
X3479652D1*
X3647316D2*
X3726213D1*
X3810159D2*
X4296306D1*
X1703003Y3850886D2*
X1733421D1*
X1977337D2*
X2685895D1*
X2789396D2*
X3456256D1*
X3670713D2*
X3726213D1*
X3810159D2*
X4020499D1*
X4058441D2*
X4296306D1*
X1598760Y3826017D2*
X1619058D1*
X1703003D2*
X1721005D1*
X1831325D2*
X2705559D1*
X2789541D2*
X3442333D1*
X3684672D2*
X3726213D1*
X3810159D2*
X3988598D1*
X4118618D2*
X4296306D1*
X1598077Y3801148D2*
X1619058D1*
X1704904D2*
X1717954D1*
X1834411D2*
X2324648D1*
X2393810D2*
X2705559D1*
X2789541D2*
X3147294D1*
X3264755D2*
X3434654D1*
X3692350D2*
X3701273D1*
X3835098D2*
X3980633D1*
X4196379D2*
X4296341D1*
X2011535Y3776280D2*
X2150575D1*
X2288562D2*
X2304554D1*
X2413904D2*
X2693178D1*
X2801957D2*
X3112343D1*
X3299669D2*
X3432142D1*
X3865993D2*
X3984364D1*
X4196379D2*
X4296341D1*
X1723601Y3751411D2*
X1756495D1*
X2011535D2*
X2131663D1*
X2418139D2*
X2688622D1*
X2806478D2*
X3092965D1*
X3319047D2*
X3434475D1*
X3883720D2*
X4003419D1*
X4196379D2*
X4296377D1*
X1604322Y3726542D2*
X1616151D1*
X1741434D2*
X1781362D1*
X2011535D2*
X2127680D1*
X2410747D2*
X2695655D1*
X2799445D2*
X3081446D1*
X3330566D2*
X3441938D1*
X3894127D2*
X4079349D1*
X4196379D2*
X4296377D1*
X1555232Y3701673D2*
X1649631D1*
X1766303D2*
X1806230D1*
X2011535D2*
X2135000D1*
X2304135D2*
X2317256D1*
X2401202D2*
X2595395D1*
X2659209D2*
X2723644D1*
X2771454D2*
X3075705D1*
X3336307D2*
X3455610D1*
X3898971D2*
X4079349D1*
X4196379D2*
X4296377D1*
X1555268Y3676804D2*
X1674499D1*
X1791171D2*
X1827581D1*
X2011535D2*
X2151256D1*
X2400304D2*
X2574761D1*
X2679806D2*
X3074915D1*
X3337097D2*
X3478541D1*
X3898900D2*
X4095856D1*
X4179837D2*
X4296413D1*
X1555303Y3651936D2*
X1699366D1*
X2007265D2*
X2131879D1*
X2384228D2*
X2545803D1*
X2683682D2*
X3079042D1*
X3333007D2*
X3525513D1*
X3893912D2*
X4064959D1*
X4179837D2*
X4296413D1*
X1555340Y3627067D2*
X1724235D1*
X2023592D2*
X2127644D1*
X2359361D2*
X2524882D1*
X2675249D2*
X3088516D1*
X3323497D2*
X3578837D1*
X3883362D2*
X4047664D1*
X4173521D2*
X4296449D1*
X1555375Y3602198D2*
X1749102D1*
X2048461D2*
X2134714D1*
X2334457D2*
X2520899D1*
X2664125D2*
X3104950D1*
X3307062D2*
X3602699D1*
X3865420D2*
X4015117D1*
X4165807D2*
X4296449D1*
X1555411Y3577329D2*
X1861420D1*
X2073328D2*
X2151974D1*
X2287126D2*
X2529189D1*
X2678550D2*
X3133047D1*
X3278965D2*
X3627567D1*
X3834021D2*
X4007760D1*
X4142446D2*
X4296484D1*
X1555448Y3552461D2*
X1981524D1*
X2098196D2*
X2132094D1*
X2307042D2*
X2535324D1*
X2689495D2*
X3393280D1*
X3764012D2*
X3799273D1*
X3914366D2*
X4012568D1*
X4115928D2*
X4296484D1*
X1555518Y3527592D2*
X2006391D1*
X2311491D2*
X2535324D1*
X2714364D2*
X3380290D1*
X3648787D2*
X3677303D1*
X3941530D2*
X4022294D1*
X4106239D2*
X4296484D1*
X1555555Y3502723D2*
X2031260D1*
X2391369D2*
X2427887D1*
X2490014D2*
X2535324D1*
X2778559D2*
X2816728D1*
X2878175D2*
X3380110D1*
X3648787D2*
X3682507D1*
X3948707D2*
X3974962D1*
X4105486D2*
X4296521D1*
X1555591Y3477854D2*
X1852736D1*
X1986381D2*
X2056127D1*
X2512657D2*
X2521106D1*
X2619270D2*
X2647427D1*
X2901068D2*
X3392490D1*
X3648787D2*
X3682507D1*
X3944617D2*
X3964449D1*
X4090020D2*
X4296521D1*
X1555626Y3452986D2*
X1717668D1*
X2006835D2*
X2080995D1*
X2612093D2*
X2672294D1*
X2906451D2*
X3207723D1*
X3648787D2*
X3682507D1*
X3766487D2*
X3788150D1*
X3925454D2*
X3947440D1*
X4079433D2*
X4296556D1*
X1555663Y3428117D2*
X1717668D1*
X2011535D2*
X2105862D1*
X2588014D2*
X2694829D1*
X2900278D2*
X3182424D1*
X3641215D2*
X3682507D1*
X4064290D2*
X4296556D1*
X1555698Y3403248D2*
X1717668D1*
X2004969D2*
X2130731D1*
X2304996D2*
X2333261D1*
X2385197D2*
X2431619D1*
X2563147D2*
X2720164D1*
X2774971D2*
X2819707D1*
X2875196D2*
X3157556D1*
X3648680D2*
X3682507D1*
X4014375D2*
X4296556D1*
X1555735Y3378379D2*
X1717668D1*
X1834698D2*
X1859266D1*
X2020685D2*
X2159259D1*
X2279877D2*
X2335844D1*
X2384803D2*
X2422073D1*
X2538280D2*
X3132689D1*
X3249360D2*
X3398375D1*
X3644804D2*
X3682507D1*
X3993024D2*
X4296592D1*
X1555770Y3353510D2*
X1602121D1*
X1836385D2*
X1909934D1*
X2045554D2*
X2308285D1*
X2513412D2*
X3110584D1*
X3224492D2*
X3395469D1*
X3626144D2*
X3682507D1*
X3766487D2*
X3787467D1*
X3993024D2*
X4103248D1*
X4245362D2*
X4296592D1*
X1555806Y3328642D2*
X1579765D1*
X1844495D2*
X1934803D1*
X2065720D2*
X2301395D1*
X2497837D2*
X3106349D1*
X3199625D2*
X3395469D1*
X3640928D2*
X3682507D1*
X3993024D2*
X4080857D1*
X4267753D2*
X4296629D1*
X1555843Y3303773D2*
X1573377D1*
X1844495D2*
X1959671D1*
X2069416D2*
X2306025D1*
X2589558D2*
X3106349D1*
X3190331D2*
X3395469D1*
X3648643D2*
X3682507D1*
X3993024D2*
X4074505D1*
X4274105D2*
X4296629D1*
X1555878Y3278904D2*
X1577469D1*
X1844495D2*
X1972050D1*
X2069416D2*
X2327160D1*
X2393522D2*
X2413857D1*
X2589558D2*
X3106349D1*
X3190331D2*
X3395469D1*
X3645020D2*
X3682507D1*
X3993024D2*
X4078596D1*
X4270014D2*
X4296664D1*
X1555913Y3254035D2*
X1595123D1*
X1844495D2*
X1972050D1*
X2069416D2*
X2413857D1*
X2589558D2*
X3106349D1*
X3281010D2*
X3295101D1*
X3626825D2*
X3682507D1*
X3766487D2*
X3786786D1*
X3993024D2*
X4096215D1*
X4252395D2*
X4296664D1*
X1555950Y3229167D2*
X1580016D1*
X1844495D2*
X1972050D1*
X2069416D2*
X2413857D1*
X2589558D2*
X3106349D1*
X3640605D2*
X3682507D1*
X3766487D2*
X3909079D1*
X3993024D2*
X4081143D1*
X4267466D2*
X4296664D1*
X1555986Y3204298D2*
X1573413D1*
X1844495D2*
X1972050D1*
X2069416D2*
X2410160D1*
X2501534D2*
X3106852D1*
X3648608D2*
X3682507D1*
X3766487D2*
X3909079D1*
X1556021Y3179429D2*
X1577289D1*
X1844495D2*
X1972050D1*
X2069416D2*
X2407505D1*
X2504189D2*
X3121169D1*
X3645235D2*
X3682507D1*
X3766487D2*
X3909079D1*
X1556058Y3154560D2*
X1594513D1*
X1844495D2*
X1972050D1*
X2069416D2*
X2285643D1*
X3056052D2*
X3146038D1*
X3262709D2*
X3416604D1*
X3627472D2*
X3682507D1*
X3766487D2*
X3890526D1*
X4079864D2*
X4095640D1*
X1556129Y3129692D2*
X1580266D1*
X1844495D2*
X1972050D1*
X2069416D2*
X2260774D1*
X3080920D2*
X3170906D1*
X3282302D2*
X3391736D1*
X3527356D2*
X3682507D1*
X3766487D2*
X3865659D1*
X1556165Y3104823D2*
X1573449D1*
X1844495D2*
X1972050D1*
X2069416D2*
X2235907D1*
X3105787D2*
X3195773D1*
X3284634D2*
X3366869D1*
X3502487D2*
X3682507D1*
X3766487D2*
X3840791D1*
X1556201Y3079954D2*
X1577073D1*
X1844495D2*
X1970902D1*
X2170573D2*
X2211039D1*
X2327711D2*
X2340030D1*
X2380640D2*
X3013984D1*
X3130655D2*
X3200654D1*
X3284634D2*
X3342001D1*
X3477619D2*
X3675724D1*
X3773269D2*
X3815924D1*
X1556236Y3055085D2*
X1593903D1*
X1844495D2*
X1960173D1*
X2411465D2*
X3038852D1*
X3155524D2*
X3200654D1*
X3284634D2*
X3317134D1*
X3452752D2*
X3680173D1*
X3768820D2*
X3791056D1*
X3914151D2*
X4095030D1*
X1556273Y3030217D2*
X1580554D1*
X1844495D2*
X1961106D1*
X2277975D2*
X2301467D1*
X2419180D2*
X3063719D1*
X3180391D2*
X3200654D1*
X3284634D2*
X3293125D1*
X3427885D2*
X3711070D1*
X3737924D2*
X3766188D1*
X3927500D2*
X4081682D1*
X1556308Y3005348D2*
X1573484D1*
X1844495D2*
X1972050D1*
X2253108D2*
X2305379D1*
X2439669D2*
X3088587D1*
X3403016D2*
X3741320D1*
X3925311D2*
X4074576D1*
X1556344Y2980479D2*
X1576894D1*
X1844495D2*
X1972050D1*
X2228240D2*
X2324864D1*
X2461379D2*
X3113454D1*
X3381701D2*
X3716453D1*
X3903241D2*
X4078021D1*
X1556381Y2955610D2*
X1593329D1*
X1844495D2*
X1972050D1*
X2203373D2*
X2372734D1*
X2465255D2*
X3133801D1*
X3381701D2*
X3691585D1*
X3871520D2*
X4094457D1*
X1556416Y2930741D2*
X1580841D1*
X2297748D2*
X2381274D1*
X2511186D2*
X2657438D1*
X2841392D2*
X3003936D1*
X3094879D2*
X3133801D1*
X3430934D2*
X3489091D1*
X4065438D2*
X4081969D1*
X1556451Y2905873D2*
X1573521D1*
X2309912D2*
X2381274D1*
X2523172D2*
X2590371D1*
X2841392D2*
X2967047D1*
X3442525D2*
X3489091D1*
X1556488Y2881004D2*
X1576714D1*
X2069416D2*
X2128613D1*
X2309840D2*
X2381274D1*
X2520014D2*
X2540780D1*
X2841392D2*
X2957861D1*
X3439115D2*
X3489091D1*
X1556524Y2856135D2*
X1592755D1*
X2069416D2*
X2140958D1*
X2297496D2*
X2381274D1*
X2516677D2*
X2526102D1*
X2841392D2*
X2960230D1*
X3261812D2*
X3284335D1*
X3435958D2*
X3489091D1*
X3702720D2*
X3723988D1*
X4069206D2*
X4093882D1*
X1556559Y2831266D2*
X1760513D1*
X2069416D2*
X2141136D1*
X2297316D2*
X2381274D1*
X2516677D2*
X2524811D1*
X2641159D2*
X2657438D1*
X2841392D2*
X2976091D1*
X3122724D2*
X3137605D1*
X3213942D2*
X3284335D1*
X3435958D2*
X3502942D1*
X3659230D2*
X3723988D1*
X3959222D2*
X4082256D1*
X1556596Y2806398D2*
X1760513D1*
X2069416D2*
X2128685D1*
X2309769D2*
X2381274D1*
X2516677D2*
X2535684D1*
X2630286D2*
X2667378D1*
X2831417D2*
X2967370D1*
X3181682D2*
X3284335D1*
X3435958D2*
X3490490D1*
X3671646D2*
X3723988D1*
X3982976D2*
X4074685D1*
X1556631Y2781529D2*
X1760513D1*
X2069416D2*
X2128505D1*
X2516677D2*
X2657941D1*
X2840891D2*
X2957933D1*
X3207448D2*
X3284335D1*
X3671789D2*
X3723988D1*
X4007844D2*
X4077663D1*
X1556667Y2756660D2*
X1760513D1*
X2069416D2*
X2140526D1*
X2516677D2*
X2660058D1*
X2838773D2*
X2960050D1*
X3232315D2*
X3284335D1*
X3659732D2*
X3723988D1*
X4055786D2*
X4093344D1*
X1556739Y2731791D2*
X1760513D1*
X2069416D2*
X2141604D1*
X2516677D2*
X2675560D1*
X2823272D2*
X2975551D1*
X3123264D2*
X3140512D1*
X3257182D2*
X3284335D1*
X3658762D2*
X3723988D1*
X4075307D2*
X4132315D1*
X4216295D2*
X4224787D1*
X1556774Y2706923D2*
X1760513D1*
X2069416D2*
X2128793D1*
X2309661D2*
X2319322D1*
X2516677D2*
X2667738D1*
X2843115D2*
X2967730D1*
X3131085D2*
X3165379D1*
X3276703D2*
X3284356D1*
X3671538D2*
X3723988D1*
X4079756D2*
X4132315D1*
X4216295D2*
X4224787D1*
X1556811Y2682054D2*
X1760513D1*
X2069416D2*
X2128398D1*
X2516677D2*
X2658013D1*
X2867983D2*
X2958004D1*
X3140811D2*
X3190247D1*
X3671896D2*
X3723988D1*
X4073226D2*
X4132315D1*
X4216295D2*
X4224787D1*
X1556846Y2657185D2*
X1760513D1*
X2069416D2*
X2140096D1*
X2298357D2*
X2312878D1*
X2516677D2*
X2659878D1*
X2892850D2*
X2959870D1*
X3138945D2*
X3195055D1*
X3660163D2*
X3723988D1*
X3960154D2*
X3987953D1*
X4048717D2*
X4132315D1*
X4216295D2*
X4224787D1*
X1556883Y2632316D2*
X1760513D1*
X2069416D2*
X2120755D1*
X2516677D2*
X2674986D1*
X2913234D2*
X2975013D1*
X3123837D2*
X3195055D1*
X3658297D2*
X3723988D1*
X3958289D2*
X4132315D1*
X4216295D2*
X4224787D1*
X1556919Y2607448D2*
X1760513D1*
X2069416D2*
X2086521D1*
X2516677D2*
X2668096D1*
X2917109D2*
X2968123D1*
X3130692D2*
X3195055D1*
X3671394D2*
X3728366D1*
X3971386D2*
X4132315D1*
X4216295D2*
X4224787D1*
X1556954Y2582579D2*
X1760513D1*
X2373714D2*
X2432696D1*
X2516677D2*
X2658084D1*
X2917109D2*
X2958076D1*
X3140739D2*
X3195055D1*
X3672004D2*
X3750579D1*
X3993634D2*
X4132315D1*
X4216295D2*
X4224787D1*
X1556991Y2557710D2*
X1760513D1*
X2345366D2*
X2432696D1*
X2516677D2*
X2659735D1*
X2917109D2*
X2959727D1*
X3139088D2*
X3195055D1*
X3660558D2*
X3778999D1*
X4036839D2*
X4132315D1*
X4216295D2*
X4224787D1*
X1557026Y2532841D2*
X1760513D1*
X2128589D2*
X2142537D1*
X2295917D2*
X2432696D1*
X2516677D2*
X2674448D1*
X2917109D2*
X2974475D1*
X3148812D2*
X3188633D1*
X3657829D2*
X3794572D1*
X4068165D2*
X4132315D1*
X4216295D2*
X4224787D1*
X1557062Y2507972D2*
X1760513D1*
X2118290D2*
X2129043D1*
X2309409D2*
X2432696D1*
X2540612D2*
X2707425D1*
X2791407D2*
X2819778D1*
X2917109D2*
X3057009D1*
X3671251D2*
X3757971D1*
X4075988D2*
X4132315D1*
X4216295D2*
X4224787D1*
X1557098Y2483104D2*
X1760513D1*
X2407122D2*
X2430543D1*
X2548255D2*
X2707425D1*
X2791407D2*
X2819778D1*
X2917109D2*
X3079222D1*
X3263139D2*
X3284335D1*
X3672076D2*
X3733102D1*
X4072185D2*
X4132315D1*
X4216295D2*
X4224787D1*
X1557134Y2458235D2*
X1760513D1*
X2121844D2*
X2139270D1*
X2417924D2*
X2434490D1*
X2568853D2*
X2687869D1*
X2791262D2*
X2819778D1*
X2917109D2*
X3079222D1*
X3163167D2*
X3180127D1*
X3248140D2*
X3284335D1*
X3435958D2*
X3483529D1*
X3660988D2*
X3719108D1*
X3960979D2*
X3981386D1*
X4052915D2*
X4132315D1*
X4216295D2*
X4224787D1*
X1557169Y2433366D2*
X1760513D1*
X2097873D2*
X2143038D1*
X2416560D2*
X2454083D1*
X2593720D2*
X2663000D1*
X2779672D2*
X2819778D1*
X2917109D2*
X3079222D1*
X3163167D2*
X3284335D1*
X3435958D2*
X3504807D1*
X3657328D2*
X3718642D1*
X3957356D2*
X4132315D1*
X4216295D2*
X4224787D1*
X1557206Y2408497D2*
X1760513D1*
X2069416D2*
X2129188D1*
X2309266D2*
X2317694D1*
X2401776D2*
X2501916D1*
X2618588D2*
X2630490D1*
X2754804D2*
X2819778D1*
X2917109D2*
X3079222D1*
X3163167D2*
X3284335D1*
X3435958D2*
X3491028D1*
X3671143D2*
X3718642D1*
X3971135D2*
X4132315D1*
X4216295D2*
X4224787D1*
X1557241Y2383629D2*
X1753516D1*
X2069416D2*
X2128110D1*
X2310343D2*
X2327017D1*
X2790867D2*
X2819778D1*
X2917109D2*
X3006663D1*
X3163167D2*
X3284335D1*
X3435958D2*
X3489951D1*
X3672184D2*
X3718642D1*
X3972176D2*
X4132315D1*
X4216295D2*
X4224787D1*
X1557277Y2358760D2*
X1760047D1*
X2069416D2*
X2138877D1*
X2299577D2*
X2322496D1*
X2805617D2*
X2819778D1*
X2917109D2*
X2991915D1*
X3239707D2*
X3284335D1*
X3435958D2*
X3500789D1*
X3661382D2*
X3718642D1*
X3961374D2*
X4132315D1*
X4216295D2*
X4224787D1*
X2806980Y2333891D2*
X2819778D1*
X2917109D2*
X2990587D1*
X3257219D2*
X3284335D1*
X3435958D2*
X3718642D1*
X3956853D2*
X4132315D1*
X4216295D2*
X4224787D1*
X2796143Y2309022D2*
X2819778D1*
X2917109D2*
X3001388D1*
X3435958D2*
X3718642D1*
X3970991D2*
X4132315D1*
X4216295D2*
X4224787D1*
X2790079Y2284154D2*
X2819778D1*
X2917109D2*
X3007488D1*
X3163167D2*
X3190247D1*
X3435958D2*
X3718642D1*
X3972283D2*
X4132315D1*
X4216295D2*
X4224787D1*
X2805402Y2259285D2*
X2819778D1*
X2917109D2*
X2992167D1*
X3162413D2*
X3198392D1*
X3435958D2*
X3718642D1*
X3961769D2*
X4003526D1*
X4030774D2*
X4120795D1*
X4216295D2*
X4224787D1*
X1557492Y2234416D2*
X1972122D1*
X2069488D2*
X2079954D1*
X2185501D2*
X2474286D1*
X2504512D2*
X2571854D1*
X2807123D2*
X2819778D1*
X2917109D2*
X2990479D1*
X3146875D2*
X3198392D1*
X3435958D2*
X3718642D1*
X3802622D2*
X3967104D1*
X1557529Y2209547D2*
X1972159D1*
X2069524D2*
X2086091D1*
X2210370D2*
X2439155D1*
X2539643D2*
X2596722D1*
X2796753D2*
X2819778D1*
X2917109D2*
X3000814D1*
X3120535D2*
X3198392D1*
X3435958D2*
X3699479D1*
X3802514D2*
X3958455D1*
X1557564Y2184678D2*
X1972194D1*
X2069524D2*
X2118566D1*
X2235238D2*
X2430651D1*
X2548147D2*
X2621591D1*
X2757209D2*
X2819778D1*
X2917109D2*
X3142736D1*
X3435958D2*
X3674612D1*
X3791283D2*
X3961542D1*
X4279631D2*
X4297310D1*
X1557600Y2159810D2*
X1972194D1*
X2069560D2*
X2143433D1*
X2260105D2*
X2433881D1*
X2544882D2*
X2646458D1*
X2917109D2*
X2968806D1*
X3435958D2*
X3649744D1*
X3766416D2*
X3979340D1*
X4054961D2*
X4138092D1*
X4254764D2*
X4297310D1*
X1557636Y2134941D2*
X1972230D1*
X2069596D2*
X2168301D1*
X2284972D2*
X2451966D1*
X2526797D2*
X2657151D1*
X2917109D2*
X2958041D1*
X3435958D2*
X3626133D1*
X3741547D2*
X4113224D1*
X4229895D2*
X4297345D1*
X1557672Y2110072D2*
X1972266D1*
X2069596D2*
X2193169D1*
X2309877D2*
X2457205D1*
X2523064D2*
X2657151D1*
X2917109D2*
X2959117D1*
X3435958D2*
X3619852D1*
X3716680D2*
X3757146D1*
X3826235D2*
X4088356D1*
X4205028D2*
X4297345D1*
X1557707Y2085203D2*
X1972266D1*
X2069631D2*
X2145371D1*
X2334744D2*
X2436177D1*
X2544092D2*
X2657151D1*
X2917109D2*
X2972932D1*
X3208238D2*
X3284335D1*
X3435958D2*
X3619852D1*
X3703833D2*
X3743545D1*
X3841198D2*
X4063488D1*
X4180160D2*
X4297382D1*
X1557744Y2060335D2*
X1972302D1*
X2069668D2*
X2131377D1*
X2227522D2*
X2242904D1*
X2359612D2*
X2431692D1*
X2548577D2*
X2652272D1*
X2917109D2*
X2969236D1*
X3162377D2*
X3284335D1*
X3435958D2*
X3619852D1*
X3703833D2*
X3745555D1*
X3866102D2*
X3887621D1*
X3929581D2*
X4038621D1*
X4155293D2*
X4297382D1*
X1557780Y2035466D2*
X1972337D1*
X2069668D2*
X2133171D1*
X2225764D2*
X2267772D1*
X2384479D2*
X2438867D1*
X2541402D2*
X2624461D1*
X2917109D2*
X2958112D1*
X3140164D2*
X3284335D1*
X3435958D2*
X3619852D1*
X3703833D2*
X3767121D1*
X4130425D2*
X4297417D1*
X1557815Y2010597D2*
X1972337D1*
X2069703D2*
X2137476D1*
X2221458D2*
X2292640D1*
X2409348D2*
X2467934D1*
X2512335D2*
X2599593D1*
X2917109D2*
X2958974D1*
X3139340D2*
X3284335D1*
X3435958D2*
X3613752D1*
X3709934D2*
X3799130D1*
X4105556D2*
X4297417D1*
X1557852Y1985728D2*
X1972374D1*
X2069739D2*
X2137476D1*
X2221458D2*
X2317508D1*
X2434215D2*
X2574726D1*
X2917109D2*
X2972430D1*
X3125883D2*
X3284335D1*
X3435958D2*
X3603490D1*
X3720197D2*
X3823997D1*
X4080008D2*
X4297417D1*
X1557887Y1960860D2*
X1972409D1*
X2069776D2*
X2137476D1*
X2221458D2*
X2342375D1*
X2458329D2*
X2552621D1*
X2917109D2*
X2969631D1*
X3128681D2*
X3284335D1*
X3435958D2*
X3605283D1*
X3718403D2*
X3848865D1*
X3965572D2*
X4087459D1*
X4261223D2*
X4297454D1*
X1557959Y1935991D2*
X1972445D1*
X2069776D2*
X2137476D1*
X2221458D2*
X2367280D1*
X2465722D2*
X2517706D1*
X2540289D2*
X2548362D1*
X2641661D2*
X2657008D1*
X2917109D2*
X2958219D1*
X3140056D2*
X3284335D1*
X3435958D2*
X3620749D1*
X3702936D2*
X3873734D1*
X3990441D2*
X4075869D1*
X4272814D2*
X4297454D1*
X1557995Y1911122D2*
X1972445D1*
X2069811D2*
X2137476D1*
X2221458D2*
X2381776D1*
X2465722D2*
X2484907D1*
X2917109D2*
X2958829D1*
X3139448D2*
X3284335D1*
X3435958D2*
X3898636D1*
X4015308D2*
X4075617D1*
X4273064D2*
X4297490D1*
X1558031Y1886253D2*
X1972482D1*
X2069846D2*
X2137476D1*
X2221458D2*
X2381776D1*
X2465722D2*
X2480206D1*
X2917109D2*
X2971963D1*
X3126349D2*
X3284335D1*
X3435958D2*
X3923504D1*
X4040176D2*
X4086491D1*
X4262155D2*
X4297490D1*
X1558067Y1861385D2*
X1972517D1*
X2069846D2*
X2137476D1*
X2221458D2*
X2381776D1*
X2465722D2*
X2484010D1*
X2917109D2*
X2970062D1*
X3222663D2*
X3284335D1*
X3435958D2*
X3948373D1*
X4260791D2*
X4297525D1*
X1558102Y1836516D2*
X1972517D1*
X2069883D2*
X2137476D1*
X2281169D2*
X2381776D1*
X2465722D2*
X2484010D1*
X2917109D2*
X2958327D1*
X3251728D2*
X3284335D1*
X3435958D2*
X3973240D1*
X4272669D2*
X4297525D1*
X1558139Y1811647D2*
X1972552D1*
X2069919D2*
X2137476D1*
X2296240D2*
X2381776D1*
X2465722D2*
X2484010D1*
X2917109D2*
X2958722D1*
X3276596D2*
X3284341D1*
X3435958D2*
X3828483D1*
X3926495D2*
X3998108D1*
X4273172D2*
X4297525D1*
X1558175Y1786778D2*
X1972589D1*
X2069919D2*
X2140921D1*
X2321108D2*
X2378906D1*
X2468592D2*
X2484010D1*
X2917109D2*
X2971497D1*
X3435958D2*
X3817108D1*
X3937835D2*
X4026780D1*
X4262550D2*
X4297562D1*
X1558210Y1761909D2*
X1972589D1*
X2069954D2*
X2162093D1*
X2345976D2*
X2375101D1*
X2682965D2*
X2819778D1*
X2917109D2*
X3206969D1*
X3435958D2*
X3817575D1*
X3954736D2*
X3971661D1*
X4260398D2*
X4297562D1*
X1558247Y1737041D2*
X1972625D1*
X2069991D2*
X2186961D1*
X2370844D2*
X2386226D1*
X2461272D2*
X2481068D1*
X2682965D2*
X2819778D1*
X2917109D2*
X3174028D1*
X3435958D2*
X3830169D1*
X4272562D2*
X4297597D1*
X1558282Y1712172D2*
X1874194D1*
X1963270D2*
X1972651D1*
X2070026D2*
X2174222D1*
X2405364D2*
X2431619D1*
X2682965D2*
X2819778D1*
X2917109D2*
X2938125D1*
X3017656D2*
X3161252D1*
X3435958D2*
X3614936D1*
X3810948D2*
X3887799D1*
X4273244D2*
X4297597D1*
X1558318Y1687303D2*
X1861240D1*
X2070026D2*
X2161232D1*
X2682965D2*
X2819778D1*
X2917109D2*
X2929010D1*
X3026807D2*
X3159063D1*
X3435958D2*
X3603740D1*
X3822861D2*
X3912667D1*
X4031240D2*
X4085736D1*
X4262909D2*
X4297597D1*
X1558354Y1662434D2*
X1861025D1*
X2070062D2*
X2161017D1*
X2587512D2*
X2599018D1*
X2682965D2*
X2819778D1*
X2917109D2*
X2934392D1*
X3021388D2*
X3159063D1*
X3435958D2*
X3604816D1*
X3838004D2*
X3928205D1*
X4012186D2*
X4088715D1*
X4259967D2*
X4297633D1*
X1558390Y1637566D2*
X1873406D1*
X1964060D2*
X1972732D1*
X2070098D2*
X2173433D1*
X2264052D2*
X2286432D1*
X2562644D2*
X2599018D1*
X2682965D2*
X2819778D1*
X3019593D2*
X3159063D1*
X3435958D2*
X3619135D1*
X3704551D2*
X3721154D1*
X3862873D2*
X3928205D1*
X4272419D2*
X4297633D1*
X1558425Y1612697D2*
X1827257D1*
X2070098D2*
X2159114D1*
X2279375D2*
X2311299D1*
X2548650D2*
X2599018D1*
X3110776D2*
X3159063D1*
X3435958D2*
X3489091D1*
X3673045D2*
X3771068D1*
X4273352D2*
X4297669D1*
X1558462Y1587828D2*
X1827257D1*
X2070134D2*
X2133888D1*
X2304638D2*
X2336168D1*
X2452875D2*
X2599018D1*
X3135858D2*
X3147462D1*
X3435958D2*
X3489091D1*
X3673045D2*
X3795650D1*
X4263268D2*
X4297669D1*
X1558497Y1562959D2*
X1827257D1*
X2070171D2*
X2127286D1*
X2311203D2*
X2361035D1*
X2477743D2*
X2599018D1*
X3435958D2*
X3489091D1*
X3673045D2*
X3789118D1*
X4259500D2*
X4297705D1*
X1558570Y1538091D2*
X1827257D1*
X2070171D2*
X2131950D1*
X2306539D2*
X2385903D1*
X2502610D2*
X2599018D1*
X2929058D2*
X2963172D1*
X3435958D2*
X3489091D1*
X3673045D2*
X3793819D1*
X4286664D2*
X4297705D1*
X1558605Y1513222D2*
X1779747D1*
X2070171D2*
X2152297D1*
X2286193D2*
X2410770D1*
X2527478D2*
X2599018D1*
X2917109D2*
X2983626D1*
X3435958D2*
X3489091D1*
X3673045D2*
X3814238D1*
X1558640Y1488353D2*
X1751757D1*
X2070171D2*
X2134139D1*
X2304350D2*
X2435638D1*
X2552345D2*
X2599018D1*
X2917109D2*
X2965253D1*
X3189433D2*
X3243211D1*
X3435958D2*
X3495945D1*
X3666227D2*
X3928205D1*
X1558677Y1463484D2*
X1744867D1*
X2070171D2*
X2127322D1*
X2311168D2*
X2460542D1*
X2566197D2*
X2601925D1*
X2917109D2*
X2958471D1*
X3164566D2*
X3243211D1*
X3453865D2*
X3489126D1*
X3673009D2*
X3928205D1*
X1558713Y1438615D2*
X1749640D1*
X2070171D2*
X2131735D1*
X2306755D2*
X2482647D1*
X2566592D2*
X2622451D1*
X2917109D2*
X2962957D1*
X3139698D2*
X3243211D1*
X3478732D2*
X3493576D1*
X3668559D2*
X3928205D1*
X1558748Y1413747D2*
X1771243D1*
X1835416D2*
X1851551D1*
X2070171D2*
X2151543D1*
X2286946D2*
X2482647D1*
X2566592D2*
X2682881D1*
X2917109D2*
X2982873D1*
X3117953D2*
X3243211D1*
X3503600D2*
X3513507D1*
X3648643D2*
X3822957D1*
X1558785Y1388878D2*
X1834434D1*
X2070171D2*
X2134427D1*
X2304063D2*
X2482647D1*
X2566592D2*
X2639640D1*
X2917109D2*
X2965541D1*
X3135285D2*
X3243211D1*
X3381701D2*
X3411795D1*
X3665940D2*
X3796223D1*
X1558820Y1364009D2*
X1827007D1*
X2070171D2*
X2127357D1*
X2311168D2*
X2482647D1*
X2566592D2*
X2614772D1*
X2917109D2*
X2958507D1*
X3142318D2*
X3243211D1*
X3381701D2*
X3436664D1*
X3672972D2*
X3789154D1*
X4231331D2*
X4240656D1*
X1558856Y1339140D2*
X1802139D1*
X2070171D2*
X2131520D1*
X2306970D2*
X2482647D1*
X2566592D2*
X2599521D1*
X2917109D2*
X2962741D1*
X3138119D2*
X3243211D1*
X3401652D2*
X3461531D1*
X3668774D2*
X3793388D1*
X4109971D2*
X4240648D1*
X1558892Y1314272D2*
X1783659D1*
X2070171D2*
X2150825D1*
X2287664D2*
X2482647D1*
X2566592D2*
X2598840D1*
X2917109D2*
X2982155D1*
X3118706D2*
X3243211D1*
X3426521D2*
X3512774D1*
X3649398D2*
X3812765D1*
X4109971D2*
X4240648D1*
X1558928Y1289403D2*
X1781900D1*
X2070171D2*
X2134714D1*
X2303776D2*
X2482647D1*
X2566592D2*
X2598840D1*
X2917109D2*
X2965827D1*
X3665652D2*
X3796510D1*
X4109971D2*
X4240648D1*
X1558963Y1264534D2*
X1781900D1*
X2070026D2*
X2127394D1*
X2311133D2*
X2482647D1*
X2566592D2*
X2598840D1*
X2917109D2*
X2958543D1*
X3327193D2*
X3340638D1*
X3672937D2*
X3789190D1*
X4009997D2*
X4026025D1*
X4109971D2*
X4240648D1*
X1559000Y1239665D2*
X1781900D1*
X2060409D2*
X2131304D1*
X2307185D2*
X2482647D1*
X2566592D2*
X2598840D1*
X2918651D2*
X2962526D1*
X3334047D2*
X3365505D1*
X3668990D2*
X3793173D1*
X3985130D2*
X4026025D1*
X4109971D2*
X4240648D1*
X1559035Y1214797D2*
X1781900D1*
X2018713D2*
X2150144D1*
X2288382D2*
X2482647D1*
X2573732D2*
X2598840D1*
X3650079D2*
X3812049D1*
X3950071D2*
X4026025D1*
X4109971D2*
X4240648D1*
X1559071Y1189928D2*
X1781900D1*
X1866276D2*
X2485877D1*
X2700260D2*
X2832804D1*
X3517344D2*
X4026025D1*
X4109971D2*
X4240648D1*
X1559108Y1165059D2*
X1782906D1*
X2121197D2*
X2506797D1*
X2725129D2*
X2857672D1*
X3492475D2*
X4026025D1*
X4109971D2*
X4240648D1*
X1559180Y1140190D2*
X1799304D1*
X2146066D2*
X2531664D1*
X2749996D2*
X2882539D1*
X3467608D2*
X4007797D1*
X4109934D2*
X4240648D1*
X1559215Y1115322D2*
X1685551D1*
X1728409D2*
X1744832D1*
X2170035D2*
X2556531D1*
X4099564D2*
X4240648D1*
X1559251Y1090453D2*
X1655875D1*
X2177140D2*
X2581400D1*
X4074732D2*
X4240648D1*
X1559287Y1065584D2*
X1648555D1*
X2177140D2*
X2606268D1*
X4049865D2*
X4240648D1*
X1559323Y1040715D2*
X1652933D1*
X2177140D2*
X2631135D1*
X2747807D2*
X4222635D1*
X1559358Y1015846D2*
X1663877D1*
X1861862D2*
X2008975D1*
X2177140D2*
X2656003D1*
X2772675D2*
X4202073D1*
X1559395Y990978D2*
X1650277D1*
X1761458D2*
X2093160D1*
X2177140D2*
X2680871D1*
X2797542D2*
X4197623D1*
X1559430Y966109D2*
X1647155D1*
X1764580D2*
X2093160D1*
X2177140D2*
X2705739D1*
X2822411D2*
X4204801D1*
X1559466Y941240D2*
X1655768D1*
X1755969D2*
X2093160D1*
X2177140D2*
X2730606D1*
X2847278D2*
X4233293D1*
X4279846D2*
X4298063D1*
X1559503Y916371D2*
X1691831D1*
X1719941D2*
X2093160D1*
X2177140D2*
X2755474D1*
X2872146D2*
X4298063D1*
X1559538Y891503D2*
X2080780D1*
X2177140D2*
X2780341D1*
X2897013D2*
X4298100D1*
X1559573Y866634D2*
X2055912D1*
X2171148D2*
X2805210D1*
X2921881D2*
X4298100D1*
X1559610Y841765D2*
X2031045D1*
X2147715D2*
X2830077D1*
X2946749D2*
X4298135D1*
X1559646Y816896D2*
X1882555D1*
X1952112D2*
X2006176D1*
X2122848D2*
X2854945D1*
X2971617D2*
X4298135D1*
X1559681Y792028D2*
X1861205D1*
X2097980D2*
X2879812D1*
X2996484D2*
X4298171D1*
X1559718Y767159D2*
X1855857D1*
X2073113D2*
X2904681D1*
X3021352D2*
X4298171D1*
X1559789Y742290D2*
X1833753D1*
X2048244D2*
X2929549D1*
X3046220D2*
X4298171D1*
X1559825Y717421D2*
X1670228D1*
X1741507D2*
X1770202D1*
X1950927D2*
X2954416D1*
X3071088D2*
X4298207D1*
X1559861Y692552D2*
X1650887D1*
X1900689D2*
X2979283D1*
X3095955D2*
X4298207D1*
X1559896Y667684D2*
X1647012D1*
X1875822D2*
X3004151D1*
X3124950D2*
X4298243D1*
X1559933Y642815D2*
X1654798D1*
X1857089D2*
X2925924D1*
X2975887D2*
X3025933D1*
X3175869D2*
X4298243D1*
X1559969Y617946D2*
X1685909D1*
X1725825D2*
X1786959D1*
X1825367D2*
X2895888D1*
X3205904D2*
X4298278D1*
X1560004Y593077D2*
X2886990D1*
X3214803D2*
X4298278D1*
X1560041Y568209D2*
X2886487D1*
X3215343D2*
X4174694D1*
X4285480D2*
X4298278D1*
X1560076Y543340D2*
X2886487D1*
X3215343D2*
X4150866D1*
X1560112Y518471D2*
X2886487D1*
X3215343D2*
X4139635D1*
X1560148Y493602D2*
X2890004D1*
X3211790D2*
X4136190D1*
X1560184Y468734D2*
X2906403D1*
X2995408D2*
X3006412D1*
X3095381D2*
X3106421D1*
X3195390D2*
X4139671D1*
X1560219Y443865D2*
X4151010D1*
X1615675Y3846016D2*
Y3840249D1*
X1610113D1*
X1595577Y3825319D1*
X1595573Y3800138D1*
X1601793Y3792909D1*
X1606424Y3785352D1*
X1609816Y3777161D1*
X1610696Y3774043D1*
X1612879Y3780370D1*
X1616903Y3788269D1*
X1621546Y3794719D1*
X1621549Y3852034D1*
X1615689Y3846004D1*
X1711068Y3875741D2*
X1708316Y3869224D1*
X1703965Y3862125D1*
X1700512Y3857908D1*
X1700517Y3802709D1*
X1705017Y3798698D1*
X1710774Y3791957D1*
X1715406Y3784399D1*
X1718798Y3776209D1*
X1720867Y3767589D1*
X1721563Y3758752D1*
X1720867Y3749915D1*
X1719988Y3745514D1*
X1795933Y3669554D1*
X1845584Y3669538D1*
X1848151Y3672060D1*
X1830083Y3672066D1*
X1829999Y3691055D1*
X1823975Y3692503D1*
X1818251Y3694873D1*
X1812967Y3698110D1*
X1808248Y3702143D1*
X1755605Y3754785D1*
X1750743Y3756976D1*
X1743247Y3761568D1*
X1736563Y3767278D1*
X1730853Y3773962D1*
X1726261Y3781458D1*
X1722896Y3789579D1*
X1720845Y3798126D1*
X1720155Y3806890D1*
X1720845Y3815654D1*
X1722896Y3824201D1*
X1726261Y3832322D1*
X1730853Y3839818D1*
X1736563Y3846501D1*
X1738518Y3848310D1*
X1711085Y3875734D1*
X3236341Y2113633D2*
X3233814Y2109017D1*
X3228374Y2101531D1*
X3221831Y2094988D1*
X3214345Y2089549D1*
X3206100Y2085348D1*
X3197298Y2082488D1*
X3188159Y2081041D1*
X3180513Y2080976D1*
X3137232Y2037693D1*
X3138454Y2029490D1*
Y2020390D1*
X3137030Y2011403D1*
X3134218Y2002748D1*
X3130088Y1994640D1*
X3124739Y1987280D1*
X3118304Y1980845D1*
X3110944Y1975496D1*
X3109996Y1974966D1*
X3114728Y1971853D1*
X3121648Y1965944D1*
X3127558Y1959024D1*
X3132312Y1951265D1*
X3135794Y1942860D1*
X3137919Y1934010D1*
X3138633Y1924940D1*
X3137919Y1915869D1*
X3135794Y1907020D1*
X3132312Y1898614D1*
X3127558Y1890856D1*
X3121648Y1883936D1*
X3114728Y1878026D1*
X3109996Y1874966D1*
X3114728Y1871853D1*
X3121648Y1865944D1*
X3123060Y1864416D1*
X3208059Y1864302D1*
X3214178Y1863333D1*
X3220072Y1861419D1*
X3225592Y1858605D1*
X3230605Y1854963D1*
X3258865Y1826877D1*
X3286852Y1798888D1*
X3286832Y2089629D1*
X3281196Y2088837D1*
X3273899D1*
X3266694Y2089979D1*
X3259756Y2092234D1*
X3253255Y2095546D1*
X3247353Y2099833D1*
X3242194Y2104992D1*
X3237907Y2110894D1*
X3236366Y2113644D1*
X3127715Y2158783D2*
X3130987Y2166604D1*
X3135822Y2174493D1*
X3141832Y2181530D1*
X3148869Y2187541D1*
X3156759Y2192375D1*
X3165308Y2195917D1*
X3174306Y2198077D1*
X3183531Y2198803D1*
X3192757Y2198077D1*
X3200902Y2196157D1*
X3200896Y2276022D1*
X3185688Y2291005D1*
X3178749Y2293260D1*
X3172248Y2296572D1*
X3166346Y2300860D1*
X3161188Y2306018D1*
X3160667Y2306678D1*
X3160552Y2263980D1*
X3159584Y2257861D1*
X3157669Y2251969D1*
X3154856Y2246449D1*
X3151214Y2241436D1*
X3125119Y2215168D1*
X3120408Y2211144D1*
X3115125Y2207907D1*
X3109400Y2205537D1*
X3103377Y2204089D1*
X3088734Y2203142D1*
X3081992Y2197385D1*
X3074434Y2192753D1*
X3066244Y2189361D1*
X3057625Y2187291D1*
X3048787Y2186596D1*
X3039950Y2187291D1*
X3031331Y2189361D1*
X3023140Y2192753D1*
X3015583Y2197385D1*
X3008841Y2203142D1*
X3003084Y2209883D1*
X2998453Y2217441D1*
X2995060Y2225631D1*
X2992991Y2234251D1*
X2992295Y2243088D1*
X2992991Y2251925D1*
X2995060Y2260545D1*
X2998453Y2268735D1*
X3003084Y2276293D1*
X3008841Y2283034D1*
X3015583Y2288791D1*
X3022732Y2293194D1*
X3015566Y2297633D1*
X3008824Y2303390D1*
X3003067Y2310131D1*
X2998436Y2317689D1*
X2995043Y2325879D1*
X2992974Y2334499D1*
X2992278Y2343336D1*
X2992974Y2352173D1*
X2995043Y2360793D1*
X2998436Y2368983D1*
X3003067Y2376541D1*
X3008824Y2383282D1*
X3015566Y2389039D1*
X3023123Y2393671D1*
X3031314Y2397063D1*
X3039933Y2399133D1*
X3048770Y2399828D1*
X3057608Y2399133D1*
X3066227Y2397063D1*
X3074417Y2393671D1*
X3081702Y2389222D1*
X3081706Y2485793D1*
X3051581Y2515888D1*
X3017912Y2515912D1*
X3008841Y2516626D1*
X2999992Y2518751D1*
X2991587Y2522232D1*
X2983828Y2526987D1*
X2976908Y2532896D1*
X2970999Y2539816D1*
X2966244Y2547575D1*
X2962762Y2555980D1*
X2960638Y2564829D1*
X2959924Y2573900D1*
X2960638Y2582971D1*
X2962762Y2591820D1*
X2966244Y2600226D1*
X2970999Y2607984D1*
X2976908Y2614904D1*
X2983828Y2620814D1*
X2988560Y2623874D1*
X2983828Y2626987D1*
X2976908Y2632896D1*
X2970999Y2639816D1*
X2966244Y2647575D1*
X2962762Y2655980D1*
X2960638Y2664829D1*
X2959924Y2673900D1*
X2960638Y2682971D1*
X2962762Y2691820D1*
X2966244Y2700226D1*
X2970999Y2707984D1*
X2976908Y2714904D1*
X2983828Y2720814D1*
X2988560Y2723874D1*
X2983828Y2726987D1*
X2976908Y2732896D1*
X2970999Y2739816D1*
X2966244Y2747575D1*
X2962762Y2755980D1*
X2960638Y2764829D1*
X2959924Y2773900D1*
X2960638Y2782971D1*
X2962762Y2791820D1*
X2966244Y2800226D1*
X2970999Y2807984D1*
X2976908Y2814904D1*
X2983828Y2820814D1*
X2988560Y2823874D1*
X2983828Y2826987D1*
X2976908Y2832896D1*
X2970999Y2839816D1*
X2966244Y2847575D1*
X2962762Y2855980D1*
X2960638Y2864829D1*
X2959924Y2873900D1*
X2960638Y2882971D1*
X2962762Y2891820D1*
X2966244Y2900226D1*
X2970999Y2907984D1*
X2976908Y2914904D1*
X2983828Y2920814D1*
X2991587Y2925568D1*
X2999992Y2929050D1*
X3008841Y2931175D1*
X3017930Y2931887D1*
X3085454Y2931710D1*
X3094441Y2930286D1*
X3103096Y2927474D1*
X3111203Y2923344D1*
X3118564Y2917995D1*
X3123320Y2913377D1*
X3134274Y2913385D1*
X3136301Y2915446D1*
X3136291Y2960147D1*
X3008579Y3087856D1*
X2333075Y3087831D1*
X2196916Y2951585D1*
X2255272Y2951407D1*
X2264259Y2949983D1*
X2272913Y2947171D1*
X2281021Y2943041D1*
X2288382Y2937692D1*
X2294816Y2931257D1*
X2300165Y2923896D1*
X2304295Y2915789D1*
X2307108Y2907134D1*
X2308531Y2898147D1*
Y2889047D1*
X2307108Y2880060D1*
X2304295Y2871406D1*
X2300165Y2863298D1*
X2294816Y2855937D1*
X2288382Y2849503D1*
X2281021Y2844154D1*
X2280073Y2843623D1*
X2284806Y2840510D1*
X2291726Y2834601D1*
X2297635Y2827681D1*
X2302390Y2819923D1*
X2305871Y2811517D1*
X2307996Y2802668D1*
X2308710Y2793597D1*
X2307996Y2784526D1*
X2305871Y2775677D1*
X2302390Y2767272D1*
X2297635Y2759513D1*
X2291726Y2752593D1*
X2284806Y2746684D1*
X2280073Y2743623D1*
X2284806Y2740510D1*
X2291726Y2734601D1*
X2297635Y2727681D1*
X2302390Y2719923D1*
X2305871Y2711517D1*
X2307996Y2702668D1*
X2308710Y2693597D1*
X2307996Y2684526D1*
X2305871Y2675677D1*
X2302390Y2667272D1*
X2297635Y2659513D1*
X2291726Y2652593D1*
X2284806Y2646684D1*
X2280073Y2643623D1*
X2284806Y2640510D1*
X2291726Y2634601D1*
X2293138Y2633073D1*
X2310049Y2633081D1*
X2318178Y2641232D1*
X2318025Y2652241D1*
X2314713Y2658743D1*
X2312458Y2665681D1*
X2311316Y2672886D1*
Y2680182D1*
X2312458Y2687387D1*
X2314713Y2694325D1*
X2318025Y2700827D1*
X2322198Y2706583D1*
X2316762Y2712142D1*
X2311551Y2719314D1*
X2307528Y2727213D1*
X2304787Y2735643D1*
X2303402Y2744399D1*
Y2753262D1*
X2304787Y2762018D1*
X2307528Y2770449D1*
X2311551Y2778348D1*
X2316762Y2785520D1*
X2323030Y2791787D1*
X2330202Y2796999D1*
X2338101Y2801022D1*
X2346531Y2803762D1*
X2355287Y2805148D1*
X2364151D1*
X2372907Y2803762D1*
X2381337Y2801022D1*
X2383777Y2799898D1*
X2383770Y2947080D1*
X2360953Y2969879D1*
X2355898Y2970025D1*
X2347142Y2971411D1*
X2338711Y2974151D1*
X2330812Y2978175D1*
X2323640Y2983386D1*
X2317373Y2989654D1*
X2312161Y2996825D1*
X2308138Y3004724D1*
X2305398Y3013155D1*
X2304012Y3021911D1*
Y3030774D1*
X2305398Y3039530D1*
X2308138Y3047961D1*
X2312161Y3055860D1*
X2317373Y3063031D1*
X2323640Y3069299D1*
X2330812Y3074510D1*
X2338711Y3078534D1*
X2347142Y3081274D1*
X2355898Y3082660D1*
X2364761D1*
X2373517Y3081274D1*
X2381948Y3078534D1*
X2389846Y3074510D1*
X2397018Y3069299D1*
X2403286Y3063031D1*
X2408497Y3055860D1*
X2412521Y3047961D1*
X2415261Y3039530D1*
X2416647Y3030774D1*
X2416797Y3025702D1*
X2453278Y2989060D1*
X2456920Y2984047D1*
X2459734Y2978528D1*
X2461648Y2972635D1*
X2462617Y2966516D1*
X2462739Y2944004D1*
X2471028Y2945394D1*
X2478324D1*
X2485529Y2944252D1*
X2492467Y2941997D1*
X2498969Y2938685D1*
X2504870Y2934398D1*
X2510029Y2929239D1*
X2514316Y2923337D1*
X2517629Y2916836D1*
X2519883Y2909898D1*
X2521025Y2902693D1*
Y2895396D1*
X2519883Y2888192D1*
X2517629Y2881253D1*
X2514167Y2874528D1*
X2514160Y2530119D1*
X2518909Y2527520D1*
X2526081Y2522308D1*
X2532349Y2516041D1*
X2537560Y2508869D1*
X2541584Y2500970D1*
X2544324Y2492539D1*
X2545710Y2483783D1*
X2545860Y2478711D1*
X2628121Y2396463D1*
X2630304Y2403071D1*
X2633617Y2409572D1*
X2637904Y2415474D1*
X2643063Y2420633D1*
X2648965Y2424920D1*
X2655466Y2428232D1*
X2662669Y2430539D1*
X2709915Y2477776D1*
X2709924Y2516441D1*
X2704375Y2517514D1*
X2695720Y2520327D1*
X2687613Y2524457D1*
X2680252Y2529806D1*
X2673818Y2536240D1*
X2668469Y2543601D1*
X2664339Y2551709D1*
X2661526Y2560364D1*
X2660102Y2569350D1*
Y2578450D1*
X2661526Y2587437D1*
X2664339Y2596092D1*
X2668469Y2604199D1*
X2673818Y2611560D1*
X2680252Y2617995D1*
X2687613Y2623344D1*
X2688560Y2623874D1*
X2683828Y2626987D1*
X2676908Y2632896D1*
X2670999Y2639816D1*
X2666244Y2647575D1*
X2662762Y2655980D1*
X2660638Y2664829D1*
X2659924Y2673900D1*
X2660638Y2682971D1*
X2662762Y2691820D1*
X2666244Y2700226D1*
X2670999Y2707984D1*
X2676908Y2714904D1*
X2683828Y2720814D1*
X2688560Y2723874D1*
X2683828Y2726987D1*
X2676908Y2732896D1*
X2670999Y2739816D1*
X2666244Y2747575D1*
X2662762Y2755980D1*
X2660638Y2764829D1*
X2659924Y2773900D1*
X2660638Y2782971D1*
X2662762Y2791820D1*
X2666244Y2800226D1*
X2670999Y2807984D1*
X2676908Y2814904D1*
X2677992Y2815907D1*
X2659924Y2815912D1*
Y2834392D1*
X2639136Y2834416D1*
X2637916Y2827642D1*
X2635176Y2819211D1*
X2631152Y2811312D1*
X2625941Y2804140D1*
X2619673Y2797873D1*
X2612501Y2792661D1*
X2604602Y2788638D1*
X2596172Y2785898D1*
X2587416Y2784512D1*
X2578552D1*
X2569797Y2785898D1*
X2561366Y2788638D1*
X2553467Y2792661D1*
X2546295Y2797873D1*
X2540028Y2804140D1*
X2534816Y2811312D1*
X2530793Y2819211D1*
X2528052Y2827642D1*
X2526667Y2836398D1*
Y2845261D1*
X2528052Y2854017D1*
X2530793Y2862448D1*
X2534816Y2870346D1*
X2540028Y2877518D1*
X2546295Y2883786D1*
X2553467Y2888997D1*
X2561366Y2893021D1*
X2569797Y2895761D1*
X2578552Y2897147D1*
X2583625Y2897297D1*
X2590412Y2903924D1*
X2595425Y2907566D1*
X2600945Y2910379D1*
X2606837Y2912294D1*
X2612957Y2913262D1*
X2659941Y2913385D1*
X2659924Y2931888D1*
X2838892D1*
Y2815912D1*
X2820843D1*
X2824999Y2811560D1*
X2830348Y2804199D1*
X2834478Y2796092D1*
X2837290Y2787437D1*
X2838714Y2778450D1*
Y2769350D1*
X2837290Y2760364D1*
X2834478Y2751709D1*
X2830348Y2743601D1*
X2824999Y2736240D1*
X2818564Y2729806D1*
X2811203Y2724457D1*
X2810256Y2723927D1*
X2816958Y2719261D1*
X2822614Y2717818D1*
X2829310Y2715045D1*
X2835487Y2711259D1*
X2840997Y2706552D1*
X2903562Y2643786D1*
X2907822Y2637924D1*
X2911112Y2631469D1*
X2913350Y2624576D1*
X2914484Y2617420D1*
X2914626Y2586238D1*
Y1635013D1*
X2938417Y1658783D1*
X2938256Y1660081D1*
X2934944Y1666583D1*
X2932689Y1673521D1*
X2931547Y1680726D1*
Y1688022D1*
X2932689Y1695227D1*
X2934944Y1702165D1*
X2938256Y1708667D1*
X2942543Y1714568D1*
X2947702Y1719727D1*
X2953604Y1724014D1*
X2960105Y1727327D1*
X2967043Y1729581D1*
X2974248Y1730723D1*
X2981545D1*
X2988749Y1729581D1*
X2995688Y1727327D1*
X3002189Y1724014D1*
X3008091Y1719727D1*
X3013249Y1714568D1*
X3017537Y1708667D1*
X3020849Y1702165D1*
X3023104Y1695227D1*
X3024245Y1688022D1*
Y1680726D1*
X3023104Y1673521D1*
X3020849Y1666583D1*
X3017387Y1659857D1*
X3017259Y1639324D1*
X3016290Y1633205D1*
X3014375Y1627312D1*
X3011562Y1621793D1*
X3009832Y1619205D1*
X3009853Y1618319D1*
X3018942Y1619031D1*
X3086466Y1618854D1*
X3095453Y1617430D1*
X3104108Y1614618D1*
X3112215Y1610488D1*
X3119576Y1605139D1*
X3126010Y1598705D1*
X3131360Y1591344D1*
X3135490Y1583236D1*
X3138302Y1574581D1*
X3139726Y1565594D1*
Y1556495D1*
X3139230Y1552308D1*
X3142126Y1555215D1*
X3142240Y1562908D1*
X3143688Y1572047D1*
X3146547Y1580849D1*
X3150748Y1589094D1*
X3156188Y1596580D1*
X3161549Y1602031D1*
X3161668Y1702261D1*
X3162636Y1708381D1*
X3164551Y1714273D1*
X3167365Y1719794D1*
X3171014Y1724815D1*
X3172881Y1727073D1*
X3175135Y1734012D1*
X3178448Y1740513D1*
X3182735Y1746415D1*
X3187894Y1751573D1*
X3193795Y1755861D1*
X3200297Y1759173D1*
X3207235Y1761428D1*
X3211793Y1762256D1*
X3188585Y1785476D1*
X3123110Y1785455D1*
X3118304Y1780845D1*
X3110944Y1775496D1*
X3102836Y1771366D1*
X3094181Y1768554D1*
X3085194Y1767130D1*
X3062272Y1766951D1*
X3017652D1*
X3008581Y1767665D1*
X2999732Y1769790D1*
X2991327Y1773272D1*
X2983568Y1778026D1*
X2976648Y1783936D1*
X2970739Y1790856D1*
X2965984Y1798614D1*
X2962503Y1807020D1*
X2960378Y1815869D1*
X2959664Y1824940D1*
X2960378Y1834010D1*
X2962503Y1842860D1*
X2965984Y1851265D1*
X2970739Y1859024D1*
X2976648Y1865944D1*
X2983568Y1871853D1*
X2988301Y1874913D1*
X2983568Y1878026D1*
X2976648Y1883936D1*
X2970739Y1890856D1*
X2965984Y1898614D1*
X2962503Y1907020D1*
X2960378Y1915869D1*
X2959664Y1924940D1*
X2960378Y1934010D1*
X2962503Y1942860D1*
X2965984Y1951265D1*
X2970739Y1959024D1*
X2976648Y1965944D1*
X2983568Y1971853D1*
X2988301Y1974913D1*
X2983568Y1978026D1*
X2976648Y1983936D1*
X2970739Y1990856D1*
X2965984Y1998614D1*
X2962503Y2007020D1*
X2960378Y2015869D1*
X2959664Y2024940D1*
X2960378Y2034010D1*
X2962503Y2042860D1*
X2965984Y2051265D1*
X2970739Y2059024D1*
X2976648Y2065944D1*
X2983568Y2071853D1*
X2988301Y2074913D1*
X2983568Y2078026D1*
X2976648Y2083936D1*
X2970739Y2090856D1*
X2965984Y2098614D1*
X2962503Y2107020D1*
X2960378Y2115869D1*
X2959664Y2124940D1*
X2960378Y2134010D1*
X2962503Y2142860D1*
X2965984Y2151265D1*
X2970739Y2159024D1*
X2976648Y2165944D1*
X2983568Y2171853D1*
X2991327Y2176608D1*
X2999732Y2180089D1*
X3008581Y2182214D1*
X3017671Y2182927D1*
X3085194Y2182749D1*
X3094181Y2181325D1*
X3102836Y2178513D1*
X3110944Y2174383D1*
X3118304Y2169034D1*
X3124739Y2162600D1*
X3127706Y2158802D1*
X3245714Y1519808D2*
X3239329Y1513438D1*
X3231844Y1507999D1*
X3223598Y1503798D1*
X3214797Y1500938D1*
X3205657Y1499491D1*
X3198012Y1499427D1*
X3133584Y1434719D1*
X3128829Y1426961D1*
X3122920Y1420041D1*
X3116000Y1414131D1*
X3111268Y1411071D1*
X3116000Y1407958D1*
X3122920Y1402049D1*
X3128829Y1395129D1*
X3133584Y1387370D1*
X3137066Y1378965D1*
X3139190Y1370115D1*
X3139904Y1361045D1*
X3139190Y1351974D1*
X3137066Y1343125D1*
X3133584Y1334719D1*
X3128829Y1326961D1*
X3122920Y1320041D1*
X3116000Y1314131D1*
X3111268Y1311071D1*
X3116000Y1307958D1*
X3122920Y1302049D1*
X3123487Y1301434D1*
X3163390Y1301438D1*
X3169247Y1305543D1*
X3177491Y1309744D1*
X3186293Y1312604D1*
X3195432Y1314051D1*
X3204686D1*
X3213825Y1312604D1*
X3222627Y1309744D1*
X3230873Y1305543D1*
X3238358Y1300104D1*
X3244902Y1293560D1*
X3245697Y1292552D1*
X3245709Y1519782D1*
X3240512Y1602031D2*
X3245714Y1596753D1*
X3245709Y1678820D1*
X3240526Y1675541D1*
X3240514Y1602096D1*
X2495318Y3314361D2*
X2587062D1*
Y3208227D1*
X2497277Y3208214D1*
X2500068Y3201474D1*
X2501772Y3194379D1*
X2502344Y3187106D1*
X2501772Y3179833D1*
X2500068Y3172739D1*
X2497640Y3166789D1*
X3028056Y3166677D1*
X3034176Y3165709D1*
X3040068Y3163794D1*
X3045588Y3160980D1*
X3050601Y3157339D1*
X3078861Y3129252D1*
X3203169Y3004942D1*
X3203168Y3099958D1*
X3118306Y3184961D1*
X3114664Y3189974D1*
X3111850Y3195493D1*
X3109936Y3201386D1*
X3108967Y3207505D1*
X3108845Y3247349D1*
X3108967Y3338782D1*
X3109936Y3344902D1*
X3111850Y3350794D1*
X3114664Y3356314D1*
X3118306Y3361327D1*
X3146392Y3389587D1*
X3208807Y3451828D1*
X3213820Y3455470D1*
X3219340Y3458283D1*
X3225232Y3460198D1*
X3231352Y3461167D1*
X3271196Y3461289D1*
X3398406D1*
X3401959Y3464873D1*
X3401957Y3471014D1*
X3394848Y3478020D1*
X3389636Y3485192D1*
X3385613Y3493091D1*
X3382873Y3501521D1*
X3381487Y3510277D1*
Y3519140D1*
X3382873Y3527896D1*
X3385613Y3536327D1*
X3389636Y3544226D1*
X3394848Y3551398D1*
X3401115Y3557665D1*
X3408287Y3562877D1*
X3416186Y3566900D1*
X3424617Y3569640D1*
X3433373Y3571026D1*
X3442236D1*
X3450992Y3569640D1*
X3459423Y3566900D1*
X3467322Y3562877D1*
X3474710Y3557466D1*
X3646293Y3557461D1*
Y3441484D1*
X3628243D1*
X3632399Y3437133D1*
X3637748Y3429772D1*
X3641878Y3421664D1*
X3644690Y3413009D1*
X3646114Y3404022D1*
Y3394923D1*
X3644690Y3385936D1*
X3641878Y3377281D1*
X3637748Y3369173D1*
X3632399Y3361812D1*
X3625965Y3355378D1*
X3618604Y3350029D1*
X3617656Y3349499D1*
X3622388Y3346386D1*
X3629308Y3340476D1*
X3635218Y3333556D1*
X3639972Y3325798D1*
X3643454Y3317392D1*
X3645579Y3308543D1*
X3646293Y3299472D1*
X3645579Y3290402D1*
X3643454Y3281552D1*
X3639972Y3273147D1*
X3635218Y3265388D1*
X3629308Y3258469D1*
X3622388Y3252559D1*
X3617656Y3249499D1*
X3622388Y3246386D1*
X3629308Y3240476D1*
X3635218Y3233556D1*
X3639972Y3225798D1*
X3643454Y3217392D1*
X3645579Y3208543D1*
X3646293Y3199472D1*
X3645579Y3190402D1*
X3643454Y3181552D1*
X3639972Y3173147D1*
X3635218Y3165388D1*
X3629308Y3158469D1*
X3622388Y3152559D1*
X3614630Y3147804D1*
X3606224Y3144323D1*
X3597375Y3142198D1*
X3588304Y3141484D1*
X3536667D1*
X3379168Y2984001D1*
X3379186Y2943615D1*
X3386705Y2945465D1*
X3393978Y2946037D1*
X3401251Y2945465D1*
X3408345Y2943761D1*
X3415085Y2940970D1*
X3421304Y2937157D1*
X3426853Y2932420D1*
X3431591Y2926871D1*
X3435403Y2920652D1*
X3438194Y2913912D1*
X3439898Y2906818D1*
X3440470Y2899545D1*
X3439898Y2892272D1*
X3438194Y2885177D1*
X3435403Y2878437D1*
X3433469Y2875028D1*
X3433462Y2785253D1*
X3441694Y2787865D1*
X3450833Y2789312D1*
X3460088D1*
X3469227Y2787865D1*
X3478029Y2785005D1*
X3486274Y2780804D1*
X3493760Y2775365D1*
X3494916Y2774297D1*
X3493193Y2780130D1*
X3491769Y2789117D1*
Y2798217D1*
X3493193Y2807203D1*
X3496005Y2815858D1*
X3500135Y2823966D1*
X3505484Y2831327D1*
X3509659Y2835673D1*
X3491591Y2835678D1*
Y2951655D1*
X3670559D1*
Y2933175D1*
X3673035Y2934577D1*
X3911576Y3173118D1*
X3911567Y3246357D1*
X3906224Y3244323D1*
X3897375Y3242198D1*
X3888304Y3241484D1*
X3825312D1*
X3816241Y3242198D1*
X3807392Y3244323D1*
X3798987Y3247804D1*
X3791228Y3252559D1*
X3784308Y3258469D1*
X3778399Y3265388D1*
X3773644Y3273147D1*
X3770163Y3281552D1*
X3768038Y3290402D1*
X3767324Y3299472D1*
X3768038Y3308543D1*
X3770163Y3317392D1*
X3773644Y3325798D1*
X3778399Y3333556D1*
X3784308Y3340476D1*
X3791228Y3346386D1*
X3795961Y3349446D1*
X3791228Y3352559D1*
X3784308Y3358469D1*
X3778399Y3365388D1*
X3773644Y3373147D1*
X3770163Y3381552D1*
X3768038Y3390402D1*
X3767324Y3399472D1*
X3768038Y3408543D1*
X3770163Y3417392D1*
X3773644Y3425798D1*
X3778399Y3433556D1*
X3784308Y3440476D1*
X3791228Y3446386D1*
X3795961Y3449446D1*
X3791228Y3452559D1*
X3784308Y3458469D1*
X3778399Y3465388D1*
X3773644Y3473147D1*
X3770163Y3481552D1*
X3768038Y3490402D1*
X3767324Y3499472D1*
X3768038Y3508543D1*
X3770163Y3517392D1*
X3773644Y3525798D1*
X3778399Y3533556D1*
X3784308Y3540476D1*
X3791228Y3546386D1*
X3798987Y3551140D1*
X3807392Y3554622D1*
X3816241Y3556747D1*
X3825331Y3557459D1*
X3892854Y3557282D1*
X3901841Y3555858D1*
X3910496Y3553046D1*
X3918604Y3548916D1*
X3925965Y3543567D1*
X3932399Y3537133D1*
X3937748Y3529772D1*
X3941878Y3521664D1*
X3944690Y3513009D1*
X3946114Y3504022D1*
Y3494923D1*
X3944690Y3485936D1*
X3941878Y3477281D1*
X3937748Y3469173D1*
X3932399Y3461812D1*
X3925965Y3455378D1*
X3918604Y3450029D1*
X3917656Y3449499D1*
X3922388Y3446386D1*
X3929308Y3440476D1*
X3933136Y3436197D1*
X3966241Y3469295D1*
X3966953Y3477776D1*
X3969022Y3486395D1*
X3972415Y3494585D1*
X3977046Y3502143D1*
X3982803Y3508885D1*
X3989545Y3514642D1*
X3997102Y3519273D1*
X4005293Y3522665D1*
X4013912Y3524735D1*
X4022749Y3525430D1*
X4023390Y3525406D1*
X4024778Y3528824D1*
Y3537975D1*
X4020534Y3543113D1*
X4016102Y3550344D1*
X4012857Y3558181D1*
X4010877Y3566428D1*
X4010211Y3574883D1*
X4010877Y3583339D1*
X4012857Y3591585D1*
X4016102Y3599423D1*
X4020534Y3606654D1*
X4026042Y3613104D1*
X4032492Y3618612D1*
X4039723Y3623043D1*
X4047560Y3626289D1*
X4055807Y3628269D1*
X4060336Y3628780D1*
X4061705Y3637501D1*
X4064325Y3645568D1*
X4068176Y3653125D1*
X4073161Y3659987D1*
X4079159Y3665984D1*
X4086021Y3670970D1*
X4093577Y3674820D1*
X4098374Y3676518D1*
X4098369Y3692504D1*
X4081833Y3692470D1*
Y3748701D1*
X4076415Y3754089D1*
X4068988Y3748685D1*
X4061089Y3744661D1*
X4052659Y3741921D1*
X4043903Y3740535D1*
X4035039D1*
X4026283Y3741921D1*
X4017853Y3744661D1*
X4009954Y3748685D1*
X4002782Y3753896D1*
X3996514Y3760164D1*
X3991303Y3767336D1*
X3987280Y3775235D1*
X3984539Y3783665D1*
X3983154Y3792421D1*
Y3801285D1*
X3984539Y3810041D1*
X3987280Y3818471D1*
X3991303Y3826370D1*
X3996514Y3833542D1*
X4002782Y3839810D1*
X4009954Y3845021D1*
X4017853Y3849045D1*
X4026283Y3851785D1*
X4035039Y3853171D1*
X4043903D1*
X4052659Y3851785D1*
X4061089Y3849045D1*
X4068988Y3845021D1*
X4076160Y3839810D1*
X4079852Y3836328D1*
X4092588Y3836215D1*
X4098707Y3835247D1*
X4104600Y3833332D1*
X4110119Y3830518D1*
X4115133Y3826877D1*
X4137682Y3804499D1*
X4193873Y3804509D1*
Y3692470D1*
X4177331D1*
X4177215Y3645375D1*
X4176247Y3639256D1*
X4174332Y3633364D1*
X4171518Y3627844D1*
X4169789Y3625256D1*
X4168147Y3620643D1*
X4166820Y3612265D1*
X4164199Y3604198D1*
X4160349Y3596642D1*
X4155364Y3589780D1*
X4149366Y3583782D1*
X4142504Y3578797D1*
X4134948Y3574946D1*
X4126881Y3572325D1*
X4118189Y3570987D1*
X4116820Y3562265D1*
X4114199Y3554198D1*
X4110349Y3546642D1*
X4105364Y3539780D1*
X4103755Y3538039D1*
X4103625Y3507353D1*
X4102656Y3501234D1*
X4100741Y3495341D1*
X4097928Y3489822D1*
X4094286Y3484808D1*
X4079217Y3469566D1*
X4079067Y3464507D1*
X4077681Y3455751D1*
X4074941Y3447320D1*
X4070917Y3439421D1*
X4065706Y3432249D1*
X4059438Y3425982D1*
X4052266Y3420770D1*
X4044367Y3416747D1*
X4035937Y3414007D1*
X4027181Y3412621D1*
X4021139Y3412509D1*
X3990549Y3381923D1*
X3990535Y3215364D1*
X3997102Y3219273D1*
X4005293Y3222665D1*
X4013912Y3224735D1*
X4022749Y3225430D1*
X4031587Y3224735D1*
X4040206Y3222665D1*
X4048396Y3219273D1*
X4055954Y3214642D1*
X4062696Y3208885D1*
X4068453Y3202143D1*
X4073084Y3194585D1*
X4076476Y3186395D1*
X4078546Y3177776D1*
X4079241Y3168938D1*
X4078546Y3160101D1*
X4076476Y3151482D1*
X4073084Y3143291D1*
X4069001Y3136554D1*
X4088031Y3136564D1*
X4091786Y3141406D1*
X4098656Y3148276D1*
X4102341Y3151180D1*
X4095087Y3157400D1*
X4088776Y3164789D1*
X4083698Y3173075D1*
X4079979Y3182051D1*
X4077711Y3191500D1*
X4076949Y3201188D1*
X4077711Y3210875D1*
X4079979Y3220324D1*
X4083698Y3229301D1*
X4088776Y3237587D1*
X4095087Y3244975D1*
X4102341Y3251180D1*
X4095087Y3257400D1*
X4088776Y3264789D1*
X4083698Y3273075D1*
X4079979Y3282051D1*
X4077711Y3291500D1*
X4076949Y3301188D1*
X4077711Y3310875D1*
X4079979Y3320324D1*
X4083698Y3329301D1*
X4088776Y3337587D1*
X4095087Y3344975D1*
X4102475Y3351286D1*
X4110761Y3356364D1*
X4119738Y3360083D1*
X4129186Y3362350D1*
X4138892Y3363112D1*
X4214598Y3362923D1*
X4224197Y3361402D1*
X4233438Y3358399D1*
X4242096Y3353988D1*
X4249958Y3348276D1*
X4256828Y3341406D1*
X4262541Y3333543D1*
X4266951Y3324886D1*
X4269954Y3315644D1*
X4271475Y3306046D1*
Y3296329D1*
X4269954Y3286731D1*
X4266951Y3277490D1*
X4262541Y3268832D1*
X4256828Y3260970D1*
X4249958Y3254100D1*
X4246273Y3251196D1*
X4253528Y3244975D1*
X4259839Y3237587D1*
X4264916Y3229301D1*
X4266037Y3226869D1*
X4296782Y3195950D1*
X4298709Y3193505D1*
X4299198Y3196843D1*
X4298610Y4168909D1*
X4290139Y4160643D1*
X4284505Y4156201D1*
X4278539Y4152215D1*
X4272280Y4148710D1*
X4265764Y4145706D1*
X4259033Y4143223D1*
X4252129Y4141276D1*
X4245092Y4139875D1*
X4237967Y4139033D1*
X4230798Y4138751D1*
X4223629Y4139033D1*
X4216504Y4139875D1*
X4209467Y4141276D1*
X4202563Y4143223D1*
X4195832Y4145706D1*
X4189316Y4148710D1*
X4183056Y4152215D1*
X4177091Y4156201D1*
X4171457Y4160643D1*
X4166189Y4165513D1*
X4161319Y4170781D1*
X4156877Y4176415D1*
X4152891Y4182381D1*
X4149386Y4188640D1*
X4146382Y4195156D1*
X4143899Y4201887D1*
X4141951Y4208791D1*
X4140551Y4215828D1*
X4139709Y4222953D1*
X4139427Y4230122D1*
X4139709Y4237291D1*
X4140551Y4244416D1*
X4141951Y4251453D1*
X4143899Y4258357D1*
X4146382Y4265088D1*
X4149386Y4271604D1*
X4152891Y4277864D1*
X4156877Y4283829D1*
X4161319Y4289463D1*
X4166189Y4294731D1*
X4170283Y4298517D1*
X1813018Y4298524D1*
X1816937Y4289003D1*
X1819349Y4278953D1*
X1820160Y4268650D1*
X1819349Y4258346D1*
X1816937Y4248297D1*
X1812982Y4238749D1*
X1807581Y4229937D1*
X1802199Y4223517D1*
X1801727Y4078131D1*
X1807581Y4071181D1*
X1812982Y4062369D1*
X1816937Y4052822D1*
X1819349Y4042772D1*
X1820160Y4032469D1*
X1819349Y4022165D1*
X1816937Y4012115D1*
X1812982Y4002568D1*
X1807581Y3993756D1*
X1800870Y3985896D1*
X1793010Y3979185D1*
X1784198Y3973785D1*
X1774651Y3969829D1*
X1764601Y3967417D1*
X1754298Y3966606D1*
X1743995Y3967417D1*
X1735636Y3969353D1*
X1732407Y3966052D1*
X1783190Y3915306D1*
X1927566Y3915302D1*
X1989161Y3976890D1*
X1988218Y3984610D1*
X1987930Y3991940D1*
X1988218Y3999269D1*
X1989080Y4006554D1*
X1990512Y4013748D1*
X1992503Y4020808D1*
X1995042Y4027690D1*
X1998113Y4034352D1*
X2001697Y4040752D1*
X2005773Y4046852D1*
X2010314Y4052612D1*
X2015293Y4057999D1*
X2020680Y4062978D1*
X2026440Y4067518D1*
X2032539Y4071594D1*
X2038940Y4075178D1*
X2045601Y4078249D1*
X2052483Y4080789D1*
X2059543Y4082780D1*
X2066738Y4084211D1*
X2074022Y4085073D1*
X2081352Y4085361D1*
X2088681Y4085073D1*
X2095966Y4084211D1*
X2103160Y4082780D1*
X2110220Y4080789D1*
X2117102Y4078249D1*
X2123764Y4075178D1*
X2130164Y4071594D1*
X2136264Y4067518D1*
X2142024Y4062978D1*
X2147411Y4057999D1*
X2152390Y4052612D1*
X2156930Y4046852D1*
X2161007Y4040752D1*
X2164591Y4034352D1*
X2167661Y4027690D1*
X2170201Y4020808D1*
X2172192Y4013748D1*
X2173623Y4006554D1*
X2174486Y3999269D1*
X2174773Y3991940D1*
X2174486Y3984610D1*
X2173623Y3977325D1*
X2172192Y3970131D1*
X2170201Y3963071D1*
X2167661Y3956189D1*
X2164591Y3949528D1*
X2161007Y3943127D1*
X2156930Y3937028D1*
X2152390Y3931268D1*
X2147411Y3925881D1*
X2142024Y3920902D1*
X2136264Y3916361D1*
X2130164Y3912285D1*
X2123764Y3908701D1*
X2117102Y3905630D1*
X2110220Y3903091D1*
X2103160Y3901100D1*
X2095966Y3899668D1*
X2088681Y3898806D1*
X2081352Y3898518D1*
X2074022Y3898806D1*
X2066738Y3899668D1*
X2059543Y3901100D1*
X2052483Y3903091D1*
X2045601Y3905630D1*
X2034915Y3910955D1*
X1969571Y3845794D1*
X1964558Y3842152D1*
X1959038Y3839339D1*
X1953146Y3837424D1*
X1947026Y3836455D1*
X1907182Y3836333D1*
X1823940Y3836160D1*
X1827930Y3828328D1*
X1830647Y3819967D1*
X1832021Y3811285D1*
Y3802495D1*
X1830647Y3793812D1*
X1830119Y3791944D1*
X1839269Y3788042D1*
X2009051D1*
Y3672066D1*
X1991001D1*
X1995157Y3667714D1*
X2000507Y3660353D1*
X2004636Y3652245D1*
X2007449Y3643591D1*
X2008160Y3640014D1*
X2131685Y3516517D1*
X2130261Y3525504D1*
Y3534604D1*
X2131685Y3543591D1*
X2134497Y3552245D1*
X2138627Y3560353D1*
X2143976Y3567714D1*
X2150411Y3574148D1*
X2157772Y3579497D1*
X2158719Y3580028D1*
X2153987Y3583140D1*
X2147067Y3589050D1*
X2141157Y3595970D1*
X2136403Y3603728D1*
X2132921Y3612134D1*
X2130797Y3620983D1*
X2130083Y3630054D1*
X2130797Y3639125D1*
X2132921Y3647974D1*
X2136403Y3656379D1*
X2141157Y3664138D1*
X2147067Y3671058D1*
X2153987Y3676967D1*
X2158719Y3680028D1*
X2153987Y3683140D1*
X2147067Y3689050D1*
X2141157Y3695970D1*
X2136403Y3703728D1*
X2132921Y3712134D1*
X2130797Y3720983D1*
X2130083Y3730054D1*
X2130797Y3739125D1*
X2132921Y3747974D1*
X2136403Y3756379D1*
X2141157Y3764138D1*
X2147067Y3771058D1*
X2153987Y3776967D1*
X2161745Y3781722D1*
X2170151Y3785203D1*
X2179000Y3787328D1*
X2188089Y3788041D1*
X2255613Y3787864D1*
X2264600Y3786440D1*
X2273255Y3783627D1*
X2281362Y3779497D1*
X2288723Y3774148D1*
X2295157Y3767714D1*
X2300507Y3760353D1*
X2302753Y3756332D1*
X2303429Y3763478D1*
X2305499Y3772097D1*
X2308891Y3780287D1*
X2313522Y3787845D1*
X2319280Y3794587D1*
X2326021Y3800344D1*
X2333579Y3804975D1*
X2341769Y3808367D1*
X2350388Y3810437D1*
X2359226Y3811133D1*
X2368063Y3810437D1*
X2376682Y3808367D1*
X2384873Y3804975D1*
X2392430Y3800344D1*
X2399172Y3794587D1*
X2404929Y3787845D1*
X2409560Y3780287D1*
X2412953Y3772097D1*
X2415022Y3763478D1*
X2415718Y3754640D1*
X2415022Y3745803D1*
X2412953Y3737184D1*
X2409560Y3728993D1*
X2404929Y3721436D1*
X2399172Y3714694D1*
X2398701Y3714260D1*
X2398588Y3682190D1*
X2397619Y3676071D1*
X2395705Y3670178D1*
X2392891Y3664659D1*
X2389249Y3659646D1*
X2361163Y3631386D1*
X2329634Y3600030D1*
X2324621Y3596388D1*
X2319101Y3593575D1*
X2313209Y3591660D1*
X2307089Y3590692D1*
X2293549Y3590570D1*
X2288723Y3585959D1*
X2281362Y3580610D1*
X2280415Y3580080D1*
X2285147Y3576967D1*
X2292067Y3571058D1*
X2297976Y3564138D1*
X2302731Y3556379D1*
X2306213Y3547974D1*
X2308337Y3539125D1*
X2309051Y3530054D1*
X2308278Y3520686D1*
X2327567Y3501415D1*
X2333579Y3504975D1*
X2341769Y3508367D1*
X2350388Y3510437D1*
X2359226Y3511133D1*
X2368063Y3510437D1*
X2376682Y3508367D1*
X2384873Y3504975D1*
X2392430Y3500344D1*
X2399172Y3494587D1*
X2400196Y3493479D1*
X2418543Y3493478D1*
X2425747Y3499697D1*
X2433304Y3504328D1*
X2441495Y3507720D1*
X2450114Y3509790D1*
X2458951Y3510486D1*
X2467789Y3509790D1*
X2476408Y3507720D1*
X2484598Y3504328D1*
X2492156Y3499697D1*
X2498898Y3493940D1*
X2504655Y3487198D1*
X2509286Y3479640D1*
X2512678Y3471450D1*
X2513671Y3467932D1*
X2537827Y3492091D1*
X2537815Y3569419D1*
X2533571Y3574559D1*
X2529139Y3581790D1*
X2525894Y3589627D1*
X2523913Y3597874D1*
X2523248Y3606329D1*
X2523913Y3614785D1*
X2525894Y3623031D1*
X2529139Y3630869D1*
X2533571Y3638100D1*
X2539079Y3644550D1*
X2545529Y3650058D1*
X2552760Y3654490D1*
X2560597Y3657735D1*
X2568844Y3659715D1*
X2573373Y3660226D1*
X2574741Y3668948D1*
X2577362Y3677014D1*
X2581213Y3684571D1*
X2586198Y3691433D1*
X2592196Y3697430D1*
X2599058Y3702416D1*
X2606614Y3706266D1*
X2614681Y3708887D1*
X2623059Y3710214D1*
X2631539D1*
X2639917Y3708887D1*
X2647984Y3706266D1*
X2655541Y3702416D1*
X2662403Y3697430D1*
X2668400Y3691433D1*
X2673386Y3684571D1*
X2677236Y3677014D1*
X2679857Y3668948D1*
X2681184Y3660570D1*
Y3652089D1*
X2679857Y3643711D1*
X2677236Y3635644D1*
X2673386Y3628088D1*
X2668400Y3621226D1*
X2662403Y3615228D1*
X2655541Y3610243D1*
X2647984Y3606392D1*
X2644453Y3605091D1*
X2651650Y3605012D1*
X2655756Y3604361D1*
X2659709Y3603076D1*
X2663413Y3601189D1*
X2666776Y3598745D1*
X2669715Y3595806D1*
X2672159Y3592444D1*
X2674046Y3588739D1*
X2675331Y3584786D1*
X2675982Y3580680D1*
X2676063Y3563423D1*
X2731366Y3508102D1*
X2738719Y3509753D1*
X2747556Y3510449D1*
X2756394Y3509753D1*
X2765013Y3507684D1*
X2773203Y3504291D1*
X2780761Y3499660D1*
X2787503Y3493903D1*
X2787937Y3493432D1*
X2807232Y3493441D1*
X2814256Y3499490D1*
X2821814Y3504121D1*
X2830004Y3507513D1*
X2838623Y3509583D1*
X2847461Y3510278D1*
X2856298Y3509583D1*
X2864917Y3507513D1*
X2873108Y3504121D1*
X2880665Y3499490D1*
X2887407Y3493732D1*
X2893164Y3486991D1*
X2897795Y3479433D1*
X2901188Y3471243D1*
X2903257Y3462623D1*
X2903953Y3453786D1*
X2903257Y3444949D1*
X2901188Y3436329D1*
X2897795Y3428139D1*
X2893164Y3420581D1*
X2887407Y3413840D1*
X2880665Y3408083D1*
X2873108Y3403451D1*
X2864917Y3400059D1*
X2856298Y3397990D1*
X2847461Y3397294D1*
X2838623Y3397990D1*
X2830004Y3400059D1*
X2821814Y3403451D1*
X2814256Y3408083D1*
X2807514Y3413840D1*
X2806938Y3414463D1*
X2787974Y3414472D1*
X2780761Y3408253D1*
X2773203Y3403622D1*
X2765013Y3400230D1*
X2756394Y3398160D1*
X2747556Y3397465D1*
X2738719Y3398160D1*
X2730100Y3400230D1*
X2721909Y3403622D1*
X2714352Y3408253D1*
X2707610Y3414010D1*
X2701853Y3420752D1*
X2697222Y3428310D1*
X2695256Y3432533D1*
X2620226Y3507563D1*
X2616783Y3505280D1*
X2616661Y3472626D1*
X2615693Y3466507D1*
X2613778Y3460614D1*
X2610965Y3455094D1*
X2607323Y3450081D1*
X2579236Y3421822D1*
X2495324Y3337911D1*
X2495336Y3314337D1*
X3885467Y1716979D2*
X3877482Y1716400D1*
X3868256Y1717126D1*
X3859259Y1719286D1*
X3850709Y1722828D1*
X3842819Y1727663D1*
X3835782Y1733673D1*
X3829772Y1740710D1*
X3824937Y1748600D1*
X3821395Y1757150D1*
X3819235Y1766147D1*
X3818509Y1775373D1*
X3819235Y1784598D1*
X3821395Y1793596D1*
X3824937Y1802146D1*
X3829772Y1810035D1*
X3835782Y1817072D1*
X3842819Y1823083D1*
X3850709Y1827917D1*
X3859259Y1831459D1*
X3868256Y1833619D1*
X3877482Y1834345D1*
X3886707Y1833619D1*
X3895705Y1831459D1*
X3904255Y1827917D1*
X3912144Y1823083D1*
X3919181Y1817072D1*
X3925192Y1810035D1*
X3930026Y1802146D1*
X3933568Y1793596D1*
X3935728Y1784598D1*
X3936360Y1777777D1*
X3964568Y1749576D1*
X3967899Y1754896D1*
X3972636Y1760445D1*
X3978185Y1765182D1*
X3984404Y1768995D1*
X3991144Y1771786D1*
X3998239Y1773490D1*
X4005512Y1774062D1*
X4012785Y1773490D1*
X4019879Y1771786D1*
X4026619Y1768995D1*
X4030029Y1767060D1*
X4095474Y1767054D1*
X4102366Y1772920D1*
X4095112Y1779140D1*
X4091235Y1783441D1*
X4042054Y1783566D1*
X4035934Y1784534D1*
X4030042Y1786449D1*
X4024522Y1789262D1*
X4019509Y1792904D1*
X3991249Y1820991D1*
X3780841Y2031178D1*
X3773903Y2033433D1*
X3767402Y2036745D1*
X3761500Y2041033D1*
X3756341Y2046192D1*
X3752054Y2052093D1*
X3748741Y2058594D1*
X3746487Y2065533D1*
X3745345Y2072738D1*
Y2080034D1*
X3746487Y2087239D1*
X3748741Y2094177D1*
X3752054Y2100678D1*
X3756341Y2106580D1*
X3761500Y2111739D1*
X3767402Y2116026D1*
X3773903Y2119339D1*
X3780841Y2121593D1*
X3788046Y2122735D1*
X3795343D1*
X3802547Y2121593D1*
X3809486Y2119339D1*
X3815987Y2116026D1*
X3821888Y2111739D1*
X3827047Y2106580D1*
X3831335Y2100678D1*
X3834647Y2094177D1*
X3836954Y2086974D1*
X3874549Y2049371D1*
X3878411Y2053024D1*
X3884312Y2057311D1*
X3890814Y2060623D1*
X3897752Y2062878D1*
X3904957Y2064020D1*
X3912253D1*
X3919458Y2062878D1*
X3926396Y2060623D1*
X3933122Y2057161D1*
X4037967Y2057155D1*
X4227255Y2246476D1*
X4227274Y2741814D1*
X4219428Y2740025D1*
X4213782Y2739421D1*
X4213669Y2251341D1*
X4212701Y2245222D1*
X4210786Y2239329D1*
X4207972Y2233810D1*
X4204331Y2228797D1*
X4176244Y2200537D1*
X4149408Y2173874D1*
X4144395Y2170232D1*
X4138875Y2167419D1*
X4132983Y2165504D1*
X4126864Y2164535D1*
X4087020Y2164413D1*
X4057559D1*
X4050356Y2158194D1*
X4042798Y2153563D1*
X4034608Y2150171D1*
X4025988Y2148101D1*
X4017151Y2147406D1*
X4008314Y2148101D1*
X3999694Y2150171D1*
X3991504Y2153563D1*
X3983946Y2158194D1*
X3977205Y2163951D1*
X3971448Y2170693D1*
X3966816Y2178251D1*
X3963424Y2186441D1*
X3961354Y2195060D1*
X3960659Y2203898D1*
X3961354Y2212735D1*
X3963424Y2221354D1*
X3966816Y2229545D1*
X3971448Y2237102D1*
X3977205Y2243844D1*
X3983946Y2249601D1*
X3991504Y2254232D1*
X3999694Y2257625D1*
X4008314Y2259694D1*
X4017151Y2260390D1*
X4025988Y2259694D1*
X4034608Y2257625D1*
X4042798Y2254232D1*
X4050356Y2249601D1*
X4057097Y2243844D1*
X4057531Y2243373D1*
X4107400Y2243382D1*
X4134845Y2270818D1*
X4134823Y2739415D1*
X4129186Y2740025D1*
X4119738Y2742293D1*
X4110761Y2746012D1*
X4102475Y2751089D1*
X4095087Y2757400D1*
X4088776Y2764789D1*
X4083698Y2773075D1*
X4079979Y2782051D1*
X4077711Y2791500D1*
X4076949Y2801188D1*
X4077711Y2810875D1*
X4079979Y2820324D1*
X4083698Y2829301D1*
X4088776Y2837587D1*
X4095087Y2844975D1*
X4102341Y2851180D1*
X4095087Y2857400D1*
X4088776Y2864789D1*
X4083698Y2873075D1*
X4079979Y2882051D1*
X4078175Y2889172D1*
X4077484Y2881900D1*
X4075324Y2872903D1*
X4071782Y2864353D1*
X4066948Y2856463D1*
X4060937Y2849427D1*
X4053900Y2843416D1*
X4046010Y2838581D1*
X4037461Y2835039D1*
X4028463Y2832879D1*
X4019238Y2832154D1*
X4010012Y2832879D1*
X4001014Y2835039D1*
X3992465Y2838581D1*
X3984575Y2843416D1*
X3982492Y2844949D1*
X3943988D1*
X3941923Y2843693D1*
X3946655Y2840580D1*
X3953575Y2834671D1*
X3959484Y2827751D1*
X3961253Y2825104D1*
X3965295Y2821577D1*
X4018751Y2768123D1*
X4027562Y2767398D1*
X4036559Y2765238D1*
X4045109Y2761696D1*
X4052999Y2756861D1*
X4060035Y2750850D1*
X4066046Y2743814D1*
X4070881Y2735924D1*
X4074423Y2727374D1*
X4076583Y2718377D1*
X4077308Y2709151D1*
X4076583Y2699925D1*
X4074423Y2690928D1*
X4070881Y2682378D1*
X4066046Y2674488D1*
X4060035Y2667451D1*
X4052999Y2661441D1*
X4045109Y2656606D1*
X4036559Y2653064D1*
X4027562Y2650904D1*
X4018336Y2650178D1*
X4009110Y2650904D1*
X4000113Y2653064D1*
X3991563Y2656606D1*
X3983673Y2661441D1*
X3976636Y2667451D1*
X3970626Y2674488D1*
X3968365Y2677871D1*
X3966144Y2671475D1*
X3962014Y2663367D1*
X3956665Y2656007D1*
X3950231Y2649572D1*
X3942870Y2644223D1*
X3941923Y2643693D1*
X3946655Y2640580D1*
X3953575Y2634671D1*
X3959484Y2627751D1*
X3964239Y2619992D1*
X3967720Y2611587D1*
X3969564Y2604151D1*
X4013445Y2560259D1*
X4021583Y2560215D1*
X4030339Y2558829D1*
X4038769Y2556089D1*
X4046668Y2552066D1*
X4053840Y2546854D1*
X4060108Y2540587D1*
X4065319Y2533415D1*
X4069343Y2525516D1*
X4072083Y2517085D1*
X4073469Y2508329D1*
Y2499466D1*
X4072083Y2490710D1*
X4069343Y2482280D1*
X4065319Y2474381D1*
X4060108Y2467209D1*
X4053840Y2460941D1*
X4046668Y2455730D1*
X4038769Y2451706D1*
X4030339Y2448966D1*
X4021583Y2447580D1*
X4012719D1*
X4003963Y2448966D1*
X3995533Y2451706D1*
X3987634Y2455730D1*
X3980462Y2460941D1*
X3974194Y2467209D1*
X3968983Y2474381D1*
X3967908Y2476301D1*
X3964239Y2467341D1*
X3959484Y2459583D1*
X3953575Y2452663D1*
X3946655Y2446753D1*
X3941923Y2443693D1*
X3946655Y2440580D1*
X3953575Y2434671D1*
X3959484Y2427751D1*
X3964239Y2419992D1*
X3967720Y2411587D1*
X3969845Y2402738D1*
X3970559Y2393667D1*
X3969845Y2384596D1*
X3967720Y2375747D1*
X3964239Y2367341D1*
X3959484Y2359583D1*
X3953575Y2352663D1*
X3946655Y2346753D1*
X3941923Y2343693D1*
X3946655Y2340580D1*
X3953575Y2334671D1*
X3959484Y2327751D1*
X3964239Y2319992D1*
X3967720Y2311587D1*
X3969845Y2302738D1*
X3970559Y2293667D1*
X3969845Y2284596D1*
X3967720Y2275747D1*
X3964239Y2267341D1*
X3959484Y2259583D1*
X3953575Y2252663D1*
X3946655Y2246753D1*
X3938896Y2241999D1*
X3930491Y2238517D1*
X3921642Y2236392D1*
X3912571Y2235678D1*
X3849579D1*
X3840508Y2236392D1*
X3831659Y2238517D1*
X3823253Y2241999D1*
X3815495Y2246753D1*
X3808575Y2252663D1*
X3802665Y2259583D1*
X3800127Y2263383D1*
X3799997Y2209280D1*
X3799029Y2203160D1*
X3797114Y2197268D1*
X3794301Y2191748D1*
X3790659Y2186735D1*
X3762572Y2158475D1*
X3701294Y2097197D1*
X3701319Y2017659D1*
X3707538Y2010444D1*
X3712169Y2002886D1*
X3715562Y1994696D1*
X3717631Y1986076D1*
X3718327Y1977239D1*
X3717631Y1968402D1*
X3715562Y1959782D1*
X3712169Y1951592D1*
X3707538Y1944034D1*
X3701781Y1937293D1*
X3695039Y1931535D1*
X3687482Y1926904D1*
X3679291Y1923512D1*
X3670672Y1921442D1*
X3661835Y1920747D1*
X3652997Y1921442D1*
X3644378Y1923512D1*
X3636188Y1926904D1*
X3628630Y1931535D1*
X3621888Y1937293D1*
X3616131Y1944034D1*
X3611500Y1951592D1*
X3608108Y1959782D1*
X3606038Y1968402D1*
X3605343Y1977239D1*
X3606038Y1986076D1*
X3608108Y1994696D1*
X3611500Y2002886D1*
X3616131Y2010444D1*
X3621888Y2017185D1*
X3622360Y2017619D1*
X3622472Y2116676D1*
X3623441Y2122795D1*
X3625356Y2128688D1*
X3628169Y2134207D1*
X3631811Y2139220D1*
X3659898Y2167480D1*
X3721176Y2228759D1*
X3721273Y2455383D1*
X3722241Y2461503D1*
X3724156Y2467395D1*
X3726970Y2472915D1*
X3730612Y2477928D1*
X3758698Y2506188D1*
X3776374Y2523690D1*
X3781387Y2527332D1*
X3786907Y2530146D1*
X3792799Y2532060D1*
X3798919Y2533029D1*
X3807076Y2533151D1*
X3811919Y2537761D1*
X3819280Y2543110D1*
X3820227Y2543640D1*
X3815495Y2546753D1*
X3808575Y2552663D1*
X3807163Y2554190D1*
X3794723Y2554304D1*
X3788604Y2555273D1*
X3782711Y2557188D1*
X3777192Y2560001D1*
X3772178Y2563643D1*
X3738047Y2597601D1*
X3734024Y2602312D1*
X3730786Y2607596D1*
X3728416Y2613320D1*
X3726969Y2619344D1*
X3726483Y2625521D1*
Y2876315D1*
X3713606Y2863643D1*
X3708593Y2860001D1*
X3703073Y2857188D1*
X3697181Y2855273D1*
X3691062Y2854304D1*
X3670559Y2854182D1*
Y2835678D1*
X3652509D1*
X3656665Y2831327D1*
X3662014Y2823966D1*
X3666144Y2815858D1*
X3668957Y2807203D1*
X3670381Y2798217D1*
Y2789117D1*
X3668957Y2780130D1*
X3666144Y2771475D1*
X3662014Y2763367D1*
X3656665Y2756007D1*
X3650231Y2749572D1*
X3642870Y2744223D1*
X3641923Y2743693D1*
X3646655Y2740580D1*
X3653575Y2734671D1*
X3659484Y2727751D1*
X3664239Y2719992D1*
X3667720Y2711587D1*
X3669845Y2702738D1*
X3670559Y2693667D1*
X3669845Y2684596D1*
X3667720Y2675747D1*
X3664239Y2667341D1*
X3659484Y2659583D1*
X3653575Y2652663D1*
X3646655Y2646753D1*
X3641923Y2643693D1*
X3646655Y2640580D1*
X3653575Y2634671D1*
X3659484Y2627751D1*
X3664239Y2619992D1*
X3667720Y2611587D1*
X3669845Y2602738D1*
X3670559Y2593667D1*
X3669845Y2584596D1*
X3667720Y2575747D1*
X3664239Y2567341D1*
X3659484Y2559583D1*
X3653575Y2552663D1*
X3646655Y2546753D1*
X3641923Y2543693D1*
X3646655Y2540580D1*
X3653575Y2534671D1*
X3659484Y2527751D1*
X3664239Y2519992D1*
X3667720Y2511587D1*
X3669845Y2502738D1*
X3670559Y2493667D1*
X3669845Y2484596D1*
X3667720Y2475747D1*
X3664239Y2467341D1*
X3659484Y2459583D1*
X3653575Y2452663D1*
X3646655Y2446753D1*
X3641923Y2443693D1*
X3646655Y2440580D1*
X3653575Y2434671D1*
X3659484Y2427751D1*
X3664239Y2419992D1*
X3667720Y2411587D1*
X3669845Y2402738D1*
X3670559Y2393667D1*
X3669845Y2384596D1*
X3667720Y2375747D1*
X3664239Y2367341D1*
X3659484Y2359583D1*
X3653575Y2352663D1*
X3646655Y2346753D1*
X3638896Y2341999D1*
X3630491Y2338517D1*
X3621642Y2336392D1*
X3612571Y2335678D1*
X3549579D1*
X3540508Y2336392D1*
X3531659Y2338517D1*
X3523253Y2341999D1*
X3515495Y2346753D1*
X3508575Y2352663D1*
X3502665Y2359583D1*
X3497911Y2367341D1*
X3494429Y2375747D1*
X3492304Y2384596D1*
X3491591Y2393667D1*
X3492304Y2402738D1*
X3494429Y2411587D1*
X3497911Y2419992D1*
X3502665Y2427751D1*
X3508575Y2434671D1*
X3515495Y2440580D1*
X3520227Y2443640D1*
X3515495Y2446753D1*
X3508575Y2452663D1*
X3507163Y2454190D1*
X3500357Y2454304D1*
X3494238Y2455273D1*
X3488345Y2457188D1*
X3482825Y2460001D1*
X3477812Y2463643D1*
X3472626Y2468016D1*
X3464007Y2465946D1*
X3455169Y2465251D1*
X3446332Y2465946D1*
X3437713Y2468016D1*
X3433472Y2469587D1*
X3433462Y1481366D1*
X3510731Y1404109D1*
X3515495Y1407932D1*
X3520227Y1410992D1*
X3515495Y1414105D1*
X3508575Y1420014D1*
X3502665Y1426934D1*
X3497911Y1434693D1*
X3494429Y1443098D1*
X3492304Y1451948D1*
X3491591Y1461018D1*
X3492304Y1470089D1*
X3494429Y1478938D1*
X3497911Y1487344D1*
X3502665Y1495102D1*
X3508575Y1502022D1*
X3509659Y1503025D1*
X3491591Y1503030D1*
Y1619007D1*
X3670559D1*
Y1503030D1*
X3652509D1*
X3656665Y1498678D1*
X3662014Y1491318D1*
X3666144Y1483210D1*
X3668957Y1474555D1*
X3670381Y1465568D1*
Y1456469D1*
X3668957Y1447482D1*
X3666144Y1438827D1*
X3662014Y1430719D1*
X3656665Y1423358D1*
X3650231Y1416924D1*
X3642870Y1411575D1*
X3641923Y1411045D1*
X3646655Y1407932D1*
X3653575Y1402022D1*
X3659484Y1395102D1*
X3664239Y1387344D1*
X3667720Y1378938D1*
X3669845Y1370089D1*
X3670559Y1361018D1*
X3669845Y1351948D1*
X3667720Y1343098D1*
X3664239Y1334693D1*
X3659484Y1326934D1*
X3653575Y1320014D1*
X3646655Y1314105D1*
X3641923Y1311045D1*
X3646655Y1307932D1*
X3653575Y1302022D1*
X3659484Y1295102D1*
X3664239Y1287344D1*
X3667720Y1278938D1*
X3669845Y1270089D1*
X3670559Y1261018D1*
X3669845Y1251948D1*
X3667720Y1243098D1*
X3664239Y1234693D1*
X3659484Y1226934D1*
X3653575Y1220014D1*
X3646655Y1214105D1*
X3638896Y1209350D1*
X3630491Y1205869D1*
X3621642Y1203744D1*
X3612571Y1203030D1*
X3549579D1*
X3540508Y1203744D1*
X3531659Y1205869D1*
X3531009Y1206109D1*
X3458747Y1134039D1*
X3455887Y1131786D1*
X3457332Y1130549D1*
X4000655D1*
X4028495Y1158390D1*
X4028513Y1285554D1*
X3973776Y1230995D1*
X3968762Y1227353D1*
X3963243Y1224539D1*
X3957339Y1222622D1*
X3953575Y1220014D1*
X3946655Y1214105D1*
X3938896Y1209350D1*
X3930491Y1205869D1*
X3921642Y1203744D1*
X3912571Y1203030D1*
X3849579D1*
X3840508Y1203744D1*
X3831659Y1205869D1*
X3823253Y1209350D1*
X3815495Y1214105D1*
X3808575Y1220014D1*
X3802665Y1226934D1*
X3797911Y1234693D1*
X3794429Y1243098D1*
X3792304Y1251948D1*
X3791591Y1261018D1*
X3792304Y1270089D1*
X3794429Y1278938D1*
X3797911Y1287344D1*
X3802665Y1295102D1*
X3808575Y1302022D1*
X3815495Y1307932D1*
X3820227Y1310992D1*
X3815495Y1314105D1*
X3808575Y1320014D1*
X3802665Y1326934D1*
X3797911Y1334693D1*
X3794429Y1343098D1*
X3792304Y1351948D1*
X3791591Y1361018D1*
X3792304Y1370089D1*
X3794429Y1378938D1*
X3797911Y1387344D1*
X3802665Y1395102D1*
X3808575Y1402022D1*
X3815495Y1407932D1*
X3823253Y1412686D1*
X3831659Y1416168D1*
X3840508Y1418293D1*
X3849597Y1419005D1*
X3917121Y1418828D1*
X3926108Y1417404D1*
X3930707Y1416088D1*
X3930720Y1505974D1*
X3926108Y1504633D1*
X3917121Y1503209D1*
X3894198Y1503030D1*
X3849579D1*
X3840508Y1503744D1*
X3831659Y1505869D1*
X3823253Y1509350D1*
X3815495Y1514105D1*
X3808575Y1520014D1*
X3802665Y1526934D1*
X3797911Y1534693D1*
X3794429Y1543098D1*
X3792304Y1551948D1*
X3791591Y1561018D1*
X3792304Y1570089D1*
X3794429Y1578938D1*
X3797911Y1587344D1*
X3798268Y1587980D1*
X3766655Y1619598D1*
X3760558Y1619761D1*
X3751802Y1621147D1*
X3743371Y1623887D1*
X3735472Y1627911D1*
X3728301Y1633122D1*
X3723550Y1637748D1*
X3702217Y1637755D1*
X3698524Y1634282D1*
X3691352Y1629071D1*
X3683453Y1625047D1*
X3675022Y1622307D1*
X3666266Y1620921D1*
X3657403D1*
X3648647Y1622307D1*
X3640217Y1625047D1*
X3632318Y1629071D1*
X3625146Y1634282D1*
X3618878Y1640550D1*
X3613667Y1647722D1*
X3609643Y1655621D1*
X3606903Y1664051D1*
X3605517Y1672807D1*
Y1681671D1*
X3606903Y1690427D1*
X3609643Y1698857D1*
X3613667Y1706756D1*
X3618878Y1713928D1*
X3625146Y1720196D1*
X3632318Y1725407D1*
X3640217Y1729430D1*
X3648647Y1732171D1*
X3657403Y1733556D1*
X3666266D1*
X3675022Y1732171D1*
X3683453Y1729430D1*
X3691352Y1725407D1*
X3698524Y1720196D1*
X3702215Y1716714D1*
X3725744Y1716723D1*
X3731785Y1721782D1*
X3739343Y1726413D1*
X3747533Y1729806D1*
X3756152Y1731875D1*
X3764990Y1732571D1*
X3773827Y1731875D1*
X3782446Y1729806D1*
X3790636Y1726413D1*
X3798194Y1721782D1*
X3804936Y1716025D1*
X3810693Y1709283D1*
X3815324Y1701726D1*
X3818717Y1693535D1*
X3820786Y1684916D1*
X3821466Y1676476D1*
X3878911Y1619021D1*
X3917121Y1618828D1*
X3926108Y1617404D1*
X3930707Y1616088D1*
X3930720Y1671759D1*
X3885524Y1716942D1*
X2070736Y3013538D2*
X2066923Y3008042D1*
Y2978652D1*
X2073113Y2984046D1*
X2079332Y2987858D1*
X2086072Y2990650D1*
X2093634Y2992408D1*
X2086083Y2997077D1*
X2079046Y3003088D1*
X2073035Y3010125D1*
X2070755Y3013538D1*
X1974570Y3008178D2*
X1970463Y3013974D1*
X1966262Y3022219D1*
X1963403Y3031021D1*
X1961955Y3040160D1*
Y3049415D1*
X1963403Y3058554D1*
X1966262Y3067356D1*
X1970463Y3075601D1*
X1974568Y3081533D1*
Y3291348D1*
X1893879Y3372059D1*
X1883521Y3372244D1*
X1874534Y3373668D1*
X1865879Y3376480D1*
X1857772Y3380610D1*
X1850411Y3385959D1*
X1843976Y3392394D1*
X1838627Y3399755D1*
X1834497Y3407862D1*
X1832192Y3414719D1*
X1832194Y3355573D1*
X1836161Y3350180D1*
X1838975Y3344660D1*
X1840890Y3338768D1*
X1841858Y3332648D1*
X1841980Y3292804D1*
Y2951581D1*
X1974534Y2951585D1*
X1974568Y3008087D1*
X2066921Y3081396D2*
X2070736Y3076037D1*
X2075903Y3083087D1*
X2082446Y3089630D1*
X2089932Y3095070D1*
X2098177Y3099270D1*
X2106979Y3102130D1*
X2116118Y3103577D1*
X2125373D1*
X2134512Y3102130D1*
X2143314Y3099270D1*
X2151559Y3095070D1*
X2159045Y3089630D1*
X2165588Y3083087D1*
X2171028Y3075601D1*
X2175228Y3067356D1*
X2178088Y3058554D1*
X2179535Y3049415D1*
X2179668Y3046071D1*
X2291096Y3157339D1*
X2296109Y3160980D1*
X2301629Y3163794D1*
X2307521Y3165709D1*
X2313640Y3166677D1*
X2353484Y3166799D1*
X2414021D1*
X2411635Y3172739D1*
X2409932Y3179833D1*
X2409360Y3187106D1*
X2409932Y3194379D1*
X2411635Y3201474D1*
X2414427Y3208214D1*
X2416361Y3211623D1*
X2416367Y3319196D1*
X2415261Y3313155D1*
X2412521Y3304724D1*
X2408497Y3296825D1*
X2403286Y3289654D1*
X2397018Y3283386D1*
X2389846Y3278175D1*
X2381948Y3274151D1*
X2373517Y3271411D1*
X2364761Y3270025D1*
X2355898D1*
X2347142Y3271411D1*
X2338711Y3274151D1*
X2330812Y3278175D1*
X2323640Y3283386D1*
X2317373Y3289654D1*
X2312161Y3296825D1*
X2308138Y3304724D1*
X2305398Y3313155D1*
X2304012Y3321911D1*
Y3330774D1*
X2305398Y3339530D1*
X2308138Y3347961D1*
X2312161Y3355860D1*
X2317373Y3363031D1*
X2323640Y3369299D1*
X2330812Y3374510D1*
X2338711Y3378534D1*
X2347142Y3381274D1*
X2355898Y3382660D1*
X2364761D1*
X2373517Y3381274D1*
X2381948Y3378534D1*
X2389846Y3374510D1*
X2397018Y3369299D1*
X2403286Y3363031D1*
X2408497Y3355860D1*
X2412521Y3347961D1*
X2415261Y3339530D1*
X2416369Y3333133D1*
X2416490Y3357375D1*
X2417458Y3363495D1*
X2419373Y3369387D1*
X2422186Y3374907D1*
X2425828Y3379920D1*
X2445009Y3399273D1*
X2437333Y3401802D1*
X2429434Y3405825D1*
X2422262Y3411037D1*
X2418571Y3414518D1*
X2398990Y3414509D1*
X2392430Y3408937D1*
X2384873Y3404306D1*
X2376682Y3400913D1*
X2368063Y3398844D1*
X2359226Y3398148D1*
X2350388Y3398844D1*
X2341769Y3400913D1*
X2333579Y3404306D1*
X2326021Y3408937D1*
X2319280Y3414694D1*
X2318503Y3415156D1*
X2312325Y3415642D1*
X2307449Y3416517D1*
X2304636Y3407862D1*
X2300507Y3399755D1*
X2295157Y3392394D1*
X2288723Y3385959D1*
X2281362Y3380610D1*
X2273255Y3376480D1*
X2264600Y3373668D1*
X2255613Y3372244D1*
X2232690Y3372066D1*
X2188071D1*
X2179000Y3372780D1*
X2170151Y3374904D1*
X2161745Y3378386D1*
X2153987Y3383140D1*
X2147067Y3389050D1*
X2141157Y3395970D1*
X2140298Y3397256D1*
X2136630Y3400030D1*
X2108370Y3428117D1*
X1963155Y3573332D1*
X1955613Y3572244D1*
X1932690Y3572066D1*
X1888071D1*
X1879000Y3572780D1*
X1870151Y3574904D1*
X1861745Y3578386D1*
X1853987Y3583140D1*
X1847067Y3589050D1*
X1845655Y3590577D1*
X1776495Y3590692D1*
X1770375Y3591660D1*
X1764483Y3593575D1*
X1758963Y3596388D1*
X1753950Y3600030D1*
X1725690Y3628117D1*
X1649290Y3704518D1*
X1643453Y3706560D1*
X1635554Y3710584D1*
X1628382Y3715795D1*
X1622114Y3722063D1*
X1616903Y3729235D1*
X1612879Y3737134D1*
X1610465Y3744413D1*
X1608281Y3738087D1*
X1604257Y3730188D1*
X1599046Y3723016D1*
X1592778Y3716748D1*
X1585606Y3711537D1*
X1577707Y3707513D1*
X1569277Y3704773D1*
X1560521Y3703387D1*
X1552748Y3703344D1*
X1554823Y2340049D1*
X1608419Y2339891D1*
X1678534Y2339774D1*
X1784285D1*
X1778203Y2342924D1*
X1772302Y2347211D1*
X1767143Y2352370D1*
X1762856Y2358272D1*
X1759543Y2364773D1*
X1757289Y2371711D1*
X1756147Y2378916D1*
Y2386213D1*
X1757289Y2393417D1*
X1759543Y2400356D1*
X1763005Y2407081D1*
X1763012Y2871558D1*
X1758720Y2864789D1*
X1752409Y2857400D1*
X1745021Y2851089D1*
X1736735Y2846012D1*
X1727759Y2842293D1*
X1718310Y2840025D1*
X1708622Y2839262D1*
X1637756D1*
X1628068Y2840025D1*
X1618619Y2842293D1*
X1609643Y2846012D1*
X1601357Y2851089D1*
X1593969Y2857400D1*
X1587657Y2864789D1*
X1582580Y2873075D1*
X1578861Y2882051D1*
X1576593Y2891500D1*
X1575831Y2901188D1*
X1576593Y2910875D1*
X1578861Y2920324D1*
X1582580Y2929301D1*
X1587657Y2937587D1*
X1593969Y2944975D1*
X1601223Y2951180D1*
X1593969Y2957400D1*
X1587657Y2964789D1*
X1582580Y2973075D1*
X1578861Y2982051D1*
X1576593Y2991500D1*
X1575831Y3001188D1*
X1576593Y3010875D1*
X1578861Y3020324D1*
X1582580Y3029301D1*
X1587657Y3037587D1*
X1593969Y3044975D1*
X1601223Y3051180D1*
X1593969Y3057400D1*
X1587657Y3064789D1*
X1582580Y3073075D1*
X1578861Y3082051D1*
X1576593Y3091500D1*
X1575831Y3101188D1*
X1576593Y3110875D1*
X1578861Y3120324D1*
X1582580Y3129301D1*
X1587657Y3137587D1*
X1593969Y3144975D1*
X1601223Y3151180D1*
X1593969Y3157400D1*
X1587657Y3164789D1*
X1582580Y3173075D1*
X1578861Y3182051D1*
X1576593Y3191500D1*
X1575831Y3201188D1*
X1576593Y3210875D1*
X1578861Y3220324D1*
X1582580Y3229301D1*
X1587657Y3237587D1*
X1593969Y3244975D1*
X1601223Y3251180D1*
X1593969Y3257400D1*
X1587657Y3264789D1*
X1582580Y3273075D1*
X1578861Y3282051D1*
X1576593Y3291500D1*
X1575831Y3301188D1*
X1576593Y3310875D1*
X1578861Y3320324D1*
X1582580Y3329301D1*
X1587657Y3337587D1*
X1593969Y3344975D1*
X1601357Y3351286D1*
X1609643Y3356364D1*
X1618619Y3360083D1*
X1628068Y3362350D1*
X1637774Y3363112D1*
X1713480Y3362923D1*
X1720154Y3361984D1*
X1720155Y3465272D1*
X1832194D1*
Y3445571D1*
X1834497Y3452245D1*
X1838627Y3460353D1*
X1843976Y3467714D1*
X1850411Y3474148D1*
X1857772Y3479497D1*
X1865879Y3483627D1*
X1874534Y3486440D1*
X1883521Y3487864D1*
X1906444Y3488042D1*
X1955613Y3487864D1*
X1964600Y3486440D1*
X1973255Y3483627D1*
X1981362Y3479497D1*
X1988723Y3474148D1*
X1995157Y3467714D1*
X2000507Y3460353D1*
X2004636Y3452245D1*
X2007449Y3443591D1*
X2008873Y3434604D1*
Y3425504D1*
X2007449Y3416517D1*
X2004636Y3407862D1*
X2000507Y3399755D1*
X1999014Y3397522D1*
X2055858Y3340487D1*
X2060118Y3334625D1*
X2063408Y3328169D1*
X2065647Y3321277D1*
X2066781Y3314121D1*
X2066923Y3282938D1*
Y3081449D1*
X3982629Y2937302D2*
X3988424Y2941408D1*
X3996669Y2945609D1*
X4005471Y2948469D1*
X4014610Y2949916D1*
X4023865D1*
X4033004Y2948469D1*
X4041806Y2945609D1*
X4050051Y2941408D1*
X4057537Y2935969D1*
X4064080Y2929425D1*
X4069520Y2921940D1*
X4073720Y2913694D1*
X4076580Y2904892D1*
X4076972Y2902924D1*
X4077711Y2910875D1*
X4079979Y2920324D1*
X4083698Y2929301D1*
X4088776Y2937587D1*
X4095087Y2944975D1*
X4102341Y2951180D1*
X4095087Y2957400D1*
X4088776Y2964789D1*
X4083698Y2973075D1*
X4079979Y2982051D1*
X4077711Y2991500D1*
X4076949Y3001188D1*
X4077711Y3010875D1*
X4079979Y3020324D1*
X4083698Y3029301D1*
X4088776Y3037587D1*
X4095087Y3044975D1*
X4102341Y3051180D1*
X4094892Y3057609D1*
X3951336Y3057718D1*
X3945217Y3058686D1*
X3939324Y3060601D1*
X3933804Y3063415D1*
X3928791Y3067056D1*
X3924403Y3071446D1*
X3920509Y3070374D1*
X3908253Y3058118D1*
X3912157Y3054602D1*
X3916895Y3049054D1*
X3920707Y3042835D1*
X3923499Y3036094D1*
X3925202Y3029000D1*
X3925774Y3021727D1*
X3925202Y3014454D1*
X3923499Y3007360D1*
X3920707Y3000619D1*
X3916895Y2994400D1*
X3912157Y2988852D1*
X3906609Y2984114D1*
X3900390Y2980302D1*
X3893650Y2977510D1*
X3889870Y2976467D1*
X3865055Y2951661D1*
X3917121Y2951476D1*
X3926108Y2950052D1*
X3934762Y2947240D1*
X3942870Y2943110D1*
X3950231Y2937761D1*
X3950714Y2937315D1*
X3982549Y2937303D1*
X1747318Y1010068D2*
X1747133Y1023113D1*
X1746598Y1022986D1*
X1745349Y1021831D1*
X1745361Y1012075D1*
X1747316Y1010001D1*
X1840766Y1502951D2*
X1844361Y1499407D1*
X1847832Y1502944D1*
X1840831Y1502949D1*
X2546152Y1628513D2*
Y1609378D1*
X2434113D1*
Y1625920D1*
X2412299Y1625913D1*
X2554648Y1483366D1*
X2558290Y1478353D1*
X2561104Y1472833D1*
X2563018Y1466941D1*
X2563987Y1460822D1*
X2564109Y1420978D1*
Y1221928D1*
X2601948Y1184072D1*
X2601331Y1191046D1*
X2601453Y1334799D1*
X2602421Y1340919D1*
X2604336Y1346811D1*
X2607150Y1352331D1*
X2610791Y1357344D1*
X2642239Y1388965D1*
X2646950Y1392988D1*
X2652234Y1396226D1*
X2657958Y1398597D1*
X2663982Y1400043D1*
X2670159Y1400529D1*
X2676438D1*
X2681264Y1405139D1*
X2688625Y1410488D1*
X2689572Y1411018D1*
X2684840Y1414131D1*
X2677920Y1420041D1*
X2676508Y1421568D1*
X2655256Y1421682D1*
X2649136Y1422651D1*
X2643244Y1424566D1*
X2637724Y1427379D1*
X2632711Y1431021D1*
X2613066Y1450493D1*
X2609042Y1455205D1*
X2605804Y1460488D1*
X2603433Y1466213D1*
X2601987Y1472236D1*
X2601501Y1478413D1*
Y1678970D1*
X2557766Y1635374D1*
X2552753Y1631732D1*
X2547222Y1628915D1*
X2545979Y2058640D2*
X2544605Y2049958D1*
X2541888Y2041597D1*
X2537898Y2033765D1*
X2532730Y2026654D1*
X2526514Y2020438D1*
X2519403Y2015270D1*
X2511571Y2011280D1*
X2503210Y2008563D1*
X2494528Y2007189D1*
X2485738D1*
X2477055Y2008563D1*
X2468694Y2011280D1*
X2460862Y2015270D1*
X2453751Y2020438D1*
X2447535Y2026654D1*
X2442367Y2033765D1*
X2438377Y2041597D1*
X2435660Y2049958D1*
X2434286Y2058640D1*
Y2067430D1*
X2435660Y2076113D1*
X2438377Y2084474D1*
X2442367Y2092306D1*
X2447535Y2099417D1*
X2453751Y2105633D1*
X2460862Y2110801D1*
X2468694Y2114791D1*
X2477055Y2117508D1*
X2485738Y2118882D1*
X2494528D1*
X2503210Y2117508D1*
X2511571Y2114791D1*
X2519403Y2110801D1*
X2526514Y2105633D1*
X2532730Y2099417D1*
X2537898Y2092306D1*
X2541888Y2084474D1*
X2544605Y2076113D1*
X2545979Y2067430D1*
Y2058640D1*
X2730573Y3957428D2*
X2726878Y3949073D1*
X2723294Y3942673D1*
X2717072Y3933852D1*
X2777580Y3873197D1*
X2781222Y3868184D1*
X2784035Y3862664D1*
X2785950Y3856772D1*
X2786919Y3850652D1*
X2787041Y3810808D1*
Y3794337D1*
X2790513Y3790646D1*
X2795724Y3783474D1*
X2799748Y3775575D1*
X2802488Y3767144D1*
X2803874Y3758388D1*
Y3749525D1*
X2802488Y3740769D1*
X2799748Y3732339D1*
X2795724Y3724440D1*
X2790513Y3717268D1*
X2784245Y3711000D1*
X2777073Y3705789D1*
X2769175Y3701765D1*
X2760744Y3699025D1*
X2751988Y3697639D1*
X2743125D1*
X2734369Y3699025D1*
X2725938Y3701765D1*
X2718039Y3705789D1*
X2710867Y3711000D1*
X2704600Y3717268D1*
X2699388Y3724440D1*
X2695365Y3732339D1*
X2692625Y3740769D1*
X2691239Y3749525D1*
Y3758388D1*
X2692625Y3767144D1*
X2695365Y3775575D1*
X2699388Y3783474D1*
X2704600Y3790646D1*
X2708081Y3794337D1*
X2708072Y3831215D1*
X2641155Y3898115D1*
X2629025Y3899214D1*
X2621831Y3900646D1*
X2614770Y3902636D1*
X2607888Y3905176D1*
X2601227Y3908247D1*
X2594827Y3911831D1*
X2588727Y3915907D1*
X2582967Y3920448D1*
X2577580Y3925427D1*
X2572601Y3930814D1*
X2568060Y3936573D1*
X2563984Y3942673D1*
X2560400Y3949073D1*
X2557329Y3955735D1*
X2554790Y3962617D1*
X2552799Y3969677D1*
X2551367Y3976871D1*
X2550505Y3984156D1*
X2550218Y3991486D1*
X2550505Y3998815D1*
X2551367Y4006100D1*
X2552799Y4013294D1*
X2554790Y4020354D1*
X2557329Y4027236D1*
X2560400Y4033898D1*
X2563984Y4040298D1*
X2568060Y4046398D1*
X2572601Y4052157D1*
X2577580Y4057545D1*
X2582967Y4062524D1*
X2588727Y4067064D1*
X2594827Y4071140D1*
X2601227Y4074724D1*
X2607888Y4077795D1*
X2614770Y4080335D1*
X2621831Y4082325D1*
X2629025Y4083757D1*
X2636310Y4084619D1*
X2643639Y4084907D1*
X2650969Y4084619D1*
X2658253Y4083757D1*
X2665448Y4082325D1*
X2672508Y4080335D1*
X2679390Y4077795D1*
X2686051Y4074724D1*
X2692451Y4071140D1*
X2698551Y4067064D1*
X2704311Y4062524D1*
X2709698Y4057545D1*
X2714677Y4052157D1*
X2719218Y4046398D1*
X2723294Y4040298D1*
X2726878Y4033898D1*
X2730573Y4025543D1*
X2734175Y4035522D1*
X2737957Y4043728D1*
X2742373Y4051612D1*
X2747392Y4059125D1*
X2752986Y4066220D1*
X2759119Y4072856D1*
X2765755Y4078990D1*
X2772850Y4084583D1*
X2780364Y4089602D1*
X2788247Y4094018D1*
X2796453Y4097801D1*
X2804929Y4100928D1*
X2813626Y4103381D1*
X2822488Y4105143D1*
X2831461Y4106206D1*
X2840490Y4106560D1*
X2849518Y4106206D1*
X2858491Y4105143D1*
X2867353Y4103381D1*
X2876050Y4100928D1*
X2884526Y4097801D1*
X2892732Y4094018D1*
X2900615Y4089602D1*
X2908129Y4084583D1*
X2915224Y4078990D1*
X2921860Y4072856D1*
X2927993Y4066220D1*
X2933587Y4059125D1*
X2938606Y4051612D1*
X2943022Y4043728D1*
X2946804Y4035522D1*
X2949932Y4027046D1*
X2952385Y4018349D1*
X2954147Y4009487D1*
X2955210Y4000514D1*
X2955564Y3991486D1*
X2955210Y3982457D1*
X2954147Y3973484D1*
X2952385Y3964622D1*
X2949932Y3955925D1*
X2946804Y3947449D1*
X2943022Y3939243D1*
X2938606Y3931360D1*
X2933587Y3923846D1*
X2927993Y3916751D1*
X2921860Y3910115D1*
X2915224Y3903982D1*
X2908129Y3898388D1*
X2900615Y3893369D1*
X2892732Y3888953D1*
X2884526Y3885171D1*
X2876050Y3882043D1*
X2867353Y3879591D1*
X2858491Y3877828D1*
X2849518Y3876765D1*
X2840490Y3876411D1*
X2831461Y3876765D1*
X2822488Y3877828D1*
X2813626Y3879591D1*
X2804929Y3882043D1*
X2796453Y3885171D1*
X2788247Y3888953D1*
X2780364Y3893369D1*
X2772850Y3898388D1*
X2765755Y3903982D1*
X2759119Y3910115D1*
X2752986Y3916751D1*
X2747392Y3923846D1*
X2742373Y3931360D1*
X2737957Y3939243D1*
X2734175Y3947449D1*
X2730635Y3957386D1*
X3896707Y3680371D2*
X3895727Y3671240D1*
X3894098Y3662201D1*
X3891831Y3653301D1*
X3888934Y3644585D1*
X3885424Y3636097D1*
X3881319Y3627882D1*
X3876639Y3619979D1*
X3871408Y3612430D1*
X3865652Y3605273D1*
X3859402Y3598545D1*
X3852686Y3592277D1*
X3845543Y3586505D1*
X3838007Y3581256D1*
X3830115Y3576556D1*
X3821909Y3572432D1*
X3813430Y3568903D1*
X3804720Y3565986D1*
X3795827Y3563697D1*
X3786791Y3562047D1*
X3777661Y3561045D1*
X3768484Y3560697D1*
X3756915Y3561253D1*
X3759676Y3556652D1*
X3762046Y3550928D1*
X3763493Y3544904D1*
X3763979Y3538715D1*
X3764135Y3099702D1*
X3767448Y3093201D1*
X3769702Y3086262D1*
X3770844Y3079058D1*
Y3071761D1*
X3769702Y3064556D1*
X3767448Y3057618D1*
X3764135Y3051117D1*
X3759848Y3045215D1*
X3754689Y3040056D1*
X3748787Y3035769D1*
X3742286Y3032457D1*
X3735348Y3030202D1*
X3728143Y3029060D1*
X3720846D1*
X3713642Y3030202D1*
X3706703Y3032457D1*
X3700202Y3035769D1*
X3694301Y3040056D1*
X3689142Y3045215D1*
X3684854Y3051117D1*
X3681542Y3057618D1*
X3679287Y3064556D1*
X3678146Y3071761D1*
Y3079058D1*
X3679287Y3086262D1*
X3681542Y3093201D1*
X3685004Y3099927D1*
X3685010Y3522346D1*
X3583990Y3623566D1*
X3580348Y3628579D1*
X3577534Y3634098D1*
X3575619Y3639991D1*
X3574650Y3646123D1*
X3572976Y3647304D1*
X3563799Y3646957D1*
X3554619Y3647261D1*
X3545486Y3648220D1*
X3536442Y3649827D1*
X3527537Y3652075D1*
X3518815Y3654950D1*
X3510319Y3658440D1*
X3502093Y3662526D1*
X3494180Y3667188D1*
X3486619Y3672400D1*
X3479448Y3678139D1*
X3472705Y3684374D1*
X3466421Y3691073D1*
X3460633Y3698203D1*
X3455366Y3705728D1*
X3450648Y3713608D1*
X3446504Y3721804D1*
X3442954Y3730276D1*
X3440017Y3738978D1*
X3437707Y3747866D1*
X3436035Y3756898D1*
X3435013Y3766025D1*
X3434642Y3775202D1*
X3434925Y3784382D1*
X3435864Y3793518D1*
X3437449Y3802564D1*
X3439675Y3811475D1*
X3442530Y3820205D1*
X3445999Y3828709D1*
X3450066Y3836944D1*
X3454709Y3844867D1*
X3459904Y3852442D1*
X3465626Y3859626D1*
X3471845Y3866385D1*
X3478529Y3872682D1*
X3485646Y3878490D1*
X3493157Y3883773D1*
X3501026Y3888509D1*
X3509213Y3892673D1*
X3517676Y3896243D1*
X3526370Y3899201D1*
X3535255Y3901531D1*
X3544281Y3903224D1*
X3553407Y3904269D1*
X3562583Y3904661D1*
X3571762Y3904399D1*
X3580902Y3903483D1*
X3589951Y3901919D1*
X3598867Y3899714D1*
X3607604Y3896879D1*
X3616115Y3893430D1*
X3624361Y3889383D1*
X3632295Y3884759D1*
X3639882Y3879581D1*
X3647080Y3873877D1*
X3653853Y3867673D1*
X3660167Y3861004D1*
X3665990Y3853902D1*
X3671291Y3846402D1*
X3676046Y3838543D1*
X3680230Y3830367D1*
X3683819Y3821913D1*
X3686798Y3813226D1*
X3689150Y3804348D1*
X3691151Y3792865D1*
X3697843Y3797513D1*
X3705711Y3802249D1*
X3713898Y3806413D1*
X3722361Y3809983D1*
X3728713Y3812143D1*
X3728818Y3903584D1*
X3729786Y3909703D1*
X3731701Y3915596D1*
X3734514Y3921115D1*
X3738156Y3926129D1*
X3766243Y3954388D1*
X3938904Y4126877D1*
X3943917Y4130518D1*
X3949437Y4133332D1*
X3955329Y4135247D1*
X3961449Y4136215D1*
X3999104Y4136337D1*
X4002782Y4139810D1*
X4009954Y4145021D1*
X4017853Y4149045D1*
X4026283Y4151785D1*
X4035039Y4153171D1*
X4043903D1*
X4052659Y4151785D1*
X4061089Y4149045D1*
X4068988Y4145021D1*
X4076160Y4139810D1*
X4082428Y4133542D1*
X4087639Y4126370D1*
X4091663Y4118471D1*
X4094403Y4110041D1*
X4095789Y4101285D1*
Y4092421D1*
X4094403Y4083665D1*
X4091663Y4075235D1*
X4087639Y4067336D1*
X4082428Y4060164D1*
X4076160Y4053896D1*
X4068988Y4048685D1*
X4061089Y4044661D1*
X4052659Y4041921D1*
X4043903Y4040535D1*
X4035039D1*
X4026283Y4041921D1*
X4017853Y4044661D1*
X4009954Y4048685D1*
X4002782Y4053896D1*
X3999091Y4057378D1*
X3980873Y4057369D1*
X3807668Y3884135D1*
X3807664Y3812175D1*
X3820801Y3807171D1*
X3829046Y3803123D1*
X3836980Y3798499D1*
X3844567Y3793322D1*
X3851765Y3787617D1*
X3858538Y3781413D1*
X3864852Y3774744D1*
X3870675Y3767642D1*
X3875976Y3760142D1*
X3880731Y3752283D1*
X3884915Y3744108D1*
X3888504Y3735654D1*
X3891483Y3726966D1*
X3893835Y3718088D1*
X3895549Y3709064D1*
X3896614Y3699942D1*
X3897034Y3689550D1*
X3896707Y3680371D1*
X3334535Y3676031D2*
X3333555Y3666900D1*
X3331927Y3657861D1*
X3329659Y3648961D1*
X3326762Y3640245D1*
X3323252Y3631757D1*
X3319147Y3623542D1*
X3314467Y3615639D1*
X3309236Y3608091D1*
X3303480Y3600933D1*
X3297230Y3594205D1*
X3290514Y3587937D1*
X3283371Y3582165D1*
X3275835Y3576916D1*
X3267944Y3572217D1*
X3259738Y3568092D1*
X3251259Y3564563D1*
X3242549Y3561646D1*
X3233655Y3559357D1*
X3224619Y3557707D1*
X3215490Y3556705D1*
X3206312Y3556357D1*
X3197133Y3556661D1*
X3187999Y3557621D1*
X3178955Y3559227D1*
X3170050Y3561475D1*
X3161328Y3564350D1*
X3152832Y3567840D1*
X3144606Y3571927D1*
X3136693Y3576588D1*
X3129133Y3581801D1*
X3121961Y3587539D1*
X3115218Y3593774D1*
X3108934Y3600474D1*
X3103146Y3607604D1*
X3097879Y3615129D1*
X3093161Y3623008D1*
X3089017Y3631205D1*
X3085467Y3639676D1*
X3082530Y3648378D1*
X3080220Y3657266D1*
X3078549Y3666298D1*
X3077526Y3675425D1*
X3077155Y3684602D1*
X3077438Y3693782D1*
X3078377Y3702919D1*
X3079962Y3711965D1*
X3082188Y3720875D1*
X3085043Y3729605D1*
X3088512Y3738109D1*
X3092579Y3746344D1*
X3097222Y3754268D1*
X3102417Y3761843D1*
X3108139Y3769026D1*
X3114358Y3775785D1*
X3121042Y3782083D1*
X3128159Y3787890D1*
X3135671Y3793173D1*
X3143539Y3797909D1*
X3151726Y3802073D1*
X3160189Y3805643D1*
X3168883Y3808601D1*
X3177768Y3810932D1*
X3186794Y3812625D1*
X3195920Y3813669D1*
X3205096Y3814062D1*
X3214276Y3813799D1*
X3223415Y3812883D1*
X3232465Y3811319D1*
X3241381Y3809114D1*
X3250117Y3806280D1*
X3258629Y3802831D1*
X3266874Y3798783D1*
X3274808Y3794159D1*
X3282395Y3788982D1*
X3289593Y3783277D1*
X3296366Y3777073D1*
X3302680Y3770404D1*
X3308503Y3763302D1*
X3313804Y3755802D1*
X3318559Y3747944D1*
X3322743Y3739768D1*
X3326332Y3731314D1*
X3329311Y3722626D1*
X3331663Y3713748D1*
X3333377Y3704724D1*
X3334442Y3695602D1*
X3334862Y3685210D1*
X3334535Y3676031D1*
X2319751Y3714260D2*
X2316269Y3717951D1*
X2311058Y3725123D1*
X2309035Y3728736D1*
X2308337Y3720983D1*
X2306213Y3712134D1*
X2302731Y3703728D1*
X2297976Y3695970D1*
X2292067Y3689050D1*
X2285147Y3683140D1*
X2280415Y3680080D1*
X2285147Y3676967D1*
X2290564Y3672446D1*
X2319740Y3701642D1*
X2319741Y3714247D1*
X2416037Y2444399D2*
X2414651Y2435643D1*
X2411911Y2427213D1*
X2407887Y2419314D1*
X2402676Y2412142D1*
X2396408Y2405874D1*
X2393864Y2403867D1*
X2395790Y2402711D1*
X2510181Y2402705D1*
X2490051Y2422854D1*
X2480555Y2423555D1*
X2471936Y2425625D1*
X2463745Y2429017D1*
X2456188Y2433648D1*
X2449446Y2439406D1*
X2443689Y2446147D1*
X2439058Y2453705D1*
X2435665Y2461895D1*
X2433596Y2470514D1*
X2432900Y2479352D1*
X2433596Y2488189D1*
X2435190Y2495125D1*
X2435192Y2600680D1*
X2426903Y2599268D1*
X2419606D1*
X2412402Y2600409D1*
X2405463Y2602664D1*
X2398962Y2605976D1*
X2394034Y2609496D1*
X2391331Y2604249D1*
X2387689Y2599236D1*
X2354303Y2565677D1*
X2349592Y2561654D1*
X2344308Y2558416D1*
X2338584Y2556045D1*
X2332560Y2554598D1*
X2326383Y2554113D1*
X2293190D1*
X2288382Y2549503D1*
X2281021Y2544154D1*
X2280073Y2543623D1*
X2284806Y2540510D1*
X2291726Y2534601D1*
X2297635Y2527681D1*
X2302390Y2519923D1*
X2305871Y2511517D1*
X2307996Y2502668D1*
X2308710Y2493597D1*
X2307996Y2484526D1*
X2305871Y2475677D1*
X2302390Y2467272D1*
X2297635Y2459513D1*
X2291726Y2452593D1*
X2284806Y2446684D1*
X2280073Y2443623D1*
X2284806Y2440510D1*
X2291726Y2434601D1*
X2297635Y2427681D1*
X2302390Y2419923D1*
X2305871Y2411517D1*
X2307996Y2402668D1*
X2308710Y2393597D1*
X2307996Y2384526D1*
X2305871Y2375677D1*
X2302390Y2367272D1*
X2297635Y2359513D1*
X2291726Y2352593D1*
X2284806Y2346684D1*
X2280073Y2343623D1*
X2285743Y2339773D1*
X2331148Y2339774D1*
X2328320Y2345429D1*
X2326066Y2352367D1*
X2324924Y2359572D1*
Y2366869D1*
X2326066Y2374073D1*
X2328320Y2381012D1*
X2331633Y2387513D1*
X2335920Y2393415D1*
X2338723Y2396395D1*
X2334072Y2398496D1*
X2326514Y2403127D1*
X2319773Y2408885D1*
X2314016Y2415626D1*
X2309385Y2423184D1*
X2305992Y2431374D1*
X2303923Y2439993D1*
X2303227Y2448831D1*
X2303923Y2457668D1*
X2305992Y2466287D1*
X2309385Y2474478D1*
X2314016Y2482035D1*
X2319773Y2488777D1*
X2326514Y2494534D1*
X2334072Y2499165D1*
X2342262Y2502558D1*
X2350882Y2504627D1*
X2359719Y2505323D1*
X2368556Y2504627D1*
X2377176Y2502558D1*
X2385366Y2499165D1*
X2392924Y2494534D1*
X2399665Y2488777D1*
X2405423Y2482035D1*
X2410054Y2474478D1*
X2413446Y2466287D1*
X2415516Y2457668D1*
X2416211Y2448831D1*
X2416037Y2444399D1*
X3228621Y2855219D2*
X3226110Y2849419D1*
X3221479Y2841861D1*
X3215722Y2835119D1*
X3208980Y2829362D1*
X3201423Y2824731D1*
X3193232Y2821339D1*
X3184613Y2819269D1*
X3175776Y2818573D1*
X3166938Y2819269D1*
X3158319Y2821339D1*
X3150129Y2824731D1*
X3142571Y2829362D1*
X3136580Y2834425D1*
X3123403Y2834416D1*
X3118564Y2829806D1*
X3111203Y2824457D1*
X3110256Y2823927D1*
X3114988Y2820814D1*
X3121908Y2814904D1*
X3123320Y2813377D1*
X3159846Y2813262D1*
X3165966Y2812294D1*
X3171858Y2810379D1*
X3177378Y2807566D1*
X3182391Y2803924D1*
X3210651Y2775837D1*
X3267075Y2719240D1*
X3270717Y2714227D1*
X3273530Y2708707D1*
X3275445Y2702815D1*
X3276413Y2696696D1*
X3276535Y2656852D1*
X3276413Y2512252D1*
X3275445Y2506133D1*
X3273530Y2500240D1*
X3270717Y2494720D1*
X3267075Y2489707D1*
X3259341Y2481580D1*
X3257087Y2474642D1*
X3253774Y2468140D1*
X3249487Y2462239D1*
X3244328Y2457080D1*
X3238427Y2452793D1*
X3231925Y2449480D1*
X3224987Y2447226D1*
X3217782Y2446084D1*
X3210486D1*
X3203281Y2447226D1*
X3196343Y2449480D1*
X3189841Y2452793D1*
X3183940Y2457080D1*
X3178781Y2462239D1*
X3174493Y2468140D1*
X3171181Y2474642D1*
X3168927Y2481580D1*
X3167785Y2488785D1*
Y2496081D1*
X3168927Y2503286D1*
X3171181Y2510224D1*
X3174493Y2516726D1*
X3178781Y2522627D1*
X3183940Y2527786D1*
X3189841Y2532073D1*
X3196343Y2535386D1*
X3197559Y2535836D1*
X3197567Y2677224D1*
X3140394Y2734416D1*
X3123340D1*
X3118564Y2729806D1*
X3111203Y2724457D1*
X3110256Y2723927D1*
X3114988Y2720814D1*
X3121908Y2714904D1*
X3127818Y2707984D1*
X3132572Y2700226D1*
X3136054Y2691820D1*
X3138178Y2682971D1*
X3138892Y2673900D1*
X3138178Y2664829D1*
X3136054Y2655980D1*
X3132572Y2647575D1*
X3127818Y2639816D1*
X3121908Y2632896D1*
X3114988Y2626987D1*
X3110256Y2623927D1*
X3114988Y2620814D1*
X3121908Y2614904D1*
X3127818Y2607984D1*
X3132572Y2600226D1*
X3136054Y2591820D1*
X3138178Y2582971D1*
X3138892Y2573900D1*
X3138178Y2564829D1*
X3136054Y2555980D1*
X3132572Y2547575D1*
X3132215Y2546938D1*
X3151214Y2527761D1*
X3154856Y2522748D1*
X3157669Y2517228D1*
X3159584Y2511336D1*
X3160552Y2505217D1*
X3160675Y2465373D1*
Y2365794D1*
X3166346Y2371566D1*
X3172248Y2375853D1*
X3178749Y2379165D1*
X3185688Y2381420D1*
X3192892Y2382562D1*
X3200189D1*
X3207394Y2381420D1*
X3214332Y2379165D1*
X3220833Y2375853D1*
X3226735Y2371566D1*
X3231894Y2366407D1*
X3236181Y2360505D1*
X3239493Y2354004D1*
X3241801Y2346801D1*
X3270404Y2318016D1*
X3274046Y2313003D1*
X3276860Y2307483D1*
X3278774Y2301591D1*
X3279743Y2295471D1*
X3279865Y2255627D1*
Y2188703D1*
X3286849Y2181724D1*
X3286832Y2885038D1*
X3284077Y2878437D1*
X3280265Y2872218D1*
X3275528Y2866669D1*
X3269979Y2861932D1*
X3263760Y2858119D1*
X3257020Y2855328D1*
X3249925Y2853625D1*
X3242652Y2853052D1*
X3235379Y2853625D1*
X3228656Y2855223D1*
X2805088Y2338904D2*
X2803702Y2330148D1*
X2800962Y2321718D1*
X2796938Y2313819D1*
X2791727Y2306647D1*
X2785459Y2300379D1*
X2778287Y2295168D1*
X2774825Y2293230D1*
X2781992Y2288791D1*
X2788734Y2283034D1*
X2794491Y2276293D1*
X2799122Y2268735D1*
X2802514Y2260545D1*
X2804584Y2251925D1*
X2805280Y2243088D1*
X2804584Y2234251D1*
X2802514Y2225631D1*
X2799122Y2217441D1*
X2794491Y2209883D1*
X2788734Y2203142D1*
X2781992Y2197385D1*
X2774434Y2192753D1*
X2766244Y2189361D1*
X2757625Y2187291D1*
X2752648Y2186748D1*
X2756480Y2182912D1*
X2822256Y2182928D1*
X2822272Y2533266D1*
X2814988Y2526987D1*
X2807230Y2522232D1*
X2798824Y2518751D1*
X2789975Y2516626D1*
X2788898Y2516499D1*
X2788770Y2458332D1*
X2787802Y2452213D1*
X2785887Y2446320D1*
X2783073Y2440801D1*
X2779432Y2435787D1*
X2751345Y2407528D1*
X2743403Y2399585D1*
X2748770Y2399828D1*
X2757608Y2399133D1*
X2766227Y2397063D1*
X2774417Y2393671D1*
X2781975Y2389039D1*
X2788717Y2383282D1*
X2794474Y2376541D1*
X2799105Y2368983D1*
X2802497Y2360793D1*
X2804567Y2352173D1*
X2805262Y2343336D1*
X2805088Y2338904D1*
X2545710Y2174920D2*
X2544324Y2166164D1*
X2541584Y2157734D1*
X2537560Y2149835D1*
X2532349Y2142663D1*
X2526081Y2136395D1*
X2518909Y2131184D1*
X2511010Y2127160D1*
X2502580Y2124420D1*
X2493824Y2123034D1*
X2484961D1*
X2476205Y2124420D1*
X2467774Y2127160D1*
X2459875Y2131184D1*
X2452703Y2136395D1*
X2446436Y2142663D1*
X2441224Y2149835D1*
X2437201Y2157734D1*
X2434461Y2166164D1*
X2433075Y2174920D1*
Y2183783D1*
X2434461Y2192539D1*
X2437201Y2200970D1*
X2441224Y2208869D1*
X2446436Y2216041D1*
X2452703Y2222308D1*
X2459875Y2227520D1*
X2467774Y2231543D1*
X2476205Y2234283D1*
X2484961Y2235669D1*
X2493824D1*
X2502580Y2234283D1*
X2511010Y2231543D1*
X2518909Y2227520D1*
X2526081Y2222308D1*
X2532349Y2216041D1*
X2537560Y2208869D1*
X2541584Y2200970D1*
X2544324Y2192539D1*
X2545710Y2183783D1*
Y2174920D1*
X3287902Y3188525D2*
X3283600Y3181556D1*
X3277843Y3174815D1*
X3271101Y3169058D1*
X3263543Y3164427D1*
X3255353Y3161034D1*
X3254198Y3160575D1*
X3272676Y3141924D1*
X3276318Y3136911D1*
X3279131Y3131391D1*
X3281046Y3125499D1*
X3282014Y3119379D1*
X3282136Y3079535D1*
X3282293Y2923837D1*
X3285605Y2917336D1*
X3286835Y2914005D1*
X3286974Y3006770D1*
X3288108Y3013927D1*
X3290346Y3020819D1*
X3293636Y3027274D1*
X3297896Y3033136D1*
X3319844Y3055286D1*
X3424411Y3159853D1*
X3416186Y3162517D1*
X3408287Y3166541D1*
X3401115Y3171752D1*
X3397541Y3175106D1*
X3378436Y3175101D1*
X3371232Y3168882D1*
X3363675Y3164251D1*
X3355484Y3160858D1*
X3346865Y3158789D1*
X3338028Y3158093D1*
X3329190Y3158789D1*
X3320571Y3160858D1*
X3312381Y3164251D1*
X3304823Y3168882D1*
X3298081Y3174639D1*
X3292324Y3181381D1*
X3287921Y3188530D1*
X3187807Y3240846D2*
X3192193Y3247966D1*
X3197950Y3254707D1*
X3204692Y3260465D1*
X3212249Y3265096D1*
X3220440Y3268488D1*
X3229059Y3270558D1*
X3237896Y3271253D1*
X3246734Y3270558D1*
X3255353Y3268488D1*
X3263543Y3265096D1*
X3271101Y3260465D1*
X3277843Y3254707D1*
X3283600Y3247966D1*
X3288003Y3240816D1*
X3292324Y3247790D1*
X3298081Y3254531D1*
X3304823Y3260289D1*
X3312381Y3264920D1*
X3320571Y3268312D1*
X3329190Y3270382D1*
X3338028Y3271077D1*
X3346865Y3270382D1*
X3355484Y3268312D1*
X3363675Y3264920D1*
X3371232Y3260289D1*
X3377974Y3254531D1*
X3378408Y3254060D1*
X3397273Y3254070D1*
X3397972Y3254760D1*
X3398104Y3366629D1*
X3399072Y3372748D1*
X3400987Y3378640D1*
X3402291Y3381466D1*
X3396358Y3382320D1*
X3250776D1*
X3187795Y3319311D1*
X3187814Y3240913D1*
X2688301Y1974966D2*
X2682240Y1979072D1*
X2629820Y1926657D1*
X2629832Y1906315D1*
X2661049Y1937546D1*
X2662503Y1942860D1*
X2665984Y1951265D1*
X2670739Y1959024D1*
X2676648Y1965944D1*
X2683568Y1971853D1*
X2688301Y1974913D1*
X2717671Y1766953D2*
X2708581Y1767665D1*
X2699732Y1769790D1*
X2691327Y1773272D1*
X2683568Y1778026D1*
X2680480Y1780459D1*
X2680470Y1619031D1*
X2822307Y1619033D1*
X2822272Y1784567D1*
X2818304Y1780845D1*
X2810944Y1775496D1*
X2802836Y1771366D1*
X2794181Y1768554D1*
X2785194Y1767130D1*
X2762272Y1766951D1*
X2717652Y1766987D1*
X1974609Y2240804D2*
X1968642Y2238448D1*
X1959793Y2236323D1*
X1950722Y2235609D1*
X1887730D1*
X1878659Y2236323D1*
X1869810Y2238448D1*
X1861404Y2241929D1*
X1853646Y2246684D1*
X1852709Y2247421D1*
X1601420Y2247562D1*
X1577223Y2247681D1*
X1554940D1*
X1557756Y425917D1*
X4168877Y425886D1*
X4160600Y434360D1*
X4156157Y439993D1*
X4152172Y445959D1*
X4148667Y452219D1*
X4145663Y458735D1*
X4143180Y465466D1*
X4141232Y472370D1*
X4139832Y479407D1*
X4138990Y486531D1*
X4138707Y493701D1*
X4138990Y500870D1*
X4139832Y507995D1*
X4141232Y515031D1*
X4143180Y521936D1*
X4145663Y528667D1*
X4148667Y535182D1*
X4152172Y541442D1*
X4156157Y547408D1*
X4160600Y553042D1*
X4165470Y558310D1*
X4170738Y563180D1*
X4176371Y567622D1*
X4182337Y571608D1*
X4188597Y575113D1*
X4195113Y578117D1*
X4201844Y580600D1*
X4208748Y582547D1*
X4215785Y583948D1*
X4222909Y584790D1*
X4230079Y585072D1*
X4237248Y584790D1*
X4244373Y583948D1*
X4251409Y582547D1*
X4258314Y580600D1*
X4265045Y578117D1*
X4271560Y575113D1*
X4277820Y571608D1*
X4283786Y567622D1*
X4289420Y563180D1*
X4294688Y558310D1*
X4300790Y551479D1*
X4300562Y958402D1*
X4296510Y953824D1*
X4289769Y948067D1*
X4282211Y943436D1*
X4274021Y940043D1*
X4265402Y937974D1*
X4256564Y937278D1*
X4247727Y937974D1*
X4239108Y940043D1*
X4230917Y943436D1*
X4223360Y948067D1*
X4216618Y953824D1*
X4210861Y960566D1*
X4206230Y968123D1*
X4202837Y976314D1*
X4200768Y984933D1*
X4200072Y993770D1*
X4200768Y1002608D1*
X4202837Y1011227D1*
X4206230Y1019417D1*
X4210861Y1026975D1*
X4216618Y1033717D1*
X4223360Y1039474D1*
X4230917Y1044105D1*
X4239108Y1047497D1*
X4243160Y1048640D1*
X4243147Y1370749D1*
X4237878Y1367752D1*
X4228902Y1364033D1*
X4219453Y1361765D1*
X4209765Y1361003D1*
X4138899D1*
X4129211Y1361765D1*
X4119762Y1364033D1*
X4110786Y1367752D1*
X4107488Y1369598D1*
X4107360Y1138954D1*
X4106391Y1132835D1*
X4104476Y1126942D1*
X4101663Y1121423D1*
X4098021Y1116409D1*
X4069934Y1088150D1*
X4042652Y1061041D1*
X4037639Y1057399D1*
X4032119Y1054585D1*
X4026227Y1052671D1*
X4020108Y1051702D1*
X3980264Y1051580D1*
X2737698Y1051702D1*
X2734608Y1052068D1*
X2734425Y1051594D1*
X3100190Y685828D1*
X3105445Y683130D1*
X3110458Y679488D1*
X3143513Y646605D1*
X3150900Y647038D1*
X3160588Y646276D1*
X3170037Y644008D1*
X3179013Y640289D1*
X3187299Y635211D1*
X3194688Y628900D1*
X3200999Y621512D1*
X3206076Y613226D1*
X3209795Y604249D1*
X3212063Y594801D1*
X3212825Y585113D1*
X3212635Y509388D1*
X3211114Y499790D1*
X3208112Y490549D1*
X3203701Y481891D1*
X3197988Y474029D1*
X3191118Y467159D1*
X3183256Y461446D1*
X3174598Y457035D1*
X3165357Y454033D1*
X3155759Y452512D1*
X3146042D1*
X3136444Y454033D1*
X3127202Y457035D1*
X3118545Y461446D1*
X3110682Y467159D1*
X3103812Y474029D1*
X3100908Y477714D1*
X3094688Y470459D1*
X3087299Y464148D1*
X3079013Y459071D1*
X3070037Y455352D1*
X3060588Y453084D1*
X3050900Y452322D1*
X3041213Y453084D1*
X3031764Y455352D1*
X3022787Y459071D1*
X3014501Y464148D1*
X3007113Y470459D1*
X3000908Y477714D1*
X2994688Y470459D1*
X2987299Y464148D1*
X2979013Y459071D1*
X2970037Y455352D1*
X2960588Y453084D1*
X2950900Y452322D1*
X2941213Y453084D1*
X2931764Y455352D1*
X2922787Y459071D1*
X2914501Y464148D1*
X2907113Y470459D1*
X2900802Y477848D1*
X2895724Y486134D1*
X2892005Y495110D1*
X2889738Y504559D1*
X2888976Y514265D1*
X2889165Y589971D1*
X2890686Y599570D1*
X2893689Y608811D1*
X2898100Y617469D1*
X2903812Y625331D1*
X2910682Y632201D1*
X2918545Y637913D1*
X2927202Y642324D1*
X2936444Y645327D1*
X2946042Y646848D1*
X2955759D1*
X2965357Y645327D1*
X2974598Y642324D1*
X2983256Y637913D1*
X2991118Y632201D1*
X2997988Y625331D1*
X3000892Y621646D1*
X3007113Y628900D1*
X3014501Y635211D1*
X3022787Y640289D1*
X3030713Y643619D1*
X2494601Y1179912D1*
X2490959Y1184925D1*
X2488146Y1190445D1*
X2486231Y1196337D1*
X2485262Y1202457D1*
X2485140Y1242301D1*
Y1441350D1*
X2271672Y1654833D1*
X2269066Y1648773D1*
X2264434Y1641215D1*
X2258677Y1634474D1*
X2251936Y1628717D1*
X2244378Y1624085D1*
X2236188Y1620693D1*
X2229081Y1618924D1*
X2255294Y1618747D1*
X2264281Y1617323D1*
X2272936Y1614510D1*
X2281043Y1610381D1*
X2288404Y1605031D1*
X2294839Y1598597D1*
X2300188Y1591236D1*
X2304318Y1583129D1*
X2307130Y1574474D1*
X2308554Y1565487D1*
Y1556387D1*
X2307130Y1547400D1*
X2304318Y1538745D1*
X2300188Y1530638D1*
X2294839Y1523277D1*
X2288404Y1516843D1*
X2281043Y1511493D1*
X2280096Y1510963D1*
X2284828Y1507850D1*
X2291748Y1501941D1*
X2297657Y1495021D1*
X2302412Y1487262D1*
X2305894Y1478857D1*
X2308018Y1470008D1*
X2308732Y1460937D1*
X2308018Y1451866D1*
X2305894Y1443017D1*
X2302412Y1434612D1*
X2297657Y1426853D1*
X2291748Y1419933D1*
X2284828Y1414024D1*
X2280096Y1410963D1*
X2284828Y1407850D1*
X2291748Y1401941D1*
X2297657Y1395021D1*
X2302412Y1387262D1*
X2305894Y1378857D1*
X2308018Y1370008D1*
X2308732Y1360937D1*
X2308018Y1351866D1*
X2305894Y1343017D1*
X2302412Y1334612D1*
X2297657Y1326853D1*
X2291748Y1319933D1*
X2284828Y1314024D1*
X2280096Y1310963D1*
X2284828Y1307850D1*
X2291748Y1301941D1*
X2297657Y1295021D1*
X2302412Y1287262D1*
X2305894Y1278857D1*
X2308018Y1270008D1*
X2308732Y1260937D1*
X2308018Y1251866D1*
X2305894Y1243017D1*
X2302412Y1234612D1*
X2297657Y1226853D1*
X2291748Y1219933D1*
X2284828Y1214024D1*
X2277070Y1209269D1*
X2268664Y1205787D1*
X2259815Y1203663D1*
X2250744Y1202949D1*
X2187752D1*
X2178681Y1203663D1*
X2169832Y1205787D1*
X2161427Y1209269D1*
X2153668Y1214024D1*
X2146748Y1219933D1*
X2140839Y1226853D1*
X2136084Y1234612D1*
X2132602Y1243017D1*
X2130478Y1251866D1*
X2129764Y1260937D1*
X2130478Y1270008D1*
X2132602Y1278857D1*
X2136084Y1287262D1*
X2140839Y1295021D1*
X2146748Y1301941D1*
X2153668Y1307850D1*
X2158400Y1310911D1*
X2153668Y1314024D1*
X2146748Y1319933D1*
X2140839Y1326853D1*
X2136084Y1334612D1*
X2132602Y1343017D1*
X2130478Y1351866D1*
X2129764Y1360937D1*
X2130478Y1370008D1*
X2132602Y1378857D1*
X2136084Y1387262D1*
X2140839Y1395021D1*
X2146748Y1401941D1*
X2153668Y1407850D1*
X2158400Y1410911D1*
X2153668Y1414024D1*
X2146748Y1419933D1*
X2140839Y1426853D1*
X2136084Y1434612D1*
X2132602Y1443017D1*
X2130478Y1451866D1*
X2129764Y1460937D1*
X2130478Y1470008D1*
X2132602Y1478857D1*
X2136084Y1487262D1*
X2140839Y1495021D1*
X2146748Y1501941D1*
X2153668Y1507850D1*
X2158400Y1510911D1*
X2153668Y1514024D1*
X2146748Y1519933D1*
X2140839Y1526853D1*
X2136084Y1534612D1*
X2132602Y1543017D1*
X2130478Y1551866D1*
X2129764Y1560937D1*
X2130478Y1570008D1*
X2132602Y1578857D1*
X2136084Y1587262D1*
X2140839Y1595021D1*
X2146748Y1601941D1*
X2153668Y1607850D1*
X2161427Y1612605D1*
X2169832Y1616087D1*
X2178681Y1618211D1*
X2187770Y1618924D1*
X2208171Y1618925D1*
X2201274Y1620693D1*
X2193084Y1624085D1*
X2185526Y1628717D1*
X2178785Y1634474D1*
X2173028Y1641215D1*
X2168396Y1648773D1*
X2165004Y1656963D1*
X2162934Y1665583D1*
X2162239Y1674420D1*
X2162934Y1683257D1*
X2165004Y1691877D1*
X2168396Y1700067D1*
X2173028Y1707625D1*
X2178785Y1714366D1*
X2185526Y1720123D1*
X2193084Y1724755D1*
X2199144Y1727361D1*
X2149433Y1777248D1*
X2145791Y1782261D1*
X2142978Y1787781D1*
X2141063Y1793673D1*
X2140094Y1799793D1*
X2139972Y1839636D1*
X2139816Y2026794D1*
X2136504Y2033295D1*
X2134249Y2040234D1*
X2133108Y2047438D1*
Y2054735D1*
X2134249Y2061940D1*
X2136504Y2068878D1*
X2139816Y2075379D1*
X2144104Y2081281D1*
X2149262Y2086440D1*
X2155164Y2090727D1*
X2161665Y2094039D1*
X2168604Y2096294D1*
X2175808Y2097436D1*
X2183105D1*
X2190310Y2096294D1*
X2197248Y2094039D1*
X2203749Y2090727D1*
X2209651Y2086440D1*
X2214810Y2081281D1*
X2219097Y2075379D1*
X2222409Y2068878D1*
X2224664Y2061940D1*
X2225806Y2054735D1*
Y2047438D1*
X2224664Y2040234D1*
X2222409Y2033295D1*
X2218948Y2026570D1*
X2218941Y1838186D1*
X2223504Y1841398D1*
X2230005Y1844710D1*
X2236944Y1846965D1*
X2244148Y1848106D1*
X2251445D1*
X2258650Y1846965D1*
X2265588Y1844710D1*
X2272089Y1841398D1*
X2277991Y1837110D1*
X2283150Y1831951D1*
X2287437Y1826050D1*
X2290749Y1819549D1*
X2293056Y1812345D1*
X2383879Y1721735D1*
X2390818Y1719480D1*
X2397319Y1716168D1*
X2403220Y1711881D1*
X2408379Y1706722D1*
X2409836Y1704874D1*
X2434113Y1704866D1*
Y1721417D1*
X2495008D1*
X2490647Y1725852D1*
X2486360Y1731753D1*
X2483047Y1738255D1*
X2480793Y1745193D1*
X2479651Y1752398D1*
Y1759694D1*
X2480793Y1766899D1*
X2483047Y1773837D1*
X2486509Y1780563D1*
X2486516Y1871486D1*
X2484787Y1875971D1*
X2483084Y1883066D1*
X2482512Y1890339D1*
X2483084Y1897612D1*
X2484787Y1904706D1*
X2487579Y1911446D1*
X2491391Y1917665D1*
X2496129Y1923214D1*
X2501677Y1927951D1*
X2507896Y1931764D1*
X2514636Y1934555D1*
X2521731Y1936259D1*
X2529004Y1936831D1*
X2536277Y1936259D1*
X2543371Y1934555D1*
X2550112Y1931764D1*
X2550870Y1931339D1*
X2550986Y1946123D1*
X2551954Y1952243D1*
X2553869Y1958135D1*
X2556682Y1963655D1*
X2560324Y1968668D1*
X2588411Y1996928D1*
X2646619Y2054963D1*
X2651633Y2058605D1*
X2657152Y2061419D1*
X2663045Y2063333D1*
X2669164Y2064302D1*
X2675169Y2064424D1*
X2677732Y2066946D1*
X2659664Y2066951D1*
Y2149091D1*
X2561385Y2247399D1*
X2285774Y2247420D1*
X2281021Y2244154D1*
X2272913Y2240024D1*
X2264259Y2237211D1*
X2255272Y2235787D1*
X2232349Y2235609D1*
X2187730D1*
X2181432Y2235995D1*
X2453770Y1963488D1*
X2457412Y1958475D1*
X2460226Y1952955D1*
X2462140Y1947063D1*
X2463109Y1940944D1*
X2463231Y1901100D1*
X2463387Y1791903D1*
X2466699Y1785402D1*
X2468954Y1778463D1*
X2470096Y1771259D1*
Y1763962D1*
X2468954Y1756757D1*
X2466699Y1749819D1*
X2463387Y1743318D1*
X2459100Y1737416D1*
X2453941Y1732257D1*
X2448039Y1727970D1*
X2441538Y1724657D1*
X2434600Y1722403D1*
X2427395Y1721261D1*
X2420098D1*
X2412894Y1722403D1*
X2405955Y1724657D1*
X2399454Y1727970D1*
X2393552Y1732257D1*
X2388394Y1737416D1*
X2384106Y1743318D1*
X2380794Y1749819D1*
X2378539Y1756757D1*
X2377398Y1763962D1*
Y1771259D1*
X2378539Y1778463D1*
X2380794Y1785402D1*
X2384256Y1792127D1*
X2384262Y1921517D1*
X2118312Y2187441D1*
X2111108Y2189740D1*
X2104606Y2193052D1*
X2098705Y2197340D1*
X2093546Y2202499D1*
X2089259Y2208400D1*
X2085946Y2214902D1*
X2083692Y2221840D1*
X2082550Y2229045D1*
Y2236341D1*
X2083692Y2243546D1*
X2084815Y2247421D1*
X2066969Y2247420D1*
X2067676Y1279896D1*
X2067534Y1264438D1*
X2066400Y1257282D1*
X2064161Y1250390D1*
X2060871Y1243934D1*
X2056612Y1238072D1*
X2047026Y1228285D1*
X2041516Y1223579D1*
X2035339Y1219793D1*
X2028643Y1217020D1*
X2021597Y1215328D1*
X2014374Y1214760D1*
X1985846D1*
X1981043Y1211493D1*
X1972936Y1207364D1*
X1964281Y1204551D1*
X1955294Y1203127D1*
X1932371Y1202949D1*
X1887752D1*
X1878681Y1203663D1*
X1869832Y1205787D1*
X1863348Y1208383D1*
X1863360Y1190328D1*
X1865066Y1188622D1*
X2081849Y1188524D1*
X2087969Y1187555D1*
X2093861Y1185640D1*
X2099381Y1182827D1*
X2104394Y1179185D1*
X2132654Y1151098D1*
X2165163Y1118416D1*
X2168804Y1113403D1*
X2171618Y1107883D1*
X2173533Y1101991D1*
X2174501Y1095871D1*
X2174623Y1056028D1*
X2174501Y884420D1*
X2173533Y878301D1*
X2171618Y872408D1*
X2168804Y866888D1*
X2165163Y861875D1*
X2137076Y833615D1*
X2040802Y737514D1*
X2035789Y733873D1*
X2030269Y731059D1*
X2024377Y729144D1*
X2018257Y728176D1*
X1978413Y728054D1*
X1961091Y728056D1*
X1955639Y722696D1*
X1948154Y717256D1*
X1939908Y713055D1*
X1931106Y710196D1*
X1921967Y708748D1*
X1914322Y708684D1*
X1859774Y654134D1*
X1856497Y646269D1*
X1851866Y638711D1*
X1846109Y631970D1*
X1839367Y626213D1*
X1831810Y621581D1*
X1823619Y618189D1*
X1815000Y616119D1*
X1806163Y615424D1*
X1797325Y616119D1*
X1788706Y618189D1*
X1780516Y621581D1*
X1772958Y626213D1*
X1766017Y632186D1*
X1746314D1*
X1739081Y625967D1*
X1731524Y621336D1*
X1723333Y617944D1*
X1714714Y615874D1*
X1705877Y615178D1*
X1697039Y615874D1*
X1688420Y617944D1*
X1680230Y621336D1*
X1672672Y625967D1*
X1665930Y631724D1*
X1660173Y638466D1*
X1655542Y646024D1*
X1652150Y654214D1*
X1650080Y662833D1*
X1649385Y671671D1*
X1650080Y680508D1*
X1652150Y689127D1*
X1655542Y697318D1*
X1660173Y704875D1*
X1665930Y711617D1*
X1672672Y717374D1*
X1680230Y722005D1*
X1688420Y725398D1*
X1697039Y727467D1*
X1705877Y728163D1*
X1714714Y727467D1*
X1723333Y725398D1*
X1731524Y722005D1*
X1739081Y717374D1*
X1745823Y711617D1*
X1746257Y711146D1*
X1765552Y711155D1*
X1769474Y714873D1*
X1776646Y720084D1*
X1784545Y724108D1*
X1792975Y726848D1*
X1801731Y728234D1*
X1810594D1*
X1819350Y726848D1*
X1820501Y726522D1*
X1858425Y764463D1*
X1858550Y772165D1*
X1859997Y781304D1*
X1862857Y790106D1*
X1867058Y798352D1*
X1872497Y805837D1*
X1879041Y812381D1*
X1886526Y817820D1*
X1894772Y822021D1*
X1903573Y824881D1*
X1912713Y826328D1*
X1921967D1*
X1931106Y824881D1*
X1939908Y822021D1*
X1948154Y817820D1*
X1955639Y812381D1*
X1961091Y807020D1*
X1998833Y807022D1*
X2095661Y903881D1*
X2095682Y1011273D1*
X2011474D1*
Y1024873D1*
X1859391Y1024856D1*
X1859357Y1007664D1*
X1749444D1*
X1754045Y1001188D1*
X1758068Y993289D1*
X1760808Y984858D1*
X1762194Y976102D1*
Y967239D1*
X1760808Y958483D1*
X1758068Y950052D1*
X1754045Y942154D1*
X1748833Y934982D1*
X1742566Y928714D1*
X1735394Y923503D1*
X1727495Y919479D1*
X1719064Y916739D1*
X1710308Y915353D1*
X1701445D1*
X1692689Y916739D1*
X1684259Y919479D1*
X1676360Y923503D1*
X1669188Y928714D1*
X1662920Y934982D1*
X1657709Y942154D1*
X1653685Y950052D1*
X1650945Y958483D1*
X1649559Y967239D1*
Y976102D1*
X1650945Y984858D1*
X1653685Y993289D1*
X1657709Y1001188D1*
X1662920Y1008360D1*
X1666402Y1012051D1*
X1666392Y1024026D1*
X1661665Y1029669D1*
X1657073Y1037165D1*
X1653709Y1045286D1*
X1651657Y1053833D1*
X1650967Y1062597D1*
X1651657Y1071361D1*
X1653709Y1079908D1*
X1657073Y1088029D1*
X1661665Y1095525D1*
X1667375Y1102209D1*
X1674059Y1107919D1*
X1681555Y1112510D1*
X1689676Y1115875D1*
X1698223Y1117927D1*
X1706987Y1118617D1*
X1715751Y1117927D1*
X1724298Y1115875D1*
X1732419Y1112510D1*
X1739915Y1107919D1*
X1746727Y1102071D1*
X1747318Y1108714D1*
Y1119703D1*
X1822424D1*
X1795955Y1146052D1*
X1791932Y1150764D1*
X1788694Y1156047D1*
X1786323Y1161772D1*
X1784877Y1167795D1*
X1784391Y1173984D1*
X1784513Y1305636D1*
X1785482Y1311756D1*
X1787396Y1317648D1*
X1790210Y1323168D1*
X1793852Y1328181D1*
X1821938Y1356441D1*
X1829881Y1364383D1*
X1830478Y1370008D1*
X1832602Y1378857D1*
X1836084Y1387262D1*
X1840839Y1395021D1*
X1846748Y1401941D1*
X1853668Y1407850D1*
X1858400Y1410911D1*
X1853668Y1414024D1*
X1846748Y1419933D1*
X1844056Y1422845D1*
X1839719Y1418724D1*
X1832608Y1413556D1*
X1824776Y1409566D1*
X1816415Y1406849D1*
X1807732Y1405475D1*
X1798942D1*
X1790260Y1406849D1*
X1781899Y1409566D1*
X1774067Y1413556D1*
X1766955Y1418724D1*
X1760740Y1424940D1*
X1755572Y1432051D1*
X1751581Y1439883D1*
X1748865Y1448244D1*
X1747491Y1456927D1*
Y1465717D1*
X1748865Y1474399D1*
X1751581Y1482760D1*
X1755572Y1490592D1*
X1760740Y1497703D1*
X1766955Y1503919D1*
X1774067Y1509087D1*
X1781899Y1513077D1*
X1790260Y1515794D1*
X1798942Y1517168D1*
X1807732D1*
X1816415Y1515794D1*
X1824776Y1513077D1*
X1829774Y1510673D1*
X1829764Y1618925D1*
X1908171D1*
X1901274Y1620693D1*
X1893084Y1624085D1*
X1885526Y1628717D1*
X1878785Y1634474D1*
X1873028Y1641215D1*
X1868396Y1648773D1*
X1865004Y1656963D1*
X1862934Y1665583D1*
X1862239Y1674420D1*
X1862934Y1683257D1*
X1865004Y1691877D1*
X1868396Y1700067D1*
X1873028Y1707625D1*
X1878785Y1714366D1*
X1885526Y1720123D1*
X1893084Y1724755D1*
X1901274Y1728147D1*
X1909894Y1730217D1*
X1918731Y1730912D1*
X1927568Y1730217D1*
X1936188Y1728147D1*
X1944378Y1724755D1*
X1951936Y1720123D1*
X1958677Y1714366D1*
X1964434Y1707625D1*
X1969066Y1700067D1*
X1972458Y1691877D1*
X1974528Y1683257D1*
X1975192Y1675234D1*
X1975049Y1669988D1*
X1973663Y1661232D1*
X1970923Y1652802D1*
X1966899Y1644903D1*
X1961688Y1637731D1*
X1955420Y1631463D1*
X1948248Y1626252D1*
X1940349Y1622228D1*
X1931919Y1619488D1*
X1929081Y1618924D1*
X1975274Y1618925D1*
X1974621Y2240793D1*
X2152709Y2339773D2*
X2158378Y2343571D1*
X2153646Y2346684D1*
X2146726Y2352593D1*
X2140816Y2359513D1*
X2136062Y2367272D1*
X2132580Y2375677D1*
X2130455Y2384526D1*
X2129741Y2393597D1*
X2130455Y2402668D1*
X2132580Y2411517D1*
X2136062Y2419923D1*
X2140816Y2427681D1*
X2146726Y2434601D1*
X2153646Y2440510D1*
X2158378Y2443571D1*
X2153646Y2446684D1*
X2146726Y2452593D1*
X2140816Y2459513D1*
X2136062Y2467272D1*
X2132580Y2475677D1*
X2130455Y2484526D1*
X2129741Y2493597D1*
X2130455Y2502668D1*
X2132580Y2511517D1*
X2136062Y2519923D1*
X2140816Y2527681D1*
X2146726Y2534601D1*
X2153646Y2540510D1*
X2158378Y2543571D1*
X2153646Y2546684D1*
X2146726Y2552593D1*
X2146303Y2553050D1*
X2115753Y2522516D1*
X2115929Y2500050D1*
X2119241Y2493549D1*
X2121496Y2486610D1*
X2122638Y2479406D1*
Y2472109D1*
X2121496Y2464904D1*
X2119241Y2457966D1*
X2115929Y2451465D1*
X2111642Y2445563D1*
X2106483Y2440404D1*
X2100581Y2436117D1*
X2094080Y2432804D1*
X2087142Y2430550D1*
X2079937Y2429408D1*
X2072640D1*
X2066932Y2430252D1*
X2066923Y2339770D1*
X2152619Y2339774D1*
X2145314Y2633073D2*
X2150070Y2637692D1*
X2157430Y2643041D1*
X2158378Y2643571D1*
X2153646Y2646684D1*
X2146726Y2652593D1*
X2140816Y2659513D1*
X2136062Y2667272D1*
X2132580Y2675677D1*
X2130455Y2684526D1*
X2129741Y2693597D1*
X2130455Y2702668D1*
X2132580Y2711517D1*
X2136062Y2719923D1*
X2140816Y2727681D1*
X2146726Y2734601D1*
X2153646Y2740510D1*
X2158378Y2743571D1*
X2153646Y2746684D1*
X2146726Y2752593D1*
X2140816Y2759513D1*
X2136062Y2767272D1*
X2132580Y2775677D1*
X2130455Y2784526D1*
X2129741Y2793597D1*
X2130455Y2802668D1*
X2132580Y2811517D1*
X2136062Y2819923D1*
X2140816Y2827681D1*
X2146726Y2834601D1*
X2153646Y2840510D1*
X2158378Y2843571D1*
X2153646Y2846684D1*
X2146726Y2852593D1*
X2140816Y2859513D1*
X2136062Y2867272D1*
X2132580Y2875677D1*
X2130455Y2884526D1*
X2129741Y2893597D1*
X2130455Y2902668D1*
X2131306Y2906942D1*
X2124732Y2906793D1*
X2118231Y2903480D1*
X2111293Y2901226D1*
X2104088Y2900084D1*
X2096791D1*
X2089587Y2901226D1*
X2082648Y2903480D1*
X2076147Y2906793D1*
X2070245Y2911080D1*
X2066916Y2914260D1*
X2066923Y2585362D1*
X2105352Y2623621D1*
X2110365Y2627262D1*
X2115885Y2630076D1*
X2121777Y2631991D1*
X2127896Y2632959D1*
X2145240Y2633081D1*
X2718942Y1203058D2*
X2709853Y1203770D1*
X2701004Y1205895D1*
X2692598Y1209377D1*
X2684840Y1214131D1*
X2680310Y1217832D1*
X2680299Y1207434D1*
X2757163Y1130537D1*
X2896067Y1130549D1*
X2891385Y1134039D1*
X2869235Y1155987D1*
X2833336Y1192088D1*
X2829076Y1197950D1*
X2825786Y1204406D1*
X2823547Y1211298D1*
X2822413Y1218469D1*
X2819576Y1216950D1*
X2812215Y1211601D1*
X2804108Y1207471D1*
X2795453Y1204659D1*
X2786466Y1203235D1*
X2763543Y1203056D1*
X2718924Y1203092D1*
X2983316Y1215332D2*
X2977920Y1220041D1*
X2972010Y1226961D1*
X2967256Y1234719D1*
X2963774Y1243125D1*
X2961650Y1251974D1*
X2960936Y1261045D1*
X2961650Y1270115D1*
X2963774Y1278965D1*
X2967256Y1287370D1*
X2972010Y1295129D1*
X2977920Y1302049D1*
X2984840Y1307958D1*
X2989572Y1311018D1*
X2984840Y1314131D1*
X2977920Y1320041D1*
X2972010Y1326961D1*
X2967256Y1334719D1*
X2963774Y1343125D1*
X2961650Y1351974D1*
X2960936Y1361045D1*
X2961650Y1370115D1*
X2963774Y1378965D1*
X2967256Y1387370D1*
X2972010Y1395129D1*
X2977920Y1402049D1*
X2984840Y1407958D1*
X2989572Y1411018D1*
X2984840Y1414131D1*
X2977920Y1420041D1*
X2972010Y1426961D1*
X2967256Y1434719D1*
X2963774Y1443125D1*
X2961650Y1451974D1*
X2960936Y1461045D1*
X2961650Y1470115D1*
X2963774Y1478965D1*
X2967256Y1487370D1*
X2972010Y1495129D1*
X2977920Y1502049D1*
X2984840Y1507958D1*
X2989572Y1511018D1*
X2984840Y1514131D1*
X2977920Y1520041D1*
X2972010Y1526961D1*
X2967256Y1534719D1*
X2963774Y1543125D1*
X2961650Y1551974D1*
X2960936Y1561045D1*
X2960948Y1562941D1*
X2957135Y1556722D1*
X2952398Y1551173D1*
X2946849Y1546436D1*
X2940630Y1542623D1*
X2933890Y1539832D1*
X2926795Y1538129D1*
X2919522Y1537556D1*
X2914614Y1537849D1*
X2914626Y1241209D1*
X2940507Y1215324D1*
X2983274Y1215329D1*
X3520227Y1311045D2*
X3515495Y1314105D1*
X3508575Y1320014D1*
X3507163Y1321542D1*
X3494885Y1321656D1*
X3488765Y1322625D1*
X3482873Y1324539D1*
X3477353Y1327353D1*
X3472340Y1330995D1*
X3444080Y1359081D1*
X3379199Y1423963D1*
X3379186Y1359113D1*
X3431101Y1307185D1*
X3514484Y1307196D1*
X3520227Y1310992D1*
X4102366Y1672936D2*
X4095112Y1679140D1*
X4088801Y1686529D1*
X4087756Y1688093D1*
X4029804Y1687929D1*
X4023303Y1684617D1*
X4016365Y1682362D1*
X4009684Y1681282D1*
X4009689Y1631223D1*
X4031621Y1652951D1*
X4036634Y1656593D1*
X4042154Y1659407D1*
X4048046Y1661322D1*
X4054165Y1662290D1*
X4091175Y1662412D1*
X4095112Y1666715D1*
X4102366Y1672920D1*
X4271500Y1718070D2*
X4269979Y1708471D1*
X4266976Y1699230D1*
X4262566Y1690572D1*
X4256853Y1682710D1*
X4249983Y1675840D1*
X4246298Y1672936D1*
X4253552Y1666715D1*
X4259864Y1659327D1*
X4264941Y1651041D1*
X4268660Y1642064D1*
X4270928Y1632615D1*
X4271690Y1622928D1*
X4270928Y1613240D1*
X4268660Y1603791D1*
X4264941Y1594815D1*
X4259864Y1586529D1*
X4253552Y1579140D1*
X4246298Y1572936D1*
X4253552Y1566715D1*
X4259864Y1559327D1*
X4260318Y1558647D1*
X4266698Y1554871D1*
X4271409Y1550848D1*
X4300209Y1522049D1*
X4299798Y2208556D1*
X4296782Y2204497D1*
X4268696Y2176238D1*
X4079932Y1987647D1*
X4074919Y1984005D1*
X4069399Y1981192D1*
X4063507Y1979277D1*
X4057387Y1978308D1*
X4017543Y1978186D1*
X3945739D1*
X4061504Y1862416D1*
X4091192Y1862412D1*
X4095112Y1866715D1*
X4102366Y1872920D1*
X4095112Y1879140D1*
X4088801Y1886529D1*
X4083723Y1894815D1*
X4080004Y1903791D1*
X4077736Y1913240D1*
X4076974Y1922928D1*
X4077736Y1932615D1*
X4080004Y1942064D1*
X4083723Y1951041D1*
X4088801Y1959327D1*
X4095112Y1966715D1*
X4102500Y1973026D1*
X4110786Y1978104D1*
X4119762Y1981823D1*
X4129211Y1984091D1*
X4138917Y1984852D1*
X4214623Y1984663D1*
X4224222Y1983142D1*
X4233463Y1980139D1*
X4242121Y1975728D1*
X4249983Y1970016D1*
X4256853Y1963146D1*
X4262566Y1955283D1*
X4266976Y1946626D1*
X4269979Y1937385D1*
X4271500Y1927786D1*
Y1918070D1*
X4269979Y1908471D1*
X4266976Y1899230D1*
X4262566Y1890572D1*
X4256853Y1882710D1*
X4249983Y1875840D1*
X4246298Y1872936D1*
X4253552Y1866715D1*
X4259864Y1859327D1*
X4264941Y1851041D1*
X4268660Y1842064D1*
X4270928Y1832615D1*
X4271690Y1822928D1*
X4270928Y1813240D1*
X4268660Y1803791D1*
X4264941Y1794815D1*
X4259864Y1786529D1*
X4253552Y1779140D1*
X4246298Y1772936D1*
X4253552Y1766715D1*
X4259864Y1759327D1*
X4264941Y1751041D1*
X4268660Y1742064D1*
X4270928Y1732615D1*
X4271690Y1722928D1*
X4271500Y1718070D1*
X3326757Y1215329D2*
X3404740Y1215409D1*
X3397694Y1217101D1*
X3390999Y1219874D1*
X3384822Y1223660D1*
X3379302Y1228377D1*
X3324681Y1282996D1*
X3324833Y1260482D1*
X3328146Y1253980D1*
X3330400Y1247042D1*
X3331542Y1239837D1*
Y1232541D1*
X3330400Y1225336D1*
X3328146Y1218398D1*
X3326731Y1215328D1*
X1859362Y1103824D2*
X2011440D1*
X2005260Y1109677D1*
X1859391D1*
X2383614Y1721787D2*
X2390818Y1719480D1*
X2397319Y1716168D1*
X2403220Y1711881D1*
X2408379Y1706722D1*
X2409836Y1704874D1*
D17*
X1562608Y3893316D3*
D18*
X1661033D3*
D17*
X2064541Y1064340D3*
D18*
Y965915D3*
D19*
X1917340Y867538D3*
Y767538D3*
X3183531Y2039831D3*
Y2139831D3*
X3200008Y1458281D3*
Y1558281D3*
D17*
X2533995Y3261294D3*
D18*
X2632420D3*
D19*
X3455461Y2630522D3*
Y2730522D3*
X3877482Y1775373D3*
Y1875373D3*
X4018336Y2709151D3*
Y2609151D3*
X3200059Y1355261D3*
Y1255261D3*
D20*
X773419Y3123613D3*
D21*
X576568D3*
D19*
X2020745Y3044787D3*
X2120745D3*
D20*
X568234Y3679467D3*
D21*
X765084D3*
D19*
X877324Y1513693D3*
X977324D3*
X891143Y2692268D3*
X991143D3*
D22*
X639457Y1543542D3*
D23*
X737882D3*
D22*
X719161Y2726274D3*
D23*
X620736D3*
D19*
X4019238Y2991126D3*
Y2891126D3*
D20*
X1776175Y3409252D3*
D21*
Y3806890D3*
D20*
X1803337Y1063684D3*
D21*
Y1461322D3*
D20*
X1706987Y1460235D3*
D21*
Y1062597D3*
D20*
X2490133Y1665398D3*
D21*
Y2063035D3*
D20*
X4137853Y3748490D3*
D21*
Y4146127D3*
D24*
X1335261Y2966520D3*
D25*
Y3401559D3*
D24*
X1207251Y3400538D3*
D25*
Y2965499D3*
D24*
X1293777Y1517520D3*
D25*
Y1082480D3*
D24*
Y2390097D3*
D25*
Y2825136D3*
D26*
Y984348D3*
D27*
Y549308D3*
D26*
Y1858819D3*
D27*
Y2293858D3*
D28*
X1884501Y3991940D3*
D29*
X2081352D3*
D28*
X2278202D3*
X2081352Y4198579D3*
X2446789Y3991486D3*
D29*
X2643639D3*
D28*
X2840490D3*
X2643639Y4198125D3*
D30*
X3768022Y4208999D3*
X3768180Y3689550D3*
X3563495Y3775810D3*
X3205850Y4204659D3*
X3206008Y3685210D3*
X3001323Y3771470D3*
D31*
X956836Y3975052D3*
D32*
Y4211273D3*
X763923Y4093163D3*
D107*
X2627299Y3556329D3*
D33*
X2577299Y3606329D3*
X2627299Y3656329D3*
D110*
X4064262Y3674883D3*
D33*
X4114262Y3624883D3*
X4064262Y3574883D3*
D34*
X2458951Y3753993D3*
D35*
Y3453993D3*
D34*
X2359226Y3454640D3*
D35*
Y3754640D3*
D34*
X1556089Y3759705D3*
D35*
Y3459705D3*
D34*
X1665071Y3758752D3*
D35*
Y3458752D3*
D34*
X2360329Y3326343D3*
D35*
Y3026343D3*
D34*
X1705877Y671671D3*
D35*
Y971671D3*
D34*
X1806163Y671916D3*
D35*
Y971916D3*
D34*
X2218731Y1674420D3*
D35*
X1918731D3*
D34*
X2359719Y2748831D3*
D35*
Y2448831D3*
D34*
X3175776Y2875066D3*
D35*
Y2575066D3*
D34*
X2582984Y2840829D3*
D35*
Y2540829D3*
D34*
X2748770Y2343336D3*
D35*
X3048770D3*
D34*
X3048787Y2243088D3*
D35*
X2748787D3*
D34*
X2489392Y2479352D3*
D35*
Y2179352D3*
D34*
X2847461Y3453786D3*
D35*
Y3753786D3*
D34*
X2747556Y3753957D3*
D35*
Y3453957D3*
D34*
X3237896Y3214761D3*
D35*
Y3514761D3*
D34*
X3437804Y3214709D3*
D35*
Y3514709D3*
D34*
X3338028Y3214585D3*
D35*
Y3514585D3*
D34*
X4039471Y4096853D3*
D35*
Y3796853D3*
D34*
X4022749Y3468938D3*
D35*
Y3168938D3*
D34*
X3455169Y2221743D3*
D35*
Y2521743D3*
D34*
X3661835Y1677239D3*
D35*
Y1977239D3*
D34*
X3764990Y1676079D3*
D35*
Y1976079D3*
D34*
X4256564Y993770D3*
D35*
X3956564D3*
D34*
X4017151Y2203898D3*
D35*
Y2503898D3*
D36*
X1754298Y4032469D3*
Y4268650D3*
X1282014Y4032587D3*
Y4268650D3*
D37*
X1675400Y4101602D3*
X1518274D3*
X1360676D3*
D38*
X1919567Y3730054D3*
D39*
Y3630054D3*
Y3530054D3*
Y3430054D3*
X2219567D3*
Y3530054D3*
Y3630054D3*
Y3730054D3*
D38*
X1919248Y1560937D3*
D39*
Y1460937D3*
Y1360937D3*
Y1260937D3*
X2219248D3*
Y1360937D3*
Y1460937D3*
Y1560937D3*
D38*
X2749148Y2124940D3*
D39*
Y2024940D3*
Y1924940D3*
Y1824940D3*
X3049148D3*
Y1924940D3*
Y2024940D3*
Y2124940D3*
D38*
X1919226Y2893597D3*
D39*
Y2793597D3*
Y2693597D3*
Y2593597D3*
Y2493597D3*
Y2393597D3*
Y2293597D3*
X2219226D3*
Y2393597D3*
Y2493597D3*
Y2593597D3*
Y2693597D3*
Y2793597D3*
Y2893597D3*
D38*
X2749408Y2873900D3*
D39*
Y2773900D3*
Y2673900D3*
Y2573900D3*
X3049408D3*
Y2673900D3*
Y2773900D3*
Y2873900D3*
D38*
X2750420Y1561045D3*
D39*
Y1461045D3*
Y1361045D3*
Y1261045D3*
X3050420D3*
Y1361045D3*
Y1461045D3*
Y1561045D3*
D38*
X3556808Y3499472D3*
D39*
Y3399472D3*
Y3299472D3*
Y3199472D3*
X3856808D3*
Y3299472D3*
Y3399472D3*
Y3499472D3*
D38*
X3581075Y2893667D3*
D39*
Y2793667D3*
Y2693667D3*
Y2593667D3*
Y2493667D3*
Y2393667D3*
Y2293667D3*
X3881075D3*
Y2393667D3*
Y2493667D3*
Y2593667D3*
Y2693667D3*
Y2793667D3*
Y2893667D3*
D38*
X3581075Y1561018D3*
D39*
Y1461018D3*
Y1361018D3*
Y1261018D3*
X3881075D3*
Y1361018D3*
Y1461018D3*
Y1561018D3*
D40*
X946428Y1337076D3*
D41*
X846428D3*
X746428D3*
D40*
X952146Y2531898D3*
D41*
X852146D3*
X752146D3*
D42*
X1673189Y3101188D3*
Y3001188D3*
Y2901188D3*
Y2801188D3*
Y3201188D3*
Y3301188D3*
X4174307Y3101188D3*
Y3001188D3*
Y2901188D3*
Y2801188D3*
Y3201188D3*
Y3301188D3*
X4174332Y1722928D3*
Y1622928D3*
Y1522928D3*
Y1422928D3*
Y1822928D3*
Y1922928D3*
D43*
X2950900Y549680D3*
X3050900D3*
X3150900D3*
M02*
