G04 DipTrace 3.3.1.1*
G04 TopMask.gbr*
%MOIN*%
G04 #@! TF.FileFunction,Soldermask,Top*
G04 #@! TF.Part,Single*
%AMOUTLINE1*
4,1,4,
-0.026209,0.026209,
0.026209,0.026209,
0.026209,-0.026209,
-0.026209,-0.026209,
-0.026209,0.026209,
0*%
%AMOUTLINE4*
4,1,4,
0.026209,-0.026209,
-0.026209,-0.026209,
-0.026209,0.026209,
0.026209,0.026209,
0.026209,-0.026209,
0*%
%ADD23C,0.062992*%
%ADD24R,0.070866X0.070866*%
%ADD25C,0.070866*%
%ADD46C,0.11811*%
%ADD47C,0.137795*%
%ADD59O,0.07874X0.149606*%
%ADD61O,0.149606X0.07874*%
%ADD63C,0.082677*%
%ADD64C,0.066929*%
%ADD65R,0.082677X0.082677*%
%ADD66R,0.066929X0.066929*%
%ADD67O,0.133858X0.070866*%
%ADD69R,0.133858X0.070866*%
%ADD71C,0.070866*%
%ADD73C,0.086614*%
%ADD74C,0.067874*%
%ADD76C,0.067874*%
%ADD79C,0.185039*%
%ADD81C,0.204724*%
%ADD83C,0.212598*%
%ADD85C,0.141732*%
%ADD87C,0.185039*%
%ADD89C,0.102362*%
%ADD91R,0.102362X0.102362*%
%ADD93C,0.07874*%
%ADD94R,0.07874X0.07874*%
%ADD98C,0.072835*%
%ADD100C,0.061024*%
%ADD102R,0.061024X0.061024*%
%ADD108OUTLINE1*%
%ADD111OUTLINE4*%
%FSLAX26Y26*%
G04*
G70*
G90*
G75*
G01*
G04 TopMask*
%LPD*%
D102*
X1562608Y3893316D3*
D100*
X1661033D3*
D102*
X2064541Y1064340D3*
D100*
Y965915D3*
D98*
X1917340Y867538D3*
Y767538D3*
X3183531Y2039831D3*
Y2139831D3*
X3200008Y1458281D3*
Y1558281D3*
D102*
X2533995Y3261294D3*
D100*
X2632420D3*
D98*
X3455461Y2630522D3*
Y2730522D3*
X3877482Y1775373D3*
Y1875373D3*
X4018336Y2709151D3*
Y2609151D3*
X3200059Y1355261D3*
Y1255261D3*
D66*
X773419Y3123613D3*
D64*
X576568D3*
D98*
X2020745Y3044787D3*
X2120745D3*
D66*
X568234Y3679467D3*
D64*
X765084D3*
D98*
X877324Y1513693D3*
X977324D3*
X891143Y2692268D3*
X991143D3*
D24*
X639457Y1543542D3*
D25*
X737882D3*
D24*
X719161Y2726274D3*
D25*
X620736D3*
D98*
X4019238Y2991126D3*
Y2891126D3*
D66*
X1776175Y3409252D3*
D64*
Y3806890D3*
D66*
X1803337Y1063684D3*
D64*
Y1461322D3*
D66*
X1706987Y1460235D3*
D64*
Y1062597D3*
D66*
X2490133Y1665398D3*
D64*
Y2063035D3*
D66*
X4137853Y3748490D3*
D64*
Y4146127D3*
D94*
X1335261Y2966520D3*
D93*
Y3401559D3*
D94*
X1207251Y3400538D3*
D93*
Y2965499D3*
D94*
X1293777Y1517520D3*
D93*
Y1082480D3*
D94*
Y2390097D3*
D93*
Y2825136D3*
D91*
Y984348D3*
D89*
Y549308D3*
D91*
Y1858819D3*
D89*
Y2293858D3*
D87*
X1884501Y3991940D3*
D85*
X2081352D3*
D87*
X2278202D3*
X2081352Y4198579D3*
X2446789Y3991486D3*
D85*
X2643639D3*
D87*
X2840490D3*
X2643639Y4198125D3*
D83*
X3768022Y4208999D3*
X3768180Y3689550D3*
X3563495Y3775810D3*
X3205850Y4204659D3*
X3206008Y3685210D3*
X3001323Y3771470D3*
D81*
X956836Y3975052D3*
D79*
Y4211273D3*
X763923Y4093163D3*
D108*
X2627299Y3556329D3*
D23*
X2577299Y3606329D3*
X2627299Y3656329D3*
D111*
X4064262Y3674883D3*
D23*
X4114262Y3624883D3*
X4064262Y3574883D3*
D76*
X2458951Y3753993D3*
D74*
Y3453993D3*
D76*
X2359226Y3454640D3*
D74*
Y3754640D3*
D76*
X1556089Y3759705D3*
D74*
Y3459705D3*
D76*
X1665071Y3758752D3*
D74*
Y3458752D3*
D76*
X2360329Y3326343D3*
D74*
Y3026343D3*
D76*
X1705877Y671671D3*
D74*
Y971671D3*
D76*
X1806163Y671916D3*
D74*
Y971916D3*
D76*
X2218731Y1674420D3*
D74*
X1918731D3*
D76*
X2359719Y2748831D3*
D74*
Y2448831D3*
D76*
X3175776Y2875066D3*
D74*
Y2575066D3*
D76*
X2582984Y2840829D3*
D74*
Y2540829D3*
D76*
X2748770Y2343336D3*
D74*
X3048770D3*
D76*
X3048787Y2243088D3*
D74*
X2748787D3*
D76*
X2489392Y2479352D3*
D74*
Y2179352D3*
D76*
X2847461Y3453786D3*
D74*
Y3753786D3*
D76*
X2747556Y3753957D3*
D74*
Y3453957D3*
D76*
X3237896Y3214761D3*
D74*
Y3514761D3*
D76*
X3437804Y3214709D3*
D74*
Y3514709D3*
D76*
X3338028Y3214585D3*
D74*
Y3514585D3*
D76*
X4039471Y4096853D3*
D74*
Y3796853D3*
D76*
X4022749Y3468938D3*
D74*
Y3168938D3*
D76*
X3455169Y2221743D3*
D74*
Y2521743D3*
D76*
X3661835Y1677239D3*
D74*
Y1977239D3*
D76*
X3764990Y1676079D3*
D74*
Y1976079D3*
D76*
X4256564Y993770D3*
D74*
X3956564D3*
D76*
X4017151Y2203898D3*
D74*
Y2503898D3*
D73*
X1754298Y4032469D3*
Y4268650D3*
X1282014Y4032587D3*
Y4268650D3*
D71*
X1675400Y4101602D3*
X1518274D3*
X1360676D3*
D69*
X1919567Y3730054D3*
D67*
Y3630054D3*
Y3530054D3*
Y3430054D3*
X2219567D3*
Y3530054D3*
Y3630054D3*
Y3730054D3*
D69*
X1919248Y1560937D3*
D67*
Y1460937D3*
Y1360937D3*
Y1260937D3*
X2219248D3*
Y1360937D3*
Y1460937D3*
Y1560937D3*
D69*
X2749148Y2124940D3*
D67*
Y2024940D3*
Y1924940D3*
Y1824940D3*
X3049148D3*
Y1924940D3*
Y2024940D3*
Y2124940D3*
D69*
X1919226Y2893597D3*
D67*
Y2793597D3*
Y2693597D3*
Y2593597D3*
Y2493597D3*
Y2393597D3*
Y2293597D3*
X2219226D3*
Y2393597D3*
Y2493597D3*
Y2593597D3*
Y2693597D3*
Y2793597D3*
Y2893597D3*
D69*
X2749408Y2873900D3*
D67*
Y2773900D3*
Y2673900D3*
Y2573900D3*
X3049408D3*
Y2673900D3*
Y2773900D3*
Y2873900D3*
D69*
X2750420Y1561045D3*
D67*
Y1461045D3*
Y1361045D3*
Y1261045D3*
X3050420D3*
Y1361045D3*
Y1461045D3*
Y1561045D3*
D69*
X3556808Y3499472D3*
D67*
Y3399472D3*
Y3299472D3*
Y3199472D3*
X3856808D3*
Y3299472D3*
Y3399472D3*
Y3499472D3*
D69*
X3581075Y2893667D3*
D67*
Y2793667D3*
Y2693667D3*
Y2593667D3*
Y2493667D3*
Y2393667D3*
Y2293667D3*
X3881075D3*
Y2393667D3*
Y2493667D3*
Y2593667D3*
Y2693667D3*
Y2793667D3*
Y2893667D3*
D69*
X3581075Y1561018D3*
D67*
Y1461018D3*
Y1361018D3*
Y1261018D3*
X3881075D3*
Y1361018D3*
Y1461018D3*
Y1561018D3*
D65*
X946428Y1337076D3*
D63*
X846428D3*
X746428D3*
D65*
X952146Y2531898D3*
D63*
X852146D3*
X752146D3*
D61*
X1673189Y3101188D3*
Y3001188D3*
Y2901188D3*
Y2801188D3*
Y3201188D3*
Y3301188D3*
X4174307Y3101188D3*
Y3001188D3*
Y2901188D3*
Y2801188D3*
Y3201188D3*
Y3301188D3*
X4174332Y1722928D3*
Y1622928D3*
Y1522928D3*
Y1422928D3*
Y1822928D3*
Y1922928D3*
D59*
X2950900Y549680D3*
X3050900D3*
X3150900D3*
D46*
X493835Y4230798D3*
X4230798Y4230122D3*
D47*
X846455Y746643D3*
D46*
X494913Y493088D3*
D47*
X852249Y1941427D3*
D46*
X4230079Y493701D3*
M02*
