G04 DipTrace 3.1.0.1*
G04 Bottom.gbr*
%MOIN*%
G04 #@! TF.FileFunction,Copper,L2,Bot*
G04 #@! TF.Part,Single*
%AMOUTLINE0*5,1,4,0,0,0.062994,-225.0*%
G04 #@! TA.AperFunction,Conductor*
%ADD13C,0.025984*%
G04 #@! TA.AperFunction,CopperBalancing*
%ADD15C,0.025*%
G04 #@! TA.AperFunction,ComponentPad*
%ADD17R,0.062992X0.062992*%
%ADD18C,0.062992*%
%ADD19C,0.070866*%
%ADD20R,0.070866X0.070866*%
%ADD21C,0.059055*%
%ADD22R,0.059055X0.059055*%
%ADD23C,0.19685*%
%ADD24C,0.177165*%
%ADD25C,0.11811*%
%ADD26C,0.130709*%
%ADD27O,0.212598X0.11811*%
%ADD28C,0.125984*%
%ADD29C,0.15748*%
%ADD30C,0.07874*%
%ADD31C,0.07874*%
%ADD32C,0.055118*%
%ADD33R,0.047244X0.047244*%
%ADD34C,0.047244*%
%ADD35C,0.15748*%
%ADD36R,0.062992X0.125984*%
%ADD37O,0.062992X0.125984*%
%ADD38O,0.122047X0.137795*%
G04 #@! TA.AperFunction,ViaPad*
%ADD39C,0.04*%
G04 #@! TA.AperFunction,ComponentPad*
%ADD103OUTLINE0*%
%FSLAX26Y26*%
G04*
G70*
G90*
G75*
G01*
G04 Bottom*
%LPD*%
X995707Y3372130D2*
D13*
X1230873D1*
X1377129Y3518386D1*
X2355751D1*
X2468594Y3631230D1*
Y3760256D1*
X2459807Y3769043D1*
X3223819Y3218927D2*
X3069843D1*
X2657698Y3631071D1*
X2010741Y3110514D2*
X1770984D1*
X1623135Y2962665D1*
Y2379091D1*
X1623249Y2378975D1*
X2010853Y2604804D2*
X1912293D1*
X1764059Y2753038D1*
X538266Y1571146D2*
X647302D1*
X773849Y1697693D1*
X1365975D1*
X1391404Y1723122D1*
Y2005734D1*
X1467146Y2081475D1*
X2010147Y1781475D2*
X2292723D1*
X2907068Y2395820D1*
X3221828D1*
X3223701Y2393946D1*
X1655785Y1981475D2*
X1681194D1*
X1722136Y1940533D1*
Y1520786D1*
X1763667Y1479255D1*
Y1347012D1*
X1925093Y1185587D1*
Y1081008D1*
X1927143Y1078958D1*
X1158131Y2703353D2*
Y2568753D1*
X1020871Y2431493D1*
Y1960892D1*
X1150289Y1831475D1*
X1813667Y1429255D2*
X2324682D1*
X2460017Y1293920D1*
X2460946D1*
X2517648Y1237219D1*
Y952009D1*
X2367537Y801899D1*
Y474790D1*
X2361604Y468857D1*
X1469230Y1450711D2*
X1487214D1*
X1686934Y1250991D1*
Y1175143D1*
X1771829Y1090248D1*
X1871098Y1358446D2*
Y1311241D1*
X1941902Y1240438D1*
X2006159D1*
X2010147Y1236449D1*
X1472883Y1073860D2*
Y992795D1*
X1577955Y887723D1*
Y822022D1*
X1583554Y816424D1*
X2425352Y1083873D2*
X2016352D1*
X1842075Y909596D1*
X1735572D1*
X1472883Y1172285D1*
X1493841Y3218861D2*
X1988136D1*
X2263021Y2943976D1*
X1764059Y2851463D2*
X1859874D1*
X2010853Y3002442D1*
X2886160Y1941114D2*
X3445971D1*
X3481417Y1905668D1*
Y2105668D2*
X3330719D1*
X3223701Y2212686D1*
X4087919Y1568833D2*
X4061427D1*
X3854823Y1362230D1*
X3521346D1*
X3294676Y1135559D1*
X2985043D1*
X2779163Y929678D1*
Y898866D1*
X2800171Y877858D1*
X2802803D1*
X2806130Y874530D1*
X3660268Y1019782D2*
Y911146D1*
Y719782D1*
X3460268Y1019782D2*
Y949537D1*
X3498659Y911146D1*
X3660268D1*
X1931324Y3963319D2*
X2018392D1*
X2089386Y3892325D1*
X3110526D1*
X3817879Y3184972D1*
Y2258353D1*
X3950253Y2125978D1*
Y1588694D1*
X3943656Y1242858D2*
Y640209D1*
X3892720Y589273D1*
X3276524Y1215510D2*
X3123147D1*
X3109614Y1229043D1*
Y1278381D1*
X3125336Y1294102D1*
X2978033Y1022726D2*
Y1038331D1*
X3028298Y1088594D1*
X3220946D1*
X3263773Y1045769D1*
Y1019782D1*
X3260268D1*
X4087919Y1387573D2*
Y653244D1*
X3962803Y528129D1*
X3795167D1*
X3797714Y525583D1*
X1998303Y814171D2*
X1705807D1*
X1641983Y750348D1*
X878676D1*
X738701Y890322D1*
X4087919Y1750093D2*
X4138050D1*
X4208377Y1679768D1*
Y781533D1*
X4155539Y728696D1*
X3592720Y460945D2*
X3693615D1*
X3750240Y517571D1*
Y709755D1*
X3760268Y719782D1*
D39*
X2010741Y3110514D3*
X1927143Y1078958D3*
X1871098Y1358446D3*
X2425352Y1083873D3*
X3950253Y1588694D3*
X3943656Y1242858D3*
X3276524Y1215510D3*
X3797714Y525583D3*
X1998303Y814171D3*
X4155539Y728696D3*
X611958Y4254336D2*
D15*
X1390419D1*
X1597661D2*
X1744702D1*
X1879999D2*
X4111228D1*
X618777Y4229467D2*
X1386399D1*
X1601680D2*
X1753781D1*
X1870920D2*
X4105954D1*
X619745Y4204598D2*
X1388337D1*
X1599743D2*
X1781412D1*
X1843289D2*
X4106385D1*
X615045Y4179730D2*
X1396626D1*
X1591453D2*
X4112629D1*
X603777Y4154861D2*
X1413240D1*
X1574803D2*
X4125833D1*
X583072Y4129992D2*
X1430967D1*
X1557076D2*
X2141043D1*
X2227392D2*
X2495364D1*
X2581749D2*
X4150092D1*
X448399Y4105123D2*
X476627D1*
X536387D2*
X1405920D1*
X1582159D2*
X2111798D1*
X2256639D2*
X2466118D1*
X2610995D2*
X4276655D1*
X448399Y4080255D2*
X1392786D1*
X1595293D2*
X2098701D1*
X2269701D2*
X2453056D1*
X2624056D2*
X4276655D1*
X448399Y4055386D2*
X1386937D1*
X1601142D2*
X2094251D1*
X2274186D2*
X2448571D1*
X2628507D2*
X4276655D1*
X448399Y4030517D2*
X1387152D1*
X1600927D2*
X2094430D1*
X2274007D2*
X2448751D1*
X2628327D2*
X4276655D1*
X448399Y4005648D2*
X692148D1*
X747996D2*
X1393504D1*
X1594575D2*
X1758841D1*
X1865860D2*
X1878371D1*
X1984278D2*
X2099920D1*
X2268516D2*
X2454240D1*
X2622837D2*
X4276655D1*
X448399Y3980780D2*
X642664D1*
X797480D2*
X1407356D1*
X1580724D2*
X1746175D1*
X2059276D2*
X2114453D1*
X2253983D2*
X2468774D1*
X2608303D2*
X4276655D1*
X448399Y3955911D2*
X620954D1*
X819190D2*
X1433874D1*
X1554206D2*
X1744487D1*
X2084143D2*
X2148220D1*
X2220217D2*
X2502541D1*
X2574537D2*
X4276655D1*
X448399Y3931042D2*
X608824D1*
X831319D2*
X1411554D1*
X1576525D2*
X1752848D1*
X3120765D2*
X4276655D1*
X448399Y3906173D2*
X603227D1*
X836953D2*
X1395728D1*
X1592350D2*
X1778327D1*
X1846374D2*
X1896098D1*
X1966551D2*
X2017207D1*
X3155035D2*
X4276655D1*
X448399Y3881304D2*
X603155D1*
X981601D2*
X1165496D1*
X1294332D2*
X1387978D1*
X1600101D2*
X2042075D1*
X3179903D2*
X4276655D1*
X448399Y3856436D2*
X608609D1*
X1010488D2*
X1165496D1*
X1294332D2*
X1386471D1*
X1601572D2*
X2070424D1*
X3204770D2*
X4276655D1*
X448399Y3831567D2*
X620522D1*
X1027031D2*
X1165496D1*
X1294332D2*
X1390992D1*
X1597051D2*
X3112930D1*
X3229638D2*
X4276655D1*
X448399Y3806698D2*
X641946D1*
X1036396D2*
X1165496D1*
X1294332D2*
X1402440D1*
X1585640D2*
X2198530D1*
X2511453D2*
X3137798D1*
X3254507D2*
X4276655D1*
X448399Y3781829D2*
X689457D1*
X750686D2*
X785734D1*
X1040236D2*
X1165496D1*
X1294332D2*
X1424150D1*
X1563894D2*
X2198530D1*
X2522899D2*
X3162667D1*
X3279374D2*
X4276655D1*
X448399Y3756961D2*
X786917D1*
X1039052D2*
X2198530D1*
X2523043D2*
X3187570D1*
X3304241D2*
X4276655D1*
X448399Y3732092D2*
X793306D1*
X1032701D2*
X1720373D1*
X1841350D2*
X2198530D1*
X2511991D2*
X3212437D1*
X3329109D2*
X4276655D1*
X448399Y3707223D2*
X805757D1*
X1020213D2*
X1720373D1*
X1841350D2*
X2198530D1*
X2327366D2*
X2426610D1*
X2510591D2*
X3237306D1*
X3353976D2*
X4276655D1*
X448399Y3682354D2*
X827037D1*
X998933D2*
X1720373D1*
X1841350D2*
X2223577D1*
X2401539D2*
X2426610D1*
X2510591D2*
X2613890D1*
X2701530D2*
X3262173D1*
X3378845D2*
X4276655D1*
X448399Y3657486D2*
X868986D1*
X956986D2*
X1720373D1*
X1841350D2*
X2206209D1*
X2510591D2*
X2594871D1*
X2720550D2*
X3287041D1*
X3403713D2*
X4276655D1*
X448399Y3632617D2*
X1720373D1*
X1841350D2*
X2201545D1*
X2510591D2*
X2589345D1*
X2726039D2*
X3311908D1*
X3428580D2*
X4276655D1*
X448399Y3607748D2*
X2206676D1*
X2502840D2*
X2593615D1*
X2739353D2*
X3336777D1*
X3453448D2*
X4276655D1*
X448399Y3582879D2*
X2224904D1*
X2478583D2*
X2610301D1*
X2764220D2*
X3361644D1*
X3478316D2*
X4276655D1*
X448399Y3558010D2*
X2337043D1*
X2453714D2*
X2672416D1*
X2789088D2*
X3386512D1*
X3503184D2*
X4276655D1*
X448399Y3533142D2*
X1333542D1*
X2428846D2*
X2697285D1*
X2813955D2*
X3411379D1*
X3528051D2*
X4276655D1*
X448399Y3508273D2*
X1308675D1*
X2403979D2*
X2722152D1*
X2838824D2*
X3436247D1*
X3552919D2*
X4276655D1*
X448399Y3483404D2*
X1283806D1*
X2376563D2*
X2747020D1*
X2863692D2*
X3156925D1*
X3290713D2*
X3461115D1*
X3577786D2*
X4276655D1*
X448399Y3458535D2*
X1258938D1*
X1375610D2*
X1403803D1*
X1583882D2*
X2771887D1*
X2888559D2*
X3133744D1*
X3313894D2*
X3485983D1*
X3602655D2*
X4276655D1*
X448399Y3433667D2*
X969748D1*
X1021684D2*
X1234071D1*
X1350743D2*
X1391602D1*
X1596083D2*
X2796755D1*
X2913427D2*
X3121543D1*
X3326094D2*
X3510850D1*
X3627522D2*
X4276655D1*
X448399Y3408798D2*
X938492D1*
X1325874D2*
X1386471D1*
X1601214D2*
X2821623D1*
X2938294D2*
X3116448D1*
X3331190D2*
X3535718D1*
X3652390D2*
X4276655D1*
X448399Y3383929D2*
X928409D1*
X1301007D2*
X1387367D1*
X1600316D2*
X2846491D1*
X2963163D2*
X3117345D1*
X3330294D2*
X3560587D1*
X3677257D2*
X4276655D1*
X448399Y3359060D2*
X928660D1*
X1276139D2*
X1394437D1*
X1593248D2*
X2871358D1*
X2988066D2*
X3124450D1*
X3323189D2*
X3585454D1*
X3702126D2*
X4276655D1*
X448399Y3334192D2*
X939354D1*
X1244310D2*
X1409329D1*
X1578356D2*
X2896226D1*
X3012933D2*
X3139341D1*
X3308297D2*
X3610322D1*
X3726993D2*
X4276655D1*
X448399Y3309323D2*
X973373D1*
X1018024D2*
X1437570D1*
X1550114D2*
X2150875D1*
X2217668D2*
X2505232D1*
X2571988D2*
X2921094D1*
X3037802D2*
X3167438D1*
X3280199D2*
X3635189D1*
X3751861D2*
X4276655D1*
X448399Y3284454D2*
X506375D1*
X621253D2*
X1409042D1*
X1578643D2*
X2115386D1*
X2253194D2*
X2469707D1*
X2607514D2*
X2945962D1*
X3062669D2*
X3138983D1*
X3308655D2*
X3660056D1*
X3776728D2*
X4100140D1*
X4214946D2*
X4276655D1*
X448399Y3259585D2*
X486064D1*
X641528D2*
X1394294D1*
X1593391D2*
X2100387D1*
X2268193D2*
X2454707D1*
X2622513D2*
X2970829D1*
X3087537D2*
X3124270D1*
X3323367D2*
X3684925D1*
X3801596D2*
X4079831D1*
X4235257D2*
X4276655D1*
X448399Y3234717D2*
X477238D1*
X650354D2*
X1387297D1*
X2030604D2*
X2094573D1*
X2274007D2*
X2448894D1*
X2628327D2*
X2995697D1*
X3330365D2*
X3709793D1*
X3826465D2*
X4070967D1*
X4244084D2*
X4276655D1*
X448399Y3209848D2*
X476232D1*
X651360D2*
X1386507D1*
X2055508D2*
X2094286D1*
X2274294D2*
X2448606D1*
X2628614D2*
X3020601D1*
X3331155D2*
X3734660D1*
X3851045D2*
X4069962D1*
X4245125D2*
X4276655D1*
X448399Y3184979D2*
X482764D1*
X644865D2*
X1391710D1*
X2080375D2*
X2098449D1*
X2270131D2*
X2452769D1*
X2624451D2*
X3047192D1*
X3325916D2*
X3759528D1*
X3859873D2*
X4076493D1*
X4238594D2*
X4276655D1*
X448399Y3160110D2*
X499127D1*
X628466D2*
X1404054D1*
X1583631D2*
X1988535D1*
X2257463D2*
X2465400D1*
X2611820D2*
X3134067D1*
X3313571D2*
X3775891D1*
X3859873D2*
X4092856D1*
X4222231D2*
X4276655D1*
X448399Y3135241D2*
X543301D1*
X584291D2*
X1427450D1*
X1560234D2*
X1737382D1*
X2229366D2*
X2493534D1*
X2583688D2*
X3157535D1*
X3290104D2*
X3775891D1*
X3859873D2*
X4136923D1*
X4178165D2*
X4276655D1*
X448399Y3110373D2*
X1415322D1*
X1572364D2*
X1712514D1*
X2154979D2*
X3145227D1*
X3302411D2*
X3775891D1*
X3859873D2*
X4276655D1*
X448399Y3085504D2*
X1397631D1*
X1590054D2*
X1687647D1*
X2179846D2*
X3127572D1*
X3320067D2*
X3775891D1*
X3859873D2*
X4276655D1*
X448399Y3060635D2*
X1388660D1*
X1599025D2*
X1662780D1*
X1779450D2*
X1987172D1*
X2034516D2*
X2088007D1*
X2204714D2*
X3118636D1*
X3329001D2*
X3775891D1*
X3859873D2*
X4276655D1*
X448399Y3035766D2*
X1386112D1*
X1601572D2*
X1637911D1*
X1754583D2*
X1956168D1*
X2065555D2*
X2112911D1*
X2229581D2*
X3116089D1*
X3331550D2*
X3775891D1*
X3859873D2*
X4276655D1*
X448399Y3010898D2*
X1389556D1*
X1598127D2*
X1613043D1*
X1729715D2*
X1947017D1*
X2074706D2*
X2137778D1*
X2254450D2*
X2887794D1*
X2921394D2*
X3119534D1*
X3328105D2*
X3775891D1*
X3859873D2*
X4276655D1*
X448399Y2986029D2*
X1399605D1*
X1704848D2*
X1936109D1*
X2073055D2*
X2162646D1*
X2507828D2*
X2851299D1*
X2957923D2*
X3129617D1*
X3318021D2*
X3775891D1*
X3859873D2*
X4276655D1*
X448399Y2961160D2*
X1133416D1*
X1182840D2*
X1419018D1*
X1679980D2*
X1911241D1*
X2059526D2*
X2187513D1*
X2521858D2*
X2841072D1*
X2968114D2*
X3149066D1*
X3298572D2*
X3775891D1*
X3859873D2*
X4276655D1*
X448399Y2936291D2*
X1103201D1*
X1213055D2*
X1462869D1*
X1524816D2*
X1581143D1*
X1665123D2*
X1886374D1*
X2003045D2*
X2198602D1*
X2523832D2*
X2841862D1*
X2967325D2*
X3193096D1*
X3254542D2*
X3457634D1*
X3578612D2*
X3775891D1*
X3859873D2*
X4276655D1*
X448399Y2911423D2*
X1094230D1*
X1222026D2*
X1581143D1*
X1665123D2*
X1861505D1*
X1978177D2*
X2198602D1*
X2515041D2*
X2854169D1*
X2955017D2*
X3457634D1*
X3578612D2*
X3775891D1*
X3859873D2*
X4276655D1*
X448399Y2886554D2*
X1096024D1*
X1220231D2*
X1581143D1*
X1665123D2*
X1715386D1*
X1953310D2*
X2198602D1*
X2387113D2*
X2434181D1*
X2485543D2*
X3457634D1*
X3578612D2*
X3775891D1*
X3859873D2*
X4276655D1*
X448399Y2861685D2*
X1109840D1*
X1206451D2*
X1581143D1*
X1665123D2*
X1704476D1*
X1928442D2*
X3457634D1*
X3578612D2*
X3775891D1*
X3859873D2*
X4276655D1*
X448399Y2836816D2*
X1581143D1*
X1665123D2*
X1705445D1*
X1903573D2*
X3457634D1*
X3578612D2*
X3775891D1*
X3859873D2*
X4276655D1*
X448399Y2811948D2*
X1581143D1*
X1665123D2*
X1719117D1*
X1808983D2*
X2893356D1*
X2915867D2*
X3462192D1*
X3574055D2*
X3775891D1*
X3859873D2*
X4276655D1*
X448399Y2787079D2*
X1581143D1*
X1665123D2*
X1703579D1*
X1824556D2*
X2852017D1*
X2957169D2*
X3457671D1*
X3578541D2*
X3775891D1*
X3859873D2*
X4276655D1*
X448399Y2762210D2*
X1136394D1*
X1179898D2*
X1581143D1*
X1665123D2*
X1703579D1*
X1824556D2*
X2841252D1*
X2967934D2*
X3464381D1*
X3571829D2*
X3775891D1*
X3859873D2*
X4276655D1*
X448399Y2737341D2*
X1103883D1*
X1212408D2*
X1581143D1*
X1665123D2*
X1703579D1*
X1838085D2*
X2841610D1*
X2967576D2*
X3490073D1*
X3546173D2*
X3775891D1*
X3859873D2*
X4276655D1*
X448399Y2712472D2*
X1094374D1*
X1221882D2*
X1581143D1*
X1665123D2*
X1703579D1*
X1862953D2*
X2853345D1*
X2955878D2*
X3775891D1*
X3859873D2*
X4276655D1*
X448399Y2687604D2*
X1095738D1*
X1220518D2*
X1581143D1*
X1665123D2*
X1771150D1*
X1887822D2*
X3775891D1*
X3859873D2*
X4276655D1*
X448399Y2662735D2*
X1108907D1*
X1207385D2*
X1581143D1*
X1665123D2*
X1796017D1*
X1912689D2*
X1946444D1*
X2075280D2*
X3162774D1*
X3284613D2*
X3775891D1*
X3859873D2*
X4276655D1*
X448399Y2637866D2*
X1116155D1*
X1200101D2*
X1581143D1*
X1665123D2*
X1820885D1*
X2075280D2*
X3136650D1*
X3310736D2*
X3775891D1*
X3859873D2*
X4011759D1*
X4163453D2*
X4276655D1*
X448399Y2612997D2*
X1116155D1*
X1200101D2*
X1581143D1*
X1665123D2*
X1845752D1*
X2075280D2*
X3122979D1*
X3324408D2*
X3775891D1*
X3859873D2*
X3973720D1*
X4201490D2*
X4276655D1*
X448399Y2588129D2*
X1116155D1*
X1200101D2*
X1581143D1*
X1665123D2*
X1870621D1*
X2075280D2*
X3116770D1*
X3330652D2*
X3775891D1*
X3859873D2*
X3958434D1*
X4216812D2*
X4276655D1*
X448399Y2563260D2*
X1094302D1*
X1199741D2*
X1581143D1*
X1665123D2*
X1829175D1*
X1873682D2*
X1946444D1*
X2075280D2*
X3116663D1*
X3330760D2*
X3775891D1*
X3859873D2*
X3952585D1*
X4222626D2*
X4276655D1*
X448399Y2538391D2*
X1069434D1*
X1186105D2*
X1581143D1*
X1665123D2*
X1795084D1*
X1907736D2*
X3122619D1*
X3324768D2*
X3775891D1*
X3859873D2*
X3954235D1*
X4220975D2*
X4276655D1*
X448399Y2513522D2*
X1044567D1*
X1161238D2*
X1581143D1*
X1665123D2*
X1784354D1*
X1918466D2*
X3135933D1*
X3311454D2*
X3775891D1*
X3859873D2*
X3963853D1*
X4211394D2*
X4276655D1*
X448399Y2488654D2*
X1019698D1*
X1136370D2*
X1581143D1*
X1665123D2*
X1784104D1*
X1918717D2*
X2168280D1*
X2200444D2*
X2522600D1*
X2554801D2*
X3161339D1*
X3286049D2*
X3775891D1*
X3859873D2*
X3985634D1*
X4189612D2*
X4276655D1*
X448399Y2463785D2*
X994831D1*
X1111503D2*
X1581143D1*
X1665123D2*
X1794186D1*
X1908634D2*
X2119693D1*
X2249031D2*
X2474013D1*
X2603387D2*
X3142500D1*
X3304924D2*
X3775891D1*
X3859873D2*
X4276655D1*
X448399Y2438916D2*
X979580D1*
X1086635D2*
X1581143D1*
X1665123D2*
X1825407D1*
X1877450D2*
X2102432D1*
X2266291D2*
X2456752D1*
X2620648D2*
X3126064D1*
X3321358D2*
X3775891D1*
X3966556D2*
X4276655D1*
X448399Y2414047D2*
X978898D1*
X1062844D2*
X1562770D1*
X1683748D2*
X2095147D1*
X2273576D2*
X2449469D1*
X2627896D2*
X2866945D1*
X3329504D2*
X3775891D1*
X3999785D2*
X4276655D1*
X448399Y2389178D2*
X978898D1*
X1062844D2*
X1562770D1*
X1683748D2*
X2094358D1*
X2274365D2*
X2448678D1*
X2628722D2*
X2842077D1*
X3331335D2*
X3775891D1*
X4016364D2*
X4276655D1*
X448399Y2364310D2*
X978898D1*
X1062844D2*
X1562770D1*
X1683748D2*
X2097193D1*
X2271530D2*
X2451513D1*
X2625850D2*
X2817209D1*
X3327172D2*
X3775891D1*
X4024617D2*
X4276655D1*
X448399Y2339441D2*
X978898D1*
X1062844D2*
X1562770D1*
X1683748D2*
X2108030D1*
X2260693D2*
X2462386D1*
X2615014D2*
X2792341D1*
X2909013D2*
X3131196D1*
X3316227D2*
X3775891D1*
X4026518D2*
X4276655D1*
X448399Y2314572D2*
X978898D1*
X1062844D2*
X1573786D1*
X1672696D2*
X2131929D1*
X2236794D2*
X2486285D1*
X2591115D2*
X2767474D1*
X2884146D2*
X3152117D1*
X3295306D2*
X3775891D1*
X4022428D2*
X4276655D1*
X448399Y2289703D2*
X978898D1*
X1062844D2*
X1563487D1*
X1682993D2*
X2742606D1*
X2859278D2*
X3149497D1*
X3297927D2*
X3775891D1*
X4011591D2*
X4276655D1*
X448399Y2264835D2*
X978898D1*
X1062844D2*
X1564923D1*
X1681559D2*
X1835131D1*
X1867726D2*
X1993846D1*
X2026441D2*
X2717739D1*
X2834409D2*
X3129797D1*
X3317591D2*
X3775891D1*
X3990849D2*
X4276655D1*
X448399Y2239966D2*
X978898D1*
X1062844D2*
X1579348D1*
X1667169D2*
X1796232D1*
X1906588D2*
X1954984D1*
X2065340D2*
X2692870D1*
X2809542D2*
X3119570D1*
X3327853D2*
X3780449D1*
X3937992D2*
X4276655D1*
X448399Y2215097D2*
X978898D1*
X1062844D2*
X1784714D1*
X1918143D2*
X1943429D1*
X2076858D2*
X2668003D1*
X2784675D2*
X3115980D1*
X3331406D2*
X3802804D1*
X3919476D2*
X4276655D1*
X448399Y2190228D2*
X978898D1*
X1062844D2*
X1783852D1*
X1919004D2*
X1942568D1*
X2077720D2*
X2643135D1*
X2759807D2*
X3118386D1*
X3329001D2*
X3827672D1*
X3944344D2*
X4276655D1*
X448399Y2165360D2*
X978898D1*
X1062844D2*
X1793182D1*
X1909675D2*
X1951898D1*
X2068390D2*
X2198673D1*
X2327509D2*
X2416706D1*
X2503198D2*
X2618268D1*
X2734938D2*
X3127213D1*
X3329361D2*
X3462442D1*
X3500385D2*
X3852539D1*
X3969211D2*
X4276655D1*
X448399Y2140491D2*
X978898D1*
X1062844D2*
X1272753D1*
X1336245D2*
X1435417D1*
X1498873D2*
X1819665D1*
X1883156D2*
X1980354D1*
X2039934D2*
X2198673D1*
X2327509D2*
X2399482D1*
X2520423D2*
X2593399D1*
X2710071D2*
X3144652D1*
X3535121D2*
X3877408D1*
X3989486D2*
X4276655D1*
X448399Y2115622D2*
X978898D1*
X1062844D2*
X1245697D1*
X1363302D2*
X1408324D1*
X1525965D2*
X1792608D1*
X1910248D2*
X2198673D1*
X2327509D2*
X2395606D1*
X2524299D2*
X2568531D1*
X2685203D2*
X3180537D1*
X3545025D2*
X3732759D1*
X3853736D2*
X3902276D1*
X3992249D2*
X4276655D1*
X448399Y2090753D2*
X978898D1*
X1062844D2*
X1129864D1*
X1170711D2*
X1236798D1*
X1372201D2*
X1399425D1*
X1534864D2*
X1783709D1*
X1919112D2*
X2198673D1*
X2327509D2*
X2402209D1*
X2517696D2*
X2543664D1*
X2660336D2*
X2825678D1*
X2946656D2*
X3287293D1*
X3544020D2*
X3732759D1*
X3853736D2*
X3908268D1*
X3992249D2*
X4276655D1*
X448399Y2065885D2*
X978898D1*
X1062844D2*
X1096311D1*
X1204262D2*
X1238018D1*
X1370980D2*
X1393217D1*
X1533644D2*
X1784929D1*
X1917928D2*
X2198673D1*
X2327509D2*
X2425175D1*
X2494730D2*
X2518797D1*
X2635469D2*
X2825678D1*
X2946656D2*
X3431475D1*
X3531388D2*
X3732759D1*
X3853736D2*
X3908268D1*
X3992249D2*
X4276655D1*
X448399Y2041016D2*
X978898D1*
X1062844D2*
X1086587D1*
X1213988D2*
X1250039D1*
X1521623D2*
X1796950D1*
X1905907D2*
X2493929D1*
X2610600D2*
X2825678D1*
X2946656D2*
X3732759D1*
X3853736D2*
X3908268D1*
X3992249D2*
X4276655D1*
X448399Y2016147D2*
X978898D1*
X1062844D2*
X1087807D1*
X1212803D2*
X1293638D1*
X1315361D2*
X1350802D1*
X1478024D2*
X1611824D1*
X1702587D2*
X1840550D1*
X1862291D2*
X2469060D1*
X2585732D2*
X2825678D1*
X2946656D2*
X3746681D1*
X3839812D2*
X3908268D1*
X3992249D2*
X4276655D1*
X448399Y1991278D2*
X978898D1*
X1062844D2*
X1100689D1*
X1199885D2*
X1349438D1*
X1435285D2*
X1600125D1*
X1729715D2*
X2444193D1*
X2560865D2*
X2825678D1*
X2946656D2*
X3734194D1*
X3852301D2*
X3908268D1*
X3992249D2*
X4276655D1*
X448399Y1966409D2*
X978898D1*
X1073681D2*
X1349438D1*
X1433383D2*
X1562052D1*
X1754475D2*
X2419325D1*
X2535997D2*
X2831491D1*
X3495971D2*
X3734014D1*
X3852480D2*
X3908268D1*
X3992249D2*
X4276655D1*
X448399Y1941541D2*
X983958D1*
X1098549D2*
X1349438D1*
X1433383D2*
X1550175D1*
X1764092D2*
X2394458D1*
X2511129D2*
X2825678D1*
X3534403D2*
X3746000D1*
X3840459D2*
X3908268D1*
X3992249D2*
X4276655D1*
X448399Y1916672D2*
X1006744D1*
X1123416D2*
X1349438D1*
X1433383D2*
X1551287D1*
X1764129D2*
X2369589D1*
X2486261D2*
X2831060D1*
X3544845D2*
X3908268D1*
X3992249D2*
X4276655D1*
X448399Y1891803D2*
X1031612D1*
X1166764D2*
X1349438D1*
X1433383D2*
X1566573D1*
X1764129D2*
X2344722D1*
X2461394D2*
X2853165D1*
X2919168D2*
X3418556D1*
X3544270D2*
X3908268D1*
X3992249D2*
X4276655D1*
X448399Y1866934D2*
X1056480D1*
X1203546D2*
X1349438D1*
X1433383D2*
X1604539D1*
X1764129D2*
X2319854D1*
X2436526D2*
X3430613D1*
X3532249D2*
X3775568D1*
X3803427D2*
X3908268D1*
X3992249D2*
X4276655D1*
X448399Y1842066D2*
X1081348D1*
X1213808D2*
X1276163D1*
X1332836D2*
X1349438D1*
X1495463D2*
X1610819D1*
X1764129D2*
X1823110D1*
X1879747D2*
X1981825D1*
X2038463D2*
X2294987D1*
X2411659D2*
X3434668D1*
X3544307D2*
X3734660D1*
X3844335D2*
X3908268D1*
X3992249D2*
X4034293D1*
X4141563D2*
X4276655D1*
X448399Y1817197D2*
X1087520D1*
X1213055D2*
X1246667D1*
X1524996D2*
X1680147D1*
X1764129D2*
X1793577D1*
X1909244D2*
X1952328D1*
X2386790D2*
X3422899D1*
X3556076D2*
X3722890D1*
X3856105D2*
X3908268D1*
X4171491D2*
X4276655D1*
X448399Y1792328D2*
X1099793D1*
X1200782D2*
X1237049D1*
X1534613D2*
X1680147D1*
X1764129D2*
X1783959D1*
X1918896D2*
X1942676D1*
X2361923D2*
X3421858D1*
X3557117D2*
X3721849D1*
X3857146D2*
X3908268D1*
X4186814D2*
X4276655D1*
X448399Y1767459D2*
X1237659D1*
X1534003D2*
X1680147D1*
X1764129D2*
X1784570D1*
X1918286D2*
X1943286D1*
X2337055D2*
X3430972D1*
X3548038D2*
X3730965D1*
X3848030D2*
X3908268D1*
X4194205D2*
X4276655D1*
X448399Y1742591D2*
X1248854D1*
X1522807D2*
X1680147D1*
X1764129D2*
X1795766D1*
X1907091D2*
X1954482D1*
X2302068D2*
X3447049D1*
X3528159D2*
X3747041D1*
X3828151D2*
X3908268D1*
X4203894D2*
X4276655D1*
X448399Y1717722D2*
X735531D1*
X1433025D2*
X1448119D1*
X1486169D2*
X1680147D1*
X1764129D2*
X1832404D1*
X1870453D2*
X1991119D1*
X2029169D2*
X3425912D1*
X3549294D2*
X3725904D1*
X3849286D2*
X3908268D1*
X4228761D2*
X4276655D1*
X448399Y1692853D2*
X710664D1*
X1419461D2*
X1680147D1*
X1764129D2*
X1990509D1*
X2029778D2*
X3419382D1*
X3555861D2*
X3719374D1*
X3855853D2*
X3908268D1*
X4248139D2*
X4276655D1*
X448399Y1667984D2*
X685797D1*
X1394486D2*
X1680147D1*
X1764129D2*
X1954374D1*
X2065915D2*
X3422647D1*
X3552596D2*
X3722639D1*
X3852588D2*
X3908268D1*
X4250364D2*
X4276655D1*
X448399Y1643115D2*
X660928D1*
X777600D2*
X1680147D1*
X1764129D2*
X1943249D1*
X2077038D2*
X2124142D1*
X2244689D2*
X2478462D1*
X2599046D2*
X2986115D1*
X3107093D2*
X3340437D1*
X3537525D2*
X3710188D1*
X4250364D2*
X4276655D1*
X448399Y1618247D2*
X489724D1*
X586804D2*
X636060D1*
X752732D2*
X789717D1*
X886795D2*
X1680147D1*
X1764129D2*
X1942711D1*
X2077576D2*
X2104550D1*
X2264318D2*
X2458870D1*
X2618638D2*
X2966594D1*
X3126579D2*
X3320951D1*
X3480899D2*
X3684207D1*
X4250364D2*
X4276655D1*
X448399Y1593378D2*
X473756D1*
X727865D2*
X773785D1*
X902764D2*
X1408755D1*
X1529732D2*
X1680147D1*
X1764129D2*
X1952400D1*
X2067887D2*
X2095902D1*
X2272966D2*
X2450222D1*
X2627286D2*
X2958018D1*
X3135155D2*
X3312339D1*
X3563576D2*
X3591231D1*
X4250364D2*
X4276655D1*
X448399Y1568509D2*
X469953D1*
X702997D2*
X769945D1*
X906568D2*
X1408755D1*
X1529732D2*
X1680147D1*
X1866290D2*
X1982184D1*
X2038104D2*
X2094394D1*
X2274437D2*
X2448751D1*
X2628757D2*
X2956584D1*
X3136626D2*
X3310904D1*
X4250364D2*
X4276655D1*
X448399Y1543640D2*
X475909D1*
X678129D2*
X775937D1*
X900612D2*
X1408755D1*
X1529732D2*
X1680147D1*
X1866290D2*
X2096295D1*
X2272571D2*
X2450617D1*
X2626891D2*
X2958486D1*
X3134689D2*
X3312806D1*
X3907671D2*
X3936294D1*
X3964223D2*
X3977883D1*
X4250364D2*
X4276655D1*
X448399Y1518772D2*
X495825D1*
X580703D2*
X795818D1*
X880696D2*
X1408755D1*
X1529732D2*
X1680219D1*
X1866290D2*
X2105626D1*
X2263241D2*
X2459946D1*
X2617562D2*
X2967887D1*
X3125287D2*
X3322243D1*
X3697173D2*
X3953016D1*
X4250364D2*
X4276655D1*
X448399Y1493903D2*
X1408755D1*
X1529732D2*
X1690732D1*
X1866290D2*
X2126510D1*
X2242357D2*
X2480831D1*
X2596677D2*
X2988915D1*
X3104295D2*
X3343235D1*
X3458615D2*
X3472992D1*
X3681850D2*
X3928148D1*
X4250364D2*
X4276655D1*
X448399Y1469034D2*
X1411697D1*
X1527220D2*
X1712119D1*
X1846661D2*
X3903280D1*
X4250364D2*
X4276655D1*
X448399Y1444165D2*
X1409114D1*
X1552088D2*
X1721701D1*
X2368094D2*
X3878412D1*
X4250364D2*
X4276655D1*
X448399Y1419297D2*
X1417978D1*
X1576957D2*
X1721701D1*
X2392999D2*
X3853545D1*
X4250364D2*
X4276655D1*
X448399Y1394428D2*
X1452785D1*
X1601824D2*
X1721701D1*
X2417866D2*
X3495995D1*
X4250364D2*
X4276655D1*
X448399Y1369559D2*
X1510020D1*
X1626692D2*
X1721701D1*
X2064730D2*
X2326026D1*
X2442734D2*
X3470337D1*
X4250364D2*
X4276655D1*
X448399Y1344690D2*
X1534888D1*
X1651559D2*
X1721736D1*
X2076680D2*
X2198745D1*
X2497959D2*
X3060899D1*
X3261970D2*
X3283955D1*
X3360400D2*
X3445470D1*
X4250364D2*
X4276655D1*
X448399Y1319822D2*
X1559756D1*
X1676427D2*
X1732538D1*
X2077828D2*
X2198745D1*
X2518773D2*
X3060899D1*
X3381034D2*
X3420602D1*
X4250364D2*
X4276655D1*
X448399Y1294953D2*
X1584623D1*
X1701295D2*
X1757370D1*
X2068857D2*
X2198745D1*
X2524442D2*
X2848644D1*
X2969622D2*
X3060899D1*
X4250364D2*
X4276655D1*
X448399Y1270084D2*
X1609491D1*
X1724009D2*
X1782273D1*
X2069287D2*
X2198745D1*
X2543138D2*
X2848644D1*
X2969622D2*
X3060899D1*
X4250364D2*
X4276655D1*
X448399Y1245215D2*
X1634358D1*
X1728925D2*
X1807142D1*
X2077936D2*
X2198745D1*
X2402328D2*
X2419290D1*
X2558819D2*
X2848644D1*
X2969622D2*
X3060899D1*
X4250364D2*
X4276655D1*
X448399Y1220346D2*
X1437929D1*
X1507844D2*
X1644945D1*
X1728925D2*
X1832009D1*
X2076500D2*
X2475664D1*
X2559644D2*
X2848644D1*
X2969622D2*
X3068614D1*
X4250364D2*
X4276655D1*
X448399Y1195478D2*
X1417223D1*
X1528549D2*
X1644945D1*
X1728925D2*
X1856877D1*
X2064227D2*
X2475664D1*
X2559644D2*
X2861741D1*
X2956488D2*
X3084833D1*
X4250364D2*
X4276655D1*
X448399Y1170609D2*
X1412415D1*
X1533357D2*
X1645196D1*
X1749810D2*
X1774594D1*
X1869054D2*
X1881744D1*
X1967089D2*
X2475664D1*
X2559644D2*
X2849864D1*
X4250364D2*
X4276655D1*
X448399Y1145740D2*
X1418839D1*
X1557759D2*
X1658007D1*
X1967089D2*
X2475664D1*
X2559644D2*
X2850115D1*
X4250364D2*
X4276655D1*
X448399Y1120871D2*
X1412379D1*
X1582626D2*
X1682874D1*
X1967089D2*
X2000055D1*
X2456010D2*
X2475664D1*
X2559644D2*
X2862710D1*
X4250364D2*
X4276655D1*
X448399Y1096003D2*
X1412379D1*
X1607493D2*
X1707741D1*
X1855382D2*
X1881386D1*
X2559644D2*
X2887147D1*
X4250364D2*
X4276655D1*
X448399Y1071134D2*
X1412379D1*
X1632361D2*
X1718759D1*
X2559644D2*
X2862280D1*
X4250364D2*
X4276655D1*
X448399Y1046265D2*
X1412379D1*
X1657230D2*
X1737920D1*
X1873109D2*
X1891576D1*
X2455186D2*
X2475664D1*
X2559644D2*
X2837412D1*
X3044297D2*
X3199770D1*
X4250364D2*
X4276655D1*
X448399Y1021396D2*
X1412379D1*
X1533357D2*
X1565425D1*
X1682097D2*
X1770575D1*
X1873109D2*
X1895524D1*
X2012231D2*
X2475664D1*
X2559644D2*
X2812545D1*
X3046378D2*
X3199770D1*
X4250364D2*
X4276655D1*
X448399Y996528D2*
X1430895D1*
X1527508D2*
X1590293D1*
X1706965D2*
X1781520D1*
X1987364D2*
X2475664D1*
X2559644D2*
X2787677D1*
X3040959D2*
X3199770D1*
X4250364D2*
X4276655D1*
X448399Y971659D2*
X1437031D1*
X1552375D2*
X1615160D1*
X1731832D2*
X1845789D1*
X1962461D2*
X2475664D1*
X2559644D2*
X2762808D1*
X2885114D2*
X2933941D1*
X3022119D2*
X3202211D1*
X4250364D2*
X4276655D1*
X448399Y946790D2*
X1460535D1*
X1577243D2*
X1640029D1*
X1937592D2*
X2454097D1*
X2559286D2*
X2741063D1*
X2907900D2*
X3217247D1*
X3303273D2*
X3317256D1*
X3403282D2*
X3417265D1*
X4250364D2*
X4276655D1*
X448399Y921921D2*
X580189D1*
X787469D2*
X1485403D1*
X1602112D2*
X1664896D1*
X1912724D2*
X2429230D1*
X2545902D2*
X2737188D1*
X2912601D2*
X3429537D1*
X4250364D2*
X4276655D1*
X448399Y897052D2*
X580189D1*
X796798D2*
X1510272D1*
X1618833D2*
X1689764D1*
X1887857D2*
X2404362D1*
X2521033D2*
X2737223D1*
X2905173D2*
X3454404D1*
X4250364D2*
X4276655D1*
X448399Y872184D2*
X580189D1*
X815171D2*
X1354104D1*
X1413001D2*
X1535139D1*
X1619945D2*
X1720445D1*
X1857211D2*
X2379493D1*
X2496165D2*
X2747558D1*
X2888487D2*
X3489751D1*
X4250364D2*
X4276655D1*
X448399Y847315D2*
X580189D1*
X840038D2*
X1327370D1*
X1439735D2*
X1527388D1*
X1639718D2*
X1681833D1*
X2033403D2*
X2354626D1*
X2471298D2*
X2756924D1*
X2907398D2*
X3618287D1*
X4250364D2*
X4276655D1*
X448399Y822446D2*
X748235D1*
X864907D2*
X1319440D1*
X1447701D2*
X1519421D1*
X2046537D2*
X2129596D1*
X2239307D2*
X2331337D1*
X2446430D2*
X2483917D1*
X2593627D2*
X2789184D1*
X2907398D2*
X3618287D1*
X4250364D2*
X4276655D1*
X448399Y797577D2*
X773102D1*
X889774D2*
X1322059D1*
X1445046D2*
X1522077D1*
X2044240D2*
X2107025D1*
X2261841D2*
X2325560D1*
X2421562D2*
X2461345D1*
X2616163D2*
X2805295D1*
X2906967D2*
X3222844D1*
X3297675D2*
X3322853D1*
X3397684D2*
X3422862D1*
X3497693D2*
X3618287D1*
X4250364D2*
X4276655D1*
X448399Y772709D2*
X797970D1*
X1722682D2*
X1974756D1*
X2021848D2*
X2096835D1*
X2272033D2*
X2325560D1*
X2409505D2*
X2451155D1*
X2626390D2*
X2932648D1*
X3023412D2*
X3050097D1*
X3138923D2*
X3203898D1*
X3516640D2*
X3603898D1*
X4249360D2*
X4276655D1*
X448399Y747840D2*
X822837D1*
X1697814D2*
X1958967D1*
X2019373D2*
X2094430D1*
X2274437D2*
X2325560D1*
X2409505D2*
X2448751D1*
X2628794D2*
X2914635D1*
X3157547D2*
X3199770D1*
X3520766D2*
X3599772D1*
X4233031D2*
X4276655D1*
X448399Y722971D2*
X519222D1*
X578084D2*
X847706D1*
X1672946D2*
X1932772D1*
X2045568D2*
X2095471D1*
X2273396D2*
X2325560D1*
X2409505D2*
X2449827D1*
X2627717D2*
X2909682D1*
X3162858D2*
X3199770D1*
X3520766D2*
X3599772D1*
X4208164D2*
X4276655D1*
X448399Y698102D2*
X490514D1*
X606827D2*
X1274441D1*
X1392655D2*
X1574432D1*
X1692647D2*
X1924984D1*
X2053319D2*
X2103329D1*
X2265538D2*
X2325560D1*
X2409505D2*
X2457650D1*
X2619858D2*
X2914455D1*
X3158444D2*
X3199770D1*
X3520766D2*
X3599772D1*
X4193056D2*
X4276655D1*
X448399Y673234D2*
X481113D1*
X616193D2*
X1265793D1*
X1401339D2*
X1565783D1*
X1701331D2*
X1927820D1*
X2050520D2*
X2121558D1*
X2247345D2*
X2325560D1*
X2409505D2*
X2475879D1*
X2601665D2*
X2932075D1*
X3023986D2*
X3047657D1*
X3141399D2*
X3201780D1*
X3518757D2*
X3601781D1*
X4129900D2*
X4276655D1*
X448399Y648365D2*
X481903D1*
X615403D2*
X1267192D1*
X1399940D2*
X1567184D1*
X1699932D2*
X1943178D1*
X2035126D2*
X2325560D1*
X2409505D2*
X3174867D1*
X3538028D2*
X3561125D1*
X4129614D2*
X4276655D1*
X448399Y623496D2*
X493349D1*
X603957D2*
X1279465D1*
X1387631D2*
X1579455D1*
X1687659D2*
X2325560D1*
X2409505D2*
X2694055D1*
X2778933D2*
X3147667D1*
X4116516D2*
X4276655D1*
X571014Y598627D2*
X2325560D1*
X2409505D2*
X2678625D1*
X2794399D2*
X3138731D1*
X4091648D2*
X4154470D1*
X597390Y573759D2*
X1306198D1*
X1360898D2*
X2325560D1*
X2409505D2*
X2676508D1*
X2796480D2*
X3139916D1*
X4066781D2*
X4128130D1*
X611635Y548890D2*
X1275983D1*
X1391112D2*
X1961156D1*
X2017184D2*
X2325560D1*
X2409505D2*
X2686017D1*
X2786971D2*
X3151902D1*
X4041912D2*
X4113848D1*
X618669Y524021D2*
X1266151D1*
X1400945D2*
X1933382D1*
X2044958D2*
X2198745D1*
X2409505D2*
X2429409D1*
X2490676D2*
X2676005D1*
X2796983D2*
X3184987D1*
X4017045D2*
X4106850D1*
X619818Y499152D2*
X1266618D1*
X1400478D2*
X1925092D1*
X2053247D2*
X2198745D1*
X2516547D2*
X2676005D1*
X2796983D2*
X3150286D1*
X3992142D2*
X4105702D1*
X615295Y474283D2*
X1277598D1*
X1389497D2*
X1927461D1*
X2050879D2*
X2198745D1*
X2524227D2*
X2676005D1*
X2796983D2*
X3139449D1*
X3959702D2*
X4110224D1*
X604280Y449415D2*
X1313051D1*
X1354080D2*
X1942138D1*
X2036167D2*
X2198745D1*
X2521320D2*
X2676005D1*
X2796983D2*
X3139091D1*
X3960060D2*
X4121240D1*
X1574449Y2436963D2*
X1583671D1*
X1583773Y2965762D1*
X1584741Y2971882D1*
X1586656Y2977774D1*
X1589469Y2983295D1*
X1593112Y2988308D1*
X1621198Y3016567D1*
X1745343Y3140539D1*
X1750354Y3144181D1*
X1755875Y3146993D1*
X1761768Y3148908D1*
X1767887Y3149877D1*
X1807730Y3149999D1*
X1986449Y3150156D1*
X1992950Y3153467D1*
X1996416Y3154743D1*
X1971797Y3179362D1*
X1591366Y3179377D1*
X1587605Y3171087D1*
X1583567Y3163878D1*
X1578976Y3157008D1*
X1573861Y3150518D1*
X1568252Y3144451D1*
X1562185Y3138843D1*
X1555696Y3133727D1*
X1547277Y3128269D1*
X1555696Y3122736D1*
X1562185Y3117621D1*
X1568252Y3112012D1*
X1573861Y3105945D1*
X1578976Y3099455D1*
X1583567Y3092585D1*
X1587605Y3085375D1*
X1591064Y3077873D1*
X1593924Y3070119D1*
X1596167Y3062168D1*
X1597778Y3054063D1*
X1598749Y3045858D1*
X1599073Y3037601D1*
X1598749Y3029345D1*
X1597778Y3021139D1*
X1596167Y3013035D1*
X1593924Y3005083D1*
X1591064Y2997331D1*
X1587605Y2989827D1*
X1583567Y2982618D1*
X1578976Y2975748D1*
X1573861Y2969259D1*
X1568252Y2963192D1*
X1562185Y2957583D1*
X1555696Y2952467D1*
X1548825Y2947877D1*
X1541617Y2943839D1*
X1534113Y2940379D1*
X1526361Y2937520D1*
X1518408Y2935277D1*
X1510304Y2933665D1*
X1502098Y2932693D1*
X1493841Y2932369D1*
X1485585Y2932693D1*
X1477379Y2933665D1*
X1469276Y2935277D1*
X1461323Y2937520D1*
X1453571Y2940379D1*
X1446067Y2943839D1*
X1438858Y2947877D1*
X1431988Y2952467D1*
X1425499Y2957583D1*
X1419432Y2963192D1*
X1413823Y2969259D1*
X1408707Y2975748D1*
X1404117Y2982618D1*
X1400079Y2989827D1*
X1396619Y2997331D1*
X1393760Y3005083D1*
X1391517Y3013035D1*
X1389906Y3021139D1*
X1388934Y3029345D1*
X1388609Y3037601D1*
X1388934Y3045858D1*
X1389906Y3054063D1*
X1391517Y3062168D1*
X1393760Y3070119D1*
X1396619Y3077873D1*
X1400079Y3085375D1*
X1404117Y3092585D1*
X1408707Y3099455D1*
X1413823Y3105945D1*
X1419432Y3112012D1*
X1425499Y3117621D1*
X1431988Y3122736D1*
X1440407Y3128194D1*
X1431988Y3133727D1*
X1425499Y3138843D1*
X1419432Y3144451D1*
X1413823Y3150518D1*
X1408707Y3157008D1*
X1404117Y3163878D1*
X1400079Y3171087D1*
X1396619Y3178591D1*
X1393760Y3186343D1*
X1391517Y3194295D1*
X1389906Y3202399D1*
X1388934Y3210605D1*
X1388609Y3218861D1*
X1388934Y3227118D1*
X1389906Y3235323D1*
X1391517Y3243428D1*
X1393760Y3251379D1*
X1396619Y3259133D1*
X1400079Y3266635D1*
X1404117Y3273845D1*
X1408707Y3280715D1*
X1413823Y3287205D1*
X1419432Y3293272D1*
X1425499Y3298881D1*
X1431988Y3303996D1*
X1440407Y3309454D1*
X1431988Y3314987D1*
X1425499Y3320102D1*
X1419432Y3325711D1*
X1413823Y3331778D1*
X1408707Y3338268D1*
X1404117Y3345138D1*
X1400079Y3352346D1*
X1396619Y3359850D1*
X1393760Y3367602D1*
X1391517Y3375555D1*
X1389906Y3383659D1*
X1388934Y3391865D1*
X1388609Y3400121D1*
X1388934Y3408378D1*
X1389906Y3416583D1*
X1391517Y3424688D1*
X1393760Y3432639D1*
X1396619Y3440392D1*
X1400079Y3447895D1*
X1404117Y3455105D1*
X1408707Y3461975D1*
X1413823Y3468465D1*
X1419432Y3474531D1*
X1424148Y3478891D1*
X1393517Y3478902D1*
X1256516Y3342106D1*
X1251504Y3338465D1*
X1245983Y3335652D1*
X1240091Y3333738D1*
X1233971Y3332768D1*
X1194127Y3332646D1*
X1048403D1*
X1042280Y3325559D1*
X1034421Y3318846D1*
X1025609Y3313446D1*
X1016060Y3309492D1*
X1006010Y3307079D1*
X995707Y3306268D1*
X985406Y3307079D1*
X975356Y3309492D1*
X965807Y3313446D1*
X956995Y3318846D1*
X949136Y3325559D1*
X942424Y3333417D1*
X937025Y3342230D1*
X933070Y3351778D1*
X930656Y3361827D1*
X929845Y3372130D1*
X930656Y3382433D1*
X933070Y3392483D1*
X937025Y3402031D1*
X942424Y3410843D1*
X949136Y3418702D1*
X956995Y3425413D1*
X965807Y3430814D1*
X975356Y3434769D1*
X985406Y3437181D1*
X995707Y3437992D1*
X1006010Y3437181D1*
X1016060Y3434769D1*
X1025609Y3430814D1*
X1034421Y3425413D1*
X1042280Y3418702D1*
X1048379Y3411621D1*
X1214493Y3411614D1*
X1351487Y3548411D1*
X1356499Y3552052D1*
X1362020Y3554865D1*
X1367912Y3556780D1*
X1374031Y3557749D1*
X1413874Y3557870D1*
X2339364D1*
X2347396Y3566020D1*
X2337346Y3568433D1*
X2327798Y3572387D1*
X2318986Y3577787D1*
X2312655Y3583087D1*
X2304332Y3577037D1*
X2295123Y3572345D1*
X2285294Y3569151D1*
X2275087Y3567534D1*
X2264752D1*
X2254545Y3569151D1*
X2244715Y3572345D1*
X2235507Y3577037D1*
X2227146Y3583112D1*
X2219837Y3590419D1*
X2213762Y3598781D1*
X2209071Y3607990D1*
X2205877Y3617818D1*
X2204260Y3628026D1*
Y3638361D1*
X2205877Y3648568D1*
X2209071Y3658398D1*
X2213762Y3667606D1*
X2219837Y3675967D1*
X2227146Y3683276D1*
X2235507Y3689350D1*
X2244715Y3694042D1*
X2254545Y3697236D1*
X2264752Y3698853D1*
X2275087D1*
X2285294Y3697236D1*
X2295123Y3694042D1*
X2304332Y3689350D1*
X2312693Y3683276D1*
X2314963Y3681177D1*
X2323286Y3687228D1*
X2332495Y3691920D1*
X2342324Y3695114D1*
X2352531Y3696731D1*
X2362866D1*
X2373073Y3695114D1*
X2382903Y3691920D1*
X2392112Y3687228D1*
X2400472Y3681154D1*
X2407781Y3673845D1*
X2413856Y3665484D1*
X2418547Y3656276D1*
X2421741Y3646446D1*
X2422766Y3641234D1*
X2429100Y3647573D1*
X2429110Y3715235D1*
X2423409Y3718945D1*
X2416020Y3725256D1*
X2410614Y3731496D1*
X2405171Y3725256D1*
X2397781Y3718945D1*
X2389496Y3713867D1*
X2380518Y3710150D1*
X2371070Y3707881D1*
X2361382Y3707118D1*
X2351696Y3707881D1*
X2342247Y3710150D1*
X2333269Y3713867D1*
X2324879Y3719028D1*
X2324883Y3707118D1*
X2201033D1*
Y3830969D1*
X2324883D1*
X2324984Y3819142D1*
X2333269Y3824219D1*
X2342247Y3827938D1*
X2351696Y3830206D1*
X2361382Y3830969D1*
X2371070Y3830206D1*
X2380518Y3827938D1*
X2389496Y3824219D1*
X2397781Y3819142D1*
X2405171Y3812832D1*
X2410576Y3806591D1*
X2416020Y3812832D1*
X2423409Y3819142D1*
X2431694Y3824219D1*
X2440672Y3827938D1*
X2450121Y3830206D1*
X2459807Y3830969D1*
X2469495Y3830206D1*
X2478944Y3827938D1*
X2487921Y3824219D1*
X2496206Y3819142D1*
X2503596Y3812832D1*
X2509907Y3805442D1*
X2514983Y3797157D1*
X2518702Y3788180D1*
X2520971Y3778731D1*
X2521732Y3769043D1*
X2520971Y3759357D1*
X2518702Y3749908D1*
X2514983Y3740930D1*
X2509907Y3732644D1*
X2508084Y3730333D1*
X2507958Y3628133D1*
X2506988Y3622013D1*
X2505073Y3616119D1*
X2502261Y3610600D1*
X2498619Y3605587D1*
X2470531Y3577328D1*
X2381394Y3488362D1*
X2376382Y3484720D1*
X2370861Y3481908D1*
X2364969Y3479993D1*
X2358849Y3479024D1*
X2319005Y3478902D1*
X1563608D1*
X1568252Y3474531D1*
X1573861Y3468465D1*
X1578976Y3461975D1*
X1583567Y3455105D1*
X1587605Y3447895D1*
X1591064Y3440392D1*
X1593924Y3432639D1*
X1596167Y3424688D1*
X1597778Y3416583D1*
X1598749Y3408378D1*
X1599073Y3400121D1*
X1598749Y3391865D1*
X1597778Y3383659D1*
X1596167Y3375555D1*
X1593924Y3367602D1*
X1591064Y3359850D1*
X1587605Y3352346D1*
X1583567Y3345138D1*
X1578976Y3338268D1*
X1573861Y3331778D1*
X1568252Y3325711D1*
X1562185Y3320102D1*
X1555696Y3314987D1*
X1547277Y3309529D1*
X1555696Y3303996D1*
X1562185Y3298881D1*
X1568252Y3293272D1*
X1573861Y3287205D1*
X1578976Y3280715D1*
X1583567Y3273845D1*
X1587605Y3266635D1*
X1591343Y3258375D1*
X1988136Y3258345D1*
X1994314Y3257860D1*
X2000339Y3256413D1*
X2006063Y3254042D1*
X2011345Y3250804D1*
X2016056Y3246781D1*
X2256932Y3005906D1*
X2324948Y3005902D1*
X2325049Y2994075D1*
X2333333Y2999152D1*
X2342311Y3002871D1*
X2351760Y3005139D1*
X2361446Y3005902D1*
X2371134Y3005139D1*
X2380583Y3002871D1*
X2389560Y2999152D1*
X2397845Y2994075D1*
X2405235Y2987765D1*
X2410640Y2981524D1*
X2416084Y2987765D1*
X2423474Y2994075D1*
X2431759Y2999152D1*
X2440736Y3002871D1*
X2450185Y3005139D1*
X2459871Y3005902D1*
X2469559Y3005139D1*
X2479008Y3002871D1*
X2487986Y2999152D1*
X2496270Y2994075D1*
X2503660Y2987765D1*
X2509971Y2980375D1*
X2515047Y2972091D1*
X2518766Y2963113D1*
X2521035Y2953664D1*
X2521797Y2943976D1*
X2521035Y2934290D1*
X2518766Y2924841D1*
X2515047Y2915864D1*
X2509971Y2907577D1*
X2503660Y2900189D1*
X2496270Y2893878D1*
X2487986Y2888801D1*
X2479008Y2885083D1*
X2469559Y2882814D1*
X2459871Y2882051D1*
X2450185Y2882814D1*
X2440736Y2885083D1*
X2431759Y2888801D1*
X2423474Y2893878D1*
X2416084Y2900189D1*
X2410678Y2906429D1*
X2405235Y2900189D1*
X2397845Y2893878D1*
X2389560Y2888801D1*
X2380583Y2885083D1*
X2371134Y2882814D1*
X2361446Y2882051D1*
X2351760Y2882814D1*
X2342311Y2885083D1*
X2333333Y2888801D1*
X2324944Y2893961D1*
X2324948Y2882051D1*
X2201097D1*
Y2950052D1*
X2054958Y3096148D1*
X2052167Y3089408D1*
X2048354Y3083188D1*
X2043617Y3077639D1*
X2038068Y3072902D1*
X2031848Y3069089D1*
X2025108Y3066298D1*
X2018014Y3064594D1*
X2015713Y3064177D1*
X2025310Y3062657D1*
X2034551Y3059654D1*
X2043210Y3055243D1*
X2051071Y3049531D1*
X2057942Y3042660D1*
X2063654Y3034798D1*
X2068066Y3026140D1*
X2071068Y3016899D1*
X2072588Y3007302D1*
Y2997584D1*
X2071068Y2987987D1*
X2068066Y2978745D1*
X2063654Y2970087D1*
X2057942Y2962226D1*
X2051071Y2955354D1*
X2043210Y2949643D1*
X2034551Y2945231D1*
X2025310Y2942228D1*
X2015713Y2940709D1*
X2005995D1*
X2005071Y2940818D1*
X1885518Y2821440D1*
X1880505Y2817798D1*
X1874984Y2814984D1*
X1869092Y2813070D1*
X1862972Y2812101D1*
X1823129Y2811979D1*
X1806514D1*
X1807122Y2811026D1*
X1822049D1*
Y2750920D1*
X1928669Y2644269D1*
X1948930Y2644289D1*
X1948929Y2666730D1*
X2072780D1*
Y2542879D1*
X1948929D1*
Y2565307D1*
X1909196Y2565442D1*
X1903076Y2566412D1*
X1897184Y2568325D1*
X1891663Y2571139D1*
X1886651Y2574781D1*
X1858391Y2602869D1*
X1766207Y2695051D1*
X1706072Y2695050D1*
Y2811026D1*
X1722471D1*
X1717146Y2817379D1*
X1712392Y2825138D1*
X1708909Y2833545D1*
X1706786Y2842392D1*
X1706071Y2851463D1*
X1706786Y2860535D1*
X1708909Y2869383D1*
X1712392Y2877790D1*
X1717146Y2885549D1*
X1723056Y2892467D1*
X1729975Y2898377D1*
X1737734Y2903131D1*
X1746140Y2906614D1*
X1754988Y2908738D1*
X1764059Y2909451D1*
X1773131Y2908738D1*
X1781979Y2906614D1*
X1790386Y2903131D1*
X1798144Y2898377D1*
X1805063Y2892467D1*
X1806476Y2890940D1*
X1843543Y2890948D1*
X1949209Y2996636D1*
X1948928Y3002442D1*
X1949690Y3012130D1*
X1951959Y3021579D1*
X1955678Y3030556D1*
X1960755Y3038841D1*
X1967066Y3046231D1*
X1974455Y3052541D1*
X1982740Y3057618D1*
X1991718Y3061337D1*
X2001167Y3063605D1*
X2006659Y3064203D1*
X1999888Y3065307D1*
X1992950Y3067562D1*
X1986224Y3071024D1*
X1787362Y3071030D1*
X1662621Y2946311D1*
X1662619Y2436997D1*
X1681239Y2436963D1*
Y2320987D1*
X1664839D1*
X1670164Y2314635D1*
X1674917Y2306877D1*
X1678400Y2298470D1*
X1680524Y2289622D1*
X1681238Y2280550D1*
X1680524Y2271479D1*
X1678400Y2262631D1*
X1674917Y2254224D1*
X1670164Y2246466D1*
X1664253Y2239546D1*
X1657335Y2233636D1*
X1649576Y2228882D1*
X1641169Y2225400D1*
X1632322Y2223276D1*
X1623249Y2222562D1*
X1614178Y2223276D1*
X1605331Y2225400D1*
X1596924Y2228882D1*
X1589165Y2233636D1*
X1582247Y2239546D1*
X1576336Y2246466D1*
X1571583Y2254224D1*
X1568100Y2262631D1*
X1565976Y2271479D1*
X1565261Y2280550D1*
X1565976Y2289622D1*
X1568100Y2298470D1*
X1571583Y2306877D1*
X1576336Y2314635D1*
X1581727Y2320992D1*
X1565262Y2320987D1*
Y2436963D1*
X1574449D1*
X1212024Y1826617D2*
X1210504Y1817020D1*
X1207501Y1807778D1*
X1203089Y1799119D1*
X1197378Y1791259D1*
X1190507Y1784387D1*
X1182646Y1778676D1*
X1173987Y1774264D1*
X1164745Y1771261D1*
X1155148Y1769741D1*
X1145430D1*
X1135833Y1771261D1*
X1126592Y1774264D1*
X1117933Y1778676D1*
X1110072Y1784387D1*
X1103201Y1791259D1*
X1097490Y1799119D1*
X1093077Y1807778D1*
X1090075Y1817020D1*
X1088555Y1826617D1*
Y1836335D1*
X1088664Y1837259D1*
X990848Y1935249D1*
X987206Y1940262D1*
X984394Y1945782D1*
X982479Y1951676D1*
X981509Y1957795D1*
X981387Y1997638D1*
X981509Y2434592D1*
X982479Y2440711D1*
X984394Y2446604D1*
X987206Y2452125D1*
X990848Y2457136D1*
X1018936Y2485396D1*
X1118630Y2585091D1*
X1118647Y2655630D1*
X1114344Y2659566D1*
X1108033Y2666954D1*
X1102957Y2675240D1*
X1099238Y2684218D1*
X1096969Y2693667D1*
X1096206Y2703353D1*
X1096969Y2713041D1*
X1099238Y2722490D1*
X1102957Y2731467D1*
X1108033Y2739752D1*
X1114344Y2747142D1*
X1121734Y2753451D1*
X1130018Y2758529D1*
X1138996Y2762248D1*
X1148445Y2764516D1*
X1158131Y2765278D1*
X1167819Y2764516D1*
X1177268Y2762248D1*
X1186245Y2758529D1*
X1194530Y2753451D1*
X1201920Y2747142D1*
X1208231Y2739752D1*
X1213307Y2731467D1*
X1217026Y2722490D1*
X1219295Y2713041D1*
X1220056Y2703353D1*
X1219295Y2693667D1*
X1217026Y2684218D1*
X1213307Y2675240D1*
X1208231Y2666954D1*
X1201920Y2659566D1*
X1197618Y2655689D1*
X1197495Y2565656D1*
X1196525Y2559537D1*
X1194610Y2553643D1*
X1191798Y2548123D1*
X1188156Y2543110D1*
X1160068Y2514852D1*
X1060374Y2415157D1*
X1060357Y1977236D1*
X1144476Y1893127D1*
X1150289Y1893400D1*
X1159976Y1892638D1*
X1169425Y1890370D1*
X1178403Y1886651D1*
X1186688Y1881573D1*
X1194077Y1875264D1*
X1200388Y1867874D1*
X1205465Y1859589D1*
X1209184Y1850612D1*
X1211453Y1841163D1*
X1212214Y1831475D1*
X1212024Y1826617D1*
Y2026617D2*
X1210504Y2017020D1*
X1207501Y2007778D1*
X1203089Y1999119D1*
X1197378Y1991259D1*
X1190507Y1984387D1*
X1182646Y1978676D1*
X1173987Y1974264D1*
X1164745Y1971261D1*
X1155148Y1969741D1*
X1145430D1*
X1135833Y1971261D1*
X1126592Y1974264D1*
X1117933Y1978676D1*
X1110072Y1984387D1*
X1103201Y1991259D1*
X1097490Y1999119D1*
X1093077Y2007778D1*
X1090075Y2017020D1*
X1088555Y2026617D1*
Y2036335D1*
X1090075Y2045932D1*
X1093077Y2055173D1*
X1097490Y2063831D1*
X1103201Y2071693D1*
X1110072Y2078564D1*
X1117933Y2084276D1*
X1126592Y2088686D1*
X1135833Y2091690D1*
X1145430Y2093210D1*
X1155148D1*
X1164745Y2091690D1*
X1173987Y2088686D1*
X1182646Y2084276D1*
X1190507Y2078564D1*
X1197378Y2071693D1*
X1203089Y2063831D1*
X1207501Y2055173D1*
X1210504Y2045932D1*
X1212024Y2036335D1*
Y2026617D1*
X1420429Y1607125D2*
X1527219D1*
Y1491148D1*
X1510819D1*
X1516144Y1484797D1*
X1520898Y1477038D1*
X1523944Y1469816D1*
X1716959Y1276634D1*
X1720601Y1271622D1*
X1723413Y1266101D1*
X1725328Y1260209D1*
X1726298Y1254089D1*
X1726420Y1214245D1*
Y1191531D1*
X1768571Y1149346D1*
X1770424Y1156951D1*
X1773671Y1164787D1*
X1778102Y1172018D1*
X1783610Y1178469D1*
X1790059Y1183976D1*
X1797291Y1188408D1*
X1805127Y1191654D1*
X1813374Y1193634D1*
X1821829Y1194299D1*
X1830286Y1193634D1*
X1838533Y1191654D1*
X1846369Y1188408D1*
X1853601Y1183976D1*
X1860050Y1178469D1*
X1865558Y1172018D1*
X1869990Y1164787D1*
X1873236Y1156951D1*
X1875215Y1148703D1*
X1875881Y1140248D1*
X1875215Y1131793D1*
X1873236Y1123546D1*
X1869990Y1115710D1*
X1865558Y1108478D1*
X1860050Y1102029D1*
X1853601Y1096520D1*
X1846369Y1092088D1*
X1838984Y1089009D1*
X1846180Y1088930D1*
X1850286Y1088281D1*
X1854240Y1086996D1*
X1857944Y1085109D1*
X1861307Y1082665D1*
X1864247Y1079726D1*
X1866690Y1076362D1*
X1868577Y1072659D1*
X1869862Y1068705D1*
X1870512Y1064598D1*
X1870594Y1017976D1*
X1870268Y1013832D1*
X1869297Y1009790D1*
X1867706Y1005950D1*
X1865534Y1002406D1*
X1862835Y999244D1*
X1859673Y996545D1*
X1856129Y994373D1*
X1852289Y992781D1*
X1848245Y991811D1*
X1844101Y991484D1*
X1797480Y991566D1*
X1793374Y992217D1*
X1789420Y993501D1*
X1785717Y995388D1*
X1782353Y997832D1*
X1779413Y1000772D1*
X1776970Y1004135D1*
X1775083Y1007839D1*
X1773798Y1011793D1*
X1773148Y1015898D1*
X1773066Y1036241D1*
X1767589Y1036364D1*
X1759213Y1037690D1*
X1751146Y1040311D1*
X1743588Y1044163D1*
X1736727Y1049147D1*
X1730730Y1055144D1*
X1725744Y1062007D1*
X1721894Y1069564D1*
X1719272Y1077630D1*
X1717945Y1086008D1*
X1717853Y1088377D1*
X1656911Y1149500D1*
X1653269Y1154513D1*
X1650457Y1160033D1*
X1648542Y1165927D1*
X1647572Y1172046D1*
X1647450Y1211888D1*
Y1234604D1*
X1486701Y1395386D1*
X1478302Y1393437D1*
X1469230Y1392723D1*
X1460159Y1393437D1*
X1451311Y1395562D1*
X1442904Y1399043D1*
X1435146Y1403798D1*
X1428227Y1409707D1*
X1422316Y1416627D1*
X1417563Y1424386D1*
X1414080Y1432793D1*
X1411957Y1441640D1*
X1411241Y1450711D1*
X1411957Y1459783D1*
X1414080Y1468631D1*
X1417563Y1477038D1*
X1422316Y1484797D1*
X1427707Y1491154D1*
X1411243Y1491148D1*
Y1607125D1*
X1420429D1*
X1445289Y811566D2*
X1443769Y801969D1*
X1440766Y792727D1*
X1439438Y789846D1*
X1527642Y789832D1*
X1524660Y797289D1*
X1522391Y806738D1*
X1521629Y816424D1*
X1522391Y826112D1*
X1524660Y835560D1*
X1528379Y844538D1*
X1533455Y852823D1*
X1538465Y858803D1*
X1538471Y871364D1*
X1442860Y967152D1*
X1439218Y972165D1*
X1436406Y977685D1*
X1434491Y983579D1*
X1433521Y989698D1*
X1433399Y1015869D1*
X1414896Y1015871D1*
Y1131848D1*
X1431295D1*
X1425970Y1138201D1*
X1421217Y1145959D1*
X1417734Y1154366D1*
X1415610Y1163214D1*
X1414895Y1172285D1*
X1415610Y1181357D1*
X1417734Y1190205D1*
X1421217Y1198612D1*
X1425970Y1206370D1*
X1431881Y1213289D1*
X1438799Y1219198D1*
X1446558Y1223953D1*
X1454965Y1227436D1*
X1463812Y1229559D1*
X1472883Y1230273D1*
X1481955Y1229559D1*
X1490803Y1227436D1*
X1499210Y1223953D1*
X1506969Y1219198D1*
X1513887Y1213289D1*
X1519798Y1206370D1*
X1524551Y1198612D1*
X1528034Y1190205D1*
X1530157Y1181357D1*
X1530871Y1172285D1*
X1530790Y1170206D1*
X1751929Y949079D1*
X1825749Y949080D1*
X1911719Y1035079D1*
X1906037Y1037533D1*
X1899816Y1041345D1*
X1894269Y1046083D1*
X1889530Y1051630D1*
X1885719Y1057850D1*
X1882927Y1064591D1*
X1881224Y1071685D1*
X1880651Y1078958D1*
X1881224Y1086231D1*
X1882927Y1093324D1*
X1885605Y1099819D1*
X1885609Y1169247D1*
X1733643Y1321369D1*
X1730001Y1326382D1*
X1727189Y1331902D1*
X1725274Y1337794D1*
X1724304Y1343913D1*
X1724182Y1383757D1*
Y1448385D1*
X1720938Y1453071D1*
X1717367Y1460077D1*
X1714938Y1467556D1*
X1713970Y1473110D1*
X1692112Y1495143D1*
X1688470Y1500156D1*
X1685657Y1505676D1*
X1683743Y1511568D1*
X1682774Y1517688D1*
X1682652Y1557531D1*
Y1833087D1*
X1678056Y1832711D1*
X1631436Y1832793D1*
X1627329Y1833444D1*
X1623375Y1834728D1*
X1619672Y1836615D1*
X1616308Y1839059D1*
X1613369Y1841999D1*
X1610925Y1845362D1*
X1609038Y1849066D1*
X1607753Y1853020D1*
X1607104Y1857125D1*
X1607021Y1877469D1*
X1601545Y1877591D1*
X1593168Y1878917D1*
X1585101Y1881538D1*
X1577543Y1885390D1*
X1570682Y1890374D1*
X1564685Y1896371D1*
X1559699Y1903234D1*
X1555849Y1910791D1*
X1553227Y1918857D1*
X1551900Y1927235D1*
Y1935717D1*
X1553227Y1944093D1*
X1555849Y1952160D1*
X1559699Y1959717D1*
X1564685Y1966579D1*
X1570682Y1972576D1*
X1577543Y1977562D1*
X1585101Y1981412D1*
X1593168Y1984033D1*
X1601860Y1985373D1*
X1603227Y1994093D1*
X1605849Y2002160D1*
X1609699Y2009717D1*
X1614685Y2016579D1*
X1620682Y2022576D1*
X1627543Y2027562D1*
X1635101Y2031412D1*
X1643168Y2034033D1*
X1651545Y2035360D1*
X1660026D1*
X1668403Y2034033D1*
X1676470Y2031412D1*
X1684028Y2027562D1*
X1690888Y2022576D1*
X1695210Y2018392D1*
X1701824Y2015142D1*
X1706837Y2011500D1*
X1735096Y1983412D1*
X1752160Y1966176D1*
X1755802Y1961163D1*
X1758615Y1955643D1*
X1760530Y1949751D1*
X1761499Y1943631D1*
X1761621Y1903787D1*
Y1537159D1*
X1763529Y1535232D1*
X1763554Y1579369D1*
X1863782D1*
Y1479140D1*
X1818459D1*
X1825366Y1477984D1*
X1832845Y1475554D1*
X1839852Y1471984D1*
X1844463Y1468741D1*
X2327781Y1468618D1*
X2333900Y1467648D1*
X2339793Y1465734D1*
X2345314Y1462921D1*
X2350327Y1459280D1*
X2378585Y1431192D1*
X2454226Y1355552D1*
X2460017Y1355845D1*
X2469705Y1355083D1*
X2479154Y1352815D1*
X2488131Y1349096D1*
X2496416Y1344018D1*
X2503806Y1337709D1*
X2510117Y1330319D1*
X2515193Y1322034D1*
X2518912Y1313056D1*
X2521181Y1303608D1*
X2521942Y1293920D1*
X2521741Y1288967D1*
X2547672Y1262862D1*
X2551314Y1257849D1*
X2554126Y1252329D1*
X2556041Y1246436D1*
X2557010Y1240316D1*
X2557133Y1200474D1*
X2557010Y948911D1*
X2556041Y942791D1*
X2554126Y936899D1*
X2551314Y931378D1*
X2547672Y926366D1*
X2519584Y898106D1*
X2407000Y785522D1*
X2407021Y510986D1*
X2410798Y506404D1*
X2416241Y512646D1*
X2423631Y518955D1*
X2431916Y524033D1*
X2440894Y527752D1*
X2450343Y530020D1*
X2460029Y530782D1*
X2469717Y530020D1*
X2479165Y527752D1*
X2488143Y524033D1*
X2496428Y518955D1*
X2503818Y512646D1*
X2510129Y505256D1*
X2515205Y496971D1*
X2518924Y487993D1*
X2521193Y478545D1*
X2521954Y468857D1*
X2521193Y459171D1*
X2518924Y449722D1*
X2517524Y445925D1*
X2678546Y445937D1*
X2678512Y541012D1*
X2694911D1*
X2689585Y547365D1*
X2684832Y555123D1*
X2681349Y563530D1*
X2679226Y572378D1*
X2678510Y581449D1*
X2679226Y590521D1*
X2681349Y599369D1*
X2684832Y607776D1*
X2689585Y615534D1*
X2695496Y622453D1*
X2702415Y628362D1*
X2710173Y633117D1*
X2718580Y636600D1*
X2727428Y638723D1*
X2736499Y639437D1*
X2745571Y638723D1*
X2754419Y636600D1*
X2762825Y633117D1*
X2770584Y628362D1*
X2777503Y622453D1*
X2783413Y615534D1*
X2788167Y607776D1*
X2791650Y599369D1*
X2793773Y590521D1*
X2794487Y581449D1*
X2793773Y572378D1*
X2791650Y563530D1*
X2788167Y555123D1*
X2783413Y547365D1*
X2778022Y541007D1*
X2794488Y541012D1*
Y445955D1*
X3142314Y445937D1*
X3140781Y455778D1*
Y466113D1*
X3142398Y476320D1*
X3145592Y486150D1*
X3150283Y495358D1*
X3156358Y503719D1*
X3163667Y511028D1*
X3172028Y517102D1*
X3181236Y521794D1*
X3191066Y524988D1*
X3191639Y525102D1*
X3186088Y526635D1*
X3176539Y530589D1*
X3167727Y535990D1*
X3159869Y542702D1*
X3153156Y550560D1*
X3147757Y559373D1*
X3143802Y568921D1*
X3141388Y578970D1*
X3140577Y589273D1*
X3141388Y599576D1*
X3143802Y609626D1*
X3147757Y619175D1*
X3153156Y627986D1*
X3159869Y635845D1*
X3167727Y642556D1*
X3176539Y647957D1*
X3186088Y651912D1*
X3196138Y654324D1*
X3206440Y655135D1*
X3212951Y654773D1*
X3208601Y661961D1*
X3205118Y670367D1*
X3202995Y679215D1*
X3202281Y688304D1*
X3202459Y755828D1*
X3203882Y764816D1*
X3206694Y773470D1*
X3210825Y781577D1*
X3216173Y788938D1*
X3222608Y795373D1*
X3229970Y800722D1*
X3238077Y804853D1*
X3246731Y807664D1*
X3255719Y809088D1*
X3264818D1*
X3273806Y807664D1*
X3282459Y804853D1*
X3290567Y800722D1*
X3297929Y795373D1*
X3304364Y788938D1*
X3309711Y781577D1*
X3310241Y780631D1*
X3313354Y785364D1*
X3319265Y792282D1*
X3326184Y798192D1*
X3333942Y802946D1*
X3342349Y806429D1*
X3351197Y808552D1*
X3360268Y809266D1*
X3369340Y808552D1*
X3378188Y806429D1*
X3386594Y802946D1*
X3394353Y798192D1*
X3401272Y792282D1*
X3407182Y785364D1*
X3410241Y780631D1*
X3413354Y785364D1*
X3419265Y792282D1*
X3426184Y798192D1*
X3433942Y802946D1*
X3442349Y806429D1*
X3451197Y808552D1*
X3460268Y809266D1*
X3469340Y808552D1*
X3478188Y806429D1*
X3486594Y802946D1*
X3494353Y798192D1*
X3501272Y792282D1*
X3507182Y785364D1*
X3511936Y777605D1*
X3515419Y769198D1*
X3517542Y760350D1*
X3518256Y751278D1*
Y688286D1*
X3517542Y679215D1*
X3515419Y670367D1*
X3511936Y661961D1*
X3507804Y655134D1*
X3516743Y654324D1*
X3526793Y651912D1*
X3536341Y647957D1*
X3545154Y642556D1*
X3549555Y639039D1*
X3558308Y645430D1*
X3567517Y650122D1*
X3577346Y653316D1*
X3587554Y654933D1*
X3597888D1*
X3608096Y653316D1*
X3616012Y650828D1*
X3610825Y657988D1*
X3606694Y666096D1*
X3603882Y674749D1*
X3602459Y683736D1*
X3602281Y706659D1*
X3602459Y755828D1*
X3603882Y764816D1*
X3606694Y773470D1*
X3610825Y781577D1*
X3616173Y788938D1*
X3620793Y793696D1*
X3620783Y871680D1*
X3495560Y871783D1*
X3489441Y872752D1*
X3483549Y874667D1*
X3478028Y877480D1*
X3473016Y881122D1*
X3444756Y909209D1*
X3430244Y923894D1*
X3426602Y928906D1*
X3423790Y934427D1*
X3421875Y940319D1*
X3421269Y943371D1*
X3419265Y947282D1*
X3413354Y954202D1*
X3410295Y958934D1*
X3407182Y954202D1*
X3401272Y947282D1*
X3394353Y941373D1*
X3386594Y936618D1*
X3378188Y933136D1*
X3369340Y931012D1*
X3360268Y930298D1*
X3351197Y931012D1*
X3342349Y933136D1*
X3333942Y936618D1*
X3326184Y941373D1*
X3319265Y947282D1*
X3313354Y954202D1*
X3310295Y958934D1*
X3307182Y954202D1*
X3301272Y947282D1*
X3294353Y941373D1*
X3286594Y936618D1*
X3278188Y933136D1*
X3269340Y931012D1*
X3260268Y930298D1*
X3251197Y931012D1*
X3242349Y933136D1*
X3233942Y936618D1*
X3226184Y941373D1*
X3219265Y947282D1*
X3213354Y954202D1*
X3208601Y961961D1*
X3205118Y970367D1*
X3202995Y979215D1*
X3202281Y988304D1*
Y1049094D1*
X3044648Y1049110D1*
X3040155Y1044613D1*
X3042076Y1038101D1*
X3043693Y1027894D1*
Y1017559D1*
X3042076Y1007350D1*
X3038882Y997522D1*
X3034190Y988314D1*
X3028115Y979951D1*
X3020807Y972644D1*
X3012446Y966570D1*
X3003238Y961878D1*
X2993408Y958684D1*
X2983201Y957067D1*
X2972866D1*
X2962659Y958684D1*
X2952829Y961878D1*
X2943621Y966570D1*
X2935260Y972644D1*
X2927951Y979951D1*
X2921877Y988314D1*
X2917185Y997522D1*
X2913991Y1007350D1*
X2913774Y1008441D1*
X2878862Y973538D1*
X2884373Y970617D1*
X2891234Y965631D1*
X2897231Y959634D1*
X2902217Y952772D1*
X2906067Y945215D1*
X2908688Y937148D1*
X2910016Y928772D1*
Y920290D1*
X2908688Y911912D1*
X2906067Y903846D1*
X2902217Y896289D1*
X2897231Y889427D1*
X2891234Y883429D1*
X2884373Y878445D1*
X2876815Y874593D1*
X2873285Y873291D1*
X2880480Y873213D1*
X2884587Y872563D1*
X2888541Y871278D1*
X2892244Y869391D1*
X2895608Y866948D1*
X2898547Y864008D1*
X2900991Y860644D1*
X2902878Y856941D1*
X2904163Y852987D1*
X2904812Y848881D1*
X2904895Y802259D1*
X2904568Y798114D1*
X2903598Y794072D1*
X2902007Y790232D1*
X2899835Y786688D1*
X2897135Y783526D1*
X2893974Y780827D1*
X2890429Y778654D1*
X2886589Y777063D1*
X2882546Y776093D1*
X2878402Y775766D1*
X2831781Y775848D1*
X2827675Y776499D1*
X2823720Y777783D1*
X2820017Y779671D1*
X2816654Y782114D1*
X2813714Y785054D1*
X2811270Y788417D1*
X2809383Y792121D1*
X2808098Y796075D1*
X2807449Y800180D1*
X2807366Y820524D1*
X2801890Y820646D1*
X2793513Y821972D1*
X2785446Y824593D1*
X2777888Y828445D1*
X2771028Y833429D1*
X2765030Y839427D1*
X2760045Y846289D1*
X2756194Y853846D1*
X2753572Y861912D1*
X2752291Y869911D1*
X2747219Y875657D1*
X2743982Y880941D1*
X2741610Y886665D1*
X2740164Y892689D1*
X2739678Y898878D1*
X2739799Y932776D1*
X2740769Y938896D1*
X2742684Y944789D1*
X2745496Y950308D1*
X2749138Y955322D1*
X2777226Y983581D1*
X2895950Y1102306D1*
X2891209Y1103602D1*
X2882802Y1107084D1*
X2875043Y1111839D1*
X2868125Y1117748D1*
X2862214Y1124668D1*
X2857461Y1132427D1*
X2853978Y1140833D1*
X2851854Y1149681D1*
X2851139Y1158752D1*
X2851854Y1167824D1*
X2853978Y1176672D1*
X2857461Y1185079D1*
X2862214Y1192837D1*
X2867605Y1199194D1*
X2851140Y1199189D1*
Y1315165D1*
X2967117D1*
Y1199189D1*
X2950718D1*
X2956042Y1192837D1*
X2960795Y1185079D1*
X2964278Y1176672D1*
X2965948Y1170109D1*
X2969933Y1172038D1*
X2975825Y1173953D1*
X2981945Y1174923D1*
X3021789Y1175043D1*
X3253636D1*
X3252007Y1176020D1*
X3120050Y1176148D1*
X3113930Y1177117D1*
X3108038Y1179031D1*
X3102517Y1181845D1*
X3097505Y1185487D1*
X3081694Y1201125D1*
X3077671Y1205836D1*
X3074433Y1211118D1*
X3072063Y1216843D1*
X3070617Y1222867D1*
X3070130Y1229043D1*
Y1232165D1*
X3063412Y1232177D1*
Y1356028D1*
X3187262D1*
X3187364Y1344201D1*
X3195648Y1349278D1*
X3204626Y1352997D1*
X3214075Y1355265D1*
X3223761Y1356028D1*
X3233449Y1355265D1*
X3242898Y1352997D1*
X3251875Y1349278D1*
X3260160Y1344201D1*
X3267550Y1337891D1*
X3272955Y1331650D1*
X3278399Y1337891D1*
X3285789Y1344201D1*
X3294073Y1349278D1*
X3303051Y1352997D1*
X3312500Y1355265D1*
X3322186Y1356028D1*
X3331874Y1355265D1*
X3341323Y1352997D1*
X3350301Y1349278D1*
X3358585Y1344201D1*
X3365975Y1337891D1*
X3372286Y1330501D1*
X3377362Y1322217D1*
X3381081Y1313239D1*
X3383350Y1303790D1*
X3384112Y1294102D1*
X3383350Y1284416D1*
X3382201Y1278933D1*
X3495703Y1392255D1*
X3500717Y1395896D1*
X3506236Y1398709D1*
X3512129Y1400623D1*
X3518249Y1401593D1*
X3558092Y1401715D1*
X3838455D1*
X3984755Y1548001D1*
X3983524Y1556251D1*
X3977581Y1551081D1*
X3971361Y1547269D1*
X3964621Y1544478D1*
X3957526Y1542774D1*
X3950253Y1542202D1*
X3942980Y1542774D1*
X3935887Y1544478D1*
X3929147Y1547269D1*
X3922927Y1551081D1*
X3917378Y1555819D1*
X3912640Y1561366D1*
X3908828Y1567587D1*
X3906037Y1574327D1*
X3905165Y1577415D1*
X3905164Y1528038D1*
X3781314D1*
Y1541136D1*
X3773022Y1535072D1*
X3764364Y1530660D1*
X3755122Y1527657D1*
X3745525Y1526138D1*
X3735807D1*
X3726210Y1527657D1*
X3716969Y1530660D1*
X3708310Y1535072D1*
X3700449Y1540783D1*
X3698119Y1542937D1*
X3697970Y1534837D1*
X3696353Y1524629D1*
X3693159Y1514801D1*
X3688467Y1505592D1*
X3682392Y1497230D1*
X3675084Y1489923D1*
X3666723Y1483848D1*
X3657514Y1479156D1*
X3647685Y1475962D1*
X3637478Y1474345D1*
X3627143D1*
X3616936Y1475962D1*
X3607106Y1479156D1*
X3597898Y1483848D1*
X3589537Y1489923D1*
X3582228Y1497230D1*
X3577490Y1503593D1*
X3572667Y1497168D1*
X3565358Y1489861D1*
X3556997Y1483786D1*
X3547789Y1479094D1*
X3537959Y1475900D1*
X3527752Y1474283D1*
X3517417D1*
X3507210Y1475900D1*
X3497381Y1479094D1*
X3488172Y1483786D1*
X3479811Y1489861D1*
X3472503Y1497168D1*
X3467091Y1504539D1*
X3462810Y1499936D1*
X3457764Y1495272D1*
X3452367Y1491017D1*
X3446654Y1487199D1*
X3440659Y1483843D1*
X3434419Y1480966D1*
X3427971Y1478587D1*
X3421357Y1476722D1*
X3414618Y1475381D1*
X3407794Y1474573D1*
X3400927Y1474303D1*
X3394060Y1474573D1*
X3387236Y1475381D1*
X3380497Y1476722D1*
X3373883Y1478587D1*
X3367436Y1480966D1*
X3361196Y1483843D1*
X3355201Y1487199D1*
X3349487Y1491017D1*
X3344091Y1495272D1*
X3339045Y1499936D1*
X3334379Y1504983D1*
X3330126Y1510379D1*
X3326307Y1516092D1*
X3322950Y1522088D1*
X3320073Y1528328D1*
X3317694Y1534776D1*
X3315829Y1541390D1*
X3314490Y1548129D1*
X3313681Y1554953D1*
X3313411Y1571005D1*
X3313681Y1584433D1*
X3314490Y1591257D1*
X3315829Y1597997D1*
X3317694Y1604612D1*
X3320073Y1611058D1*
X3322950Y1617299D1*
X3326307Y1623294D1*
X3330126Y1629008D1*
X3334379Y1634404D1*
X3339045Y1639450D1*
X3344091Y1644114D1*
X3349487Y1648369D1*
X3355201Y1652186D1*
X3361196Y1655545D1*
X3367436Y1658421D1*
X3373883Y1660799D1*
X3380497Y1662665D1*
X3387236Y1664005D1*
X3394060Y1664814D1*
X3400927Y1665083D1*
X3407794Y1664814D1*
X3414618Y1664005D1*
X3421357Y1662665D1*
X3427996Y1660790D1*
X3424971Y1668483D1*
X3422558Y1678531D1*
X3421747Y1688835D1*
X3422558Y1699138D1*
X3424971Y1709188D1*
X3428927Y1718736D1*
X3434325Y1727547D1*
X3441038Y1735407D1*
X3448896Y1742118D1*
X3454976Y1745988D1*
X3446717Y1751988D1*
X3439408Y1759295D1*
X3433333Y1767657D1*
X3428642Y1776866D1*
X3425448Y1786694D1*
X3423831Y1796903D1*
Y1807238D1*
X3425448Y1817445D1*
X3428642Y1827274D1*
X3433333Y1836483D1*
X3439408Y1844844D1*
X3446717Y1852152D1*
X3448255Y1853365D1*
X3441201Y1858580D1*
X3434329Y1865451D1*
X3428618Y1873312D1*
X3424206Y1881971D1*
X3421203Y1891213D1*
X3419684Y1900810D1*
X3419652Y1901626D1*
X2928630Y1901630D1*
X2923822Y1897020D1*
X2916459Y1891672D1*
X2908352Y1887541D1*
X2899698Y1884728D1*
X2890710Y1883306D1*
X2881612D1*
X2872623Y1884728D1*
X2863970Y1887541D1*
X2855862Y1891672D1*
X2848500Y1897020D1*
X2842066Y1903454D1*
X2836718Y1910816D1*
X2832587Y1918924D1*
X2829774Y1927577D1*
X2828352Y1936564D1*
Y1945664D1*
X2829774Y1954652D1*
X2832587Y1963306D1*
X2836718Y1971413D1*
X2842066Y1978774D1*
X2844638Y1981556D1*
X2828173Y1981551D1*
Y2097528D1*
X2944150D1*
Y1981551D1*
X2927749D1*
X2932092Y1980598D1*
X3449070Y1980478D1*
X3455189Y1979508D1*
X3461081Y1977593D1*
X3466602Y1974781D1*
X3471614Y1971139D1*
X3475592Y1967335D1*
X3481417Y1967593D1*
X3491105Y1966831D1*
X3500554Y1964563D1*
X3509531Y1960844D1*
X3517816Y1955766D1*
X3525206Y1949457D1*
X3531517Y1942067D1*
X3536593Y1933782D1*
X3540312Y1924804D1*
X3542581Y1915356D1*
X3543343Y1905668D1*
X3542581Y1895982D1*
X3540312Y1886533D1*
X3536593Y1877555D1*
X3531517Y1869269D1*
X3525206Y1861881D1*
X3522291Y1859186D1*
X3528203Y1855353D1*
X3536062Y1848642D1*
X3542774Y1840782D1*
X3548173Y1831971D1*
X3552129Y1822423D1*
X3554542Y1812373D1*
X3555352Y1802070D1*
X3554542Y1791766D1*
X3552129Y1781718D1*
X3548173Y1772169D1*
X3542774Y1763357D1*
X3536062Y1755499D1*
X3528203Y1748786D1*
X3522123Y1744916D1*
X3530383Y1738917D1*
X3537692Y1731609D1*
X3543766Y1723248D1*
X3548458Y1714039D1*
X3551652Y1704210D1*
X3553269Y1694003D1*
Y1683668D1*
X3551652Y1673459D1*
X3548458Y1663631D1*
X3543766Y1654423D1*
X3537692Y1646060D1*
X3530383Y1638753D1*
X3522022Y1632678D1*
X3512814Y1627987D1*
X3502984Y1624793D1*
X3492777Y1623176D1*
X3482442D1*
X3474949Y1624253D1*
X3478904Y1617299D1*
X3481781Y1611058D1*
X3484160Y1604612D1*
X3486596Y1595127D1*
X3492684Y1598626D1*
X3502232Y1602581D1*
X3512282Y1604993D1*
X3522584Y1605804D1*
X3532887Y1604993D1*
X3542937Y1602581D1*
X3552486Y1598626D1*
X3561298Y1593226D1*
X3569156Y1586514D1*
X3575869Y1578655D1*
X3577406Y1576354D1*
X3582228Y1582778D1*
X3589537Y1590087D1*
X3597898Y1596161D1*
X3607106Y1600853D1*
X3616936Y1604047D1*
X3627143Y1605664D1*
X3637478D1*
X3647685Y1604047D1*
X3657514Y1600853D1*
X3666723Y1596161D1*
X3675084Y1590087D1*
X3678748Y1586699D1*
X3678932Y1592731D1*
X3680451Y1602328D1*
X3683454Y1611570D1*
X3687866Y1620227D1*
X3693577Y1628089D1*
X3700449Y1634961D1*
X3708310Y1640672D1*
X3716969Y1645083D1*
X3726210Y1648087D1*
X3734807Y1649488D1*
X3731453Y1654423D1*
X3726761Y1663631D1*
X3723567Y1673459D1*
X3721950Y1683668D1*
Y1694003D1*
X3723567Y1704210D1*
X3726761Y1714039D1*
X3731453Y1723248D1*
X3737528Y1731609D1*
X3744836Y1738917D1*
X3753197Y1744992D1*
X3754976Y1745988D1*
X3746717Y1751988D1*
X3739408Y1759295D1*
X3733333Y1767657D1*
X3728642Y1776866D1*
X3725448Y1786694D1*
X3723831Y1796903D1*
Y1807238D1*
X3725448Y1817445D1*
X3728642Y1827274D1*
X3733333Y1836483D1*
X3739408Y1844844D1*
X3746717Y1852152D1*
X3755077Y1858227D1*
X3764286Y1862919D1*
X3774115Y1866113D1*
X3784323Y1867730D1*
X3794657D1*
X3804865Y1866113D1*
X3814694Y1862919D1*
X3823903Y1858227D1*
X3832264Y1852152D1*
X3839572Y1844844D1*
X3845647Y1836483D1*
X3850339Y1827274D1*
X3853533Y1817445D1*
X3855150Y1807238D1*
Y1796903D1*
X3853533Y1786694D1*
X3850339Y1776866D1*
X3845647Y1767657D1*
X3839572Y1759295D1*
X3832264Y1751988D1*
X3823903Y1745913D1*
X3822123Y1744916D1*
X3830383Y1738917D1*
X3837692Y1731609D1*
X3843766Y1723248D1*
X3848458Y1714039D1*
X3851652Y1704210D1*
X3853269Y1694003D1*
Y1683668D1*
X3851652Y1673459D1*
X3848458Y1663631D1*
X3843766Y1654423D1*
X3842072Y1651886D1*
X3905164Y1651888D1*
Y1600035D1*
X3907301Y1606486D1*
X3910762Y1613211D1*
X3910769Y2109625D1*
X3787856Y2232710D1*
X3784213Y2237722D1*
X3781400Y2243243D1*
X3779486Y2249135D1*
X3778517Y2255255D1*
X3778395Y2295098D1*
Y3168627D1*
X3094180Y3852832D1*
X2086289Y3852963D1*
X2080169Y3853932D1*
X2074277Y3855846D1*
X2068756Y3858660D1*
X2063743Y3862302D1*
X2035484Y3890388D1*
X2002016Y3923857D1*
X1984051Y3923835D1*
X1977896Y3916748D1*
X1970038Y3910035D1*
X1961226Y3904635D1*
X1951677Y3900681D1*
X1941627Y3898268D1*
X1931324Y3897457D1*
X1921022Y3898268D1*
X1910972Y3900681D1*
X1901424Y3904635D1*
X1892612Y3910035D1*
X1884753Y3916748D1*
X1878041Y3924606D1*
X1872642Y3933419D1*
X1871702Y3935455D1*
X1868508Y3929593D1*
X1862433Y3921231D1*
X1855125Y3913924D1*
X1846764Y3907849D1*
X1837555Y3903157D1*
X1827726Y3899963D1*
X1817518Y3898346D1*
X1807184D1*
X1796976Y3899963D1*
X1787147Y3903157D1*
X1777938Y3907849D1*
X1769577Y3913924D1*
X1762269Y3921231D1*
X1756194Y3929593D1*
X1751503Y3938802D1*
X1748308Y3948630D1*
X1746692Y3958839D1*
Y3969173D1*
X1748308Y3979381D1*
X1751503Y3989210D1*
X1756194Y3998419D1*
X1762269Y4006780D1*
X1769577Y4014088D1*
X1777938Y4020163D1*
X1787147Y4024854D1*
X1796976Y4028049D1*
X1807184Y4029665D1*
X1817518D1*
X1827726Y4028049D1*
X1837555Y4024854D1*
X1846764Y4020163D1*
X1855125Y4014088D1*
X1862433Y4006780D1*
X1868508Y3998419D1*
X1871974Y3991870D1*
X1875168Y3997732D1*
X1881243Y4006093D1*
X1888551Y4013402D1*
X1896912Y4019476D1*
X1906121Y4024168D1*
X1915950Y4027362D1*
X1926157Y4028979D1*
X1936492D1*
X1946699Y4027362D1*
X1956529Y4024168D1*
X1965738Y4019476D1*
X1974098Y4013402D1*
X1981407Y4006093D1*
X1983996Y4002810D1*
X2021491Y4002682D1*
X2027610Y4001713D1*
X2033503Y3999798D1*
X2039024Y3996986D1*
X2044035Y3993344D1*
X2072295Y3965256D1*
X2105764Y3931787D1*
X3110526Y3931810D1*
X3116703Y3931324D1*
X3122728Y3929877D1*
X3128453Y3927507D1*
X3133735Y3924269D1*
X3138446Y3920245D1*
X3847903Y3210615D1*
X3851545Y3205604D1*
X3854358Y3200083D1*
X3856273Y3194190D1*
X3857241Y3188071D1*
X3857364Y3148227D1*
Y2429287D1*
X3863891Y2433602D1*
X3871100Y2437639D1*
X3878604Y2441098D1*
X3886356Y2443959D1*
X3894308Y2446202D1*
X3902412Y2447814D1*
X3910618Y2448785D1*
X3918874Y2449109D1*
X3927131Y2448785D1*
X3935337Y2447814D1*
X3943441Y2446202D1*
X3951394Y2443959D1*
X3959146Y2441098D1*
X3966650Y2437639D1*
X3973858Y2433602D1*
X3980728Y2429012D1*
X3987218Y2423896D1*
X3993285Y2418287D1*
X3998894Y2412220D1*
X4004009Y2405731D1*
X4008600Y2398861D1*
X4012638Y2391651D1*
X4016097Y2384148D1*
X4018957Y2376395D1*
X4021199Y2368444D1*
X4022811Y2360339D1*
X4023782Y2352134D1*
X4024106Y2343877D1*
X4023782Y2335621D1*
X4022811Y2327415D1*
X4021199Y2319311D1*
X4018957Y2311358D1*
X4016097Y2303606D1*
X4012638Y2296102D1*
X4008600Y2288894D1*
X4004009Y2282024D1*
X3998894Y2275534D1*
X3993285Y2269467D1*
X3987218Y2263858D1*
X3980728Y2258743D1*
X3973858Y2254152D1*
X3966650Y2250114D1*
X3959146Y2246655D1*
X3951394Y2243795D1*
X3943441Y2241552D1*
X3935337Y2239941D1*
X3927131Y2238969D1*
X3918874Y2238644D1*
X3910618Y2238969D1*
X3902412Y2239941D1*
X3894308Y2241552D1*
X3889059Y2243033D1*
X3980277Y2151621D1*
X3983920Y2146609D1*
X3986732Y2141088D1*
X3988647Y2135196D1*
X3989615Y2129076D1*
X3989738Y2089232D1*
Y1787986D1*
X3994156Y1797867D1*
X3998194Y1805077D1*
X4002785Y1811948D1*
X4007900Y1818437D1*
X4013509Y1824504D1*
X4019576Y1830113D1*
X4026066Y1835228D1*
X4032936Y1839819D1*
X4040144Y1843856D1*
X4047648Y1847315D1*
X4055400Y1850176D1*
X4063353Y1852419D1*
X4071457Y1854030D1*
X4079663Y1855001D1*
X4087919Y1855325D1*
X4096176Y1855001D1*
X4104382Y1854030D1*
X4112486Y1852419D1*
X4120438Y1850176D1*
X4128190Y1847315D1*
X4135694Y1843856D1*
X4142903Y1839819D1*
X4149773Y1835228D1*
X4156262Y1830113D1*
X4162329Y1824504D1*
X4167938Y1818437D1*
X4173054Y1811948D1*
X4177644Y1805077D1*
X4181682Y1797867D1*
X4185142Y1790365D1*
X4188001Y1782612D1*
X4190244Y1774660D1*
X4191856Y1766555D1*
X4192827Y1758350D1*
X4193122Y1750836D1*
X4238400Y1705411D1*
X4242042Y1700398D1*
X4244854Y1694878D1*
X4246769Y1688986D1*
X4247739Y1682865D1*
X4247861Y1643022D1*
X4247739Y778436D1*
X4246769Y772316D1*
X4244854Y766423D1*
X4242042Y760903D1*
X4238400Y755890D1*
X4210312Y727631D1*
X4200747Y717843D1*
X4198492Y710904D1*
X4195180Y704404D1*
X4190891Y698501D1*
X4185734Y693343D1*
X4179831Y689055D1*
X4173331Y685743D1*
X4166392Y683488D1*
X4159186Y682346D1*
X4151891D1*
X4144685Y683488D1*
X4137747Y685743D1*
X4131247Y689055D1*
X4127394Y691727D1*
X4127282Y650147D1*
X4126312Y644028D1*
X4124398Y638135D1*
X4121585Y632614D1*
X4117944Y627601D1*
X4089856Y599343D1*
X3988446Y498104D1*
X3983433Y494462D1*
X3977913Y491650D1*
X3972021Y489735D1*
X3965900Y488765D1*
X3952504Y488644D1*
X3955360Y481298D1*
X3957773Y471248D1*
X3958583Y460945D1*
X3957773Y450642D1*
X3956839Y445946D1*
X4125899Y445937D1*
X4120050Y456080D1*
X4116399Y464000D1*
X4113381Y472181D1*
X4111014Y480573D1*
X4109312Y489126D1*
X4108287Y497786D1*
X4107945Y506499D1*
X4108287Y515213D1*
X4109312Y523873D1*
X4111014Y532425D1*
X4113381Y540818D1*
X4116399Y548999D1*
X4120050Y556917D1*
X4124311Y564526D1*
X4129155Y571777D1*
X4134554Y578625D1*
X4140474Y585028D1*
X4146877Y590948D1*
X4153724Y596345D1*
X4160975Y601190D1*
X4168584Y605451D1*
X4176503Y609102D1*
X4184684Y612119D1*
X4193076Y614487D1*
X4201629Y616188D1*
X4210289Y617213D1*
X4219001Y617555D1*
X4227715Y617213D1*
X4236375Y616188D1*
X4244928Y614487D1*
X4253320Y612119D1*
X4261501Y609102D1*
X4269420Y605451D1*
X4279154Y599770D1*
X4279148Y4125668D1*
X4269420Y4120050D1*
X4261501Y4116399D1*
X4253320Y4113381D1*
X4244928Y4111013D1*
X4236375Y4109312D1*
X4227715Y4108287D1*
X4219001Y4107945D1*
X4210289Y4108287D1*
X4201629Y4109312D1*
X4193076Y4111013D1*
X4184684Y4113381D1*
X4176503Y4116399D1*
X4168584Y4120050D1*
X4160975Y4124311D1*
X4153724Y4129155D1*
X4146877Y4134554D1*
X4140474Y4140472D1*
X4134554Y4146877D1*
X4129155Y4153724D1*
X4124311Y4160975D1*
X4120050Y4168583D1*
X4116399Y4176503D1*
X4113381Y4184684D1*
X4111014Y4193076D1*
X4109312Y4201629D1*
X4108287Y4210289D1*
X4107945Y4219001D1*
X4108287Y4227715D1*
X4109312Y4236375D1*
X4111014Y4244928D1*
X4113381Y4253320D1*
X4116399Y4261501D1*
X4120050Y4269420D1*
X4125768Y4279210D1*
X1876463Y4279205D1*
X1878010Y4269173D1*
Y4258839D1*
X1876394Y4248630D1*
X1873199Y4238802D1*
X1868508Y4229593D1*
X1862433Y4221231D1*
X1855125Y4213924D1*
X1846764Y4207849D1*
X1837555Y4203157D1*
X1827726Y4199963D1*
X1817518Y4198346D1*
X1807184D1*
X1796976Y4199963D1*
X1787147Y4203157D1*
X1777938Y4207849D1*
X1769577Y4213924D1*
X1762269Y4221231D1*
X1756194Y4229593D1*
X1751503Y4238802D1*
X1748308Y4248630D1*
X1746692Y4258839D1*
Y4269173D1*
X1748273Y4279202D1*
X1584366Y4279205D1*
X1587799Y4272962D1*
X1591259Y4265459D1*
X1594118Y4257706D1*
X1596361Y4249755D1*
X1597972Y4241650D1*
X1598944Y4233445D1*
X1599268Y4225188D1*
X1598944Y4216932D1*
X1597972Y4208726D1*
X1596361Y4200622D1*
X1594118Y4192669D1*
X1591259Y4184917D1*
X1587799Y4177413D1*
X1583761Y4170205D1*
X1579171Y4163335D1*
X1574055Y4156845D1*
X1568446Y4150778D1*
X1562379Y4145169D1*
X1555890Y4140054D1*
X1547471Y4134596D1*
X1555890Y4129063D1*
X1562379Y4123948D1*
X1568446Y4118339D1*
X1574055Y4112272D1*
X1579171Y4105782D1*
X1583761Y4098912D1*
X1587799Y4091702D1*
X1591259Y4084199D1*
X1594118Y4076446D1*
X1596361Y4068495D1*
X1597972Y4060390D1*
X1598944Y4052185D1*
X1599268Y4043928D1*
X1598944Y4035672D1*
X1597972Y4027466D1*
X1596361Y4019362D1*
X1594118Y4011409D1*
X1591259Y4003657D1*
X1587799Y3996154D1*
X1583761Y3988945D1*
X1579171Y3982075D1*
X1574055Y3975585D1*
X1568446Y3969518D1*
X1562379Y3963909D1*
X1555890Y3958794D1*
X1547471Y3953336D1*
X1555890Y3947803D1*
X1562379Y3942688D1*
X1568446Y3937079D1*
X1574055Y3931012D1*
X1579171Y3924522D1*
X1583761Y3917652D1*
X1587799Y3910442D1*
X1591259Y3902940D1*
X1594118Y3895186D1*
X1596361Y3887235D1*
X1597972Y3879130D1*
X1598944Y3870925D1*
X1599268Y3862668D1*
X1598944Y3854412D1*
X1597972Y3846206D1*
X1596361Y3838102D1*
X1594118Y3830150D1*
X1591259Y3822398D1*
X1587799Y3814894D1*
X1583761Y3807685D1*
X1579171Y3800815D1*
X1574055Y3794325D1*
X1568446Y3788259D1*
X1562379Y3782650D1*
X1555890Y3777534D1*
X1549020Y3772944D1*
X1541811Y3768906D1*
X1534307Y3765446D1*
X1526555Y3762587D1*
X1518602Y3760344D1*
X1510499Y3758732D1*
X1502293Y3757760D1*
X1494035Y3757436D1*
X1485780Y3757760D1*
X1477573Y3758732D1*
X1469470Y3760344D1*
X1461517Y3762587D1*
X1453765Y3765446D1*
X1446261Y3768906D1*
X1439052Y3772944D1*
X1432182Y3777534D1*
X1425693Y3782650D1*
X1419626Y3788259D1*
X1414017Y3794325D1*
X1408902Y3800815D1*
X1404311Y3807685D1*
X1400273Y3814894D1*
X1396814Y3822398D1*
X1393954Y3830150D1*
X1391711Y3838102D1*
X1390100Y3846206D1*
X1389129Y3854412D1*
X1388803Y3862668D1*
X1389129Y3870925D1*
X1390100Y3879130D1*
X1391711Y3887235D1*
X1393954Y3895186D1*
X1396814Y3902940D1*
X1400273Y3910442D1*
X1404311Y3917652D1*
X1408902Y3924522D1*
X1414017Y3931012D1*
X1419626Y3937079D1*
X1425693Y3942688D1*
X1432182Y3947803D1*
X1440601Y3953261D1*
X1432182Y3958794D1*
X1425693Y3963909D1*
X1419626Y3969518D1*
X1414017Y3975585D1*
X1408902Y3982075D1*
X1404311Y3988945D1*
X1400273Y3996154D1*
X1396814Y4003657D1*
X1393954Y4011409D1*
X1391711Y4019362D1*
X1390100Y4027466D1*
X1389129Y4035672D1*
X1388803Y4043928D1*
X1389129Y4052185D1*
X1390100Y4060390D1*
X1391711Y4068495D1*
X1393954Y4076446D1*
X1396814Y4084199D1*
X1400273Y4091702D1*
X1404311Y4098912D1*
X1408902Y4105782D1*
X1414017Y4112272D1*
X1419626Y4118339D1*
X1425693Y4123948D1*
X1432182Y4129063D1*
X1440601Y4134521D1*
X1432182Y4140054D1*
X1425693Y4145169D1*
X1419626Y4150778D1*
X1414017Y4156845D1*
X1408902Y4163335D1*
X1404311Y4170205D1*
X1400273Y4177413D1*
X1396814Y4184917D1*
X1393954Y4192669D1*
X1391711Y4200622D1*
X1390100Y4208726D1*
X1389129Y4216932D1*
X1388803Y4225188D1*
X1389129Y4233445D1*
X1390100Y4241650D1*
X1391711Y4249755D1*
X1393954Y4257706D1*
X1396814Y4265459D1*
X1400273Y4272962D1*
X1403759Y4279186D1*
X595470Y4279205D1*
X601190Y4270777D1*
X605451Y4263168D1*
X609102Y4255249D1*
X612121Y4247068D1*
X614487Y4238676D1*
X616189Y4230123D1*
X617214Y4221463D1*
X617555Y4212749D1*
X617214Y4204037D1*
X616189Y4195377D1*
X614487Y4186824D1*
X612121Y4178432D1*
X609102Y4170251D1*
X605451Y4162331D1*
X601190Y4154723D1*
X596346Y4147472D1*
X590948Y4140625D1*
X585028Y4134220D1*
X578625Y4128302D1*
X571777Y4122903D1*
X564526Y4118059D1*
X556917Y4113798D1*
X548999Y4110147D1*
X540818Y4107129D1*
X532425Y4104761D1*
X523873Y4103060D1*
X515213Y4102035D1*
X506499Y4101693D1*
X497786Y4102035D1*
X489126Y4103060D1*
X480573Y4104761D1*
X472181Y4107129D1*
X464000Y4110147D1*
X456081Y4113798D1*
X445895Y4119781D1*
X445881Y599545D1*
X456084Y605451D1*
X464003Y609102D1*
X472184Y612119D1*
X480576Y614487D1*
X489129Y616188D1*
X501091Y617343D1*
X495382Y624154D1*
X489983Y632966D1*
X486028Y642514D1*
X483614Y652563D1*
X482803Y662866D1*
X483614Y673169D1*
X486028Y683219D1*
X489983Y692768D1*
X495382Y701579D1*
X502094Y709438D1*
X509953Y716150D1*
X518765Y721550D1*
X528314Y725505D1*
X538364Y727917D1*
X548665Y728728D1*
X558969Y727917D1*
X569018Y725505D1*
X578567Y721550D1*
X587379Y716150D1*
X595238Y709438D1*
X601950Y701579D1*
X607349Y692768D1*
X611304Y683219D1*
X613718Y673169D1*
X614528Y662866D1*
X613718Y652563D1*
X611304Y642514D1*
X607349Y632966D1*
X601950Y624154D1*
X595238Y616295D1*
X587379Y609583D1*
X578567Y604182D1*
X569018Y600228D1*
X566978Y599652D1*
X578627Y590948D1*
X585030Y585028D1*
X590950Y578625D1*
X596349Y571777D1*
X601193Y564526D1*
X605454Y556917D1*
X609105Y548999D1*
X612123Y540818D1*
X614490Y532425D1*
X616192Y523873D1*
X617217Y515213D1*
X617558Y506499D1*
X617217Y497786D1*
X616192Y489126D1*
X614490Y480573D1*
X612123Y472181D1*
X609105Y464000D1*
X605454Y456080D1*
X599509Y445951D1*
X1948303Y445937D1*
X1942079Y452247D1*
X1936367Y460108D1*
X1931955Y468766D1*
X1928953Y478008D1*
X1927433Y487605D1*
Y497323D1*
X1928953Y506920D1*
X1931955Y516161D1*
X1936367Y524819D1*
X1942079Y532681D1*
X1948950Y539552D1*
X1956811Y545264D1*
X1965470Y549675D1*
X1974711Y552678D1*
X1984308Y554198D1*
X1994026D1*
X2003623Y552678D1*
X2012865Y549675D1*
X2021524Y545264D1*
X2029385Y539552D1*
X2036256Y532681D1*
X2041967Y524819D1*
X2046379Y516161D1*
X2049382Y506920D1*
X2050902Y497323D1*
Y487605D1*
X2049382Y478008D1*
X2046379Y468766D1*
X2041967Y460108D1*
X2036256Y452247D1*
X2029984Y445929D1*
X2201287Y445937D1*
X2201255Y530782D1*
X2325105D1*
X2325206Y518955D1*
X2328064Y520866D1*
X2328175Y804996D1*
X2329144Y811115D1*
X2331058Y817009D1*
X2333871Y822529D1*
X2337513Y827542D1*
X2365601Y855801D1*
X2478185Y968386D1*
X2478163Y1220890D1*
X2466663Y1232364D1*
X2460017Y1231995D1*
X2450331Y1232757D1*
X2440882Y1235026D1*
X2431904Y1238744D1*
X2423619Y1243822D1*
X2416230Y1250133D1*
X2410824Y1256373D1*
X2405381Y1250133D1*
X2397991Y1243822D1*
X2389706Y1238744D1*
X2380728Y1235026D1*
X2371280Y1232757D1*
X2361592Y1231995D1*
X2351906Y1232757D1*
X2342457Y1235026D1*
X2333479Y1238744D1*
X2325089Y1243904D1*
X2325093Y1231995D1*
X2201243D1*
Y1355845D1*
X2325093D1*
X2325194Y1344018D1*
X2333479Y1349096D1*
X2342457Y1352815D1*
X2344668Y1353438D1*
X2308349Y1389749D1*
X2036138Y1389770D1*
X2044560Y1385412D1*
X2052921Y1379337D1*
X2060230Y1372029D1*
X2066304Y1363668D1*
X2070996Y1354459D1*
X2074190Y1344630D1*
X2075807Y1334423D1*
Y1324088D1*
X2074190Y1313879D1*
X2070996Y1304051D1*
X2066304Y1294843D1*
X2060230Y1286480D1*
X2056870Y1282846D1*
X2063432Y1275161D1*
X2068831Y1266350D1*
X2072786Y1256802D1*
X2075199Y1246752D1*
X2076009Y1236449D1*
X2075199Y1226146D1*
X2072786Y1216097D1*
X2068831Y1206549D1*
X2063432Y1197736D1*
X2056719Y1189878D1*
X2048861Y1183165D1*
X2040049Y1177765D1*
X2030500Y1173811D1*
X2020450Y1171398D1*
X2010147Y1170587D1*
X1999845Y1171398D1*
X1989795Y1173811D1*
X1980247Y1177765D1*
X1971434Y1183165D1*
X1964421Y1189096D1*
X1964577Y1167214D1*
X1964757Y1106285D1*
X1968568Y1100064D1*
X1970980Y1094354D1*
X1990709Y1113898D1*
X1995722Y1117539D1*
X2001243Y1120352D1*
X2007135Y1122266D1*
X2013255Y1123236D1*
X2053097Y1123357D1*
X2401060Y1123514D1*
X2407560Y1126827D1*
X2414499Y1129080D1*
X2421705Y1130222D1*
X2429000D1*
X2436206Y1129080D1*
X2443144Y1126827D1*
X2449644Y1123514D1*
X2455546Y1119226D1*
X2460705Y1114067D1*
X2464993Y1108165D1*
X2468306Y1101665D1*
X2470560Y1094727D1*
X2471701Y1087521D1*
Y1080226D1*
X2470560Y1073020D1*
X2468306Y1066081D1*
X2464993Y1059581D1*
X2460705Y1053678D1*
X2455546Y1048520D1*
X2449644Y1044232D1*
X2443144Y1040920D1*
X2436206Y1038665D1*
X2429000Y1037524D1*
X2421705D1*
X2414499Y1038665D1*
X2407560Y1040920D1*
X2400835Y1044383D1*
X2032672Y1044388D1*
X1867719Y879572D1*
X1862706Y875930D1*
X1857185Y873117D1*
X1851293Y871203D1*
X1845173Y870234D1*
X1805329Y870112D1*
X1732475Y870234D1*
X1726356Y871202D1*
X1720463Y873117D1*
X1714942Y875930D1*
X1709929Y879572D1*
X1681671Y907659D1*
X1530873Y1058357D1*
Y1015871D1*
X1512392D1*
X1512369Y1009161D1*
X1607980Y913366D1*
X1611622Y908354D1*
X1614434Y902833D1*
X1616349Y896941D1*
X1617319Y890822D1*
X1617441Y868239D1*
X1623772Y863513D1*
X1630643Y856642D1*
X1636354Y848780D1*
X1640766Y840122D1*
X1643769Y830881D1*
X1645289Y821283D1*
Y811566D1*
X1645009Y809207D1*
X1680164Y844196D1*
X1685176Y847837D1*
X1690697Y850650D1*
X1696589Y852564D1*
X1702709Y853533D1*
X1742552Y853655D1*
X1974010Y853812D1*
X1980510Y857123D1*
X1987449Y859378D1*
X1994655Y860520D1*
X2001950D1*
X2009156Y859378D1*
X2016094Y857123D1*
X2022594Y853812D1*
X2028497Y849524D1*
X2033656Y844365D1*
X2037944Y838463D1*
X2041256Y831963D1*
X2043510Y825024D1*
X2044651Y817819D1*
Y810524D1*
X2043510Y803318D1*
X2041256Y796379D1*
X2037944Y789879D1*
X2033656Y783976D1*
X2028497Y778818D1*
X2022594Y774530D1*
X2016094Y771218D1*
X2009156Y768963D1*
X2001950Y767822D1*
X1994655D1*
X1987449Y768963D1*
X1980510Y771218D1*
X1973785Y774680D1*
X1722173Y774686D1*
X1667967Y720596D1*
X1676328Y714521D1*
X1683636Y707213D1*
X1689711Y698852D1*
X1694403Y689643D1*
X1697597Y679814D1*
X1699214Y669606D1*
Y659272D1*
X1697597Y649063D1*
X1694403Y639235D1*
X1689711Y630026D1*
X1683636Y621664D1*
X1676328Y614357D1*
X1667967Y608282D1*
X1658759Y603591D1*
X1648929Y600396D1*
X1638722Y598780D1*
X1628387D1*
X1618180Y600396D1*
X1608350Y603591D1*
X1599142Y608282D1*
X1590781Y614357D1*
X1583472Y621664D1*
X1577398Y630026D1*
X1572706Y639235D1*
X1569512Y649063D1*
X1567895Y659272D1*
Y669606D1*
X1569512Y679814D1*
X1572706Y689643D1*
X1577398Y698852D1*
X1583472Y707213D1*
X1586860Y710877D1*
X1380280Y710864D1*
X1386839Y703151D1*
X1392238Y694340D1*
X1396193Y684791D1*
X1398606Y674741D1*
X1399416Y664438D1*
X1398606Y654135D1*
X1396193Y644087D1*
X1392238Y634538D1*
X1386839Y625726D1*
X1380126Y617867D1*
X1372268Y611155D1*
X1363455Y605755D1*
X1353907Y601801D1*
X1343857Y599387D1*
X1333554Y598576D1*
X1323252Y599387D1*
X1313202Y601801D1*
X1303654Y605755D1*
X1294841Y611155D1*
X1286983Y617867D1*
X1280270Y625726D1*
X1274871Y634538D1*
X1270916Y644087D1*
X1268503Y654135D1*
X1267692Y664438D1*
X1268503Y674741D1*
X1270916Y684791D1*
X1274871Y694340D1*
X1280270Y703151D1*
X1286860Y710877D1*
X875577Y710986D1*
X869458Y711954D1*
X863566Y713869D1*
X858045Y716682D1*
X853033Y720324D1*
X824773Y748411D1*
X738701Y834302D1*
X729938Y834992D1*
X721390Y837045D1*
X713269Y840408D1*
X705774Y845001D1*
X699089Y850710D1*
X694731Y855681D1*
X694722Y834302D1*
X582682D1*
Y946341D1*
X694722D1*
Y924991D1*
X699089Y929934D1*
X705774Y935643D1*
X713269Y940236D1*
X721390Y943600D1*
X729938Y945652D1*
X738701Y946341D1*
X747465Y945652D1*
X756013Y943600D1*
X764134Y940236D1*
X771629Y935643D1*
X778314Y929934D1*
X784022Y923249D1*
X788615Y915755D1*
X791979Y907633D1*
X794031Y899085D1*
X794714Y890133D1*
X895038Y789824D1*
X1327622Y789832D1*
X1324660Y797289D1*
X1322391Y806738D1*
X1321629Y816424D1*
X1322391Y826112D1*
X1324660Y835560D1*
X1328379Y844538D1*
X1333455Y852823D1*
X1339766Y860213D1*
X1347156Y866522D1*
X1355441Y871600D1*
X1364419Y875319D1*
X1373867Y877587D1*
X1383554Y878349D1*
X1393241Y877587D1*
X1402690Y875319D1*
X1411668Y871600D1*
X1419953Y866522D1*
X1427343Y860213D1*
X1433654Y852823D1*
X1438730Y844538D1*
X1442449Y835560D1*
X1444718Y826112D1*
X1445479Y816424D1*
X1445289Y811566D1*
X2966336Y2945786D2*
X2964816Y2936189D1*
X2961814Y2926948D1*
X2957402Y2918289D1*
X2951690Y2910428D1*
X2944819Y2903556D1*
X2936958Y2897845D1*
X2928299Y2893433D1*
X2919058Y2890430D1*
X2909461Y2888911D1*
X2899743D1*
X2890146Y2890430D1*
X2880904Y2893433D1*
X2872245Y2897845D1*
X2864385Y2903556D1*
X2857513Y2910428D1*
X2851802Y2918289D1*
X2847390Y2926948D1*
X2844387Y2936189D1*
X2842867Y2945786D1*
Y2955504D1*
X2844387Y2965101D1*
X2847390Y2974343D1*
X2851802Y2983000D1*
X2857513Y2990862D1*
X2864385Y2997734D1*
X2872245Y3003445D1*
X2880904Y3007856D1*
X2890146Y3010860D1*
X2899743Y3012379D1*
X2909461D1*
X2919058Y3010860D1*
X2928299Y3007856D1*
X2936958Y3003445D1*
X2944819Y2997734D1*
X2951690Y2990862D1*
X2957402Y2983000D1*
X2961814Y2974343D1*
X2964816Y2965101D1*
X2966336Y2955504D1*
Y2945786D1*
Y2745786D2*
X2964816Y2736189D1*
X2961814Y2726948D1*
X2957402Y2718289D1*
X2951690Y2710428D1*
X2944819Y2703556D1*
X2936958Y2697845D1*
X2928299Y2693433D1*
X2919058Y2690430D1*
X2909461Y2688911D1*
X2899743D1*
X2890146Y2690430D1*
X2880904Y2693433D1*
X2872245Y2697845D1*
X2864385Y2703556D1*
X2857513Y2710428D1*
X2851802Y2718289D1*
X2847390Y2726948D1*
X2844387Y2736189D1*
X2842867Y2745786D1*
Y2755504D1*
X2844387Y2765101D1*
X2847390Y2774343D1*
X2851802Y2783000D1*
X2857513Y2790862D1*
X2864385Y2797734D1*
X2872245Y2803445D1*
X2880904Y2807856D1*
X2890146Y2810860D1*
X2899743Y2812379D1*
X2909461D1*
X2919058Y2810860D1*
X2928299Y2807856D1*
X2936958Y2803445D1*
X2944819Y2797734D1*
X2951690Y2790862D1*
X2957402Y2783000D1*
X2961814Y2774343D1*
X2964816Y2765101D1*
X2966336Y2755504D1*
Y2745786D1*
X3469312Y2945814D2*
X3576102D1*
Y2829837D1*
X3559702D1*
X3565028Y2823486D1*
X3569781Y2815727D1*
X3573264Y2807320D1*
X3575387Y2798472D1*
X3576101Y2789400D1*
X3575387Y2780329D1*
X3573264Y2771482D1*
X3569781Y2763075D1*
X3565028Y2755316D1*
X3559117Y2748396D1*
X3552198Y2742487D1*
X3544440Y2737732D1*
X3536033Y2734251D1*
X3527185Y2732126D1*
X3518113Y2731412D1*
X3509042Y2732126D1*
X3500194Y2734251D1*
X3491787Y2737732D1*
X3484029Y2742487D1*
X3477110Y2748396D1*
X3471199Y2755316D1*
X3466446Y2763075D1*
X3462963Y2771482D1*
X3460840Y2780329D1*
X3460125Y2789400D1*
X3460840Y2798472D1*
X3462963Y2807320D1*
X3466446Y2815727D1*
X3471199Y2823486D1*
X3476591Y2829843D1*
X3460126Y2829837D1*
Y2945814D1*
X3469312D1*
X1219866Y2898495D2*
X1218346Y2888898D1*
X1215344Y2879656D1*
X1210932Y2870997D1*
X1205220Y2863136D1*
X1198349Y2856265D1*
X1190488Y2850554D1*
X1181829Y2846142D1*
X1172588Y2843139D1*
X1162991Y2841619D1*
X1153273D1*
X1143676Y2843139D1*
X1134434Y2846142D1*
X1125776Y2850554D1*
X1117915Y2856265D1*
X1111043Y2863136D1*
X1105332Y2870997D1*
X1100920Y2879656D1*
X1097917Y2888898D1*
X1096398Y2898495D1*
Y2908213D1*
X1097917Y2917810D1*
X1100920Y2927051D1*
X1105332Y2935709D1*
X1111043Y2943571D1*
X1117915Y2950442D1*
X1125776Y2956154D1*
X1134434Y2960564D1*
X1143676Y2963568D1*
X1153273Y2965088D1*
X1162991D1*
X1172588Y2963568D1*
X1181829Y2960564D1*
X1190488Y2956154D1*
X1198349Y2950442D1*
X1205220Y2943571D1*
X1210932Y2935709D1*
X1215344Y2927051D1*
X1218346Y2917810D1*
X1219866Y2908213D1*
Y2898495D1*
X3543152Y2100810D2*
X3541633Y2091213D1*
X3538630Y2081971D1*
X3534218Y2073312D1*
X3528507Y2065451D1*
X3521635Y2058580D1*
X3513774Y2052869D1*
X3505115Y2048457D1*
X3495874Y2045454D1*
X3486277Y2043934D1*
X3476559D1*
X3466962Y2045454D1*
X3457720Y2048457D1*
X3449062Y2052869D1*
X3441201Y2058580D1*
X3434329Y2065451D1*
X3433753Y2066182D1*
X3327622Y2066306D1*
X3321503Y2067276D1*
X3315610Y2069190D1*
X3310089Y2072003D1*
X3305077Y2075644D1*
X3276818Y2103732D1*
X3264765Y2115785D1*
X3256220Y2112605D1*
X3248268Y2110362D1*
X3240164Y2108751D1*
X3231958Y2107778D1*
X3223701Y2107454D1*
X3215445Y2107778D1*
X3207239Y2108751D1*
X3199135Y2110362D1*
X3191182Y2112605D1*
X3183430Y2115465D1*
X3175927Y2118924D1*
X3168718Y2122962D1*
X3161848Y2127552D1*
X3155358Y2132668D1*
X3149291Y2138277D1*
X3143682Y2144344D1*
X3138567Y2150833D1*
X3133976Y2157703D1*
X3129938Y2164912D1*
X3126479Y2172416D1*
X3123619Y2180168D1*
X3121377Y2188121D1*
X3119765Y2196224D1*
X3118794Y2204430D1*
X3118469Y2212686D1*
X3118794Y2220944D1*
X3119765Y2229148D1*
X3121377Y2237253D1*
X3123619Y2245205D1*
X3126479Y2252958D1*
X3129938Y2260461D1*
X3133976Y2267671D1*
X3138567Y2274541D1*
X3143682Y2281030D1*
X3149291Y2287097D1*
X3155358Y2292706D1*
X3161848Y2297822D1*
X3170266Y2303280D1*
X3161848Y2308812D1*
X3155358Y2313928D1*
X3149291Y2319537D1*
X3143682Y2325604D1*
X3138567Y2332093D1*
X3133976Y2338963D1*
X3129938Y2346172D1*
X3125508Y2356311D1*
X2923451Y2356336D1*
X2318366Y1751451D1*
X2313354Y1747810D1*
X2307833Y1744996D1*
X2301941Y1743081D1*
X2295822Y1742113D1*
X2255978Y1741991D1*
X2062886D1*
X2056719Y1734904D1*
X2048861Y1728192D1*
X2040049Y1722791D1*
X2030500Y1718837D1*
X2020450Y1716424D1*
X2010147Y1715613D1*
X1999845Y1716424D1*
X1989795Y1718837D1*
X1980247Y1722791D1*
X1971434Y1728192D1*
X1963576Y1734904D1*
X1956864Y1742762D1*
X1951465Y1751575D1*
X1947509Y1761123D1*
X1945096Y1771172D1*
X1944285Y1781475D1*
X1945096Y1791778D1*
X1947509Y1801828D1*
X1951465Y1811377D1*
X1956864Y1820188D1*
X1963576Y1828047D1*
X1971434Y1834759D1*
X1980247Y1840159D1*
X1989795Y1844114D1*
X1999845Y1846526D1*
X2010147Y1847337D1*
X2020450Y1846526D1*
X2030500Y1844114D1*
X2040049Y1840159D1*
X2048861Y1834759D1*
X2056719Y1828047D1*
X2062819Y1820966D1*
X2276373Y1820959D1*
X2881425Y2425844D1*
X2886437Y2429486D1*
X2891958Y2432298D1*
X2897850Y2434213D1*
X2903970Y2435182D1*
X2943814Y2435304D1*
X3126930D1*
X3129938Y2441720D1*
X3133976Y2448930D1*
X3138567Y2455801D1*
X3143682Y2462290D1*
X3149291Y2468357D1*
X3155358Y2473966D1*
X3161848Y2479081D1*
X3170266Y2484539D1*
X3161848Y2490072D1*
X3155358Y2495188D1*
X3149291Y2500797D1*
X3143682Y2506864D1*
X3138567Y2513353D1*
X3133976Y2520223D1*
X3129938Y2527432D1*
X3126479Y2534936D1*
X3123619Y2542688D1*
X3121377Y2550640D1*
X3119765Y2558744D1*
X3118794Y2566950D1*
X3118469Y2575206D1*
X3118794Y2583463D1*
X3119765Y2591668D1*
X3121377Y2599773D1*
X3123619Y2607724D1*
X3126479Y2615478D1*
X3129938Y2622980D1*
X3133976Y2630190D1*
X3138567Y2637060D1*
X3143682Y2643550D1*
X3149291Y2649617D1*
X3155358Y2655226D1*
X3161848Y2660341D1*
X3168718Y2664932D1*
X3175927Y2668969D1*
X3183430Y2672428D1*
X3191182Y2675289D1*
X3199135Y2677531D1*
X3207239Y2679143D1*
X3215445Y2680114D1*
X3223701Y2680438D1*
X3231958Y2680114D1*
X3240164Y2679143D1*
X3248268Y2677531D1*
X3256220Y2675289D1*
X3263972Y2672428D1*
X3271476Y2668969D1*
X3278685Y2664932D1*
X3285555Y2660341D1*
X3292045Y2655226D1*
X3298112Y2649617D1*
X3303720Y2643550D1*
X3308836Y2637060D1*
X3313427Y2630190D1*
X3317465Y2622980D1*
X3320924Y2615478D1*
X3323783Y2607724D1*
X3326026Y2599773D1*
X3327638Y2591668D1*
X3328609Y2583463D1*
X3328933Y2575206D1*
X3328609Y2566950D1*
X3327638Y2558744D1*
X3326026Y2550640D1*
X3323783Y2542688D1*
X3320924Y2534936D1*
X3317465Y2527432D1*
X3313427Y2520223D1*
X3308836Y2513353D1*
X3303720Y2506864D1*
X3298112Y2500797D1*
X3292045Y2495188D1*
X3285555Y2490072D1*
X3277136Y2484614D1*
X3285555Y2479081D1*
X3292045Y2473966D1*
X3298112Y2468357D1*
X3303720Y2462290D1*
X3308836Y2455801D1*
X3313427Y2448930D1*
X3317465Y2441720D1*
X3320924Y2434218D1*
X3323783Y2426465D1*
X3326026Y2418513D1*
X3327638Y2410408D1*
X3328609Y2402203D1*
X3328933Y2393946D1*
X3328609Y2385690D1*
X3327638Y2377484D1*
X3326026Y2369381D1*
X3323783Y2361428D1*
X3320924Y2353676D1*
X3317465Y2346172D1*
X3313427Y2338963D1*
X3308836Y2332093D1*
X3303720Y2325604D1*
X3298112Y2319537D1*
X3292045Y2313928D1*
X3285555Y2308812D1*
X3277136Y2303354D1*
X3285555Y2297822D1*
X3292045Y2292706D1*
X3298112Y2287097D1*
X3303720Y2281030D1*
X3308836Y2274541D1*
X3313427Y2267671D1*
X3317465Y2260461D1*
X3320924Y2252958D1*
X3323783Y2245205D1*
X3326026Y2237253D1*
X3327638Y2229148D1*
X3328609Y2220944D1*
X3328933Y2212686D1*
X3328609Y2204430D1*
X3327638Y2196224D1*
X3326026Y2188121D1*
X3323783Y2180168D1*
X3320585Y2171684D1*
X3347052Y2145175D1*
X3433743Y2145152D1*
X3437630Y2149457D1*
X3445020Y2155766D1*
X3453304Y2160844D1*
X3462282Y2164563D1*
X3471731Y2166831D1*
X3481417Y2167593D1*
X3491105Y2166831D1*
X3500554Y2164563D1*
X3509531Y2160844D1*
X3517816Y2155766D1*
X3525206Y2149457D1*
X3531517Y2142067D1*
X3536593Y2133782D1*
X3540312Y2124804D1*
X3542581Y2115356D1*
X3543343Y2105668D1*
X3543152Y2100810D1*
X2050902Y687605D2*
X2049382Y678008D1*
X2046379Y668766D1*
X2041967Y660108D1*
X2036256Y652247D1*
X2029385Y645375D1*
X2021524Y639664D1*
X2012865Y635252D1*
X2003623Y632249D1*
X1994026Y630730D1*
X1984308D1*
X1974711Y632249D1*
X1965470Y635252D1*
X1956811Y639664D1*
X1948950Y645375D1*
X1942079Y652247D1*
X1936367Y660108D1*
X1931955Y668766D1*
X1928953Y678008D1*
X1927433Y687605D1*
Y697323D1*
X1928953Y706920D1*
X1931955Y716161D1*
X1936367Y724819D1*
X1942079Y732681D1*
X1948950Y739552D1*
X1956811Y745264D1*
X1965470Y749675D1*
X1974711Y752678D1*
X1984308Y754198D1*
X1994026D1*
X2003623Y752678D1*
X2012865Y749675D1*
X2021524Y745264D1*
X2029385Y739552D1*
X2036256Y732681D1*
X2041967Y724819D1*
X2046379Y716161D1*
X2049382Y706920D1*
X2050902Y697323D1*
Y687605D1*
X3744442Y2134857D2*
X3851232D1*
Y2018881D1*
X3834832D1*
X3840157Y2012529D1*
X3844911Y2004770D1*
X3848394Y1996364D1*
X3850517Y1987516D1*
X3851231Y1978444D1*
X3850517Y1969373D1*
X3848394Y1960525D1*
X3844911Y1952118D1*
X3840157Y1944360D1*
X3834247Y1937440D1*
X3827328Y1931530D1*
X3819570Y1926776D1*
X3811163Y1923294D1*
X3802315Y1921169D1*
X3793243Y1920455D1*
X3784172Y1921169D1*
X3775324Y1923294D1*
X3766917Y1926776D1*
X3759159Y1931530D1*
X3752240Y1937440D1*
X3746329Y1944360D1*
X3741576Y1952118D1*
X3738093Y1960525D1*
X3735970Y1969373D1*
X3735255Y1978444D1*
X3735970Y1987516D1*
X3738093Y1996364D1*
X3741576Y2004770D1*
X3746329Y2012529D1*
X3751720Y2018886D1*
X3735256Y2018881D1*
Y2134857D1*
X3744442D1*
X1732067Y3740703D2*
X1838857D1*
Y3624727D1*
X1722881D1*
Y3740703D1*
X1732067D1*
X1177178Y3898534D2*
X1291843D1*
Y3774684D1*
X1167992D1*
Y3898534D1*
X1177178D1*
X1037572Y3766129D2*
X1036562Y3757000D1*
X1034882Y3747970D1*
X1032545Y3739088D1*
X1029560Y3730403D1*
X1025946Y3721959D1*
X1021722Y3713804D1*
X1016908Y3705982D1*
X1011534Y3698534D1*
X1005627Y3691501D1*
X999219Y3684923D1*
X992345Y3678831D1*
X985043Y3673261D1*
X977350Y3668244D1*
X969310Y3663804D1*
X960966Y3659967D1*
X952362Y3656755D1*
X943545Y3654182D1*
X934563Y3652265D1*
X925465Y3651013D1*
X916299Y3650433D1*
X907115Y3650528D1*
X897963Y3651297D1*
X888892Y3652736D1*
X879951Y3654837D1*
X871190Y3657591D1*
X862654Y3660980D1*
X854390Y3664988D1*
X846444Y3669592D1*
X838856Y3674768D1*
X831669Y3680487D1*
X824923Y3686718D1*
X818651Y3693428D1*
X812891Y3700581D1*
X807671Y3708138D1*
X803021Y3716058D1*
X798965Y3724298D1*
X795525Y3732814D1*
X792720Y3741559D1*
X790566Y3750487D1*
X789073Y3759550D1*
X788251Y3768697D1*
X788102Y3777879D1*
X788629Y3787049D1*
X789828Y3796155D1*
X791248Y3803005D1*
X780206Y3795299D1*
X772323Y3790885D1*
X764117Y3787101D1*
X755639Y3783974D1*
X746944Y3781521D1*
X738081Y3779759D1*
X729108Y3778697D1*
X720079Y3778341D1*
X711051Y3778697D1*
X702077Y3779759D1*
X693215Y3781521D1*
X684520Y3783974D1*
X676042Y3787101D1*
X667836Y3790885D1*
X659953Y3795299D1*
X652440Y3800319D1*
X645344Y3805913D1*
X638709Y3812046D1*
X632576Y3818681D1*
X626982Y3825777D1*
X621962Y3833290D1*
X617547Y3841173D1*
X613764Y3849379D1*
X610636Y3857857D1*
X608184Y3866552D1*
X606421Y3875415D1*
X605360Y3884387D1*
X605004Y3893416D1*
X605360Y3902445D1*
X606421Y3911419D1*
X608184Y3920280D1*
X610636Y3928976D1*
X613764Y3937454D1*
X617547Y3945659D1*
X621962Y3953543D1*
X626982Y3961055D1*
X632576Y3968151D1*
X638709Y3974786D1*
X645344Y3980920D1*
X652440Y3986514D1*
X659953Y3991534D1*
X667836Y3995949D1*
X676042Y3999732D1*
X684520Y4002860D1*
X693215Y4005311D1*
X702077Y4007075D1*
X711051Y4008136D1*
X720079Y4008491D1*
X729108Y4008136D1*
X738081Y4007075D1*
X746944Y4005311D1*
X755639Y4002860D1*
X764117Y3999732D1*
X772323Y3995949D1*
X780206Y3991534D1*
X787719Y3986514D1*
X794815Y3980920D1*
X801450Y3974786D1*
X807583Y3968151D1*
X813177Y3961055D1*
X818197Y3953543D1*
X822612Y3945659D1*
X826395Y3937454D1*
X829522Y3928976D1*
X831975Y3920280D1*
X833738Y3911419D1*
X834799Y3902445D1*
X835154Y3893416D1*
X834799Y3884387D1*
X833738Y3875415D1*
X832891Y3871156D1*
X843060Y3878814D1*
X850854Y3883672D1*
X858984Y3887945D1*
X867407Y3891609D1*
X876075Y3894643D1*
X884942Y3897033D1*
X893962Y3898765D1*
X903084Y3899829D1*
X912260Y3900222D1*
X921440Y3899937D1*
X930575Y3898980D1*
X939614Y3897354D1*
X948509Y3895068D1*
X957213Y3892135D1*
X965676Y3888571D1*
X973856Y3884394D1*
X981706Y3879627D1*
X989185Y3874297D1*
X996253Y3868430D1*
X1002870Y3862062D1*
X1009001Y3855223D1*
X1014613Y3847953D1*
X1019676Y3840290D1*
X1024163Y3832277D1*
X1028047Y3823954D1*
X1031311Y3815370D1*
X1033934Y3806568D1*
X1035906Y3797597D1*
X1037211Y3788507D1*
X1037909Y3775306D1*
X1037572Y3766129D1*
X649088Y3212163D2*
X648298Y3205492D1*
X646987Y3198904D1*
X645164Y3192438D1*
X642839Y3186136D1*
X640028Y3180037D1*
X636745Y3174176D1*
X633013Y3168591D1*
X628854Y3163316D1*
X624295Y3158383D1*
X619362Y3153824D1*
X614087Y3149665D1*
X608503Y3145933D1*
X602642Y3142651D1*
X596541Y3139839D1*
X590239Y3137514D1*
X583774Y3135690D1*
X577186Y3134381D1*
X570516Y3133591D1*
X563803Y3133327D1*
X557092Y3133591D1*
X550421Y3134381D1*
X543833Y3135690D1*
X537369Y3137514D1*
X531067Y3139839D1*
X524966Y3142651D1*
X519105Y3145933D1*
X513521Y3149665D1*
X508245Y3153824D1*
X503312Y3158383D1*
X498753Y3163316D1*
X494594Y3168591D1*
X490862Y3174176D1*
X487580Y3180037D1*
X484769Y3186136D1*
X482444Y3192438D1*
X480621Y3198904D1*
X479310Y3205492D1*
X478520Y3212163D1*
X478256Y3218874D1*
X478520Y3225587D1*
X479310Y3232257D1*
X480621Y3238845D1*
X482444Y3245310D1*
X484769Y3251612D1*
X487580Y3257713D1*
X490862Y3263572D1*
X494594Y3269157D1*
X498753Y3274433D1*
X503312Y3279365D1*
X508245Y3283925D1*
X513521Y3288084D1*
X519105Y3291815D1*
X524966Y3295097D1*
X531067Y3297909D1*
X537369Y3300235D1*
X543833Y3302058D1*
X550421Y3303369D1*
X557092Y3304157D1*
X563803Y3304421D1*
X570516Y3304157D1*
X577186Y3303369D1*
X583774Y3302058D1*
X590239Y3300235D1*
X596541Y3297909D1*
X602642Y3295097D1*
X608503Y3291815D1*
X614087Y3288084D1*
X619362Y3283925D1*
X624295Y3279365D1*
X628854Y3274433D1*
X633013Y3269157D1*
X636745Y3263572D1*
X640028Y3257713D1*
X642839Y3251612D1*
X645164Y3245310D1*
X646987Y3238845D1*
X648298Y3232257D1*
X649088Y3225587D1*
X649350Y3218874D1*
X649088Y3212163D1*
X4242822Y3212135D2*
X4242031Y3205465D1*
X4240720Y3198877D1*
X4238898Y3192411D1*
X4236572Y3186109D1*
X4233761Y3180009D1*
X4230479Y3174148D1*
X4226747Y3168563D1*
X4222588Y3163289D1*
X4218029Y3158356D1*
X4213096Y3153797D1*
X4207820Y3149638D1*
X4202236Y3145906D1*
X4196375Y3142623D1*
X4190274Y3139811D1*
X4183972Y3137487D1*
X4177508Y3135663D1*
X4170920Y3134353D1*
X4164249Y3133563D1*
X4157537Y3133299D1*
X4150825Y3133563D1*
X4144155Y3134353D1*
X4137567Y3135663D1*
X4131102Y3137487D1*
X4124801Y3139811D1*
X4118699Y3142623D1*
X4112839Y3145906D1*
X4107255Y3149638D1*
X4101979Y3153797D1*
X4097046Y3158356D1*
X4092487Y3163289D1*
X4088328Y3168563D1*
X4084596Y3174148D1*
X4081314Y3180009D1*
X4078503Y3186109D1*
X4076177Y3192411D1*
X4074354Y3198877D1*
X4073043Y3205465D1*
X4072253Y3212135D1*
X4071990Y3218846D1*
X4072253Y3225559D1*
X4073043Y3232230D1*
X4074354Y3238818D1*
X4076177Y3245282D1*
X4078503Y3251584D1*
X4081314Y3257685D1*
X4084596Y3263545D1*
X4088328Y3269130D1*
X4092487Y3274406D1*
X4097046Y3279337D1*
X4101979Y3283898D1*
X4107255Y3288056D1*
X4112839Y3291787D1*
X4118699Y3295070D1*
X4124801Y3297882D1*
X4131102Y3300207D1*
X4137567Y3302030D1*
X4144155Y3303341D1*
X4150825Y3304130D1*
X4157537Y3304394D1*
X4164249Y3304130D1*
X4170920Y3303341D1*
X4177508Y3302030D1*
X4183972Y3300207D1*
X4190274Y3297882D1*
X4196375Y3295070D1*
X4202236Y3291787D1*
X4207820Y3288056D1*
X4213096Y3283898D1*
X4218029Y3279337D1*
X4222588Y3274406D1*
X4226747Y3269130D1*
X4230479Y3263545D1*
X4233761Y3257685D1*
X4236572Y3251584D1*
X4238898Y3245282D1*
X4240720Y3238818D1*
X4242031Y3232230D1*
X4242822Y3225559D1*
X4243084Y3218846D1*
X4242822Y3212135D1*
X4040396Y2470850D2*
X4033659Y2471113D1*
X4026988Y2471903D1*
X4020400Y2473213D1*
X4013936Y2475037D1*
X4007634Y2477361D1*
X4001533Y2480173D1*
X3995672Y2483455D1*
X3990088Y2487188D1*
X3984812Y2491346D1*
X3979879Y2495906D1*
X3975320Y2500839D1*
X3971161Y2506113D1*
X3967429Y2511698D1*
X3964147Y2517559D1*
X3961336Y2523659D1*
X3959010Y2529961D1*
X3957188Y2536427D1*
X3955877Y2543014D1*
X3955087Y2549685D1*
X3954823Y2556396D1*
X3955087Y2563109D1*
X3955877Y2569780D1*
X3957188Y2576367D1*
X3959010Y2582832D1*
X3961336Y2589134D1*
X3964147Y2595235D1*
X3967429Y2601094D1*
X3971161Y2606680D1*
X3975320Y2611955D1*
X3979879Y2616887D1*
X3984812Y2621448D1*
X3990088Y2625606D1*
X3995672Y2629337D1*
X4001533Y2632619D1*
X4007634Y2635432D1*
X4013936Y2637757D1*
X4020400Y2639580D1*
X4026988Y2640891D1*
X4033659Y2641680D1*
X4049558Y2641944D1*
X4134858D1*
X4141571Y2641680D1*
X4148241Y2640891D1*
X4154829Y2639580D1*
X4161294Y2637757D1*
X4167596Y2635432D1*
X4173697Y2632619D1*
X4179558Y2629337D1*
X4185142Y2625606D1*
X4190417Y2621448D1*
X4195350Y2616887D1*
X4199909Y2611955D1*
X4204068Y2606680D1*
X4207801Y2601094D1*
X4211083Y2595235D1*
X4213894Y2589134D1*
X4216219Y2582832D1*
X4218042Y2576367D1*
X4219353Y2569780D1*
X4220143Y2563109D1*
X4220406Y2556396D1*
X4220143Y2549685D1*
X4219353Y2543014D1*
X4218042Y2536427D1*
X4216219Y2529961D1*
X4213894Y2523659D1*
X4211083Y2517559D1*
X4207801Y2511698D1*
X4204068Y2506113D1*
X4199909Y2500839D1*
X4195350Y2495906D1*
X4190417Y2491346D1*
X4185142Y2487188D1*
X4179558Y2483455D1*
X4173697Y2480173D1*
X4167596Y2477361D1*
X4161294Y2475037D1*
X4154829Y2473213D1*
X4148241Y2471903D1*
X4141571Y2471113D1*
X4125673Y2470849D1*
X4040371Y2470885D1*
X903927Y1565979D2*
X902310Y1555770D1*
X899115Y1545942D1*
X894424Y1536734D1*
X888349Y1528371D1*
X881041Y1521064D1*
X872680Y1514990D1*
X863471Y1510298D1*
X853642Y1507104D1*
X843434Y1505487D1*
X833100D1*
X822892Y1507104D1*
X813063Y1510298D1*
X803854Y1514990D1*
X795493Y1521064D1*
X788185Y1528371D1*
X782110Y1536734D1*
X777419Y1545942D1*
X774224Y1555770D1*
X772608Y1565979D1*
Y1576314D1*
X774224Y1586521D1*
X777419Y1596350D1*
X782110Y1605559D1*
X788185Y1613920D1*
X795493Y1621228D1*
X803854Y1627303D1*
X813063Y1631995D1*
X822892Y1635189D1*
X833100Y1636806D1*
X843434D1*
X853642Y1635189D1*
X863471Y1631995D1*
X872680Y1627303D1*
X881041Y1621228D1*
X888349Y1613920D1*
X894424Y1605559D1*
X899115Y1596350D1*
X902310Y1586521D1*
X903927Y1576314D1*
Y1565979D1*
X590938Y1531656D2*
X584839Y1524575D1*
X576980Y1517862D1*
X568168Y1512462D1*
X558619Y1508508D1*
X548570Y1506094D1*
X538266Y1505283D1*
X527965Y1506094D1*
X517915Y1508508D1*
X508366Y1512462D1*
X499554Y1517862D1*
X491696Y1524575D1*
X484983Y1532433D1*
X479584Y1541245D1*
X475629Y1550794D1*
X473215Y1560843D1*
X472404Y1571146D1*
X473215Y1581449D1*
X475629Y1591499D1*
X479584Y1601047D1*
X484983Y1609858D1*
X491696Y1617718D1*
X499554Y1624429D1*
X508366Y1629829D1*
X517915Y1633785D1*
X527965Y1636197D1*
X538266Y1637008D1*
X548570Y1636197D1*
X558619Y1633785D1*
X568168Y1629829D1*
X576980Y1624429D1*
X584839Y1617718D1*
X590938Y1610636D1*
X630955Y1610630D1*
X748206Y1727718D1*
X753219Y1731360D1*
X758740Y1734172D1*
X764633Y1736087D1*
X770752Y1737056D1*
X810594Y1737177D1*
X1255739D1*
X1251215Y1742762D1*
X1245816Y1751575D1*
X1241861Y1761123D1*
X1239448Y1771172D1*
X1238636Y1781475D1*
X1239448Y1791778D1*
X1241861Y1801828D1*
X1245816Y1811377D1*
X1251215Y1820188D1*
X1257928Y1828047D1*
X1265786Y1834759D1*
X1274598Y1840159D1*
X1284147Y1844114D1*
X1294197Y1846526D1*
X1304499Y1847337D1*
X1314802Y1846526D1*
X1324852Y1844114D1*
X1334400Y1840159D1*
X1343213Y1834759D1*
X1351071Y1828047D1*
X1351907Y1827142D1*
X1352042Y2008832D1*
X1353012Y2014951D1*
X1354927Y2020844D1*
X1357739Y2026365D1*
X1361381Y2031377D1*
X1389469Y2059636D1*
X1401927Y2072096D1*
X1401283Y2081475D1*
X1402094Y2091778D1*
X1404508Y2101828D1*
X1408463Y2111377D1*
X1413862Y2120188D1*
X1420575Y2128047D1*
X1428433Y2134759D1*
X1437245Y2140159D1*
X1446794Y2144114D1*
X1456844Y2146526D1*
X1467146Y2147337D1*
X1477449Y2146526D1*
X1487499Y2144114D1*
X1497047Y2140159D1*
X1505860Y2134759D1*
X1513718Y2128047D1*
X1520430Y2120188D1*
X1525829Y2111377D1*
X1529785Y2101828D1*
X1532198Y2091778D1*
X1533008Y2081475D1*
X1532198Y2071172D1*
X1529785Y2061123D1*
X1525829Y2051575D1*
X1520430Y2042762D1*
X1513718Y2034904D1*
X1505860Y2028192D1*
X1497047Y2022791D1*
X1487499Y2018837D1*
X1477449Y2016424D1*
X1467146Y2015613D1*
X1457827Y2016308D1*
X1430895Y1989385D1*
X1430890Y1836469D1*
X1437245Y1840159D1*
X1446794Y1844114D1*
X1456844Y1846526D1*
X1467146Y1847337D1*
X1477449Y1846526D1*
X1487499Y1844114D1*
X1497047Y1840159D1*
X1505860Y1834759D1*
X1513718Y1828047D1*
X1520430Y1820188D1*
X1525829Y1811377D1*
X1529785Y1801828D1*
X1532198Y1791778D1*
X1533008Y1781475D1*
X1532198Y1771172D1*
X1529785Y1761123D1*
X1525829Y1751575D1*
X1520430Y1742762D1*
X1513718Y1734904D1*
X1505860Y1728192D1*
X1497047Y1722791D1*
X1487499Y1718837D1*
X1477449Y1716424D1*
X1467146Y1715613D1*
X1456844Y1716424D1*
X1446794Y1718837D1*
X1437245Y1722791D1*
X1430903Y1726542D1*
X1430768Y1720025D1*
X1429798Y1713906D1*
X1427883Y1708012D1*
X1425071Y1702492D1*
X1421429Y1697479D1*
X1393895Y1669773D1*
X1389184Y1665749D1*
X1383902Y1662512D1*
X1378177Y1660142D1*
X1372152Y1658696D1*
X1365963Y1658210D1*
X790214Y1658209D1*
X672945Y1541122D1*
X667933Y1537480D1*
X662412Y1534667D1*
X656520Y1532753D1*
X650400Y1531783D1*
X610556Y1531661D1*
X591000D1*
X1917080Y2495265D2*
X1915463Y2485056D1*
X1912269Y2475228D1*
X1907577Y2466020D1*
X1901503Y2457657D1*
X1894194Y2450350D1*
X1885833Y2444276D1*
X1876625Y2439584D1*
X1866795Y2436390D1*
X1856588Y2434773D1*
X1846253D1*
X1836046Y2436390D1*
X1826217Y2439584D1*
X1817008Y2444276D1*
X1808647Y2450350D1*
X1801339Y2457657D1*
X1795264Y2466020D1*
X1790572Y2475228D1*
X1787378Y2485056D1*
X1785761Y2495265D1*
Y2505600D1*
X1787378Y2515807D1*
X1790572Y2525636D1*
X1795264Y2534845D1*
X1801339Y2543206D1*
X1808647Y2550514D1*
X1817008Y2556589D1*
X1826217Y2561281D1*
X1836046Y2564475D1*
X1846253Y2566092D1*
X1856588D1*
X1866795Y2564475D1*
X1876625Y2561281D1*
X1885833Y2556589D1*
X1894194Y2550514D1*
X1901503Y2543206D1*
X1907577Y2534845D1*
X1912269Y2525636D1*
X1915463Y2515807D1*
X1917080Y2505600D1*
Y2495265D1*
Y2195265D2*
X1915463Y2185056D1*
X1912269Y2175228D1*
X1907577Y2166020D1*
X1901503Y2157657D1*
X1894194Y2150350D1*
X1885833Y2144276D1*
X1879652Y2140979D1*
X1885833Y2137633D1*
X1894194Y2131558D1*
X1901503Y2124249D1*
X1907577Y2115888D1*
X1912269Y2106680D1*
X1915463Y2096850D1*
X1917080Y2086643D1*
Y2076308D1*
X1915463Y2066100D1*
X1912269Y2056272D1*
X1907577Y2047063D1*
X1901503Y2038701D1*
X1894194Y2031394D1*
X1885833Y2025319D1*
X1876625Y2020627D1*
X1866795Y2017433D1*
X1856588Y2015816D1*
X1846253D1*
X1836046Y2017433D1*
X1826217Y2020627D1*
X1817008Y2025319D1*
X1808647Y2031394D1*
X1801339Y2038701D1*
X1795264Y2047063D1*
X1790572Y2056272D1*
X1787378Y2066100D1*
X1785761Y2076308D1*
Y2086643D1*
X1787378Y2096850D1*
X1790572Y2106680D1*
X1795264Y2115888D1*
X1801339Y2124249D1*
X1808647Y2131558D1*
X1817008Y2137633D1*
X1823189Y2140929D1*
X1817008Y2144276D1*
X1808647Y2150350D1*
X1801339Y2157657D1*
X1795264Y2166020D1*
X1790572Y2175228D1*
X1787378Y2185056D1*
X1785761Y2195265D1*
Y2205600D1*
X1787378Y2215807D1*
X1790572Y2225636D1*
X1795264Y2234845D1*
X1801339Y2243206D1*
X1808647Y2250514D1*
X1817008Y2256589D1*
X1826217Y2261281D1*
X1836046Y2264475D1*
X1846253Y2266092D1*
X1856588D1*
X1866795Y2264475D1*
X1876625Y2261281D1*
X1885833Y2256589D1*
X1894194Y2250514D1*
X1901503Y2243206D1*
X1907577Y2234845D1*
X1912269Y2225636D1*
X1915463Y2215807D1*
X1917080Y2205600D1*
Y2195265D1*
X2075807D2*
X2074190Y2185056D1*
X2070996Y2175228D1*
X2066304Y2166020D1*
X2060230Y2157657D1*
X2052921Y2150350D1*
X2044560Y2144276D1*
X2035352Y2139584D1*
X2025522Y2136390D1*
X2015315Y2134773D1*
X2004980D1*
X1994773Y2136390D1*
X1984944Y2139584D1*
X1975735Y2144276D1*
X1967374Y2150350D1*
X1960066Y2157657D1*
X1953991Y2166020D1*
X1949299Y2175228D1*
X1946105Y2185056D1*
X1944488Y2195265D1*
Y2205600D1*
X1946105Y2215807D1*
X1949299Y2225636D1*
X1953991Y2234845D1*
X1960066Y2243206D1*
X1967374Y2250514D1*
X1975735Y2256589D1*
X1984944Y2261281D1*
X1994773Y2264475D1*
X2004980Y2266092D1*
X2015315D1*
X2025522Y2264475D1*
X2035352Y2261281D1*
X2044560Y2256589D1*
X2052921Y2250514D1*
X2060230Y2243206D1*
X2066304Y2234845D1*
X2070996Y2225636D1*
X2074190Y2215807D1*
X2075807Y2205600D1*
Y2195265D1*
X1917080Y1776308D2*
X1915463Y1766100D1*
X1912269Y1756272D1*
X1907577Y1747063D1*
X1901503Y1738701D1*
X1894194Y1731394D1*
X1885833Y1725319D1*
X1876625Y1720627D1*
X1866795Y1717433D1*
X1856588Y1715816D1*
X1846253D1*
X1836046Y1717433D1*
X1826217Y1720627D1*
X1817008Y1725319D1*
X1808647Y1731394D1*
X1801339Y1738701D1*
X1795264Y1747063D1*
X1790572Y1756272D1*
X1787378Y1766100D1*
X1785761Y1776308D1*
Y1786643D1*
X1787378Y1796850D1*
X1790572Y1806680D1*
X1795264Y1815888D1*
X1801339Y1824249D1*
X1808647Y1831558D1*
X1817008Y1837633D1*
X1826217Y1842324D1*
X1836046Y1845518D1*
X1846253Y1847135D1*
X1856588D1*
X1866795Y1845518D1*
X1876625Y1842324D1*
X1885833Y1837633D1*
X1894194Y1831558D1*
X1901503Y1824249D1*
X1907577Y1815888D1*
X1912269Y1806680D1*
X1915463Y1796850D1*
X1917080Y1786643D1*
Y1776308D1*
X1370159Y2076308D2*
X1368542Y2066100D1*
X1365348Y2056272D1*
X1360656Y2047063D1*
X1354581Y2038701D1*
X1347273Y2031394D1*
X1338912Y2025319D1*
X1329703Y2020627D1*
X1319874Y2017433D1*
X1309667Y2015816D1*
X1299332D1*
X1289125Y2017433D1*
X1279295Y2020627D1*
X1270087Y2025319D1*
X1261726Y2031394D1*
X1254417Y2038701D1*
X1248343Y2047063D1*
X1243651Y2056272D1*
X1240457Y2066100D1*
X1238840Y2076308D1*
Y2086643D1*
X1240457Y2096850D1*
X1243651Y2106680D1*
X1248343Y2115888D1*
X1254417Y2124249D1*
X1261726Y2131558D1*
X1270087Y2137633D1*
X1279295Y2142324D1*
X1289125Y2145518D1*
X1299332Y2147135D1*
X1309667D1*
X1319874Y2145518D1*
X1329703Y2142324D1*
X1338912Y2137633D1*
X1347273Y2131558D1*
X1354581Y2124249D1*
X1360656Y2115888D1*
X1365348Y2106680D1*
X1368542Y2096850D1*
X1370159Y2086643D1*
Y2076308D1*
X2075807Y1624088D2*
X2074190Y1613879D1*
X2070996Y1604051D1*
X2066304Y1594843D1*
X2060230Y1586480D1*
X2052921Y1579173D1*
X2044560Y1573098D1*
X2035352Y1568407D1*
X2025522Y1565213D1*
X2015315Y1563596D1*
X2004980D1*
X1994773Y1565213D1*
X1984944Y1568407D1*
X1975735Y1573098D1*
X1967374Y1579173D1*
X1960066Y1586480D1*
X1953991Y1594843D1*
X1949299Y1604051D1*
X1946105Y1613879D1*
X1944488Y1624088D1*
Y1634423D1*
X1946105Y1644630D1*
X1949299Y1654459D1*
X1953991Y1663668D1*
X1960066Y1672029D1*
X1967374Y1679337D1*
X1975735Y1685412D1*
X1984944Y1690104D1*
X1994773Y1693298D1*
X2004980Y1694915D1*
X2015315D1*
X2025522Y1693298D1*
X2035352Y1690104D1*
X2044560Y1685412D1*
X2052921Y1679337D1*
X2060230Y1672029D1*
X2066304Y1663668D1*
X2070996Y1654459D1*
X2074190Y1644630D1*
X2075807Y1634423D1*
Y1624088D1*
X1399214Y507598D2*
X1397597Y497390D1*
X1394403Y487562D1*
X1389711Y478353D1*
X1383636Y469991D1*
X1376328Y462684D1*
X1367967Y456609D1*
X1358759Y451917D1*
X1348929Y448723D1*
X1338722Y447106D1*
X1328387D1*
X1318180Y448723D1*
X1308350Y451917D1*
X1299142Y456609D1*
X1290781Y462684D1*
X1283472Y469991D1*
X1277398Y478353D1*
X1272706Y487562D1*
X1269512Y497390D1*
X1267895Y507598D1*
Y517933D1*
X1269512Y528140D1*
X1272706Y537970D1*
X1277398Y547178D1*
X1283472Y555539D1*
X1290781Y562848D1*
X1299142Y568923D1*
X1308350Y573614D1*
X1318180Y576808D1*
X1328387Y578425D1*
X1338722D1*
X1348929Y576808D1*
X1358759Y573614D1*
X1367967Y568923D1*
X1376328Y562848D1*
X1383636Y555539D1*
X1389711Y547178D1*
X1394403Y537970D1*
X1397597Y528140D1*
X1399214Y517933D1*
Y507598D1*
X2723358Y3625904D2*
X2722866Y3621751D1*
X3086197Y3258412D1*
X3126289Y3258411D1*
X3130056Y3266701D1*
X3134094Y3273911D1*
X3138685Y3280781D1*
X3143801Y3287270D1*
X3149409Y3293337D1*
X3155476Y3298946D1*
X3161966Y3304062D1*
X3170385Y3309520D1*
X3161966Y3315052D1*
X3155476Y3320168D1*
X3149409Y3325777D1*
X3143801Y3331844D1*
X3138685Y3338333D1*
X3134094Y3345203D1*
X3130056Y3352412D1*
X3126597Y3359916D1*
X3123738Y3367668D1*
X3121495Y3375621D1*
X3119883Y3383724D1*
X3118912Y3391930D1*
X3118587Y3400186D1*
X3118912Y3408444D1*
X3119883Y3416648D1*
X3121495Y3424753D1*
X3123738Y3432705D1*
X3126597Y3440458D1*
X3130056Y3447961D1*
X3134094Y3455171D1*
X3138685Y3462041D1*
X3143801Y3468530D1*
X3149409Y3474597D1*
X3155476Y3480206D1*
X3161966Y3485322D1*
X3168836Y3489912D1*
X3176045Y3493949D1*
X3183549Y3497408D1*
X3191301Y3500269D1*
X3199253Y3502512D1*
X3207357Y3504123D1*
X3215563Y3505094D1*
X3223819Y3505419D1*
X3232076Y3505094D1*
X3240282Y3504123D1*
X3248386Y3502512D1*
X3256339Y3500269D1*
X3264091Y3497408D1*
X3271594Y3493949D1*
X3278803Y3489912D1*
X3285673Y3485322D1*
X3292163Y3480206D1*
X3298230Y3474597D1*
X3303839Y3468530D1*
X3308954Y3462041D1*
X3313545Y3455171D1*
X3317583Y3447961D1*
X3321042Y3440458D1*
X3323902Y3432705D1*
X3326144Y3424753D1*
X3327756Y3416648D1*
X3328727Y3408444D1*
X3329051Y3400186D1*
X3328727Y3391930D1*
X3327756Y3383724D1*
X3326144Y3375621D1*
X3323902Y3367668D1*
X3321042Y3359916D1*
X3317583Y3352412D1*
X3313545Y3345203D1*
X3308954Y3338333D1*
X3303839Y3331844D1*
X3298230Y3325777D1*
X3292163Y3320168D1*
X3285673Y3315052D1*
X3277255Y3309594D1*
X3285673Y3304062D1*
X3292163Y3298946D1*
X3298230Y3293337D1*
X3303839Y3287270D1*
X3308954Y3280781D1*
X3313545Y3273911D1*
X3317583Y3266701D1*
X3321042Y3259198D1*
X3323902Y3251445D1*
X3326144Y3243493D1*
X3327756Y3235388D1*
X3328727Y3227184D1*
X3329051Y3218927D1*
X3328727Y3210671D1*
X3327756Y3202465D1*
X3326144Y3194361D1*
X3323902Y3186408D1*
X3321042Y3178656D1*
X3317583Y3171152D1*
X3313545Y3163944D1*
X3308954Y3157073D1*
X3303839Y3150584D1*
X3298230Y3144517D1*
X3292163Y3138908D1*
X3285673Y3133793D1*
X3277255Y3128335D1*
X3285673Y3122802D1*
X3292163Y3117686D1*
X3298230Y3112077D1*
X3303839Y3106010D1*
X3308954Y3099521D1*
X3313545Y3092651D1*
X3317583Y3085441D1*
X3321042Y3077938D1*
X3323902Y3070185D1*
X3326144Y3062234D1*
X3327756Y3054129D1*
X3328727Y3045924D1*
X3329051Y3037667D1*
X3328727Y3029411D1*
X3327756Y3021205D1*
X3326144Y3013101D1*
X3323902Y3005148D1*
X3321042Y2997396D1*
X3317583Y2989892D1*
X3313545Y2982684D1*
X3308954Y2975814D1*
X3303839Y2969324D1*
X3298230Y2963257D1*
X3292163Y2957648D1*
X3285673Y2952533D1*
X3278803Y2947942D1*
X3271594Y2943904D1*
X3264091Y2940445D1*
X3256339Y2937585D1*
X3248386Y2935343D1*
X3240282Y2933731D1*
X3232076Y2932759D1*
X3223819Y2932434D1*
X3215563Y2932759D1*
X3207357Y2933731D1*
X3199253Y2935343D1*
X3191301Y2937585D1*
X3183549Y2940445D1*
X3176045Y2943904D1*
X3168836Y2947942D1*
X3161966Y2952533D1*
X3155476Y2957648D1*
X3149409Y2963257D1*
X3143801Y2969324D1*
X3138685Y2975814D1*
X3134094Y2982684D1*
X3130056Y2989892D1*
X3126597Y2997396D1*
X3123738Y3005148D1*
X3121495Y3013101D1*
X3119883Y3021205D1*
X3118912Y3029411D1*
X3118587Y3037667D1*
X3118912Y3045924D1*
X3119883Y3054129D1*
X3121495Y3062234D1*
X3123738Y3070185D1*
X3126597Y3077938D1*
X3130056Y3085441D1*
X3134094Y3092651D1*
X3138685Y3099521D1*
X3143801Y3106010D1*
X3149409Y3112077D1*
X3155476Y3117686D1*
X3161966Y3122802D1*
X3170385Y3128260D1*
X3161966Y3133793D1*
X3155476Y3138908D1*
X3149409Y3144517D1*
X3143801Y3150584D1*
X3138685Y3157073D1*
X3134094Y3163944D1*
X3130056Y3171152D1*
X3126319Y3179413D1*
X3066745Y3179564D1*
X3060626Y3180534D1*
X3054734Y3182448D1*
X3049213Y3185261D1*
X3044201Y3188903D1*
X3015941Y3216991D1*
X2667075Y3565857D1*
X2657698Y3565209D1*
X2647396Y3566020D1*
X2637346Y3568433D1*
X2627798Y3572387D1*
X2618986Y3577787D1*
X2611127Y3584500D1*
X2604415Y3592358D1*
X2599016Y3601171D1*
X2595060Y3610719D1*
X2592647Y3620768D1*
X2591836Y3631071D1*
X2592647Y3641374D1*
X2595060Y3651424D1*
X2599016Y3660972D1*
X2604415Y3669783D1*
X2611127Y3677643D1*
X2618986Y3684354D1*
X2627798Y3689755D1*
X2637346Y3693710D1*
X2647396Y3696122D1*
X2657698Y3696933D1*
X2668001Y3696122D1*
X2678051Y3693710D1*
X2687600Y3689755D1*
X2696412Y3684354D1*
X2704270Y3677643D1*
X2710983Y3669783D1*
X2716382Y3660972D1*
X2720337Y3651424D1*
X2722751Y3641374D1*
X2723560Y3631071D1*
X2723358Y3625904D1*
X3036035Y691609D2*
X3031318Y684013D1*
X3024605Y676155D1*
X3016747Y669442D1*
X3007934Y664042D1*
X2998386Y660088D1*
X2988336Y657675D1*
X2978033Y656864D1*
X2967731Y657675D1*
X2957681Y660088D1*
X2948133Y664042D1*
X2939320Y669442D1*
X2931462Y676155D1*
X2924749Y684013D1*
X2919350Y692825D1*
X2915395Y702374D1*
X2912982Y712423D1*
X2912171Y722726D1*
X2912982Y733029D1*
X2915395Y743079D1*
X2919350Y752627D1*
X2924749Y761438D1*
X2931462Y769298D1*
X2939320Y776009D1*
X2948133Y781409D1*
X2957681Y785365D1*
X2967731Y787777D1*
X2978033Y788588D1*
X2988336Y787777D1*
X2998386Y785365D1*
X3007934Y781409D1*
X3016747Y776009D1*
X3024605Y769298D1*
X3031318Y761438D1*
X3036490Y753033D1*
X3041236Y760614D1*
X3047949Y768474D1*
X3055807Y775185D1*
X3064619Y780585D1*
X3074168Y784541D1*
X3084218Y786953D1*
X3094520Y787764D1*
X3104823Y786953D1*
X3114873Y784541D1*
X3124421Y780585D1*
X3133234Y775185D1*
X3141092Y768474D1*
X3147804Y760614D1*
X3153203Y751803D1*
X3157159Y742255D1*
X3159572Y732205D1*
X3160382Y721902D1*
X3159572Y711598D1*
X3157159Y701550D1*
X3153203Y692001D1*
X3147804Y683189D1*
X3141092Y675331D1*
X3133234Y668618D1*
X3124421Y663218D1*
X3114873Y659264D1*
X3104823Y656850D1*
X3094520Y656039D1*
X3084218Y656850D1*
X3074168Y659264D1*
X3064619Y663218D1*
X3055807Y668618D1*
X3047949Y675331D1*
X3041236Y683189D1*
X3036064Y691596D1*
X2096702Y4052482D2*
X2096971Y4059374D1*
X2097780Y4066198D1*
X2099119Y4072938D1*
X2100984Y4079552D1*
X2103364Y4085999D1*
X2106240Y4092240D1*
X2109597Y4098235D1*
X2113416Y4103949D1*
X2117669Y4109345D1*
X2122335Y4114391D1*
X2127381Y4119055D1*
X2132777Y4123310D1*
X2138491Y4127127D1*
X2144486Y4130486D1*
X2150726Y4133362D1*
X2157173Y4135740D1*
X2163787Y4137606D1*
X2170526Y4138946D1*
X2177350Y4139755D1*
X2184217Y4140024D1*
X2191084Y4139755D1*
X2197908Y4138946D1*
X2204647Y4137606D1*
X2211261Y4135740D1*
X2217709Y4133362D1*
X2223949Y4130486D1*
X2229944Y4127127D1*
X2235657Y4123310D1*
X2241054Y4119055D1*
X2246100Y4114391D1*
X2250765Y4109345D1*
X2255018Y4103949D1*
X2258837Y4098235D1*
X2262194Y4092240D1*
X2265071Y4085999D1*
X2267450Y4079552D1*
X2269315Y4072938D1*
X2270655Y4066198D1*
X2271463Y4059374D1*
X2271734Y4043322D1*
X2271463Y4029894D1*
X2270655Y4023070D1*
X2269315Y4016331D1*
X2267450Y4009717D1*
X2265071Y4003269D1*
X2262194Y3997029D1*
X2258837Y3991033D1*
X2255018Y3985320D1*
X2250765Y3979924D1*
X2246100Y3974877D1*
X2241054Y3970213D1*
X2235657Y3965958D1*
X2229944Y3962140D1*
X2223949Y3958783D1*
X2217709Y3955907D1*
X2211261Y3953528D1*
X2204647Y3951663D1*
X2197908Y3950322D1*
X2191084Y3949514D1*
X2184217Y3949244D1*
X2177350Y3949514D1*
X2170526Y3950322D1*
X2163787Y3951663D1*
X2157173Y3953528D1*
X2150726Y3955907D1*
X2144486Y3958783D1*
X2138491Y3962140D1*
X2132777Y3965958D1*
X2127381Y3970213D1*
X2122335Y3974877D1*
X2117669Y3979924D1*
X2113416Y3985320D1*
X2109597Y3991033D1*
X2106240Y3997029D1*
X2103364Y4003269D1*
X2100984Y4009717D1*
X2099119Y4016331D1*
X2097780Y4023070D1*
X2096971Y4029894D1*
X2096702Y4045946D1*
Y4052381D1*
X2451033Y4052482D2*
X2451302Y4059374D1*
X2452110Y4066198D1*
X2453450Y4072938D1*
X2455315Y4079552D1*
X2457694Y4085999D1*
X2460571Y4092240D1*
X2463928Y4098235D1*
X2467747Y4103949D1*
X2472000Y4109345D1*
X2476665Y4114391D1*
X2481711Y4119055D1*
X2487108Y4123310D1*
X2492822Y4127127D1*
X2498816Y4130486D1*
X2505056Y4133362D1*
X2511504Y4135740D1*
X2518118Y4137606D1*
X2524857Y4138946D1*
X2531681Y4139755D1*
X2538547Y4140024D1*
X2545415Y4139755D1*
X2552239Y4138946D1*
X2558978Y4137606D1*
X2565592Y4135740D1*
X2572039Y4133362D1*
X2578280Y4130486D1*
X2584274Y4127127D1*
X2589988Y4123310D1*
X2595385Y4119055D1*
X2600430Y4114391D1*
X2605096Y4109345D1*
X2609349Y4103949D1*
X2613168Y4098235D1*
X2616525Y4092240D1*
X2619402Y4085999D1*
X2621781Y4079552D1*
X2623646Y4072938D1*
X2624986Y4066198D1*
X2625794Y4059374D1*
X2626064Y4043322D1*
X2625794Y4029894D1*
X2624986Y4023070D1*
X2623646Y4016331D1*
X2621781Y4009717D1*
X2619402Y4003269D1*
X2616525Y3997029D1*
X2613168Y3991033D1*
X2609349Y3985320D1*
X2605096Y3979924D1*
X2600430Y3974877D1*
X2595385Y3970213D1*
X2589988Y3965958D1*
X2584274Y3962140D1*
X2578280Y3958783D1*
X2572039Y3955907D1*
X2565592Y3953528D1*
X2558978Y3951663D1*
X2552239Y3950322D1*
X2545415Y3949514D1*
X2538547Y3949244D1*
X2531681Y3949514D1*
X2524857Y3950322D1*
X2518118Y3951663D1*
X2511504Y3953528D1*
X2505056Y3955907D1*
X2498816Y3958783D1*
X2492822Y3962140D1*
X2487108Y3965958D1*
X2481711Y3970213D1*
X2476665Y3974877D1*
X2472000Y3979924D1*
X2467747Y3985320D1*
X2463928Y3991033D1*
X2460571Y3997029D1*
X2457694Y4003269D1*
X2455315Y4009717D1*
X2453450Y4016331D1*
X2452110Y4023070D1*
X2451302Y4029894D1*
X2451033Y4045946D1*
Y4052381D1*
X2096766Y3227415D2*
X2097035Y3234307D1*
X2097844Y3241131D1*
X2099184Y3247871D1*
X2101049Y3254486D1*
X2103428Y3260932D1*
X2106304Y3267173D1*
X2109661Y3273168D1*
X2113480Y3278882D1*
X2117734Y3284278D1*
X2122399Y3289324D1*
X2127445Y3293988D1*
X2132841Y3298243D1*
X2138555Y3302060D1*
X2144550Y3305419D1*
X2150790Y3308295D1*
X2157238Y3310673D1*
X2163852Y3312539D1*
X2170591Y3313879D1*
X2177415Y3314688D1*
X2184281Y3314957D1*
X2191148Y3314688D1*
X2197972Y3313879D1*
X2204711Y3312539D1*
X2211325Y3310673D1*
X2217773Y3308295D1*
X2224013Y3305419D1*
X2230008Y3302060D1*
X2235722Y3298243D1*
X2241118Y3293988D1*
X2246164Y3289324D1*
X2250829Y3284278D1*
X2255083Y3278882D1*
X2258902Y3273168D1*
X2262259Y3267173D1*
X2265135Y3260932D1*
X2267514Y3254486D1*
X2269379Y3247871D1*
X2270719Y3241131D1*
X2271528Y3234307D1*
X2271798Y3218255D1*
X2271528Y3204827D1*
X2270719Y3198003D1*
X2269379Y3191264D1*
X2267514Y3184650D1*
X2265135Y3178202D1*
X2262259Y3171962D1*
X2258902Y3165966D1*
X2255083Y3160253D1*
X2250829Y3154857D1*
X2246164Y3149810D1*
X2241118Y3145146D1*
X2235722Y3140891D1*
X2230008Y3137073D1*
X2224013Y3133717D1*
X2217773Y3130840D1*
X2211325Y3128461D1*
X2204711Y3126596D1*
X2197972Y3125255D1*
X2191148Y3124448D1*
X2184281Y3124177D1*
X2177415Y3124448D1*
X2170591Y3125255D1*
X2163852Y3126596D1*
X2157238Y3128461D1*
X2150790Y3130840D1*
X2144550Y3133717D1*
X2138555Y3137073D1*
X2132841Y3140891D1*
X2127445Y3145146D1*
X2122399Y3149810D1*
X2117734Y3154857D1*
X2113480Y3160253D1*
X2109661Y3165966D1*
X2106304Y3171962D1*
X2103428Y3178202D1*
X2101049Y3184650D1*
X2099184Y3191264D1*
X2097844Y3198003D1*
X2097035Y3204827D1*
X2096766Y3220879D1*
Y3227314D1*
X2451097Y3227415D2*
X2451366Y3234307D1*
X2452175Y3241131D1*
X2453514Y3247871D1*
X2455379Y3254486D1*
X2457759Y3260932D1*
X2460635Y3267173D1*
X2463992Y3273168D1*
X2467811Y3278882D1*
X2472064Y3284278D1*
X2476730Y3289324D1*
X2481776Y3293988D1*
X2487172Y3298243D1*
X2492886Y3302060D1*
X2498881Y3305419D1*
X2505121Y3308295D1*
X2511568Y3310673D1*
X2518182Y3312539D1*
X2524921Y3313879D1*
X2531745Y3314688D1*
X2538612Y3314957D1*
X2545479Y3314688D1*
X2552303Y3313879D1*
X2559042Y3312539D1*
X2565656Y3310673D1*
X2572104Y3308295D1*
X2578344Y3305419D1*
X2584339Y3302060D1*
X2590052Y3298243D1*
X2595449Y3293988D1*
X2600495Y3289324D1*
X2605160Y3284278D1*
X2609413Y3278882D1*
X2613232Y3273168D1*
X2616589Y3267173D1*
X2619466Y3260932D1*
X2621845Y3254486D1*
X2623710Y3247871D1*
X2625050Y3241131D1*
X2625858Y3234307D1*
X2626129Y3218255D1*
X2625858Y3204827D1*
X2625050Y3198003D1*
X2623710Y3191264D1*
X2621845Y3184650D1*
X2619466Y3178202D1*
X2616589Y3171962D1*
X2613232Y3165966D1*
X2609413Y3160253D1*
X2605160Y3154857D1*
X2600495Y3149810D1*
X2595449Y3145146D1*
X2590052Y3140891D1*
X2584339Y3137073D1*
X2578344Y3133717D1*
X2572104Y3130840D1*
X2565656Y3128461D1*
X2559042Y3126596D1*
X2552303Y3125255D1*
X2545479Y3124448D1*
X2538612Y3124177D1*
X2531745Y3124448D1*
X2524921Y3125255D1*
X2518182Y3126596D1*
X2511568Y3128461D1*
X2505121Y3130840D1*
X2498881Y3133717D1*
X2492886Y3137073D1*
X2487172Y3140891D1*
X2481776Y3145146D1*
X2476730Y3149810D1*
X2472064Y3154857D1*
X2467811Y3160253D1*
X2463992Y3165966D1*
X2460635Y3171962D1*
X2457759Y3178202D1*
X2455379Y3184650D1*
X2453514Y3191264D1*
X2452175Y3198003D1*
X2451366Y3204827D1*
X2451097Y3220879D1*
Y3227261D1*
X2210362Y2180660D2*
X2325026D1*
Y2056810D1*
X2201176D1*
Y2180660D1*
X2210362D1*
X2096845Y2402173D2*
X2097114Y2409066D1*
X2097923Y2415890D1*
X2099262Y2422630D1*
X2101127Y2429244D1*
X2103507Y2435690D1*
X2106383Y2441932D1*
X2109740Y2447927D1*
X2113559Y2453640D1*
X2117812Y2459037D1*
X2122478Y2464083D1*
X2127524Y2468747D1*
X2132920Y2473001D1*
X2138634Y2476819D1*
X2144629Y2480177D1*
X2150869Y2483054D1*
X2157316Y2485432D1*
X2163930Y2487298D1*
X2170669Y2488638D1*
X2177493Y2489446D1*
X2184360Y2489715D1*
X2191227Y2489446D1*
X2198051Y2488638D1*
X2204790Y2487298D1*
X2211404Y2485432D1*
X2217852Y2483054D1*
X2224092Y2480177D1*
X2230087Y2476819D1*
X2235801Y2473001D1*
X2241197Y2468747D1*
X2246243Y2464083D1*
X2250908Y2459037D1*
X2255161Y2453640D1*
X2258980Y2447927D1*
X2262337Y2441932D1*
X2265214Y2435690D1*
X2267593Y2429244D1*
X2269458Y2422630D1*
X2270798Y2415890D1*
X2271606Y2409066D1*
X2271877Y2393013D1*
X2271606Y2379585D1*
X2270798Y2372761D1*
X2269458Y2366022D1*
X2267593Y2359408D1*
X2265214Y2352961D1*
X2262337Y2346720D1*
X2258980Y2340724D1*
X2255161Y2335012D1*
X2250908Y2329615D1*
X2246243Y2324568D1*
X2241197Y2319904D1*
X2235801Y2315650D1*
X2230087Y2311832D1*
X2224092Y2308475D1*
X2217852Y2305598D1*
X2211404Y2303219D1*
X2204790Y2301354D1*
X2198051Y2300013D1*
X2191227Y2299206D1*
X2184360Y2298936D1*
X2177493Y2299206D1*
X2170669Y2300013D1*
X2163930Y2301354D1*
X2157316Y2303219D1*
X2150869Y2305598D1*
X2144629Y2308475D1*
X2138634Y2311832D1*
X2132920Y2315650D1*
X2127524Y2319904D1*
X2122478Y2324568D1*
X2117812Y2329615D1*
X2113559Y2335012D1*
X2109740Y2340724D1*
X2106383Y2346720D1*
X2103507Y2352961D1*
X2101127Y2359408D1*
X2099262Y2366022D1*
X2097923Y2372761D1*
X2097114Y2379585D1*
X2096845Y2395638D1*
Y2402020D1*
X2451176Y2402173D2*
X2451445Y2409066D1*
X2452253Y2415890D1*
X2453593Y2422630D1*
X2455458Y2429244D1*
X2457837Y2435690D1*
X2460714Y2441932D1*
X2464071Y2447927D1*
X2467890Y2453640D1*
X2472143Y2459037D1*
X2476808Y2464083D1*
X2481854Y2468747D1*
X2487251Y2473001D1*
X2492965Y2476819D1*
X2498959Y2480177D1*
X2505199Y2483054D1*
X2511647Y2485432D1*
X2518261Y2487298D1*
X2525000Y2488638D1*
X2531824Y2489446D1*
X2538690Y2489715D1*
X2545558Y2489446D1*
X2552382Y2488638D1*
X2559121Y2487298D1*
X2565735Y2485432D1*
X2572182Y2483054D1*
X2578423Y2480177D1*
X2584417Y2476819D1*
X2590131Y2473001D1*
X2595528Y2468747D1*
X2600573Y2464083D1*
X2605239Y2459037D1*
X2609492Y2453640D1*
X2613311Y2447927D1*
X2616668Y2441932D1*
X2619545Y2435690D1*
X2621924Y2429244D1*
X2623789Y2422630D1*
X2625129Y2415890D1*
X2625937Y2409066D1*
X2626207Y2393013D1*
X2625937Y2379585D1*
X2625129Y2372761D1*
X2623789Y2366022D1*
X2621924Y2359408D1*
X2619545Y2352961D1*
X2616668Y2346720D1*
X2613311Y2340724D1*
X2609492Y2335012D1*
X2605239Y2329615D1*
X2600573Y2324568D1*
X2595528Y2319904D1*
X2590131Y2315650D1*
X2584417Y2311832D1*
X2578423Y2308475D1*
X2572182Y2305598D1*
X2565735Y2303219D1*
X2559121Y2301354D1*
X2552382Y2300013D1*
X2545558Y2299206D1*
X2538690Y2298936D1*
X2531824Y2299206D1*
X2525000Y2300013D1*
X2518261Y2301354D1*
X2511647Y2303219D1*
X2505199Y2305598D1*
X2498959Y2308475D1*
X2492965Y2311832D1*
X2487251Y2315650D1*
X2481854Y2319904D1*
X2476808Y2324568D1*
X2472143Y2329615D1*
X2467890Y2335012D1*
X2464071Y2340724D1*
X2460714Y2346720D1*
X2457837Y2352961D1*
X2455458Y2359408D1*
X2453593Y2366022D1*
X2452253Y2372761D1*
X2451445Y2379585D1*
X2451176Y2395638D1*
Y2402020D1*
X2521685Y2113877D2*
X2520165Y2104280D1*
X2517163Y2095038D1*
X2512751Y2086379D1*
X2507039Y2078518D1*
X2500168Y2071647D1*
X2492307Y2065936D1*
X2483648Y2061524D1*
X2474407Y2058521D1*
X2464810Y2057001D1*
X2455092D1*
X2445495Y2058521D1*
X2436253Y2061524D1*
X2427594Y2065936D1*
X2419734Y2071647D1*
X2412862Y2078518D1*
X2407151Y2086379D1*
X2402739Y2095038D1*
X2399736Y2104280D1*
X2398217Y2113877D1*
Y2123594D1*
X2399736Y2133192D1*
X2402739Y2142433D1*
X2407151Y2151091D1*
X2412862Y2158953D1*
X2419734Y2165824D1*
X2427594Y2171535D1*
X2436253Y2175946D1*
X2445495Y2178950D1*
X2455092Y2180470D1*
X2464810D1*
X2474407Y2178950D1*
X2483648Y2175946D1*
X2492307Y2171535D1*
X2500168Y2165824D1*
X2507039Y2158953D1*
X2512751Y2151091D1*
X2517163Y2142433D1*
X2520165Y2133192D1*
X2521685Y2123594D1*
Y2113877D1*
X2096912Y1577358D2*
X2097181Y1584251D1*
X2097990Y1591075D1*
X2099329Y1597815D1*
X2101194Y1604429D1*
X2103573Y1610875D1*
X2106450Y1617117D1*
X2109807Y1623112D1*
X2113626Y1628825D1*
X2117879Y1634222D1*
X2122545Y1639268D1*
X2127591Y1643932D1*
X2132987Y1648186D1*
X2138701Y1652004D1*
X2144696Y1655362D1*
X2150936Y1658239D1*
X2157383Y1660617D1*
X2163997Y1662483D1*
X2170736Y1663823D1*
X2177560Y1664631D1*
X2184427Y1664900D1*
X2191294Y1664631D1*
X2198118Y1663823D1*
X2204857Y1662483D1*
X2211471Y1660617D1*
X2217919Y1658239D1*
X2224159Y1655362D1*
X2230154Y1652004D1*
X2235867Y1648186D1*
X2241264Y1643932D1*
X2246310Y1639268D1*
X2250975Y1634222D1*
X2255228Y1628825D1*
X2259047Y1623112D1*
X2262404Y1617117D1*
X2265281Y1610875D1*
X2267660Y1604429D1*
X2269525Y1597815D1*
X2270865Y1591075D1*
X2271673Y1584251D1*
X2271944Y1568198D1*
X2271673Y1554770D1*
X2270865Y1547946D1*
X2269525Y1541207D1*
X2267660Y1534593D1*
X2265281Y1528146D1*
X2262404Y1521906D1*
X2259047Y1515909D1*
X2255228Y1510197D1*
X2250975Y1504801D1*
X2246310Y1499753D1*
X2241264Y1495089D1*
X2235867Y1490835D1*
X2230154Y1487017D1*
X2224159Y1483660D1*
X2217919Y1480783D1*
X2211471Y1478404D1*
X2204857Y1476539D1*
X2198118Y1475198D1*
X2191294Y1474391D1*
X2184427Y1474121D1*
X2177560Y1474391D1*
X2170736Y1475198D1*
X2163997Y1476539D1*
X2157383Y1478404D1*
X2150936Y1480783D1*
X2144696Y1483660D1*
X2138701Y1487017D1*
X2132987Y1490835D1*
X2127591Y1495089D1*
X2122545Y1499753D1*
X2117879Y1504801D1*
X2113626Y1510197D1*
X2109807Y1515909D1*
X2106450Y1521906D1*
X2103573Y1528146D1*
X2101194Y1534593D1*
X2099329Y1541207D1*
X2097990Y1547946D1*
X2097181Y1554770D1*
X2096912Y1570823D1*
Y1577205D1*
X2451243Y1577358D2*
X2451512Y1584251D1*
X2452320Y1591075D1*
X2453660Y1597815D1*
X2455525Y1604429D1*
X2457904Y1610875D1*
X2460781Y1617117D1*
X2464138Y1623112D1*
X2467957Y1628825D1*
X2472210Y1634222D1*
X2476875Y1639268D1*
X2481921Y1643932D1*
X2487318Y1648186D1*
X2493031Y1652004D1*
X2499026Y1655362D1*
X2505266Y1658239D1*
X2511714Y1660617D1*
X2518328Y1662483D1*
X2525067Y1663823D1*
X2531891Y1664631D1*
X2538757Y1664900D1*
X2545625Y1664631D1*
X2552449Y1663823D1*
X2559188Y1662483D1*
X2565802Y1660617D1*
X2572249Y1658239D1*
X2578490Y1655362D1*
X2584484Y1652004D1*
X2590198Y1648186D1*
X2595594Y1643932D1*
X2600640Y1639268D1*
X2605306Y1634222D1*
X2609559Y1628825D1*
X2613378Y1623112D1*
X2616735Y1617117D1*
X2619612Y1610875D1*
X2621991Y1604429D1*
X2623856Y1597815D1*
X2625196Y1591075D1*
X2626004Y1584251D1*
X2626274Y1568198D1*
X2626004Y1554770D1*
X2625196Y1547946D1*
X2623856Y1541207D1*
X2621991Y1534593D1*
X2619612Y1528146D1*
X2616735Y1521906D1*
X2613378Y1515909D1*
X2609559Y1510197D1*
X2605306Y1504801D1*
X2600640Y1499753D1*
X2595594Y1495089D1*
X2590198Y1490835D1*
X2584484Y1487017D1*
X2578490Y1483660D1*
X2572249Y1480783D1*
X2565802Y1478404D1*
X2559188Y1476539D1*
X2552449Y1475198D1*
X2545625Y1474391D1*
X2538757Y1474121D1*
X2531891Y1474391D1*
X2525067Y1475198D1*
X2518328Y1476539D1*
X2511714Y1478404D1*
X2505266Y1480783D1*
X2499026Y1483660D1*
X2493031Y1487017D1*
X2487318Y1490835D1*
X2481921Y1495089D1*
X2476875Y1499753D1*
X2472210Y1504801D1*
X2467957Y1510197D1*
X2464138Y1515909D1*
X2460781Y1521906D1*
X2457904Y1528146D1*
X2455525Y1534593D1*
X2453660Y1541207D1*
X2452320Y1547946D1*
X2451512Y1554770D1*
X2451243Y1570823D1*
Y1577205D1*
X2096924Y752295D2*
X2097193Y759188D1*
X2098001Y766012D1*
X2099341Y772752D1*
X2101206Y779366D1*
X2103585Y785812D1*
X2106462Y792054D1*
X2109819Y798049D1*
X2113638Y803762D1*
X2117891Y809159D1*
X2122556Y814205D1*
X2127602Y818869D1*
X2132999Y823123D1*
X2138713Y826941D1*
X2144707Y830299D1*
X2150948Y833176D1*
X2157395Y835554D1*
X2164009Y837420D1*
X2170748Y838760D1*
X2177572Y839568D1*
X2184438Y839837D1*
X2191306Y839568D1*
X2198130Y838760D1*
X2204869Y837420D1*
X2211483Y835554D1*
X2217930Y833176D1*
X2224171Y830299D1*
X2230165Y826941D1*
X2235879Y823123D1*
X2241276Y818869D1*
X2246322Y814205D1*
X2250987Y809159D1*
X2255240Y803762D1*
X2259059Y798049D1*
X2262416Y792054D1*
X2265293Y785812D1*
X2267672Y779366D1*
X2269537Y772752D1*
X2270877Y766012D1*
X2271685Y759188D1*
X2271955Y743135D1*
X2271685Y729707D1*
X2270877Y722883D1*
X2269537Y716144D1*
X2267672Y709530D1*
X2265293Y703083D1*
X2262416Y696843D1*
X2259059Y690846D1*
X2255240Y685134D1*
X2250987Y679738D1*
X2246322Y674690D1*
X2241276Y670026D1*
X2235879Y665772D1*
X2230165Y661954D1*
X2224171Y658597D1*
X2217930Y655720D1*
X2211483Y653341D1*
X2204869Y651476D1*
X2198130Y650135D1*
X2191306Y649328D1*
X2184438Y649058D1*
X2177572Y649328D1*
X2170748Y650135D1*
X2164009Y651476D1*
X2157395Y653341D1*
X2150948Y655720D1*
X2144707Y658597D1*
X2138713Y661954D1*
X2132999Y665772D1*
X2127602Y670026D1*
X2122556Y674690D1*
X2117891Y679738D1*
X2113638Y685134D1*
X2109819Y690846D1*
X2106462Y696843D1*
X2103585Y703083D1*
X2101206Y709530D1*
X2099341Y716144D1*
X2098001Y722883D1*
X2097193Y729707D1*
X2096924Y745760D1*
Y752091D1*
X2451255Y752295D2*
X2451524Y759188D1*
X2452332Y766012D1*
X2453672Y772752D1*
X2455537Y779366D1*
X2457916Y785812D1*
X2460793Y792054D1*
X2464150Y798049D1*
X2467969Y803762D1*
X2472222Y809159D1*
X2476887Y814205D1*
X2481933Y818869D1*
X2487329Y823123D1*
X2493043Y826941D1*
X2499038Y830299D1*
X2505278Y833176D1*
X2511726Y835554D1*
X2518340Y837420D1*
X2525079Y838760D1*
X2531903Y839568D1*
X2538769Y839837D1*
X2545636Y839568D1*
X2552461Y838760D1*
X2559199Y837420D1*
X2565814Y835554D1*
X2572261Y833176D1*
X2578501Y830299D1*
X2584496Y826941D1*
X2590210Y823123D1*
X2595606Y818869D1*
X2600652Y814205D1*
X2605318Y809159D1*
X2609571Y803762D1*
X2613390Y798049D1*
X2616747Y792054D1*
X2619623Y785812D1*
X2622003Y779366D1*
X2623867Y772752D1*
X2625207Y766012D1*
X2626016Y759188D1*
X2626286Y743135D1*
X2626016Y729707D1*
X2625207Y722883D1*
X2623867Y716144D1*
X2622003Y709530D1*
X2619623Y703083D1*
X2616747Y696843D1*
X2613390Y690846D1*
X2609571Y685134D1*
X2605318Y679738D1*
X2600652Y674690D1*
X2595606Y670026D1*
X2590210Y665772D1*
X2584496Y661954D1*
X2578501Y658597D1*
X2572261Y655720D1*
X2565814Y653341D1*
X2559199Y651476D1*
X2552461Y650135D1*
X2545636Y649328D1*
X2538769Y649058D1*
X2531903Y649328D1*
X2525079Y650135D1*
X2518340Y651476D1*
X2511726Y653341D1*
X2505278Y655720D1*
X2499038Y658597D1*
X2493043Y661954D1*
X2487329Y665772D1*
X2481933Y670026D1*
X2476887Y674690D1*
X2472222Y679738D1*
X2467969Y685134D1*
X2464150Y690846D1*
X2460793Y696843D1*
X2457916Y703083D1*
X2455537Y709530D1*
X2453672Y716144D1*
X2452332Y722883D1*
X2451524Y729707D1*
X2451255Y745760D1*
Y752091D1*
X2959081Y1577541D2*
X2959350Y1584433D1*
X2960159Y1591257D1*
X2961499Y1597997D1*
X2963364Y1604612D1*
X2965743Y1611058D1*
X2968619Y1617299D1*
X2971976Y1623294D1*
X2975795Y1629008D1*
X2980049Y1634404D1*
X2984714Y1639450D1*
X2989760Y1644114D1*
X2995156Y1648369D1*
X3000870Y1652186D1*
X3006865Y1655545D1*
X3013105Y1658421D1*
X3019552Y1660799D1*
X3026167Y1662665D1*
X3032906Y1664005D1*
X3039730Y1664814D1*
X3046596Y1665083D1*
X3053463Y1664814D1*
X3060287Y1664005D1*
X3067026Y1662665D1*
X3073640Y1660799D1*
X3080088Y1658421D1*
X3086328Y1655545D1*
X3092323Y1652186D1*
X3098037Y1648369D1*
X3103433Y1644114D1*
X3108479Y1639450D1*
X3113144Y1634404D1*
X3117398Y1629008D1*
X3121217Y1623294D1*
X3124573Y1617299D1*
X3127450Y1611058D1*
X3129829Y1604612D1*
X3131694Y1597997D1*
X3133034Y1591257D1*
X3133843Y1584433D1*
X3134113Y1568381D1*
X3133843Y1554953D1*
X3133034Y1548129D1*
X3131694Y1541390D1*
X3129829Y1534776D1*
X3127450Y1528328D1*
X3124573Y1522088D1*
X3121217Y1516092D1*
X3117398Y1510379D1*
X3113144Y1504983D1*
X3108479Y1499936D1*
X3103433Y1495272D1*
X3098037Y1491017D1*
X3092323Y1487199D1*
X3086328Y1483843D1*
X3080088Y1480966D1*
X3073640Y1478587D1*
X3067026Y1476722D1*
X3060287Y1475381D1*
X3053463Y1474573D1*
X3046596Y1474303D1*
X3039730Y1474573D1*
X3032906Y1475381D1*
X3026167Y1476722D1*
X3019552Y1478587D1*
X3013105Y1480966D1*
X3006865Y1483843D1*
X3000870Y1487199D1*
X2995156Y1491017D1*
X2989760Y1495272D1*
X2984714Y1499936D1*
X2980049Y1504983D1*
X2975795Y1510379D1*
X2971976Y1516092D1*
X2968619Y1522088D1*
X2965743Y1528328D1*
X2963364Y1534776D1*
X2961499Y1541390D1*
X2960159Y1548129D1*
X2959350Y1554953D1*
X2959081Y1571005D1*
Y1577336D1*
D17*
X1623249Y2378975D3*
D18*
Y2280550D3*
D19*
X1150289Y1831475D3*
Y2031475D3*
D17*
X1469230Y1549136D3*
D18*
Y1450711D3*
D19*
X1383554Y816424D3*
X1583554D3*
D17*
X1472883Y1073860D3*
D18*
Y1172285D3*
D19*
X2904601Y2950644D3*
Y2750644D3*
D17*
X3518113Y2887825D3*
D18*
Y2789400D3*
D17*
X1764059Y2753038D3*
D18*
Y2851463D3*
D19*
X1158131Y2903353D3*
Y2703353D3*
X3481417Y2105668D3*
Y1905668D3*
D17*
X2886160Y2039539D3*
D18*
Y1941114D3*
D17*
X2736499Y483024D3*
D18*
Y581449D3*
D19*
X1989167Y692463D3*
Y492463D3*
D17*
X3793243Y2076869D3*
D18*
Y1978444D3*
D17*
X2909127Y1257177D3*
D18*
Y1158752D3*
D19*
X4014134Y821004D3*
Y921004D3*
D17*
X1780867Y3682715D3*
D18*
Y3584290D3*
D20*
X1229916Y3836609D3*
D19*
Y4234247D3*
D20*
X2010853Y2604804D3*
D19*
Y3002442D3*
D20*
X3740665Y1190234D3*
D19*
Y1587871D3*
D20*
X3843238Y1589963D3*
D19*
Y1192325D3*
D21*
X738701Y890322D3*
D22*
X638701D3*
D23*
X912992Y3775306D3*
D24*
Y4011526D3*
X720079Y3893416D3*
D25*
X563803Y3218874D3*
D26*
X633882Y3008835D3*
Y3428913D3*
D25*
X4157538Y3218846D3*
D26*
X4087459Y3428886D3*
Y3008807D3*
D27*
X4087614Y2237656D3*
Y2556396D3*
D28*
X4275094Y2343916D3*
D29*
X3918874Y2343877D3*
D30*
X838266Y1571146D3*
D31*
X538266D3*
D103*
X1655785Y1881475D3*
D32*
X1605785Y1931475D3*
X1655785Y1981475D3*
D33*
X1813667Y1529255D3*
D34*
X1763667Y1479255D3*
X1813667Y1429255D3*
D103*
X1821829Y1040248D3*
D32*
X1771829Y1090248D3*
X1821829Y1140248D3*
D103*
X2856130Y824530D3*
D32*
X2806130Y874530D3*
X2856130Y924530D3*
D30*
X995707Y3372130D3*
D31*
Y3072130D3*
D30*
X1851420Y2500432D3*
D31*
Y2200432D3*
D30*
X2010147D3*
D31*
Y2500432D3*
D30*
Y1781475D3*
D31*
Y2081475D3*
D30*
X1851420Y1781475D3*
D31*
Y2081475D3*
D30*
X1304499D3*
D31*
Y1781475D3*
D30*
X1467146D3*
D31*
Y2081475D3*
D30*
X2010147Y1329255D3*
D31*
Y1629255D3*
D30*
Y1236449D3*
D31*
Y936449D3*
D30*
X1333554Y512765D3*
D31*
X1633554D3*
D30*
Y664438D3*
D31*
X1333554D3*
D30*
X2657698Y3631071D3*
D31*
X2357698D3*
D30*
X2269919Y3633193D3*
D31*
X1969919D3*
D30*
X3522584Y1239942D3*
D31*
Y1539942D3*
D30*
X3892720Y460945D3*
D31*
X3592720D3*
D30*
X548665Y662866D3*
D31*
X848665D3*
D30*
X1812350Y4264005D3*
D31*
Y3964005D3*
D30*
X1931324Y3963319D3*
D31*
Y4263319D3*
D30*
X3632310Y1540004D3*
D31*
Y1240004D3*
D30*
X3487609Y1688835D3*
D31*
X3787609D3*
D30*
X3489490Y1802070D3*
D31*
X3789490D3*
D30*
X2978033Y722726D3*
D31*
Y1022726D3*
D30*
X3094520Y721902D3*
D31*
Y1021902D3*
D30*
X3892720Y589273D3*
D31*
X3592720D3*
D30*
X3206440D3*
D31*
X3506440D3*
D30*
Y460945D3*
D31*
X3206440D3*
D35*
X3223819Y3037667D3*
Y3218927D3*
Y3400186D3*
X1493841Y3037601D3*
Y3218861D3*
Y3400121D3*
X3223701Y2212686D3*
Y2393946D3*
Y2575206D3*
X1494035Y4225188D3*
Y4043928D3*
Y3862668D3*
X4087919Y1750093D3*
Y1568833D3*
Y1387573D3*
D36*
X3860268Y1019782D3*
D37*
X3760268D3*
X3660268D3*
X3560268D3*
X3460268D3*
X3360268D3*
X3260268D3*
Y719782D3*
X3360268D3*
X3460268D3*
X3560268D3*
X3660268D3*
X3760268D3*
X3860268D3*
D20*
X2262957Y3769043D3*
D38*
X2184217Y4044634D3*
D19*
X2361382Y3769043D3*
D38*
X2538547Y4044634D3*
D19*
X2459807Y3769043D3*
D20*
X2263021Y2943976D3*
D38*
X2184281Y3219567D3*
D19*
X2361446Y2943976D3*
D38*
X2538612Y3219567D3*
D19*
X2459871Y2943976D3*
D20*
X2263100Y2118735D3*
D38*
X2184360Y2394325D3*
D19*
X2361525Y2118735D3*
D38*
X2538690Y2394325D3*
D19*
X2459950Y2118735D3*
D20*
X2263167Y1293920D3*
D38*
X2184427Y1569510D3*
D19*
X2361592Y1293920D3*
D38*
X2538757Y1569510D3*
D19*
X2460017Y1293920D3*
D20*
X2263178Y468857D3*
D38*
X2184438Y744448D3*
D19*
X2361604Y468857D3*
D38*
X2538769Y744448D3*
D19*
X2460029Y468857D3*
D20*
X3125336Y1294102D3*
D38*
X3046596Y1569693D3*
D19*
X3223761Y1294102D3*
D38*
X3400927Y1569693D3*
D19*
X3322186Y1294102D3*
M02*
