G04 DipTrace 3.1.0.1*
G04 Top.gbr*
%MOIN*%
G04 #@! TF.FileFunction,Copper,L1,Top*
G04 #@! TF.Part,Single*
%AMOUTLINE0*5,1,4,0,0,0.062994,-225.0*%
G04 #@! TA.AperFunction,Conductor*
%ADD13C,0.025984*%
%ADD14C,0.03937*%
G04 #@! TA.AperFunction,ComponentPad*
%ADD17R,0.062992X0.062992*%
%ADD18C,0.062992*%
%ADD19C,0.070866*%
%ADD20R,0.070866X0.070866*%
%ADD21C,0.059055*%
%ADD22R,0.059055X0.059055*%
%ADD23C,0.19685*%
%ADD24C,0.177165*%
%ADD25C,0.11811*%
%ADD26C,0.130709*%
%ADD27O,0.212598X0.11811*%
%ADD28C,0.125984*%
%ADD29C,0.15748*%
%ADD30C,0.07874*%
%ADD31C,0.07874*%
%ADD32C,0.055118*%
%ADD33R,0.047244X0.047244*%
%ADD34C,0.047244*%
%ADD35C,0.15748*%
%ADD36R,0.062992X0.125984*%
%ADD37O,0.062992X0.125984*%
%ADD38O,0.122047X0.137795*%
G04 #@! TA.AperFunction,ViaPad*
%ADD39C,0.04*%
G04 #@! TA.AperFunction,ComponentPad*
%ADD103OUTLINE0*%
%FSLAX26Y26*%
G04*
G70*
G90*
G75*
G01*
G04 Top*
%LPD*%
X4014134Y821004D2*
D13*
X3587484D1*
X3560268Y793787D1*
Y719782D1*
X1494035Y3862668D2*
D14*
X1560203D1*
X1707726Y4010190D1*
Y4159381D1*
X1812350Y4264005D1*
X1494035Y3862668D2*
Y3696856D1*
X1912314Y3278577D1*
Y2551268D1*
X1856449Y2495403D1*
X1851420Y2500432D1*
X1150289Y2031475D2*
X1254499D1*
X1304499Y2081475D1*
Y2062375D1*
X1587668Y1779206D1*
X1849151D1*
X1851420Y1781475D1*
Y2500432D2*
X1464823D1*
X1301692Y2337301D1*
Y2084282D1*
X1304499Y2081475D1*
X1851420Y1781475D2*
Y1640915D1*
X2010147Y1482188D1*
Y1329255D1*
X1942492D1*
X1821829Y1208592D1*
Y1140248D1*
X2214570D1*
X2402150Y952668D1*
X2827992D1*
X2856130Y924530D1*
X3538790D1*
X3557770Y943510D1*
Y1017285D1*
X3560268Y1019782D1*
X4014134Y921004D2*
X3580277D1*
X3557770Y943510D1*
X838266Y1571146D2*
Y1807495D1*
X1062247Y2031475D1*
X1150289D1*
X2459807Y3769043D2*
D13*
X2519726D1*
X2657698Y3631071D1*
X563803Y3218874D2*
X644269D1*
X801430Y3376035D1*
X991802D1*
X995707Y3372130D1*
X3223819Y3037667D2*
X3368272D1*
X3518113Y2887825D1*
X2361382Y3769043D2*
Y3634755D1*
X2357698Y3631071D1*
Y3541387D1*
X2326421Y3510109D1*
X2142608D1*
X2010741Y3378243D1*
Y3110514D1*
X1623249Y2280550D2*
X1771302D1*
X1851420Y2200432D1*
X2010147D1*
Y2307362D1*
X2095067Y2392282D1*
Y2548979D1*
X2035224Y2608822D1*
X2014870D1*
X2010853Y2604804D1*
X1623249Y2280550D2*
Y2136997D1*
X1588084Y2101832D1*
Y1949176D1*
X1605785Y1931475D1*
X1655785Y1881475D2*
X1579957D1*
X1465304Y1996127D1*
Y2079634D1*
X1467146Y2081475D1*
X1655785Y1881475D2*
X1910147D1*
X2010147Y1781475D1*
X1655785Y1981475D2*
X1678728D1*
X1767930Y2070677D1*
X1840622D1*
X1851420Y2081475D1*
X1989167Y692463D2*
X2040957D1*
X2097098Y636322D1*
X2603584D1*
X2642545Y597361D1*
X2720587D1*
X2736499Y581449D1*
X1927143Y1078958D2*
Y754487D1*
X1989167Y692463D1*
X1467146Y1781475D2*
Y1551220D1*
X1469230Y1549136D1*
X1813667Y1529255D2*
X1793785Y1549136D1*
X1469230D1*
X1150289Y1831475D2*
X1254499D1*
X1304499Y1781475D1*
Y1445696D1*
X1375638Y1374556D1*
X1758969D1*
X1813667Y1429255D1*
X2010147Y1236449D2*
X2081618D1*
X2107751Y1210316D1*
X2345352D1*
X2361592Y1226556D1*
Y1293920D1*
X2361446Y2943976D2*
Y2272349D1*
X2350567Y2261469D1*
X2191013D1*
X2153785Y2224240D1*
Y1772891D1*
X2010147Y1629255D1*
Y1600705D1*
X2106012Y1504841D1*
Y1332314D1*
X2010147Y1236449D1*
X1771829Y1090248D2*
Y1091752D1*
X1744308Y1119273D1*
Y1231657D1*
X1871098Y1358446D1*
X1383554Y816424D2*
Y714438D1*
X1333554Y664438D1*
Y512765D1*
X1383554Y816424D2*
Y818591D1*
X1478991Y914028D1*
X1695609D1*
X1821829Y1040248D1*
X1583554Y816424D2*
Y714438D1*
X1633554Y664438D1*
X4157537Y3218846D2*
X4107266D1*
X3771060Y2882640D1*
Y2613604D1*
X3395181Y2237724D1*
Y2053702D1*
X2425352Y1083873D1*
X912992Y3775306D2*
D14*
X1168613D1*
X1229916Y3836609D1*
X1286717D1*
X1494035Y4043928D1*
X2886160Y2039539D2*
D13*
Y2237665D1*
X3223701Y2575206D1*
X2904601Y2950644D2*
Y3080969D1*
X3223819Y3400186D1*
X2459871Y2943976D2*
X2594110D1*
X2784169Y2753917D1*
X2901329D1*
X2904601Y2750644D1*
X3479357D1*
X3518113Y2789400D1*
X1764059Y2851463D2*
Y3129903D1*
X1493841Y3400121D1*
X1158131Y2903353D2*
X1359593D1*
X1493841Y3037601D1*
X2460029Y468857D2*
X2722332D1*
X2736499Y483024D1*
X1989167Y492463D2*
X2149530D1*
X2173136Y468857D1*
X2263178D1*
X2459950Y2118735D2*
X2708539D1*
X2886160Y1941114D1*
X3793243Y2076869D2*
Y2451881D1*
X3898419Y2557056D1*
X4086955D1*
X4087614Y2556396D1*
X3793243Y1978444D2*
Y1805823D1*
X3789490Y1802070D1*
X3522584Y1539942D2*
Y1585320D1*
X3625802Y1688538D1*
X3675958D1*
X3789490Y1802070D1*
X1812350Y3964005D2*
X1930638D1*
X1931324Y3963319D1*
X1812350Y3964005D2*
X1809615D1*
X1777886Y3932276D1*
Y3685697D1*
X1780867Y3682715D1*
X3660268Y719782D2*
Y699517D1*
X3766822Y592963D1*
X3889030D1*
X3892720Y589273D1*
X3950253Y1588694D2*
Y1236261D1*
X3943656Y1242858D1*
X3632310Y1240004D2*
X3522646D1*
X3522584Y1239942D1*
X3632310Y1240004D2*
Y1186993D1*
X3745522Y1073781D1*
Y1034529D1*
X3760268Y1019782D1*
X3632310Y1240004D2*
Y1324920D1*
X3837946Y1530556D1*
Y1584672D1*
X3843238Y1589963D1*
X3740665Y1190234D2*
X3841146D1*
X3843238Y1192325D1*
Y1036812D1*
X3860268Y1019782D1*
X3632310Y1540004D2*
X3692798D1*
X3740665Y1587871D1*
Y1641891D1*
X3787609Y1688835D1*
X3489490Y1802070D2*
Y1690715D1*
X3487609Y1688835D1*
X2909127Y1257177D2*
X3088411D1*
X3125336Y1294102D1*
Y1447789D1*
X3222631Y1545084D1*
Y1627642D1*
X3281507Y1686517D1*
X3489927D1*
X3487609Y1688835D1*
X3360268Y1019782D2*
Y1131766D1*
X3276524Y1215510D1*
X2909127Y1158752D2*
Y1091631D1*
X2978033Y1022726D1*
X3260268Y1019782D2*
X3256165D1*
Y1049655D1*
X3223761Y1082059D1*
Y1294102D1*
X3322186D1*
X2978033Y722726D2*
X3093696D1*
X3094520Y721902D1*
X3105033D1*
X3212127Y828996D1*
X3413953D1*
X3460268Y782680D1*
Y719782D1*
X3206440Y589273D2*
Y460945D1*
Y589273D2*
Y665954D1*
X3260268Y719782D1*
X3797714Y525583D2*
X3271077D1*
X3206440Y460945D1*
X3592720Y589273D2*
X3506440D1*
X3431192D1*
X3373928Y646538D1*
Y706123D1*
X3360268Y719782D1*
X2856130Y824530D2*
X2631493D1*
X2593986Y862038D1*
X2046171D1*
X1998303Y814171D1*
X548665Y662866D2*
Y800286D1*
X638701Y890322D1*
X2269919Y3633193D2*
Y3762081D1*
X2262957Y3769043D1*
X3860268Y719782D2*
X3911202D1*
X3990835Y640151D1*
Y514058D1*
X3937722Y460945D1*
X3892720D1*
X4155539Y728696D2*
X3869181D1*
X3860268Y719782D1*
X3506440Y460945D2*
X3592720D1*
D39*
X2010741Y3110514D3*
X1927143Y1078958D3*
X1871098Y1358446D3*
X2425352Y1083873D3*
X3950253Y1588694D3*
X3943656Y1242858D3*
X3276524Y1215510D3*
X3797714Y525583D3*
X1998303Y814171D3*
X4155539Y728696D3*
D17*
X1623249Y2378975D3*
D18*
Y2280550D3*
D19*
X1150289Y1831475D3*
Y2031475D3*
D17*
X1469230Y1549136D3*
D18*
Y1450711D3*
D19*
X1383554Y816424D3*
X1583554D3*
D17*
X1472883Y1073860D3*
D18*
Y1172285D3*
D19*
X2904601Y2950644D3*
Y2750644D3*
D17*
X3518113Y2887825D3*
D18*
Y2789400D3*
D17*
X1764059Y2753038D3*
D18*
Y2851463D3*
D19*
X1158131Y2903353D3*
Y2703353D3*
X3481417Y2105668D3*
Y1905668D3*
D17*
X2886160Y2039539D3*
D18*
Y1941114D3*
D17*
X2736499Y483024D3*
D18*
Y581449D3*
D19*
X1989167Y692463D3*
Y492463D3*
D17*
X3793243Y2076869D3*
D18*
Y1978444D3*
D17*
X2909127Y1257177D3*
D18*
Y1158752D3*
D19*
X4014134Y821004D3*
Y921004D3*
D17*
X1780867Y3682715D3*
D18*
Y3584290D3*
D20*
X1229916Y3836609D3*
D19*
Y4234247D3*
D20*
X2010853Y2604804D3*
D19*
Y3002442D3*
D20*
X3740665Y1190234D3*
D19*
Y1587871D3*
D20*
X3843238Y1589963D3*
D19*
Y1192325D3*
D21*
X738701Y890322D3*
D22*
X638701D3*
D23*
X912992Y3775306D3*
D24*
Y4011526D3*
X720079Y3893416D3*
D25*
X563803Y3218874D3*
D26*
X633882Y3008835D3*
Y3428913D3*
D25*
X4157538Y3218846D3*
D26*
X4087459Y3428886D3*
Y3008807D3*
D27*
X4087614Y2237656D3*
Y2556396D3*
D28*
X4275094Y2343916D3*
D29*
X3918874Y2343877D3*
D30*
X838266Y1571146D3*
D31*
X538266D3*
D103*
X1655785Y1881475D3*
D32*
X1605785Y1931475D3*
X1655785Y1981475D3*
D33*
X1813667Y1529255D3*
D34*
X1763667Y1479255D3*
X1813667Y1429255D3*
D103*
X1821829Y1040248D3*
D32*
X1771829Y1090248D3*
X1821829Y1140248D3*
D103*
X2856130Y824530D3*
D32*
X2806130Y874530D3*
X2856130Y924530D3*
D30*
X995707Y3372130D3*
D31*
Y3072130D3*
D30*
X1851420Y2500432D3*
D31*
Y2200432D3*
D30*
X2010147D3*
D31*
Y2500432D3*
D30*
Y1781475D3*
D31*
Y2081475D3*
D30*
X1851420Y1781475D3*
D31*
Y2081475D3*
D30*
X1304499D3*
D31*
Y1781475D3*
D30*
X1467146D3*
D31*
Y2081475D3*
D30*
X2010147Y1329255D3*
D31*
Y1629255D3*
D30*
Y1236449D3*
D31*
Y936449D3*
D30*
X1333554Y512765D3*
D31*
X1633554D3*
D30*
Y664438D3*
D31*
X1333554D3*
D30*
X2657698Y3631071D3*
D31*
X2357698D3*
D30*
X2269919Y3633193D3*
D31*
X1969919D3*
D30*
X3522584Y1239942D3*
D31*
Y1539942D3*
D30*
X3892720Y460945D3*
D31*
X3592720D3*
D30*
X548665Y662866D3*
D31*
X848665D3*
D30*
X1812350Y4264005D3*
D31*
Y3964005D3*
D30*
X1931324Y3963319D3*
D31*
Y4263319D3*
D30*
X3632310Y1540004D3*
D31*
Y1240004D3*
D30*
X3487609Y1688835D3*
D31*
X3787609D3*
D30*
X3489490Y1802070D3*
D31*
X3789490D3*
D30*
X2978033Y722726D3*
D31*
Y1022726D3*
D30*
X3094520Y721902D3*
D31*
Y1021902D3*
D30*
X3892720Y589273D3*
D31*
X3592720D3*
D30*
X3206440D3*
D31*
X3506440D3*
D30*
Y460945D3*
D31*
X3206440D3*
D35*
X3223819Y3037667D3*
Y3218927D3*
Y3400186D3*
X1493841Y3037601D3*
Y3218861D3*
Y3400121D3*
X3223701Y2212686D3*
Y2393946D3*
Y2575206D3*
X1494035Y4225188D3*
Y4043928D3*
Y3862668D3*
X4087919Y1750093D3*
Y1568833D3*
Y1387573D3*
D36*
X3860268Y1019782D3*
D37*
X3760268D3*
X3660268D3*
X3560268D3*
X3460268D3*
X3360268D3*
X3260268D3*
Y719782D3*
X3360268D3*
X3460268D3*
X3560268D3*
X3660268D3*
X3760268D3*
X3860268D3*
D20*
X2262957Y3769043D3*
D38*
X2184217Y4044634D3*
D19*
X2361382Y3769043D3*
D38*
X2538547Y4044634D3*
D19*
X2459807Y3769043D3*
D20*
X2263021Y2943976D3*
D38*
X2184281Y3219567D3*
D19*
X2361446Y2943976D3*
D38*
X2538612Y3219567D3*
D19*
X2459871Y2943976D3*
D20*
X2263100Y2118735D3*
D38*
X2184360Y2394325D3*
D19*
X2361525Y2118735D3*
D38*
X2538690Y2394325D3*
D19*
X2459950Y2118735D3*
D20*
X2263167Y1293920D3*
D38*
X2184427Y1569510D3*
D19*
X2361592Y1293920D3*
D38*
X2538757Y1569510D3*
D19*
X2460017Y1293920D3*
D20*
X2263178Y468857D3*
D38*
X2184438Y744448D3*
D19*
X2361604Y468857D3*
D38*
X2538769Y744448D3*
D19*
X2460029Y468857D3*
D20*
X3125336Y1294102D3*
D38*
X3046596Y1569693D3*
D19*
X3223761Y1294102D3*
D38*
X3400927Y1569693D3*
D19*
X3322186Y1294102D3*
M02*
