G04 DipTrace 3.1.0.1*
G04 TopSilk.gbr*
%MOIN*%
G04 #@! TF.FileFunction,Legend,Top*
G04 #@! TF.Part,Single*
%ADD10C,0.009843*%
%ADD16C,0.001312*%
%ADD102C,0.00772*%
%FSLAX26Y26*%
G04*
G70*
G90*
G75*
G01*
G04 TopSilk*
%LPD*%
X1514982Y2329763D2*
D10*
G02X1514982Y2329763I108268J0D01*
G01*
X1611448Y2467558D2*
X1635051D1*
X1623249Y2479369D2*
Y2455748D1*
X1199501Y1781869D2*
X1101076D1*
X1199501Y2081081D2*
X1101076D1*
Y1781869D2*
Y2081081D1*
X1199501Y1781869D2*
Y2081081D1*
X1360962Y1499925D2*
G02X1360962Y1499925I108268J0D01*
G01*
X1457428Y1637720D2*
X1481031D1*
X1469230Y1649530D2*
Y1625909D1*
X1333948Y767211D2*
Y865636D1*
X1633160Y767211D2*
Y865636D1*
X1333948D2*
X1633160D1*
X1333948Y767211D2*
X1633160D1*
X1472883Y1280552D2*
G02X1472883Y1280552I0J-157480D01*
G01*
X1484694Y1024647D2*
X1461072D1*
X1472883Y1012836D2*
Y1036458D1*
X2855388Y3000251D2*
X2953814D1*
X2855388Y2701038D2*
X2953814D1*
Y3000251D2*
Y2701038D1*
X2855388Y3000251D2*
Y2701038D1*
X3409845Y2838614D2*
G02X3409845Y2838614I108268J0D01*
G01*
X3506312Y2976409D2*
X3529914D1*
X3518113Y2988219D2*
Y2964598D1*
X1655791Y2802250D2*
G02X1655791Y2802250I108268J0D01*
G01*
X1775860Y2664455D2*
X1752258D1*
X1764059Y2652644D2*
Y2676266D1*
X1108919Y2952959D2*
X1207344D1*
X1108919Y2653747D2*
X1207344D1*
Y2952959D2*
Y2653747D1*
X1108919Y2952959D2*
Y2653747D1*
X3432205Y2155274D2*
X3530630D1*
X3432205Y1856062D2*
X3530630D1*
Y2155274D2*
Y1856062D1*
X3432205Y2155274D2*
Y1856062D1*
X2777892Y1990327D2*
G02X2777892Y1990327I108268J0D01*
G01*
X2874359Y2128122D2*
X2897961D1*
X2886160Y2139933D2*
Y2116312D1*
X2628231Y532236D2*
G02X2628231Y532236I108268J0D01*
G01*
X2748300Y394441D2*
X2724698D1*
X2736499Y382630D2*
Y406251D1*
X1939954Y742070D2*
X2038379D1*
X1939954Y442857D2*
X2038379D1*
Y742070D2*
Y442857D1*
X1939954Y742070D2*
Y442857D1*
X3684975Y2027657D2*
G02X3684975Y2027657I108268J0D01*
G01*
X3781442Y2165452D2*
X3805044D1*
X3793243Y2177262D2*
Y2153641D1*
X2800860Y1207965D2*
G02X2800860Y1207965I108268J0D01*
G01*
X2897326Y1345760D2*
X2920928D1*
X2909127Y1357571D2*
Y1333950D1*
X3964921Y770610D2*
Y971398D1*
X4063346Y770610D2*
Y971398D1*
Y770610D2*
X3964921D1*
X4063346Y971398D2*
X3964921D1*
X1672600Y3633503D2*
G02X1672600Y3633503I108268J0D01*
G01*
X1769066Y3771298D2*
X1792669D1*
X1780867Y3783109D2*
Y3759488D1*
X1275192Y3934934D2*
X1184640D1*
Y4135922D1*
X1275192Y3968338D2*
X1184640D1*
X1275192Y4135922D2*
X1184640D1*
X1275192Y3934934D2*
Y4135922D1*
X2056129Y2703129D2*
X1965577D1*
Y2904117D1*
X2056129Y2736534D2*
X1965577D1*
X2056129Y2904117D2*
X1965577D1*
X2056129Y2703129D2*
Y2904117D1*
X3785941Y1288558D2*
X3695390D1*
Y1489547D1*
X3785941Y1321963D2*
X3695390D1*
X3785941Y1489547D2*
X3695390D1*
X3785941Y1288558D2*
Y1489547D1*
X3797962Y1491638D2*
X3888513D1*
Y1290650D1*
X3797962Y1458234D2*
X3888513D1*
X3797962Y1290650D2*
X3888513D1*
X3797962Y1491638D2*
Y1290650D1*
X590276Y833093D2*
Y947551D1*
G02X590276Y833093I98597J-57229D01*
G01*
X806705Y3743849D2*
X735842D1*
X1090157Y4314676D2*
Y3743785D1*
X1019294D1*
X735842D2*
Y3789069D1*
Y3997755D2*
Y4314676D1*
X1090157D1*
X556315Y3008638D2*
X493126D1*
Y3041686D1*
X556315Y3429110D2*
X493126D1*
Y3396062D1*
X492817Y3045651D2*
G02X492817Y3397935I160966J176142D01*
G01*
X709819Y3008638D2*
X775035D1*
Y3041631D1*
X709819Y3429110D2*
X775035D1*
Y3396117D1*
Y3041631D2*
G03X775343Y3397935I-157600J178289D01*
G01*
X4165026Y3429082D2*
X4228216D1*
Y3396035D1*
X4165026Y3008611D2*
X4228216D1*
Y3041658D1*
X4228524Y3392069D2*
G02X4228524Y3039785I-160967J-176142D01*
G01*
X4011522Y3429082D2*
X3946307D1*
Y3396090D1*
X4011522Y3008611D2*
X3946307D1*
Y3041603D1*
Y3396090D2*
G03X3945998Y3039785I157601J-178289D01*
G01*
X588430Y1621146D2*
X788102D1*
Y1521146D2*
Y1621146D1*
X588430Y1521146D2*
X788102D1*
X588430D2*
Y1621146D1*
X1701067Y2016655D2*
G03X1701067Y1846295I-45279J-85180D01*
G01*
Y1848861D2*
Y2014089D1*
X1866809Y1554845D2*
G03X1866809Y1403664I-66583J-75590D01*
G01*
Y1554845D1*
X1867112Y1175428D2*
G03X1867112Y1005068I-45279J-85180D01*
G01*
Y1007634D2*
Y1172862D1*
X2901412Y959710D2*
G03X2901412Y789350I-45279J-85180D01*
G01*
Y791916D2*
Y957144D1*
X945707Y3122294D2*
Y3321966D1*
X1045707D2*
X945707D1*
X1045707Y3122294D2*
Y3321966D1*
Y3122294D2*
X945707D1*
X1801420Y2250596D2*
Y2450268D1*
X1901420D2*
X1801420D1*
X1901420Y2250596D2*
Y2450268D1*
Y2250596D2*
X1801420D1*
X2060147Y2450268D2*
Y2250596D1*
X1960147D2*
X2060147D1*
X1960147Y2450268D2*
Y2250596D1*
Y2450268D2*
X2060147D1*
Y2031311D2*
Y1831639D1*
X1960147D2*
X2060147D1*
X1960147Y2031311D2*
Y1831639D1*
Y2031311D2*
X2060147D1*
X1901420D2*
Y1831639D1*
X1801420D2*
X1901420D1*
X1801420Y2031311D2*
Y1831639D1*
Y2031311D2*
X1901420D1*
X1254499Y1831639D2*
Y2031311D1*
X1354499D2*
X1254499D1*
X1354499Y1831639D2*
Y2031311D1*
Y1831639D2*
X1254499D1*
X1517146Y2031311D2*
Y1831639D1*
X1417146D2*
X1517146D1*
X1417146Y2031311D2*
Y1831639D1*
Y2031311D2*
X1517146D1*
X2060147Y1579090D2*
Y1379419D1*
X1960147D2*
X2060147D1*
X1960147Y1579090D2*
Y1379419D1*
Y1579090D2*
X2060147D1*
X1960147Y986613D2*
Y1186285D1*
X2060147D2*
X1960147D1*
X2060147Y986613D2*
Y1186285D1*
Y986613D2*
X1960147D1*
X1583390Y462765D2*
X1383718D1*
Y562765D2*
Y462765D1*
X1583390Y562765D2*
X1383718D1*
X1583390D2*
Y462765D1*
X1383718Y714438D2*
X1583390D1*
Y614438D2*
Y714438D1*
X1383718Y614438D2*
X1583390D1*
X1383718D2*
Y714438D1*
X2407862Y3681071D2*
X2607534D1*
Y3581071D2*
Y3681071D1*
X2407862Y3581071D2*
X2607534D1*
X2407862D2*
Y3681071D1*
X2020083Y3683193D2*
X2219755D1*
Y3583193D2*
Y3683193D1*
X2020083Y3583193D2*
X2219755D1*
X2020083D2*
Y3683193D1*
X3572584Y1489778D2*
Y1290106D1*
X3472584D2*
X3572584D1*
X3472584Y1489778D2*
Y1290106D1*
Y1489778D2*
X3572584D1*
X3642885Y510945D2*
X3842556D1*
Y410945D2*
Y510945D1*
X3642885Y410945D2*
X3842556D1*
X3642885D2*
Y510945D1*
X798501Y612866D2*
X598829D1*
Y712866D2*
Y612866D1*
X798501Y712866D2*
X598829D1*
X798501D2*
Y612866D1*
X1762350Y4014169D2*
Y4213841D1*
X1862350D2*
X1762350D1*
X1862350Y4014169D2*
Y4213841D1*
Y4014169D2*
X1762350D1*
X1981324Y4213155D2*
Y4013483D1*
X1881324D2*
X1981324D1*
X1881324Y4213155D2*
Y4013483D1*
Y4213155D2*
X1981324D1*
X3582310Y1290168D2*
Y1489840D1*
X3682310D2*
X3582310D1*
X3682310Y1290168D2*
Y1489840D1*
Y1290168D2*
X3582310D1*
X3737445Y1638835D2*
X3537773D1*
Y1738835D2*
Y1638835D1*
X3737445Y1738835D2*
X3537773D1*
X3737445D2*
Y1638835D1*
X3739325Y1752070D2*
X3539654D1*
Y1852070D2*
Y1752070D1*
X3739325Y1852070D2*
X3539654D1*
X3739325D2*
Y1752070D1*
X3028033Y972562D2*
Y772890D1*
X2928033D2*
X3028033D1*
X2928033Y972562D2*
Y772890D1*
Y972562D2*
X3028033D1*
X3144520Y971737D2*
Y772066D1*
X3044520D2*
X3144520D1*
X3044520Y971737D2*
Y772066D1*
Y971737D2*
X3144520D1*
X3642885Y639273D2*
X3842556D1*
Y539273D2*
Y639273D1*
X3642885Y539273D2*
X3842556D1*
X3642885D2*
Y639273D1*
X3456276Y539273D2*
X3256604D1*
Y639273D2*
Y539273D1*
X3456276Y639273D2*
X3256604D1*
X3456276D2*
Y539273D1*
X3256604Y510945D2*
X3456276D1*
Y410945D2*
Y510945D1*
X3256604Y410945D2*
X3456276D1*
X3256604D2*
Y510945D1*
X3080070Y2968911D2*
X3355070D1*
Y3468943D1*
X3080070D1*
Y2968911D1*
X1350092Y2968845D2*
X1625092D1*
Y3468877D1*
X1350092D1*
Y2968845D1*
X3079951Y2143930D2*
X3354951D1*
Y2643962D1*
X3079951D1*
Y2143930D1*
X1637785Y4293944D2*
X1362785D1*
Y3793912D1*
X1637785D1*
Y4293944D1*
X4231668Y1818849D2*
X3956668D1*
Y1318817D1*
X4231668D1*
Y1818849D1*
X3946094Y767418D2*
X3174441D1*
Y972146D2*
Y767418D1*
X3946094Y972146D2*
X3174441D1*
X3946094D2*
Y893424D1*
Y767418D2*
Y846140D1*
Y893424D2*
G03X3946094Y846140I30J-23642D01*
G01*
X2174356Y3808604D2*
Y3955057D1*
X2548408Y3808604D2*
Y3953104D1*
X2174356Y3808604D2*
X2205892D1*
X2174356Y4261366D2*
X2548408D1*
Y3808604D2*
X2514919D1*
X2174356Y4261366D2*
Y4141302D1*
X2548408Y4261366D2*
Y4137344D1*
X2174420Y2983537D2*
Y3129990D1*
X2548472Y2983537D2*
Y3128037D1*
X2174420Y2983537D2*
X2205956D1*
X2174420Y3436299D2*
X2548472D1*
Y2983537D2*
X2514983D1*
X2174420Y3436299D2*
Y3316235D1*
X2548472Y3436299D2*
Y3312277D1*
X2174499Y2158296D2*
Y2304748D1*
X2548551Y2158296D2*
Y2302796D1*
X2174499Y2158296D2*
X2206035D1*
X2174499Y2611058D2*
X2548551D1*
Y2158296D2*
X2515062D1*
X2174499Y2611058D2*
Y2490993D1*
X2548551Y2611058D2*
Y2487035D1*
X2174566Y1333481D2*
Y1479933D1*
X2548618Y1333481D2*
Y1477981D1*
X2174566Y1333481D2*
X2206102D1*
X2174566Y1786243D2*
X2548618D1*
Y1333481D2*
X2515128D1*
X2174566Y1786243D2*
Y1666178D1*
X2548618Y1786243D2*
Y1662220D1*
X2174578Y508418D2*
Y654870D1*
X2548630Y508418D2*
Y652918D1*
X2174578Y508418D2*
X2206114D1*
X2174578Y961180D2*
X2548630D1*
Y508418D2*
X2515140D1*
X2174578Y961180D2*
Y841115D1*
X2548630Y961180D2*
Y837157D1*
X3036735Y1333663D2*
Y1480116D1*
X3410787Y1333663D2*
Y1478163D1*
X3036735Y1333663D2*
X3068271D1*
X3036735Y1786425D2*
X3410787D1*
Y1333663D2*
X3377298D1*
X3036735Y1786425D2*
Y1666361D1*
X3410787Y1786425D2*
Y1662403D1*
X571665Y1519488D2*
D16*
X808840D1*
Y979091D1*
X571665D1*
Y1519488D1*
X1627468Y2540654D2*
D102*
X1625091Y2545407D1*
X1620283Y2550215D1*
X1615530Y2552592D1*
X1605968D1*
X1601160Y2550215D1*
X1596406Y2545407D1*
X1593975Y2540654D1*
X1591598Y2533469D1*
Y2521475D1*
X1593975Y2514345D1*
X1596406Y2509537D1*
X1601160Y2504784D1*
X1605968Y2502352D1*
X1615530D1*
X1620283Y2504784D1*
X1625091Y2509537D1*
X1627468Y2514345D1*
X1642907Y2542975D2*
X1647716Y2545407D1*
X1654901Y2552537D1*
Y2502352D1*
X1039791Y1924944D2*
X1035038Y1922567D1*
X1030230Y1917759D1*
X1027853Y1913006D1*
Y1903444D1*
X1030230Y1898636D1*
X1035038Y1893882D1*
X1039791Y1891451D1*
X1046976Y1889074D1*
X1058970D1*
X1066100Y1891451D1*
X1070908Y1893882D1*
X1075661Y1898636D1*
X1078093Y1903444D1*
Y1913006D1*
X1075661Y1917759D1*
X1070908Y1922567D1*
X1066100Y1924944D1*
X1039847Y1942815D2*
X1037470D1*
X1032662Y1945192D1*
X1030285Y1947568D1*
X1027908Y1952377D1*
Y1961938D1*
X1030285Y1966691D1*
X1032662Y1969068D1*
X1037470Y1971500D1*
X1042223D1*
X1047032Y1969068D1*
X1054161Y1964315D1*
X1078093Y1940383D1*
Y1973876D1*
X1462698Y1710815D2*
X1460322Y1715568D1*
X1455513Y1720377D1*
X1450760Y1722753D1*
X1441198D1*
X1436390Y1720377D1*
X1431637Y1715568D1*
X1429205Y1710815D1*
X1426828Y1703630D1*
Y1691637D1*
X1429205Y1684507D1*
X1431637Y1679698D1*
X1436390Y1674945D1*
X1441198Y1672513D1*
X1450760D1*
X1455513Y1674945D1*
X1460322Y1679698D1*
X1462698Y1684507D1*
X1482946Y1722698D2*
X1509199D1*
X1494884Y1703575D1*
X1502069D1*
X1506822Y1701198D1*
X1509199Y1698822D1*
X1511631Y1691637D1*
Y1686883D1*
X1509199Y1679698D1*
X1504446Y1674890D1*
X1497261Y1672513D1*
X1490076D1*
X1482946Y1674890D1*
X1480569Y1677322D1*
X1478138Y1682075D1*
X1475834Y926921D2*
X1473458Y931675D1*
X1468649Y936483D1*
X1463896Y938860D1*
X1454334D1*
X1449526Y936483D1*
X1444773Y931675D1*
X1442341Y926921D1*
X1439964Y919736D1*
Y907743D1*
X1442341Y900613D1*
X1444773Y895805D1*
X1449526Y891051D1*
X1454334Y888620D1*
X1463896D1*
X1468649Y891051D1*
X1473458Y895805D1*
X1475834Y900613D1*
X1515205Y888620D2*
Y938804D1*
X1491273Y905366D1*
X1527143D1*
X1466352Y1341837D2*
X1463975Y1346591D1*
X1459167Y1351399D1*
X1454414Y1353776D1*
X1444852D1*
X1440044Y1351399D1*
X1435290Y1346591D1*
X1432859Y1341837D1*
X1430482Y1334652D1*
Y1322659D1*
X1432859Y1315529D1*
X1435290Y1310721D1*
X1440044Y1305967D1*
X1444852Y1303536D1*
X1454414D1*
X1459167Y1305967D1*
X1463975Y1310721D1*
X1466352Y1315529D1*
X1510476Y1353720D2*
X1486600D1*
X1484223Y1332220D1*
X1486600Y1334597D1*
X1493785Y1337029D1*
X1500914D1*
X1508099Y1334597D1*
X1512908Y1329844D1*
X1515284Y1322659D1*
Y1317906D1*
X1512908Y1310721D1*
X1508099Y1305912D1*
X1500914Y1303536D1*
X1493785D1*
X1486600Y1305912D1*
X1484223Y1308344D1*
X1481791Y1313097D1*
X2794104Y2845329D2*
X2789350Y2842952D1*
X2784542Y2838144D1*
X2782165Y2833391D1*
Y2823829D1*
X2784542Y2819021D1*
X2789350Y2814268D1*
X2794104Y2811836D1*
X2801289Y2809459D1*
X2813282D1*
X2820412Y2811836D1*
X2825220Y2814268D1*
X2829974Y2819021D1*
X2832405Y2823829D1*
Y2833391D1*
X2829974Y2838144D1*
X2825220Y2842952D1*
X2820412Y2845329D1*
X2789350Y2889453D2*
X2784597Y2887077D1*
X2782221Y2879892D1*
Y2875138D1*
X2784597Y2867953D1*
X2791782Y2863145D1*
X2803721Y2860768D1*
X2815659D1*
X2825220Y2863145D1*
X2830029Y2867953D1*
X2832405Y2875138D1*
Y2877515D1*
X2830029Y2884645D1*
X2825220Y2889453D1*
X2818035Y2891830D1*
X2815659D1*
X2808474Y2889453D1*
X2803721Y2884645D1*
X2801344Y2877515D1*
Y2875138D1*
X2803721Y2867953D1*
X2808474Y2863145D1*
X2815659Y2860768D1*
X3511582Y3049504D2*
X3509205Y3054257D1*
X3504396Y3059066D1*
X3499643Y3061442D1*
X3490082D1*
X3485273Y3059066D1*
X3480520Y3054257D1*
X3478088Y3049504D1*
X3475712Y3042319D1*
Y3030325D1*
X3478088Y3023196D1*
X3480520Y3018387D1*
X3485273Y3013634D1*
X3490082Y3011202D1*
X3499643D1*
X3504396Y3013634D1*
X3509205Y3018387D1*
X3511582Y3023196D1*
X3536582Y3011202D2*
X3560514Y3061387D1*
X3527021D1*
X1757555Y2971803D2*
X1755179Y2976556D1*
X1750370Y2981365D1*
X1745617Y2983741D1*
X1736056D1*
X1731247Y2981365D1*
X1726494Y2976556D1*
X1724062Y2971803D1*
X1721685Y2964618D1*
Y2952625D1*
X1724062Y2945495D1*
X1726494Y2940686D1*
X1731247Y2935933D1*
X1736056Y2933501D1*
X1745617D1*
X1750370Y2935933D1*
X1755179Y2940686D1*
X1757555Y2945495D1*
X1784933Y2983686D2*
X1777803Y2981310D1*
X1775371Y2976556D1*
Y2971748D1*
X1777803Y2966995D1*
X1782556Y2964563D1*
X1792118Y2962186D1*
X1799303Y2959810D1*
X1804056Y2955001D1*
X1806433Y2950248D1*
Y2943063D1*
X1804056Y2938310D1*
X1801679Y2935878D1*
X1794494Y2933501D1*
X1784933D1*
X1777803Y2935878D1*
X1775371Y2938310D1*
X1772995Y2943063D1*
Y2950248D1*
X1775371Y2955001D1*
X1780180Y2959810D1*
X1787309Y2962186D1*
X1796871Y2964563D1*
X1801679Y2966995D1*
X1804056Y2971748D1*
Y2976556D1*
X1801679Y2981310D1*
X1794494Y2983686D1*
X1784933D1*
X1047634Y2798010D2*
X1042881Y2795633D1*
X1038072Y2790825D1*
X1035696Y2786072D1*
Y2776510D1*
X1038072Y2771702D1*
X1042881Y2766949D1*
X1047634Y2764517D1*
X1054819Y2762140D1*
X1066812D1*
X1073942Y2764517D1*
X1078751Y2766949D1*
X1083504Y2771702D1*
X1085936Y2776510D1*
Y2786072D1*
X1083504Y2790825D1*
X1078751Y2795633D1*
X1073942Y2798010D1*
X1052442Y2844566D2*
X1059627Y2842134D1*
X1064436Y2837381D1*
X1066812Y2830196D1*
Y2827819D1*
X1064436Y2820634D1*
X1059627Y2815881D1*
X1052442Y2813449D1*
X1050066D1*
X1042881Y2815881D1*
X1038127Y2820634D1*
X1035751Y2827819D1*
Y2830196D1*
X1038127Y2837381D1*
X1042881Y2842134D1*
X1052442Y2844566D1*
X1064436D1*
X1076374Y2842134D1*
X1083559Y2837381D1*
X1085936Y2830196D1*
Y2825443D1*
X1083559Y2818258D1*
X1078751Y2815881D1*
X3370920Y1985420D2*
X3366167Y1983044D1*
X3361358Y1978235D1*
X3358982Y1973482D1*
Y1963921D1*
X3361358Y1959112D1*
X3366167Y1954359D1*
X3370920Y1951927D1*
X3378105Y1949550D1*
X3390098D1*
X3397228Y1951927D1*
X3402037Y1954359D1*
X3406790Y1959112D1*
X3409222Y1963921D1*
Y1973482D1*
X3406790Y1978235D1*
X3402037Y1983044D1*
X3397228Y1985420D1*
X3368599Y2000860D2*
X3366167Y2005668D1*
X3359037Y2012853D1*
X3409222D1*
X3359037Y2042662D2*
X3361414Y2035477D1*
X3368599Y2030669D1*
X3380537Y2028292D1*
X3387722D1*
X3399660Y2030669D1*
X3406845Y2035477D1*
X3409222Y2042662D1*
Y2047416D1*
X3406845Y2054601D1*
X3399660Y2059354D1*
X3387722Y2061786D1*
X3380537D1*
X3368599Y2059354D1*
X3361414Y2054601D1*
X3359037Y2047416D1*
Y2042662D1*
X3368599Y2059354D2*
X3399660Y2030669D1*
X2876662Y2201218D2*
X2874286Y2205971D1*
X2869477Y2210780D1*
X2864724Y2213156D1*
X2855162D1*
X2850354Y2210780D1*
X2845601Y2205971D1*
X2843169Y2201218D1*
X2840792Y2194033D1*
Y2182039D1*
X2843169Y2174910D1*
X2845601Y2170101D1*
X2850354Y2165348D1*
X2855162Y2162916D1*
X2864724D1*
X2869477Y2165348D1*
X2874286Y2170101D1*
X2876662Y2174910D1*
X2892102Y2203539D2*
X2896910Y2205971D1*
X2904095Y2213101D1*
Y2162916D1*
X2919534Y2203539D2*
X2924343Y2205971D1*
X2931528Y2213101D1*
Y2162916D1*
X2716251Y701789D2*
X2713874Y706542D1*
X2709066Y711350D1*
X2704313Y713727D1*
X2694751D1*
X2689943Y711350D1*
X2685190Y706542D1*
X2682758Y701789D1*
X2680381Y694604D1*
Y682610D1*
X2682758Y675480D1*
X2685190Y670672D1*
X2689943Y665919D1*
X2694751Y663487D1*
X2704313D1*
X2709066Y665919D1*
X2713874Y670672D1*
X2716251Y675480D1*
X2731690Y704110D2*
X2736499Y706542D1*
X2743684Y713672D1*
Y663487D1*
X2761555Y701734D2*
Y704110D1*
X2763931Y708919D1*
X2766308Y711295D1*
X2771116Y713672D1*
X2780678D1*
X2785431Y711295D1*
X2787808Y708919D1*
X2790240Y704110D1*
Y699357D1*
X2787808Y694548D1*
X2783055Y687419D1*
X2759123Y663487D1*
X2792616D1*
X1878669Y572216D2*
X1873916Y569839D1*
X1869108Y565031D1*
X1866731Y560277D1*
Y550716D1*
X1869108Y545907D1*
X1873916Y541154D1*
X1878669Y538722D1*
X1885854Y536346D1*
X1897848D1*
X1904978Y538722D1*
X1909786Y541154D1*
X1914539Y545907D1*
X1916971Y550716D1*
Y560277D1*
X1914539Y565031D1*
X1909786Y569839D1*
X1904978Y572216D1*
X1876348Y587655D2*
X1873916Y592463D1*
X1866786Y599648D1*
X1916971D1*
X1866786Y619896D2*
Y646149D1*
X1885910Y631834D1*
Y639019D1*
X1888286Y643772D1*
X1890663Y646149D1*
X1897848Y648581D1*
X1902601D1*
X1909786Y646149D1*
X1914594Y641396D1*
X1916971Y634211D1*
Y627026D1*
X1914594Y619896D1*
X1912163Y617519D1*
X1907409Y615088D1*
X3782557Y2238547D2*
X3780180Y2243301D1*
X3775372Y2248109D1*
X3770618Y2250486D1*
X3761057D1*
X3756248Y2248109D1*
X3751495Y2243301D1*
X3749063Y2238547D1*
X3746687Y2231362D1*
Y2219369D1*
X3749063Y2212239D1*
X3751495Y2207431D1*
X3756248Y2202677D1*
X3761057Y2200246D1*
X3770618D1*
X3775372Y2202677D1*
X3780180Y2207431D1*
X3782557Y2212239D1*
X3797996Y2240869D2*
X3802804Y2243301D1*
X3809989Y2250430D1*
Y2200246D1*
X3837422Y2250430D2*
X3825429Y2236060D1*
X3839799Y2248054D1*
X3837422Y2250430D1*
X2887691Y1418856D2*
X2885315Y1423609D1*
X2880506Y1428417D1*
X2875753Y1430794D1*
X2866191D1*
X2861383Y1428417D1*
X2856630Y1423609D1*
X2854198Y1418856D1*
X2851821Y1411671D1*
Y1399677D1*
X2854198Y1392547D1*
X2856630Y1387739D1*
X2861383Y1382986D1*
X2866191Y1380554D1*
X2875753D1*
X2880506Y1382986D1*
X2885315Y1387739D1*
X2887691Y1392547D1*
X2905562Y1418800D2*
Y1421177D1*
X2907939Y1425985D1*
X2910316Y1428362D1*
X2915124Y1430739D1*
X2924686D1*
X2929439Y1428362D1*
X2931815Y1425985D1*
X2934247Y1421177D1*
Y1416424D1*
X2931815Y1411615D1*
X2927062Y1404486D1*
X2903131Y1380554D1*
X2936624D1*
X2964057Y1430739D2*
X2952063Y1416369D1*
X2966433Y1428362D1*
X2964057Y1430739D1*
X4092243Y849568D2*
X4087490Y847191D1*
X4082682Y842383D1*
X4080305Y837630D1*
Y828068D1*
X4082682Y823260D1*
X4087490Y818507D1*
X4092243Y816075D1*
X4099428Y813698D1*
X4111422D1*
X4118552Y816075D1*
X4123360Y818507D1*
X4128113Y823260D1*
X4130545Y828068D1*
Y837630D1*
X4128113Y842383D1*
X4123360Y847191D1*
X4118552Y849568D1*
X4080360Y869816D2*
Y896069D1*
X4099484Y881754D1*
Y888939D1*
X4101860Y893692D1*
X4104237Y896069D1*
X4111422Y898501D1*
X4116175D1*
X4123360Y896069D1*
X4128169Y891315D1*
X4130545Y884130D1*
Y876945D1*
X4128169Y869816D1*
X4125737Y867439D1*
X4120984Y865007D1*
X4080360Y925933D2*
X4094731Y913940D1*
X4082737Y928310D1*
X4080360Y925933D1*
X1758243Y3844394D2*
X1755867Y3849147D1*
X1751058Y3853955D1*
X1746305Y3856332D1*
X1736743D1*
X1731935Y3853955D1*
X1727182Y3849147D1*
X1724750Y3844394D1*
X1722373Y3837209D1*
Y3825215D1*
X1724750Y3818085D1*
X1727182Y3813277D1*
X1731935Y3808524D1*
X1736743Y3806092D1*
X1746305D1*
X1751058Y3808524D1*
X1755867Y3813277D1*
X1758243Y3818085D1*
X1797614Y3806092D2*
Y3856277D1*
X1773682Y3822839D1*
X1809552D1*
X1836985Y3856277D2*
X1824992Y3841907D1*
X1839362Y3853900D1*
X1836985Y3856277D1*
X1111417Y4004965D2*
X1161657D1*
Y4021712D1*
X1159226Y4028897D1*
X1154472Y4033705D1*
X1149664Y4036082D1*
X1142534Y4038458D1*
X1130541D1*
X1123356Y4036082D1*
X1118602Y4033705D1*
X1113794Y4028897D1*
X1111417Y4021712D1*
Y4004965D1*
X1121034Y4053897D2*
X1118602Y4058706D1*
X1111473Y4065891D1*
X1161657D1*
X1892354Y2762411D2*
X1942594D1*
Y2779157D1*
X1940163Y2786342D1*
X1935409Y2791151D1*
X1930601Y2793527D1*
X1923471Y2795904D1*
X1911478D1*
X1904293Y2793527D1*
X1899539Y2791151D1*
X1894731Y2786342D1*
X1892354Y2779157D1*
Y2762411D1*
X1904348Y2813775D2*
X1901971D1*
X1897163Y2816152D1*
X1894786Y2818528D1*
X1892410Y2823337D1*
Y2832898D1*
X1894786Y2837651D1*
X1897163Y2840028D1*
X1901971Y2842460D1*
X1906724D1*
X1911533Y2840028D1*
X1918663Y2835275D1*
X1942594Y2811343D1*
Y2844836D1*
X3712533Y1343685D2*
X3762773D1*
Y1360432D1*
X3760341Y1367617D1*
X3755588Y1372425D1*
X3750780Y1374802D1*
X3743650Y1377178D1*
X3731656D1*
X3724471Y1374802D1*
X3719718Y1372425D1*
X3714910Y1367617D1*
X3712533Y1360432D1*
Y1343685D1*
X3722150Y1392617D2*
X3719718Y1397426D1*
X3712588Y1404611D1*
X3762773D1*
X3712588Y1432044D2*
X3726959Y1420050D1*
X3714965Y1434420D1*
X3712588Y1432044D1*
X3815105Y1335027D2*
X3865345D1*
Y1351773D1*
X3862914Y1358959D1*
X3858160Y1363767D1*
X3853352Y1366144D1*
X3846222Y1368520D1*
X3834229D1*
X3827044Y1366144D1*
X3822290Y1363767D1*
X3817482Y1358959D1*
X3815105Y1351774D1*
Y1335027D1*
X3827099Y1386391D2*
X3824722D1*
X3819914Y1388768D1*
X3817537Y1391144D1*
X3815161Y1395953D1*
Y1405515D1*
X3817537Y1410268D1*
X3819914Y1412644D1*
X3824722Y1415076D1*
X3829475D1*
X3834284Y1412644D1*
X3841414Y1407891D1*
X3865345Y1383959D1*
Y1417453D1*
X3815161Y1444885D2*
X3829531Y1432892D1*
X3817537Y1447262D1*
X3815161Y1444885D1*
X640457Y1077546D2*
Y1027306D1*
X657204D1*
X664389Y1029738D1*
X669197Y1034492D1*
X671574Y1039300D1*
X673951Y1046430D1*
Y1058423D1*
X671574Y1065608D1*
X669197Y1070361D1*
X664389Y1075170D1*
X657204Y1077546D1*
X640457D1*
X694198Y1077491D2*
X720451D1*
X706136Y1058368D1*
X713321D1*
X718075Y1055991D1*
X720451Y1053615D1*
X722883Y1046430D1*
Y1041677D1*
X720451Y1034492D1*
X715698Y1029683D1*
X708513Y1027306D1*
X701328D1*
X694198Y1029683D1*
X691822Y1032115D1*
X689390Y1036868D1*
X750316Y1077491D2*
X738322Y1063121D1*
X752692Y1075115D1*
X750316Y1077491D1*
X859076Y3659922D2*
Y3621675D1*
X856700Y3614490D1*
X854268Y3612114D1*
X849515Y3609682D1*
X844706D1*
X839953Y3612114D1*
X837576Y3614490D1*
X835145Y3621675D1*
Y3626429D1*
X874516Y3650305D2*
X879324Y3652737D1*
X886509Y3659867D1*
Y3609682D1*
X622782Y3567491D2*
Y3529244D1*
X620405Y3522059D1*
X617973Y3519683D1*
X613220Y3517251D1*
X608412D1*
X603659Y3519683D1*
X601282Y3522059D1*
X598850Y3529244D1*
Y3533997D1*
X640653Y3555497D2*
Y3557874D1*
X643030Y3562682D1*
X645406Y3565059D1*
X650215Y3567436D1*
X659776D1*
X664529Y3565059D1*
X666906Y3562682D1*
X669338Y3557874D1*
Y3553121D1*
X666906Y3548312D1*
X662153Y3541182D1*
X638221Y3517251D1*
X671714D1*
X4073558Y3567463D2*
Y3529217D1*
X4071182Y3522032D1*
X4068750Y3519655D1*
X4063997Y3517223D1*
X4059188D1*
X4054435Y3519655D1*
X4052059Y3522032D1*
X4049627Y3529217D1*
Y3533970D1*
X4093806Y3567408D2*
X4120059D1*
X4105744Y3548285D1*
X4112929D1*
X4117683Y3545908D1*
X4120059Y3543532D1*
X4122491Y3536346D1*
Y3531593D1*
X4120059Y3524408D1*
X4115306Y3519600D1*
X4108121Y3517223D1*
X4100936D1*
X4093806Y3519600D1*
X4091430Y3522032D1*
X4088998Y3526785D1*
X4072455Y2688675D2*
Y2650428D1*
X4070078Y2643243D1*
X4067647Y2640866D1*
X4062893Y2638435D1*
X4058085D1*
X4053332Y2640866D1*
X4050955Y2643243D1*
X4048523Y2650428D1*
Y2655181D1*
X4087894Y2679058D2*
X4092703Y2681489D1*
X4099888Y2688619D1*
Y2638435D1*
X4127321Y2688619D2*
X4115327Y2674249D1*
X4129697Y2686243D1*
X4127321Y2688619D1*
X624991Y1694369D2*
Y1644129D1*
X653676D1*
X669116Y1694369D2*
Y1644129D1*
X685862D1*
X693047Y1646561D1*
X697856Y1651314D1*
X700232Y1656122D1*
X702609Y1663252D1*
Y1675245D1*
X700232Y1682431D1*
X697856Y1687184D1*
X693047Y1691992D1*
X685862Y1694369D1*
X669116D1*
X718048Y1670437D2*
X739548D1*
X746733Y1672869D1*
X749165Y1675245D1*
X751541Y1679999D1*
Y1684807D1*
X749165Y1689560D1*
X746733Y1691992D1*
X739548Y1694369D1*
X718048D1*
Y1644129D1*
X734795Y1670437D2*
X751541Y1644129D1*
X1611697Y2101165D2*
X1606944Y2098843D1*
X1602135Y2094035D1*
X1599759Y2089226D1*
X1597327Y2082041D1*
Y2070103D1*
X1599759Y2062918D1*
X1602135Y2058165D1*
X1606944Y2053357D1*
X1611697Y2050980D1*
X1621259D1*
X1626067Y2053357D1*
X1630820Y2058165D1*
X1633197Y2062918D1*
X1635629Y2070103D1*
Y2082041D1*
X1633197Y2089226D1*
X1630820Y2094035D1*
X1626067Y2098843D1*
X1621259Y2101165D1*
X1611697D1*
X1618882Y2060542D2*
X1633197Y2046172D1*
X1651068Y2091548D2*
X1655876Y2093980D1*
X1663061Y2101109D1*
Y2050925D1*
X1753904Y1653211D2*
X1749151Y1650890D1*
X1744342Y1646081D1*
X1741966Y1641273D1*
X1739534Y1634088D1*
Y1622150D1*
X1741966Y1614965D1*
X1744342Y1610211D1*
X1749151Y1605403D1*
X1753904Y1603026D1*
X1763465D1*
X1768274Y1605403D1*
X1773027Y1610211D1*
X1775404Y1614965D1*
X1777836Y1622150D1*
Y1634088D1*
X1775404Y1641273D1*
X1773027Y1646081D1*
X1768274Y1650890D1*
X1763465Y1653211D1*
X1753904D1*
X1761089Y1612588D2*
X1775404Y1598218D1*
X1795707Y1641218D2*
Y1643594D1*
X1798083Y1648403D1*
X1800460Y1650779D1*
X1805268Y1653156D1*
X1814830D1*
X1819583Y1650779D1*
X1821960Y1648403D1*
X1824392Y1643594D1*
Y1638841D1*
X1821960Y1634032D1*
X1817206Y1626903D1*
X1793275Y1602971D1*
X1826768D1*
X1766992Y1259938D2*
X1762239Y1257616D1*
X1757430Y1252808D1*
X1755054Y1247999D1*
X1752622Y1240814D1*
Y1228876D1*
X1755054Y1221691D1*
X1757430Y1216938D1*
X1762239Y1212130D1*
X1766992Y1209753D1*
X1776553D1*
X1781362Y1212130D1*
X1786115Y1216938D1*
X1788492Y1221691D1*
X1790923Y1228876D1*
Y1240814D1*
X1788492Y1247999D1*
X1786115Y1252808D1*
X1781362Y1257616D1*
X1776553Y1259938D1*
X1766992D1*
X1774177Y1219315D2*
X1788492Y1204944D1*
X1811171Y1259882D2*
X1837424D1*
X1823109Y1240759D1*
X1830294D1*
X1835048Y1238383D1*
X1837424Y1236006D1*
X1839856Y1228821D1*
Y1224068D1*
X1837424Y1216883D1*
X1832671Y1212074D1*
X1825486Y1209698D1*
X1818301D1*
X1811171Y1212074D1*
X1808795Y1214506D1*
X1806363Y1219259D1*
X2797138Y1044220D2*
X2792384Y1041899D1*
X2787576Y1037090D1*
X2785199Y1032282D1*
X2782767Y1025097D1*
Y1013158D1*
X2785199Y1005973D1*
X2787576Y1001220D1*
X2792384Y996412D1*
X2797138Y994035D1*
X2806699D1*
X2811508Y996412D1*
X2816261Y1001220D1*
X2818637Y1005973D1*
X2821069Y1013158D1*
Y1025097D1*
X2818637Y1032282D1*
X2816261Y1037090D1*
X2811508Y1041899D1*
X2806699Y1044220D1*
X2797138D1*
X2804323Y1003597D2*
X2818637Y989227D1*
X2836508Y1034603D2*
X2841317Y1037035D1*
X2848502Y1044165D1*
Y993980D1*
X2875935Y1044165D2*
X2863941Y1029794D1*
X2878311Y1041788D1*
X2875935Y1044165D1*
X991507Y3191667D2*
Y3213167D1*
X989075Y3220352D1*
X986698Y3222784D1*
X981945Y3225160D1*
X977137D1*
X972384Y3222784D1*
X969952Y3220352D1*
X967575Y3213167D1*
Y3191667D1*
X1017815D1*
X991507Y3208414D2*
X1017815Y3225160D1*
X977192Y3240600D2*
X974760Y3245408D1*
X967630Y3252593D1*
X1017815D1*
X1847219Y2309219D2*
X1847220Y2330719D1*
X1844788Y2337904D1*
X1842411Y2340336D1*
X1837658Y2342712D1*
X1832849D1*
X1828096Y2340336D1*
X1825664Y2337904D1*
X1823288Y2330719D1*
Y2309219D1*
X1873528D1*
X1847220Y2325966D2*
X1873528Y2342712D1*
X1835281Y2360583D2*
X1832905D1*
X1828096Y2362960D1*
X1825720Y2365336D1*
X1823343Y2370145D1*
Y2379707D1*
X1825720Y2384460D1*
X1828096Y2386836D1*
X1832905Y2389268D1*
X1837658D1*
X1842466Y2386836D1*
X1849596Y2382083D1*
X1873528Y2358151D1*
Y2391645D1*
X2005946Y2309219D2*
X2005947Y2330719D1*
X2003515Y2337904D1*
X2001138Y2340336D1*
X1996385Y2342712D1*
X1991576D1*
X1986823Y2340336D1*
X1984391Y2337904D1*
X1982015Y2330719D1*
Y2309219D1*
X2032255D1*
X2005947Y2325966D2*
X2032255Y2342712D1*
X1982070Y2362960D2*
Y2389213D1*
X2001193Y2374898D1*
Y2382083D1*
X2003570Y2386836D1*
X2005947Y2389213D1*
X2013132Y2391645D1*
X2017885D1*
X2025070Y2389213D1*
X2029878Y2384460D1*
X2032255Y2377275D1*
Y2370090D1*
X2029878Y2362960D1*
X2027446Y2360583D1*
X2022693Y2358151D1*
X2005946Y1889074D2*
X2005947Y1910574D1*
X2003515Y1917759D1*
X2001138Y1920191D1*
X1996385Y1922567D1*
X1991576D1*
X1986823Y1920191D1*
X1984391Y1917759D1*
X1982015Y1910574D1*
Y1889074D1*
X2032255D1*
X2005947Y1905821D2*
X2032255Y1922567D1*
Y1961938D2*
X1982070D1*
X2015508Y1938006D1*
Y1973876D1*
X1847219Y1890262D2*
X1847220Y1911762D1*
X1844788Y1918947D1*
X1842411Y1921379D1*
X1837658Y1923756D1*
X1832849D1*
X1828096Y1921379D1*
X1825664Y1918947D1*
X1823288Y1911762D1*
Y1890262D1*
X1873528D1*
X1847220Y1907009D2*
X1873528Y1923755D1*
X1823343Y1967880D2*
Y1944003D1*
X1844843Y1941627D1*
X1842466Y1944003D1*
X1840034Y1951188D1*
Y1958318D1*
X1842466Y1965503D1*
X1847220Y1970311D1*
X1854405Y1972688D1*
X1859158D1*
X1866343Y1970311D1*
X1871151Y1965503D1*
X1873528Y1958318D1*
Y1951188D1*
X1871151Y1944003D1*
X1868719Y1941627D1*
X1863966Y1939195D1*
X1300298Y1891478D2*
Y1912978D1*
X1297866Y1920163D1*
X1295490Y1922595D1*
X1290737Y1924971D1*
X1285928D1*
X1281175Y1922595D1*
X1278743Y1920163D1*
X1276367Y1912978D1*
X1276366Y1891478D1*
X1326607D1*
X1300298Y1908225D2*
X1326607Y1924971D1*
X1283552Y1969096D2*
X1278798Y1966719D1*
X1276422Y1959534D1*
Y1954781D1*
X1278798Y1947596D1*
X1285983Y1942787D1*
X1297922Y1940411D1*
X1309860D1*
X1319422Y1942787D1*
X1324230Y1947596D1*
X1326607Y1954781D1*
Y1957157D1*
X1324230Y1964287D1*
X1319422Y1969096D1*
X1312236Y1971472D1*
X1309860D1*
X1302675Y1969096D1*
X1297922Y1964287D1*
X1295545Y1957157D1*
Y1954781D1*
X1297922Y1947596D1*
X1302675Y1942787D1*
X1309860Y1940411D1*
X1462945Y1890262D2*
Y1911762D1*
X1460513Y1918947D1*
X1458137Y1921379D1*
X1453384Y1923756D1*
X1448575D1*
X1443822Y1921379D1*
X1441390Y1918947D1*
X1439014Y1911762D1*
X1439013Y1890262D1*
X1489253D1*
X1462945Y1907009D2*
X1489254Y1923755D1*
Y1948756D2*
X1439069Y1972688D1*
Y1939195D1*
X2005946Y1438069D2*
X2005947Y1459569D1*
X2003515Y1466754D1*
X2001138Y1469186D1*
X1996385Y1471563D1*
X1991576D1*
X1986823Y1469186D1*
X1984391Y1466754D1*
X1982015Y1459569D1*
Y1438069D1*
X2032255D1*
X2005947Y1454816D2*
X2032255Y1471563D1*
X1982070Y1498940D2*
X1984447Y1491810D1*
X1989200Y1489379D1*
X1994008D1*
X1998762Y1491810D1*
X2001193Y1496564D1*
X2003570Y1506125D1*
X2005947Y1513310D1*
X2010755Y1518063D1*
X2015508Y1520440D1*
X2022693D1*
X2027446Y1518063D1*
X2029878Y1515687D1*
X2032255Y1508502D1*
Y1498940D1*
X2029878Y1491810D1*
X2027446Y1489378D1*
X2022693Y1487002D1*
X2015508D1*
X2010755Y1489378D1*
X2005947Y1494187D1*
X2003570Y1501317D1*
X2001193Y1510878D1*
X1998762Y1515687D1*
X1994008Y1518063D1*
X1989200D1*
X1984447Y1515687D1*
X1982070Y1508502D1*
Y1498940D1*
X2005946Y1046424D2*
X2005947Y1067924D1*
X2003515Y1075109D1*
X2001138Y1077541D1*
X1996385Y1079918D1*
X1991576D1*
X1986823Y1077541D1*
X1984391Y1075109D1*
X1982015Y1067924D1*
Y1046424D1*
X2032255D1*
X2005947Y1063171D2*
X2032255Y1079918D1*
X1998762Y1126474D2*
X2005947Y1124042D1*
X2010755Y1119288D1*
X2013132Y1112103D1*
Y1109727D1*
X2010755Y1102542D1*
X2005947Y1097789D1*
X1998762Y1095357D1*
X1996385D1*
X1989200Y1097789D1*
X1984447Y1102542D1*
X1982070Y1109727D1*
Y1112103D1*
X1984447Y1119289D1*
X1989200Y1124042D1*
X1998762Y1126474D1*
X2010755D1*
X2022693Y1124042D1*
X2029878Y1119288D1*
X2032255Y1112103D1*
Y1107350D1*
X2029878Y1100165D1*
X2025070Y1097789D1*
X1428624Y516966D2*
X1450124D1*
X1457309Y519397D1*
X1459741Y521774D1*
X1462118Y526527D1*
Y531336D1*
X1459741Y536089D1*
X1457309Y538521D1*
X1450124Y540897D1*
X1428624D1*
Y490657D1*
X1445371Y516966D2*
X1462118Y490657D1*
X1477557Y531280D2*
X1482366Y533712D1*
X1489551Y540842D1*
Y490657D1*
X1519360Y540842D2*
X1512175Y538465D1*
X1507366Y531280D1*
X1504990Y519342D1*
Y512157D1*
X1507366Y500219D1*
X1512175Y493034D1*
X1519360Y490657D1*
X1524113D1*
X1531298Y493034D1*
X1536051Y500219D1*
X1538483Y512157D1*
Y519342D1*
X1536051Y531280D1*
X1531298Y538465D1*
X1524113Y540842D1*
X1519360D1*
X1536051Y531280D2*
X1507366Y500219D1*
X1439374Y668639D2*
X1460874D1*
X1468059Y671071D1*
X1470491Y673447D1*
X1472868Y678200D1*
Y683009D1*
X1470491Y687762D1*
X1468059Y690194D1*
X1460874Y692571D1*
X1439374D1*
Y642331D1*
X1456121Y668639D2*
X1472868Y642331D1*
X1488307Y682954D2*
X1493115Y685385D1*
X1500300Y692515D1*
Y642331D1*
X1515740Y682954D2*
X1520548Y685385D1*
X1527733Y692515D1*
Y642331D1*
X2452769Y3635271D2*
X2474269D1*
X2481454Y3637703D1*
X2483886Y3640080D1*
X2486262Y3644833D1*
Y3649641D1*
X2483886Y3654395D1*
X2481454Y3656826D1*
X2474269Y3659203D1*
X2452769D1*
Y3608963D1*
X2469516Y3635271D2*
X2486262Y3608963D1*
X2501701Y3649586D2*
X2506510Y3652018D1*
X2513695Y3659148D1*
Y3608963D1*
X2531566Y3647210D2*
Y3649586D1*
X2533943Y3654395D1*
X2536319Y3656771D1*
X2541128Y3659148D1*
X2550689D1*
X2555442Y3656771D1*
X2557819Y3654395D1*
X2560251Y3649586D1*
Y3644833D1*
X2557819Y3640025D1*
X2553066Y3632895D1*
X2529134Y3608963D1*
X2562627D1*
X2064989Y3637393D2*
X2086489D1*
X2093674Y3639825D1*
X2096106Y3642202D1*
X2098483Y3646955D1*
Y3651763D1*
X2096106Y3656517D1*
X2093674Y3658949D1*
X2086489Y3661325D1*
X2064989D1*
Y3611085D1*
X2081736Y3637393D2*
X2098483Y3611085D1*
X2113922Y3651708D2*
X2118730Y3654140D1*
X2125915Y3661270D1*
Y3611085D1*
X2146163Y3661270D2*
X2172416D1*
X2158101Y3642147D1*
X2165286D1*
X2170040Y3639770D1*
X2172416Y3637393D1*
X2174848Y3630208D1*
Y3625455D1*
X2172416Y3618270D1*
X2167663Y3613462D1*
X2160478Y3611085D1*
X2153293D1*
X2146163Y3613462D1*
X2143786Y3615894D1*
X2141355Y3620647D1*
X3518384Y1344575D2*
Y1366075D1*
X3515952Y1373260D1*
X3513575Y1375691D1*
X3508822Y1378068D1*
X3504013D1*
X3499260Y1375691D1*
X3496828Y1373260D1*
X3494452Y1366075D1*
Y1344575D1*
X3544692D1*
X3518384Y1361321D2*
X3544692Y1378068D1*
X3504069Y1393507D2*
X3501637Y1398316D1*
X3494507Y1405501D1*
X3544692D1*
X3494507Y1432933D2*
X3508877Y1420940D1*
X3496884Y1435310D1*
X3494507Y1432933D1*
X3672886Y465145D2*
X3694386D1*
X3701571Y467577D1*
X3704003Y469954D1*
X3706380Y474707D1*
Y479515D1*
X3704003Y484269D1*
X3701571Y486700D1*
X3694386Y489077D1*
X3672886D1*
Y438837D1*
X3689633Y465145D2*
X3706380Y438837D1*
X3721819Y479460D2*
X3726628Y481892D1*
X3733813Y489022D1*
Y438837D1*
X3763622Y489022D2*
X3756437Y486645D1*
X3751628Y479460D1*
X3749252Y467522D1*
Y460337D1*
X3751628Y448399D1*
X3756437Y441214D1*
X3763622Y438837D1*
X3768375D1*
X3775560Y441214D1*
X3780313Y448399D1*
X3782745Y460337D1*
Y467522D1*
X3780313Y479460D1*
X3775560Y486645D1*
X3768375Y489022D1*
X3763622D1*
X3780313Y479460D2*
X3751628Y448399D1*
X3810178Y489022D2*
X3798184Y474652D1*
X3812554Y486645D1*
X3810178Y489022D1*
X639581Y667067D2*
X661081D1*
X668266Y669498D1*
X670698Y671875D1*
X673075Y676628D1*
Y681437D1*
X670698Y686190D1*
X668266Y688622D1*
X661081Y690998D1*
X639581D1*
Y640758D1*
X656328Y667067D2*
X673075Y640758D1*
X688514Y681381D2*
X693322Y683813D1*
X700507Y690943D1*
Y640758D1*
X715947Y681381D2*
X720755Y683813D1*
X727940Y690943D1*
Y640758D1*
X755373Y690943D2*
X743379Y676573D1*
X757749Y688566D1*
X755373Y690943D1*
X1808150Y4044171D2*
Y4065671D1*
X1805718Y4072856D1*
X1803342Y4075288D1*
X1798588Y4077665D1*
X1793780D1*
X1789027Y4075288D1*
X1786595Y4072856D1*
X1784218Y4065671D1*
Y4044171D1*
X1834458D1*
X1808150Y4060918D2*
X1834458Y4077665D1*
X1793835Y4093104D2*
X1791403Y4097912D1*
X1784274Y4105097D1*
X1834458D1*
X1796212Y4122968D2*
X1793835D1*
X1789027Y4125345D1*
X1786650Y4127722D1*
X1784274Y4132530D1*
Y4142092D1*
X1786650Y4146845D1*
X1789027Y4149222D1*
X1793835Y4151653D1*
X1798588D1*
X1803397Y4149221D1*
X1810527Y4144468D1*
X1834458Y4120537D1*
Y4154030D1*
X1784274Y4181463D2*
X1798644Y4169469D1*
X1786650Y4183839D1*
X1784274Y4181463D1*
X1927124Y4043485D2*
Y4064985D1*
X1924692Y4072170D1*
X1922315Y4074602D1*
X1917562Y4076978D1*
X1912754D1*
X1908000Y4074602D1*
X1905569Y4072170D1*
X1903192Y4064985D1*
Y4043485D1*
X1953432D1*
X1927124Y4060232D2*
X1953432Y4076978D1*
X1912809Y4092418D2*
X1910377Y4097226D1*
X1903247Y4104411D1*
X1953432D1*
X1903247Y4124659D2*
Y4150912D1*
X1922371Y4136597D1*
Y4143782D1*
X1924747Y4148535D1*
X1927124Y4150912D1*
X1934309Y4153344D1*
X1939062D1*
X1946247Y4150912D1*
X1951055Y4146159D1*
X1953432Y4138973D1*
Y4131788D1*
X1951055Y4124659D1*
X1948624Y4122282D1*
X1943870Y4119850D1*
X1903247Y4180776D2*
X1917617Y4168783D1*
X1905624Y4183153D1*
X1903247Y4180776D1*
X3628109Y1333886D2*
Y1355386D1*
X3625677Y1362571D1*
X3623301Y1365003D1*
X3618548Y1367380D1*
X3613739D1*
X3608986Y1365003D1*
X3606554Y1362571D1*
X3604178Y1355386D1*
Y1333886D1*
X3654418D1*
X3628109Y1350633D2*
X3654418Y1367380D1*
X3616171Y1385251D2*
X3613794D1*
X3608986Y1387627D1*
X3606609Y1390004D1*
X3604233Y1394812D1*
Y1404374D1*
X3606609Y1409127D1*
X3608986Y1411504D1*
X3613794Y1413936D1*
X3618548D1*
X3623356Y1411504D1*
X3630486Y1406751D1*
X3654418Y1382819D1*
Y1416312D1*
X3604233Y1443745D2*
X3618603Y1431752D1*
X3606609Y1446122D1*
X3604233Y1443745D1*
X3581491Y1693035D2*
X3602991D1*
X3610176Y1695467D1*
X3612608Y1697844D1*
X3614985Y1702597D1*
Y1707405D1*
X3612608Y1712158D1*
X3610176Y1714590D1*
X3602991Y1716967D1*
X3581491D1*
Y1666727D1*
X3598238Y1693035D2*
X3614985Y1666727D1*
X3635232Y1716912D2*
X3661485D1*
X3647171Y1697788D1*
X3654356D1*
X3659109Y1695412D1*
X3661485Y1693035D1*
X3663917Y1685850D1*
Y1681097D1*
X3661485Y1673912D1*
X3656732Y1669103D1*
X3649547Y1666727D1*
X3642362D1*
X3635232Y1669103D1*
X3632856Y1671535D1*
X3630424Y1676288D1*
X3691350Y1716912D2*
X3679356Y1702541D1*
X3693727Y1714535D1*
X3691350Y1716912D1*
X3582184Y1806270D2*
X3603683D1*
X3610868Y1808702D1*
X3613300Y1811078D1*
X3615677Y1815832D1*
Y1820640D1*
X3613300Y1825393D1*
X3610868Y1827825D1*
X3603683Y1830202D1*
X3582184D1*
Y1779962D1*
X3598930Y1806270D2*
X3615677Y1779962D1*
X3655048D2*
Y1830146D1*
X3631116Y1796708D1*
X3666986D1*
X3694419Y1830146D2*
X3682425Y1815776D1*
X3696795Y1827770D1*
X3694419Y1830146D1*
X2973832Y816608D2*
Y838108D1*
X2971401Y845293D1*
X2969024Y847725D1*
X2964271Y850102D1*
X2959462D1*
X2954709Y847725D1*
X2952277Y845293D1*
X2949901Y838108D1*
Y816608D1*
X3000141D1*
X2973832Y833355D2*
X3000141Y850101D1*
X2949956Y894226D2*
Y870349D1*
X2971456Y867973D1*
X2969079Y870349D1*
X2966647Y877534D1*
Y884664D1*
X2969079Y891849D1*
X2973832Y896657D1*
X2981017Y899034D1*
X2985771D1*
X2992956Y896657D1*
X2997764Y891849D1*
X3000141Y884664D1*
Y877534D1*
X2997764Y870349D1*
X2995332Y867973D1*
X2990579Y865541D1*
X2949956Y926467D2*
X2964326Y914473D1*
X2952333Y928843D1*
X2949956Y926467D1*
X3090319Y817000D2*
Y838500D1*
X3087887Y845685D1*
X3085511Y848117D1*
X3080758Y850493D1*
X3075949D1*
X3071196Y848117D1*
X3068764Y845685D1*
X3066388Y838500D1*
X3066387Y817000D1*
X3116627D1*
X3090319Y833747D2*
X3116628Y850493D1*
X3073573Y894617D2*
X3068819Y892241D1*
X3066443Y885056D1*
Y880303D1*
X3068819Y873118D1*
X3076004Y868309D1*
X3087943Y865933D1*
X3099881D1*
X3109443Y868309D1*
X3114251Y873118D1*
X3116628Y880303D1*
Y882679D1*
X3114251Y889809D1*
X3109442Y894617D1*
X3102257Y896994D1*
X3099881D1*
X3092696Y894617D1*
X3087943Y889809D1*
X3085566Y882679D1*
Y880303D1*
X3087943Y873118D1*
X3092696Y868309D1*
X3099881Y865933D1*
X3066443Y924427D2*
X3080813Y912433D1*
X3068819Y926803D1*
X3066443Y924427D1*
X3686603Y593473D2*
X3708103D1*
X3715288Y595905D1*
X3717720Y598282D1*
X3720096Y603035D1*
Y607844D1*
X3717720Y612597D1*
X3715288Y615029D1*
X3708103Y617405D1*
X3686603D1*
Y567165D1*
X3703350Y593473D2*
X3720096Y567165D1*
X3745097D2*
X3769029Y617350D1*
X3735535D1*
X3796462D2*
X3784468Y602980D1*
X3798838Y614973D1*
X3796462Y617350D1*
X3300350Y593473D2*
X3321849D1*
X3329035Y595905D1*
X3331466Y598282D1*
X3333843Y603035D1*
Y607844D1*
X3331466Y612597D1*
X3329035Y615029D1*
X3321849Y617405D1*
X3300350D1*
Y567165D1*
X3317096Y593473D2*
X3333843Y567165D1*
X3361220Y617350D2*
X3354091Y614973D1*
X3351659Y610220D1*
Y605412D1*
X3354091Y600658D1*
X3358844Y598227D1*
X3368405Y595850D1*
X3375591Y593473D1*
X3380344Y588665D1*
X3382720Y583912D1*
Y576727D1*
X3380344Y571974D1*
X3377967Y569542D1*
X3370782Y567165D1*
X3361220D1*
X3354091Y569542D1*
X3351659Y571974D1*
X3349282Y576727D1*
Y583912D1*
X3351659Y588665D1*
X3356467Y593473D1*
X3363597Y595850D1*
X3373159Y598227D1*
X3377967Y600658D1*
X3380344Y605412D1*
Y610220D1*
X3377967Y614973D1*
X3370782Y617350D1*
X3361220D1*
X3410153D2*
X3398160Y602980D1*
X3412530Y614973D1*
X3410153Y617350D1*
X3301510Y465145D2*
X3323010D1*
X3330195Y467577D1*
X3332627Y469954D1*
X3335004Y474707D1*
Y479515D1*
X3332627Y484269D1*
X3330195Y486700D1*
X3323010Y489077D1*
X3301510D1*
Y438837D1*
X3318257Y465145D2*
X3335004Y438837D1*
X3381560Y472330D2*
X3379128Y465145D1*
X3374375Y460337D1*
X3367190Y457960D1*
X3364813D1*
X3357628Y460337D1*
X3352875Y465145D1*
X3350443Y472330D1*
Y474707D1*
X3352875Y481892D1*
X3357628Y486645D1*
X3364813Y489022D1*
X3367190D1*
X3374375Y486645D1*
X3379128Y481892D1*
X3381560Y472330D1*
Y460337D1*
X3379128Y448399D1*
X3374375Y441214D1*
X3367190Y438837D1*
X3362436D1*
X3355251Y441214D1*
X3352875Y446022D1*
X3408992Y489022D2*
X3396999Y474652D1*
X3411369Y486645D1*
X3408992Y489022D1*
X3220600Y3544965D2*
X3215847Y3549773D1*
X3208662Y3552150D1*
X3199100D1*
X3191915Y3549773D1*
X3187107Y3544965D1*
Y3540211D1*
X3189538Y3535403D1*
X3191915Y3533026D1*
X3196668Y3530650D1*
X3211038Y3525841D1*
X3215847Y3523465D1*
X3218223Y3521033D1*
X3220600Y3516280D1*
Y3509095D1*
X3215847Y3504341D1*
X3208662Y3501910D1*
X3199100D1*
X3191915Y3504341D1*
X3187107Y3509095D1*
X3236039Y3542533D2*
X3240848Y3544965D1*
X3248033Y3552094D1*
Y3501910D1*
X1479872Y3544899D2*
X1475119Y3549707D1*
X1467934Y3552084D1*
X1458372D1*
X1451187Y3549707D1*
X1446379Y3544899D1*
Y3540146D1*
X1448811Y3535337D1*
X1451187Y3532961D1*
X1455941Y3530584D1*
X1470311Y3525776D1*
X1475119Y3523399D1*
X1477496Y3520967D1*
X1479872Y3516214D1*
Y3509029D1*
X1475119Y3504276D1*
X1467934Y3501844D1*
X1458372D1*
X1451187Y3504276D1*
X1446379Y3509029D1*
X1497743Y3540090D2*
Y3542467D1*
X1500120Y3547276D1*
X1502497Y3549652D1*
X1507305Y3552029D1*
X1516867D1*
X1521620Y3549652D1*
X1523996Y3547276D1*
X1526428Y3542467D1*
Y3537714D1*
X1523996Y3532905D1*
X1519243Y3525776D1*
X1495311Y3501844D1*
X1528805D1*
X3209732Y2719984D2*
X3204979Y2724793D1*
X3197794Y2727169D1*
X3188232D1*
X3181047Y2724793D1*
X3176238Y2719984D1*
Y2715231D1*
X3178670Y2710423D1*
X3181047Y2708046D1*
X3185800Y2705669D1*
X3200170Y2700861D1*
X3204979Y2698484D1*
X3207355Y2696053D1*
X3209732Y2691299D1*
Y2684114D1*
X3204979Y2679361D1*
X3197794Y2676929D1*
X3188232D1*
X3181047Y2679361D1*
X3176238Y2684114D1*
X3229980Y2727114D2*
X3256233D1*
X3241918Y2707991D1*
X3249103D1*
X3253856Y2705614D1*
X3256233Y2703238D1*
X3258664Y2696053D1*
Y2691299D1*
X3256233Y2684114D1*
X3251479Y2679306D1*
X3244294Y2676929D1*
X3237109D1*
X3229980Y2679306D1*
X3227603Y2681738D1*
X3225171Y2686491D1*
X1491377Y3759784D2*
X1486624Y3764593D1*
X1479439Y3766969D1*
X1469877D1*
X1462692Y3764593D1*
X1457884Y3759784D1*
Y3755031D1*
X1460315Y3750222D1*
X1462692Y3747846D1*
X1467445Y3745469D1*
X1481815Y3740661D1*
X1486624Y3738284D1*
X1489000Y3735852D1*
X1491377Y3731099D1*
Y3723914D1*
X1486624Y3719161D1*
X1479439Y3716729D1*
X1469877D1*
X1462692Y3719161D1*
X1457884Y3723914D1*
X1530748Y3716729D2*
Y3766914D1*
X1506816Y3733476D1*
X1542686D1*
X4082294Y1894871D2*
X4077540Y1899680D1*
X4070355Y1902056D1*
X4060794D1*
X4053609Y1899680D1*
X4048800Y1894871D1*
Y1890118D1*
X4051232Y1885310D1*
X4053609Y1882933D1*
X4058362Y1880557D1*
X4072732Y1875748D1*
X4077540Y1873372D1*
X4079917Y1870940D1*
X4082294Y1866186D1*
Y1859001D1*
X4077540Y1854248D1*
X4070355Y1851816D1*
X4060794D1*
X4053609Y1854248D1*
X4048800Y1859001D1*
X4097733Y1892440D2*
X4102541Y1894871D1*
X4109726Y1902001D1*
Y1851816D1*
X4137159Y1902001D2*
X4125166Y1887631D1*
X4139536Y1899625D1*
X4137159Y1902001D1*
X3529805Y1155997D2*
Y1120127D1*
X3532181Y1112942D1*
X3536990Y1108189D1*
X3544175Y1105757D1*
X3548928D1*
X3556113Y1108189D1*
X3560921Y1112942D1*
X3563298Y1120127D1*
Y1155997D1*
X3578737Y1146380D2*
X3583546Y1148812D1*
X3590731Y1155942D1*
Y1105757D1*
X2304076Y3716652D2*
X2323199Y3666412D1*
X2342322Y3716652D1*
X2357762Y3692720D2*
X2379262D1*
X2386447Y3695152D1*
X2388878Y3697528D1*
X2391255Y3702281D1*
Y3707090D1*
X2388878Y3711843D1*
X2386447Y3714275D1*
X2379262Y3716652D1*
X2357762D1*
Y3666412D1*
X2374508Y3692720D2*
X2391255Y3666412D1*
X2406694Y3707035D2*
X2411503Y3709467D1*
X2418688Y3716596D1*
Y3666412D1*
X2293390Y2891585D2*
X2312514Y2841345D1*
X2331637Y2891585D1*
X2347076Y2867653D2*
X2368576D1*
X2375761Y2870085D1*
X2378193Y2872461D1*
X2380569Y2877215D1*
Y2882023D1*
X2378193Y2886776D1*
X2375761Y2889208D1*
X2368576Y2891585D1*
X2347076D1*
Y2841345D1*
X2363823Y2867653D2*
X2380569Y2841345D1*
X2398441Y2879591D2*
Y2881968D1*
X2400817Y2886776D1*
X2403194Y2889153D1*
X2408002Y2891529D1*
X2417564D1*
X2422317Y2889153D1*
X2424694Y2886776D1*
X2427125Y2881968D1*
Y2877215D1*
X2424694Y2872406D1*
X2419940Y2865276D1*
X2396009Y2841345D1*
X2429502D1*
X2293469Y2066343D2*
X2312592Y2016103D1*
X2331716Y2066343D1*
X2347155Y2042411D2*
X2368655D1*
X2375840Y2044843D1*
X2378272Y2047220D1*
X2380648Y2051973D1*
Y2056782D1*
X2378272Y2061535D1*
X2375840Y2063967D1*
X2368655Y2066343D1*
X2347155D1*
Y2016103D1*
X2363902Y2042411D2*
X2380648Y2016103D1*
X2400896Y2066288D2*
X2427149D1*
X2412834Y2047165D1*
X2420019D1*
X2424772Y2044788D1*
X2427149Y2042411D1*
X2429581Y2035226D1*
Y2030473D1*
X2427149Y2023288D1*
X2422396Y2018480D1*
X2415211Y2016103D1*
X2408026D1*
X2400896Y2018480D1*
X2398519Y2020912D1*
X2396087Y2025665D1*
X2292348Y1241528D2*
X2311471Y1191288D1*
X2330594Y1241528D1*
X2346033Y1217596D2*
X2367533D1*
X2374718Y1220028D1*
X2377150Y1222405D1*
X2379527Y1227158D1*
Y1231967D1*
X2377150Y1236720D1*
X2374718Y1239152D1*
X2367533Y1241528D1*
X2346033D1*
Y1191288D1*
X2362780Y1217596D2*
X2379527Y1191288D1*
X2418898D2*
Y1241473D1*
X2394966Y1208035D1*
X2430836D1*
X2293548Y1034403D2*
X2312671Y984163D1*
X2331794Y1034403D1*
X2347234Y1010471D2*
X2368733D1*
X2375918Y1012903D1*
X2378350Y1015280D1*
X2380727Y1020033D1*
Y1024841D1*
X2378350Y1029594D1*
X2375918Y1032026D1*
X2368733Y1034403D1*
X2347234D1*
Y984163D1*
X2363980Y1010471D2*
X2380727Y984163D1*
X2424851Y1034348D2*
X2400975D1*
X2398598Y1012848D1*
X2400975Y1015224D1*
X2408160Y1017656D1*
X2415289D1*
X2422474Y1015224D1*
X2427283Y1010471D1*
X2429660Y1003286D1*
Y998533D1*
X2427283Y991348D1*
X2422474Y986539D1*
X2415289Y984163D1*
X2408160D1*
X2400975Y986539D1*
X2398598Y988971D1*
X2396166Y993724D1*
X3151551Y1859648D2*
X3170674Y1809408D1*
X3189797Y1859648D1*
X3205236Y1835717D2*
X3226736D1*
X3233921Y1838148D1*
X3236353Y1840525D1*
X3238730Y1845278D1*
Y1850087D1*
X3236353Y1854840D1*
X3233921Y1857272D1*
X3226736Y1859648D1*
X3205236D1*
Y1809408D1*
X3221983Y1835717D2*
X3238730Y1809408D1*
X3254169Y1850031D2*
X3258977Y1852463D1*
X3266162Y1859593D1*
Y1809408D1*
X3293595Y1859593D2*
X3281602Y1845223D1*
X3295972Y1857216D1*
X3293595Y1859593D1*
X437803Y2604551D2*
X488043Y2623729D1*
X437803Y2642853D1*
X454549Y2635668D2*
Y2611736D1*
X488043Y2589112D2*
X437803Y2569988D1*
X488043Y2550865D1*
Y2504364D2*
Y2535426D1*
X437803D1*
Y2504365D1*
X464111Y2535426D2*
Y2516303D1*
X437803Y2402078D2*
X488043D1*
X437803Y2421201D1*
X488043Y2440324D1*
X437803D1*
X488043Y2372268D2*
X485666Y2377077D1*
X480858Y2381830D1*
X476104Y2384262D1*
X468919Y2386639D1*
X456926D1*
X449796Y2384262D1*
X444988Y2381830D1*
X440234Y2377077D1*
X437803Y2372268D1*
Y2362707D1*
X440234Y2357954D1*
X444988Y2353145D1*
X449796Y2350769D1*
X456926Y2348392D1*
X468919D1*
X476104Y2350769D1*
X480858Y2353145D1*
X485666Y2357954D1*
X488043Y2362707D1*
Y2372268D1*
Y2332953D2*
X437803D1*
Y2316206D1*
X440234Y2309021D1*
X444988Y2304213D1*
X449796Y2301836D1*
X456926Y2299459D1*
X468919D1*
X476104Y2301836D1*
X480858Y2304213D1*
X485666Y2309021D1*
X488043Y2316206D1*
Y2332953D1*
Y2235419D2*
X437803Y2216296D1*
X488043Y2197173D1*
X476049Y2179302D2*
X478426D1*
X483234Y2176925D1*
X485611Y2174548D1*
X487987Y2169740D1*
Y2160178D1*
X485611Y2155425D1*
X483234Y2153049D1*
X478426Y2150617D1*
X473673D1*
X468864Y2153049D1*
X461734Y2157802D1*
X437803Y2181733D1*
Y2148240D1*
X442611Y2130424D2*
X440179Y2132801D1*
X437803Y2130424D1*
X440179Y2127992D1*
X442611Y2130424D1*
X476049Y2110121D2*
X478426D1*
X483234Y2107745D1*
X485611Y2105368D1*
X487987Y2100560D1*
Y2090998D1*
X485611Y2086245D1*
X483234Y2083868D1*
X478426Y2081436D1*
X473673D1*
X468864Y2083868D1*
X461734Y2088621D1*
X437803Y2112553D1*
Y2079060D1*
X462895Y2015020D2*
Y1987385D1*
X480858Y1889851D2*
X485666Y1894604D1*
X488043Y1901790D1*
Y1911351D1*
X485666Y1918536D1*
X480858Y1923345D1*
X476104D1*
X471296Y1920913D1*
X468919Y1918536D1*
X466543Y1913783D1*
X461734Y1899413D1*
X459358Y1894604D1*
X456926Y1892228D1*
X452173Y1889851D1*
X444988D1*
X440234Y1894604D1*
X437803Y1901790D1*
Y1911351D1*
X440234Y1918536D1*
X444988Y1923345D1*
X488043Y1874412D2*
X464111Y1855289D1*
X437803D1*
X488043Y1836166D2*
X464111Y1855289D1*
X488043Y1787233D2*
X437803D1*
X488043Y1820726D1*
X437803D1*
X488043Y1755047D2*
X437803D1*
X488043Y1771794D2*
Y1738300D1*
Y1708491D2*
X485666Y1713299D1*
X480858Y1718053D1*
X476104Y1720485D1*
X468919Y1722861D1*
X456926D1*
X449796Y1720485D1*
X444988Y1718053D1*
X440234Y1713300D1*
X437803Y1708491D1*
Y1698929D1*
X440234Y1694176D1*
X444988Y1689368D1*
X449796Y1686991D1*
X456926Y1684615D1*
X468919D1*
X476104Y1686991D1*
X480858Y1689368D1*
X485666Y1694176D1*
X488043Y1698929D1*
Y1708491D1*
Y1635682D2*
X437803D1*
X488043Y1669175D1*
X437803D1*
X488043Y1620243D2*
X437803D1*
X488043Y1573742D2*
Y1604804D1*
X437803D1*
Y1573742D1*
X464111Y1604804D2*
Y1585680D1*
X476049Y1507270D2*
X478426D1*
X483234Y1504893D1*
X485611Y1502517D1*
X487987Y1497708D1*
Y1488147D1*
X485611Y1483394D1*
X483234Y1481017D1*
X478426Y1478585D1*
X473673D1*
X468864Y1481017D1*
X461734Y1485770D1*
X437803Y1509702D1*
Y1476209D1*
X487987Y1446399D2*
X485611Y1453584D1*
X478426Y1458393D1*
X466487Y1460769D1*
X459302D1*
X447364Y1458393D1*
X440179Y1453584D1*
X437803Y1446399D1*
Y1441646D1*
X440179Y1434461D1*
X447364Y1429708D1*
X459302Y1427276D1*
X466487D1*
X478426Y1429708D1*
X485611Y1434461D1*
X487987Y1441646D1*
Y1446399D1*
X478426Y1429708D2*
X447364Y1458393D1*
X478426Y1411837D2*
X480858Y1407028D1*
X487987Y1399843D1*
X437803D1*
X487987Y1372466D2*
X485611Y1379595D1*
X480858Y1382027D1*
X476049D1*
X471296Y1379595D1*
X468864Y1374842D1*
X466487Y1365281D1*
X464111Y1358096D1*
X459302Y1353342D1*
X454549Y1350966D1*
X447364D1*
X442611Y1353342D1*
X440179Y1355719D1*
X437803Y1362904D1*
Y1372466D1*
X440179Y1379595D1*
X442611Y1382027D1*
X447364Y1384404D1*
X454549D1*
X459302Y1382027D1*
X464111Y1377219D1*
X466487Y1370089D1*
X468864Y1360528D1*
X471296Y1355719D1*
X476049Y1353342D1*
X480858D1*
X485611Y1355719D1*
X487987Y1362904D1*
Y1372466D1*
M02*
