G04 DipTrace 3.3.1.1*
G04 BottomMask.gbr*
%MOMM*%
G04 #@! TF.FileFunction,Soldermask,Bot*
G04 #@! TF.Part,Single*
%AMOUTLINE1*
4,1,4,
-0.6657,0.6657,
0.6657,0.6657,
0.6657,-0.6657,
-0.6657,-0.6657,
-0.6657,0.6657,
0*%
%ADD18C,1.6*%
%ADD19C,1.8*%
%ADD22R,1.8X1.8*%
%ADD30C,1.793*%
%ADD32C,2.0*%
%ADD33C,1.4*%
%ADD42C,3.0*%
%ADD57O,3.3X3.7*%
%ADD59O,1.8X3.4*%
%ADD61R,1.8X3.4*%
%ADD63C,4.2*%
%ADD66R,1.4X1.4*%
%ADD68C,2.2*%
%ADD69C,2.2*%
%ADD73C,3.52*%
%ADD75C,3.2*%
%ADD77C,4.7*%
%ADD79C,5.2*%
%ADD81R,1.7X1.7*%
%ADD83C,1.7*%
%ADD85R,2.0X2.0*%
%ADD86C,2.6*%
%ADD87R,2.6X2.6*%
%ADD91OUTLINE1*%
%FSLAX35Y35*%
G04*
G71*
G90*
G75*
G01*
G04 BotMask*
%LPD*%
D22*
X4122293Y6041837D3*
D19*
Y5791837D3*
D32*
X2920973Y4651187D3*
Y5159187D3*
D22*
X3731083Y3934047D3*
D19*
Y3684047D3*
D32*
X3513467Y2072957D3*
X4021467D3*
D22*
X3740363Y2726843D3*
D19*
Y2976843D3*
D32*
X7376927Y7493877D3*
Y6985877D3*
D22*
X8935247Y7334317D3*
D19*
Y7084317D3*
D22*
X4479950Y6991957D3*
D19*
Y7241957D3*
D32*
X2940893Y7373757D3*
Y6865757D3*
X8842040Y5347637D3*
Y4839637D3*
D22*
X7330087Y5179670D3*
D19*
Y4929670D3*
D22*
X6949947Y1226120D3*
D19*
Y1476120D3*
D32*
X5051723Y1758097D3*
Y1250097D3*
D22*
X4345017Y9345040D3*
D19*
Y9095040D3*
D22*
X9634077Y5274487D3*
D19*
Y5024487D3*
D22*
X7388423Y3192470D3*
D19*
Y2942470D3*
D32*
X10195140Y2084590D3*
Y2338590D3*
D22*
X7337103Y9800587D3*
D19*
Y10050587D3*
D87*
X3100043Y10460330D3*
D86*
Y9355330D3*
D85*
X5106807Y6615443D3*
D32*
Y7625443D3*
D83*
X4894773Y10143687D3*
D81*
Y10397687D3*
D85*
X9500530Y3022433D3*
D32*
Y4032433D3*
D85*
X9761063Y4037747D3*
D32*
Y3027747D3*
D83*
X1875540Y2260657D3*
D81*
X1621540D3*
D79*
X2318240Y9588517D3*
D77*
Y10188517D3*
X1828240Y9888517D3*
D75*
X1431300Y8175180D3*
D73*
X1609300Y7641680D3*
Y8708680D3*
D75*
X10559387Y8175110D3*
D73*
X10381387Y8708610D3*
Y7641610D3*
D30*
X10381133Y6452714D3*
Y5602714D3*
Y5302714D3*
D42*
Y5952714D3*
D69*
X2128437Y3989950D3*
D68*
X1366437D3*
D91*
X4204933Y4778187D3*
D18*
X4077933Y4905187D3*
X4204933Y5032187D3*
D66*
X4605953Y3883547D3*
D33*
X4478953Y3756547D3*
X4605953Y3629547D3*
D91*
X4626687Y2641470D3*
D18*
X4499687Y2768470D3*
X4626687Y2895470D3*
D91*
X7253810Y2093547D3*
D18*
X7126810Y2220547D3*
X7253810Y2347547D3*
D69*
X2528337Y8564450D3*
D68*
Y7802450D3*
D69*
X4701847Y6350337D3*
D68*
Y5588337D3*
D69*
X5105013D3*
D68*
Y6350337D3*
D69*
Y4524187D3*
D68*
Y5286187D3*
D69*
X4701847Y4524187D3*
D68*
Y5286187D3*
D69*
X3312667D3*
D68*
Y4524187D3*
D69*
X3725790D3*
D68*
Y5286187D3*
D69*
X5105013Y3375547D3*
D68*
Y4137547D3*
D69*
Y3139820D3*
D68*
Y2377820D3*
D69*
X3386467Y1301663D3*
D68*
X4148467D3*
D69*
Y1686913D3*
D68*
X3386467D3*
D69*
X6749793Y9222160D3*
D68*
X5987793D3*
D69*
X5764833Y9227550D3*
D68*
X5002833D3*
D69*
X8946603Y3148693D3*
D68*
Y3910693D3*
D69*
X9886750Y1170040D3*
D68*
X9124750D3*
D69*
X1392850Y1682920D3*
D68*
X2154850D3*
D69*
X4513773Y10697950D3*
D68*
X5275773D3*
D69*
X4524103Y9812313D3*
D68*
X5286103D3*
D69*
X5285803Y9558133D3*
D68*
X4523803D3*
D69*
X9225307Y3910850D3*
D68*
Y3148850D3*
D69*
X8857767Y4288880D3*
D68*
X9619767D3*
D69*
X8862543Y4576497D3*
D68*
X9624543D3*
D69*
X7563443Y1834963D3*
D68*
Y2596963D3*
D69*
X7859320Y1832870D3*
D68*
Y2594870D3*
D69*
X9886750Y1495993D3*
D68*
X9124750D3*
D69*
X8143597D3*
D68*
X8905597D3*
D69*
Y1170040D3*
D68*
X8143597D3*
D63*
X8187740Y7714913D3*
Y8175313D3*
Y8635713D3*
X3793597Y7714747D3*
Y8175147D3*
Y8635547D3*
X8187440Y5619463D3*
Y6079863D3*
Y6540263D3*
X3794090Y10731217D3*
Y10270817D3*
Y9810417D3*
X10382553Y4444477D3*
Y3984077D3*
Y3523677D3*
D61*
X9804320Y2589487D3*
D59*
X9550320D3*
X9296320D3*
X9042320D3*
X8788320D3*
X8534320D3*
X8280320D3*
Y1827487D3*
X8534320D3*
X8788320D3*
X9042320D3*
X9296320D3*
X9550320D3*
X9804320D3*
D85*
X5747150Y9572610D3*
D57*
X5547150Y10272610D3*
D32*
X5997150Y9572610D3*
D57*
X6447150Y10272610D3*
D32*
X6247150Y9572610D3*
D85*
X5747313Y7476940D3*
D57*
X5547313Y8176940D3*
D32*
X5997313Y7476940D3*
D57*
X6447313Y8176940D3*
D32*
X6247313Y7476940D3*
D85*
X5747513Y5380827D3*
D57*
X5547513Y6080827D3*
D32*
X5997513Y5380827D3*
D57*
X6447513Y6080827D3*
D32*
X6247513Y5380827D3*
D85*
X5747683Y3285797D3*
D57*
X5547683Y3985797D3*
D32*
X5997683Y3285797D3*
D57*
X6447683Y3985797D3*
D32*
X6247683Y3285797D3*
D85*
X5747713Y1190137D3*
D57*
X5547713Y1890137D3*
D32*
X5997713Y1190137D3*
D57*
X6447713Y1890137D3*
D32*
X6247713Y1190137D3*
D85*
X7937593Y3286260D3*
D57*
X7737593Y3986260D3*
D32*
X8187593Y3286260D3*
D57*
X8637593Y3986260D3*
D32*
X8437593Y3286260D3*
D42*
X1285747Y10699623D3*
X1285753Y1285747D3*
X10715503D3*
Y10715503D3*
M02*
