M48
METRIC,0000.00
T01C0.486
T02C0.7
T03C0.8
T04C0.889
T05C0.9
T06C1.0
T07C1.1
T08C1.2
T09C1.5
T10C2.16
T11C2.5
T12C2.55
T13C3.0
T14C3.5
%
T03
X+004122Y+006042
X+004122Y+005792
X+002921Y+004651
X+002921Y+005159
X+003731Y+003934
X+003731Y+003684
X+003513Y+002073
X+004021Y+002073
X+003740Y+002727
X+003740Y+002977
X+007377Y+007494
X+007377Y+006986
X+008935Y+007334
X+008935Y+007084
X+004480Y+006992
X+004480Y+007242
X+002941Y+007374
X+002941Y+006866
X+008842Y+005348
X+008842Y+004840
X+007330Y+005180
X+007330Y+004930
X+006950Y+001226
X+006950Y+001476
X+005052Y+001758
X+005052Y+001250
X+004345Y+009345
X+004345Y+009095
X+009634Y+005274
X+009634Y+005024
X+007388Y+003192
X+007388Y+002942
X+010195Y+002085
X+010195Y+002339
X+007337Y+009801
X+007337Y+010051
T08
X+003100Y+010460
X+003100Y+009355
T05
X+005107Y+006615
X+005107Y+007625
T04
X+004895Y+010144
X+004895Y+010398
T05
X+009501Y+003022
X+009501Y+004032
X+009761Y+004038
X+009761Y+003028
T04
X+001876Y+002261
X+001622Y+002261
T14
X+002318Y+009589
T13
X+002318Y+010189
X+001828Y+009889
T09
X+001431Y+008175
T10
X+001609Y+007642
X+001609Y+008709
T09
X+010559Y+008175
T10
X+010381Y+008709
X+010381Y+007642
T07
X+010381Y+006453
X+010381Y+005603
X+010381Y+005303
T13
X+010381Y+005953
T06
X+002128Y+003990
X+001366Y+003990
T03
X+004205Y+004778
X+004078Y+004905
X+004205Y+005032
T02
X+004606Y+003884
X+004479Y+003757
X+004606Y+003630
T03
X+004627Y+002641
X+004500Y+002768
X+004627Y+002895
X+007254Y+002094
X+007127Y+002221
X+007254Y+002348
T06
X+002528Y+008564
X+002528Y+007802
X+004702Y+006350
X+004702Y+005588
X+005105Y+005588
X+005105Y+006350
X+005105Y+004524
X+005105Y+005286
X+004702Y+004524
X+004702Y+005286
X+003313Y+005286
X+003313Y+004524
X+003726Y+004524
X+003726Y+005286
X+005105Y+003376
X+005105Y+004138
X+005105Y+003140
X+005105Y+002378
X+003386Y+001302
X+004148Y+001302
X+004148Y+001687
X+003386Y+001687
X+006750Y+009222
X+005988Y+009222
X+005765Y+009228
X+005003Y+009228
X+008947Y+003149
X+008947Y+003911
X+009887Y+001170
X+009125Y+001170
X+001393Y+001683
X+002155Y+001683
X+004514Y+010698
X+005276Y+010698
X+004524Y+009812
X+005286Y+009812
X+005286Y+009558
X+004524Y+009558
X+009225Y+003911
X+009225Y+003149
X+008858Y+004289
X+009620Y+004289
X+008863Y+004576
X+009625Y+004576
X+007563Y+001835
X+007563Y+002597
X+007859Y+001833
X+007859Y+002595
X+009887Y+001496
X+009125Y+001496
X+008144Y+001496
X+008906Y+001496
X+008906Y+001170
X+008144Y+001170
T11
X+008188Y+007715
X+008188Y+008175
X+008188Y+008636
X+003794Y+007715
X+003794Y+008175
X+003794Y+008636
X+008187Y+005619
X+008187Y+006080
X+008187Y+006540
X+003794Y+010731
X+003794Y+010271
X+003794Y+009810
X+010383Y+004444
X+010383Y+003984
X+010383Y+003524
T06
X+009804Y+002589
X+009550Y+002589
X+009296Y+002589
X+009042Y+002589
X+008788Y+002589
X+008534Y+002589
X+008280Y+002589
X+008280Y+001827
X+008534Y+001827
X+008788Y+001827
X+009042Y+001827
X+009296Y+001827
X+009550Y+001827
X+009804Y+001827
T07
X+005747Y+009573
T12
X+005547Y+010273
T07
X+005997Y+009573
T12
X+006447Y+010273
T07
X+006247Y+009573
X+005747Y+007477
T12
X+005547Y+008177
T07
X+005997Y+007477
T12
X+006447Y+008177
T07
X+006247Y+007477
X+005748Y+005381
T12
X+005548Y+006081
T07
X+005998Y+005381
T12
X+006448Y+006081
T07
X+006248Y+005381
X+005748Y+003286
T12
X+005548Y+003986
T07
X+005998Y+003286
T12
X+006448Y+003986
T07
X+006248Y+003286
X+005748Y+001190
T12
X+005548Y+001890
T07
X+005998Y+001190
T12
X+006448Y+001890
T07
X+006248Y+001190
X+007938Y+003286
T12
X+007738Y+003986
T07
X+008188Y+003286
T12
X+008638Y+003986
T07
X+008438Y+003286
T13
X+001286Y+010700
X+001286Y+001286
X+010716Y+001286
X+010716Y+010716
T01
X+005107Y+007900
X+004894Y+002740
X+004752Y+003450
X+006160Y+002752
X+010033Y+004035
X+010016Y+003156
X+008322Y+003087
X+009645Y+001334
X+005075Y+002067
X+010554Y+001850
T00
M30
