G04 DipTrace 3.3.1.1*
G04 Top.gbr*
%MOMM*%
G04 #@! TF.FileFunction,Copper,L1,Top*
G04 #@! TF.Part,Single*
%AMOUTLINE0*
4,1,4,
-0.5657,0.5657,
0.5657,0.5657,
0.5657,-0.5657,
-0.5657,-0.5657,
-0.5657,0.5657,
0*%
G04 #@! TA.AperFunction,Conductor*
%ADD13C,0.66*%
%ADD14C,1.0*%
G04 #@! TA.AperFunction,ComponentPad*
%ADD17R,1.6X1.6*%
%ADD18C,1.6*%
%ADD19C,1.8*%
%ADD20R,2.4X2.4*%
%ADD21C,2.4*%
%ADD22R,1.8X1.8*%
%ADD23C,1.5*%
%ADD24R,1.5X1.5*%
%ADD25C,5.0*%
%ADD26C,4.5*%
%ADD27C,3.0*%
%ADD28C,3.32*%
%ADD30C,1.793*%
%ADD31C,2.0*%
%ADD32C,2.0*%
%ADD33C,1.4*%
%ADD34R,1.2X1.2*%
%ADD35C,1.2*%
%ADD36C,4.0*%
%ADD37R,1.6X3.2*%
%ADD38O,1.6X3.2*%
%ADD39O,3.1X3.5*%
G04 #@! TA.AperFunction,ViaPad*
%ADD40C,1.016*%
G04 #@! TA.AperFunction,ComponentPad*
%ADD90OUTLINE0*%
%FSLAX35Y35*%
G04*
G71*
G90*
G75*
G01*
G04 Top*
%LPD*%
X10195140Y2084590D2*
D13*
X9111450D1*
X9042320Y2015460D1*
Y1827487D1*
X3794090Y9810417D2*
D14*
X3878987D1*
Y9812313D1*
X4524103D1*
X3794090Y9810417D2*
Y9389253D1*
X4856517Y8326827D1*
Y6479460D1*
X4714620Y6337563D1*
X4701847Y6350337D1*
X2920973Y5159187D2*
X3185667D1*
X3312667Y5286187D1*
Y5237673D1*
X4031917Y4518423D1*
X4696083D1*
X4701847Y4524187D1*
Y6350337D2*
X3719890D1*
X3305537Y5935983D1*
Y5293317D1*
X3312667Y5286187D1*
X4701847Y4524187D2*
Y4167163D1*
X5105013Y3763997D1*
Y3375547D1*
X4933170D1*
X4626687Y3069063D1*
Y2895470D1*
X5624247D1*
X6100700Y2419017D1*
X7182340D1*
X7253810Y2347547D1*
X8987767D1*
X9035977Y2395757D1*
Y2583143D1*
X9042320Y2589487D1*
X10195140Y2338590D2*
X9093143D1*
X9035977Y2395757D1*
X2128437Y3989950D2*
Y4590277D1*
X2697347Y5159187D1*
X2920973D1*
X3878987Y9812313D2*
X4345017Y9345040D1*
X4524103Y9812313D2*
X4855477Y10143687D1*
X4894773D1*
X6247150Y9572610D2*
D13*
X6399343D1*
X6749793Y9222160D1*
X1431300Y8175180D2*
X1635683D1*
X2034873Y8574370D1*
X2518417D1*
X2528337Y8564450D1*
X8187740Y7714913D2*
X8554650D1*
X8935247Y7334317D1*
X5997150Y9572610D2*
Y9231517D1*
X5987793Y9222160D1*
Y8994360D1*
X5908350Y8914917D1*
X5441463D1*
X5106523Y8579977D1*
Y7899947D1*
X4122293Y5791837D2*
X4498347D1*
X4701847Y5588337D1*
X5105013D1*
Y5859940D1*
X5320710Y6075637D1*
Y6473647D1*
X5168710Y6625647D1*
X5117010D1*
X5106807Y6615443D1*
X4122293Y5791837D2*
Y5427213D1*
X4032973Y5337893D1*
Y4950147D1*
X4077933Y4905187D1*
X4204933Y4778187D2*
X4012330D1*
X3721113Y5069403D1*
Y5281510D1*
X3725790Y5286187D1*
X4204933Y4778187D2*
X4851013D1*
X5105013Y4524187D1*
X4204933Y5032187D2*
X4263210D1*
X4489783Y5258760D1*
X4674420D1*
X4701847Y5286187D1*
X5051723Y1758097D2*
X5183270D1*
X5325870Y1615497D1*
X6612343D1*
X6711303Y1516537D1*
X6909530D1*
X6949947Y1476120D1*
X4894183Y2739793D2*
Y1915637D1*
X5051723Y1758097D1*
X3725790Y4524187D2*
Y3939340D1*
X3731083Y3934047D1*
X4605953Y3883547D2*
X4555453Y3934047D1*
X3731083D1*
X2920973Y4651187D2*
X3185667D1*
X3312667Y4524187D1*
Y3671307D1*
X3493360Y3490613D1*
X4467020D1*
X4605953Y3629547D1*
X5105013Y3139820D2*
X5286550D1*
X5352927Y3073443D1*
X5956433D1*
X5997683Y3114693D1*
Y3285797D1*
X5997313Y7476940D2*
Y5771003D1*
X5969680Y5743370D1*
X5564413D1*
X5469853Y5648810D1*
Y4502387D1*
X5105013Y4137547D1*
Y4065033D1*
X5348510Y3821537D1*
Y3383317D1*
X5105013Y3139820D1*
X4499687Y2768470D2*
Y2772290D1*
X4429783Y2842193D1*
Y3127647D1*
X4751830Y3449693D1*
X3513467Y2072957D2*
Y1813913D1*
X3386467Y1686913D1*
Y1301663D1*
X3513467Y2072957D2*
Y2078460D1*
X3755877Y2320870D1*
X4306087D1*
X4626687Y2641470D1*
X4021467Y2072957D2*
Y1813913D1*
X4148467Y1686913D1*
X10559387Y8175110D2*
X10431697D1*
X9577733Y7321147D1*
Y6637793D1*
X8623000Y5683060D1*
Y5215643D1*
X6159633Y2752277D1*
X2318240Y9588517D2*
D14*
X2551427Y9355330D1*
X3100043D1*
X7330087Y5179670D2*
D13*
Y5682910D1*
X8187440Y6540263D1*
X7376927Y7493877D2*
Y7824900D1*
X8187740Y8635713D1*
X6247313Y7476940D2*
X6588280D1*
X7071030Y6994190D1*
X7368613D1*
X7376927Y6985877D1*
X8836807D1*
X8935247Y7084317D1*
X4479950Y7241957D2*
Y7949193D1*
X3793597Y8635547D1*
X2940893Y7373757D2*
X3452607D1*
X3793597Y7714747D1*
X6247713Y1190137D2*
X6913963D1*
X6949947Y1226120D1*
X5051723Y1250097D2*
X5459047D1*
X5519007Y1190137D1*
X5747713D1*
X6247513Y5380827D2*
X6878930D1*
X7330087Y4929670D1*
X3100043Y10460330D2*
D14*
X3634583D1*
X3794090Y10300823D1*
Y10270817D1*
X10381133Y6452713D2*
D13*
X10378847Y6455000D1*
X10216973D1*
X9634077Y5872103D1*
Y5274487D1*
Y5024487D2*
Y4586030D1*
X9624543Y4576497D1*
X8946603Y3910693D2*
Y4025953D1*
X9208777Y4288127D1*
X9336173D1*
X9624543Y4576497D1*
X5286103Y9812313D2*
X5285803Y9558133D1*
X9296320Y1827487D2*
Y1776013D1*
X9566967Y1505367D1*
X9877377D1*
X9886750Y1495993D1*
X10032883Y4034523D2*
Y3139343D1*
X10016127Y3156100D1*
X9225307Y3148850D2*
X8946760D1*
X8946603Y3148693D1*
X9225307Y3148850D2*
Y3014203D1*
X9512867Y2726643D1*
Y2626940D1*
X9550320Y2589487D1*
X9225307Y3148850D2*
Y3364537D1*
X9747623Y3886853D1*
Y4024307D1*
X9761063Y4037747D1*
X9500530Y3022433D2*
X9755750D1*
X9761063Y3027747D1*
Y2632743D1*
X9804320Y2589487D1*
X9225307Y3910850D2*
X9378947D1*
X9500530Y4032433D1*
Y4169643D1*
X9619767Y4288880D1*
X8862543Y4576497D2*
Y4293657D1*
X8857767Y4288880D1*
X7388423Y3192470D2*
X7843803D1*
X7937593Y3286260D1*
Y3676623D1*
X8184723Y3923753D1*
Y4133450D1*
X8334267Y4282993D1*
X8863653D1*
X8857767Y4288880D1*
X8534320Y2589487D2*
Y2873927D1*
X8321610Y3086637D1*
X7388423Y2942470D2*
Y2771983D1*
X7563443Y2596963D1*
X8280320Y2589487D2*
X8269900D1*
Y2665363D1*
X8187593Y2747670D1*
Y3286260D1*
X8437593D1*
X7563443Y1834963D2*
X7857227D1*
X7859320Y1832870D1*
X7886023D1*
X8158043Y2104890D1*
X8670677D1*
X8788320Y1987247D1*
Y1827487D1*
X8143597Y1495993D2*
Y1170040D1*
Y1495993D2*
Y1690763D1*
X8280320Y1827487D1*
X9645433Y1334220D2*
X8307777D1*
X8143597Y1170040D1*
X9124750Y1495993D2*
X8905597D1*
X8714470D1*
X8569017Y1641447D1*
Y1792790D1*
X8534320Y1827487D1*
X7253810Y2093547D2*
X6683233D1*
X6587963Y2188817D1*
X5196513D1*
X5074930Y2067233D1*
X1392850Y1682920D2*
Y2031967D1*
X1621540Y2260657D1*
X5764833Y9227550D2*
Y9554927D1*
X5747150Y9572610D1*
X4894773Y10397687D2*
D14*
X4594510Y10697950D1*
X4513773D1*
X9804320Y1827487D2*
D13*
X9933697D1*
X10135960Y1625223D1*
Y1304947D1*
X10001053Y1170040D1*
X9886750D1*
X10554310Y1850127D2*
X9826960D1*
X9804320Y1827487D1*
X8905597Y1170040D2*
X9124750D1*
D40*
X5106523Y7899947D3*
X4894183Y2739793D3*
X4751830Y3449693D3*
X6159633Y2752277D3*
X10032883Y4034523D3*
X10016127Y3156100D3*
X8321610Y3086637D3*
X9645433Y1334220D3*
X5074930Y2067233D3*
X10554310Y1850127D3*
D17*
X4122293Y6041837D3*
D18*
Y5791837D3*
D19*
X2920973Y4651187D3*
Y5159187D3*
D17*
X3731083Y3934047D3*
D18*
Y3684047D3*
D19*
X3513467Y2072957D3*
X4021467D3*
D17*
X3740363Y2726843D3*
D18*
Y2976843D3*
D19*
X7376927Y7493877D3*
Y6985877D3*
D17*
X8935247Y7334317D3*
D18*
Y7084317D3*
D17*
X4479950Y6991957D3*
D18*
Y7241957D3*
D19*
X2940893Y7373757D3*
Y6865757D3*
X8842040Y5347637D3*
Y4839637D3*
D17*
X7330087Y5179670D3*
D18*
Y4929670D3*
D17*
X6949947Y1226120D3*
D18*
Y1476120D3*
D19*
X5051723Y1758097D3*
Y1250097D3*
D17*
X4345017Y9345040D3*
D18*
Y9095040D3*
D17*
X9634077Y5274487D3*
D18*
Y5024487D3*
D17*
X7388423Y3192470D3*
D18*
Y2942470D3*
D19*
X10195140Y2084590D3*
Y2338590D3*
D17*
X7337103Y9800587D3*
D18*
Y10050587D3*
D20*
X3100043Y10460330D3*
D21*
Y9355330D3*
D22*
X5106807Y6615443D3*
D19*
Y7625443D3*
D23*
X4894773Y10143687D3*
D24*
Y10397687D3*
D22*
X9500530Y3022433D3*
D19*
Y4032433D3*
D22*
X9761063Y4037747D3*
D19*
Y3027747D3*
D23*
X1875540Y2260657D3*
D24*
X1621540D3*
D25*
X2318240Y9588517D3*
D26*
Y10188517D3*
X1828240Y9888517D3*
D27*
X1431300Y8175180D3*
D28*
X1609300Y7641680D3*
Y8708680D3*
D27*
X10559387Y8175110D3*
D28*
X10381387Y8708610D3*
Y7641610D3*
D30*
X10381133Y6452714D3*
Y5602714D3*
Y5302714D3*
D31*
X2128437Y3989950D3*
D32*
X1366437D3*
D90*
X4204933Y4778187D3*
D33*
X4077933Y4905187D3*
X4204933Y5032187D3*
D34*
X4605953Y3883547D3*
D35*
X4478953Y3756547D3*
X4605953Y3629547D3*
D90*
X4626687Y2641470D3*
D33*
X4499687Y2768470D3*
X4626687Y2895470D3*
D90*
X7253810Y2093547D3*
D33*
X7126810Y2220547D3*
X7253810Y2347547D3*
D31*
X2528337Y8564450D3*
D32*
Y7802450D3*
D31*
X4701847Y6350337D3*
D32*
Y5588337D3*
D31*
X5105013D3*
D32*
Y6350337D3*
D31*
Y4524187D3*
D32*
Y5286187D3*
D31*
X4701847Y4524187D3*
D32*
Y5286187D3*
D31*
X3312667D3*
D32*
Y4524187D3*
D31*
X3725790D3*
D32*
Y5286187D3*
D31*
X5105013Y3375547D3*
D32*
Y4137547D3*
D31*
Y3139820D3*
D32*
Y2377820D3*
D31*
X3386467Y1301663D3*
D32*
X4148467D3*
D31*
Y1686913D3*
D32*
X3386467D3*
D31*
X6749793Y9222160D3*
D32*
X5987793D3*
D31*
X5764833Y9227550D3*
D32*
X5002833D3*
D31*
X8946603Y3148693D3*
D32*
Y3910693D3*
D31*
X9886750Y1170040D3*
D32*
X9124750D3*
D31*
X1392850Y1682920D3*
D32*
X2154850D3*
D31*
X4513773Y10697950D3*
D32*
X5275773D3*
D31*
X4524103Y9812313D3*
D32*
X5286103D3*
D31*
X5285803Y9558133D3*
D32*
X4523803D3*
D31*
X9225307Y3910850D3*
D32*
Y3148850D3*
D31*
X8857767Y4288880D3*
D32*
X9619767D3*
D31*
X8862543Y4576497D3*
D32*
X9624543D3*
D31*
X7563443Y1834963D3*
D32*
Y2596963D3*
D31*
X7859320Y1832870D3*
D32*
Y2594870D3*
D31*
X9886750Y1495993D3*
D32*
X9124750D3*
D31*
X8143597D3*
D32*
X8905597D3*
D31*
Y1170040D3*
D32*
X8143597D3*
D36*
X8187740Y7714913D3*
Y8175313D3*
Y8635713D3*
X3793597Y7714747D3*
Y8175147D3*
Y8635547D3*
X8187440Y5619463D3*
Y6079863D3*
Y6540263D3*
X3794090Y10731217D3*
Y10270817D3*
Y9810417D3*
X10382553Y4444477D3*
Y3984077D3*
Y3523677D3*
D37*
X9804320Y2589487D3*
D38*
X9550320D3*
X9296320D3*
X9042320D3*
X8788320D3*
X8534320D3*
X8280320D3*
Y1827487D3*
X8534320D3*
X8788320D3*
X9042320D3*
X9296320D3*
X9550320D3*
X9804320D3*
D22*
X5747150Y9572610D3*
D39*
X5547150Y10272610D3*
D19*
X5997150Y9572610D3*
D39*
X6447150Y10272610D3*
D19*
X6247150Y9572610D3*
D22*
X5747313Y7476940D3*
D39*
X5547313Y8176940D3*
D19*
X5997313Y7476940D3*
D39*
X6447313Y8176940D3*
D19*
X6247313Y7476940D3*
D22*
X5747513Y5380827D3*
D39*
X5547513Y6080827D3*
D19*
X5997513Y5380827D3*
D39*
X6447513Y6080827D3*
D19*
X6247513Y5380827D3*
D22*
X5747683Y3285797D3*
D39*
X5547683Y3985797D3*
D19*
X5997683Y3285797D3*
D39*
X6447683Y3985797D3*
D19*
X6247683Y3285797D3*
D22*
X5747713Y1190137D3*
D39*
X5547713Y1890137D3*
D19*
X5997713Y1190137D3*
D39*
X6447713Y1890137D3*
D19*
X6247713Y1190137D3*
D22*
X7937593Y3286260D3*
D39*
X7737593Y3986260D3*
D19*
X8187593Y3286260D3*
D39*
X8637593Y3986260D3*
D19*
X8437593Y3286260D3*
M02*
