G04 DipTrace 3.3.1.1*
G04 TopSilk.gbr*
%MOMM*%
G04 #@! TF.FileFunction,Legend,Top*
G04 #@! TF.Part,Single*
%ADD10C,0.25*%
%ADD16C,0.03333*%
%ADD29C,0.127*%
%ADD89C,0.19608*%
%FSLAX35Y35*%
G04*
G71*
G90*
G75*
G01*
G04 TopSilk*
%LPD*%
X3847293Y5916838D2*
D10*
G02X3847293Y5916838I275000J0D01*
G01*
X4092318Y6266838D2*
X4152268D1*
X4122293Y6296837D2*
Y6236839D1*
X3045973Y4525187D2*
X2795973D1*
X3045973Y5285187D2*
X2795973D1*
Y4525187D2*
Y5285187D1*
X3045973Y4525187D2*
Y5285187D1*
X3456083Y3809048D2*
G02X3456083Y3809048I275000J0D01*
G01*
X3701108Y4159048D2*
X3761058D1*
X3731083Y4189047D2*
Y4129049D1*
X3387467Y1947957D2*
Y2197957D1*
X4147467Y1947957D2*
Y2197957D1*
X3387467D2*
X4147467D1*
X3387467Y1947957D2*
X4147467D1*
X3740363Y3251843D2*
G02X3740363Y3251843I0J-400000D01*
G01*
X3770363Y2601843D2*
X3710363D1*
X3740363Y2571843D2*
Y2631843D1*
X7251927Y7619877D2*
X7501927D1*
X7251927Y6859877D2*
X7501927D1*
Y7619877D2*
Y6859877D1*
X7251927Y7619877D2*
Y6859877D1*
X8660247Y7209318D2*
G02X8660247Y7209318I275000J0D01*
G01*
X8905272Y7559318D2*
X8965222D1*
X8935247Y7589317D2*
Y7529319D1*
X4204950Y7116955D2*
G02X4204950Y7116955I275000J0D01*
G01*
X4509925Y6766956D2*
X4449975D1*
X4479950Y6736957D2*
Y6796955D1*
X2815893Y7499757D2*
X3065893D1*
X2815893Y6739757D2*
X3065893D1*
Y7499757D2*
Y6739757D1*
X2815893Y7499757D2*
Y6739757D1*
X8717040Y5473637D2*
X8967040D1*
X8717040Y4713637D2*
X8967040D1*
Y5473637D2*
Y4713637D1*
X8717040Y5473637D2*
Y4713637D1*
X7055087Y5054672D2*
G02X7055087Y5054672I275000J0D01*
G01*
X7300112Y5404671D2*
X7360062D1*
X7330087Y5434670D2*
Y5374672D1*
X6674947Y1351118D2*
G02X6674947Y1351118I275000J0D01*
G01*
X6979922Y1001119D2*
X6919972D1*
X6949947Y971120D2*
Y1031118D1*
X4926723Y1884097D2*
X5176723D1*
X4926723Y1124097D2*
X5176723D1*
Y1884097D2*
Y1124097D1*
X4926723Y1884097D2*
Y1124097D1*
X4070017Y9220042D2*
G02X4070017Y9220042I275000J0D01*
G01*
X4315042Y9570041D2*
X4374992D1*
X4345017Y9600040D2*
Y9540042D1*
X9359077Y5149488D2*
G02X9359077Y5149488I275000J0D01*
G01*
X9604102Y5499488D2*
X9664052D1*
X9634077Y5529487D2*
Y5469489D1*
X7113423Y3067472D2*
G02X7113423Y3067472I275000J0D01*
G01*
X7358448Y3417471D2*
X7418398D1*
X7388423Y3447470D2*
Y3387472D1*
X10070140Y1956590D2*
Y2466590D1*
X10320140Y1956590D2*
Y2466590D1*
Y1956590D2*
X10070140D1*
X10320140Y2466590D2*
X10070140D1*
X7062103Y9925585D2*
G02X7062103Y9925585I275000J0D01*
G01*
X7367078Y9575586D2*
X7307128D1*
X7337103Y9545587D2*
Y9605585D1*
X2960043Y10148182D2*
X3240043D1*
Y10142936D2*
Y9672724D1*
X2960043Y10072324D2*
X3240043D1*
X2960043Y9672724D2*
X3240043D1*
X2960043Y10142936D2*
Y9672724D1*
X5221807Y6865188D2*
X4991807D1*
Y7375698D1*
X5221807Y6950035D2*
X4991807D1*
X5221807Y7375698D2*
X4991807D1*
X5221807Y6865188D2*
Y7375698D1*
X4749412Y10520687D2*
X5040135D1*
G02X4749412Y10520687I-145362J-250435D01*
G01*
X9615530Y3272178D2*
X9385530D1*
Y3782688D1*
X9615530Y3357025D2*
X9385530D1*
X9615530Y3782688D2*
X9385530D1*
X9615530Y3272178D2*
Y3782688D1*
X9646063Y3788002D2*
X9876063D1*
Y3277492D1*
X9646063Y3703155D2*
X9876063D1*
X9646063Y3277492D2*
X9876063D1*
X9646063Y3788002D2*
Y3277492D1*
X1498540Y2115295D2*
Y2406018D1*
G02X1498540Y2115295I250435J-145362D01*
G01*
X2048270Y9508617D2*
X1868277D1*
X2768240Y10958517D2*
Y9508455D1*
X2588247D1*
X1868277D2*
Y9623475D1*
Y10153539D2*
Y10958517D1*
X2768240D1*
X1412227Y7641182D2*
X1251753D1*
Y7725122D1*
X1412227Y8709178D2*
X1251753D1*
Y8625238D1*
X1250969Y7735195D2*
G02X1250969Y8629995I408349J447400D01*
G01*
X1802156Y7641182D2*
X1967781D1*
Y7724982D1*
X1802156Y8709178D2*
X1967781D1*
Y8625378D1*
Y7724982D2*
G03X1968565Y8629995I-399808J452853D01*
G01*
X10578460Y8709108D2*
X10738933D1*
Y8625168D1*
X10578460Y7641112D2*
X10738933D1*
Y7725052D1*
X10739717Y8615095D2*
G02X10739717Y7720295I-408351J-447400D01*
G01*
X10188530Y8709108D2*
X10022905D1*
Y8625308D1*
X10188530Y7641112D2*
X10022905D1*
Y7724912D1*
Y8625308D2*
G03X10022122Y7720295I399810J-452853D01*
G01*
X9931162Y6552716D2*
D29*
X10231122D1*
X10531082D1*
X10831132D1*
X9931162D2*
Y5502832D1*
X10401126D1*
X10831132D1*
Y6552716D1*
X10064897Y5952687D2*
X10065667Y5974741D1*
X10067974Y5996687D1*
X10071807Y6018419D1*
X10077146Y6039831D1*
X10083967Y6060819D1*
X10092235Y6081279D1*
X10101910Y6101114D1*
X10112945Y6120224D1*
X10125287Y6138519D1*
X10138875Y6155909D1*
X10153643Y6172308D1*
X10169520Y6187637D1*
X10186427Y6201822D1*
X10204282Y6214793D1*
X10222999Y6226487D1*
X10242487Y6236847D1*
X10262649Y6245823D1*
X10283389Y6253370D1*
X10304605Y6259453D1*
X10326193Y6264041D1*
X10348049Y6267112D1*
X10370066Y6268651D1*
X10392137D1*
X10414154Y6267112D1*
X10436010Y6264041D1*
X10457598Y6259453D1*
X10478814Y6253370D1*
X10499554Y6245823D1*
X10519717Y6236847D1*
X10539204Y6226487D1*
X10557921Y6214793D1*
X10575777Y6201822D1*
X10592684Y6187637D1*
X10608560Y6172308D1*
X10623328Y6155909D1*
X10636916Y6138519D1*
X10649258Y6120224D1*
X10660294Y6101114D1*
X10669969Y6081279D1*
X10678237Y6060819D1*
X10685057Y6039831D1*
X10690396Y6018419D1*
X10694229Y5996687D1*
X10696536Y5974741D1*
X10697306Y5952687D1*
X10696536Y5930633D1*
X10694229Y5908686D1*
X10690396Y5886954D1*
X10685057Y5865542D1*
X10678237Y5844554D1*
X10669969Y5824094D1*
X10660294Y5804260D1*
X10649258Y5785149D1*
X10636916Y5766854D1*
X10623328Y5749465D1*
X10608560Y5733065D1*
X10592684Y5717736D1*
X10575777Y5703551D1*
X10557921Y5690580D1*
X10539204Y5678886D1*
X10519717Y5668526D1*
X10499554Y5659551D1*
X10478814Y5652003D1*
X10457598Y5645920D1*
X10436010Y5641332D1*
X10414154Y5638261D1*
X10392137Y5636722D1*
X10370066D1*
X10348049Y5638261D1*
X10326193Y5641332D1*
X10304605Y5645920D1*
X10283389Y5652003D1*
X10262649Y5659551D1*
X10242487Y5668526D1*
X10222999Y5678886D1*
X10204282Y5690580D1*
X10186427Y5703551D1*
X10169520Y5717736D1*
X10153643Y5733065D1*
X10138875Y5749465D1*
X10125287Y5766854D1*
X10112945Y5785149D1*
X10101910Y5804260D1*
X10092235Y5824094D1*
X10083967Y5844554D1*
X10077146Y5865542D1*
X10071807Y5886954D1*
X10067974Y5908686D1*
X10065667Y5930633D1*
X10064897Y5952687D1*
X10231122Y6552716D2*
Y6352706D1*
X10531082D1*
Y6552716D1*
X10112056Y5952754D2*
X10112711Y5971523D1*
X10114674Y5990201D1*
X10117936Y6008696D1*
X10122480Y6026919D1*
X10128284Y6044780D1*
X10135320Y6062194D1*
X10143553Y6079074D1*
X10152945Y6095338D1*
X10163447Y6110908D1*
X10175011Y6125708D1*
X10187579Y6139664D1*
X10201090Y6152711D1*
X10215478Y6164783D1*
X10230673Y6175822D1*
X10246601Y6185774D1*
X10263185Y6194591D1*
X10280343Y6202230D1*
X10297993Y6208653D1*
X10316048Y6213830D1*
X10334419Y6217735D1*
X10353019Y6220348D1*
X10371756Y6221658D1*
X10390538D1*
X10409274Y6220348D1*
X10427874Y6217735D1*
X10446246Y6213830D1*
X10464300Y6208653D1*
X10481950Y6202230D1*
X10499108Y6194591D1*
X10515692Y6185774D1*
X10531620Y6175822D1*
X10546816Y6164783D1*
X10561204Y6152711D1*
X10574715Y6139664D1*
X10587282Y6125708D1*
X10598846Y6110908D1*
X10609349Y6095338D1*
X10618740Y6079074D1*
X10626974Y6062194D1*
X10634010Y6044780D1*
X10639814Y6026919D1*
X10644357Y6008696D1*
X10647619Y5990201D1*
X10649582Y5971523D1*
X10650238Y5952754D1*
X10649582Y5933984D1*
X10647619Y5915306D1*
X10644357Y5896811D1*
X10639814Y5878588D1*
X10634010Y5860727D1*
X10626974Y5843313D1*
X10618740Y5826433D1*
X10609349Y5810169D1*
X10598846Y5794599D1*
X10587282Y5779800D1*
X10574715Y5765843D1*
X10561204Y5752797D1*
X10546816Y5740725D1*
X10531620Y5729686D1*
X10515692Y5719733D1*
X10499108Y5710916D1*
X10481950Y5703277D1*
X10464300Y5696854D1*
X10446246Y5691677D1*
X10427874Y5687773D1*
X10409274Y5685159D1*
X10390538Y5683849D1*
X10371756D1*
X10353019Y5685159D1*
X10334419Y5687773D1*
X10316048Y5691677D1*
X10297993Y5696854D1*
X10280343Y5703277D1*
X10263185Y5710916D1*
X10246601Y5719733D1*
X10230673Y5729686D1*
X10215478Y5740725D1*
X10201090Y5752797D1*
X10187579Y5765843D1*
X10175011Y5779800D1*
X10163447Y5794599D1*
X10152945Y5810169D1*
X10143553Y5826433D1*
X10135320Y5843313D1*
X10128284Y5860727D1*
X10122480Y5878588D1*
X10117936Y5896811D1*
X10114674Y5915306D1*
X10112711Y5933984D1*
X10112056Y5952754D1*
X10361167Y5492651D2*
Y5282594D1*
X10401126D1*
Y5502832D1*
X1493853Y4116950D2*
D10*
X2001020D1*
Y3862950D2*
Y4116950D1*
X1493853Y3862950D2*
X2001020D1*
X1493853D2*
Y4116950D1*
X4319950Y5121544D2*
G03X4319950Y4688830I-115008J-216357D01*
G01*
Y4695347D2*
Y5115026D1*
X4740935Y3948547D2*
G03X4740935Y3564547I-169121J-192000D01*
G01*
Y3948547D1*
X4741703Y2984827D2*
G03X4741703Y2552113I-115008J-216357D01*
G01*
Y2558631D2*
Y2978309D1*
X7368827Y2436904D2*
G03X7368827Y2004190I-115008J-216357D01*
G01*
Y2010707D2*
Y2430386D1*
X2401337Y7929867D2*
Y8437033D1*
X2655337D2*
X2401337D1*
X2655337Y7929867D2*
Y8437033D1*
Y7929867D2*
X2401337D1*
X4574847Y5715753D2*
Y6222920D1*
X4828847D2*
X4574847D1*
X4828847Y5715753D2*
Y6222920D1*
Y5715753D2*
X4574847D1*
X5232013Y6222920D2*
Y5715753D1*
X4978013D2*
X5232013D1*
X4978013Y6222920D2*
Y5715753D1*
Y6222920D2*
X5232013D1*
Y5158770D2*
Y4651603D1*
X4978013D2*
X5232013D1*
X4978013Y5158770D2*
Y4651603D1*
Y5158770D2*
X5232013D1*
X4828847D2*
Y4651603D1*
X4574847D2*
X4828847D1*
X4574847Y5158770D2*
Y4651603D1*
Y5158770D2*
X4828847D1*
X3185667Y4651603D2*
Y5158770D1*
X3439667D2*
X3185667D1*
X3439667Y4651603D2*
Y5158770D1*
Y4651603D2*
X3185667D1*
X3852790Y5158770D2*
Y4651603D1*
X3598790D2*
X3852790D1*
X3598790Y5158770D2*
Y4651603D1*
Y5158770D2*
X3852790D1*
X5232013Y4010130D2*
Y3502963D1*
X4978013D2*
X5232013D1*
X4978013Y4010130D2*
Y3502963D1*
Y4010130D2*
X5232013D1*
X4978013Y2505237D2*
Y3012403D1*
X5232013D2*
X4978013D1*
X5232013Y2505237D2*
Y3012403D1*
Y2505237D2*
X4978013D1*
X4021050Y1174663D2*
X3513883D1*
Y1428663D2*
Y1174663D1*
X4021050Y1428663D2*
X3513883D1*
X4021050D2*
Y1174663D1*
X3513883Y1813913D2*
X4021050D1*
Y1559913D2*
Y1813913D1*
X3513883Y1559913D2*
X4021050D1*
X3513883D2*
Y1813913D1*
X6115210Y9349160D2*
X6622377D1*
Y9095160D2*
Y9349160D1*
X6115210Y9095160D2*
X6622377D1*
X6115210D2*
Y9349160D1*
X5130250Y9354550D2*
X5637417D1*
Y9100550D2*
Y9354550D1*
X5130250Y9100550D2*
X5637417D1*
X5130250D2*
Y9354550D1*
X9073603Y3783277D2*
Y3276110D1*
X8819603D2*
X9073603D1*
X8819603Y3783277D2*
Y3276110D1*
Y3783277D2*
X9073603D1*
X9252167Y1297040D2*
X9759333D1*
Y1043040D2*
Y1297040D1*
X9252167Y1043040D2*
X9759333D1*
X9252167D2*
Y1297040D1*
X2027433Y1555920D2*
X1520267D1*
Y1809920D2*
Y1555920D1*
X2027433Y1809920D2*
X1520267D1*
X2027433D2*
Y1555920D1*
X5148357Y10570950D2*
X4641190D1*
Y10824950D2*
Y10570950D1*
X5148357Y10824950D2*
X4641190D1*
X5148357D2*
Y10570950D1*
X5158687Y9685313D2*
X4651520D1*
Y9939313D2*
Y9685313D1*
X5158687Y9939313D2*
X4651520D1*
X5158687D2*
Y9685313D1*
X4651220Y9685133D2*
X5158387D1*
Y9431133D2*
Y9685133D1*
X4651220Y9431133D2*
X5158387D1*
X4651220D2*
Y9685133D1*
X9098307Y3276267D2*
Y3783433D1*
X9352307D2*
X9098307D1*
X9352307Y3276267D2*
Y3783433D1*
Y3276267D2*
X9098307D1*
X9492350Y4161880D2*
X8985183D1*
Y4415880D2*
Y4161880D1*
X9492350Y4415880D2*
X8985183D1*
X9492350D2*
Y4161880D1*
X9497127Y4449497D2*
X8989960D1*
Y4703497D2*
Y4449497D1*
X9497127Y4703497D2*
X8989960D1*
X9497127D2*
Y4449497D1*
X7690443Y2469547D2*
Y1962380D1*
X7436443D2*
X7690443D1*
X7436443Y2469547D2*
Y1962380D1*
Y2469547D2*
X7690443D1*
X7986320Y2467453D2*
Y1960287D1*
X7732320D2*
X7986320D1*
X7732320Y2467453D2*
Y1960287D1*
Y2467453D2*
X7986320D1*
X9252167Y1622993D2*
X9759333D1*
Y1368993D2*
Y1622993D1*
X9252167Y1368993D2*
X9759333D1*
X9252167D2*
Y1622993D1*
X8778180Y1368993D2*
X8271013D1*
Y1622993D2*
Y1368993D1*
X8778180Y1622993D2*
X8271013D1*
X8778180D2*
Y1368993D1*
X8271013Y1297040D2*
X8778180D1*
Y1043040D2*
Y1297040D1*
X8271013Y1043040D2*
X8778180D1*
X8271013D2*
Y1297040D1*
X7822617Y7540273D2*
X8521117D1*
Y8810354D1*
X7822617D1*
Y7540273D1*
X3428473Y7540106D2*
X4126973D1*
Y8810187D1*
X3428473D1*
Y7540106D1*
X7822317Y5444823D2*
X8520817D1*
Y6714904D1*
X7822317D1*
Y5444823D1*
X4159213Y10905857D2*
X3460713D1*
Y9635776D1*
X4159213D1*
Y10905857D1*
X10747677Y4619117D2*
X10049177D1*
Y3349036D1*
X10747677D1*
Y4619117D1*
X10022320Y1948482D2*
X8062320D1*
Y2468491D2*
Y1948482D1*
X10022320Y2468491D2*
X8062320D1*
X10022320D2*
Y2268538D1*
Y1948482D2*
Y2148436D1*
Y2268538D2*
G03X10022320Y2148436I75J-60051D01*
G01*
X5522104Y9673095D2*
Y10045084D1*
X6472196Y9673095D2*
Y10040124D1*
X5522104Y9673095D2*
X5602206D1*
X5522104Y10823110D2*
X6472196D1*
Y9673095D2*
X6387133D1*
X5522104Y10823110D2*
Y10518146D1*
X6472196Y10823110D2*
Y10508092D1*
X5522267Y7577425D2*
Y7949414D1*
X6472359Y7577425D2*
Y7944454D1*
X5522267Y7577425D2*
X5602369D1*
X5522267Y8727440D2*
X6472359D1*
Y7577425D2*
X6387296D1*
X5522267Y8727440D2*
Y8422476D1*
X6472359Y8727440D2*
Y8412422D1*
X5522467Y5481312D2*
Y5853300D1*
X6472559Y5481312D2*
Y5848341D1*
X5522467Y5481312D2*
X5602569D1*
X5522467Y6631327D2*
X6472559D1*
Y5481312D2*
X6387496D1*
X5522467Y6631327D2*
Y6326363D1*
X6472559Y6631327D2*
Y6316309D1*
X5522637Y3386282D2*
Y3758270D1*
X6472729Y3386282D2*
Y3753311D1*
X5522637Y3386282D2*
X5602739D1*
X5522637Y4536297D2*
X6472729D1*
Y3386282D2*
X6387666D1*
X5522637Y4536297D2*
Y4231333D1*
X6472729Y4536297D2*
Y4221279D1*
X5522667Y1290622D2*
Y1662610D1*
X6472759Y1290622D2*
Y1657651D1*
X5522667Y1290622D2*
X5602769D1*
X5522667Y2440637D2*
X6472759D1*
Y1290622D2*
X6387696D1*
X5522667Y2440637D2*
Y2135673D1*
X6472759Y2440637D2*
Y2125619D1*
X7712547Y3386745D2*
Y3758734D1*
X8662639Y3386745D2*
Y3753774D1*
X7712547Y3386745D2*
X7792649D1*
X7712547Y4536760D2*
X8662639D1*
Y3386745D2*
X8577576D1*
X7712547Y4536760D2*
Y4231796D1*
X8662639Y4536760D2*
Y4221742D1*
X1451270Y3858740D2*
D16*
X2053693D1*
Y2486130D1*
X1451270D1*
Y3858740D1*
X4133009Y6452500D2*
D89*
X4126972Y6464573D1*
X4114759Y6476787D1*
X4102685Y6482823D1*
X4078399D1*
X4066185Y6476787D1*
X4054112Y6464573D1*
X4047935Y6452500D1*
X4041899Y6434250D1*
Y6403787D1*
X4047935Y6385677D1*
X4054112Y6373464D1*
X4066185Y6361391D1*
X4078399Y6355214D1*
X4102685D1*
X4114759Y6361391D1*
X4126972Y6373464D1*
X4133009Y6385677D1*
X4172224Y6458396D2*
X4184438Y6464573D1*
X4202688Y6482683D1*
Y6355214D1*
X2640310Y4888597D2*
X2628237Y4882561D1*
X2616023Y4870347D1*
X2609987Y4858274D1*
Y4833988D1*
X2616023Y4821774D1*
X2628237Y4809701D1*
X2640310Y4803524D1*
X2658560Y4797488D1*
X2689023D1*
X2707133Y4803524D1*
X2719346Y4809701D1*
X2731420Y4821774D1*
X2737596Y4833988D1*
Y4858274D1*
X2731420Y4870347D1*
X2719346Y4882561D1*
X2707133Y4888597D1*
X2640450Y4933990D2*
X2634414D1*
X2622200Y4940026D1*
X2616164Y4946063D1*
X2610127Y4958276D1*
Y4982563D1*
X2616164Y4994636D1*
X2622200Y5000673D1*
X2634414Y5006849D1*
X2646487D1*
X2658700Y5000672D1*
X2676810Y4988599D1*
X2737596Y4927813D1*
Y5012886D1*
X3714494Y4344710D2*
X3708457Y4356783D1*
X3696244Y4368997D1*
X3684171Y4375033D1*
X3659884D1*
X3647671Y4368997D1*
X3635598Y4356783D1*
X3629421Y4344710D1*
X3623384Y4326460D1*
Y4295997D1*
X3629421Y4277887D1*
X3635598Y4265674D1*
X3647671Y4253601D1*
X3659884Y4247424D1*
X3684171D1*
X3696244Y4253601D1*
X3708457Y4265674D1*
X3714494Y4277887D1*
X3765923Y4374893D2*
X3832606D1*
X3796246Y4326320D1*
X3814496D1*
X3826569Y4320283D1*
X3832606Y4314247D1*
X3838783Y4295997D1*
Y4283924D1*
X3832606Y4265674D1*
X3820533Y4253460D1*
X3802283Y4247424D1*
X3784033D1*
X3765923Y4253460D1*
X3759886Y4259637D1*
X3753709Y4271710D1*
X3747859Y2353620D2*
X3741822Y2365693D1*
X3729609Y2377907D1*
X3717536Y2383943D1*
X3693249D1*
X3681036Y2377907D1*
X3668963Y2365693D1*
X3662786Y2353620D1*
X3656749Y2335370D1*
Y2304907D1*
X3662786Y2286797D1*
X3668963Y2274584D1*
X3681036Y2262511D1*
X3693249Y2256334D1*
X3717536D1*
X3729609Y2262511D1*
X3741822Y2274584D1*
X3747859Y2286797D1*
X3847861Y2256334D2*
Y2383803D1*
X3787075Y2298870D1*
X3878184D1*
X3723774Y3407507D2*
X3717737Y3419580D1*
X3705524Y3431793D1*
X3693451Y3437830D1*
X3669164D1*
X3656951Y3431793D1*
X3644878Y3419580D1*
X3638701Y3407507D1*
X3632664Y3389257D1*
Y3358793D1*
X3638701Y3340684D1*
X3644878Y3328470D1*
X3656951Y3316397D1*
X3669164Y3310220D1*
X3693451D1*
X3705524Y3316397D1*
X3717737Y3328470D1*
X3723774Y3340684D1*
X3835849Y3437690D2*
X3775203D1*
X3769166Y3383080D1*
X3775203Y3389116D1*
X3793453Y3395293D1*
X3811563D1*
X3829813Y3389116D1*
X3842026Y3377043D1*
X3848063Y3358793D1*
Y3346720D1*
X3842026Y3328470D1*
X3829813Y3316257D1*
X3811563Y3310220D1*
X3793453D1*
X3775203Y3316257D1*
X3769166Y3322434D1*
X3762989Y3334507D1*
X7096263Y7226376D2*
X7084190Y7220339D1*
X7071977Y7208126D1*
X7065940Y7196053D1*
Y7171766D1*
X7071977Y7159553D1*
X7084190Y7147480D1*
X7096263Y7141303D1*
X7114513Y7135266D1*
X7144977D1*
X7163086Y7141303D1*
X7175300Y7147480D1*
X7187373Y7159553D1*
X7193550Y7171766D1*
Y7196053D1*
X7187373Y7208126D1*
X7175300Y7220339D1*
X7163086Y7226376D1*
X7084190Y7338451D2*
X7072117Y7332414D1*
X7066081Y7314164D1*
Y7302091D1*
X7072117Y7283841D1*
X7090367Y7271628D1*
X7120690Y7265591D1*
X7151013D1*
X7175300Y7271628D1*
X7187513Y7283841D1*
X7193550Y7302091D1*
Y7308128D1*
X7187513Y7326237D1*
X7175300Y7338451D1*
X7157050Y7344487D1*
X7151013D1*
X7132763Y7338451D1*
X7120690Y7326237D1*
X7114654Y7308128D1*
Y7302091D1*
X7120690Y7283841D1*
X7132763Y7271628D1*
X7151013Y7265591D1*
X8918657Y7744980D2*
X8912621Y7757053D1*
X8900407Y7769267D1*
X8888334Y7775303D1*
X8864047D1*
X8851834Y7769267D1*
X8839761Y7757053D1*
X8833584Y7744980D1*
X8827547Y7726730D1*
Y7696267D1*
X8833584Y7678157D1*
X8839761Y7665944D1*
X8851834Y7653871D1*
X8864047Y7647694D1*
X8888334D1*
X8900407Y7653871D1*
X8912621Y7665944D1*
X8918657Y7678157D1*
X8982159Y7647694D2*
X9042946Y7775163D1*
X8957873D1*
X4463431Y7547620D2*
X4457394Y7559693D1*
X4445181Y7571907D1*
X4433108Y7577943D1*
X4408821D1*
X4396608Y7571907D1*
X4384534Y7559693D1*
X4378358Y7547620D1*
X4372321Y7529370D1*
Y7498907D1*
X4378358Y7480797D1*
X4384534Y7468584D1*
X4396608Y7456511D1*
X4408821Y7450334D1*
X4433108D1*
X4445181Y7456511D1*
X4457394Y7468584D1*
X4463431Y7480797D1*
X4532969Y7577803D2*
X4514860Y7571766D1*
X4508683Y7559693D1*
Y7547480D1*
X4514860Y7535407D1*
X4526933Y7529230D1*
X4551219Y7523193D1*
X4569469Y7517157D1*
X4581542Y7504943D1*
X4587579Y7492870D1*
Y7474620D1*
X4581542Y7462547D1*
X4575506Y7456370D1*
X4557256Y7450334D1*
X4532969D1*
X4514860Y7456370D1*
X4508683Y7462547D1*
X4502646Y7474620D1*
Y7492870D1*
X4508683Y7504943D1*
X4520896Y7517157D1*
X4539006Y7523193D1*
X4563292Y7529230D1*
X4575506Y7535407D1*
X4581542Y7547480D1*
Y7559693D1*
X4575506Y7571766D1*
X4557256Y7577803D1*
X4532969D1*
X2660230Y7106186D2*
X2648157Y7100149D1*
X2635943Y7087936D1*
X2629907Y7075863D1*
Y7051576D1*
X2635943Y7039363D1*
X2648157Y7027290D1*
X2660230Y7021113D1*
X2678480Y7015076D1*
X2708943D1*
X2727053Y7021113D1*
X2739266Y7027290D1*
X2751340Y7039363D1*
X2757516Y7051576D1*
Y7075862D1*
X2751340Y7087935D1*
X2739266Y7100149D1*
X2727053Y7106186D1*
X2672443Y7224438D2*
X2690693Y7218261D1*
X2702907Y7206188D1*
X2708943Y7187938D1*
Y7181901D1*
X2702907Y7163651D1*
X2690693Y7151578D1*
X2672443Y7145401D1*
X2666407D1*
X2648157Y7151578D1*
X2636084Y7163651D1*
X2630047Y7181901D1*
Y7187938D1*
X2636084Y7206188D1*
X2648157Y7218261D1*
X2672443Y7224438D1*
X2702907D1*
X2733230Y7218261D1*
X2751480Y7206188D1*
X2757516Y7187938D1*
Y7175865D1*
X2751480Y7157615D1*
X2739266Y7151578D1*
X8561377Y5042208D2*
X8549304Y5036171D1*
X8537090Y5023958D1*
X8531053Y5011885D1*
Y4987598D1*
X8537090Y4975385D1*
X8549303Y4963312D1*
X8561376Y4957135D1*
X8579626Y4951098D1*
X8610090D1*
X8628200Y4957135D1*
X8640413Y4963312D1*
X8652486Y4975385D1*
X8658663Y4987598D1*
Y5011885D1*
X8652486Y5023958D1*
X8640413Y5036171D1*
X8628200Y5042208D1*
X8555480Y5081423D2*
X8549304Y5093637D1*
X8531194Y5111887D1*
X8658663D1*
X8531194Y5187602D2*
X8537230Y5169352D1*
X8555480Y5157139D1*
X8585804Y5151102D1*
X8604054D1*
X8634377Y5157139D1*
X8652627Y5169352D1*
X8658663Y5187602D1*
Y5199675D1*
X8652627Y5217925D1*
X8634377Y5229999D1*
X8604053Y5236175D1*
X8585804D1*
X8555480Y5229999D1*
X8537230Y5217926D1*
X8531194Y5199676D1*
Y5187602D1*
X8555480Y5229999D2*
X8634377Y5157139D1*
X7305962Y5590334D2*
X7299926Y5602407D1*
X7287712Y5614620D1*
X7275639Y5620657D1*
X7251353D1*
X7239139Y5614620D1*
X7227066Y5602407D1*
X7220889Y5590334D1*
X7214853Y5572084D1*
Y5541620D1*
X7220889Y5523510D1*
X7227066Y5511297D1*
X7239139Y5499224D1*
X7251353Y5493047D1*
X7275639D1*
X7287712Y5499224D1*
X7299926Y5511297D1*
X7305962Y5523510D1*
X7345178Y5596230D2*
X7357391Y5602407D1*
X7375641Y5620516D1*
Y5493047D1*
X7414857Y5596230D2*
X7427071Y5602407D1*
X7445321Y5620516D1*
Y5493047D1*
X6898518Y1781784D2*
X6892481Y1793857D1*
X6880268Y1806070D1*
X6868194Y1812107D1*
X6843908D1*
X6831694Y1806070D1*
X6819621Y1793857D1*
X6813444Y1781784D1*
X6807408Y1763534D1*
Y1733070D1*
X6813444Y1714960D1*
X6819621Y1702747D1*
X6831694Y1690674D1*
X6843908Y1684497D1*
X6868194D1*
X6880268Y1690674D1*
X6892481Y1702747D1*
X6898518Y1714960D1*
X6937733Y1787680D2*
X6949947Y1793857D1*
X6968197Y1811966D1*
Y1684497D1*
X7013589Y1781643D2*
Y1787680D1*
X7019626Y1799893D1*
X7025662Y1805930D1*
X7037876Y1811966D1*
X7062162D1*
X7074235Y1805930D1*
X7080272Y1799893D1*
X7086449Y1787680D1*
Y1775607D1*
X7080272Y1763393D1*
X7068199Y1745284D1*
X7007412Y1684497D1*
X7092485D1*
X4771060Y1452668D2*
X4758987Y1446631D1*
X4746773Y1434418D1*
X4740737Y1422345D1*
Y1398058D1*
X4746773Y1385845D1*
X4758987Y1373772D1*
X4771060Y1367595D1*
X4789310Y1361558D1*
X4819773D1*
X4837883Y1367595D1*
X4850096Y1373772D1*
X4862170Y1385845D1*
X4868346Y1398058D1*
Y1422345D1*
X4862170Y1434418D1*
X4850096Y1446631D1*
X4837883Y1452668D1*
X4765164Y1491883D2*
X4758987Y1504097D1*
X4740877Y1522347D1*
X4868346D1*
X4740877Y1573776D2*
Y1640459D1*
X4789450Y1604099D1*
Y1622349D1*
X4795487Y1634422D1*
X4801523Y1640459D1*
X4819773Y1646635D1*
X4831846D1*
X4850096Y1640459D1*
X4862310Y1628385D1*
X4868346Y1610135D1*
Y1591885D1*
X4862310Y1573776D1*
X4856133Y1567739D1*
X4844060Y1561562D1*
X3834483Y9240244D2*
X3828446Y9252317D1*
X3816233Y9264530D1*
X3804160Y9270567D1*
X3779873D1*
X3767660Y9264530D1*
X3755586Y9252317D1*
X3749410Y9240244D1*
X3743373Y9221994D1*
Y9191530D1*
X3749410Y9173420D1*
X3755586Y9161207D1*
X3767660Y9149134D1*
X3779873Y9142957D1*
X3804160D1*
X3816233Y9149134D1*
X3828446Y9161207D1*
X3834483Y9173420D1*
X3873698Y9246140D2*
X3885912Y9252317D1*
X3904162Y9270426D1*
Y9142957D1*
X4004164D2*
Y9270426D1*
X3943377Y9185494D1*
X4034487D1*
X9606934Y5685150D2*
X9600898Y5697223D1*
X9588684Y5709437D1*
X9576611Y5715473D1*
X9552324D1*
X9540111Y5709437D1*
X9528038Y5697223D1*
X9521861Y5685150D1*
X9515824Y5666900D1*
Y5636437D1*
X9521861Y5618327D1*
X9528038Y5606114D1*
X9540111Y5594041D1*
X9552324Y5587864D1*
X9576611D1*
X9588684Y5594041D1*
X9600898Y5606114D1*
X9606934Y5618327D1*
X9646150Y5691046D2*
X9658363Y5697223D1*
X9676613Y5715333D1*
Y5587864D1*
X9746292Y5715333D2*
X9715829Y5678833D1*
X9752329Y5709296D1*
X9746292Y5715333D1*
X7333976Y3603134D2*
X7327939Y3615207D1*
X7315726Y3627420D1*
X7303653Y3633457D1*
X7279366D1*
X7267153Y3627420D1*
X7255080Y3615207D1*
X7248903Y3603134D1*
X7242866Y3584884D1*
Y3554420D1*
X7248903Y3536310D1*
X7255080Y3524097D1*
X7267153Y3512024D1*
X7279366Y3505847D1*
X7303653D1*
X7315726Y3512024D1*
X7327939Y3524097D1*
X7333976Y3536310D1*
X7379369Y3602993D2*
Y3609030D1*
X7385405Y3621243D1*
X7391442Y3627280D1*
X7403655Y3633316D1*
X7427942D1*
X7440015Y3627280D1*
X7446051Y3621243D1*
X7452228Y3609030D1*
Y3596957D1*
X7446051Y3584743D1*
X7433978Y3566634D1*
X7373192Y3505847D1*
X7458265D1*
X7527944Y3633316D2*
X7497480Y3596816D1*
X7533980Y3627280D1*
X7527944Y3633316D1*
X10393538Y2157143D2*
X10381465Y2151106D1*
X10369252Y2138893D1*
X10363215Y2126820D1*
Y2102533D1*
X10369252Y2090320D1*
X10381465Y2078247D1*
X10393538Y2072070D1*
X10411788Y2066033D1*
X10442252D1*
X10460361Y2072070D1*
X10472575Y2078247D1*
X10484648Y2090320D1*
X10490825Y2102533D1*
Y2126820D1*
X10484648Y2138893D1*
X10472575Y2151106D1*
X10460361Y2157143D1*
X10363356Y2208572D2*
Y2275255D1*
X10411929Y2238895D1*
Y2257145D1*
X10417965Y2269218D1*
X10424002Y2275255D1*
X10442252Y2281431D1*
X10454325D1*
X10472575Y2275254D1*
X10484788Y2263181D1*
X10490825Y2244931D1*
Y2226681D1*
X10484788Y2208572D1*
X10478611Y2202535D1*
X10466538Y2196358D1*
X10363356Y2351111D2*
X10399856Y2320647D1*
X10369392Y2357147D1*
X10363356Y2351111D1*
X7279638Y10356250D2*
X7273601Y10368323D1*
X7261388Y10380537D1*
X7249315Y10386573D1*
X7225028D1*
X7212815Y10380537D1*
X7200741Y10368323D1*
X7194565Y10356250D1*
X7188528Y10338000D1*
Y10307537D1*
X7194565Y10289427D1*
X7200741Y10277214D1*
X7212815Y10265141D1*
X7225028Y10258964D1*
X7249315D1*
X7261388Y10265141D1*
X7273601Y10277214D1*
X7279638Y10289427D1*
X7379640Y10258964D2*
Y10386433D1*
X7318853Y10301500D1*
X7409963D1*
X7479642Y10386433D2*
X7449179Y10349933D1*
X7485679Y10380396D1*
X7479642Y10386433D1*
X3022667Y10766317D2*
Y10638707D1*
X3065204D1*
X3083454Y10644884D1*
X3095667Y10656957D1*
X3101704Y10669170D1*
X3107740Y10687280D1*
Y10717744D1*
X3101704Y10735994D1*
X3095667Y10748067D1*
X3083454Y10760280D1*
X3065204Y10766317D1*
X3022667D1*
X3146956Y10741890D2*
X3159169Y10748067D1*
X3177419Y10766176D1*
Y10638707D1*
X4805820Y7015763D2*
X4933430D1*
Y7058299D1*
X4927253Y7076549D1*
X4915180Y7088763D1*
X4902966Y7094799D1*
X4884857Y7100836D1*
X4854393D1*
X4836143Y7094799D1*
X4824070Y7088763D1*
X4811857Y7076549D1*
X4805820Y7058299D1*
Y7015763D1*
X4836284Y7146228D2*
X4830247D1*
X4818034Y7152265D1*
X4811997Y7158301D1*
X4805961Y7170515D1*
Y7194801D1*
X4811997Y7206874D1*
X4818034Y7212911D1*
X4830247Y7219088D1*
X4842320D1*
X4854534Y7212911D1*
X4872643Y7200838D1*
X4933430Y7140051D1*
Y7225124D1*
X4330049Y10322253D2*
Y10194644D1*
X4372586D1*
X4390836Y10200821D1*
X4403049Y10212894D1*
X4409086Y10225107D1*
X4415122Y10243217D1*
Y10273680D1*
X4409086Y10291930D1*
X4403049Y10304003D1*
X4390836Y10316217D1*
X4372586Y10322253D1*
X4330049D1*
X4466551Y10322113D2*
X4533234D1*
X4496874Y10273540D1*
X4515124D1*
X4527197Y10267503D1*
X4533234Y10261467D1*
X4539411Y10243217D1*
Y10231144D1*
X4533234Y10212894D1*
X4521161Y10200680D1*
X4502911Y10194644D1*
X4484661D1*
X4466551Y10200680D1*
X4460515Y10206857D1*
X4454338Y10218930D1*
X9429074Y3412200D2*
X9556684D1*
Y3454736D1*
X9550507Y3472986D1*
X9538434Y3485200D1*
X9526221Y3491236D1*
X9508111Y3497273D1*
X9477647D1*
X9459397Y3491236D1*
X9447324Y3485200D1*
X9435111Y3472986D1*
X9429074Y3454736D1*
Y3412200D1*
X9453501Y3536488D2*
X9447324Y3548702D1*
X9429215Y3566952D1*
X9556684D1*
X9429215Y3636631D2*
X9465715Y3606167D1*
X9435251Y3642667D1*
X9429215Y3636631D1*
X9689608Y3390208D2*
X9817217D1*
Y3432745D1*
X9811040Y3450995D1*
X9798967Y3463208D1*
X9786754Y3469245D1*
X9768644Y3475281D1*
X9738181D1*
X9719931Y3469245D1*
X9707858Y3463208D1*
X9695644Y3450995D1*
X9689608Y3432745D1*
Y3390208D1*
X9720071Y3520674D2*
X9714035D1*
X9701821Y3526710D1*
X9695785Y3532747D1*
X9689748Y3544960D1*
Y3569247D1*
X9695785Y3581320D1*
X9701821Y3587356D1*
X9714035Y3593533D1*
X9726108D1*
X9738321Y3587356D1*
X9756431Y3575283D1*
X9817217Y3514497D1*
Y3599570D1*
X9689748Y3669249D2*
X9726248Y3638786D1*
X9695785Y3675286D1*
X9689748Y3669249D1*
X1626001Y2736208D2*
Y2608598D1*
X1668538D1*
X1686788Y2614775D1*
X1699001Y2626848D1*
X1705038Y2639062D1*
X1711074Y2657172D1*
Y2687635D1*
X1705038Y2705885D1*
X1699001Y2717958D1*
X1686788Y2730172D1*
X1668538Y2736208D1*
X1626001D1*
X1762503Y2736068D2*
X1829186D1*
X1792827Y2687495D1*
X1811077D1*
X1823150Y2681458D1*
X1829186Y2675422D1*
X1835363Y2657172D1*
Y2645098D1*
X1829186Y2626848D1*
X1817113Y2614635D1*
X1798863Y2608598D1*
X1780613D1*
X1762503Y2614635D1*
X1756467Y2620812D1*
X1750290Y2632885D1*
X1905042Y2736068D2*
X1874579Y2699568D1*
X1911079Y2730031D1*
X1905042Y2736068D1*
X2181294Y9295442D2*
Y9198295D1*
X2175257Y9180045D1*
X2169080Y9174009D1*
X2157007Y9167832D1*
X2144794D1*
X2132721Y9174009D1*
X2126684Y9180045D1*
X2120507Y9198295D1*
Y9210369D1*
X2220509Y9271015D2*
X2232723Y9277192D1*
X2250973Y9295301D1*
Y9167832D1*
X1825084Y8938660D2*
Y8841514D1*
X1819048Y8823264D1*
X1812871Y8817227D1*
X1800798Y8811050D1*
X1788584D1*
X1776511Y8817227D1*
X1770475Y8823264D1*
X1764298Y8841514D1*
Y8853587D1*
X1870477Y8908196D2*
Y8914233D1*
X1876513Y8926446D1*
X1882550Y8932483D1*
X1894763Y8938520D1*
X1919050D1*
X1931123Y8932483D1*
X1937160Y8926446D1*
X1943337Y8914233D1*
Y8902160D1*
X1937160Y8889946D1*
X1925087Y8871837D1*
X1864300Y8811050D1*
X1949373D1*
X10346113Y9060597D2*
Y8963450D1*
X10340077Y8945200D1*
X10333900Y8939164D1*
X10321827Y8932987D1*
X10309613D1*
X10297540Y8939164D1*
X10291504Y8945200D1*
X10285327Y8963450D1*
Y8975524D1*
X10397543Y9060456D2*
X10464225D1*
X10427866Y9011883D1*
X10446116D1*
X10458189Y9005847D1*
X10464225Y8999810D1*
X10470402Y8981560D1*
Y8969487D1*
X10464225Y8951237D1*
X10452152Y8939024D1*
X10433902Y8932987D1*
X10415652D1*
X10397543Y8939024D1*
X10391506Y8945200D1*
X10385329Y8957274D1*
X10338843Y6738702D2*
Y6641556D1*
X10332806Y6623306D1*
X10326629Y6617270D1*
X10314556Y6611093D1*
X10302343D1*
X10290269Y6617270D1*
X10284233Y6623306D1*
X10278056Y6641556D1*
Y6653629D1*
X10378058Y6714276D2*
X10390272Y6720452D1*
X10408522Y6738562D1*
Y6611093D1*
X10478201Y6738562D2*
X10447737Y6702062D1*
X10484237Y6732526D1*
X10478201Y6738562D1*
X1586718Y4302937D2*
Y4175327D1*
X1659578D1*
X1698793Y4302937D2*
Y4175327D1*
X1741330D1*
X1759580Y4181504D1*
X1771793Y4193577D1*
X1777830Y4205790D1*
X1783866Y4223900D1*
Y4254364D1*
X1777830Y4272614D1*
X1771793Y4284687D1*
X1759580Y4296900D1*
X1741330Y4302937D1*
X1698793D1*
X1823082Y4242150D2*
X1877692D1*
X1895942Y4248327D1*
X1902119Y4254364D1*
X1908155Y4266437D1*
Y4278650D1*
X1902119Y4290723D1*
X1895942Y4296900D1*
X1877692Y4302937D1*
X1823082D1*
Y4175327D1*
X1865619Y4242150D2*
X1908155Y4175327D1*
X4092950Y5336198D2*
X4080877Y5330302D1*
X4068664Y5318089D1*
X4062627Y5305875D1*
X4056450Y5287625D1*
Y5257302D1*
X4062627Y5239052D1*
X4068664Y5226979D1*
X4080877Y5214766D1*
X4092950Y5208729D1*
X4117237D1*
X4129450Y5214766D1*
X4141524Y5226979D1*
X4147560Y5239052D1*
X4153737Y5257302D1*
Y5287625D1*
X4147560Y5305875D1*
X4141524Y5318089D1*
X4129450Y5330302D1*
X4117237Y5336198D1*
X4092950D1*
X4111200Y5233016D2*
X4147560Y5196516D1*
X4192953Y5311771D2*
X4205166Y5317948D1*
X4223416Y5336058D1*
Y5208589D1*
X4454156Y4198396D2*
X4442083Y4192500D1*
X4429869Y4180286D1*
X4423833Y4168073D1*
X4417656Y4149823D1*
Y4119500D1*
X4423833Y4101250D1*
X4429869Y4089177D1*
X4442083Y4076963D1*
X4454156Y4070927D1*
X4478442D1*
X4490656Y4076963D1*
X4502729Y4089177D1*
X4508765Y4101250D1*
X4514942Y4119500D1*
Y4149823D1*
X4508765Y4168073D1*
X4502729Y4180286D1*
X4490656Y4192500D1*
X4478442Y4198396D1*
X4454156D1*
X4472406Y4095213D2*
X4508765Y4058713D1*
X4560335Y4167933D2*
Y4173969D1*
X4566371Y4186183D1*
X4572408Y4192219D1*
X4584621Y4198256D1*
X4608908D1*
X4620981Y4192219D1*
X4627018Y4186183D1*
X4633194Y4173969D1*
Y4161896D1*
X4627018Y4149683D1*
X4614944Y4131573D1*
X4554158Y4070786D1*
X4639231D1*
X4487399Y3199482D2*
X4475326Y3193586D1*
X4463112Y3181372D1*
X4457076Y3169159D1*
X4450899Y3150909D1*
Y3120586D1*
X4457076Y3102336D1*
X4463112Y3090262D1*
X4475326Y3078049D1*
X4487399Y3072012D1*
X4511686D1*
X4523899Y3078049D1*
X4535972Y3090262D1*
X4542009Y3102336D1*
X4548186Y3120586D1*
Y3150909D1*
X4542009Y3169159D1*
X4535972Y3181372D1*
X4523899Y3193586D1*
X4511686Y3199482D1*
X4487399D1*
X4505649Y3096299D2*
X4542009Y3059799D1*
X4599615Y3199341D2*
X4666297D1*
X4629938Y3150768D1*
X4648188D1*
X4660261Y3144732D1*
X4666297Y3138695D1*
X4672474Y3120445D1*
Y3108372D1*
X4666297Y3090122D1*
X4654224Y3077909D1*
X4635974Y3071872D1*
X4617724D1*
X4599615Y3077909D1*
X4593578Y3084086D1*
X4587401Y3096159D1*
X7103969Y2651558D2*
X7091896Y2645662D1*
X7079683Y2633449D1*
X7073646Y2621235D1*
X7067469Y2602985D1*
Y2572662D1*
X7073646Y2554412D1*
X7079683Y2542339D1*
X7091896Y2530126D1*
X7103969Y2524089D1*
X7128256D1*
X7140469Y2530126D1*
X7152542Y2542339D1*
X7158579Y2554412D1*
X7164756Y2572662D1*
Y2602985D1*
X7158579Y2621235D1*
X7152542Y2633449D1*
X7140469Y2645662D1*
X7128256Y2651558D1*
X7103969D1*
X7122219Y2548376D2*
X7158579Y2511876D1*
X7203972Y2627131D2*
X7216185Y2633308D1*
X7234435Y2651418D1*
Y2523949D1*
X7304114Y2651418D2*
X7273651Y2614918D1*
X7310151Y2645381D1*
X7304114Y2651418D1*
X2517667Y8106074D2*
X2517668Y8160684D1*
X2511491Y8178934D1*
X2505454Y8185111D1*
X2493381Y8191147D1*
X2481168D1*
X2469094Y8185111D1*
X2462918Y8178934D1*
X2456881Y8160684D1*
Y8106074D1*
X2584491D1*
X2517668Y8148611D2*
X2584491Y8191147D1*
X2481308Y8230363D2*
X2475131Y8242576D1*
X2457021Y8260826D1*
X2584491D1*
X4691177Y5864656D2*
X4691178Y5919266D1*
X4685001Y5937516D1*
X4678964Y5943693D1*
X4666891Y5949729D1*
X4654678D1*
X4642604Y5943693D1*
X4636428Y5937516D1*
X4630391Y5919266D1*
Y5864656D1*
X4758001D1*
X4691178Y5907193D2*
X4758001Y5949729D1*
X4660855Y5995122D2*
X4654818D1*
X4642605Y6001158D1*
X4636568Y6007195D1*
X4630531Y6019408D1*
Y6043695D1*
X4636568Y6055768D1*
X4642605Y6061804D1*
X4654818Y6067981D1*
X4666891D1*
X4679105Y6061804D1*
X4697214Y6049731D1*
X4758001Y5988945D1*
Y6074018D1*
X5094344Y5864656D2*
Y5919266D1*
X5088167Y5937516D1*
X5082131Y5943693D1*
X5070058Y5949729D1*
X5057844D1*
X5045771Y5943693D1*
X5039594Y5937516D1*
X5033558Y5919266D1*
Y5864656D1*
X5161167D1*
X5094344Y5907193D2*
X5161167Y5949729D1*
X5033698Y6001158D2*
Y6067841D1*
X5082271Y6031481D1*
Y6049731D1*
X5088308Y6061804D1*
X5094344Y6067841D1*
X5112594Y6074018D1*
X5124667D1*
X5142917Y6067841D1*
X5155131Y6055768D1*
X5161167Y6037518D1*
Y6019268D1*
X5155131Y6001158D1*
X5148954Y5995121D1*
X5136881Y5988945D1*
X5094344Y4797488D2*
Y4852097D1*
X5088167Y4870347D1*
X5082131Y4876524D1*
X5070058Y4882561D1*
X5057844D1*
X5045771Y4876524D1*
X5039594Y4870347D1*
X5033558Y4852097D1*
Y4797488D1*
X5161167D1*
X5094344Y4840024D2*
X5161167Y4882561D1*
Y4982563D2*
X5033698D1*
X5118631Y4921776D1*
Y5012886D1*
X4691177Y4800506D2*
X4691178Y4855116D1*
X4685001Y4873366D1*
X4678964Y4879543D1*
X4666891Y4885579D1*
X4654678D1*
X4642604Y4879543D1*
X4636428Y4873366D1*
X4630391Y4855116D1*
Y4800506D1*
X4758001D1*
X4691178Y4843043D2*
X4758001Y4885579D1*
X4630531Y4997654D2*
Y4937008D1*
X4685141Y4930972D1*
X4679105Y4937008D1*
X4672928Y4955258D1*
Y4973368D1*
X4679105Y4991618D1*
X4691178Y5003831D1*
X4709428Y5009868D1*
X4721501D1*
X4739751Y5003831D1*
X4751964Y4991618D1*
X4758001Y4973368D1*
Y4955258D1*
X4751964Y4937008D1*
X4745787Y4930971D1*
X4733714Y4924795D1*
X3301997Y4803595D2*
X3301998Y4858204D1*
X3295821Y4876454D1*
X3289784Y4882631D1*
X3277711Y4888668D1*
X3265498D1*
X3253424Y4882631D1*
X3247248Y4876454D1*
X3241211Y4858204D1*
Y4803595D1*
X3368821D1*
X3301998Y4846131D2*
X3368821Y4888667D1*
X3259461Y5000743D2*
X3247388Y4994706D1*
X3241351Y4976456D1*
Y4964383D1*
X3247388Y4946133D1*
X3265638Y4933920D1*
X3295961Y4927883D1*
X3326284D1*
X3350571Y4933920D1*
X3362784Y4946133D1*
X3368821Y4964383D1*
Y4970420D1*
X3362784Y4988529D1*
X3350571Y5000743D1*
X3332321Y5006779D1*
X3326284D1*
X3308034Y5000743D1*
X3295961Y4988529D1*
X3289925Y4970420D1*
Y4964383D1*
X3295961Y4946133D1*
X3308034Y4933920D1*
X3326284Y4927883D1*
X3715121Y4800506D2*
Y4855116D1*
X3708944Y4873366D1*
X3702907Y4879543D1*
X3690834Y4885579D1*
X3678621D1*
X3666548Y4879543D1*
X3660371Y4873366D1*
X3654334Y4855116D1*
Y4800506D1*
X3781944D1*
X3715121Y4843043D2*
X3781944Y4885579D1*
Y4949081D2*
X3654475Y5009868D1*
Y4924795D1*
X5094344Y3651936D2*
Y3706546D1*
X5088167Y3724796D1*
X5082131Y3730973D1*
X5070058Y3737009D1*
X5057844D1*
X5045771Y3730973D1*
X5039594Y3724796D1*
X5033558Y3706546D1*
Y3651936D1*
X5161167D1*
X5094344Y3694473D2*
X5161167Y3737009D1*
X5033698Y3806548D2*
X5039735Y3788438D1*
X5051808Y3782261D1*
X5064021D1*
X5076094Y3788438D1*
X5082271Y3800511D1*
X5088308Y3824798D1*
X5094344Y3843048D1*
X5106558Y3855121D1*
X5118631Y3861157D1*
X5136881D1*
X5148954Y3855121D1*
X5155131Y3849084D1*
X5161167Y3830834D1*
Y3806548D1*
X5155131Y3788438D1*
X5148954Y3782261D1*
X5136881Y3776225D1*
X5118631D1*
X5106558Y3782261D1*
X5094344Y3794475D1*
X5088308Y3812584D1*
X5082271Y3836871D1*
X5076094Y3849084D1*
X5064021Y3855121D1*
X5051808D1*
X5039735Y3849084D1*
X5033698Y3830834D1*
Y3806548D1*
X5094344Y2657158D2*
Y2711767D1*
X5088167Y2730017D1*
X5082131Y2736194D1*
X5070058Y2742231D1*
X5057844D1*
X5045771Y2736194D1*
X5039594Y2730017D1*
X5033558Y2711767D1*
Y2657158D1*
X5161167D1*
X5094344Y2699694D2*
X5161167Y2742231D1*
X5076094Y2860483D2*
X5094344Y2854306D1*
X5106558Y2842233D1*
X5112594Y2823983D1*
Y2817946D1*
X5106558Y2799696D1*
X5094344Y2787623D1*
X5076094Y2781446D1*
X5070058D1*
X5051808Y2787623D1*
X5039735Y2799696D1*
X5033698Y2817946D1*
Y2823983D1*
X5039735Y2842233D1*
X5051808Y2854306D1*
X5076094Y2860483D1*
X5106558D1*
X5136881Y2854306D1*
X5155131Y2842233D1*
X5161167Y2823983D1*
Y2811910D1*
X5155131Y2793660D1*
X5142917Y2787623D1*
X3627946Y1312333D2*
X3682556D1*
X3700806Y1318509D1*
X3706983Y1324546D1*
X3713019Y1336619D1*
Y1348833D1*
X3706983Y1360906D1*
X3700806Y1367083D1*
X3682556Y1373119D1*
X3627946D1*
Y1245509D1*
X3670483Y1312333D2*
X3713019Y1245509D1*
X3752235Y1348692D2*
X3764448Y1354869D1*
X3782698Y1372979D1*
Y1245509D1*
X3858414Y1372979D2*
X3840164Y1366942D1*
X3827951Y1348692D1*
X3821914Y1318369D1*
Y1300119D1*
X3827951Y1269796D1*
X3840164Y1251546D1*
X3858414Y1245509D1*
X3870487D1*
X3888737Y1251546D1*
X3900810Y1269796D1*
X3906987Y1300119D1*
Y1318369D1*
X3900810Y1348692D1*
X3888737Y1366942D1*
X3870487Y1372979D1*
X3858414D1*
X3900810Y1348692D2*
X3827951Y1269796D1*
X3655251Y1697583D2*
X3709861D1*
X3728111Y1703759D1*
X3734288Y1709796D1*
X3740324Y1721869D1*
Y1734083D1*
X3734288Y1746156D1*
X3728111Y1752333D1*
X3709861Y1758369D1*
X3655251D1*
Y1630759D1*
X3697788Y1697583D2*
X3740324Y1630759D1*
X3779540Y1733942D2*
X3791753Y1740119D1*
X3810003Y1758229D1*
Y1630759D1*
X3849219Y1733942D2*
X3861432Y1740119D1*
X3879682Y1758229D1*
Y1630759D1*
X6229273Y9232829D2*
X6283882D1*
X6302132Y9239006D1*
X6308309Y9245043D1*
X6314346Y9257116D1*
Y9269329D1*
X6308309Y9281402D1*
X6302132Y9287579D1*
X6283882Y9293616D1*
X6229273D1*
Y9166006D1*
X6271809Y9232829D2*
X6314346Y9166006D1*
X6353562Y9269189D2*
X6365775Y9275366D1*
X6384025Y9293475D1*
Y9166006D1*
X6429418Y9263152D2*
Y9269189D1*
X6435454Y9281402D1*
X6441491Y9287439D1*
X6453704Y9293475D1*
X6477991D1*
X6490064Y9287439D1*
X6496100Y9281402D1*
X6502277Y9269189D1*
Y9257116D1*
X6496100Y9244902D1*
X6484027Y9226793D1*
X6423241Y9166006D1*
X6508314D1*
X5244313Y9238219D2*
X5298922D1*
X5317172Y9244396D1*
X5323349Y9250433D1*
X5329386Y9262506D1*
Y9274719D1*
X5323349Y9286792D1*
X5317172Y9292969D1*
X5298922Y9299006D1*
X5244313D1*
Y9171396D1*
X5286849Y9238219D2*
X5329386Y9171396D1*
X5368602Y9274579D2*
X5380815Y9280756D1*
X5399065Y9298865D1*
Y9171396D1*
X5450494Y9298865D2*
X5517177D1*
X5480817Y9250292D1*
X5499067D1*
X5511140Y9244256D1*
X5517177Y9238219D1*
X5523354Y9219969D1*
Y9207896D1*
X5517177Y9189646D1*
X5505104Y9177433D1*
X5486854Y9171396D1*
X5468604D1*
X5450494Y9177433D1*
X5444458Y9183610D1*
X5438281Y9195683D1*
X8935934Y3414460D2*
Y3469069D1*
X8929757Y3487319D1*
X8923721Y3493496D1*
X8911648Y3499533D1*
X8899434D1*
X8887361Y3493496D1*
X8881184Y3487319D1*
X8875148Y3469069D1*
Y3414460D1*
X9002757D1*
X8935934Y3456996D2*
X9002757Y3499533D1*
X8899575Y3538748D2*
X8893398Y3550962D1*
X8875288Y3569212D1*
X9002757D1*
X8875288Y3638891D2*
X8911788Y3608427D1*
X8881325Y3644927D1*
X8875288Y3638891D1*
X9328372Y1180709D2*
X9382981D1*
X9401231Y1186886D1*
X9407408Y1192923D1*
X9413445Y1204996D1*
Y1217209D1*
X9407408Y1229282D1*
X9401231Y1235459D1*
X9382981Y1241496D1*
X9328372D1*
Y1113886D1*
X9370908Y1180709D2*
X9413445Y1113886D1*
X9452660Y1217069D2*
X9464874Y1223246D1*
X9483124Y1241355D1*
Y1113886D1*
X9558840Y1241355D2*
X9540590Y1235319D1*
X9528376Y1217069D1*
X9522340Y1186746D1*
Y1168496D1*
X9528376Y1138173D1*
X9540590Y1119923D1*
X9558840Y1113886D1*
X9570913D1*
X9589163Y1119923D1*
X9601236Y1138173D1*
X9607413Y1168496D1*
Y1186746D1*
X9601236Y1217069D1*
X9589163Y1235319D1*
X9570913Y1241355D1*
X9558840D1*
X9601236Y1217069D2*
X9528376Y1138173D1*
X9677092Y1241355D2*
X9646628Y1204855D1*
X9683128Y1235319D1*
X9677092Y1241355D1*
X1623776Y1693589D2*
X1678386D1*
X1696636Y1699766D1*
X1702813Y1705803D1*
X1708850Y1717876D1*
Y1730089D1*
X1702813Y1742162D1*
X1696636Y1748339D1*
X1678386Y1754376D1*
X1623776D1*
Y1626766D1*
X1666313Y1693589D2*
X1708850Y1626766D1*
X1748065Y1729949D2*
X1760279Y1736126D1*
X1778529Y1754235D1*
Y1626766D1*
X1817744Y1729949D2*
X1829958Y1736126D1*
X1848208Y1754235D1*
Y1626766D1*
X1917887Y1754235D2*
X1887424Y1717735D1*
X1923924Y1748199D1*
X1917887Y1754235D1*
X4752235Y10708619D2*
X4806844D1*
X4825094Y10714796D1*
X4831271Y10720833D1*
X4837308Y10732906D1*
Y10745119D1*
X4831271Y10757192D1*
X4825094Y10763369D1*
X4806844Y10769406D1*
X4752235D1*
Y10641796D1*
X4794771Y10708619D2*
X4837308Y10641796D1*
X4876523Y10744979D2*
X4888737Y10751156D1*
X4906987Y10769265D1*
Y10641796D1*
X5006989D2*
Y10769265D1*
X4946202Y10684333D1*
X5037312D1*
X4727725Y9822983D2*
X4782335D1*
X4800585Y9829159D1*
X4806762Y9835196D1*
X4812798Y9847269D1*
Y9859483D1*
X4806762Y9871556D1*
X4800585Y9877733D1*
X4782335Y9883769D1*
X4727725D1*
Y9756159D1*
X4770262Y9822983D2*
X4812798Y9756159D1*
X4852014Y9859342D2*
X4864227Y9865519D1*
X4882477Y9883629D1*
Y9756159D1*
X4927870Y9853306D2*
Y9859342D1*
X4933906Y9871556D1*
X4939943Y9877592D1*
X4952156Y9883629D1*
X4976443D1*
X4988516Y9877592D1*
X4994553Y9871556D1*
X5000729Y9859342D1*
Y9847269D1*
X4994553Y9835056D1*
X4982479Y9816946D1*
X4921693Y9756159D1*
X5006766D1*
X5076445Y9883629D2*
X5045982Y9847129D1*
X5082482Y9877592D1*
X5076445Y9883629D1*
X4727425Y9568803D2*
X4782035D1*
X4800285Y9574979D1*
X4806462Y9581016D1*
X4812498Y9593089D1*
Y9605303D1*
X4806462Y9617376D1*
X4800285Y9623553D1*
X4782035Y9629589D1*
X4727425D1*
Y9501979D1*
X4769962Y9568803D2*
X4812498Y9501979D1*
X4851714Y9605162D2*
X4863927Y9611339D1*
X4882177Y9629449D1*
Y9501979D1*
X4933606Y9629449D2*
X5000289D1*
X4963929Y9580876D1*
X4982179D1*
X4994253Y9574839D1*
X5000289Y9568803D1*
X5006466Y9550553D1*
Y9538479D1*
X5000289Y9520229D1*
X4988216Y9508016D1*
X4969966Y9501979D1*
X4951716D1*
X4933606Y9508016D1*
X4927570Y9514193D1*
X4921393Y9526266D1*
X5076145Y9629449D2*
X5045682Y9592949D1*
X5082182Y9623412D1*
X5076145Y9629449D1*
X9214637Y3387312D2*
X9214638Y3441921D1*
X9208461Y3460171D1*
X9202424Y3466348D1*
X9190351Y3472385D1*
X9178138D1*
X9166064Y3466348D1*
X9159888Y3460171D1*
X9153851Y3441921D1*
Y3387312D1*
X9281461D1*
X9214638Y3429848D2*
X9281461Y3472384D1*
X9184315Y3517777D2*
X9178278D1*
X9166065Y3523814D1*
X9160028Y3529850D1*
X9153991Y3542064D1*
Y3566350D1*
X9160028Y3578423D1*
X9166065Y3584460D1*
X9178278Y3590637D1*
X9190351D1*
X9202565Y3584460D1*
X9220674Y3572387D1*
X9281461Y3511600D1*
Y3596673D1*
X9153991Y3666352D2*
X9190491Y3635889D1*
X9160028Y3672389D1*
X9153991Y3666352D1*
X9096228Y4299549D2*
X9150838D1*
X9169088Y4305726D1*
X9175264Y4311763D1*
X9181301Y4323836D1*
Y4336049D1*
X9175264Y4348122D1*
X9169088Y4354299D1*
X9150838Y4360336D1*
X9096228D1*
Y4232726D1*
X9138764Y4299549D2*
X9181301Y4232726D1*
X9232730Y4360195D2*
X9299413D1*
X9263053Y4311622D1*
X9281303D1*
X9293376Y4305586D1*
X9299413Y4299549D1*
X9305590Y4281299D1*
Y4269226D1*
X9299413Y4250976D1*
X9287340Y4238763D1*
X9269090Y4232726D1*
X9250840D1*
X9232730Y4238763D1*
X9226694Y4244940D1*
X9220517Y4257013D1*
X9375269Y4360195D2*
X9344805Y4323695D1*
X9381305Y4354159D1*
X9375269Y4360195D1*
X9097986Y4587166D2*
X9152596D1*
X9170846Y4593343D1*
X9177023Y4599379D1*
X9183059Y4611452D1*
Y4623666D1*
X9177023Y4635739D1*
X9170846Y4641916D1*
X9152596Y4647952D1*
X9097986D1*
Y4520343D1*
X9140523Y4587166D2*
X9183059Y4520343D1*
X9283062D2*
Y4647812D1*
X9222275Y4562879D1*
X9313385D1*
X9383064Y4647812D2*
X9352600Y4611312D1*
X9389100Y4641776D1*
X9383064Y4647812D1*
X7552774Y2073425D2*
Y2128034D1*
X7546597Y2146284D1*
X7540561Y2152461D1*
X7528488Y2158498D1*
X7516274D1*
X7504201Y2152461D1*
X7498024Y2146284D1*
X7491988Y2128034D1*
Y2073425D1*
X7619597D1*
X7552774Y2115961D2*
X7619597Y2158498D1*
X7492128Y2270573D2*
Y2209927D1*
X7546738Y2203890D1*
X7540701Y2209927D1*
X7534524Y2228177D1*
Y2246287D1*
X7540701Y2264537D1*
X7552774Y2276750D1*
X7571024Y2282786D1*
X7583097D1*
X7601347Y2276750D1*
X7613561Y2264536D1*
X7619597Y2246286D1*
Y2228177D1*
X7613561Y2209927D1*
X7607384Y2203890D1*
X7595311Y2197713D1*
X7492128Y2352466D2*
X7528628Y2322002D1*
X7498165Y2358502D1*
X7492128Y2352466D1*
X7848651Y2074420D2*
Y2129030D1*
X7842474Y2147280D1*
X7836437Y2153456D1*
X7824364Y2159493D1*
X7812151D1*
X7800078Y2153457D1*
X7793901Y2147280D1*
X7787864Y2129030D1*
Y2074420D1*
X7915474D1*
X7848651Y2116957D2*
X7915474Y2159493D1*
X7806114Y2271568D2*
X7794041Y2265532D1*
X7788005Y2247282D1*
Y2235209D1*
X7794041Y2216959D1*
X7812291Y2204745D1*
X7842614Y2198709D1*
X7872937D1*
X7897224Y2204745D1*
X7909437Y2216959D1*
X7915474Y2235208D1*
Y2241245D1*
X7909437Y2259355D1*
X7897224Y2271568D1*
X7878974Y2277605D1*
X7872937D1*
X7854687Y2271568D1*
X7842614Y2259355D1*
X7836578Y2241245D1*
Y2235209D1*
X7842614Y2216959D1*
X7854687Y2204745D1*
X7872937Y2198709D1*
X7788005Y2347284D2*
X7824505Y2316820D1*
X7794041Y2353320D1*
X7788005Y2347284D1*
X9363211Y1506663D2*
X9417821D1*
X9436071Y1512839D1*
X9442248Y1518876D1*
X9448284Y1530949D1*
Y1543163D1*
X9442248Y1555236D1*
X9436071Y1561413D1*
X9417821Y1567449D1*
X9363211D1*
Y1439839D1*
X9405748Y1506663D2*
X9448284Y1439839D1*
X9511787D2*
X9572573Y1567309D1*
X9487500D1*
X9642252D2*
X9611789Y1530809D1*
X9648289Y1561272D1*
X9642252Y1567309D1*
X8382128Y1506663D2*
X8436738D1*
X8454988Y1512839D1*
X8461165Y1518876D1*
X8467201Y1530949D1*
Y1543163D1*
X8461165Y1555236D1*
X8454988Y1561413D1*
X8436738Y1567449D1*
X8382128D1*
Y1439839D1*
X8424665Y1506663D2*
X8467201Y1439839D1*
X8536740Y1567309D2*
X8518630Y1561272D1*
X8512453Y1549199D1*
Y1536986D1*
X8518630Y1524913D1*
X8530703Y1518736D1*
X8554990Y1512699D1*
X8573240Y1506663D1*
X8585313Y1494449D1*
X8591350Y1482376D1*
Y1464126D1*
X8585313Y1452053D1*
X8579276Y1445876D1*
X8561026Y1439839D1*
X8536740D1*
X8518630Y1445876D1*
X8512453Y1452053D1*
X8506417Y1464126D1*
Y1482376D1*
X8512453Y1494449D1*
X8524667Y1506663D1*
X8542776Y1512699D1*
X8567063Y1518736D1*
X8579276Y1524913D1*
X8585313Y1536986D1*
Y1549199D1*
X8579276Y1561272D1*
X8561026Y1567309D1*
X8536740D1*
X8661029D2*
X8630565Y1530809D1*
X8667065Y1561272D1*
X8661029Y1567309D1*
X8385076Y1180709D2*
X8439686D1*
X8457936Y1186886D1*
X8464113Y1192923D1*
X8470149Y1204996D1*
Y1217209D1*
X8464113Y1229282D1*
X8457936Y1235459D1*
X8439686Y1241496D1*
X8385076D1*
Y1113886D1*
X8427613Y1180709D2*
X8470149Y1113886D1*
X8588401Y1198959D2*
X8582225Y1180709D1*
X8570151Y1168496D1*
X8551901Y1162459D1*
X8545865D1*
X8527615Y1168496D1*
X8515542Y1180709D1*
X8509365Y1198959D1*
Y1204996D1*
X8515542Y1223246D1*
X8527615Y1235319D1*
X8545865Y1241355D1*
X8551901D1*
X8570151Y1235319D1*
X8582225Y1223246D1*
X8588401Y1198959D1*
Y1168496D1*
X8582225Y1138173D1*
X8570151Y1119923D1*
X8551901Y1113886D1*
X8539828D1*
X8521578Y1119923D1*
X8515542Y1132136D1*
X8658081Y1241355D2*
X8627617Y1204855D1*
X8664117Y1235319D1*
X8658081Y1241355D1*
X8179564Y9003450D2*
X8167491Y9015663D1*
X8149241Y9021700D1*
X8124954D1*
X8106704Y9015663D1*
X8094491Y9003450D1*
Y8991377D1*
X8100667Y8979163D1*
X8106704Y8973127D1*
X8118777Y8967090D1*
X8155277Y8954877D1*
X8167491Y8948840D1*
X8173527Y8942663D1*
X8179564Y8930590D1*
Y8912340D1*
X8167491Y8900267D1*
X8149241Y8894090D1*
X8124954D1*
X8106704Y8900267D1*
X8094491Y8912340D1*
X8218779Y8997273D2*
X8230993Y9003450D1*
X8249243Y9021560D1*
Y8894090D1*
X3758115Y9003283D2*
X3746042Y9015497D1*
X3727792Y9021533D1*
X3703506D1*
X3685256Y9015497D1*
X3673042Y9003283D1*
Y8991210D1*
X3679219Y8978997D1*
X3685256Y8972960D1*
X3697329Y8966924D1*
X3733829Y8954710D1*
X3746042Y8948674D1*
X3752079Y8942497D1*
X3758115Y8930424D1*
Y8912174D1*
X3746042Y8900101D1*
X3727792Y8893924D1*
X3703506D1*
X3685256Y8900101D1*
X3673042Y8912174D1*
X3803508Y8991070D2*
Y8997106D1*
X3809545Y9009320D1*
X3815581Y9015356D1*
X3827795Y9021393D1*
X3852081D1*
X3864154Y9015356D1*
X3870191Y9009320D1*
X3876368Y8997106D1*
Y8985033D1*
X3870191Y8972820D1*
X3858118Y8954710D1*
X3797331Y8893924D1*
X3882404D1*
X8151959Y6908000D2*
X8139886Y6920213D1*
X8121636Y6926250D1*
X8097349D1*
X8079099Y6920213D1*
X8066886Y6908000D1*
Y6895927D1*
X8073063Y6883713D1*
X8079099Y6877677D1*
X8091172Y6871640D1*
X8127672Y6859427D1*
X8139886Y6853390D1*
X8145922Y6847213D1*
X8151959Y6835140D1*
Y6816890D1*
X8139886Y6804817D1*
X8121636Y6798640D1*
X8097349D1*
X8079099Y6804817D1*
X8066886Y6816890D1*
X8203388Y6926110D2*
X8270071D1*
X8233711Y6877536D1*
X8251961D1*
X8264034Y6871500D1*
X8270071Y6865463D1*
X8276248Y6847213D1*
Y6835140D1*
X8270071Y6816890D1*
X8257998Y6804677D1*
X8239748Y6798640D1*
X8221498D1*
X8203388Y6804677D1*
X8197351Y6810854D1*
X8191175Y6822927D1*
X3787337Y9549092D2*
X3775264Y9561305D1*
X3757014Y9567342D1*
X3732728D1*
X3714478Y9561305D1*
X3702264Y9549092D1*
Y9537019D1*
X3708441Y9524805D1*
X3714478Y9518769D1*
X3726551Y9512732D1*
X3763051Y9500519D1*
X3775264Y9494482D1*
X3781301Y9488305D1*
X3787337Y9476232D1*
Y9457982D1*
X3775264Y9445909D1*
X3757014Y9439732D1*
X3732728D1*
X3714478Y9445909D1*
X3702264Y9457982D1*
X3887339Y9439732D2*
Y9567201D1*
X3826553Y9482269D1*
X3917663D1*
X10368266Y4812213D2*
X10356193Y4824427D1*
X10337943Y4830463D1*
X10313656D1*
X10295406Y4824427D1*
X10283193Y4812213D1*
Y4800140D1*
X10289370Y4787927D1*
X10295406Y4781890D1*
X10307479Y4775854D1*
X10343979Y4763640D1*
X10356193Y4757604D1*
X10362229Y4751427D1*
X10368266Y4739354D1*
Y4721104D1*
X10356193Y4709031D1*
X10337943Y4702854D1*
X10313656D1*
X10295406Y4709031D1*
X10283193Y4721104D1*
X10407481Y4806036D2*
X10419695Y4812213D1*
X10437945Y4830323D1*
Y4702854D1*
X10507624Y4830323D2*
X10477161Y4793823D1*
X10513661Y4824286D1*
X10507624Y4830323D1*
X8964944Y2935473D2*
Y2844364D1*
X8970980Y2826114D1*
X8983194Y2814041D1*
X9001444Y2807864D1*
X9013517D1*
X9031767Y2814041D1*
X9043980Y2826114D1*
X9050017Y2844364D1*
Y2935473D1*
X9089233Y2911046D2*
X9101446Y2917223D1*
X9119696Y2935333D1*
Y2807864D1*
X5851593Y9439535D2*
X5900166Y9311925D1*
X5948739Y9439535D1*
X5987955Y9378748D2*
X6042564D1*
X6060814Y9384925D1*
X6066991Y9390962D1*
X6073028Y9403035D1*
Y9415248D1*
X6066991Y9427321D1*
X6060814Y9433498D1*
X6042564Y9439535D1*
X5987955D1*
Y9311925D1*
X6030491Y9378748D2*
X6073028Y9311925D1*
X6112244Y9415108D2*
X6124457Y9421285D1*
X6142707Y9439395D1*
Y9311925D1*
X5824451Y7343865D2*
X5873025Y7216255D1*
X5921598Y7343865D1*
X5960813Y7283078D2*
X6015423D1*
X6033673Y7289255D1*
X6039850Y7295292D1*
X6045886Y7307365D1*
Y7319578D1*
X6039850Y7331651D1*
X6033673Y7337828D1*
X6015423Y7343865D1*
X5960813D1*
Y7216255D1*
X6003350Y7283078D2*
X6045886Y7216255D1*
X6091279Y7313401D2*
Y7319438D1*
X6097316Y7331651D1*
X6103352Y7337688D1*
X6115566Y7343725D1*
X6139852D1*
X6151925Y7337688D1*
X6157962Y7331651D1*
X6164139Y7319438D1*
Y7307365D1*
X6157962Y7295151D1*
X6145889Y7277042D1*
X6085102Y7216255D1*
X6170175D1*
X5824651Y5247752D2*
X5873225Y5120142D1*
X5921798Y5247752D1*
X5961013Y5186965D2*
X6015623D1*
X6033873Y5193142D1*
X6040050Y5199179D1*
X6046086Y5211252D1*
Y5223465D1*
X6040050Y5235538D1*
X6033873Y5241715D1*
X6015623Y5247752D1*
X5961013D1*
Y5120142D1*
X6003550Y5186965D2*
X6046086Y5120142D1*
X6097516Y5247611D2*
X6164198D1*
X6127839Y5199038D1*
X6146089D1*
X6158162Y5193002D1*
X6164198Y5186965D1*
X6170375Y5168715D1*
Y5156642D1*
X6164198Y5138392D1*
X6152125Y5126179D1*
X6133875Y5120142D1*
X6115625D1*
X6097516Y5126179D1*
X6091479Y5132355D1*
X6085302Y5144429D1*
X5821803Y3152722D2*
X5870376Y3025112D1*
X5918949Y3152722D1*
X5958165Y3091935D2*
X6012775D1*
X6031025Y3098112D1*
X6037202Y3104149D1*
X6043238Y3116222D1*
Y3128435D1*
X6037202Y3140508D1*
X6031025Y3146685D1*
X6012775Y3152722D1*
X5958165D1*
Y3025112D1*
X6000702Y3091935D2*
X6043238Y3025112D1*
X6143240D2*
Y3152581D1*
X6082454Y3067649D1*
X6173563D1*
X5824851Y2626623D2*
X5873425Y2499014D1*
X5921998Y2626623D1*
X5961213Y2565837D2*
X6015823D1*
X6034073Y2572014D1*
X6040250Y2578050D1*
X6046286Y2590123D1*
Y2602337D1*
X6040250Y2614410D1*
X6034073Y2620587D1*
X6015823Y2626623D1*
X5961213D1*
Y2499014D1*
X6003750Y2565837D2*
X6046286Y2499014D1*
X6158362Y2626483D2*
X6097716D1*
X6091679Y2571873D1*
X6097716Y2577910D1*
X6115966Y2584087D1*
X6134075D1*
X6152325Y2577910D1*
X6164539Y2565837D1*
X6170575Y2547587D1*
Y2535514D1*
X6164539Y2517264D1*
X6152325Y2505050D1*
X6134075Y2499014D1*
X6115966D1*
X6097716Y2505050D1*
X6091679Y2511227D1*
X6085502Y2523300D1*
X8004178Y4722747D2*
X8052752Y4595137D1*
X8101325Y4722747D1*
X8140540Y4661960D2*
X8195150D1*
X8213400Y4668137D1*
X8219577Y4674174D1*
X8225613Y4686247D1*
Y4698460D1*
X8219577Y4710533D1*
X8213400Y4716710D1*
X8195150Y4722747D1*
X8140540D1*
Y4595137D1*
X8183077Y4661960D2*
X8225613Y4595137D1*
X8264829Y4698320D2*
X8277043Y4704497D1*
X8295293Y4722606D1*
Y4595137D1*
X8364972Y4722606D2*
X8334508Y4686106D1*
X8371008Y4716570D1*
X8364972Y4722606D1*
X1111259Y6614799D2*
X1238868Y6663513D1*
X1111259Y6712086D1*
X1153795Y6693836D2*
Y6633049D1*
X1238868Y6575584D2*
X1111259Y6527011D1*
X1238868Y6478438D1*
Y6360326D2*
Y6439222D1*
X1111259D1*
Y6360326D1*
X1178082Y6439222D2*
Y6390649D1*
X1111259Y6100518D2*
X1238868D1*
X1111259Y6149091D1*
X1238868Y6197664D1*
X1111259D1*
X1238868Y6024802D2*
X1232832Y6037015D1*
X1220618Y6049088D1*
X1208545Y6055265D1*
X1190295Y6061302D1*
X1159832D1*
X1141722Y6055265D1*
X1129509Y6049088D1*
X1117436Y6037015D1*
X1111259Y6024802D1*
Y6000515D1*
X1117436Y5988442D1*
X1129509Y5976229D1*
X1141722Y5970192D1*
X1159832Y5964156D1*
X1190295D1*
X1208545Y5970192D1*
X1220618Y5976229D1*
X1232832Y5988442D1*
X1238868Y6000515D1*
Y6024802D1*
Y5924940D2*
X1111259D1*
Y5882403D1*
X1117436Y5864153D1*
X1129509Y5851940D1*
X1141722Y5845903D1*
X1159832Y5839867D1*
X1190295D1*
X1208545Y5845903D1*
X1220618Y5851940D1*
X1232832Y5864153D1*
X1238868Y5882403D1*
Y5924940D1*
Y5677205D2*
X1111259Y5628632D1*
X1238868Y5580059D1*
X1208405Y5534666D2*
X1214441D1*
X1226655Y5528630D1*
X1232691Y5522593D1*
X1238728Y5510380D1*
Y5486093D1*
X1232691Y5474020D1*
X1226655Y5467983D1*
X1214441Y5461806D1*
X1202368D1*
X1190155Y5467983D1*
X1172045Y5480056D1*
X1111259Y5540843D1*
Y5455770D1*
X1123472Y5410518D2*
X1117295Y5416554D1*
X1111259Y5410518D1*
X1117295Y5404341D1*
X1123472Y5410518D1*
X1238728Y5352912D2*
Y5286229D1*
X1190155Y5322589D1*
Y5304339D1*
X1184118Y5292265D1*
X1178082Y5286229D1*
X1159832Y5280052D1*
X1147759D1*
X1129509Y5286229D1*
X1117295Y5298302D1*
X1111259Y5316552D1*
Y5334802D1*
X1117295Y5352912D1*
X1123472Y5358948D1*
X1135545Y5365125D1*
X1174993Y5117390D2*
Y5047198D1*
X1220618Y4799462D2*
X1232832Y4811535D1*
X1238868Y4829785D1*
Y4854072D1*
X1232832Y4872322D1*
X1220618Y4884535D1*
X1208545D1*
X1196332Y4878358D1*
X1190295Y4872322D1*
X1184259Y4860249D1*
X1172045Y4823749D1*
X1166009Y4811535D1*
X1159832Y4805499D1*
X1147759Y4799462D1*
X1129509D1*
X1117436Y4811535D1*
X1111259Y4829785D1*
Y4854072D1*
X1117436Y4872322D1*
X1129509Y4884535D1*
X1238868Y4760247D2*
X1178082Y4711674D1*
X1111259D1*
X1238868Y4663100D2*
X1178082Y4711674D1*
X1238868Y4538812D2*
X1111259D1*
X1238868Y4623885D1*
X1111259D1*
X1238868Y4457059D2*
X1111259D1*
X1238868Y4499596D2*
Y4414523D1*
Y4338807D2*
X1232832Y4351021D1*
X1220618Y4363094D1*
X1208545Y4369271D1*
X1190295Y4375307D1*
X1159832D1*
X1141722Y4369271D1*
X1129509Y4363094D1*
X1117436Y4351021D1*
X1111259Y4338807D1*
Y4314521D1*
X1117436Y4302448D1*
X1129509Y4290234D1*
X1141722Y4284198D1*
X1159832Y4278161D1*
X1190295D1*
X1208545Y4284198D1*
X1220618Y4290234D1*
X1232832Y4302448D1*
X1238868Y4314521D1*
Y4338807D1*
Y4153872D2*
X1111259D1*
X1238868Y4238945D1*
X1111259D1*
X1238868Y4114657D2*
X1111259D1*
X1238868Y3996545D2*
Y4075441D1*
X1111259D1*
Y3996545D1*
X1178082Y4075441D2*
Y4026868D1*
X1208405Y3827706D2*
X1214441D1*
X1226655Y3821669D1*
X1232691Y3815633D1*
X1238728Y3803419D1*
Y3779133D1*
X1232691Y3767060D1*
X1226655Y3761023D1*
X1214441Y3754846D1*
X1202368D1*
X1190155Y3761023D1*
X1172045Y3773096D1*
X1111259Y3833883D1*
Y3748810D1*
X1238728Y3673094D2*
X1232691Y3691344D1*
X1214441Y3703557D1*
X1184118Y3709594D1*
X1165868D1*
X1135545Y3703557D1*
X1117295Y3691344D1*
X1111259Y3673094D1*
Y3661021D1*
X1117295Y3642771D1*
X1135545Y3630698D1*
X1165868Y3624521D1*
X1184118D1*
X1214441Y3630698D1*
X1232691Y3642771D1*
X1238728Y3661021D1*
Y3673094D1*
X1214441Y3630698D2*
X1135545Y3703557D1*
X1214441Y3585305D2*
X1220618Y3573092D1*
X1238728Y3554842D1*
X1111259D1*
X1196332Y3436589D2*
X1178082Y3442766D1*
X1165868Y3454839D1*
X1159832Y3473089D1*
Y3479126D1*
X1165868Y3497376D1*
X1178082Y3509449D1*
X1196332Y3515626D1*
X1202368D1*
X1220618Y3509449D1*
X1232691Y3497376D1*
X1238728Y3479126D1*
Y3473089D1*
X1232691Y3454839D1*
X1220618Y3442766D1*
X1196332Y3436589D1*
X1165868D1*
X1135545Y3442766D1*
X1117295Y3454839D1*
X1111259Y3473089D1*
Y3485163D1*
X1117295Y3503413D1*
X1129509Y3509449D1*
M02*
